<?xml version="1.0" encoding="UTF-8" standalone="no"?>
<svg width="111px" height="24px" viewBox="0 0 111 24" version="1.1" xmlns="http://www.w3.org/2000/svg" xmlns:xlink="http://www.w3.org/1999/xlink">
    <!-- Generator: sketchtool 3.7.2 (28276) - http://www.bohemiancoding.com/sketch -->
    <title>4AAE4B00-1FA5-46DC-B2BF-66A8CAEC1342</title>
    <desc>Created with sketchtool.</desc>
    <defs></defs>
    <g id="A-Landing" stroke="none" stroke-width="1" fill="none" fill-rule="evenodd">
        <g id="A04-Home-(Desktop)---Without-features" transform="translate(-984.000000, -3008.000000)" fill="#697289">
            <g id="Group-9" transform="translate(859.000000, 3008.000000)">
                <g id="Group-39">
                    <g id="Group-40">
                        <g id="Group-35">
                            <g id="Group-43" transform="translate(125.948718, 2.923077)">
                                <g id="circ_Google_download">
                                    <path d="M0.587806448,19.5558002 C0.231753814,19.4621427 0,19.1169336 0,18.5827382 L0,0.949732853 C0,0.454986483 0.196229351,0.121316105 0.507290787,3.37507799e-14 L0.507290787,3.37507799e-14 L9.3805499,9.82662333 L0.587806448,19.5558002 L0.587806448,19.5558002 Z M1.80927433,19.181508 L12.489878,13.2700251 L9.88846515,10.3891102 L1.80927433,19.181508 L1.80927433,19.181508 Z M12.5634256,6.30476913 L2.03166764,0.474314283 L9.90386513,9.24757466 L12.5634256,6.30476913 L12.5634256,6.30476913 Z M13.2779968,6.70036076 L17.4037597,8.98441193 C18.1849234,9.41686967 18.1920672,10.1139868 17.4037597,10.550298 L13.173619,12.8915892 L10.4144914,9.81664793 L13.2779968,6.70036076 L13.2779968,6.70036076 Z" id="Google-Play-Vector-2"></path>
                                </g>
                            </g>
                            <path d="M215.894,19.2240385 L217.76,19.2240385 L217.76,7.20384615 L215.894,7.20384615 L215.894,19.2240385 Z M232.701,11.5336538 L230.562,16.7451923 L230.498,16.7451923 L228.278,11.5336538 L226.268,11.5336538 L229.597,18.8173077 L227.7,22.8692308 L229.645,22.8692308 L234.776,11.5336538 L232.701,11.5336538 Z M222.119,17.8586538 C221.507,17.8586538 220.655,17.5653846 220.655,16.8375 C220.655,15.9105769 221.716,15.5548077 222.633,15.5548077 C223.453,15.5548077 223.84,15.725 224.338,15.9567308 C224.193,17.0701923 223.196,17.8586538 222.119,17.8586538 L222.119,17.8586538 Z M222.344,11.2711538 C220.993,11.2711538 219.593,11.8432692 219.015,13.1115385 L220.671,13.7759615 C221.025,13.1115385 221.684,12.8942308 222.376,12.8942308 C223.341,12.8942308 224.322,13.4509615 224.338,14.4413462 L224.338,14.5644231 C224,14.3788462 223.277,14.1009615 222.392,14.1009615 C220.607,14.1009615 218.789,15.0442308 218.789,16.8067308 C218.789,18.4153846 220.253,19.4519231 221.893,19.4519231 C223.148,19.4519231 223.84,18.9105769 224.274,18.2759615 L224.338,18.2759615 L224.338,19.2038462 L226.139,19.2038462 L226.139,14.5951923 C226.139,12.4615385 224.483,11.2711538 222.344,11.2711538 L222.344,11.2711538 Z M210.812,12.9971154 L208.158,12.9971154 L208.158,8.87692308 L210.812,8.87692308 C212.207,8.87692308 212.999,9.9875 212.999,10.9365385 C212.999,11.8682692 212.207,12.9971154 210.812,12.9971154 L210.812,12.9971154 Z M210.764,7.20384615 L206.293,7.20384615 L206.293,19.2240385 L208.158,19.2240385 L208.158,14.6701923 L210.764,14.6701923 C212.832,14.6701923 214.865,13.2298077 214.865,10.9365385 C214.865,8.64326923 212.832,7.20384615 210.764,7.20384615 L210.764,7.20384615 Z M186.383,17.8605769 C185.094,17.8605769 184.015,16.8230769 184.015,15.3980769 C184.015,13.9576923 185.094,12.9038462 186.383,12.9038462 C187.656,12.9038462 188.654,13.9576923 188.654,15.3980769 C188.654,16.8230769 187.656,17.8605769 186.383,17.8605769 L186.383,17.8605769 Z M188.526,12.2067308 L188.461,12.2067308 C188.042,11.7269231 187.237,11.2932692 186.222,11.2932692 C184.095,11.2932692 182.146,13.0894231 182.146,15.3980769 C182.146,17.6903846 184.095,19.4721154 186.222,19.4721154 C187.237,19.4721154 188.042,19.0384615 188.461,18.5423077 L188.526,18.5423077 L188.526,19.1317308 C188.526,20.6961538 187.656,21.5326923 186.254,21.5326923 C185.11,21.5326923 184.401,20.7423077 184.111,20.0759615 L182.484,20.7269231 C182.951,21.8115385 184.192,23.1432692 186.254,23.1432692 C188.445,23.1432692 190.298,21.9038462 190.298,18.8836538 L190.298,11.5403846 L188.526,11.5403846 L188.526,12.2067308 Z M191.587,19.2240385 L193.456,19.2240385 L193.456,7.20288462 L191.587,7.20288462 L191.587,19.2240385 Z M196.21,15.2586538 C196.162,13.6788462 197.483,12.8730769 198.433,12.8730769 C199.175,12.8730769 199.803,13.2288462 200.012,13.7403846 L196.21,15.2586538 Z M202.01,13.8951923 C201.656,12.9817308 200.576,11.2932692 198.369,11.2932692 C196.178,11.2932692 194.358,12.95 194.358,15.3826923 C194.358,17.675 196.162,19.4721154 198.578,19.4721154 C200.528,19.4721154 201.656,18.3259615 202.123,17.6596154 L200.673,16.7298077 C200.19,17.4115385 199.529,17.8605769 198.578,17.8605769 C197.628,17.8605769 196.951,17.4423077 196.516,16.6221154 L202.203,14.3596154 L202.01,13.8951923 Z M156.702,12.5480769 L156.702,14.2826923 L161.019,14.2826923 C160.89,15.2586538 160.552,15.9711538 160.037,16.4663462 C159.408,17.0711538 158.425,17.7375 156.702,17.7375 C154.043,17.7375 151.965,15.6769231 151.965,13.1211538 C151.965,10.5644231 154.043,8.50480769 156.702,8.50480769 C158.136,8.50480769 159.183,9.04711538 159.956,9.74423077 L161.229,8.52019231 C160.149,7.52884615 158.716,6.76923077 156.702,6.76923077 C153.061,6.76923077 150,9.62019231 150,13.1211538 C150,16.6221154 153.061,19.4721154 156.702,19.4721154 C158.667,19.4721154 160.149,18.8519231 161.309,17.6903846 C162.502,16.5442308 162.872,14.9336538 162.872,13.6317308 C162.872,13.2288462 162.84,12.8576923 162.775,12.5480769 L156.702,12.5480769 Z M167.781,17.8605769 C166.492,17.8605769 165.38,16.8384615 165.38,15.3826923 C165.38,13.9105769 166.492,12.9038462 167.781,12.9038462 C169.069,12.9038462 170.181,13.9105769 170.181,15.3826923 C170.181,16.8384615 169.069,17.8605769 167.781,17.8605769 L167.781,17.8605769 Z M167.781,11.2932692 C165.428,11.2932692 163.511,13.0125 163.511,15.3826923 C163.511,17.7375 165.428,19.4721154 167.781,19.4721154 C170.133,19.4721154 172.05,17.7375 172.05,15.3826923 C172.05,13.0125 170.133,11.2932692 167.781,11.2932692 L167.781,11.2932692 Z M177.094,17.8605769 C175.805,17.8605769 174.693,16.8384615 174.693,15.3826923 C174.693,13.9105769 175.805,12.9038462 177.094,12.9038462 C178.383,12.9038462 179.494,13.9105769 179.494,15.3826923 C179.494,16.8384615 178.383,17.8605769 177.094,17.8605769 L177.094,17.8605769 Z M177.094,11.2932692 C174.742,11.2932692 172.825,13.0125 172.825,15.3826923 C172.825,17.7375 174.742,19.4721154 177.094,19.4721154 C179.446,19.4721154 181.363,17.7375 181.363,15.3826923 C181.363,13.0125 179.446,11.2932692 177.094,11.2932692 L177.094,11.2932692 Z" id="Fill-28"></path>
                        </g>
                    </g>
                </g>
            </g>
        </g>
    </g>
</svg>