<?xml version="1.0" encoding="UTF-8" standalone="no"?>
<svg width="17px" height="16px" viewBox="0 0 17 16" version="1.1" xmlns="http://www.w3.org/2000/svg" xmlns:xlink="http://www.w3.org/1999/xlink">
    <!-- Generator: sketchtool 3.6.1 (26313) - http://www.bohemiancoding.com/sketch -->
    <title>icon-bullet-1</title>
    <desc>Created with sketchtool.</desc>
    <defs></defs>
    <g id="A-Landing" stroke="none" stroke-width="1" fill="none" fill-rule="evenodd">
        <g id="A01-Home-(Desktop)" transform="translate(-200.000000, -2112.000000)" fill="#00AADF">
            <g id="Group-46" transform="translate(200.000000, 2110.000000)">
                <path d="M11.3129903,9.65489499 L13.8990543,7.0688309 C14.6802794,6.28760588 14.6802794,5.02247473 13.8990543,4.2412497 C13.1178293,3.46002468 11.8518263,3.46002468 11.0706012,4.2412497 L8.48453716,6.82731379 L5.89847307,4.2412497 C5.11724805,3.46002468 3.8521169,3.46002468 3.07089188,4.2412497 C2.28966685,5.02247473 2.28966685,6.28760588 3.07089188,7.0688309 L5.65695596,9.65489499 L3.07089188,12.2409591 C2.28966685,13.0221841 2.28966685,14.2873152 3.07089188,15.0685403 C3.46150439,15.4591528 3.97331141,15.654459 4.48511843,15.654459 C4.99692545,15.654459 5.50873246,15.4591528 5.89847307,15.0685403 L8.48453716,12.4833481 L11.0706012,15.0685403 C11.4612138,15.4591528 11.9730208,15.654459 12.4848278,15.654459 C12.9966348,15.654459 13.5084418,15.4591528 13.8990543,15.0685403 C14.6802794,14.2873152 14.6802794,13.0221841 13.8990543,12.2409591 L11.3129903,9.65489499 Z" id="icon-bullet-1" transform="translate(8.484973, 9.654895) rotate(-45.000000) translate(-8.484973, -9.654895) "></path>
            </g>
        </g>
    </g>
</svg>