<?xml version="1.0" encoding="UTF-8" standalone="no"?>
<svg width="14px" height="24px" viewBox="0 0 14 24" version="1.1" xmlns="http://www.w3.org/2000/svg" xmlns:xlink="http://www.w3.org/1999/xlink">
    <!-- Generator: sketchtool 3.6.1 (26313) - http://www.bohemiancoding.com/sketch -->
    <title>icon-features-monetization</title>
    <desc>Created with sketchtool.</desc>
    <defs></defs>
    <g id="A-Landing" stroke="none" stroke-width="1" fill="none" fill-rule="evenodd">
        <g id="A01-Home-(Desktop)" transform="translate(-737.000000, -4657.000000)">
            <g id="Group-42" transform="translate(0.000000, 4088.000000)">
                <g id="Group-36" transform="translate(135.000000, 493.000000)">
                    <g id="icon-features-monetization" transform="translate(600.000000, 72.000000)">
                        <g id="ic_attach_money">
                            <path d="M0,0 L32,0 L32,32 L0,32 L0,0 Z" id="Bounds" fill-opacity="0.100000001" fill="#D0011B" opacity="0"></path>
                            <path d="M5.73333333,11.6666667 C5.73333333,10.2133333 7.08,9.2 9.33333333,9.2 C11.7066667,9.2 12.5866667,10.3333333 12.6666667,12 L15.6133333,12 C15.52,9.70666667 14.12,7.6 11.3333333,6.92 L11.3333333,5.00489835 C11.3333333,4.44990832 10.8899802,4 10.3239644,4 L8.34270223,4 C7.78524318,4 7.33333333,4.45 7.33333333,5.00728424 L7.33333333,6.88 C4.74666667,7.44 2.66666667,9.12 2.66666667,11.6933333 C2.66666667,14.7733333 5.21333333,16.3066667 8.93333333,17.2 C12.2666667,18 12.9333333,19.1733333 12.9333333,20.4133333 C12.9333333,21.3333333 12.28,22.8 9.33333333,22.8 C6.58666667,22.8 5.50666667,21.5733333 5.36,20 L2.42666667,20 C2.58666667,22.92 4.77333333,24.56 7.33333333,25.1066667 L7.33333333,27.0042788 C7.33333333,27.5542004 7.77668651,28 8.34270223,28 L10.3239644,28 C10.8814235,28 11.3333333,27.5520833 11.3333333,26.9973791 L11.3333333,25.1333333 C13.9333333,24.64 16,23.1333333 16,20.4 C16,16.6133333 12.76,15.32 9.73333333,14.5333333 C6.70666667,13.7466667 5.73333333,12.9333333 5.73333333,11.6666667 Z" id="Icon-Shape" fill="#444F6C"></path>
                        </g>
                    </g>
                </g>
            </g>
        </g>
    </g>
</svg>