<?xml version="1.0" encoding="UTF-8" standalone="no"?>
<svg width="12px" height="13px" viewBox="0 0 12 13" version="1.1" xmlns="http://www.w3.org/2000/svg" xmlns:xlink="http://www.w3.org/1999/xlink">
    <!-- Generator: sketchtool 3.6.1 (26313) - http://www.bohemiancoding.com/sketch -->
    <title>icon-bullet-2</title>
    <desc>Created with sketchtool.</desc>
    <defs></defs>
    <g id="A-Landing" stroke="none" stroke-width="1" fill="none" fill-rule="evenodd">
        <g id="A01-Home-(Desktop)" transform="translate(-201.000000, -2261.000000)" fill="#00AADF">
            <g id="Group-45" transform="translate(201.000000, 2258.000000)">
                <path d="M8.8275812,9.65664874 L11.4136453,7.07058466 C12.1948703,6.28935963 12.1948703,5.02422848 11.4136453,4.24300346 C10.6324203,3.46177844 9.36641721,3.46177844 8.58519218,4.24300346 L5.9991281,6.82906754 L3.41306401,4.24300346 C2.63183899,3.46177844 1.36670784,3.46177844 0.585482816,4.24300346 C-0.195742207,5.02422848 -0.195742207,6.28935963 0.585482816,7.07058466 L3.1715469,9.65664874 L0.585482816,12.2427128 C-0.195742207,13.0239378 -0.195742207,14.289069 0.585482816,15.070294 C0.976095328,15.4609065 1.48790235,15.6562128 1.99970937,15.6562128 C2.51151638,15.6562128 3.0233234,15.4609065 3.41306401,15.070294 L5.9991281,12.4851018 L8.58519218,15.070294 C8.97580469,15.4609065 9.48761171,15.6562128 9.99941873,15.6562128 C10.5112258,15.6562128 11.0230328,15.4609065 11.4136453,15.070294 C12.1948703,14.289069 12.1948703,13.0239378 11.4136453,12.2427128 L8.8275812,9.65664874 Z" id="icon-bullet-2" transform="translate(5.999564, 9.656649) rotate(-90.000000) translate(-5.999564, -9.656649) "></path>
            </g>
        </g>
    </g>
</svg>