<?xml version="1.0" encoding="UTF-8" standalone="no"?>
<svg width="30px" height="30px" viewBox="0 0 30 30" version="1.1" xmlns="http://www.w3.org/2000/svg" xmlns:xlink="http://www.w3.org/1999/xlink">
    <!-- Generator: sketchtool 3.6.1 (26313) - http://www.bohemiancoding.com/sketch -->
    <title>icon-features-scalable</title>
    <desc>Created with sketchtool.</desc>
    <defs></defs>
    <g id="A-Landing" stroke="none" stroke-width="1" fill="none" fill-rule="evenodd">
        <g id="A01-Home-(Desktop)" transform="translate(-136.000000, -5290.000000)">
            <g id="Group-42" transform="translate(0.000000, 4088.000000)">
                <g id="Group-41" transform="translate(135.000000, 1129.000000)">
                    <g id="icon-features-scalable" transform="translate(0.000000, 72.000000)">
                        <g id="ic_toys">
                            <path d="M0,0 L32,0 L32,32 L0,32 L0,0 Z" id="Bounds" fill-opacity="0.100000001" fill="#D0011B" opacity="0"></path>
                            <path d="M16,16 C16,12 19.3333333,8.66666667 23.3333333,8.66666667 C27.3333333,8.66666667 30.6666667,12 30.6666667,16 L16,16 L16,16 Z M16,16 C16,20 12.6666667,23.3333333 8.66666667,23.3333333 C4.66666667,23.3333333 1.33333333,20 1.33333333,16 L16,16 L16,16 Z M16,16 C12,16 8.66666667,12.6666667 8.66666667,8.66666667 C8.66666667,4.66666667 12,1.33333333 16,1.33333333 L16,16 L16,16 Z M16,16 C20,16 23.3333333,19.3333333 23.3333333,23.3333333 C23.3333333,27.3333333 20,30.6666667 16,30.6666667 L16,16 L16,16 Z" id="Icon-Shape" fill="#444F6C"></path>
                        </g>
                    </g>
                </g>
            </g>
        </g>
    </g>
</svg>