<?xml version="1.0" encoding="UTF-8" standalone="no"?>
<svg width="32px" height="56px" viewBox="0 0 32 56" version="1.1" xmlns="http://www.w3.org/2000/svg" xmlns:xlink="http://www.w3.org/1999/xlink">
    <!-- Generator: sketchtool 3.7.2 (28276) - http://www.bohemiancoding.com/sketch -->
    <title>B9A7ECA3-8CBD-4074-B099-04110DCEC57E</title>
    <desc>Created with sketchtool.</desc>
    <defs></defs>
    <g id="A-Landing" stroke="none" stroke-width="1" fill="none" fill-rule="evenodd">
        <g id="A01-Home-(Desktop)" transform="translate(-237.000000, -715.000000)" fill="#FFFFFF">
            <g id="Group-25" transform="translate(0.000000, 687.000000)">
                <g id="Group-4">
                    <g id="icon-paris" transform="translate(237.000000, 28.000000)">
                        <path d="M0.62,54.68 C0.784,55.034 1.139,55.259 1.526,55.259 L8.285,55.259 C8.839,55.259 9.285,54.813 9.285,54.259 C9.285,50.592 12.311,46.33 16.217,46.33 C20.12,46.33 23.148,50.592 23.148,54.259 C23.148,54.813 23.595,55.259 24.148,55.259 L30.906,55.259 C31.298,55.259 31.649,55.032 31.813,54.68 C31.977,54.326 31.919,53.909 31.667,53.614 C31.636,53.577 28.514,49.86 25.332,42.97 C25.101,42.468 24.508,42.249 24.005,42.483 C23.503,42.713 23.283,43.309 23.516,43.809 C25.601,48.324 27.638,51.495 28.892,53.259 L25.091,53.259 C24.602,48.86 20.967,44.33 16.217,44.33 C11.467,44.33 7.832,48.855 7.343,53.259 L3.542,53.259 C4.796,51.492 6.832,48.321 8.918,43.811 C9.147,43.309 8.931,42.713 8.43,42.483 C7.925,42.253 7.334,42.47 7.102,42.97 C3.919,49.86 0.797,53.574 0.767,53.614 C0.514,53.909 0.457,54.326 0.62,54.68 L0.62,54.68 Z" id="Shape"></path>
                        <path d="M14.39,7.459 C14.202,7.647 14.097,7.904 14.099,8.17 C14.139,14.629 13.472,20.975 12.118,27.027 C11.997,27.566 12.337,28.101 12.876,28.22 C12.949,28.239 13.022,28.244 13.096,28.244 C13.554,28.244 13.967,27.929 14.071,27.463 C15.389,21.575 16.072,15.424 16.103,9.161 L16.337,9.161 C16.366,15.429 17.051,21.58 18.368,27.463 C18.488,28.001 19.026,28.343 19.561,28.22 C20.1,28.101 20.439,27.566 20.318,27.027 C18.964,20.976 18.297,14.631 18.338,8.17 C18.34,7.904 18.234,7.649 18.047,7.459 C17.859,7.271 17.605,7.164 17.338,7.164 L15.101,7.164 C14.833,7.165 14.577,7.271 14.39,7.459 L14.39,7.459 Z" id="Shape"></path>
                        <path d="M17.216,3.624 L17.216,1.332 C17.216,0.779 16.769,0.332 16.216,0.332 C15.663,0.332 15.216,0.779 15.216,1.332 L15.216,3.624 C15.216,4.177 15.663,4.624 16.216,4.624 C16.769,4.624 17.216,4.177 17.216,3.624 L17.216,3.624 Z" id="Shape"></path>
                        <path d="M5.26,37.787 C4.707,37.787 4.26,38.232 4.26,38.787 C4.26,39.34 4.707,39.787 5.26,39.787 L27.172,39.787 C27.725,39.787 28.172,39.34 28.172,38.787 C28.172,38.232 27.725,37.787 27.172,37.787 L23.574,37.787 C22.883,35.991 22.256,34.136 21.69,32.248 L22.873,32.248 C23.426,32.248 23.873,31.801 23.873,31.248 C23.873,30.693 23.426,30.248 22.873,30.248 L9.559,30.248 C9.006,30.248 8.559,30.693 8.559,31.248 C8.559,31.801 9.006,32.248 9.559,32.248 L10.738,32.248 C10.179,34.123 9.551,35.977 8.855,37.787 L5.26,37.787 L5.26,37.787 Z M12.832,32.248 L19.6,32.248 C20.147,34.134 20.772,35.98 21.449,37.787 L17.22,37.787 L17.22,35.495 C17.22,34.941 16.773,34.495 16.22,34.495 C15.667,34.495 15.22,34.941 15.22,35.495 L15.22,37.787 L10.989,37.787 C11.664,35.97 12.29,34.121 12.832,32.248 L12.832,32.248 Z" id="Shape"></path>
                    </g>
                </g>
            </g>
        </g>
    </g>
</svg>