<?xml version="1.0" encoding="UTF-8" standalone="no"?>
<svg width="23px" height="18px" viewBox="0 0 23 18" version="1.1" xmlns="http://www.w3.org/2000/svg" xmlns:xlink="http://www.w3.org/1999/xlink">
    <!-- Generator: sketchtool 3.6.1 (26313) - http://www.bohemiancoding.com/sketch -->
    <title>icon-features-extensions</title>
    <desc>Created with sketchtool.</desc>
    <defs></defs>
    <g id="A-Landing" stroke="none" stroke-width="1" fill="none" fill-rule="evenodd">
        <g id="A01-Home-(Desktop)" transform="translate(-136.000000, -4340.000000)">
            <g id="Group-42" transform="translate(0.000000, 4088.000000)">
                <g id="Group-18" transform="translate(135.000000, 174.000000)">
                    <g id="icon-features-extensions" transform="translate(0.000000, 72.000000)">
                        <g id="ic_view_quilt">
                            <path d="M0,0 L32,0 L32,32 L0,32 L0,0 Z" id="Bounds" fill-opacity="0.100000001" fill="#D0011B" opacity="0"></path>
                            <path d="M14.6669233,24 C15.4031613,24 16,23.3986998 16,22.6609799 L16,17.3390201 C16,16.5994997 15.4083778,16 14.6669233,16 L10.66641,16 C9.93017208,16 9.33333333,16.6013002 9.33333333,17.3390201 L9.33333333,22.6609799 C9.33333333,23.4005003 9.92495553,24 10.66641,24 L14.6669233,24 Z M6.66692334,24 C7.40316125,24 8,23.4033474 8,22.6686636 L8,7.99800311 C8,7.26272629 7.40837781,6.66666667 6.66692334,6.66666667 L2.66640999,6.66666667 C1.93017208,6.66666667 1.33333333,7.26331923 1.33333333,7.99800311 L1.33333333,22.6686636 C1.33333333,23.4039404 1.92495553,24 2.66640999,24 L6.66692334,24 Z M22.6669233,24 C23.4031613,24 24,23.3986998 24,22.6609799 L24,17.3390201 C24,16.5994997 23.4083778,16 22.6669233,16 L18.66641,16 C17.9301721,16 17.3333333,16.6013002 17.3333333,17.3390201 L17.3333333,22.6609799 C17.3333333,23.4005003 17.9249555,24 18.66641,24 L22.6669233,24 Z M9.33333333,13.3276465 C9.33333333,14.0671669 9.9264493,14.6666667 10.66077,14.6666667 L22.6725633,14.6666667 C23.4056864,14.6666667 24,14.0653664 24,13.3276465 L24,8.0056868 C24,7.2661664 23.406884,6.66666667 22.6725633,6.66666667 L10.66077,6.66666667 C9.92764697,6.66666667 9.33333333,7.26796691 9.33333333,8.0056868 L9.33333333,13.3276465 Z" id="Icon-Shape" fill="#444F6C"></path>
                        </g>
                    </g>
                </g>
            </g>
        </g>
    </g>
</svg>