<?xml version="1.0" encoding="UTF-8" standalone="no"?>
<svg width="28px" height="18px" viewBox="0 0 28 18" version="1.1" xmlns="http://www.w3.org/2000/svg" xmlns:xlink="http://www.w3.org/1999/xlink">
    <!-- Generator: sketchtool 3.6.1 (26313) - http://www.bohemiancoding.com/sketch -->
    <title>icon-features-rest-json-api</title>
    <desc>Created with sketchtool.</desc>
    <defs>
        <path id="path-1" d="M0,0 L32,0 L32,32 L0,32 L0,0 L0,0 Z"></path>
    </defs>
    <g id="A-Landing" stroke="none" stroke-width="1" fill="none" fill-rule="evenodd">
        <g id="A01-Home-(Desktop)" transform="translate(-736.000000, -5296.000000)">
            <g id="Group-42" transform="translate(0.000000, 4088.000000)">
                <g id="Group-41" transform="translate(135.000000, 1129.000000)">
                    <g id="icon-features-rest-json-api" transform="translate(600.000000, 72.000000)">
                        <g id="ic_compare_arrows">
                            <mask id="mask-2" fill="white">
                                <use xlink:href="#path-1"></use>
                            </mask>
                            <use id="Bounds" fill-opacity="0.100000001" fill="#D0011B" opacity="0" xlink:href="#path-1"></use>
                            <path d="M2.66692373,18.6666667 C2.11449701,18.6666667 1.66666667,19.1070124 1.66666667,19.6596349 L1.66666667,20.3403651 C1.66666667,20.8887663 2.11747583,21.3333333 2.66692373,21.3333333 L11.0133333,21.3333333 L11.0133333,24.3239644 C11.0133333,24.8814235 11.3301916,25.0156809 11.7197883,24.6251078 L15.6268784,20.7082255 C16.0170427,20.3170834 16.0164751,19.6823476 15.6268784,19.2917745 L11.7197883,15.3748922 C11.329624,14.98375 11.0133333,15.1100198 11.0133333,15.6760356 L11.0133333,18.6666667 L2.66692373,18.6666667 Z M18.9866667,13.3333333 L27.3330763,13.3333333 C27.885503,13.3333333 28.3333333,12.8929876 28.3333333,12.3403651 L28.3333333,11.6596349 C28.3333333,11.1112337 27.8825242,10.6666667 27.3330763,10.6666667 L18.9866667,10.6666667 L18.9866667,7.67603556 C18.9866667,7.11857651 18.6698084,6.98431905 18.2802117,7.37489216 L14.3731216,11.2917745 C13.9829573,11.6829166 13.9835249,12.3176524 14.3731216,12.7082255 L18.2802117,16.6251078 C18.670376,17.01625 18.9866667,16.8899802 18.9866667,16.3239644 L18.9866667,13.3333333 Z" id="Icon-Shape" fill="#222B35" mask="url(#mask-2)"></path>
                        </g>
                    </g>
                </g>
            </g>
        </g>
    </g>
</svg>