<?xml version="1.0" encoding="UTF-8" standalone="no"?>
<svg width="299px" height="149px" viewBox="0 0 299 149" version="1.1" xmlns="http://www.w3.org/2000/svg" xmlns:xlink="http://www.w3.org/1999/xlink">
    <!-- Generator: sketchtool 3.7.2 (28276) - http://www.bohemiancoding.com/sketch -->
    <title>DF9CCE4F-FBD5-47F0-BCC7-2C71E86AC257</title>
    <desc>Created with sketchtool.</desc>
    <defs>
        <polygon id="path-1" points="0 0 68 0 68 43 0 43"></polygon>
        <filter x="-50%" y="-50%" width="200%" height="200%" filterUnits="objectBoundingBox" id="filter-2">
            <feOffset dx="0" dy="-1" in="SourceAlpha" result="shadowOffsetInner1"></feOffset>
            <feComposite in="shadowOffsetInner1" in2="SourceAlpha" operator="arithmetic" k2="-1" k3="1" result="shadowInnerInner1"></feComposite>
            <feColorMatrix values="0 0 0 0 0   0 0 0 0 0   0 0 0 0 0  0 0 0 0.5 0" type="matrix" in="shadowInnerInner1"></feColorMatrix>
        </filter>
        <polygon id="path-3" points="0 0 68 0 68 43 0 43"></polygon>
        <filter x="-50%" y="-50%" width="200%" height="200%" filterUnits="objectBoundingBox" id="filter-4">
            <feOffset dx="0" dy="-1" in="SourceAlpha" result="shadowOffsetInner1"></feOffset>
            <feComposite in="shadowOffsetInner1" in2="SourceAlpha" operator="arithmetic" k2="-1" k3="1" result="shadowInnerInner1"></feComposite>
            <feColorMatrix values="0 0 0 0 0   0 0 0 0 0   0 0 0 0 0  0 0 0 0.5 0" type="matrix" in="shadowInnerInner1"></feColorMatrix>
        </filter>
        <polygon id="path-5" points="0 23.995 24 23.995 24 0 0 0"></polygon>
        <polygon id="path-7" points="0 0 68 0 68 43 0 43"></polygon>
        <filter x="-50%" y="-50%" width="200%" height="200%" filterUnits="objectBoundingBox" id="filter-8">
            <feOffset dx="0" dy="-1" in="SourceAlpha" result="shadowOffsetInner1"></feOffset>
            <feComposite in="shadowOffsetInner1" in2="SourceAlpha" operator="arithmetic" k2="-1" k3="1" result="shadowInnerInner1"></feComposite>
            <feColorMatrix values="0 0 0 0 0   0 0 0 0 0   0 0 0 0 0  0 0 0 0.5 0" type="matrix" in="shadowInnerInner1"></feColorMatrix>
        </filter>
        <polygon id="path-9" points="0 0 68 0 68 43 0 43"></polygon>
        <filter x="-50%" y="-50%" width="200%" height="200%" filterUnits="objectBoundingBox" id="filter-10">
            <feOffset dx="0" dy="-1" in="SourceAlpha" result="shadowOffsetInner1"></feOffset>
            <feComposite in="shadowOffsetInner1" in2="SourceAlpha" operator="arithmetic" k2="-1" k3="1" result="shadowInnerInner1"></feComposite>
            <feColorMatrix values="0 0 0 0 0   0 0 0 0 0   0 0 0 0 0  0 0 0 0.5 0" type="matrix" in="shadowInnerInner1"></feColorMatrix>
        </filter>
        <polygon id="path-11" points="0 0 68 0 68 43 0 43"></polygon>
        <filter x="-50%" y="-50%" width="200%" height="200%" filterUnits="objectBoundingBox" id="filter-12">
            <feOffset dx="0" dy="-1" in="SourceAlpha" result="shadowOffsetInner1"></feOffset>
            <feComposite in="shadowOffsetInner1" in2="SourceAlpha" operator="arithmetic" k2="-1" k3="1" result="shadowInnerInner1"></feComposite>
            <feColorMatrix values="0 0 0 0 0   0 0 0 0 0   0 0 0 0 0  0 0 0 0.5 0" type="matrix" in="shadowInnerInner1"></feColorMatrix>
        </filter>
        <polygon id="path-13" points="0 0 68 0 68 43 0 43"></polygon>
        <filter x="-50%" y="-50%" width="200%" height="200%" filterUnits="objectBoundingBox" id="filter-14">
            <feOffset dx="0" dy="-1" in="SourceAlpha" result="shadowOffsetInner1"></feOffset>
            <feComposite in="shadowOffsetInner1" in2="SourceAlpha" operator="arithmetic" k2="-1" k3="1" result="shadowInnerInner1"></feComposite>
            <feColorMatrix values="0 0 0 0 0   0 0 0 0 0   0 0 0 0 0  0 0 0 0.5 0" type="matrix" in="shadowInnerInner1"></feColorMatrix>
        </filter>
        <polygon id="path-15" points="0 0 68 0 68 43 0 43"></polygon>
        <filter x="-50%" y="-50%" width="200%" height="200%" filterUnits="objectBoundingBox" id="filter-16">
            <feOffset dx="0" dy="-1" in="SourceAlpha" result="shadowOffsetInner1"></feOffset>
            <feComposite in="shadowOffsetInner1" in2="SourceAlpha" operator="arithmetic" k2="-1" k3="1" result="shadowInnerInner1"></feComposite>
            <feColorMatrix values="0 0 0 0 0   0 0 0 0 0   0 0 0 0 0  0 0 0 0.5 0" type="matrix" in="shadowInnerInner1"></feColorMatrix>
        </filter>
        <rect id="path-17" x="0" y="0" width="68" height="43"></rect>
        <filter x="-50%" y="-50%" width="200%" height="200%" filterUnits="objectBoundingBox" id="filter-18">
            <feOffset dx="0" dy="-1" in="SourceAlpha" result="shadowOffsetInner1"></feOffset>
            <feComposite in="shadowOffsetInner1" in2="SourceAlpha" operator="arithmetic" k2="-1" k3="1" result="shadowInnerInner1"></feComposite>
            <feColorMatrix values="0 0 0 0 0   0 0 0 0 0   0 0 0 0 0  0 0 0 0.5 0" type="matrix" in="shadowInnerInner1"></feColorMatrix>
        </filter>
        <polygon id="path-19" points="0 0 68 0 68 43 0 43"></polygon>
        <filter x="-50%" y="-50%" width="200%" height="200%" filterUnits="objectBoundingBox" id="filter-20">
            <feOffset dx="0" dy="-1" in="SourceAlpha" result="shadowOffsetInner1"></feOffset>
            <feComposite in="shadowOffsetInner1" in2="SourceAlpha" operator="arithmetic" k2="-1" k3="1" result="shadowInnerInner1"></feComposite>
            <feColorMatrix values="0 0 0 0 0   0 0 0 0 0   0 0 0 0 0  0 0 0 0.5 0" type="matrix" in="shadowInnerInner1"></feColorMatrix>
        </filter>
        <polygon id="path-21" points="0 0 68 0 68 43 0 43"></polygon>
        <filter x="-50%" y="-50%" width="200%" height="200%" filterUnits="objectBoundingBox" id="filter-22">
            <feOffset dx="0" dy="-1" in="SourceAlpha" result="shadowOffsetInner1"></feOffset>
            <feComposite in="shadowOffsetInner1" in2="SourceAlpha" operator="arithmetic" k2="-1" k3="1" result="shadowInnerInner1"></feComposite>
            <feColorMatrix values="0 0 0 0 0   0 0 0 0 0   0 0 0 0 0  0 0 0 0.5 0" type="matrix" in="shadowInnerInner1"></feColorMatrix>
        </filter>
        <polygon id="path-23" points="0 0 68 0 68 43 0 43"></polygon>
        <filter x="-50%" y="-50%" width="200%" height="200%" filterUnits="objectBoundingBox" id="filter-24">
            <feOffset dx="0" dy="-1" in="SourceAlpha" result="shadowOffsetInner1"></feOffset>
            <feComposite in="shadowOffsetInner1" in2="SourceAlpha" operator="arithmetic" k2="-1" k3="1" result="shadowInnerInner1"></feComposite>
            <feColorMatrix values="0 0 0 0 0   0 0 0 0 0   0 0 0 0 0  0 0 0 0.5 0" type="matrix" in="shadowInnerInner1"></feColorMatrix>
        </filter>
        <polygon id="path-25" points="0 0 68 0 68 43 0 43"></polygon>
        <filter x="-50%" y="-50%" width="200%" height="200%" filterUnits="objectBoundingBox" id="filter-26">
            <feOffset dx="0" dy="-1" in="SourceAlpha" result="shadowOffsetInner1"></feOffset>
            <feComposite in="shadowOffsetInner1" in2="SourceAlpha" operator="arithmetic" k2="-1" k3="1" result="shadowInnerInner1"></feComposite>
            <feColorMatrix values="0 0 0 0 0   0 0 0 0 0   0 0 0 0 0  0 0 0 0.5 0" type="matrix" in="shadowInnerInner1"></feColorMatrix>
        </filter>
        <linearGradient x1="32.5394422%" y1="17.4725076%" x2="77.9446215%" y2="128.188822%" id="linearGradient-27">
            <stop stop-color="#FFFFFF" stop-opacity="0.5" offset="0%"></stop>
            <stop stop-color="#FFFFFF" stop-opacity="0.03" offset="75%"></stop>
        </linearGradient>
        <linearGradient x1="5.23925362%" y1="49.998209%" x2="136.164889%" y2="49.998209%" id="linearGradient-28">
            <stop stop-color="#FFFFFF" stop-opacity="0.9" offset="0%"></stop>
            <stop stop-color="#FFFFFF" stop-opacity="0.1" offset="60%"></stop>
        </linearGradient>
    </defs>
    <g id="A-Landing" stroke="none" stroke-width="1" fill="none" fill-rule="evenodd">
        <g id="A04-Home-(Desktop)---Without-features" transform="translate(-1002.000000, -1816.000000)">
            <g id="Step-1---1" transform="translate(0.000000, 1330.000000)">
                <g id="Group-18" transform="translate(985.000000, 486.000000)">
                    <g id="Group-38" opacity="0.7" transform="translate(0.000000, 8.000000)">
                        <g id="Group-21">
                            <g id="Rectangle-295" opacity="0" fill-opacity="1" fill="black">
                                <use filter="url(#filter-2)" xlink:href="#path-1"></use>
                            </g>
                            <g id="shopify_glyph" transform="translate(24.000000, 12.000000)">
                                <g id="Imported-Layers-Copy-6" transform="translate(0.900000, 0.305556)">
                                    <path d="M17.3455102,15.3218391 L17.3455102,0.988505747 C17.459495,0.329666667 17.3455102,0 16.3543382,0 L0.991172014,0 C0.443549476,0 0,0.442356322 0,0.988505747 L0,16.8045977 C0,17.3507471 0.69134248,17.7931034 1.23896502,17.7931034 L19.0800613,17.7931034 C19.6276838,17.7931034 19.8234403,17.3507471 19.8234403,16.8045977 L19.8234403,3.95402299 C19.8234403,3.40787356 19.6276838,2.96551724 19.0800613,2.96551724 L17.3455102,2.96551724" id="Stroke-1" stroke="#7B8397" stroke-width="0.983796296" stroke-linecap="round" stroke-linejoin="round"></path>
                                    <path d="M3.46910205,3.45977011 L6.9382041,3.45977011 L6.9382041,6.42528736 L3.46910205,6.42528736 L3.46910205,3.45977011 Z M2.47793003,7.4137931 L7.92937611,7.4137931 L7.92937611,2.47126437 L2.47793003,2.47126437 L2.47793003,7.4137931 Z" id="Fill-2" fill="#7B8397"></path>
                                    <polygon id="Fill-3" fill="#7B8397" points="9.41613413 4.44827586 14.8675802 4.44827586 14.8675802 5.43678161 9.41613413 5.43678161"></polygon>
                                    <polygon id="Fill-4" fill="#7B8397" points="9.41613413 2.47126437 14.8675802 2.47126437 14.8675802 3.45977011 9.41613413 3.45977011"></polygon>
                                    <polygon id="Fill-5" fill="#7B8397" points="9.41613413 6.42528736 14.8675802 6.42528736 14.8675802 7.4137931 9.41613413 7.4137931"></polygon>
                                    <polygon id="Fill-6" fill="#7B8397" points="9.41613413 12.3563218 14.8675802 12.3563218 14.8675802 13.3448276 9.41613413 13.3448276"></polygon>
                                    <polygon id="Fill-7" fill="#7B8397" points="9.41613413 14.3333333 14.8675802 14.3333333 14.8675802 15.3218391 9.41613413 15.3218391"></polygon>
                                    <polygon id="Fill-8" fill="#7B8397" points="2.47793003 12.3563218 7.92937611 12.3563218 7.92937611 13.3448276 2.47793003 13.3448276"></polygon>
                                    <polygon id="Fill-9" fill="#7B8397" points="2.47793003 14.3333333 7.92937611 14.3333333 7.92937611 15.3218391 2.47793003 15.3218391"></polygon>
                                    <polygon id="Fill-10" fill="#7B8397" points="2.47793003 8.40229885 14.8675802 8.40229885 14.8675802 9.3908046 2.47793003 9.3908046"></polygon>
                                    <polygon id="Fill-11" fill="#7B8397" points="2.47793003 10.3793103 14.8675802 10.3793103 14.8675802 11.3678161 2.47793003 11.3678161"></polygon>
                                </g>
                            </g>
                        </g>
                        <g id="Group-24" transform="translate(135.000000, 0.000000)">
                            <g id="Rectangle-295" opacity="0" fill-opacity="1" fill="black">
                                <use filter="url(#filter-4)" xlink:href="#path-3"></use>
                            </g>
                            <g id="Glyph" transform="translate(22.000000, 10.000000)">
                                <mask id="mask-6" fill="white">
                                    <use xlink:href="#path-5"></use>
                                </mask>
                                <g id="Clip-2"></g>
                                <path d="M21.3333333,6.66666667 C21.3333333,7.03483333 21.0348333,7.33333333 20.6666667,7.33333333 L17.3333333,7.33333333 C16.9651667,7.33333333 16.6666667,7.03483333 16.6666667,6.66666667 L16.6666667,3.33333333 C16.6666667,2.96516667 16.9651667,2.66666667 17.3333333,2.66666667 L20.6666667,2.66666667 C21.0348333,2.66666667 21.3333333,2.96516667 21.3333333,3.33333333 L21.3333333,6.66666667 L21.3333333,6.66666667 Z M21.3333333,20.6666667 C21.3333333,21.0348333 21.0348333,21.3333333 20.6666667,21.3333333 L3.33333333,21.3333333 C2.96516667,21.3333333 2.66666667,21.0348333 2.66666667,20.6666667 L2.66666667,10 L4.94283333,10 C4.763,10.63575 4.66666667,11.3066667 4.66666667,12 C4.66666667,16.0500833 7.94991667,19.3333333 12,19.3333333 C16.0500833,19.3333333 19.3333333,16.0500833 19.3333333,12 C19.3333333,11.3066667 19.237,10.63575 19.0571667,10 L21.3333333,10 L21.3333333,20.6666667 L21.3333333,20.6666667 Z M12,7.33333333 C14.5773333,7.33333333 16.6666667,9.42266667 16.6666667,12 C16.6666667,14.5773333 14.5773333,16.6666667 12,16.6666667 C9.42266667,16.6666667 7.33333333,14.5773333 7.33333333,12 C7.33333333,9.42266667 9.42266667,7.33333333 12,7.33333333 L12,7.33333333 Z M20.6666667,0 L3.33333333,0 C1.49241667,0 0,1.49241667 0,3.33333333 L0,20.6666667 C0,22.5075833 1.49241667,24 3.33333333,24 L20.6666667,24 C22.5075833,24 24,22.5075833 24,20.6666667 L24,3.33333333 C24,1.49241667 22.5075833,0 20.6666667,0 L20.6666667,0 Z" id="Fill-1" fill="#7B8397" mask="url(#mask-6)"></path>
                            </g>
                        </g>
                        <g id="Group-26" transform="translate(203.000000, 0.000000)" fill-opacity="1" fill="black" opacity="0">
                            <g id="Rectangle-295">
                                <use filter="url(#filter-8)" xlink:href="#path-7"></use>
                            </g>
                        </g>
                        <g id="Group-29" transform="translate(229.000000, 10.000000)" stroke="#7B8397" stroke-width="1.02422628">
                            <ellipse id="Oval-96" cx="7.73928833" cy="7.77282842" rx="2.57976278" ry="2.59094281"></ellipse>
                            <path d="M5.94393137,19.6252269 C6.49390369,20.5399814 7.22005733,21.7843488 7.22005733,21.7843488 C7.50682069,22.2738944 7.97613991,22.2696947 8.26311424,21.7842298 C8.26311424,21.7842298 9.03815121,20.4698115 9.60410793,19.5264163 C14.9345163,10.64114 15.4785767,10.6300235 15.4785767,7.77282842 C15.4785767,3.48001382 12.0135792,0 7.73928833,0 C3.46499741,0 0,3.48001382 0,7.77282842 C0,10.9619618 1.24689249,11.812766 5.94393137,19.6252269 Z" id="Oval-96"></path>
                        </g>
                        <g id="Group-27" transform="translate(0.000000, 43.000000)">
                            <g id="Rectangle-295" opacity="0" fill-opacity="1" fill="black">
                                <use filter="url(#filter-10)" xlink:href="#path-9"></use>
                            </g>
                            <g id="Page-1" transform="translate(18.000000, 14.000000)" fill="#7B8397">
                                <path d="M1.59151583,7.22311579 C1.52150436,7.22311579 1.46390573,7.27704291 1.45444472,7.3513749 C1.45444472,7.3516664 1.13042408,10.2006947 1.13042408,10.2006947 L1.45444472,12.9872696 C1.46390573,13.0618202 1.52150436,13.1158202 1.59151583,13.1158202 C1.66099748,13.1158202 1.71715803,13.0632049 1.72828417,12.9878526 L2.09711216,10.2006947 L1.72843555,7.35122915 C1.71715803,7.27558543 1.66099748,7.22311579 1.59151583,7.22311579" id="Fill-1"></path>
                                <path d="M0.373111927,8.31445506 C0.304387156,8.31445506 0.250043119,8.36561296 0.24096055,8.43856032 L-3.02752294e-05,10.2007385 L0.24096055,11.9328194 C0.250043119,12.0057668 0.304387156,12.0567789 0.373111927,12.0567789 C0.439944495,12.0567789 0.494061468,12.006204 0.50496055,11.9334753 L0.790380275,10.2007385 L0.50496055,8.43790445 C0.494212844,8.36524858 0.439944495,8.31445506 0.373111927,8.31445506" id="Fill-3"></path>
                                <path d="M2.88619817,6.66442348 C2.79915688,6.66442348 2.72967523,6.72986478 2.72089541,6.82015628 C2.72089541,6.8203749 2.41345046,10.2010227 2.41345046,10.2010227 L2.72089541,13.4584397 C2.72967523,13.5490227 2.79915688,13.6143911 2.88619817,13.6143911 C2.97165,13.6143911 3.04098028,13.5490227 3.05112248,13.4590955 L3.40065,10.2010227 L3.05134954,6.82001053 C3.04098028,6.72971903 2.97165,6.66442348 2.88619817,6.66442348" id="Fill-6"></path>
                                <path d="M4.19152225,6.54493846 C4.08934335,6.54493846 4.00616216,6.62364291 3.99798784,6.72792632 L3.70734564,10.2017077 L3.99798784,13.5623879 C4.00616216,13.6663069 4.08934335,13.7449385 4.19152225,13.7449385 C4.29233876,13.7449385 4.37544427,13.6663069 4.38460252,13.5623879 L4.71482959,10.2017077 L4.38460252,6.72727045 C4.37544427,6.62342429 4.29233876,6.54493846 4.19152225,6.54493846" id="Fill-8"></path>
                                <path id="Fill-10"></path>
                                <path d="M5.72856537,6.9783085 C5.7200883,6.85952308 5.62487271,6.76923158 5.50717775,6.76923158 C5.38842317,6.76923158 5.29328326,6.85966883 5.28586583,6.97962024 L5.01149656,10.2019846 L5.28586583,13.5903571 C5.29328326,13.7097255 5.38842317,13.8003085 5.50717775,13.8003085 C5.62479702,13.8003085 5.71993693,13.7097984 5.72856537,13.5902113 L6.03941628,10.2019846 L5.72856537,6.9783085 Z" id="Fill-12"></path>
                                <path d="M6.83380046,4.72282834 C6.70066514,4.72282834 6.59099312,4.82733036 6.58425688,4.96061781 C6.58425688,4.96076356 6.32661468,10.2033547 6.32661468,10.2033547 L6.58425688,13.5913628 C6.59099312,13.7237028 6.70066514,13.8282777 6.83380046,13.8282777 C6.96580046,13.8282777 7.0753211,13.7237028 7.08319266,13.590634 L7.08319266,13.5917271 L7.37466743,10.2033547 L7.08319266,4.96039919 C7.0753211,4.82711174 6.96580046,4.72282834 6.83380046,4.72282834" id="Fill-14"></path>
                                <path d="M8.15036422,3.51498462 C8.00088028,3.51498462 7.87894679,3.63129231 7.87243761,3.7798834 C7.87243761,3.78024777 7.63159817,10.2216243 7.63159817,10.2216243 L7.87274037,13.5886445 C7.87894679,13.7359968 8.00088028,13.8523045 8.15036422,13.8523045 C8.29878853,13.8523045 8.42072202,13.7359968 8.4278367,13.5874057 L8.42768532,13.5893004 L8.70031376,10.2216243 L8.4278367,3.7798834 C8.42072202,3.63129231 8.29878853,3.51498462 8.15036422,3.51498462" id="Fill-16"></path>
                                <path d="M9.51843372,2.93298704 C9.35275252,2.93298704 9.21840619,3.06153765 9.21250252,3.22543239 C9.21250252,3.22557814 8.98823876,10.2046955 8.98823876,10.2046955 L9.2126539,13.5371004 C9.21840619,13.699319 9.35275252,13.827651 9.51843372,13.827651 C9.68320665,13.827651 9.81740161,13.6996834 9.82421353,13.5357158 L9.82406216,13.5376834 L10.0773144,10.2046955 L9.82421353,3.22528664 C9.81740161,3.06131903 9.68320665,2.93298704 9.51843372,2.93298704" id="Fill-18"></path>
                                <path d="M11.2105541,2.99049231 C11.2046505,2.81122105 11.0581183,2.67093765 10.8767697,2.67093765 C10.6948156,2.67093765 10.5481321,2.8113668 10.5428339,2.99071093 L10.3351459,10.2050672 L10.5429853,13.5167028 C10.5481321,13.6940065 10.6948156,13.8342899 10.8767697,13.8342899 C11.0580427,13.8342899 11.2044991,13.6940794 11.2105541,13.5153182 L11.4445817,10.2053587 L11.2105541,2.99049231 Z" id="Fill-20"></path>
                                <path id="Fill-22"></path>
                                <path d="M12.2457248,2.82855061 C12.0472706,2.82855061 11.8881743,2.9808583 11.8835573,3.17528745 L11.692445,10.2057085 L11.8837844,13.4857166 C11.8881743,13.6783239 12.0472706,13.830996 12.2457248,13.830996 C12.4433463,13.830996 12.6022156,13.6783239 12.6075894,13.4840405 L12.6075894,13.4863725 L12.8223922,10.2057085 L12.6075894,3.17492308 C12.6022156,2.98063968 12.4433463,2.82855061 12.2457248,2.82855061" id="Fill-24"></path>
                                <path d="M13.6252534,3.05813441 C13.4106778,3.05813441 13.2391686,3.22261215 13.2350814,3.43234494 L13.0606961,10.2060291 L13.2352328,13.4654138 C13.2391686,13.6730332 13.4106778,13.8370008 13.6252534,13.8370008 C13.8392236,13.8370008 14.0105814,13.6730332 14.0152741,13.4630818 L14.0152741,13.4657781 L14.2107007,10.2063935 L14.0152741,3.43168907 C14.0105814,3.2224664 13.8392236,3.05813441 13.6252534,3.05813441" id="Fill-26"></path>
                                <path d="M15.2464163,1.81332874 C15.1799622,1.76996842 15.100414,1.74468097 15.0153406,1.74468097 C14.9326135,1.74468097 14.855336,1.76880243 14.7900929,1.80997652 C14.676258,1.88161215 14.5994346,2.00542591 14.597164,2.14607368 L14.5956502,2.22208178 L14.4392787,10.2044623 C14.4392787,10.2092721 14.597164,13.4447538 14.597164,13.4447538 C14.5972397,13.4494178 14.5978452,13.453936 14.5980722,13.4585271 C14.6028406,13.5489644 14.6384897,13.6322599 14.6954828,13.6979198 C14.7724576,13.7867538 14.8877305,13.8436688 15.0153406,13.8436688 C15.1287213,13.8436688 15.2323383,13.7987053 15.3080264,13.7260494 C15.3837144,13.6535393 15.4315493,13.5534097 15.4336686,13.442932 L15.4510768,13.1226486 L15.6098704,10.2069401 L15.4337443,2.14570931 C15.4311709,2.00753927 15.3569966,1.88547449 15.2464163,1.81332874" id="Fill-28"></path>
                                <path id="Fill-30"></path>
                                <path d="M16.626611,1.04899919 C16.5598541,1.01008421 16.4822739,0.987274494 16.3995468,0.987274494 C16.2931294,0.987274494 16.1949619,1.02407611 16.1179115,1.08536356 C16.0188358,1.16406802 15.954728,1.28307206 15.9529115,1.41592227 L15.9519275,1.46022996 L15.7698977,10.2077927 L15.862767,11.8248049 L15.9529872,13.3984567 C15.9561661,13.6313636 16.1562853,13.8236794 16.3995468,13.8236794 C16.6419757,13.8236794 16.8421706,13.6313636 16.8455766,13.3951045 L16.8455766,13.3987482 L16.8455766,13.3988211 L17.0442578,10.2077927 L17.0442578,10.2077198 L16.8455766,1.4152664 C16.843306,1.25997085 16.7554321,1.12398704 16.626611,1.04899919" id="Fill-32"></path>
                                <path d="M28.90168,6.04613441 C28.346281,6.04613441 27.8163131,6.15457166 27.3338016,6.34914656 C27.011219,2.83207773 23.9479713,0.0729036437 20.2111755,0.0729036437 C19.2967122,0.0729036437 18.4054094,0.245980567 17.6181021,0.53922753 C17.3120952,0.653348988 17.2309576,0.770312551 17.2280057,0.998118219 L17.2280057,13.3848146 C17.2312603,13.6236972 17.4237351,13.8093085 17.6658612,13.8326283 C17.6761548,13.8336486 28.90168,13.8326283 28.90168,13.8326283 C31.1402305,13.8326283 32.9548521,12.1047741 32.9548521,9.94914656 C32.9548521,7.79344615 31.1402305,6.04613441 28.90168,6.04613441" id="Fill-34"></path>
                                <path d="M29.510144,17.38483 L29.2152633,17.38483 L29.2152633,15.6206113 L29.5320936,15.6206113 C30.1650729,15.6206113 30.4263482,15.9127652 30.4263482,16.5027571 C30.4263482,17.0304413 30.1399445,17.38483 29.510144,17.38483 L29.510144,17.38483 Z M29.5536647,15.0596235 L28.6158138,15.0596235 L28.6158138,17.9453806 L29.510144,17.9453806 C30.282011,17.9453806 31.043206,17.5164413 31.043206,16.5027571 C31.043206,15.4470243 30.4102266,15.0596235 29.5536647,15.0596235 L29.5536647,15.0596235 Z M27.2669766,16.679915 C27.2669766,17.1413563 27.0322679,17.4261498 26.6510271,17.4261498 C26.2696349,17.4261498 26.0384835,17.1333401 26.0384835,16.6718988 L26.0384835,15.0596235 L25.4390339,15.0596235 L25.4390339,16.679915 C25.4390339,17.520668 25.9273734,17.9906356 26.6510271,17.9906356 C27.4129032,17.9906356 27.8670317,17.507915 27.8670317,16.6718988 L27.8670317,15.0596235 L27.2669766,15.0596235 L27.2669766,16.679915 Z M23.5466807,17.4175506 C23.0625041,17.4175506 22.8613252,17.0179798 22.8613252,16.5027571 C22.8613252,15.98717 23.0625041,15.5876721 23.5466807,15.5876721 C24.0301005,15.5876721 24.2309766,15.98717 24.2309766,16.5027571 C24.2309766,17.0179798 24.0301005,17.4175506 23.5466807,17.4175506 L23.5466807,17.4175506 Z M23.5466807,15.0144413 C22.7285683,15.0144413 22.2451486,15.6242551 22.2451486,16.5027571 C22.2451486,17.3811134 22.7285683,17.9906356 23.5466807,17.9906356 C24.3642633,17.9906356 24.8483642,17.3811134 24.8483642,16.5027571 C24.8483642,15.6242551 24.3642633,15.0144413 23.5466807,15.0144413 L23.5466807,15.0144413 Z M20.7657495,15.0596235 L20.1659972,15.0596235 L20.1659972,17.9453806 L21.9680546,17.9453806 L21.9680546,17.3765223 L20.7657495,17.3765223 L20.7657495,15.0596235 Z M18.5425638,15.5876721 C18.8121647,15.5876721 18.9836739,15.7030324 19.0906211,15.9007409 L19.6467014,15.6531862 C19.4584651,15.2781741 19.116128,15.0144413 18.5509651,15.0144413 C17.7678206,15.0144413 17.219839,15.6242551 17.219839,16.5027571 C17.219839,17.4135425 17.7455683,17.9906356 18.5296968,17.9906356 C19.0735156,17.9906356 19.4329583,17.7474534 19.6386028,17.3390648 L19.1332335,17.0502632 C18.9750454,17.3061984 18.8164032,17.4175506 18.5467266,17.4175506 C18.0969124,17.4175506 17.8355615,17.0216964 17.8355615,16.5027571 C17.8355615,15.9669838 18.093355,15.5876721 18.5425638,15.5876721 L18.5425638,15.5876721 Z M15.1559009,17.38483 L14.8602633,17.38483 L14.8602633,15.6206113 L15.1775477,15.6206113 C15.8111326,15.6206113 16.0723321,15.9127652 16.0723321,16.5027571 C16.0723321,17.0304413 15.7852472,17.38483 15.1559009,17.38483 L15.1559009,17.38483 Z M15.1984376,15.0596235 L14.2612679,15.0596235 L14.2612679,17.9453806 L15.1559009,17.9453806 C15.9264055,17.9453806 16.6888872,17.5164413 16.6888872,16.5027571 C16.6888872,15.4470243 16.0548482,15.0596235 15.1984376,15.0596235 L15.1984376,15.0596235 Z M12.8997908,16.2800526 C12.8997908,16.4407409 12.9081165,16.8035101 12.9081165,16.9109271 C12.8697427,16.8368138 12.7711968,16.6919393 12.6986119,16.5848138 L11.6364055,15.0596235 L11.0627656,15.0596235 L11.0627656,17.9453806 L11.6538138,17.9453806 L11.6538138,16.6756883 C11.6538138,16.5149271 11.6450339,16.1522308 11.6450339,16.0448866 C11.6838619,16.1190729 11.7823321,16.2632186 11.8546142,16.3708543 L12.9551945,17.9453806 L13.4907633,17.9453806 L13.4907633,15.0596235 L12.8997908,15.0596235 L12.8997908,16.2800526 Z M9.71423119,16.679915 C9.71423119,17.1413563 9.47884128,17.4261498 9.09805459,17.4261498 C8.71696514,17.4261498 8.48573807,17.1333401 8.48573807,16.6718988 L8.48573807,15.0596235 L7.88636422,15.0596235 L7.88636422,16.679915 C7.88636422,17.520668 8.37462798,17.9906356 9.09805459,17.9906356 C9.85985505,17.9906356 10.313605,17.507915 10.313605,16.6718988 L10.313605,15.0596235 L9.71423119,15.0596235 L9.71423119,16.679915 Z M5.99416239,17.4175506 C5.51013716,17.4175506 5.30888257,17.0179798 5.30888257,16.5027571 C5.30888257,15.98717 5.51013716,15.5876721 5.99416239,15.5876721 C6.47796055,15.5876721 6.6788367,15.98717 6.6788367,16.5027571 C6.6788367,17.0179798 6.47796055,17.4175506 5.99416239,17.4175506 L5.99416239,17.4175506 Z M5.99416239,15.0144413 C5.17650413,15.0144413 4.69270596,15.6242551 4.69270596,16.5027571 C4.69270596,17.3811134 5.17650413,17.9906356 5.99416239,17.9906356 C6.81159358,17.9906356 7.29561881,17.3811134 7.29561881,16.5027571 C7.29561881,15.6242551 6.81159358,15.0144413 5.99416239,15.0144413 L5.99416239,15.0144413 Z M3.23624037,16.1809433 C2.76084358,16.0733077 2.63270367,16.0158097 2.63270367,15.8345709 C2.63270367,15.7070405 2.73957523,15.5748462 3.06056835,15.5748462 C3.33471055,15.5748462 3.54883211,15.6824818 3.74130688,15.8718097 L4.17409128,15.4677935 C3.89124495,15.1837287 3.54883211,15.0144413 3.08221514,15.0144413 C2.49116697,15.0144413 2.01191009,15.3362551 2.01191009,15.8599312 C2.01191009,16.4282794 2.39723807,16.5975668 2.94945826,16.7207247 C3.5146211,16.8445385 3.61732982,16.9274696 3.61732982,17.1128623 C3.61732982,17.3313401 3.44998349,17.4261498 3.09477936,17.4261498 C2.80799725,17.4261498 2.53862339,17.3313401 2.32843761,17.0960283 L1.89603165,17.4671781 C2.12302018,17.7887004 2.55996743,17.9906356 3.06056835,17.9906356 C3.87830229,17.9906356 4.23804771,17.6198502 4.23804771,17.0714696 C4.23804771,16.4446761 3.71156147,16.2882146 3.23624037,16.1809433 L3.23624037,16.1809433 Z" id="Fill-37"></path>
                            </g>
                        </g>
                        <g id="Group-31" transform="translate(203.000000, 43.000000)">
                            <g id="Rectangle-295" opacity="0" fill-opacity="1" fill="black">
                                <use filter="url(#filter-12)" xlink:href="#path-11"></use>
                            </g>
                            <g id="flickr" transform="translate(12.400000, 14.763889)" fill="#7B8397">
                                <g id="Group">
                                    <path d="M1.80066977,6.3799701 L0.0766883721,6.3799701 L0.0766883721,4.19386269 L1.84939535,4.19386269 L1.84939535,3.63862521 C1.84939535,0.94919908 3.03655814,0.0120741297 5.3784,0.0120741297 C6.01266977,0.0120741297 6.5004279,0.11625662 6.87449303,0.185596621 L6.69549767,2.33720653 C6.45170233,2.25044528 6.20773953,2.19835403 5.76870698,2.19835403 C5.02057675,2.19835403 4.72788838,2.75359151 4.72788838,3.63862521 L4.72788838,4.19386269 L6.80935814,4.19386269 L6.80935814,6.3799701 L4.72788838,6.3799701 L4.72788838,13.2335911 L1.80066977,13.2335911 L1.80066977,6.3799701" id="Shape"></path>
                                    <polygon id="Shape" points="8.33793488 0.220266622 11.2651535 0.220266622 11.2651535 13.2334186 8.33793488 13.2334186"></polygon>
                                    <polygon id="Shape" points="13.7694139 0.428459115 16.6966326 0.428459115 16.6966326 2.71874902 13.7694139 2.71874902"></polygon>
                                    <polygon id="Shape" points="13.7694139 4.19386269 16.6966326 4.19386269 16.6966326 13.2335911 13.7694139 13.2335911"></polygon>
                                    <path d="M25.4946977,6.77893385 C24.9580465,6.43206135 24.4213954,6.2759601 23.7221582,6.2759601 C22.4536186,6.2759601 21.4779349,7.21274007 21.4779349,8.77444251 C21.4779349,10.2147136 22.6163721,11.1513211 23.8850791,11.1513211 C24.5514977,11.1513211 25.2182512,10.9953924 25.7061767,10.7176874 L25.7713116,13.0426473 C25.0394233,13.3031036 24.1613581,13.441956 23.3807442,13.441956 C20.5834605,13.441956 18.4530977,11.7067311 18.4530977,8.72235125 C18.4530977,5.72072262 20.5834605,3.9854977 23.3807442,3.9854977 C24.2588093,3.9854977 25.0394233,4.14177144 25.7061767,4.48864394 L25.4946977,6.77893385" id="Shape"></path>
                                    <polyline id="Shape" points="26.9911256 0.220266622 29.9181767 0.220266622 29.9181767 7.99376378 29.9508279 7.99376378 32.390121 4.19386269 35.593786 4.19386269 32.6501581 8.34063627 35.8377488 13.2335911 32.2923349 13.2335911 29.9508279 8.75719372 29.9181767 8.75719372 29.9181767 13.2335911 26.9911256 13.2335911 26.9911256 0.220266622"></polyline>
                                    <path d="M42.9766325,6.6921726 C42.6516279,6.5881626 42.326121,6.5881626 41.984707,6.5881626 C40.6187163,6.5881626 39.8543442,7.64654631 39.8543442,9.41644119 L39.8543442,13.2335911 L36.9271256,13.2335911 L36.9271256,4.19386269 L39.5941395,4.19386269 L39.5941395,5.85957511 L39.6267907,5.85957511 C40.1307907,4.71425768 40.8626791,3.9854977 42.1312186,3.9854977 C42.4722977,3.9854977 42.8301209,4.03758896 43.1231442,4.0896802 L42.9766325,6.6921726" id="Shape"></path>
                                </g>
                            </g>
                        </g>
                        <g id="Group-21" transform="translate(68.000000, 43.000000)">
                            <g id="Rectangle-295" opacity="0" fill-opacity="1" fill="black">
                                <use filter="url(#filter-14)" xlink:href="#path-13"></use>
                            </g>
                            <g id="shopify_glyph" transform="translate(21.100000, 7.694444)">
                                <g id="Layer_1">
                                    <g id="Group">
                                        <path d="M22.6672727,5.6144 C22.6436364,5.4752 22.5254545,5.3824 22.4072727,5.3824 C22.2890909,5.3824 20.0436364,5.22 20.0436364,5.22 C20.0436364,5.22 18.4836364,3.6888 18.2945455,3.5264 C18.1290909,3.364 17.7745455,3.4104 17.6563636,3.4568 C17.6327273,3.4568 17.3018182,3.5496 16.7818182,3.712 C16.2618182,2.2272 15.34,0.8584 13.7090909,0.8584 L13.5672727,0.8584 C13.0945455,0.2552 12.5272727,0 12.0309091,0 C8.22545455,0 6.40545455,4.6632 5.83818182,7.0296 C4.37272727,7.4704 3.30909091,7.7952 3.19090909,7.8416 C2.36363636,8.0968 2.34,8.12 2.24545455,8.8856 C2.15090909,9.4424 0,25.7984 0,25.7984 L16.7818182,28.884 L25.8818182,26.9584 C25.8818182,26.9584 22.6909091,5.7768 22.6672727,5.6144 L22.6672727,5.6144 Z M15.8363636,3.9904 C15.4109091,4.1296 14.9381818,4.2688 14.4181818,4.4312 L14.4181818,4.1296 C14.4181818,3.2016 14.2763636,2.4592 14.0872727,1.8792 C14.9381818,1.972 15.4818182,2.9 15.8363636,3.9904 L15.8363636,3.9904 Z M13.0472727,2.0416 C13.2836364,2.6216 13.4254545,3.4336 13.4254545,4.5472 L13.4254545,4.7096 C12.5036364,4.988 11.4872727,5.2896 10.4945455,5.5912 C11.0618182,3.48 12.1254545,2.436 13.0472727,2.0416 L13.0472727,2.0416 Z M11.9127273,0.9976 C12.0781818,0.9976 12.2436364,1.044 12.4090909,1.16 C11.2036364,1.7168 9.88,3.132 9.33636364,5.9624 C8.53272727,6.2176 7.75272727,6.4496 7.02,6.6584 C7.65818182,4.5008 9.19454545,0.9976 11.9127273,0.9976 L11.9127273,0.9976 Z" id="Shape" fill="#7B8397"></path>
                                        <path d="M22.4072727,5.3824 C22.2890909,5.3824 20.0436364,5.22 20.0436364,5.22 C20.0436364,5.22 18.4836364,3.6888 18.2945455,3.5264 C18.2236364,3.4568 18.1527273,3.4336 18.0581818,3.4104 L16.7818182,28.884 L25.8818182,26.9584 C25.8818182,26.9584 22.6909091,5.7768 22.6672727,5.6376 C22.6436364,5.4752 22.5018182,5.4056 22.4072727,5.3824 L22.4072727,5.3824 Z" id="Shape" fill="#7B8397"></path>
                                        <path d="M13.6854545,10.324 L12.5745455,13.5952 C12.5745455,13.5952 11.5818182,13.0848 10.4,13.0848 C8.62727273,13.0848 8.55636364,14.1752 8.55636364,14.4536 C8.55636364,15.9384 12.5272727,16.5184 12.5272727,20.0216 C12.5272727,22.7824 10.7545455,24.5456 8.34363636,24.5456 C5.46,24.5456 3.99454545,22.7824 3.99454545,22.7824 L4.77454545,20.2768 C4.77454545,20.2768 6.28727273,21.5528 7.56363636,21.5528 C8.39090909,21.5528 8.74545455,20.9032 8.74545455,20.4392 C8.74545455,18.4904 5.48363636,18.3976 5.48363636,15.196 C5.48363636,12.5048 7.44545455,9.8832 11.44,9.8832 C12.9290909,9.8832 13.6854545,10.324 13.6854545,10.324 L13.6854545,10.324 Z" id="Shape" fill="#FFFFFF"></path>
                                    </g>
                                </g>
                            </g>
                        </g>
                        <g id="Group-30" transform="translate(135.000000, 43.000000)">
                            <g id="Rectangle-295" opacity="0" fill-opacity="1" fill="black">
                                <use filter="url(#filter-16)" xlink:href="#path-15"></use>
                            </g>
                            <g id="Imported-Layers-Copy" transform="translate(20.100000, 10.361111)" fill="#7B8397">
                                <path d="M5.06047945,18.828777 C5.01920324,18.828777 4.97741108,18.8241398 4.93613488,18.8138349 C3.85727809,18.5469384 3.01266375,18.1867826 1.92503577,17.5288156 C1.87653623,17.4999619 1.81255811,17.4659558 1.74032475,17.4273125 C1.30744056,17.1949373 0.769302044,16.9058852 0.643925574,16.4344367 C0.589234603,16.2293695 0.622771519,16.0160583 0.736281081,15.8341771 C0.949885439,15.4936006 1.20579791,15.1705424 1.49782705,14.8732464 C2.03699747,14.3250265 2.6881296,13.8716115 3.44400009,13.5176387 C3.5069463,13.440352 3.60446134,13.3671873 3.75047591,13.3084495 C4.07346221,13.1786079 4.36445945,13.0616475 4.60850501,13.0219736 C4.8597739,12.8256656 4.99598538,12.5484641 5.06821873,12.331031 C5.14354781,12.1043235 5.13787233,12.0388875 5.13735638,12.0321893 C5.12497352,12.0105491 5.04551682,11.9245033 4.98153871,11.8559758 C4.91343297,11.7828111 4.83655604,11.6998568 4.75142387,11.5983536 C4.27571561,11.0346764 3.9310593,10.3530081 3.74325257,9.62033073 C3.6570885,9.63527281 3.56370108,9.63475757 3.46360629,9.61208682 C2.99873304,9.50594649 2.74694819,9.00306804 2.67058721,8.0292563 C2.56120527,6.63448996 2.85581418,6.51649901 3.05084424,6.43869712 C3.09779593,6.42014833 3.14990713,6.40520624 3.20511406,6.39747758 C3.24226264,5.95488272 3.27941123,5.39017495 3.30675671,4.98416244 C3.36609125,4.07630197 3.38827721,3.77179258 3.42078223,3.63782906 C3.66224802,2.63980084 4.47280949,1.74739769 5.58984677,1.25018694 C6.23272365,0.964226346 7.81618204,0.32017096 8.62209993,0.501536957 C8.89452288,0.563366274 9.08955295,0.716909078 9.24537062,0.840567712 C9.39499686,0.958043414 9.46877808,1.01008309 9.54978263,1.0136898 C10.0972083,1.03945201 10.6260597,1.30171137 11.1218901,1.79376968 C11.3200158,1.99007776 11.492344,2.2044194 11.6497095,2.44812995 C11.8029474,2.68771856 11.7338098,3.00665478 11.4938919,3.16019759 C11.253458,3.31374039 10.9345993,3.24418241 10.7808454,3.00510905 C10.6647561,2.82528879 10.5388637,2.66762403 10.394397,2.52490136 C10.0817297,2.21420904 9.78918461,2.05654428 9.50179904,2.04314793 C9.08078176,2.0230534 8.80681095,1.80716603 8.60610541,1.64898603 C8.52768062,1.58715671 8.43842083,1.51656824 8.39404891,1.5067786 C8.07467427,1.43361391 7.03141821,1.73606232 6.00983215,2.19153829 C5.18327615,2.55942272 4.59044667,3.190597 4.42379399,3.88050913 C4.40728351,3.97789031 4.36755516,4.57299748 4.33608206,5.05165944 C4.16994534,7.57635655 4.162722,7.67837493 3.68598184,7.75772255 C3.69475303,7.9339361 3.71126351,8.11787832 3.73551328,8.2781193 C3.8593419,8.14930823 4.04611672,8.09366184 4.22463631,8.1338509 C4.44597995,8.18589057 4.6064412,8.37601572 4.62191977,8.60220797 C4.67867456,9.47142512 5.00527252,10.2994227 5.54031532,10.934719 C5.61306463,11.02128 5.67910656,11.0923837 5.7374092,11.1547283 C6.10786313,11.5535274 6.31424416,11.8533996 6.04749668,12.6556349 C5.83440828,13.2960836 5.41803457,13.7345565 4.87576843,14.0035141 C4.85151866,14.0153647 4.82675294,13.9715689 4.80095531,13.9715689 L4.79940745,13.9715689 C3.75150781,14.4868132 2.88831919,14.8675788 2.2346073,15.5327592 C2.04267295,15.7280368 1.8703448,15.9671101 1.7202026,16.1845432 C1.86260551,16.291714 2.10716702,16.4385587 2.22841587,16.5034794 C2.31870757,16.5519124 2.39868021,16.6034368 2.45904666,16.6395039 C3.46360629,17.2464617 4.20245035,17.5664284 5.18379211,17.8096238 C5.46085863,17.8781513 5.62957511,18.1594746 5.56095342,18.4356456 C5.50265079,18.6700818 5.29162619,18.828777 5.06047945,18.828777 Z M13.7449929,21.8079196 C11.568705,21.8079196 9.44401236,21.2189954 7.60051388,20.1050372 C7.55201434,20.0761835 7.48803622,20.0421774 7.41580286,20.003534 C6.98291867,19.7711588 6.44478015,19.4821068 6.31940368,19.0106582 C6.26471271,18.805591 6.29824963,18.5922799 6.41175919,18.4103986 C6.62536355,18.0698221 6.88127601,17.746764 7.17330516,17.449468 C7.7166032,16.8971261 8.37392676,16.4406196 9.13702058,16.0856163 C9.39499686,15.7878051 9.98215087,15.6559026 10.2700524,15.6074696 C10.535252,15.4034328 10.6724954,15.1215942 10.7436968,14.9072526 C10.8190259,14.6805451 10.8133504,14.6151091 10.8128345,14.6084109 C10.8004516,14.5867706 10.7209949,14.5012401 10.6570168,14.4321973 C10.5889111,14.3590326 10.5120341,14.2760783 10.426902,14.1745752 C9.95119372,13.6103826 9.60602146,12.9281992 9.41821473,12.1950065 C9.37797043,12.2017047 9.33669422,12.2058267 9.29335421,12.2058267 C8.84705525,12.2058267 8.55244634,11.8513386 8.41726677,11.1531825 C8.38063414,10.9615117 8.07519023,9.27511704 8.72632235,9.01491866 C8.76914641,8.9979156 8.8269331,8.98400401 8.88007621,8.97730583 C8.91774075,8.53368048 8.95488933,7.96742698 8.98223482,7.56038398 C9.04156936,6.65252351 9.06375532,6.34801412 9.09626033,6.2140506 C9.33772613,5.21653762 10.1482876,4.32361924 11.2653249,3.82640848 C11.677571,3.6429815 13.091281,3.04375237 13.9642727,3.04375237 C14.0875854,3.04375237 14.1964513,3.05508775 14.297578,3.0777585 C14.570001,3.13958782 14.7650311,3.29313062 14.9208487,3.41678925 C15.070475,3.53426496 15.1442562,3.58630463 15.2252607,3.58991134 C15.7726864,3.61567356 16.1555232,4.09330503 16.7973682,4.36999122 C17.5331165,4.68686647 17.8230819,5.67613555 18.0991165,6.81740169 C18.1491639,7.02556039 18.234812,7.22547518 18.3096251,7.42899668 C18.4607992,7.84016164 18.4989797,8.21628999 18.5361283,8.58005247 C18.5516069,8.73050381 18.5660535,8.87477221 18.5887554,9.01697964 C18.7172276,9.0618059 18.8095831,9.13960779 18.8709815,9.20813528 C19.1759095,9.55077274 19.2775521,10.0804439 19.1578511,10.6997676 C19.0531127,11.2443808 18.7321903,11.9786039 18.1728977,12.2578663 C18.0325586,12.3279396 17.9979898,12.3969823 17.8849962,12.7184948 C17.8235978,12.8916168 17.7477528,13.106989 17.6208285,13.3429709 C17.3654319,13.8164804 17.0233554,14.2528923 16.6203964,14.6197462 C16.8515432,15.4698994 17.6615887,15.9037351 18.5872076,16.3988848 C19.3492695,16.8069583 20.138161,17.2289434 20.7020971,17.9368891 C20.7485328,17.995627 20.7934207,18.0476666 20.833665,18.0945539 C21.0096048,18.3001363 21.2092785,18.5330268 21.1685182,18.8736033 C21.1303377,19.195631 20.8893879,19.4089421 20.659273,19.5748508 C20.1391929,19.9494334 19.5845439,20.2843422 19.0092568,20.570818 C17.8277254,21.159227 16.5646736,21.5425688 15.255186,21.7115689 C14.7572918,21.7754592 14.2495945,21.8079196 13.7449929,21.8079196 Z M7.39568071,18.7916794 C7.53808362,18.8993655 7.78264513,19.0302375 7.90389398,19.0951583 C7.99418568,19.1441065 8.07415832,19.187387 8.13452477,19.2234541 C9.81756201,20.2400312 11.7575436,20.777431 13.7449929,20.777431 C14.2052225,20.777431 14.6690639,20.7475468 15.1231021,20.6893242 C16.3180482,20.5352662 17.4706863,20.1854153 18.5490271,19.6485307 C19.0675594,19.3903933 19.5685493,19.0884601 20.0380662,18.7509751 C19.9942102,18.6994507 19.9457107,18.6422586 19.8946314,18.5788835 C19.4627791,18.0368465 18.8008119,17.6823584 18.0996324,17.3072606 C16.9913663,16.7142144 15.7360538,16.0418205 15.5456673,14.484237 C15.5245132,14.306993 15.5967466,14.1312946 15.7365697,14.0194866 C16.135401,13.7015809 16.4723181,13.2986598 16.71172,12.8545192 C16.8009798,12.6891258 16.8567027,12.5299153 16.9113937,12.3763725 C17.0398659,12.0120948 17.1853645,11.5988689 17.7116361,11.3360943 C17.8349488,11.2747802 18.0599041,10.9434781 18.1445203,10.5050052 C18.1878603,10.2798434 18.1780572,10.1103281 18.1501958,10.0041877 C17.9768357,9.97172734 17.7075085,9.85116018 17.615153,9.42556838 C17.5583982,9.16485476 17.5336325,8.92062896 17.5093827,8.68464706 C17.4779096,8.37034803 17.4474684,8.07356731 17.3411822,7.78451526 C17.2627574,7.57120411 17.19104,7.35686248 17.1198385,7.14355134 C16.8628941,6.37377634 16.6203964,5.64676662 16.0698751,5.1011229 C15.7572078,4.79043058 15.4646627,4.63276582 15.1772771,4.61936947 C14.7562599,4.59927494 14.4822891,4.38338758 14.2815835,4.22520757 C14.2031587,4.16337826 14.1138989,4.09278979 14.069527,4.08300014 C14.0550803,4.07990868 14.0225753,4.07424099 13.9642727,4.07424099 C13.4684423,4.07424099 12.4355053,4.43388152 11.6853103,4.76775983 C10.8587543,5.13564427 10.2659248,5.76681854 10.0992721,6.45673067 C10.0827616,6.55411185 10.0430333,7.14921902 10.0115602,7.62788099 C9.84542344,10.1525781 9.83820011,10.2545965 9.36145995,10.3339441 C9.37023114,10.5101576 9.38674162,10.6940999 9.41099139,10.8543408 C9.53482001,10.726045 9.72159483,10.6688529 9.90011441,10.7100724 C10.1214581,10.7621121 10.2819193,10.9522373 10.2973979,11.1784295 C10.3541527,12.0476467 10.6807506,12.8756443 11.2157934,13.5109405 C11.2890587,13.5975015 11.3545847,13.6686053 11.4128873,13.7309498 C11.7833412,14.1297489 11.9897223,14.4296211 11.7229748,15.2318565 C11.525365,15.8254179 11.1652301,16.2886226 10.6812666,16.5714917 C10.6673359,16.5807661 10.6209001,16.6070435 10.5538263,16.6405344 C10.5527944,16.6410497 10.5522784,16.5792204 10.5512465,16.5797356 C10.5269968,16.5915862 10.502231,16.5477905 10.4764334,16.5477905 L10.4748856,16.5477905 C9.42698592,17.0630348 8.5637973,17.4438003 7.91008541,18.1089807 C7.71815106,18.3042583 7.5458229,18.5747616 7.39568071,18.7916794 Z M22.3897779,18.9539814 C22.1519238,18.9539814 21.9383194,18.7891032 21.8856923,18.5479689 C21.8258418,18.2697369 22.0028135,17.995627 22.2814279,17.9353434 C23.1007605,17.7586146 23.6456064,17.5262394 24.5567787,17.0723092 C25.0737631,16.814687 25.574753,16.5132691 26.0463337,16.1752688 C26.0014458,16.1232291 25.9529463,16.066037 25.9023829,16.0021467 C25.4746582,15.4652622 24.8168187,15.0788289 24.1207987,14.6697249 C22.9887988,14.0045445 21.7061408,13.2507421 21.5157543,11.6885214 C21.4951162,11.5184908 21.5606422,11.3494906 21.6901463,11.2371674 C21.8201663,11.1248441 21.9961061,11.0846551 22.1622428,11.1284508 C22.9521662,11.3412467 23.7281588,11.6740945 24.325116,11.9657228 C24.2105745,11.2464418 24.1641388,10.3715569 24.1125435,9.42041593 C24.0325709,7.92672268 23.9412473,6.23311464 23.5377724,5.22117482 C23.4335499,4.9604612 23.3437742,4.69717136 23.2545144,4.43542725 C23.008405,3.71563095 22.7767423,3.03602371 22.2613057,2.52490136 C22.0327388,2.29819386 20.562274,1.62940675 20.1170069,1.62940675 C20.1108155,1.62940675 20.10514,1.62940675 20.0994645,1.62992199 C19.6578091,1.64898603 18.8070034,1.84580936 18.1625786,2.07818454 C18.1620627,2.07818454 18.1615467,2.07869978 18.1605148,2.07869978 C18.0552605,2.11682786 17.9592933,2.1544407 17.8777728,2.19102304 C17.3943253,2.40639516 16.9686644,2.72842286 16.679731,3.09888352 C16.5043071,3.32301479 16.179773,3.36371909 15.9548176,3.18853602 C15.7303783,3.0138682 15.6906499,2.68977953 15.8655579,2.46564826 C16.2628413,1.95658688 16.8128467,1.53666277 17.4567555,1.25018694 C17.5589141,1.20484544 17.6791311,1.15692772 17.8122468,1.10901 C17.8122468,1.10901 17.8127628,1.10901 17.8132788,1.10849475 C18.4577035,0.876119569 19.4344017,0.627256568 20.0550926,0.600463864 C20.7820698,0.559244319 22.5672656,1.3753913 22.9887988,1.79376968 C23.6750157,2.47492266 23.9577577,3.30240502 24.2306966,4.10309467 C24.3142809,4.34835096 24.3988972,4.59566823 24.4964122,4.83989403 C24.9623174,6.00898337 25.0541569,7.71547252 25.1429008,9.36528479 C25.2171979,10.7476853 25.2940749,12.176973 25.6072581,12.7494094 C25.7192198,12.9539614 25.6794914,13.2084921 25.510259,13.3692483 C25.3415425,13.5305198 25.0851141,13.5567972 24.8859564,13.4362301 C24.8740895,13.4290167 23.9856192,12.8916168 22.9010869,12.4624183 C23.2885673,12.9853913 23.9340239,13.3646111 24.6439746,13.781959 C25.3910739,14.2204319 26.162939,14.6738469 26.7098487,15.3606676 C26.7573163,15.4194054 26.8016882,15.4719603 26.8419325,15.5188476 C27.0178723,15.72443 27.217546,15.9573205 27.1762698,16.2973817 C27.1375733,16.6194094 26.8971394,16.8327206 26.6670246,16.9986292 C26.1453966,17.3737271 25.5902316,17.7086359 25.0175243,17.9945965 C24.1780695,18.4124596 23.5057833,18.7252129 22.4991599,18.942646 C22.4625272,18.9503747 22.4258946,18.9539814 22.3897779,18.9539814 Z" id="Fill-1"></path>
                            </g>
                        </g>
                        <g id="Group-27" transform="translate(0.000000, 90.000000)">
                            <g id="Rectangle-295" opacity="0" fill-opacity="1" fill="black">
                                <use filter="url(#filter-18)" xlink:href="#path-17"></use>
                            </g>
                            <path d="M34.5158824,13.2572123 C34.5158824,12.9687148 34.2888941,12.7420381 34,12.7420381 C33.7111059,12.7420381 33.4841176,12.9687148 33.4841176,13.2572123 L33.4841176,14.8336455 C31.1626469,15.0912326 29.3570586,17.0488947 29.3570586,19.4393031 L29.3570586,25.5286625 L27.7165526,27.1669165 L40.2834474,27.1669165 L38.6429414,25.5286625 L38.6429414,19.4393031 C38.6429414,17.0488947 36.8373531,15.0912326 34.5158824,14.8336455 L34.5158824,13.2572123 L34.5158824,13.2572123 Z M34,11.7116896 C34.8563648,11.7116896 35.5476471,12.4020231 35.5476471,13.2572123 L35.5476471,13.9887597 C37.9310237,14.6584862 39.6747062,16.8634319 39.6747062,19.4393031 L39.6747062,25.1062196 L42.7700005,28.197265 L25.2299995,28.197265 L28.3252938,25.1062196 L28.3252938,19.4393031 C28.3252938,16.8634319 30.0689763,14.6584862 32.4523529,13.9887597 L32.4523529,13.2572123 C32.4523529,12.4020231 33.1436352,11.7116896 34,11.7116896 L34,11.7116896 Z M34,31.2883104 C32.7515646,31.2883104 31.7094822,30.4022107 31.4721763,29.2276134 L32.5452117,29.2276134 C32.7515646,29.8252155 33.3293529,30.2579619 34,30.2579619 C34.6706471,30.2579619 35.2484354,29.8252155 35.4547883,29.2276134 L36.5278237,29.2276134 C36.2905178,30.4022107 35.2484354,31.2883104 34,31.2883104 L34,31.2883104 Z" id="Shape" fill="#7B8397"></path>
                        </g>
                        <g id="Group-31" transform="translate(203.000000, 90.000000)">
                            <g id="Rectangle-295" opacity="0" fill-opacity="1" fill="black">
                                <use filter="url(#filter-20)" xlink:href="#path-19"></use>
                            </g>
                            <g id="vimeo_logo_dark" transform="translate(12.100000, 15.157407)" fill="#7B8397">
                                <path d="M9.65713511,5.92980437 C9.61398741,6.89650348 8.95714867,8.22011285 7.68661889,9.90009513 C6.3729937,11.654877 5.26161356,12.5323754 4.35242615,12.5323754 C3.78941404,12.5323754 3.31264504,11.9981922 2.92342663,10.9292347 C2.66344213,9.94953166 2.40345763,8.96982858 2.14357772,7.99023299 C1.85446199,6.92186657 1.54442615,6.38709228 1.21284262,6.38709228 C1.14056368,6.38709228 0.887587409,6.54346217 0.454593705,6.85480484 L0,6.25291508 C0.476769007,5.82233365 0.947209685,5.39175222 1.41006683,4.96052596 C2.04588087,4.39576733 2.52332978,4.09871827 2.84162906,4.06878767 C3.59349734,3.9945254 4.05635448,4.52279772 4.23009588,5.65360462 C4.41769685,6.87366595 4.54766295,7.63257043 4.62062179,7.92956576 C4.8374063,8.94183246 5.0757908,9.44742846 5.33640291,9.44742846 C5.53859564,9.44742846 5.84230315,9.11905168 6.24747312,8.46245932 C6.6519109,7.80581323 6.8688,7.3062356 6.89793123,6.96292039 C6.9556184,6.39622729 6.7387816,6.11218218 6.24747312,6.11218218 C6.01604455,6.11218218 5.77766005,6.16688477 5.53231961,6.27505405 C6.00715351,4.67653458 6.91440581,3.90005864 8.25344891,3.94433658 C9.24626441,3.97432091 9.71419467,4.63612559 9.65713511,5.92980437" id="Fill-1"></path>
                                <path d="M13.7330499,1.13419223 C13.7185104,1.50421391 13.5378131,1.8591897 13.1903826,2.19928079 C12.7998567,2.58354234 12.3369995,2.77575372 11.8019157,2.77575372 C10.9777162,2.77575372 10.5795545,2.4064306 10.608738,1.66703205 C10.6226499,1.2827705 10.8433046,0.912748813 11.2700223,0.557719294 C11.6966877,0.203388335 12.1702663,0.0255242957 12.6914383,0.0255242957 C12.9950935,0.0255242957 13.2480697,0.147987179 13.4509424,0.391623299 C13.6531874,0.635904242 13.7470663,0.883409307 13.7330499,1.13419223 L13.7330499,1.13419223 Z M15.6205133,9.06101749 C15.2153956,9.84791809 14.6587119,10.5606102 13.949939,11.1989325 C12.9805017,12.0601491 12.0117966,12.4907305 11.0430392,12.4907305 C10.5941462,12.4907305 10.2505337,12.342206 10.0121492,12.0451032 C9.77376465,11.7480541 9.66158063,11.3625029 9.6761201,10.8868913 C9.69008426,10.3971472 9.83840775,9.63953237 10.1205153,8.61479907 C10.4026751,7.59017324 10.5440949,7.04046051 10.5440949,6.96614451 C10.5440949,6.58048583 10.4134489,6.38709228 10.1535167,6.38709228 C10.0666983,6.38709228 9.82067797,6.54346217 9.41556029,6.85480484 L8.91661598,6.25291508 C9.37942082,5.82233365 9.84222567,5.39175222 10.3050828,4.96052596 C10.926985,4.39576733 11.3897898,4.09871827 11.6941772,4.06878767 C12.1709462,4.024456 12.5215148,4.16841303 12.7459351,4.5019484 C12.9697278,4.83543004 13.0528329,5.26799968 12.9957734,5.80083951 C12.8074402,6.70434584 12.6045676,7.85143455 12.3877308,9.24275047 C12.373139,9.87983689 12.5975593,10.1977353 13.0604165,10.1977353 C13.2626615,10.1977353 13.6240039,9.97822634 14.1451758,9.5379188 C14.5788494,9.1718198 14.9332358,8.82721494 15.2083874,8.50415796 L15.6205133,9.06101749 L15.6205133,9.06101749 Z" id="Fill-4"></path>
                                <path d="M29.1688387,9.06101749 C28.7636688,9.84791809 28.2070373,10.5606102 27.4982121,11.1989325 C26.5288794,12.0601491 25.5600174,12.4907305 24.5913646,12.4907305 C23.650431,12.4907305 23.195262,11.9565473 23.2243409,10.8868913 C23.2383051,10.4113871 23.3289937,9.84012646 23.4950993,9.1718198 C23.6612571,8.5034594 23.7519458,7.98362354 23.7664852,7.61241967 C23.781077,7.04825214 23.6142915,6.76555041 23.2656058,6.76555041 C22.8884165,6.76555041 22.4388959,7.22670726 21.9164688,8.14778506 C21.3649104,9.11383935 21.0669036,10.0499093 21.0237559,10.9559949 C20.9946247,11.5956607 21.0555022,12.086157 21.2063884,12.4275377 C20.197046,12.4575221 19.4900513,12.2862138 19.0868165,11.9148487 C18.7254741,11.587869 18.5599961,11.0459479 18.5891797,10.2876345 C18.6030915,9.81213034 18.6741153,9.33662615 18.8021462,8.86112195 C18.9296019,8.38561776 19.0005734,7.96218313 19.0151651,7.59017324 C19.0443487,7.04046051 18.848432,6.76555041 18.4287225,6.76555041 C18.0660726,6.76555041 17.6749191,7.18957613 17.2552097,8.03639166 C16.8355002,8.88326092 16.6034964,9.76779867 16.5603487,10.6889302 C16.5311651,11.5214521 16.5831516,12.1005044 16.7156804,12.4275377 C15.7228126,12.4575221 15.0178053,12.2424732 14.6006063,11.7825522 C14.2544833,11.3976996 14.0966412,10.8126827 14.1257724,10.0270718 C14.1397366,9.64211167 14.2056349,9.10470434 14.3248271,8.41549462 C14.4440194,7.72633864 14.5105976,7.18957613 14.5245617,6.80402493 C14.5530654,6.53755128 14.4877947,6.40396518 14.3292726,6.40396518 C14.2424019,6.40396518 13.9964339,6.55447792 13.5913162,6.85480484 L13.0708242,6.25291508 C13.1431031,6.19428981 13.5982722,5.76306355 14.437691,4.96052596 C15.0450538,4.38147373 15.4571797,4.08437092 15.6739642,4.06937876 C16.0500029,4.0395019 16.3536581,4.19904218 16.5850867,4.54821455 C16.816463,4.89738691 16.9325172,5.30249778 16.9325172,5.76306355 C16.9325172,5.91158808 16.9179254,6.05291208 16.8894218,6.18649818 C17.1062063,5.84511744 17.3591826,5.54742355 17.6489259,5.29465242 C18.3139758,4.70066176 19.0589404,4.365783 19.8831923,4.29152073 C20.5920174,4.23225063 21.09797,4.40291413 21.4023051,4.8042098 C21.6476455,5.13118946 21.7630199,5.59954685 21.7490557,6.20858341 C21.8505705,6.12002754 21.9589366,6.02298148 22.0749908,5.91873488 C22.4072019,5.51749296 22.7324571,5.19830492 23.0507041,4.96052596 C23.5857879,4.55923029 24.1430993,4.33649723 24.7212785,4.29152073 C25.4154596,4.23225063 25.9144562,4.40226931 26.2181637,4.80222159 C26.4780436,5.12796534 26.5940978,5.59433452 26.5655942,6.20079179 C26.5509501,6.61568249 26.4534102,7.21896937 26.2726605,8.01102857 C26.0913356,8.8031415 26.0012746,9.25779638 26.0012746,9.37633658 C25.9867351,9.68773299 26.0159186,9.90208333 26.0881453,10.0206235 C26.1604765,10.13911 26.333538,10.1977353 26.6087419,10.1977353 C26.8109869,10.1977353 27.172277,9.97822634 27.6934489,9.5379188 C28.1271748,9.1718198 28.481509,8.82721494 28.7567128,8.50415796 L29.1688387,9.06101749" id="Fill-5"></path>
                                <path d="M32.3793937,6.71084782 C32.3933579,6.31218519 32.2348358,6.11218218 31.9026247,6.11218218 C31.4690034,6.11218218 31.0289492,6.41901108 30.5813637,7.03261515 C30.1337782,7.64621921 29.9023496,8.23376163 29.8883855,8.79529614 C29.8801743,8.79529614 29.8801743,8.89169737 29.8883855,9.08385502 C30.5959031,8.81807993 31.2096465,8.41167941 31.7295632,7.86438477 C32.1479651,7.39156735 32.3647496,7.0065535 32.3793937,6.71084782 L32.3793937,6.71084782 Z M37.3042983,9.0382337 C36.8845366,9.75092577 36.0604416,10.4628655 34.8310722,11.1748591 C33.2979952,12.0802999 31.7428475,12.5323754 30.1667274,12.5323754 C28.9950973,12.5323754 28.1556785,12.1310798 27.6497259,11.3292945 C27.2883312,10.7794743 27.1145898,10.1260523 27.1292339,9.36790013 C27.1431981,8.16476543 27.66437,7.02090084 28.6913898,5.93566152 C29.8192969,4.74751899 31.1500765,4.15277604 32.6831012,4.15277604 C34.1006993,4.15277604 34.8526199,4.74617561 34.9394383,5.93173884 C34.9971254,6.68731173 34.5920077,7.46577588 33.7247651,8.266379 C32.7984755,9.14124438 31.6338015,9.696868 30.2314228,9.93389467 C30.491355,10.3045612 30.8818286,10.4896258 31.4030005,10.4896258 C32.4440368,10.4896258 33.5795274,10.2179398 34.8094722,9.67338564 C35.6913588,9.29105856 36.3856446,8.89363185 36.8921724,8.48196526 L37.3042983,9.0382337 L37.3042983,9.0382337 Z" id="Fill-6"></path>
                                <path d="M40.7419409,7.45997246 C40.756585,7.05808571 40.7020881,6.68929994 40.579078,6.35447491 C40.4560155,6.01970362 40.2785608,5.85161942 40.0477598,5.85161942 C39.3098034,5.85161942 38.7023884,6.26135154 38.225724,7.08017094 C37.8199264,7.75051955 37.6030373,8.46503862 37.5745337,9.22388936 C37.5599942,9.59649035 37.6252126,9.92416857 37.7697705,10.2068703 C37.9282925,10.5345485 38.1527128,10.6979577 38.4424562,10.6979577 C39.0929666,10.6979577 39.650278,10.3039701 40.1130828,9.51443645 C40.5035564,8.85913374 40.712862,8.17449153 40.7419409,7.45997246 L40.7419409,7.45997246 Z M43.1936717,7.54401456 C43.1354092,8.90926884 42.6439961,10.0890286 41.7183864,11.0829716 C40.7927768,12.077022 39.6426421,12.5740741 38.2687671,12.5740741 C37.1262683,12.5740741 36.2583458,12.1955622 35.6655225,11.4386459 C35.2319012,10.875177 34.9928368,10.170384 34.9497937,9.32496557 C34.8768872,8.04880453 35.3251002,6.87624525 36.2950605,5.80798631 C37.3361492,4.62113343 38.6447012,4.02773386 40.2214489,4.02773386 C41.233354,4.02773386 41.9999186,4.37690622 42.520986,5.07390757 C43.0129743,5.7122299 43.2368194,6.53556307 43.1936717,7.54401456 L43.1936717,7.54401456 Z" id="Fill-8"></path>
                            </g>
                        </g>
                        <g id="Group-28" transform="translate(68.000000, 90.000000)">
                            <g id="Rectangle-295" opacity="0" fill-opacity="1" fill="black">
                                <use filter="url(#filter-22)" xlink:href="#path-21"></use>
                            </g>
                            <g id="youtube" transform="translate(20.000000, 12.000000)">
                                <polygon id="Shape" fill="#FFFFFF" points="11.509375 13.6888889 19.3484375 9.71111111 11.509375 5.7 11.509375 13.6888889"></polygon>
                                <path d="M28.69426,4.31111111 C28.69426,4.31111111 28.4111675,2.35555556 27.5392425,1.48888889 C26.4408435,0.355555556 25.20656,0.355555556 24.6290511,0.288888889 C20.5864896,0 14.5056618,0 14.5056618,0 L14.4943382,0 C14.4943382,0 8.41351035,0 4.34830145,0.288888889 C3.78211636,0.355555556 2.54783288,0.355555556 1.43811011,1.48888889 C0.577508786,2.35555556 0.294416243,4.31111111 0.294416243,4.31111111 C0.294416243,4.31111111 0,6.62222222 0,8.92222222 L0,11.0777778 C0,13.3777778 0.294416243,15.6777778 0.294416243,15.6777778 C0.294416243,15.6777778 0.577508786,17.6333333 1.44943382,18.5 C2.54783288,19.6333333 3.99726669,19.6 4.64271769,19.7111111 C6.96407653,19.9333333 14.4943382,20 14.4943382,20 C14.4943382,20 20.5864896,19.9888889 24.6403748,19.7 C25.20656,19.6333333 26.4408435,19.6333333 27.5505662,18.5 C28.4224912,17.6333333 28.7055837,15.6777778 28.7055837,15.6777778 C28.7055837,15.6777778 29,13.3777778 29,11.0777778 L29,8.92222222 C28.9886763,6.62222222 28.69426,4.31111111 28.69426,4.31111111 L28.69426,4.31111111 L28.69426,4.31111111 Z M11.5048809,13.6888889 L11.5048809,5.7 L19.3408824,9.71111111 L11.5048809,13.6888889 L11.5048809,13.6888889 L11.5048809,13.6888889 Z" id="Shape" fill="#7B8397"></path>
                            </g>
                        </g>
                        <g id="Group-30" transform="translate(135.000000, 90.000000)">
                            <g id="Rectangle-295" opacity="0" fill-opacity="1" fill="black">
                                <use filter="url(#filter-24)" xlink:href="#path-23"></use>
                            </g>
                            <g id="Eventbrite-Logo" transform="translate(8.100000, 13.361111)">
                                <path d="M1.89918649,15.6476568 C1.21694189,15.6414296 0.471328378,14.8792012 0.471328378,14.1847531 L0.47027027,1.97017778 C0.47027027,1.27944198 1.21270946,0.521165432 1.89213243,0.514938272 L47.4091216,2.36153086 C48.1802473,2.39266667 48.7888946,3.01957407 48.7888946,3.75880988 L48.7888946,12.4042642 C48.7888946,13.142542 48.1801297,13.7695691 47.4088865,13.8019025 L1.89918649,15.6476568" id="Fill-1" fill="#FFFFFF"></path>
                                <path d="M44.9713581,7.42445185 C44.2805311,7.42445185 43.7106811,7.90945185 43.4403932,8.54689753 C43.6828176,8.56569877 43.8978486,8.57527901 44.0938338,8.57527901 C45.3637986,8.57527901 45.7186176,8.28056667 45.7186176,7.91891235 C45.7186176,7.67186173 45.4664351,7.42445185 44.9713581,7.42445185 L44.9713581,7.42445185 Z M29.5193351,7.58623827 C29.0340162,7.58623827 28.5951365,7.88083086 28.314973,8.30894815 L28.1745973,8.97501481 C28.0346919,9.71652593 28.4270149,10.3346914 29.2020203,10.3346914 C30.0328703,10.3346914 30.4904432,9.51689753 30.4904432,8.67994321 C30.4904432,8.00477531 30.0703743,7.58623827 29.5193351,7.58623827 L29.5193351,7.58623827 Z M44.2056405,9.40301235 C43.9257122,9.40301235 43.6175676,9.3839716 43.2720365,9.36469136 L43.2720365,9.39355185 C43.2720365,10.039979 43.6642419,10.4395951 44.38305,10.4395951 C44.9899338,10.4395951 45.4290486,10.1635642 45.7279054,9.76394815 C45.7463635,9.73544691 46.2879973,9.83112963 46.2879973,10.2683481 C46.2879973,10.5153988 46.213577,10.6488037 46.0359324,10.8389716 C45.6904014,11.1813457 45.1487676,11.3905543 44.3645919,11.3905543 C42.8706608,11.3905543 42.161023,10.5536 42.161023,9.41235309 C42.161023,7.72898395 43.4309878,6.52103457 45.0275554,6.52103457 C46.1852432,6.52103457 46.8296311,7.07261728 46.8296311,7.88083086 C46.8296311,8.83226914 46.2321527,9.40301235 44.2056405,9.40301235 L44.2056405,9.40301235 Z M41.525923,7.68132222 L40.6756743,7.68132222 L40.2744162,9.5836 C40.1529689,10.1445235 40.3400189,10.3821136 40.703773,10.3821136 C40.9374973,10.3821136 41.1428878,10.2586481 41.2639824,10.1445235 C41.3013689,10.116142 41.4790135,10.2683481 41.4790135,10.5536 C41.4790135,10.7533481 41.4042405,10.9244753 41.2546946,11.0768012 C41.0495392,11.2858901 40.7225838,11.4002543 40.2837041,11.4002543 C39.2380581,11.4002543 38.7615568,10.7628086 38.9951635,9.64036296 L39.3966568,7.68132222 L39.172573,7.68132222 C38.8737162,7.68132222 38.6965419,7.54815679 38.6965419,7.3293679 C38.6965419,7.19632222 38.7522689,6.91071111 38.8830041,6.76796543 C38.9765878,6.68258148 39.0792243,6.63503951 39.340577,6.63503951 L39.6113351,6.63503951 L39.6675324,6.3690679 C39.7982676,5.68384074 40.068673,5.39858889 40.6478108,5.39858889 C40.928327,5.39858889 41.1428878,5.51271358 41.1334824,5.56025556 L40.9095162,6.63503951 L41.6748811,6.63503951 C41.9926662,6.63503951 42.1699581,6.77766543 42.1699581,6.98723333 C42.1699581,7.12027901 42.1139959,7.41499136 41.973973,7.54815679 C41.8894419,7.6339 41.7775176,7.68132222 41.525923,7.68132222 L41.525923,7.68132222 Z M37.824073,5.92574198 C37.3570946,5.92574198 37.0958595,5.68779259 37.0958595,5.34541852 C37.0958595,4.8888 37.4036514,4.56534691 37.861577,4.56534691 C38.3284378,4.56534691 38.589673,4.80341605 38.589673,5.14555062 C38.589673,5.59258889 38.2817635,5.92574198 37.824073,5.92574198 L37.824073,5.92574198 Z M38.0521541,7.2438642 L37.4451527,10.1256025 C37.3421635,10.6392235 37.4263419,10.8389716 37.8091419,10.8958543 C37.8184297,10.9053148 37.7437743,11.3715136 37.0434243,11.3715136 C36.1937635,11.3715136 35.9790851,10.8389716 36.1375662,10.0878802 L36.7351622,7.2438642 C36.8382689,6.75850494 37.006273,6.59731728 37.3421635,6.59731728 L37.4823041,6.59731728 C37.837123,6.59731728 38.154673,6.7394642 38.0521541,7.2438642 L38.0521541,7.2438642 Z M35.4836554,8.02381605 C35.3531554,7.88083086 35.1665757,7.74802469 34.8489081,7.74802469 C34.2606,7.74802469 33.887323,8.41349259 33.6818149,9.39355185 L33.4201095,10.6771852 C33.317473,11.1526049 33.1499392,11.3146309 32.8131081,11.3146309 L32.6734378,11.3146309 C32.3185014,11.3146309 32.0010689,11.1718852 32.1037054,10.6771852 L32.9345554,6.68258148 C32.9441959,6.65384074 33.0935068,6.59731728 33.2990149,6.59731728 C33.6722919,6.59731728 34.0365162,6.80628642 34.0273459,7.41499136 C34.3075095,6.8540679 34.7272257,6.52103457 35.2596892,6.52103457 C35.7172622,6.52103457 36.0720811,6.78736543 36.0720811,7.17704198 C36.0720811,7.8335284 35.5028189,8.04261728 35.4836554,8.02381605 L35.4836554,8.02381605 Z M29.3888351,11.3905543 C28.7162311,11.3905543 28.127923,11.0577605 27.8479946,10.4870173 C27.6705851,11.0862617 27.3813689,11.3146309 26.8678338,11.3146309 C26.6156514,11.3146309 26.4006203,11.2002667 26.4099081,11.1526049 L27.6388419,5.22195309 C27.7414784,4.73659383 27.9096,4.57516667 28.2458432,4.57516667 L28.3952716,4.57516667 C28.74045,4.57516667 29.0676405,4.72713333 28.9552459,5.22195309 L28.5296514,7.29140617 C28.8658946,6.81574691 29.3510959,6.52103457 29.9769081,6.52103457 C30.9573041,6.52103457 31.7694608,7.23428395 31.7694608,8.50857654 C31.7694608,9.9733963 30.8269216,11.3905543 29.3888351,11.3905543 L29.3888351,11.3905543 Z M25.9241189,7.68132222 L25.0743405,7.68132222 L24.6729649,9.5836 C24.5516351,10.1445235 24.73845,10.3821136 25.1023216,10.3821136 C25.3360459,10.3821136 25.5412014,10.2586481 25.6627662,10.1445235 C25.6999176,10.116142 25.877327,10.2683481 25.877327,10.5536 C25.877327,10.7533481 25.8026716,10.9244753 25.6534784,11.0768012 C25.4480878,11.2858901 25.1208973,11.4002543 24.6822527,11.4002543 C23.6364892,11.4002543 23.1604581,10.7628086 23.3939473,9.64036296 L23.7952054,7.68132222 L23.5713568,7.68132222 C23.2722649,7.68132222 23.0948554,7.54815679 23.0948554,7.3293679 C23.0948554,7.19632222 23.1511703,6.91071111 23.2815527,6.76796543 C23.3750189,6.68258148 23.477773,6.63503951 23.7394784,6.63503951 L24.0101189,6.63503951 L24.0660811,6.3690679 C24.1968162,5.68384074 24.4675743,5.39858889 25.0462419,5.39858889 C25.3267581,5.39858889 25.5412014,5.51271358 25.5321486,5.56025556 L25.3080649,6.63503951 L26.0737824,6.63503951 C26.3910973,6.63503951 26.5687419,6.77766543 26.5687419,6.98723333 C26.5687419,7.12027901 26.512427,7.41499136 26.3722865,7.54815679 C26.2882257,7.6339 26.1763014,7.68132222 25.9241189,7.68132222 L25.9241189,7.68132222 Z M22.2915162,10.8199309 C22.310327,10.8199309 22.2169784,11.3715136 21.4979351,11.3715136 C20.8817635,11.3715136 20.5921946,11.0483 20.5921946,10.5439 C20.5921946,10.2778086 20.6760203,9.92597407 20.8162784,9.40301235 C20.9377257,8.96543457 21.0220216,8.60354074 21.0220216,8.4040321 C21.0220216,7.92861235 20.7600811,7.64336049 20.2841676,7.64336049 C19.8267122,7.64336049 19.5277378,7.86190988 19.2384041,8.31864815 L18.7527324,10.6771852 C18.6500959,11.1526049 18.4819743,11.3146309 18.1458486,11.3146309 L18.0060608,11.3146309 C17.6508892,11.3146309 17.3335743,11.1718852 17.4364459,10.6771852 L18.2672959,6.68258148 C18.2765838,6.65384074 18.4260122,6.59731728 18.6315203,6.59731728 C19.0047973,6.59731728 19.3689041,6.80628642 19.3596162,7.42445185 C19.723723,6.86340864 20.2560689,6.52103457 20.9282027,6.52103457 C21.8620419,6.52103457 22.4037932,7.1392 22.4037932,8.02381605 C22.4037932,8.35672963 22.2915162,8.81310864 22.1326824,9.3839716 C22.0115878,9.84981111 21.9178865,10.2206864 21.9178865,10.4108543 C21.9178865,10.6771852 22.0393338,10.7819691 22.2915162,10.8199309 L22.2915162,10.8199309 Z M14.6251703,9.40301235 C14.3448892,9.40301235 14.0369797,9.3839716 13.6912135,9.36469136 L13.6912135,9.39355185 C13.6912135,10.039979 14.0836541,10.4395951 14.8024622,10.4395951 C15.4093459,10.4395951 15.8483432,10.1635642 16.1469649,9.76394815 C16.1655405,9.73544691 16.7071743,9.83112963 16.7071743,10.2683481 C16.7071743,10.5153988 16.6326365,10.6488037 16.4553446,10.8389716 C16.1095784,11.1813457 15.5680622,11.3905543 14.7838865,11.3905543 C13.2898378,11.3905543 12.5800824,10.5536 12.5800824,9.41235309 C12.5800824,7.72898395 13.8501649,6.52103457 15.4467324,6.52103457 C16.6045378,6.52103457 17.2488081,7.07261728 17.2488081,7.88083086 C17.2488081,8.83226914 16.6512122,9.40301235 14.6251703,9.40301235 L14.6251703,9.40301235 Z M12.1262716,7.90945185 L10.2028662,10.9244753 C9.98807027,11.2669691 9.63325135,11.3240914 9.38106892,11.3240914 C9.04494324,11.3240914 8.69952973,11.2002667 8.65285541,10.8293914 L8.27946081,8.18548272 C8.18587703,7.46253333 8.06760405,7.17883827 7.69409189,7.15057654 C7.67539865,7.15057654 7.83917027,6.55887654 8.41936622,6.55887654 C8.69952973,6.55887654 8.89563243,6.63503951 9.07304189,6.81574691 C9.32522432,7.07261728 9.43726622,7.49115432 9.48394054,8.12824074 L9.65194459,9.8592716 L11.500577,6.56833704 C11.5098649,6.54941605 12.4065527,6.59731728 12.4065527,7.22482346 C12.4065527,7.43391235 12.3316622,7.59569877 12.1262716,7.90945185 L12.1262716,7.90945185 Z M6.41977703,7.28362222 C6.77447838,7.28362222 6.96129324,7.43594815 6.96129324,7.67329877 C6.96129324,7.8161642 6.89604324,8.12991728 6.75578514,8.28212346 C6.66231892,8.37708765 6.54098919,8.43432963 6.26094324,8.43432963 L4.26817297,8.43432963 L3.93839595,10.0589 L6.66490541,10.0589 C7.04782297,10.0589 7.24369054,10.2112259 7.24369054,10.4679765 C7.24369054,10.629763 7.1691527,10.962437 7.01984189,11.1242235 C6.91708784,11.2290074 6.78611757,11.2764296 6.48749595,11.2764296 L3.19125405,11.2764296 C2.62163919,11.2764296 2.36980946,10.9811185 2.50042703,10.3821136 L3.55300946,5.2882963 C3.65564595,4.79395556 3.95438514,4.56570617 4.41184054,4.56570617 L7.74546892,4.56570617 C8.12826892,4.56570617 8.33377703,4.71779259 8.33377703,4.98388395 C8.33377703,5.13609012 8.24959865,5.47822469 8.1000527,5.63067037 C7.99741622,5.74479506 7.87608649,5.78287654 7.56794189,5.78287654 L4.83214459,5.78287654 L4.51106757,7.28362222 L6.41977703,7.28362222 L6.41977703,7.28362222 Z M47.4463905,1.92275556 L1.9005973,0.0758037037 C0.953472973,0.0758037037 0,1.05765926 0,2.01005556 L0.00105810811,14.2247506 C0.00105810811,15.1957086 0.960762162,16.1666667 1.90753378,16.1666667 L47.4467432,14.3204333 C48.466877,14.2776815 49.2963162,13.4361765 49.2963162,12.444142 L49.2963162,3.79868765 C49.2963162,2.80617407 48.466877,1.96407037 47.4463905,1.92275556 L47.4463905,1.92275556 Z M15.3907703,7.42445185 C14.6998257,7.42445185 14.1303284,7.90945185 13.8594527,8.54689753 C14.1023473,8.56569877 14.3167905,8.57527901 14.5130108,8.57527901 C15.7830932,8.57527901 16.1375595,8.28056667 16.1375595,7.91891235 C16.1375595,7.67186173 15.8856122,7.42445185 15.3907703,7.42445185 L15.3907703,7.42445185 Z" id="Fill-2" fill="#7B8397"></path>
                                <path d="M51.0343176,2.89802469 L51.2695703,2.89802469 C51.4079473,2.89802469 51.4846014,2.83216049 51.4846014,2.72713704 C51.4846014,2.61025802 51.4050081,2.55636914 51.2607527,2.55636914 L51.0343176,2.55636914 L51.0343176,2.89802469 L51.0343176,2.89802469 Z M51.4227608,3.37775556 L51.1636419,3.04795556 L51.0371392,3.04795556 L51.0371392,3.35991235 C51.0371392,3.41068765 51.0105689,3.44385926 50.9607203,3.44385926 L50.9369716,3.44385926 C50.887123,3.44385926 50.8605527,3.40769383 50.8605527,3.34793704 L50.8605527,2.50535432 C50.8605527,2.4426037 50.8988797,2.4035642 50.9547243,2.4035642 L51.2667486,2.4035642 C51.5197541,2.4035642 51.6611878,2.5084679 51.6611878,2.72426296 C51.6611878,2.9041321 51.5492635,3.01813704 51.3549243,3.03598025 L51.6406135,3.36889383 C51.6494311,3.38086914 51.6082824,3.44385926 51.5432676,3.44385926 C51.5109365,3.44385926 51.4610878,3.42877037 51.4227608,3.37775556 L51.4227608,3.37775556 Z M52.0378743,2.92808272 C52.0378743,2.43350247 51.6904622,2.06466296 51.2254824,2.06466296 C50.7518027,2.06466296 50.4220257,2.41541975 50.4220257,2.92520864 C50.4220257,3.41966914 50.7692027,3.78850864 51.2344176,3.78850864 C51.7082149,3.78850864 52.0378743,3.43775185 52.0378743,2.92808272 L52.0378743,2.92808272 Z M50.2630743,2.93095679 C50.2630743,2.35254938 50.6782054,1.92095926 51.2314784,1.92095926 C51.7966257,1.92095926 52.1968257,2.33758025 52.1968257,2.92221481 C52.1968257,3.50074198 51.7816946,3.9323321 51.2284216,3.9323321 C50.6632743,3.9323321 50.2630743,3.51559136 50.2630743,2.93095679 L50.2630743,2.93095679 Z" id="Fill-3" fill="#7B8397"></path>
                            </g>
                        </g>
                        <g id="Group-22" transform="translate(68.000000, 0.000000)">
                            <g id="Rectangle-295" opacity="0" fill-opacity="1" fill="black">
                                <use filter="url(#filter-26)" xlink:href="#path-25"></use>
                            </g>
                            <g id="songkick_logo" transform="translate(12.100000, 16.166667)" fill="#7B8397">
                                <path d="M28.1267327,7.13016587 C27.6655626,7.13016587 27.361043,6.99528879 27.0423925,6.49956521 C26.7319178,6.00665996 26.2114991,5.17746791 26.2114991,5.17746791 L28.4748561,2.03261766 L26.5091551,2.03261766 L24.7121159,4.52814551 L24.7121159,0.0261701788 L23.0697084,0.0261701788 L23.0697084,8.66967696 L24.7121159,8.66967696 L24.7121159,5.92603568 C24.7121159,5.92603568 25.6321346,7.36690533 25.9114206,7.81099314 C26.3618916,8.49604789 26.9622505,8.6771254 27.9588785,8.6771254 L28.4391252,8.6760182 L28.4391252,7.1307698 C28.2647103,7.1307698 28.2649121,7.13016587 28.1267327,7.13016587" id="Fill-1"></path>
                                <path d="M42.8274505,7.13016587 C42.3661794,7.13016587 42.0617607,6.99528879 41.7432112,6.49956521 C41.4325346,6.00665996 40.9121159,5.17746791 40.9121159,5.17746791 L43.175372,2.03261766 L41.209772,2.03261766 L39.4128336,4.52814551 L39.4128336,0.0261701788 L37.7703252,0.0261701788 L37.7703252,8.66967696 L39.4128336,8.66967696 L39.4128336,5.92603568 C39.4128336,5.92603568 40.3326505,7.36690533 40.6122393,7.81099314 C41.0625084,8.49604789 41.6629682,8.6771254 42.6596972,8.6771254 L43.1397421,8.6760182 L43.1397421,7.1307698 C42.9652262,7.1307698 42.965428,7.13016587 42.8274505,7.13016587" id="Fill-2"></path>
                                <path d="M2.53386168,8.74144365 C1.51078879,8.74144365 0.675454206,8.55432687 0,7.86192433 L1.05123364,6.81370801 C1.39834766,7.15985896 2.00819439,7.28155029 2.54304673,7.28155029 C3.19074393,7.28155029 3.50031028,7.06645155 3.50031028,6.68275647 C3.50031028,6.52352099 3.46316636,6.39216683 3.36909533,6.28879462 C3.28461308,6.20464743 3.14380935,6.13881936 2.92791028,6.1108374 L2.12093832,5.99880891 C1.52966355,5.91446041 1.07919252,5.7178821 0.77891215,5.40907399 C0.468942056,5.09090501 0.31915514,4.64178448 0.31915514,4.07107328 C0.31915514,2.85436127 1.23877009,1.96497781 2.75894579,1.96497781 C3.71620935,1.96497781 4.43900187,2.18963873 5.01130093,2.76055125 L3.97904299,3.78994516 C3.55663178,3.36880659 3.00290467,3.39688921 2.71201121,3.39688921 C2.13961121,3.39688921 1.90503925,3.72462037 1.90503925,4.01460608 C1.90503925,4.09895458 1.9332,4.2204446 2.03655701,4.32341419 C2.12093832,4.40776269 2.26143925,4.49190988 2.49641495,4.52009315 L3.30328598,4.63252427 C3.90394766,4.71647015 4.33554393,4.90358693 4.61725234,5.18451373 C4.97385421,5.53076533 5.11435514,6.0264889 5.11435514,6.64541363 C5.11435514,8.00243806 3.94159626,8.74144365 2.53386168,8.74144365" id="Fill-4"></path>
                                <path d="M8.90868785,3.71515884 C8.78655701,3.55612468 8.55208598,3.42507248 8.25170467,3.42507248 C7.9514243,3.42507248 7.71685234,3.55612468 7.5950243,3.71515884 C7.44483364,3.91163649 7.35096449,4.13629741 7.35096449,5.35280811 C7.35096449,6.57072797 7.44483364,6.78572605 7.5950243,6.98230436 C7.71685234,7.14143918 7.9514243,7.28155029 8.25170467,7.28155029 C8.55208598,7.28155029 8.78655701,7.14143918 8.90868785,6.98230436 C9.05867664,6.78572605 9.15254579,6.57072797 9.15254579,5.35280811 C9.15254579,4.13629741 9.05867664,3.91163649 8.90868785,3.71515884 L8.90868785,3.71515884 Z M10.1193981,7.99277522 C9.6312785,8.47954055 9.06806355,8.74144365 8.25170467,8.74144365 C7.43514393,8.74144365 6.87213084,8.47954055 6.38421308,7.99277522 C5.68029533,7.29101181 5.70845607,6.35462269 5.70845607,5.35280811 C5.70845607,4.35159746 5.68029533,3.41561095 6.38421308,2.71374689 C6.87213084,2.22698156 7.43514393,1.96497781 8.25170467,1.96497781 C9.06806355,1.96497781 9.6312785,2.22698156 10.1193981,2.71374689 C10.823114,3.41561095 10.7949533,4.35159746 10.7949533,5.35280811 C10.7949533,6.35462269 10.823114,7.29101181 10.1193981,7.99277522 L10.1193981,7.99277522 Z" id="Fill-6"></path>
                                <path d="M34.6500336,8.74909339 C33.8711215,8.74909339 33.2798467,8.48708964 32.7917271,8.00032431 C32.0886168,7.29866156 32.1165757,6.36186981 32.1165757,5.36045785 C32.1165757,4.35864328 32.0886168,3.42305939 32.7917271,2.72139663 C33.2798467,2.23463131 33.8711215,1.97242625 34.6500336,1.97242625 C35.9171664,1.97242625 36.9399364,2.67449162 37.1837944,4.14374585 L35.5136299,4.14374585 C35.4103738,3.76931098 35.2039626,3.43252091 34.6594206,3.43252091 C34.3590393,3.43252091 34.1340561,3.55421224 34.0118243,3.71324641 C33.8616336,3.90982471 33.7584785,4.14374585 33.7584785,5.36045785 C33.7584785,6.57777379 33.8616336,6.81189623 34.0118243,7.00827323 C34.1340561,7.1675087 34.3590393,7.28920003 34.6594206,7.28920003 C35.2039626,7.28920003 35.4103738,6.95230931 35.5136299,6.57777379 L37.1837944,6.57777379 C36.9399364,8.04692736 35.9171664,8.74909339 34.6500336,8.74909339" id="Fill-7"></path>
                                <path d="M19.748557,7.28134898 C19.4480748,7.28134898 19.2229907,7.15965765 19.1010617,7.00042217 C18.9506692,6.80404518 18.847615,6.56992273 18.847615,5.3526068 C18.847615,4.1358948 18.9506692,3.90197366 19.1010617,3.70539535 C19.2229907,3.54636119 19.4480748,3.42466986 19.748557,3.42466986 C20.2836112,3.42466986 20.4917383,3.74998531 20.5968112,4.1170724 L20.5968112,6.58914775 C20.4917383,6.95563091 20.2836112,7.28134898 19.748557,7.28134898 L19.748557,7.28134898 Z M20.6082168,9.17606992 C20.6082168,10.0532742 20.0007925,10.2083828 19.6078542,10.2083828 L19.0106243,10.2123083 L19.0106243,11.6734096 L19.7390692,11.6759259 C21.3735028,11.6655585 22.264957,10.8139205 22.264957,9.17908956 L22.2593047,4.25939791 C22.2593047,3.4921084 21.9050243,2.88345043 21.3867252,2.49059579 C20.9244449,2.14051932 20.3308486,1.96457519 19.7390692,1.96457519 C18.960157,1.96457519 18.3688822,2.22678025 17.8812673,2.71354558 C17.1771477,3.41520833 17.2054093,4.35079223 17.2054093,5.3526068 C17.2054093,6.35401876 17.1771477,7.2908105 17.8812673,7.99247326 C18.3688822,8.47923859 18.960157,8.74124234 19.7390692,8.74124234 C20.0412673,8.74124234 20.3138916,8.68105093 20.6082168,8.54013458 L20.6082168,9.17606992 L20.6082168,9.17606992 Z" id="Fill-8"></path>
                                <path d="M16.5430766,4.90952554 C16.5430766,4.22950351 16.570228,3.41269197 15.8672187,2.71183445 C15.3794019,2.22506913 14.8163888,1.96296472 13.9997271,1.96296472 C13.1833682,1.96296472 12.6201533,2.22506913 12.1321346,2.71183445 C11.4283178,3.41359786 11.4563776,4.27238234 11.4563776,4.90912292 L11.4559738,8.68326533 L13.0970692,8.68286271 L13.098785,4.90912292 C13.098785,4.05748491 13.1924523,3.93247198 13.3428449,3.73599433 C13.4647738,3.57696017 13.6992449,3.42305939 13.9997271,3.42305939 C14.3001084,3.42305939 14.5346804,3.57696017 14.6565084,3.73599433 C14.8065981,3.93247198 14.9005682,4.03524026 14.9005682,4.91324976 L14.8975402,8.68014504 L16.5389383,8.6826614 L16.5430766,4.90952554" id="Fill-9"></path>
                                <polyline id="Fill-10" points="30.5579439 1.35279693 30.5579439 0.0277806513 28.9217944 0.0275793423 28.9215925 1.34997861 30.5579439 1.35279693"></polyline>
                                <path d="M28.877686,2.03332224 L30.5476486,2.03432878 L30.5479514,6.10238242 C30.5479514,6.82800096 31.014572,7.12956194 31.5598206,7.12956194 L31.9399402,7.12996456 L31.9399402,8.67833325 L31.4058953,8.68205747 C29.7390617,8.67169005 28.8799065,7.76106849 28.8799065,6.15945354 L28.877686,2.03332224" id="Fill-11"></path>
                            </g>
                        </g>
                    </g>
                    <g id="Group-38" opacity="0.7" transform="translate(290.000000, 18.000000)">
                        <g id="Group-21">
                            <g id="google-analytics">
                                <g id="Group">
                                    <path d="M11.998,14.5675 L24,2.6185 L24,1.932 C24,0.865 23.135,0 22.068,0 L1.932,0 C0.865,0 0,0.865 0,1.932 L0,16.023 L6.6625,9.399 L11.998,14.5675" id="Shape" fill="#7B8397"></path>
                                    <path d="M6.6645,14.7965 L0,21.447 L0,22.068 C0,23.135 0.865,24 1.932,24 L22.068,24 C23.135,24 24,23.135 24,22.068 L24,8.1185 L11.998,20.0675 L6.6645,14.7965" id="Shape" fill="#7B8397"></path>
                                    <polyline id="Shape" fill-opacity="0" fill="#44506C" points="0 16.023 6.6625 9.399 11.998 14.5675 24 2.6185 23.998 8.12 11.998 20.0675 6.6645 14.7965 0 21.447 0 16.023"></polyline>
                                    <polyline id="Shape" fill="#7B8397" opacity="0.3" points="9.333 17.4345 9.3335 11.986 6.6645 14.7965 9.333 17.4345"></polyline>
                                </g>
                            </g>
                        </g>
                    </g>
                    <path d="M309.285714,88 L292.714286,88 C291.769143,88 291,87.2046364 291,86.2272727 L291,63.7727273 C291,62.7953636 291.769143,62 292.714286,62 L309.285714,62 C310.230857,62 311,62.7953636 311,63.7727273 L311,86.2272727 C311,87.2046364 310.230857,88 309.285714,88 L309.285714,88 Z M292.580645,63 C292.260129,63 292,63.2694 292,63.6 L292,86.4 C292,86.7306 292.260129,87 292.580645,87 L309.419355,87 C309.739871,87 310,86.7306 310,86.4 L310,63.6 C310,63.2694 309.739871,63 309.419355,63 L292.580645,63 L292.580645,63 Z M301,84.786094 C297.775149,84.786094 295.152341,82.1811828 295.152341,78.979642 C295.152341,75.7781012 297.775149,73.1731899 301,73.1731899 C304.224851,73.1731899 306.847659,75.7781012 306.847659,78.979642 C306.847659,82.1811828 304.224851,84.786094 301,84.786094 L301,84.786094 Z M301,74.2470059 C298.371885,74.2470059 296.233778,76.3700467 296.233778,78.979642 C296.233778,81.5892373 298.371885,83.7122781 301,83.7122781 C303.628115,83.7122781 305.766222,81.5892373 305.766222,78.979642 C305.766222,76.3700467 303.628115,74.2470059 301,74.2470059 L301,74.2470059 Z M302.728883,78.979642 C302.728883,78.0317096 301.95466,77.2629416 301,77.2629416 C300.04534,77.2629416 299.271117,78.0317096 299.271117,78.979642 C299.271117,79.9275744 300.04534,80.6963423 301,80.6963423 C301.95466,80.6963423 302.728883,79.9275744 302.728883,78.979642 L302.728883,78.979642 Z M298.518121,67.2695441 C298.518121,65.9105872 299.631399,64.805154 301,64.805154 C302.368601,64.805154 303.481879,65.9105872 303.481879,67.2695441 C303.481879,68.6285009 302.368601,69.7339342 301,69.7339342 C299.631399,69.7339342 298.518121,68.6285009 298.518121,67.2695441 Z M301,65.6353999 C300.092513,65.6353999 299.354259,66.368452 299.354259,67.2695441 C299.354259,68.1706361 300.092513,68.9036882 301,68.9036882 C301.907487,68.9036882 302.645741,68.1706361 302.645741,67.2695441 C302.645741,66.368452 301.907487,65.6353999 301,65.6353999 L301,65.6353999 Z" id="Imported-Layers-Copy-3" fill="#A3A8B6"></path>
                    <g id="Group-44" opacity="0.7" transform="translate(288.000000, 109.000000)">
                        <path d="M22.2655263,10.7718519 C22.1826316,5.75259259 18.6513158,1.56444444 13.9097368,0.391111111 C13.0144737,0.162962963 12.0860526,0.0325925926 11.1410526,0.0325925926 C4.99026316,0.0325925926 0,4.93777778 0,10.9837037 C0,17.0296296 4.99026316,21.9185185 11.1244737,21.9185185 C12.0860526,21.9185185 12.9978947,21.8044444 13.8931579,21.56 C9.18473684,20.3540741 5.65342105,16.1985185 5.57052632,11.1792593 L5.57052632,10.7555556 C5.68657895,7.82222222 8.14026316,5.47555556 11.1244737,5.47555556 C12.1357895,5.47555556 13.0973684,5.7362963 13.8931579,6.20888889 C15.5676316,7.15407407 16.6618421,8.91407407 16.6618421,10.9674074 C16.6618421,13.0207407 15.5344737,14.7481481 13.8931579,15.7259259 C14.7221053,16.1659259 15.6836842,16.4592593 16.695,16.4592593 C19.7123684,16.4592593 22.1494737,14.1125926 22.2489474,11.1792593 L22.2489474,10.9674074 C22.2655263,10.9185185 22.2655263,10.837037 22.2655263,10.7718519 L22.2655263,10.7718519 Z" id="Shape" fill="#7B8397" opacity="0.5"></path>
                        <path d="M16.7115789,0.0325925926 C15.75,0.0325925926 14.8381579,0.146666667 13.9428947,0.391111111 C18.6844737,1.59703704 22.2157895,5.78518519 22.2986842,10.7718519 L22.2986842,11.1955556 C22.1826316,14.1288889 19.6957895,16.4755556 16.7115789,16.4755556 C15.7002632,16.4755556 14.7386842,16.2148148 13.9428947,15.7422222 C12.2684211,14.797037 11.1576316,13.037037 11.1576316,10.9837037 C11.1576316,8.93037037 12.285,7.20296296 13.9263158,6.22518519 C13.1139474,5.75259259 12.1689474,5.49185185 11.1576316,5.49185185 C8.14026316,5.49185185 5.70315789,7.83851852 5.60368421,10.7718519 L5.60368421,11.1955556 C5.68657895,16.2148148 9.21789474,20.402963 13.9594737,21.5762963 C14.8547368,21.8044444 15.7831579,21.9348148 16.7281579,21.9348148 C22.8789474,21.9348148 27.8526316,17.0296296 27.8526316,11 C27.8526316,4.93777778 22.8623684,0.0325925926 16.7115789,0.0325925926 L16.7115789,0.0325925926 Z" id="Shape" fill="#7B8397"></path>
                        <path d="M13.9097368,21.5762963 C9.20131579,20.3703704 5.67,16.2148148 5.58710526,11.1955556 L5.58710526,11.162963 L5.58710526,11.2444444 C5.65342105,15.4977778 7.19526316,19.2785185 9.61578947,21.837037 C10.1297368,21.9022222 10.6271053,21.9511111 11.1410526,21.9511111 C12.0860526,21.9185185 13.0476316,21.8044444 13.9097368,21.5762963 L13.9097368,21.5762963 Z" id="Shape" fill="url(#linearGradient-27)" opacity="0.4"></path>
                        <path d="M5.63684211,10.8044444 C6.49894737,7.98518519 9.48315789,6.33925926 12.4176316,7.13777778 C12.5005263,7.17037037 12.6331579,7.20296296 12.7160526,7.21925926 C13.0807895,6.84444444 13.4952632,6.51851852 13.9428947,6.25777778 C13.1305263,5.78518519 12.1855263,5.52444444 11.1742105,5.52444444 C8.15684211,5.52444444 5.71973684,7.87111111 5.63684211,10.8044444 L5.62026316,10.9837037 C5.58710526,10.9185185 5.60368421,10.8533333 5.63684211,10.8044444 L5.63684211,10.8044444 Z" id="Shape" fill="url(#linearGradient-28)" opacity="0.25"></path>
                    </g>
                </g>
            </g>
        </g>
    </g>
</svg>