<?xml version="1.0" encoding="UTF-8" standalone="no"?>
<svg width="154px" height="23px" viewBox="0 0 154 23" version="1.1" xmlns="http://www.w3.org/2000/svg" xmlns:xlink="http://www.w3.org/1999/xlink">
    <!-- Generator: sketchtool 3.6.1 (26313) - http://www.bohemiancoding.com/sketch -->
    <title>logo-techcrunch</title>
    <desc>Created with sketchtool.</desc>
    <defs>
        <linearGradient x1="50%" y1="0%" x2="50%" y2="100%" id="linearGradient-1">
            <stop stop-color="#FF0000" stop-opacity="0.1" offset="0%"></stop>
            <stop stop-color="#FF0000" stop-opacity="0.2" offset="100%"></stop>
        </linearGradient>
    </defs>
    <g id="A-Landing" stroke="none" stroke-width="1" fill="none" fill-rule="evenodd" opacity="0.3">
        <g id="A01-Home-(Desktop)" transform="translate(-743.000000, -6145.000000)">
            <g id="logo-techcrunch" transform="translate(735.000000, 6116.187500)">
                <rect id="Bounds-16:9" fill="url(#linearGradient-1)" opacity="0" x="0" y="0.8125" width="170" height="78"></rect>
                <g id="TechCrunch-Logo" transform="translate(8.000000, 29.000000)" fill="#000000">
                    <path d="M57.7774608,8.4 L57.7774608,18.1111111 L54.2624822,18.1111111 L54.2624822,8.4 L50.725535,8.4 L50.725535,5.31111111 L61.314408,5.31111111 L61.314408,8.4 L57.7774608,8.4 L57.7774608,8.4 Z" id="Shape"></path>
                    <path d="M69.5087019,14.2444444 L63.9506419,14.2444444 C64.060485,15.3111111 64.6756063,15.7777778 65.5543509,15.7777778 C66.3891583,15.7777778 67.0701854,15.6 68.0148359,15.1111111 L69.2670471,17.2222222 C68.1027104,17.9111111 66.8724679,18.3111111 65.4005706,18.3111111 C62.5446505,18.3111111 60.9629101,16.2666667 60.9629101,13.3111111 C60.9629101,10 62.8082739,8.31111111 65.3126961,8.31111111 C67.9269615,8.31111111 69.5526391,10.0444444 69.5526391,13.6222222 C69.5306705,13.8888889 69.5306705,14.0888889 69.5087019,14.2444444 L69.5087019,14.2444444 Z M65.2028531,10.7333333 C64.4559201,10.7333333 64.0385164,11.2444444 63.9286733,12.2 L66.6308131,12.2 C66.4990014,11.2444444 66.1694722,10.7333333 65.2028531,10.7333333 L65.2028531,10.7333333 Z" id="Shape"></path>
                    <path d="M75.5720399,18.3111111 C72.7820257,18.3111111 71.1343795,16.5111111 71.1343795,13.2888889 C71.1343795,10.3333333 72.6062767,8.31111111 75.6599144,8.31111111 C77.4393723,8.31111111 78.4718973,9.15555556 79.3067047,10.5111111 L77.0439372,12.2222222 C76.5825963,11.3777778 76.2750357,10.9777778 75.5720399,10.9777778 C74.7372325,10.9777778 74.3198288,11.8222222 74.3198288,13.3333333 C74.3198288,14.8444444 74.7811698,15.6444444 75.6599144,15.6444444 C76.2750357,15.6444444 76.714408,15.2888889 77.3075606,14.4 L79.3726106,16.0222222 C78.2741797,17.6666667 77.2416548,18.3111111 75.5720399,18.3111111 L75.5720399,18.3111111 Z" id="Shape"></path>
                    <path d="M86.6661912,18.1111111 L86.6661912,12.6666667 C86.6661912,11.4222222 86.2487874,11.0888889 85.589729,11.0888889 C84.9087019,11.0888889 84.4912981,11.4222222 84.4912981,12.6222222 L84.4912981,18.1111111 L81.2399429,18.1111111 L81.2399429,6.08888889 L84.4912981,4.77777778 L84.4912981,9.15555556 C85.0844508,8.68888889 85.7654779,8.31111111 86.8858773,8.31111111 C88.9728959,8.31111111 89.9614836,9.71111111 89.9614836,12.2444444 L89.9614836,18.1111111 L86.6661912,18.1111111 L86.6661912,18.1111111 Z" id="Shape"></path>
                    <path d="M0,0 L0,7.33333333 L7.24964337,7.33333333 L7.24964337,22 L14.4992867,22 L14.4992867,7.33333333 L21.7489301,7.33333333 L21.7489301,0 L0,0 Z" id="Shape"></path>
                    <path d="M28.9985735,14.6666667 L28.9985735,7.33333333 L21.7489301,7.33333333 L21.7489301,22 L43.4978602,22 L43.4978602,14.6666667 L28.9985735,14.6666667 Z" id="Shape"></path>
                    <rect id="Rectangle-path" x="28.9985735" y="0" width="14.4992867" height="7.33333333"></rect>
                    <path d="M97.7383738,18.3111111 C93.9817404,18.3111111 91.9606277,15.4888889 91.9606277,11.7111111 C91.9606277,7.6 94.3552068,5.11111111 97.7383738,5.11111111 C100.857917,5.11111111 102.08816,6.46666667 102.944936,8.88888889 L99.7594864,10.1555556 C99.2981455,8.97777778 98.8807418,8.22222222 97.7164051,8.22222222 C96.2445078,8.22222222 95.6293866,9.71111111 95.6293866,11.7333333 C95.6293866,13.6888889 96.2445078,15.2444444 97.7603424,15.2444444 C98.8587732,15.2444444 99.3420827,14.6444444 100.02311,13.4444444 L102.988873,15.0444444 C102.132097,16.6888889 100.726106,18.3111111 97.7383738,18.3111111 L97.7383738,18.3111111 Z" id="Shape"></path>
                    <path d="M110.985449,12.1333333 C110.568046,11.6666667 110.106705,11.3333333 109.469615,11.3333333 C108.678745,11.3333333 108.195435,11.7111111 108.195435,12.8888889 L108.195435,18.1111111 L104.94408,18.1111111 L104.94408,8.51111111 L108.195435,8.51111111 L108.195435,9.2 C108.766619,8.64444444 109.38174,8.31111111 110.216548,8.31111111 C110.897575,8.31111111 111.380884,8.46666667 111.754351,8.71111111 L110.985449,12.1333333 L110.985449,12.1333333 Z" id="Shape"></path>
                    <path d="M118.740371,18.1111111 L118.740371,17.4666667 C118.169187,17.9333333 117.466191,18.3111111 116.36776,18.3111111 C114.280742,18.3111111 113.292154,16.9111111 113.292154,14.3777778 L113.292154,8.51111111 L116.565478,8.51111111 L116.565478,13.9555556 C116.565478,15.2 116.982882,15.5333333 117.64194,15.5333333 C118.300999,15.5333333 118.718402,15.2 118.718402,14 L118.718402,8.51111111 L121.991726,8.51111111 L121.991726,18.1111111 L118.740371,18.1111111 L118.740371,18.1111111 Z" id="Shape"></path>
                    <path d="M129.790585,18.1111111 L129.790585,12.6666667 C129.790585,11.4222222 129.373181,11.0888889 128.714123,11.0888889 C128.033096,11.0888889 127.615692,11.4222222 127.615692,12.6222222 L127.615692,18.1111111 L124.342368,18.1111111 L124.342368,8.51111111 L127.593723,8.51111111 L127.593723,9.15555556 C128.186876,8.68888889 128.867903,8.31111111 129.988302,8.31111111 C132.075321,8.31111111 133.063909,9.71111111 133.063909,12.2444444 L133.063909,18.1111111 L129.790585,18.1111111 L129.790585,18.1111111 Z" id="Shape"></path>
                    <path d="M139.412839,18.3111111 C136.622825,18.3111111 134.975178,16.5111111 134.975178,13.2888889 C134.975178,10.3333333 136.447076,8.31111111 139.500713,8.31111111 C141.280171,8.31111111 142.312696,9.15555556 143.147504,10.5111111 L140.884736,12.2222222 C140.423395,11.3777778 140.115835,10.9777778 139.412839,10.9777778 C138.578031,10.9777778 138.160628,11.8222222 138.160628,13.3333333 C138.160628,14.8444444 138.621969,15.6444444 139.500713,15.6444444 C140.115835,15.6444444 140.555207,15.2888889 141.148359,14.4 L143.213409,16.0222222 C142.114979,17.6666667 141.082454,18.3111111 139.412839,18.3111111 L139.412839,18.3111111 Z" id="Shape"></path>
                    <path d="M150.50699,18.1111111 L150.50699,12.6666667 C150.50699,11.4222222 150.089586,11.0888889 149.430528,11.0888889 C148.749501,11.0888889 148.332097,11.4222222 148.332097,12.6222222 L148.332097,18.1111111 L145.080742,18.1111111 L145.080742,6.08888889 L148.332097,4.77777778 L148.332097,9.15555556 C148.92525,8.68888889 149.606277,8.31111111 150.726676,8.31111111 C152.813695,8.31111111 153.802282,9.71111111 153.802282,12.2444444 L153.802282,18.1111111 L150.50699,18.1111111 L150.50699,18.1111111 Z" id="Shape"></path>
                </g>
            </g>
        </g>
    </g>
</svg>