<?xml version="1.0" encoding="UTF-8" standalone="no"?>
<svg width="68px" height="31px" viewBox="0 0 68 31" version="1.1" xmlns="http://www.w3.org/2000/svg" xmlns:xlink="http://www.w3.org/1999/xlink">
    <!-- Generator: sketchtool 3.6.1 (26313) - http://www.bohemiancoding.com/sketch -->
    <title>logo-tnw</title>
    <desc>Created with sketchtool.</desc>
    <defs>
        <linearGradient x1="50%" y1="0%" x2="50%" y2="100%" id="linearGradient-1">
            <stop stop-color="#FF0000" stop-opacity="0.1" offset="0%"></stop>
            <stop stop-color="#FF0000" stop-opacity="0.2" offset="100%"></stop>
        </linearGradient>
        <rect id="path-2" x="0" y="0" width="67.97552" height="29.8513433"></rect>
        <rect id="path-4" x="0" y="0" width="67.97552" height="29.8513433"></rect>
        <rect id="path-6" x="0" y="0" width="67.97552" height="29.8513433"></rect>
        <rect id="path-8" x="0" y="0" width="67.97552" height="29.8513433"></rect>
        <rect id="path-10" x="0" y="0" width="67.97552" height="29.8513433"></rect>
        <rect id="path-12" x="0" y="0" width="67.97552" height="29.8513433"></rect>
        <rect id="path-14" x="0" y="0" width="67.97552" height="29.8513433"></rect>
        <rect id="path-16" x="0" y="0" width="67.97552" height="29.8513433"></rect>
        <rect id="path-18" x="0" y="0" width="67.97552" height="29.8513433"></rect>
        <rect id="path-20" x="0" y="0" width="67.97552" height="29.8513433"></rect>
        <rect id="path-22" x="0" y="0" width="67.97552" height="29.8513433"></rect>
        <rect id="path-24" x="0" y="0" width="67.97552" height="29.8513433"></rect>
        <rect id="path-26" x="0" y="0" width="67.97552" height="29.8513433"></rect>
        <rect id="path-28" x="0" y="0" width="67.97552" height="29.8513433"></rect>
    </defs>
    <g id="A-Landing" stroke="none" stroke-width="1" fill="none" fill-rule="evenodd" opacity="0.3">
        <g id="A01-Home-(Desktop)" transform="translate(-586.000000, -6144.000000)">
            <g id="logo-tnw" transform="translate(535.000000, 6116.187500)">
                <rect id="Bounds-16:9" fill="url(#linearGradient-1)" opacity="0" x="0" y="0.8125" width="170" height="78"></rect>
                <g id="The-Next-Web" transform="translate(51.000000, 28.000000)">
                    <mask id="mask-3" fill="white">
                        <use xlink:href="#path-2"></use>
                    </mask>
                    <g id="SVGID_1_"></g>
                    <path d="M60.7221867,0.000597014925 L57.3950222,9.69074627 L55.3447467,1.79179104 C54.9294933,0.191044776 54.4083111,0.0204477612 54.0590933,0.00223880597 C53.6674133,0.0270149254 53.3778844,0.870447761 53.2784533,1.32074627 L51.4140444,9.76268657 L53.94576,20.8961194 L60.1413156,20.8961194 L67.97552,0.000597014925 L60.7221867,0.000597014925 L60.7221867,0.000597014925 Z" id="Shape" fill="#000000" mask="url(#mask-3)"></path>
                    <mask id="mask-5" fill="white">
                        <use xlink:href="#path-4"></use>
                    </mask>
                    <g id="SVGID_1_"></g>
                    <path d="M18.64016,0.158507463 C18.4104711,0.00940298507 18.1958933,0.000447761194 18.1931733,0.000447761194 L0,0.000447761194 L2.23840889,5.97059701 L7.77980444,5.97059701 L7.77980444,20.8959701 L13.8242489,20.8959701 L13.8242489,5.97059701 L19.0347111,5.97059701 L19.0347111,1.19477612 C19.03456,0.693283582 18.9262133,0.344626866 18.64016,0.158507463" id="Shape" fill="#000000" mask="url(#mask-5)"></path>
                    <mask id="mask-7" fill="white">
                        <use xlink:href="#path-6"></use>
                    </mask>
                    <g id="SVGID_1_"></g>
                    <path d="M33.1642044,1.79164179 L33.1642044,9.32522388 L26.6815378,1.1838806 C26.0884267,0.409850746 25.1525956,0.00373134328 24.2929244,0.00373134328 L19.2523111,0.00119402985 C19.44936,0.265223881 19.5642044,0.645522388 19.5642044,1.19492537 L19.5642044,1.7919403 L19.5642044,20.8961194 L25.6086489,20.8961194 L25.6086489,9.51208955 L33.8711022,19.7856716 C34.4722222,20.5219403 35.3736,20.8997015 36.2622844,20.8941791 L36.2375022,20.8965672 L39.2086489,20.8962687 L39.2086489,1.19462687 C39.2086489,0.717761194 39.4214133,0.299104478 39.6514044,0.000597014925 L35.0508267,0.000597014925 C34.0492622,0.000597014925 33.1642044,0.802537313 33.1642044,1.79164179" id="Shape" fill="#000000" mask="url(#mask-7)"></path>
                    <mask id="mask-9" fill="white">
                        <use xlink:href="#path-8"></use>
                    </mask>
                    <g id="SVGID_1_"></g>
                    <path d="M53.15016,0 L48.31672,0.00119402985 C47.8961778,0.00119402985 46.7843022,-0.000149253731 46.4776978,1.79044776 L45.0972978,9.84865672 L45.0805244,9.71462687 L42.5355111,1.80820896 C41.9915111,0.118507463 41.1743022,0 40.7014756,0 C40.1669956,0 39.7422222,0.502537313 39.7422222,1.19462687 L39.7422222,14.5976119 L42.2331378,20.8961194 L48.3156622,20.8961194 L52.6786933,1.19343284 C52.8000356,0.644179104 52.9750222,0.264179104 53.15016,0" id="Shape" fill="#000000" mask="url(#mask-9)"></path>
                    <mask id="mask-11" fill="white">
                        <use xlink:href="#path-10"></use>
                    </mask>
                    <g id="SVGID_1_"></g>
                    <path d="M3.66897778,29.8513433 L3.66897778,26.0650746 L2.27271111,26.0650746 L2.27271111,25.2125373 L6.10609778,25.2125373 L6.10609778,26.0650746 L4.70348444,26.0650746 L4.70348444,29.8513433 L3.66897778,29.8513433 Z" id="Shape" fill="#000000" mask="url(#mask-11)"></path>
                    <mask id="mask-13" fill="white">
                        <use xlink:href="#path-12"></use>
                    </mask>
                    <g id="SVGID_1_"></g>
                    <path d="M8.11149333,29.8513433 L8.11149333,25.2125373 L9.146,25.2125373 L9.146,27.0116418 L10.99288,27.0116418 L10.99288,25.2125373 L12.0273867,25.2125373 L12.0273867,29.8513433 L10.99288,29.8513433 L10.99288,27.8701493 L9.146,27.8701493 L9.146,29.8513433 L8.11149333,29.8513433 Z" id="Shape" fill="#000000" mask="url(#mask-13)"></path>
                    <mask id="mask-15" fill="white">
                        <use xlink:href="#path-14"></use>
                    </mask>
                    <g id="SVGID_1_"></g>
                    <path d="M14.3756533,29.8513433 L14.3756533,25.2125373 L17.5743733,25.2125373 L17.5743733,26.0650746 L15.41016,26.0650746 L15.41016,27.0616418 L16.9779378,27.0616418 L16.9779378,27.8701493 L15.41016,27.8701493 L15.41016,29.0238806 L17.6886133,29.0238806 L17.6886133,29.8513433 L14.3756533,29.8513433 Z" id="Shape" fill="#000000" mask="url(#mask-15)"></path>
                    <mask id="mask-17" fill="white">
                        <use xlink:href="#path-16"></use>
                    </mask>
                    <g id="SVGID_1_"></g>
                    <path d="M22.8674933,29.8513433 L22.8674933,25.2125373 L23.902,25.2125373 L25.8694667,28.1713433 L25.88216,28.1713433 L25.88216,25.2125373 L26.83416,25.2125373 L26.83416,29.8513433 L25.88216,29.8513433 L23.8321867,26.8674627 L23.8194933,26.8674627 L23.8194933,29.8513433 L22.8674933,29.8513433 Z" id="Shape" fill="#000000" mask="url(#mask-17)"></path>
                    <mask id="mask-19" fill="white">
                        <use xlink:href="#path-18"></use>
                    </mask>
                    <g id="SVGID_1_"></g>
                    <path d="M29.1824267,29.8513433 L29.1824267,25.2125373 L32.3811467,25.2125373 L32.3811467,26.0650746 L30.2169333,26.0650746 L30.2169333,27.0616418 L31.78456,27.0616418 L31.78456,27.8701493 L30.2169333,27.8701493 L30.2169333,29.0238806 L32.4952356,29.0238806 L32.4952356,29.8513433 L29.1824267,29.8513433 Z" id="Shape" fill="#000000" mask="url(#mask-19)"></path>
                    <mask id="mask-21" fill="white">
                        <use xlink:href="#path-20"></use>
                    </mask>
                    <g id="SVGID_1_"></g>
                    <path d="M34.3041867,29.8513433 L35.8083467,27.4002985 L34.4374667,25.2125373 L35.6179467,25.2125373 L36.4555556,26.6041791 L37.2488889,25.2125373 L38.31528,25.2125373 L36.9759822,27.4065672 L38.4991822,29.8513433 L37.3504356,29.8513433 L36.3540089,28.2277612 L35.3893156,29.8513433 L34.3041867,29.8513433 Z" id="Shape" fill="#000000" mask="url(#mask-21)"></path>
                    <mask id="mask-23" fill="white">
                        <use xlink:href="#path-22"></use>
                    </mask>
                    <g id="SVGID_1_"></g>
                    <path d="M41.6217422,29.8513433 L41.6217422,26.0650746 L40.2254756,26.0650746 L40.2254756,25.2125373 L44.0588622,25.2125373 L44.0588622,26.0650746 L42.6562489,26.0650746 L42.6562489,29.8513433 L41.6217422,29.8513433 Z" id="Shape" fill="#000000" mask="url(#mask-23)"></path>
                    <mask id="mask-25" fill="white">
                        <use xlink:href="#path-24"></use>
                    </mask>
                    <g id="SVGID_1_"></g>
                    <path d="M50.0564622,29.8513433 L48.80632,25.2125373 L49.8471733,25.2125373 L50.3422133,27.3250746 C50.4564533,27.751194 50.5326133,28.0898507 50.5706933,28.340597 L50.5833867,28.340597 C50.6172356,28.1067164 50.6888622,27.7701493 50.7991733,27.3313433 L51.2751733,25.2125373 L52.2271733,25.2125373 L52.7347556,27.3438806 C52.8616889,27.8746269 52.9357333,28.2068657 52.95704,28.340597 L52.9697333,28.340597 C52.99512,28.1610448 53.0650844,27.8328358 53.1793244,27.3564179 L53.6550222,25.2125373 L54.6071733,25.2125373 L53.3824178,29.8513433 L52.5002311,29.8513433 L51.75752,26.6229851 L51.7448267,26.6229851 L50.9514933,29.8513433 L50.0564622,29.8513433 L50.0564622,29.8513433 Z" id="Shape" fill="#000000" mask="url(#mask-25)"></path>
                    <mask id="mask-27" fill="white">
                        <use xlink:href="#path-26"></use>
                    </mask>
                    <g id="SVGID_1_"></g>
                    <path d="M56.6062222,29.8513433 L56.6062222,25.2125373 L59.8049422,25.2125373 L59.8049422,26.0650746 L57.6405778,26.0650746 L57.6405778,27.0616418 L59.2082044,27.0616418 L59.2082044,27.8701493 L57.6405778,27.8701493 L57.6405778,29.0238806 L59.9190311,29.0238806 L59.9190311,29.8513433 L56.6062222,29.8513433 Z" id="Shape" fill="#000000" mask="url(#mask-27)"></path>
                    <mask id="mask-29" fill="white">
                        <use xlink:href="#path-28"></use>
                    </mask>
                    <g id="SVGID_1_"></g>
                    <path d="M62.0072356,29.8513433 L62.0072356,25.2125373 L63.8858489,25.2125373 C65.0028622,25.2125373 65.5613689,25.5949254 65.5613689,26.3598507 C65.5613689,26.6691045 65.4778044,26.9113433 65.3106756,27.0868657 C65.1435467,27.2625373 64.9288178,27.3753731 64.6664889,27.4255224 L64.6664889,27.4380597 C65.3476978,27.5592537 65.6883022,27.9374627 65.6883022,28.5726866 C65.6883022,29.0074627 65.5252533,29.3291045 65.19976,29.538209 C64.8738133,29.7471642 64.4674756,29.8516418 63.9812,29.8516418 L62.0072356,29.8516418 L62.0072356,29.8513433 Z M63.0227022,27.1246269 L63.7843022,27.1246269 C64.30896,27.1246269 64.5712889,26.9385075 64.5712889,26.5665672 C64.5712889,26.1902985 64.3131911,26.0023881 63.7969956,26.0023881 L63.0227022,26.0023881 L63.0227022,27.1246269 L63.0227022,27.1246269 Z M63.0227022,29.0740299 L63.8541156,29.0740299 C64.40416,29.0740299 64.6791822,28.8671642 64.6791822,28.4534328 C64.6791822,28.0480597 64.3893511,27.8453731 63.8096889,27.8453731 L63.0227022,27.8453731 L63.0227022,29.0740299 L63.0227022,29.0740299 Z" id="Shape" fill="#000000" mask="url(#mask-29)"></path>
                </g>
            </g>
        </g>
    </g>
</svg>