<svg width="190" height="113" viewBox="0 0 190 113" xmlns="http://www.w3.org/2000/svg" xmlns:xlink="http://www.w3.org/1999/xlink"><title>92F534CD-0236-4AAF-AAD0-B02DAFA4AA87</title><defs><path id="a" d="M0 0h190v113H0z"/><path id="c" d="M0 36h76.696V0H0z"/></defs><g fill="none" fill-rule="evenodd"><mask id="b" fill="#fff"><use xlink:href="#a"/></mask><use fill="#444F6C" xlink:href="#a"/><g mask="url(#b)"><g transform="translate(56 39)"><mask id="d" fill="#fff"><use xlink:href="#c"/></mask><path d="M42.144 0c0 7.627.085 14.576.085 21.779 0 .678.256 1.695-.681 1.695-1.278.085-1.023-1.102-.937-1.78.34-2.203-.512-2.796-3.067-2.711-8.858.17-17.717 0-26.575 0-4.6 0-7.752-2.712-7.837-6.44-.085-3.984 3.322-6.865 8.092-6.95 8.773 0 17.547-.085 26.32.085 2.385 0 3.578-.34 3.067-2.712-.17-1.017-.086-2.119.426-2.966h1.107" fill="#7B8397" mask="url(#d)"/><path d="M18.351 20.348h6.719c1.343 0 1.931.178 1.26 1.69-1.848 4.002-3.612 8.093-5.46 12.094C20.284 35.378 19.36 36 17.848 36H4.998c-1.68 0-2.267-.711-1.596-2.134 1.932-4.091 3.864-8.182 5.711-12.273.42-.978 1.092-1.245 2.184-1.245h7.054" fill="#C4C7CF" mask="url(#d)"/></g><path d="M117.043 57.472c-2.633.575-4.608.575-5.595-1.973-.165-.411-.658-.986-1.07-1.068-3.785-.905-2.468-3.617-2.633-5.754-.082-.576.165-1.15.74-1.233 3.621-.247 2.47-5.918 7.077-5.26 1.152.164 1.646.246 1.152 1.48-1.892 4.602-1.728 9.123.33 13.808M56 39c5.827 0 11.572.077 17.4 0 2.38 0 3.856.698 4.513 2.947C70.363 42.102 62.812 42.955 56 39M102.954 50.778v8.483c0 .741.104 1.73-1.243 1.647-1.14-.082-.725-.988-.932-1.647-1.14-3.459-.725-7-.933-10.542-.207-2.47 1.243-4.695 1.036-7.083 0-.494.207-1.07 1.036-1.07 1.14 0 1.036.74 1.036 1.317v8.895M106.087 51.354v8.134c0 .587-.078 1.425-.783 1.425-.704 0-.782-.755-.782-1.341V43.556c0-.587.078-1.342.782-1.426.705 0 .783.755.783 1.342v7.882" fill="#C4C7CF"/><path d="M124.825 46.744h-5.037c-.45 0-1.08-.083-1.17-.577-.09-.577.45-.906 1.08-.906h10.433c.54 0 1.08.33.99.741 0 .577-.63.742-1.26.824-1.709-.082-3.327-.082-5.036-.082M127.958 48.412H133c.63 0 1.26.244 1.26.813 0 .65-.72.732-1.35.732h-9.814c-.63 0-1.35-.082-1.35-.65-.09-.814.72-.814 1.44-.814 1.621-.163 3.152-.081 4.772-.081M126.345 53.087h5.01c.625 0 1.34.165 1.34.741 0 .495-.625.824-1.252.824h-9.838c-.805 0-1.431-.247-1.431-.906s.805-.577 1.431-.577c1.61-.082 3.13-.082 4.74-.082" fill="#7B8397"/></g></g></svg>