<svg width="190" height="113" viewBox="0 0 190 113" xmlns="http://www.w3.org/2000/svg" xmlns:xlink="http://www.w3.org/1999/xlink"><title>1A48680B-04D2-42CA-85C7-FCDFE10A4872</title><defs><path id="a" d="M0 0h190v113H0z"/><linearGradient x1="100%" y1="100%" x2="0%" y2="0%" id="c"><stop stop-color="#313C59" stop-opacity="0" offset="0%"/><stop stop-color="#313C59" offset="100%"/></linearGradient></defs><g fill="none" fill-rule="evenodd"><mask id="b" fill="#fff"><use xlink:href="#a"/></mask><use fill="#444F6C" xlink:href="#a"/><g mask="url(#b)"><path d="M86.829 63.914H76.75A3.75 3.75 0 0 0 73 67.663v7.589A3.745 3.745 0 0 0 76.75 79H101.914V48.829H90.577a3.743 3.743 0 0 0-3.748 3.745v11.34z" fill="#FFF"/><path d="M101.914 38.751A3.746 3.746 0 0 1 105.663 35h7.589A3.745 3.745 0 0 1 117 38.751V75.25A3.746 3.746 0 0 1 113.252 79h-11.338V38.751z" fill="#7B8397"/><path d="M28.915 13.829L44 28.99l-.07 11.26A3.775 3.775 0 0 1 40.162 44H28.914l.001-30.171z" fill="url(#c)" style="mix-blend-mode:multiply" opacity=".15" transform="translate(73 35)"/></g></g></svg>