<svg width="190" height="113" viewBox="0 0 190 113" xmlns="http://www.w3.org/2000/svg" xmlns:xlink="http://www.w3.org/1999/xlink"><title>7FFC3D67-0FCA-4630-80E1-2C00982274CF</title><defs><path id="a" d="M0 0h190v113H0z"/></defs><g fill="none" fill-rule="evenodd"><mask id="b" fill="#fff"><use xlink:href="#a"/></mask><use fill="#444F6C" xlink:href="#a"/><g mask="url(#b)"><path d="M109.13 43.325a.402.402 0 0 0-.38-.344c-.174 0-3.455-.241-3.455-.241s-2.28-2.27-2.557-2.511c-.242-.241-.76-.172-.933-.103-.034 0-.518.137-1.278.378-.76-2.202-2.107-4.231-4.49-4.231h-.208C95.14 35.378 94.31 35 93.584 35c-5.562 0-8.222 6.914-9.051 10.423-2.142.654-3.697 1.135-3.87 1.204-1.208.379-1.243.413-1.381 1.548C79.144 49.001 76 73.253 76 73.253l24.527 4.575 13.3-2.855-4.698-31.648zm-9.985-2.408c-.621.206-1.312.413-2.072.653v-.447c0-1.376-.208-2.477-.484-3.337 1.244.138 2.038 1.514 2.556 3.13zm-4.076-2.89c.346.86.553 2.064.553 3.715v.241c-1.347.413-2.833.86-4.284 1.307.83-3.13 2.384-4.678 3.731-5.263zm-1.658-1.548c.242 0 .484.069.725.241-1.761.826-3.696 2.924-4.49 7.12-1.175.38-2.315.723-3.386 1.033.933-3.2 3.178-8.394 7.15-8.394z" fill="#7B8397"/><path d="M108.75 42.98c-.174 0-3.455-.24-3.455-.24s-2.28-2.27-2.557-2.511c-.103-.103-.207-.138-.345-.172l-1.866 37.771 13.3-2.855s-4.663-31.407-4.698-31.614c-.034-.24-.242-.344-.38-.378z" fill="#7B8397"/><path d="M96.002 50.308l-1.624 4.85s-1.45-.756-3.178-.756c-2.59 0-2.695 1.616-2.695 2.03 0 2.2 5.804 3.06 5.804 8.255 0 4.094-2.59 6.708-6.114 6.708-4.215 0-6.357-2.614-6.357-2.614l1.14-3.715s2.211 1.892 4.077 1.892c1.209 0 1.727-.964 1.727-1.652 0-2.89-4.767-3.027-4.767-7.774 0-3.99 2.867-7.878 8.705-7.878 2.176 0 3.282.654 3.282.654z" fill="#FFF"/></g></g></svg>