<svg width="190" height="113" viewBox="0 0 190 113" xmlns="http://www.w3.org/2000/svg" xmlns:xlink="http://www.w3.org/1999/xlink"><title>4AC7AB91-39F1-4F2A-80EB-057926A4D484</title><defs><path id="a" d="M0 0h190v113H0z"/></defs><g fill="none" fill-rule="evenodd"><mask id="b" fill="#fff"><use xlink:href="#a"/></mask><use fill="#444F6C" xlink:href="#a"/><g mask="url(#b)"><path fill="#FFF" d="M57 48h76v39H57zM57 28h76v15H57z"/><path fill="#C4C7CF" d="M62 34h34v3H62zM62 58h43v3H62zM62 65h26v3H62zM62 72h36v3H62z"/><path d="M127.77 56.172L125.939 58 123 55.058l1.833-1.828c.306-.307.815-.307 1.105 0l1.833 1.836c.305.29.305.8 0 1.106zM123.155 55L126 57.843 117.846 66H115v-2.843L123.154 55z" stroke="#FFF" fill="#7B8397"/></g></g></svg>