<svg width="190" height="113" viewBox="0 0 190 113" xmlns="http://www.w3.org/2000/svg" xmlns:xlink="http://www.w3.org/1999/xlink"><title>5EE134A6-808D-42F8-AD9A-29E5C480BC6B</title><defs><path id="a" d="M0 0h190v113H0z"/><path id="c" d="M56 0h40v65H56z"/></defs><g fill="none" fill-rule="evenodd"><mask id="b" fill="#fff"><use xlink:href="#a"/></mask><use fill="#444F6C" xlink:href="#a"/><g mask="url(#b)"><path fill="#FFF" d="M47 24h40v65H47z"/><g transform="translate(47 24)"><use fill="#FFF" xlink:href="#c"/><path stroke="#7B8397" stroke-width="2" d="M55-1h42v67H55z"/></g><path fill="#C4C7CF" d="M51 28h32v12H51zM51 52h15v15H51zM68 52h15v15H68z"/><path fill="#7B8397" opacity=".3" d="M57 44h20v2H57zM51 70h15v2H51zM68 70h15v2H68z"/><path fill="#C4C7CF" d="M51 81h15v8H51zM68 81h15v8H68zM107 28h15v15h-15z"/><path fill="#D7D9DF" d="M124 28h15v2h-15z"/><path fill="#7B8397" opacity=".3" d="M124 37h15v2h-15zM124 33h15v2h-15z"/><g><path fill="#C4C7CF" d="M107 51h15v15h-15z"/><path fill="#D7D9DF" d="M124 51h15v2h-15z"/><path fill="#7B8397" opacity=".3" d="M124 60h15v2h-15zM124 56h15v2h-15z"/></g><g><path fill="#C4C7CF" d="M107 74h15v15h-15z"/><path fill="#D7D9DF" d="M124 74h15v2h-15z"/><path fill="#7B8397" opacity=".3" d="M124 83h15v2h-15zM124 79h15v2h-15z"/></g></g></g></svg>