<svg width="190" height="113" viewBox="0 0 190 113" xmlns="http://www.w3.org/2000/svg" xmlns:xlink="http://www.w3.org/1999/xlink"><title>24F5F0BF-6B38-453B-915C-FF53D1D913F3</title><defs><path id="a" d="M0 0h190v113H0z"/><rect id="c" width="48" height="48" rx="6"/></defs><g fill="none" fill-rule="evenodd"><mask id="b" fill="#fff"><use xlink:href="#a"/></mask><use fill="#444F6C" xlink:href="#a"/><g mask="url(#b)"><g transform="translate(71 33)"><mask id="d" fill="#fff"><use xlink:href="#c"/></mask><use fill="#E4E6E9" xlink:href="#c"/><g mask="url(#d)"><path fill="#F5F6F7" d="M-8.4 0h64.8v12H-8.4z"/><path fill="#E4E6E9" opacity=".8" d="M-8.4 12h64.8v12H-8.4z"/><path fill="#C4C7CF" opacity=".8" d="M-8.4 24h64.8v12H-8.4z"/><path fill="#7B8397" d="M-8.4 36h64.8v12H-8.4z"/></g></g><path d="M87 60.2a4.794 4.794 0 0 0-4.8 4.8c0 2.096-1.856 3.2-3.2 3.2 1.472 1.952 3.984 3.2 6.4 3.2 3.536 0 6.4-2.864 6.4-6.4 0-2.656-2.144-4.8-4.8-4.8zm21.932-14.988l-2.144-2.144a1.593 1.593 0 0 0-2.255 0L90.199 57.402l4.399 4.4 14.334-14.335a1.593 1.593 0 0 0 0-2.255z" fill="#FFF"/></g></g></svg>