<svg width="190" height="113" viewBox="0 0 190 113" xmlns="http://www.w3.org/2000/svg" xmlns:xlink="http://www.w3.org/1999/xlink"><title>F78CDD15-C3BD-4854-BFF4-7D6811EC7655</title><defs><path id="a" d="M0 0h190v113H0z"/></defs><g fill="none" fill-rule="evenodd"><mask id="b" fill="#fff"><use xlink:href="#a"/></mask><use fill="#444F6C" xlink:href="#a"/><g mask="url(#b)"><g transform="translate(60 23)"><path d="M9 1.003A.998.998 0 0 1 9.999 0h1.002c.552 0 .999.438.999 1.003V7H9V1.003zM59 1.003A.998.998 0 0 1 59.999 0h1.002c.552 0 .999.438.999 1.003V7h-3V1.003zM9 51h3v16c0 .552-.443 1-.999 1H9.999C9.447 68 9 67.545 9 67V51zM59 51h3v16c0 .552-.443 1-.999 1h-1.002c-.552 0-.999-.455-.999-1V51z" fill="#7B8397"/><rect stroke="#FFF" stroke-width="2" stroke-linecap="round" stroke-linejoin="round" y="8" width="71" height="42" rx="2"/></g></g></g></svg>