<svg width="190" height="113" viewBox="0 0 190 113" xmlns="http://www.w3.org/2000/svg" xmlns:xlink="http://www.w3.org/1999/xlink"><title>D571DB5D-00A4-44FD-BEAC-0A28015E0E14</title><defs><path id="a" d="M0 0h190v113H0z"/></defs><g fill="none" fill-rule="evenodd"><mask id="b" fill="#fff"><use xlink:href="#a"/></mask><use fill="#444F6C" xlink:href="#a"/><g mask="url(#b)"><path d="M83.746 33.703c.127-.806.615-.945 1.113-.28l20.383 27.25c.487.652.264 1.385-.504 1.64l-25.564 8.51c-.765.254-1.283-.184-1.154-.998l5.726-36.122" fill="#C4C7CF"/><path d="M110.5 70.895H78.38c-.333 0-.475-.24-.313-.545l16.56-30.791c.162-.3.465-.325.673-.06 0 0 8.476 10.76 14.151 18.99" fill-opacity=".87" fill="#7B8397"/><path d="M106.981 42.725c.494-.487.99-.333 1.108.348l4.697 27.055c.118.68-.278 1.5-.881 1.827l-15.529 8.45c-.604.328-1.575.327-2.189-.015l-15.093-8.42c-.604-.338-.694-1.006-.2-1.494l28.087-27.75z" fill="#E4E6E9"/></g></g></svg>