<svg width="190" height="113" viewBox="0 0 190 113" xmlns="http://www.w3.org/2000/svg" xmlns:xlink="http://www.w3.org/1999/xlink"><title>41FAFB71-49C2-43F4-A890-A1B620383AFA</title><defs><path id="a" d="M0 0h190v113H0z"/></defs><g fill="none" fill-rule="evenodd"><mask id="b" fill="#fff"><use xlink:href="#a"/></mask><use fill="#444F6C" xlink:href="#a"/><g mask="url(#b)"><g transform="translate(71 33)"><ellipse fill="#E4E6E9" cx="24" cy="24" rx="24" ry="24"/><path d="M34.9 20.51c-.013 1.69-4.3 3.57-10.45 3.57-6.158 0-10.45-1.885-10.45-3.577V16.38c1.727 1.477 5.274 2.635 10.45 2.635 5.176 0 8.722-1.157 10.45-2.634v4.13zM24.45 10c6.15 0 10.437 2.023 10.45 3.842v.016c-.013 1.819-4.3 3.842-10.45 3.842-6.158 0-10.45-2.029-10.45-3.85C14 12.03 18.292 10 24.45 10zm0 27.28c-6.158 0-10.45-1.854-10.45-3.518V29.58c1.727 1.453 5.274 2.591 10.45 2.591 5.176 0 8.722-1.138 10.45-2.59v4.188c-.013 1.663-4.3 3.511-10.45 3.511zm0-6.6c-6.158 0-10.45-1.854-10.45-3.518V22.98c1.727 1.453 5.274 2.591 10.45 2.591 5.176 0 8.722-1.138 10.45-2.59v4.188c-.013 1.663-4.3 3.511-10.45 3.511z" fill="#7B8397"/></g></g></g></svg>