<svg width="190" height="113" viewBox="0 0 190 113" xmlns="http://www.w3.org/2000/svg" xmlns:xlink="http://www.w3.org/1999/xlink"><title>8F575030-8350-4CBF-B42C-62217D627455</title><defs><path id="a" d="M0 0h190v113H0z"/></defs><g fill="none" fill-rule="evenodd"><mask id="b" fill="#fff"><use xlink:href="#a"/></mask><use fill="#444F6C" xlink:href="#a"/><g mask="url(#b)"><path d="M74.637 89.757c0 .719-.234 1.314-.702 1.785-.468.472-1.061.708-1.78.708-.718 0-1.312-.236-1.78-.708-.468-.471-.702-1.066-.702-1.785 0-.719.234-1.31.702-1.775.468-.464 1.062-.696 1.78-.696.719 0 1.312.232 1.78.696.468.465.702 1.056.702 1.775zm8.052 0c0 .719-.234 1.314-.701 1.785-.468.472-1.062.708-1.78.708-.72 0-1.313-.236-1.78-.708-.468-.471-.702-1.066-.702-1.785 0-.719.234-1.31.701-1.775.468-.464 1.062-.696 1.78-.696.72 0 1.313.232 1.78.696.468.465.702 1.056.702 1.775zm8.053 0c0 .719-.234 1.314-.702 1.785-.468.472-1.061.708-1.78.708-.719 0-1.312-.236-1.78-.708-.468-.471-.702-1.066-.702-1.785 0-.719.234-1.31.702-1.775.468-.464 1.061-.696 1.78-.696.719 0 1.312.232 1.78.696.468.465.702 1.056.702 1.775zm8.052 0c0 .719-.234 1.314-.702 1.785-.468.472-1.061.708-1.78.708-.719 0-1.312-.236-1.78-.708-.468-.471-.702-1.066-.702-1.785 0-.719.234-1.31.702-1.775.468-.464 1.061-.696 1.78-.696.719 0 1.312.232 1.78.696.468.465.702 1.056.702 1.775zm8.052 0c0 .719-.234 1.314-.702 1.785-.468.472-1.061.708-1.78.708-.718 0-1.312-.236-1.78-.708-.468-.471-.702-1.066-.702-1.785 0-.719.234-1.31.702-1.775.468-.464 1.062-.696 1.78-.696.719 0 1.312.232 1.78.696.468.465.702 1.056.702 1.775zM70 76h50v3H70z" fill="#FFF"/><g transform="translate(75 26)"><ellipse fill="#C4C7CF" cx="20" cy="20" rx="20" ry="20"/><path d="M24 16c0-2.21-1.79-4-4-4s-4 1.79-4 4 1.79 4 4 4 4-1.79 4-4zM12 26v1c0 .552.445 1 1 1h14c.552 0 1-.444 1-1v-1c0-2.66-5.33-4-8-4s-8 1.34-8 4z" fill="#444F6C"/></g></g></g></svg>