<svg width="190" height="113" viewBox="0 0 190 113" xmlns="http://www.w3.org/2000/svg" xmlns:xlink="http://www.w3.org/1999/xlink"><title>6217E441-CB5C-4EC7-999A-F3CE9A0BB60A</title><defs><path id="a" d="M0 0h190v113H0z"/></defs><g fill="none" fill-rule="evenodd"><mask id="b" fill="#fff"><use xlink:href="#a"/></mask><use fill="#444F6C" xlink:href="#a"/><g mask="url(#b)"><g transform="translate(26 -19)"><rect fill="#313C59" transform="rotate(-30 69 81.318)" x="30" y="11" width="78" height="140.636" rx="6"/><rect fill="#FFF" transform="rotate(-30 69.327 81.245)" x="36" y="27" width="66.655" height="108.491" rx="1"/></g><g transform="translate(79 41)" stroke="#7B8397"><ellipse stroke-width="2" cx="16" cy="16" rx="8" ry="8"/><ellipse stroke-width="1.5" opacity=".33" cx="16" cy="16" rx="12" ry="12"/><ellipse opacity=".07" cx="16" cy="16" rx="16" ry="16"/></g><path d="M93.214 52.008a5.518 5.518 0 0 1 4.181.569 5.474 5.474 0 0 1 2.58 3.362l2.546 9.501 10.837-.732c1.785-.14 3.808.427 5.48 1.475 1.559.982 2.856 2.42 3.314 4.131l2.763 10.311a6.154 6.154 0 0 1-.624 4.656c-.784 1.368-2.08 2.44-3.692 2.87l-15.05 3.985c-3.877.75-6.844-1.013-8.776-2.136-3.681-2.102-7.268-4.568-10.839-6.796-2.15-1.402-2.986-3.447-2.875-5.359.076-.792.253-1.563.645-2.248a5.206 5.206 0 0 1 1.599-1.73c1.421-.961 3.475-1.173 5.769.046l2.736 1.438-4.44-16.57a5.474 5.474 0 0 1 .553-4.201c.687-1.198 1.86-2.188 3.293-2.572z" fill="#F5F6F7"/><path d="M97.821 52.93a5.474 5.474 0 0 1 2.58 3.362l2.546 9.5 10.837-.732c1.785-.14 3.808.428 5.48 1.476 1.559.982 2.855 2.42 3.314 4.131l2.763 10.311a6.154 6.154 0 0 1-.624 4.655c-.784 1.369-2.08 2.44-3.692 2.872l-15.05 3.984c-3.877.75-6.844-1.013-8.776-2.137-3.681-2.102-7.268-4.567-10.84-6.795-2.15-1.403-2.986-3.447-2.874-5.359.075-.792.252-1.564.645-2.248a5.206 5.206 0 0 1 1.599-1.731c1.421-.96 3.475-1.173 5.769.046l2.736 1.439-4.44-16.57a5.474 5.474 0 0 1 .553-4.202c.686-1.197 1.86-2.187 3.292-2.571a5.518 5.518 0 0 1 4.182.569zm-4.804 3.555c-.282.558-.393 1.215-.225 1.846l6.274 23.414-8.991-4.734c-1.17-.603-2.068-.555-2.647-.207-.244.162-.42.402-.583.687-.163.285-.225.591-.275.942-.064.838.393 1.825 1.428 2.465l9.885 6.279.853.495c1.534.892 3.92 2.28 6.654 1.74l14.827-3.924c.806-.216 1.425-.768 1.83-1.407.392-.685.5-1.534.295-2.3l-2.763-10.31c-.241-.901-.987-1.715-1.965-2.321-1.092-.673-2.448-1.082-3.616-.962l-13.386.885-3.21-11.977c-.168-.63-.594-1.144-1.117-1.487a2.405 2.405 0 0 0-1.837-.231 2.377 2.377 0 0 0-1.43 1.107z" stroke="#F5F6F7" stroke-width="1.25" fill="#7B8397"/></g></g></svg>