<svg width="190" height="113" viewBox="0 0 190 113" xmlns="http://www.w3.org/2000/svg" xmlns:xlink="http://www.w3.org/1999/xlink"><title>E4FA9FC2-96EE-47A8-B10E-2E93F62EBB17</title><defs><path id="a" d="M0 0h190v113H0z"/></defs><g fill="none" fill-rule="evenodd"><mask id="b" fill="#fff"><use xlink:href="#a"/></mask><use fill="#444F6C" xlink:href="#a"/><g mask="url(#b)"><path d="M77 80.002a6 6 0 1 1 0-12 6 6 0 0 1 0 12zm-6-45.237v-1.838a.971.971 0 0 1 1-.976s1.132.014 2.185.083c24.066 1.577 43.312 20.89 44.788 44.987.06.986.071 1.975.071 1.975a.979.979 0 0 1-.983 1.006h-6.736a1.027 1.027 0 0 1-1.028-.993s-.016-1.095-.096-2.122c-1.507-19.223-16.834-34.564-36.048-36.089a38.604 38.604 0 0 0-2.148-.099A1.04 1.04 0 0 1 71 39.67v-4.904zm0 22.729v-6.6c0-.565.449-.989 1.002-.97 0 0 1.106.021 2.138.128 14.156 1.465 25.392 12.73 26.815 26.902.1 1.002.12 2.046.12 2.046a.958.958 0 0 1-.972 1.002h-6.598a1.045 1.045 0 0 1-1.048-.99s-.024-.977-.154-1.933c-1.29-9.47-8.764-16.994-18.21-18.36a20.996 20.996 0 0 0-2.104-.175 1.059 1.059 0 0 1-.989-1.05z" fill="#C4C7CF"/></g></g></svg>