<?xml version="1.0" standalone="no"?>
<!DOCTYPE svg PUBLIC "-//W3C//DTD SVG 1.1//EN" "http://www.w3.org/Graphics/SVG/1.1/DTD/svg11.dtd" >
<svg xmlns="http://www.w3.org/2000/svg">
<metadata></metadata>
<defs>
<font id="museo_sans500_italic" horiz-adv-x="796" >
<font-face units-per-em="2048" ascent="1536" descent="-512" />
<missing-glyph horiz-adv-x="526" />
<glyph unicode="ff" horiz-adv-x="1372" d="M778 0l170 874h-487l-170 -874h-199l170 874h-129l31 162h129l8 39q13 70 38.5 128t56.5 96.5t70.5 68t76 46t77 26.5t70.5 13t60 3q24 0 46.5 -1.5t33.5 -2.5l10 -2l-37 -170q-16 4 -47 4q-28 0 -54 -4t-59.5 -17.5t-60.5 -35.5t-50 -63.5t-34 -96.5l-6 -31h487l8 39 q13 70 38.5 128t56.5 96.5t70.5 68t76 46t77 26.5t70.5 13t60 3q24 0 46.5 -1.5t33.5 -2.5l10 -2l-37 -170q-16 4 -47 4q-28 0 -54 -4t-59.5 -17.5t-60.5 -35.5t-50 -63.5t-34 -96.5l-6 -31h243l-30 -162h-244l-170 -874h-199z" />
<glyph unicode="fi" horiz-adv-x="1193" d="M721 0l170 874h-430l-170 -874h-199l170 874h-129l31 162h129l8 39q13 70 38.5 128t56.5 96.5t70.5 68t76 46t77 26.5t70.5 13t60 3q24 0 46.5 -1.5t33.5 -2.5l10 -2l-37 -170q-16 4 -47 4q-28 0 -54 -4t-59.5 -17.5t-60.5 -35.5t-50 -63.5t-34 -96.5l-6 -31h630 l-202 -1036h-199zM961 1243l38 203h205l-41 -203h-202z" />
<glyph unicode="fl" horiz-adv-x="1226" d="M92 0l168 864h-129l31 162h129l10 49q13 70 38.5 128t56.5 96.5t70.5 68t76 46t77 26.5t70.5 13t60 3q24 0 46.5 -1.5t33.5 -2.5l10 -2l-37 -170q-16 4 -47 4q-28 0 -54 -4t-59.5 -17.5t-60.5 -35.5t-50 -63.5t-34 -96.5l-9 -41h244l-31 -162h-243l-168 -864h-199z M758 209q0 33 10 88l223 1149h199l-215 -1114q-10 -48 -10 -78q0 -51 25.5 -67.5t66.5 -16.5l33 2l-37 -176q-29 -4 -60 -4q-45 0 -83.5 9.5t-74.5 32.5t-56.5 67.5t-20.5 107.5z" />
<glyph unicode="ffi" horiz-adv-x="1880" d="M92 0l170 874h-129l31 162h129l8 39q13 70 38.5 128t56.5 96.5t70.5 68t76 46t77 26.5t70.5 13t60 3q24 0 46.5 -1.5t33.5 -2.5l10 -2l-37 -170q-16 4 -47 4q-28 0 -54 -4t-59.5 -17.5t-60.5 -35.5t-50 -63.5t-34 -96.5l-6 -31h487l8 39q13 70 38.5 128t56.5 96.5 t70.5 68t76 46t77 26.5t70.5 13t60 3q24 0 46.5 -1.5t33.5 -2.5l10 -2l-37 -170q-16 4 -47 4q-28 0 -54 -4t-59.5 -17.5t-60.5 -35.5t-50 -63.5t-34 -96.5l-6 -31h630l-202 -1036h-199l170 874h-430l-170 -874h-199l170 874h-487l-170 -874h-199zM1647 1243l39 203h204 l-41 -203h-202z" />
<glyph unicode="ffl" horiz-adv-x="1912" d="M778 0l170 874h-487l-170 -874h-199l170 874h-129l31 162h129l8 39q13 70 38.5 128t56.5 96.5t70.5 68t76 46t77 26.5t70.5 13t60 3q24 0 46.5 -1.5t33.5 -2.5l10 -2l-37 -170q-16 4 -47 4q-28 0 -54 -4t-59.5 -17.5t-60.5 -35.5t-50 -63.5t-34 -96.5l-6 -31h487l8 39 q13 70 38.5 128t56.5 96.5t70.5 68t76 46t77 26.5t70.5 13t60 3q24 0 46.5 -1.5t33.5 -2.5l10 -2l-37 -170q-16 4 -47 4q-28 0 -54 -4t-59.5 -17.5t-60.5 -35.5t-50 -63.5t-34 -96.5l-6 -31h243l-30 -162h-244l-170 -874h-199zM1444 209q0 33 10 88l223 1149h199l-215 -1114 q-10 -48 -10 -78q0 -51 25.5 -67.5t66.5 -16.5l33 2l-37 -176q-29 -4 -60 -4q-45 0 -83.5 9.5t-74.5 32.5t-56.5 67.5t-20.5 107.5z" />
<glyph unicode="fj" horiz-adv-x="1193" d="M92 0l170 874h-129l31 162h129l8 39q13 70 38.5 128t56.5 96.5t70.5 68t76 46t77 26.5t70.5 13t60 3q24 0 46.5 -1.5t33.5 -2.5l10 -2l-37 -170q-16 4 -47 4q-28 0 -54 -4t-59.5 -17.5t-60.5 -35.5t-50 -63.5t-34 -96.5l-6 -31h630l-209 -1069q-16 -83 -47 -149t-71 -107 t-82 -69t-89 -41t-82.5 -18t-72.5 -5l-94 4l33 170q18 -2 45 -2t53.5 4t61.5 18t63 37t52.5 66.5t35.5 101.5l172 897h-430l-170 -874h-199zM961 1243l38 203h205l-39 -203h-204z" />
<glyph unicode=" "  horiz-adv-x="526" />
<glyph unicode="&#x09;" horiz-adv-x="526" />
<glyph unicode="&#xa0;" horiz-adv-x="526" />
<glyph unicode="!" horiz-adv-x="643" d="M190 397l191 1049h207l-219 -1049h-179zM100 0l41 201h205l-39 -201h-207z" />
<glyph unicode="&#x22;" horiz-adv-x="694" d="M504 1085l76 385h155l-76 -385h-155zM217 1085l74 385h155l-73 -385h-156z" />
<glyph unicode="#" horiz-adv-x="1462" d="M162 0l143 391h-262l53 152h264l129 344h-262l56 149h260l151 410h170l-151 -410h319l152 410h170l-152 -410h262l-55 -149h-262l-129 -344h262l-55 -152h-262l-144 -391h-170l144 391h-318l-143 -391h-170zM530 543h318l129 344h-318z" />
<glyph unicode="$" horiz-adv-x="1159" d="M27 166l129 143q5 -6 14.5 -15.5t43 -34.5t71 -44.5t97.5 -35t124 -15.5q115 0 206 68.5t91 181.5q0 45 -25 84t-66 66.5t-93.5 57t-107.5 55.5t-107.5 61.5t-93.5 75t-66 97.5t-25 127q0 168 135 290t330 140l37 189h143l-37 -193q61 -8 117 -25t91.5 -36.5t62.5 -37.5 t39 -30l12 -12l-115 -149q-5 4 -13.5 11.5t-38.5 26t-63 33t-84 26t-104 11.5q-125 0 -216 -74.5t-91 -169.5q0 -47 32 -87t83.5 -70.5t114 -60.5t125 -67t114 -81t83.5 -110.5t32 -147.5q0 -112 -60.5 -209.5t-168.5 -159t-240 -68.5l-37 -186h-144l35 193 q-70 10 -133.5 32.5t-104 47t-71 48t-44.5 38.5z" />
<glyph unicode="%" horiz-adv-x="1570" d="M475 864q-124 0 -200 74.5t-76 194.5q0 129 109 233t247 104q124 0 200 -75.5t76 -194.5q0 -131 -110 -233.5t-246 -102.5zM25 0l1366 1446h202l-1366 -1446h-202zM489 1016q71 0 126 53.5t55 126.5q0 55 -35.5 90t-93.5 35q-70 0 -125.5 -55.5t-55.5 -128.5 q0 -53 35 -87t94 -34zM784 244q0 129 109.5 233.5t245.5 104.5q124 0 200 -76t76 -195q0 -131 -109 -233.5t-245 -102.5q-125 0 -201 74t-76 195zM944 248q0 -53 36 -87t95 -34q70 0 125 54t55 126q0 55 -35.5 90t-93.5 35q-70 0 -126 -56t-56 -128z" />
<glyph unicode="&#x26;" horiz-adv-x="1394" d="M63 356q0 139 95.5 260t244.5 162v4q-6 2 -15.5 6.5t-33.5 24t-43 45t-34 71.5t-15 101q0 102 41 186t111 139t161 85t191 30q44 0 91.5 -7t72.5 -14l26 -7l-79 -156q-58 12 -107 12q-124 0 -214.5 -74.5t-90.5 -197.5q0 -176 227 -176h269l38 197h199l-37 -197h191 l-35 -176h-191l-39 -193q-51 -256 -195.5 -381t-369.5 -125q-214 0 -336.5 105t-122.5 276zM276 369q0 -92 66.5 -149.5t183.5 -57.5q144 0 238 80.5t127 246.5l37 185h-277q-98 0 -181 -31.5t-138.5 -102.5t-55.5 -171z" />
<glyph unicode="'" horiz-adv-x="409" d="M217 1085l74 385h160l-76 -385h-158z" />
<glyph unicode="(" horiz-adv-x="612" d="M238 -195q-107 272 -107 549q0 655 424 1151h180q-426 -531 -426 -1155q0 -285 94 -545h-165z" />
<glyph unicode=")" horiz-adv-x="614" d="M72 -195h-181q426 534 426 1156q0 284 -94 544h166q107 -268 107 -549q0 -652 -424 -1151z" />
<glyph unicode="*" horiz-adv-x="948" d="M324 674l-134 108l228 230v4l-258 74l88 167l252 -102l41 291h186l-74 -291l295 102l25 -174l-301 -79l-2 -5l135 -221l-156 -106l-117 243h-4z" />
<glyph unicode="+" horiz-adv-x="1376" d="M487 0l99 504h-459l31 160h456l101 503h168l-101 -503h457l-29 -160h-456l-99 -504h-168z" />
<glyph unicode="," horiz-adv-x="528" d="M-100 -207l209 422h210l-258 -422h-161z" />
<glyph unicode="-" horiz-adv-x="956" d="M156 496l32 176h598l-32 -176h-598z" />
<glyph unicode="." horiz-adv-x="512" d="M35 0l41 215h213l-41 -215h-213z" />
<glyph unicode="/" horiz-adv-x="825" d="M119 -86h-187l832 1610h188z" />
<glyph unicode="0" horiz-adv-x="1288" d="M123 453q0 83 10 173.5t34 190.5t59 192.5t88.5 177t119 147t155 99.5t191.5 37q428 0 428 -477q0 -83 -10 -173.5t-33.5 -190.5t-58.5 -192.5t-88.5 -177.5t-119.5 -147.5t-156 -99.5t-193 -37q-426 0 -426 478zM332 457q0 -295 225 -295q67 0 126 30.5t103 82t80 120.5 t60 144.5t40.5 156t23.5 153t7 136.5q0 143 -52 221t-171 78q-75 0 -140.5 -39t-112.5 -105t-84 -150t-59.5 -178t-34 -183.5t-11.5 -171.5z" />
<glyph unicode="1" horiz-adv-x="995" d="M2 0l31 176h319l180 918l19 88h-4q-23 -33 -84 -84l-158 -129l-106 139l417 338h183l-248 -1270h313l-33 -176h-829z" />
<glyph unicode="2" horiz-adv-x="1171" d="M10 0q1 101 33 190t84.5 156.5t120 127t142.5 108.5t149 94.5t141.5 91.5t119.5 93t82.5 104.5t30.5 121.5q0 89 -59 141t-158 52q-55 0 -109.5 -19t-92.5 -46t-68.5 -54t-45.5 -46l-15 -19l-144 112q8 11 23 28.5t64.5 62.5t103.5 79.5t138 63t169 28.5 q184 0 297.5 -98.5t113.5 -263.5q0 -80 -27 -152.5t-73.5 -129t-106.5 -108.5t-128 -96t-137 -85.5t-134 -83.5t-118 -83.5t-90.5 -91.5t-49.5 -102h707l-33 -176h-930z" />
<glyph unicode="3" horiz-adv-x="1159" d="M-8 172l127 141q4 -6 13 -15.5t39.5 -34.5t66 -44.5t94.5 -35t123 -15.5q138 0 244 92t106 223q0 106 -81.5 160.5t-211.5 54.5h-104l-25 109l379 371q25 24 52 47.5t42 34.5l14 12v4q-42 -6 -122 -6h-478l35 176h864l-26 -129l-477 -459q45 -5 89.5 -18.5t92 -42.5 t83 -68.5t58.5 -101t23 -135.5q0 -100 -42.5 -194t-114.5 -165.5t-176 -114.5t-220 -43q-67 0 -128.5 11t-107 28t-85 38t-65.5 42.5t-45 38.5t-28 28z" />
<glyph unicode="4" horiz-adv-x="1243" d="M20 387l25 127l832 932h249l-174 -887h197l-33 -172h-196l-76 -387h-199l74 387h-699zM295 559h459l102 526q5 30 14 66t15 57l6 21h-4q-47 -66 -94 -119l-498 -549v-2z" />
<glyph unicode="5" horiz-adv-x="1159" d="M16 176l131 137q4 -6 11.5 -15.5t35 -34.5t59.5 -44.5t85.5 -35t112.5 -15.5q92 0 177 44t141 125.5t56 180.5q0 107 -77 173.5t-201 66.5q-64 0 -128.5 -18t-96.5 -36l-33 -18l-115 45l213 715h735l-35 -176h-555l-92 -301l-24 -76h4q82 41 186 41q189 0 309.5 -115 t120.5 -291q0 -151 -82 -279.5t-216 -201t-285 -72.5q-89 0 -167 20.5t-125.5 50.5t-82 59.5t-48.5 50.5z" />
<glyph unicode="6" horiz-adv-x="1228" d="M575 -25q-211 0 -336.5 142.5t-125.5 386.5q0 113 32.5 242t100.5 257.5t160.5 232.5t224.5 169t280 65q84 0 157.5 -15t105.5 -31l32 -15l-92 -166q-86 41 -201 41q-96 0 -183.5 -41.5t-153 -111.5t-114.5 -154t-79 -178h4q56 62 145.5 99.5t178.5 37.5 q184 0 289.5 -109.5t105.5 -287.5q0 -101 -38 -201t-105 -181t-169 -131.5t-219 -50.5zM573 162q140 0 235 108t95 262q0 105 -64.5 168.5t-183.5 63.5q-77 0 -154 -34.5t-130.5 -100.5t-53.5 -144q0 -131 70.5 -227t185.5 -96z" />
<glyph unicode="7" horiz-adv-x="1085" d="M39 0l784 1139q26 37 54 70.5t43 48.5l14 14v4q-33 -6 -105 -6h-632l34 176h967l-27 -139l-907 -1307h-225z" />
<glyph unicode="8" horiz-adv-x="1249" d="M76 369q0 70 29.5 139t66.5 116t88.5 91.5t77.5 62.5t51 33q-123 101 -123 240q0 78 35 153t97.5 134.5t159 95.5t210.5 36q194 0 306 -90.5t112 -249.5q0 -58 -23 -121t-53 -110t-70.5 -93.5t-63 -68.5t-42.5 -39q153 -106 153 -260q0 -123 -72 -229t-199.5 -170 t-280.5 -64q-208 0 -333.5 107.5t-125.5 286.5zM879 436q0 32 -15.5 61.5t-36.5 51t-61.5 47t-69 40.5t-83 42t-81.5 41q-34 -19 -68 -45.5t-77.5 -70t-70.5 -102.5t-27 -122q0 -100 72 -160.5t178 -60.5q85 0 161.5 33t127.5 98t51 147zM471 1053q0 -25 8.5 -49t20.5 -42.5 t34.5 -38t40.5 -32.5t50 -30.5t51.5 -27.5t56 -27.5t53.5 -25.5q26 23 50.5 48.5t61 71.5t59 103t22.5 113q0 80 -59 126t-160 46q-127 0 -208 -68.5t-81 -166.5z" />
<glyph unicode="9" horiz-adv-x="1230" d="M66 37l92 166q87 -41 202 -41q96 0 183 41.5t152.5 111.5t114.5 154t79 178h-4q-45 -55 -135 -95t-187 -40q-186 0 -290.5 108.5t-104.5 286.5q0 102 38.5 202t105.5 180.5t169 130.5t219 50q211 0 336 -142t125 -386q0 -93 -24 -199t-68.5 -214.5t-114.5 -207.5 t-155.5 -176.5t-199 -123.5t-237.5 -46q-84 0 -158 15.5t-106 31.5zM614 682q57 0 116.5 21t109.5 57t82 89.5t32 113.5q0 130 -70 225.5t-186 95.5q-138 0 -233.5 -109t-95.5 -262q0 -105 64 -168t181 -63z" />
<glyph unicode=":" horiz-adv-x="595" d="M231 821l43 215h213l-41 -215h-215zM72 0l41 215h215l-43 -215h-213z" />
<glyph unicode=";" horiz-adv-x="606" d="M252 821l41 215h209l-41 -215h-209zM-74 -207l209 422h211l-256 -422h-164z" />
<glyph unicode="&#x3c;" horiz-adv-x="1171" d="M59 516v135l955 426v-182l-733 -309v-4l733 -310v-182z" />
<glyph unicode="=" horiz-adv-x="1376" d="M190 696v160h977v-160h-977zM190 309v160h977v-160h-977z" />
<glyph unicode="&#x3e;" horiz-adv-x="1165" d="M141 90v182l731 310v4l-731 309v182l955 -426v-135z" />
<glyph unicode="?" horiz-adv-x="989" d="M250 397l18 97q13 66 45.5 124t74.5 100t89.5 81t92.5 74t81.5 71t59 81.5t22.5 96.5q0 73 -53.5 119.5t-142.5 46.5q-60 0 -122.5 -21.5t-94.5 -42.5l-33 -22l-88 154q7 5 19 13t50.5 28.5t79 36t99.5 28.5t116 13q166 0 273.5 -89.5t107.5 -238.5q0 -74 -24 -138.5 t-63.5 -111.5t-87 -88.5t-98 -79t-93.5 -74t-75 -81t-42 -93.5l-19 -84h-192zM168 0l41 201h205l-39 -201h-207z" />
<glyph unicode="@" horiz-adv-x="1658" d="M84 358q0 176 74 341t195.5 285.5t284.5 193.5t333 73q104 0 186 -18t136 -49t89.5 -76t50.5 -96t15 -111q0 -48 -12 -110l-103 -535h146l-29 -150h-537q-175 0 -275.5 95t-100.5 241q0 81 37 160t100.5 139.5t154.5 98t191 37.5h242q4 20 4 32q0 79 -77 128.5t-216 49.5 q-136 0 -264 -61t-221 -160t-149 -230.5t-56 -266.5q0 -205 129.5 -336t351.5 -131l-31 -158q-283 0 -466 174t-183 440zM737 446q0 -83 54 -136.5t145 -53.5h205l94 483h-201q-120 0 -208.5 -88.5t-88.5 -204.5z" />
<glyph unicode="A" horiz-adv-x="1282" d="M119 0h-217l792 1446h226l235 -1446h-203l-63 416h-545zM428 584h440l-71 458l-21 205h-4q-55 -131 -94 -205z" />
<glyph unicode="B" horiz-adv-x="1302" d="M78 0l282 1446h465q123 0 197 -27q93 -34 144 -109.5t51 -179.5q0 -123 -67 -221.5t-177 -144.5v-4q84 -31 131 -106.5t47 -178.5q0 -155 -84.5 -270t-220.5 -168q-93 -37 -213 -37h-555zM442 838h306q110 0 186 77.5t76 192.5q0 75 -46.5 118.5t-134.5 43.5h-301z M315 176h326q76 0 135 29q75 36 120.5 109t45.5 165q0 88 -55 139.5t-152 51.5h-323z" />
<glyph unicode="C" horiz-adv-x="1480" d="M111 602q0 140 45 272.5t126 239t187.5 187.5t235 125t262.5 44q102 0 193.5 -20t149 -48t100 -56t60.5 -48l19 -20l-121 -139q-6 6 -17 15.5t-49 34.5t-80.5 44.5t-110 35t-138.5 15.5q-179 0 -330.5 -94.5t-237.5 -248.5t-86 -329q0 -197 118.5 -323.5t322.5 -126.5 q76 0 153 19t133.5 46.5t102 55t69.5 46.5l23 19l88 -160q-10 -9 -28 -23t-77.5 -51t-123 -65t-159.5 -51t-191 -23q-293 0 -466 174.5t-173 452.5z" />
<glyph unicode="D" horiz-adv-x="1513" d="M80 0l280 1446h447q299 0 469 -148t170 -415q0 -180 -63 -342t-174 -281.5t-271.5 -189.5t-345.5 -70h-512zM315 176h263q142 0 266 53.5t210 145.5t135.5 219.5t49.5 271.5q0 194 -118.5 299t-327.5 105h-265z" />
<glyph unicode="E" horiz-adv-x="1171" d="M78 0l284 1446h838l-35 -176h-637l-88 -453h518l-34 -176h-518l-91 -465h672l-33 -176h-876z" />
<glyph unicode="F" horiz-adv-x="1069" d="M78 0l282 1446h795l-35 -176h-594l-92 -475h504l-33 -177h-506l-120 -618h-201z" />
<glyph unicode="G" horiz-adv-x="1556" d="M111 590q0 176 70 338.5t187 281t277.5 189.5t333.5 71q98 0 187.5 -17.5t147 -43t101 -51t63.5 -42.5l19 -18l-123 -141q-6 5 -17 13.5t-48.5 30.5t-80 39t-109 30.5t-136.5 13.5q-185 0 -338.5 -96.5t-238 -253t-84.5 -334.5q0 -200 120 -319t312 -119q71 0 143.5 19.5 t125 47.5t94.5 56t63 47l22 20l39 199h-233l32 176h420l-141 -727h-176l16 90l15 62h-5q-7 -7 -20 -19t-57.5 -42.5t-93.5 -54t-125 -42.5t-154 -19q-171 0 -309 75.5t-218.5 216.5t-80.5 323z" />
<glyph unicode="H" horiz-adv-x="1546" d="M78 0l282 1446h201l-125 -637h752l125 637h200l-282 -1446h-201l123 635h-752l-122 -635h-201z" />
<glyph unicode="I" horiz-adv-x="595" d="M78 0l282 1446h201l-280 -1446h-203z" />
<glyph unicode="J" horiz-adv-x="1089" d="M10 317q0 56 10 107l13 63h200l-10 -59q-8 -54 -8 -82q0 -184 182 -184q95 0 172 62.5t103 193.5l166 852h-363l35 176h563l-203 -1047q-21 -110 -70 -194t-114.5 -133t-139 -73t-153.5 -24q-77 0 -145 20.5t-122 61t-85 107.5t-31 153z" />
<glyph unicode="K" horiz-adv-x="1275" d="M78 0l282 1446h201l-119 -608h207l492 608h235l-565 -694v-4l299 -748h-215l-258 664h-229l-129 -664h-201z" />
<glyph unicode="L" horiz-adv-x="1071" d="M78 0l282 1446h203l-248 -1270h648l-37 -176h-848z" />
<glyph unicode="M" horiz-adv-x="1771" d="M31 0l395 1446h211l180 -782q8 -36 16.5 -84.5t12.5 -79.5l4 -31h4q62 113 111 195l485 782h217l-166 -1446h-198l108 911q4 39 13.5 92.5t16.5 86.5l7 34h-4q-70 -135 -119 -213l-414 -651h-182l-162 651q-8 35 -17.5 89t-14.5 91l-5 37h-4q-18 -129 -43 -217l-250 -911 h-202z" />
<glyph unicode="N" horiz-adv-x="1536" d="M78 0l282 1446h187l463 -940q16 -34 35.5 -86t30.5 -88l11 -35h5q10 129 26 209l182 940h203l-282 -1446h-187l-463 938q-17 36 -37 88.5t-31 87.5l-11 35h-5q-10 -129 -26 -211l-182 -938h-201z" />
<glyph unicode="O" horiz-adv-x="1677" d="M109 606q0 171 73 332t192.5 276.5t277 185.5t319.5 70q288 0 466.5 -172t178.5 -442q0 -174 -74 -338t-194 -282t-277.5 -189.5t-318.5 -71.5q-190 0 -337 81t-226.5 224.5t-79.5 325.5zM315 614q0 -199 122.5 -325.5t316.5 -126.5q120 0 238.5 54.5t210 145.5t148 219 t56.5 265q0 194 -122.5 316t-315.5 122q-122 0 -241 -53t-210 -142t-147 -214.5t-56 -260.5z" />
<glyph unicode="P" horiz-adv-x="1245" d="M78 0l282 1446h496q138 0 225 -47q86 -44 134.5 -129t48.5 -193q0 -169 -88 -303t-228 -196q-101 -43 -215 -43h-348l-104 -535h-203zM418 711h295q90 0 153 32q86 41 137.5 125t51.5 195q0 99 -61 153t-173 54h-293z" />
<glyph unicode="Q" horiz-adv-x="1699" d="M109 606q0 171 73 332t192.5 276.5t277 185.5t319.5 70q287 0 465 -172t178 -442q0 -178 -71 -334t-197 -280l133 -160l-129 -119l-136 170q-210 -158 -462 -158q-190 0 -337 81t-226.5 224.5t-79.5 325.5zM315 614q0 -200 122 -326t317 -126q180 0 342 114l-140 170 l129 119l138 -174q85 92 133.5 210t48.5 245q0 194 -121.5 316t-314.5 122q-122 0 -241 -53t-210 -142t-147 -214.5t-56 -260.5z" />
<glyph unicode="R" horiz-adv-x="1306" d="M78 0l282 1446h492q127 0 205 -37q87 -40 135.5 -119t48.5 -184q0 -164 -94.5 -298t-253.5 -179v-4q11 -21 27 -66l200 -559h-215l-198 575h-316l-110 -575h-203zM426 752h285q136 0 228.5 89.5t92.5 235.5q0 91 -57 142t-158 51h-291z" />
<glyph unicode="S" horiz-adv-x="1120" d="M6 166l127 143q5 -6 15 -15.5t43.5 -34.5t71.5 -44.5t98 -35t124 -15.5q115 0 205 68.5t90 181.5q0 51 -32 93.5t-83.5 74.5t-113 62.5t-123.5 66.5t-113.5 78.5t-83.5 106.5t-32 142q0 119 69.5 218.5t187.5 156.5t257 57q80 0 152 -15t118 -37t80.5 -43.5t49.5 -36.5 l15 -15l-114 -149q-5 4 -13.5 11.5t-38.5 26t-63 33t-84 26t-104 11.5q-126 0 -218 -74.5t-92 -169.5q0 -47 32.5 -87t84 -70.5t114 -60.5t125 -67t114 -81t84 -110.5t32.5 -147.5q0 -178 -146 -308.5t-360 -130.5q-91 0 -173 19.5t-135 47.5t-92.5 56.5t-56.5 47.5z" />
<glyph unicode="T" horiz-adv-x="1206" d="M379 0l248 1270h-496l33 176h1194l-33 -176h-498l-245 -1270h-203z" />
<glyph unicode="U" horiz-adv-x="1488" d="M147 403q0 50 13 117l180 926h201l-181 -932q-8 -39 -8 -86q0 -127 80 -196.5t225 -69.5q169 0 286 94.5t149 261.5l182 928h201l-185 -944q-47 -242 -218.5 -384.5t-418.5 -142.5q-225 0 -365.5 114t-140.5 314z" />
<glyph unicode="V" horiz-adv-x="1290" d="M412 0l-246 1446h211l160 -1022q5 -35 9 -84.5t6 -81.5l1 -33h4q53 121 94 199l559 1022h228l-809 -1446h-217z" />
<glyph unicode="W" horiz-adv-x="1951" d="M322 0l-97 1446h207l53 -1061q2 -35 2 -73.5t-1 -59.5l-1 -21h4q27 74 64 154l500 1061h184l63 -1061q2 -32 2 -70.5t-1 -60.5l-1 -23h5q26 78 59 154l461 1061h221l-651 -1446h-238l-63 938q-3 40 -3 91.5t1 82.5l2 31h-4q-43 -111 -86 -203l-449 -940h-233z" />
<glyph unicode="X" horiz-adv-x="1239" d="M-74 0l598 754l-291 692h220l153 -385l62 -172h4q56 88 119 168l303 389h239l-571 -709l317 -737h-215l-182 438q-15 36 -29.5 77.5t-22.5 64.5l-7 24h-5q-55 -82 -116 -162l-346 -442h-230z" />
<glyph unicode="Y" horiz-adv-x="1185" d="M362 0l121 612l-319 834h217l174 -475q13 -36 26 -81.5t20 -73.5l7 -28h4q62 99 123 181l355 477h243l-651 -840l-119 -606h-201z" />
<glyph unicode="Z" horiz-adv-x="1232" d="M-37 0l27 135l874 1004q32 36 65 69.5t49 48.5l17 15v4q-36 -6 -106 -6h-643l35 176h1013l-26 -133l-877 -1006q-32 -36 -64.5 -69t-49.5 -48l-17 -14v-4q37 4 107 4h686l-33 -176h-1057z" />
<glyph unicode="[" horiz-adv-x="612" d="M248 -43h166l-31 -152h-340l332 1700h340l-31 -149h-166z" />
<glyph unicode="\" horiz-adv-x="806" d="M436 -86l-207 1610h168l207 -1610h-168z" />
<glyph unicode="]" horiz-adv-x="602" d="M-63 -43h163l271 1399h-164l29 149h339l-329 -1700h-340z" />
<glyph unicode="^" horiz-adv-x="1255" d="M23 506l409 940h129l408 -940h-178l-295 721l-293 -721h-180z" />
<glyph unicode="_" horiz-adv-x="1204" d="M-68 0h1102l-30 -160h-1100z" />
<glyph unicode="`" horiz-adv-x="1021" d="M391 1546l-143 260h205l96 -260h-158z" />
<glyph unicode="a" horiz-adv-x="1073" d="M0 238q0 81 31 146.5t86 109t122 74.5t148 47.5t154 24t149 7.5h51q9 46 9 84q0 162 -187 162q-71 0 -148.5 -24.5t-118.5 -48.5l-42 -25l-53 157q7 4 20 11.5t54.5 26.5t84.5 33t107 26t125 12q77 0 140.5 -17t113.5 -52.5t78 -96t28 -141.5q0 -56 -12 -115l-125 -639 h-184l20 104q4 21 9 41.5t9 30.5t5 10h-4q2 0 -13 -21.5t-45.5 -53t-72 -62.5t-103 -52.5t-127.5 -21.5q-129 0 -219 71t-90 192zM203 270q0 -58 42 -96.5t124 -38.5q117 0 213.5 101.5t126.5 226.5l8 35h-51q-45 0 -85.5 -2.5t-98 -9.5t-103 -23t-87.5 -40t-65.5 -63.5 t-23.5 -89.5z" />
<glyph unicode="b" horiz-adv-x="1226" d="M35 0l280 1446h199l-90 -469q-4 -22 -11 -45.5t-11 -35.5l-5 -13h4q57 79 150 128.5t194 49.5q184 0 287 -114.5t103 -311.5q0 -142 -48 -267t-127.5 -210t-182 -134t-210.5 -49t-193 49t-122 140h-4q0 -39 -8 -84l-17 -80h-188zM317 410q0 -115 58.5 -189t173.5 -74 q68 0 135.5 33t123 92t90 150.5t34.5 198.5q0 124 -62.5 195t-171.5 71q-105 0 -193.5 -67.5t-138 -177t-49.5 -232.5z" />
<glyph unicode="c" horiz-adv-x="1118" d="M53 426q0 172 88 319t235 231.5t316 84.5q76 0 144.5 -15.5t111.5 -37.5t75 -44t46 -38l14 -15l-110 -129l-11.5 11.5t-34 26t-56 32.5t-75.5 25.5t-94 11.5q-115 0 -218 -59.5t-165.5 -163.5t-62.5 -226q0 -130 83 -211.5t220 -81.5q54 0 109.5 14.5t96.5 35t74.5 41 t50.5 34.5l17 15l56 -158q-7 -6 -20 -16.5t-55.5 -37t-88.5 -47t-116.5 -37t-141.5 -16.5q-222 0 -355 125t-133 326z" />
<glyph unicode="d" horiz-adv-x="1228" d="M55 399q0 143 47.5 268.5t127 210.5t183.5 134t216 49q101 0 184.5 -44.5t118.5 -129.5h4q0 39 8 76l94 483h199l-281 -1446h-190l20 98q3 18 7.5 37t8.5 29l3 10h-4q-57 -86 -150 -142.5t-205 -56.5q-185 0 -288 114t-103 310zM258 414q0 -124 63.5 -195.5t172.5 -71.5 q105 0 193 70t136.5 179.5t48.5 228.5q0 115 -58 188.5t-173 73.5q-68 0 -135.5 -33t-123 -91.5t-90 -150t-34.5 -198.5z" />
<glyph unicode="e" horiz-adv-x="1128" d="M55 418q0 171 77 318t216 236t309 89q194 0 295 -104.5t101 -278.5q0 -37 -8.5 -84.5t-16.5 -75.5l-8 -29h-756q-6 -30 -6 -61q0 -121 77 -201t218 -80q79 0 161.5 30.5t125.5 60.5l43 30l57 -157q-7 -6 -20 -15t-54.5 -32.5t-85.5 -41.5t-108.5 -32.5t-126.5 -14.5 q-224 0 -357 123.5t-133 319.5zM297 639h553q4 22 4 55q0 101 -55 155t-146 54q-115 0 -212 -71t-144 -193z" />
<glyph unicode="f" horiz-adv-x="686" d="M92 0l168 864h-129l31 162h129l10 49q13 70 38.5 128t56.5 96.5t70.5 68t76 46t77 26.5t70.5 13t60 3q24 0 46.5 -1.5t33.5 -2.5l10 -2l-37 -170q-16 4 -47 4q-28 0 -54 -4t-59.5 -17.5t-60.5 -35.5t-50 -63.5t-34 -96.5l-9 -41h244l-31 -162h-243l-168 -864h-199z" />
<glyph unicode="g" horiz-adv-x="1210" d="M84 -190q13 -8 36 -19t95 -30t145 -19q144 0 249 71.5t134 219.5l17 76l18 71h-2q-124 -168 -319 -168q-187 0 -291.5 115.5t-104.5 304.5q0 88 22.5 176.5t69 170t110.5 144.5t153.5 100.5t191.5 37.5q69 0 127.5 -14t111.5 -52.5t77 -97.5h4q0 23 4 43l18 96h189 l-195 -1007q-25 -123 -83 -215t-138 -143.5t-167.5 -76t-184.5 -24.5q-210 0 -373 92zM264 446q0 -122 62.5 -192t179.5 -70q69 0 128.5 30t100.5 79.5t70.5 112.5t43 129.5t13.5 130.5q0 223 -237 223q-111 0 -195 -66t-125 -165.5t-41 -211.5z" />
<glyph unicode="h" horiz-adv-x="1230" d="M35 0l280 1446h199l-102 -531l-23 -92h4q49 88 164 163t254 75q144 0 224.5 -69t80.5 -206q0 -56 -16 -131l-127 -655h-199l119 612q14 75 14 117q0 75 -40.5 112.5t-112.5 37.5q-152 0 -274.5 -119.5t-153.5 -286.5l-93 -473h-198z" />
<glyph unicode="i" horiz-adv-x="507" d="M274 1243l39 203h205l-41 -203h-203zM35 0l203 1036h198l-203 -1036h-198z" />
<glyph unicode="j" horiz-adv-x="507" d="M274 1243l39 203h205l-39 -203h-205zM33 -23l205 1059h198l-209 -1069q-16 -83 -47 -149t-71 -107t-82 -69t-89 -41t-82.5 -18t-72.5 -5l-94 4l32 170q19 -2 46 -2t53.5 4t61.5 18t63 37t52.5 66.5t35.5 101.5z" />
<glyph unicode="k" horiz-adv-x="1073" d="M35 0l282 1446h199l-156 -789h142l358 379h240l-443 -465v-4l269 -567h-215l-219 485h-164l-95 -485h-198z" />
<glyph unicode="l" horiz-adv-x="540" d="M72 209q0 33 10 88l223 1149h199l-215 -1114q-10 -48 -10 -78q0 -51 25.5 -67.5t66.5 -16.5l32 2l-36 -176q-29 -4 -60 -4q-45 0 -83.5 9.5t-74.5 32.5t-56.5 67.5t-20.5 107.5z" />
<glyph unicode="m" horiz-adv-x="1867" d="M37 0l201 1036h194l-26 -133q-4 -18 -10 -39.5t-10 -33.5l-5 -13h4q59 100 167 172t230 72q131 0 196.5 -59.5t76.5 -176.5h4q61 101 171 168.5t232 67.5q140 0 215.5 -69.5t75.5 -205.5q0 -57 -16 -139l-125 -647h-199l121 616q12 67 12 113q0 73 -33.5 112.5 t-113.5 39.5q-93 0 -176 -62t-135 -153t-72 -193l-92 -473h-197l119 616q12 67 12 117q0 70 -32 109t-111 39q-135 0 -245.5 -124t-141.5 -286l-92 -471h-199z" />
<glyph unicode="n" horiz-adv-x="1232" d="M37 0l201 1036h194l-22 -121q-4 -22 -11.5 -46.5t-12.5 -38.5l-5 -13h4q48 90 167 167t261 77t222.5 -69t80.5 -206q0 -49 -14 -131l-127 -655h-199l119 612q14 75 14 117q0 75 -40.5 112.5t-112.5 37.5q-153 0 -275 -119.5t-155 -286.5l-90 -473h-199z" />
<glyph unicode="o" horiz-adv-x="1273" d="M53 432q0 130 54.5 248t143.5 200.5t205.5 131.5t237.5 49q217 0 354.5 -126t137.5 -327q0 -174 -93.5 -321.5t-240 -229.5t-305.5 -82q-218 0 -356 127.5t-138 329.5zM256 440q0 -130 82 -211.5t211 -81.5q107 0 206.5 58.5t163.5 163.5t64 229q0 129 -81.5 210 t-209.5 81q-109 0 -209 -58.5t-163.5 -163t-63.5 -227.5z" />
<glyph unicode="p" horiz-adv-x="1226" d="M246 59l-90 -469h-199l281 1446h184l-16 -88q-4 -18 -9.5 -38.5t-9.5 -31.5l-4 -12h4q57 87 151 141t210 54q184 0 286.5 -114.5t102.5 -311.5q0 -142 -48 -267t-127 -210t-180.5 -134t-208.5 -49q-106 0 -189 46.5t-120 134.5h-4q-4 -44 -14 -97zM319 414 q0 -116 59.5 -191.5t172.5 -75.5q68 0 136 33t123 92t89.5 150.5t34.5 198.5q0 124 -62.5 195t-171.5 71q-103 0 -192 -67.5t-139 -176.5t-50 -229z" />
<glyph unicode="q" horiz-adv-x="1228" d="M55 397q0 144 48 269.5t127.5 211t183.5 134.5t215 49t192 -46.5t117 -133.5h4q2 30 10 71l15 84h190l-280 -1446h-199l90 473q4 24 11 48t11 37l5 12h-4q-49 -76 -139.5 -130.5t-207.5 -54.5q-184 0 -286.5 114t-102.5 308zM258 414q0 -124 63.5 -195.5t172.5 -71.5 q104 0 192 70t137 179.5t49 228.5q0 115 -58 188.5t-173 73.5q-68 0 -135.5 -33t-123 -91.5t-90 -150t-34.5 -198.5z" />
<glyph unicode="r" horiz-adv-x="765" d="M37 0l201 1036h192l-37 -180l-20 -84h2q56 118 157 197.5t218 79.5q31 0 61 -5l-39 -196q-21 6 -55 6q-92 0 -179 -69t-147 -177.5t-84 -230.5l-71 -377h-199z" />
<glyph unicode="s" horiz-adv-x="909" d="M-23 125l109 131q4 -5 12 -12.5t36 -27t58.5 -34.5t79.5 -27t101 -12q80 0 144.5 41.5t64.5 112.5q0 32 -25 58.5t-65 46.5t-89 41t-97.5 47t-88.5 58.5t-65 82t-25 110.5q0 97 59 172t148 111.5t190 36.5q64 0 122 -12t95.5 -29t66 -33.5t41.5 -28.5l13 -12l-98 -137 q-3 3 -9.5 9t-28.5 20.5t-48 25.5t-68 20t-88 9q-78 0 -142.5 -38.5t-64.5 -111.5q0 -32 25 -58.5t65.5 -46.5t89.5 -41t97.5 -47.5t89 -59t65.5 -82t25 -111.5q0 -140 -115.5 -231t-283.5 -91q-72 0 -139 15.5t-111.5 37.5t-79 44t-50.5 38z" />
<glyph unicode="t" horiz-adv-x="722" d="M143 295q0 41 13 104l90 465h-135l30 162h140l59 295h192l-59 -295h250l-31 -162h-250l-86 -452q-8 -41 -8 -82q0 -162 170 -162l60 4l-35 -176q-33 -4 -66 -4q-52 0 -96.5 7.5t-89.5 28.5t-77 54t-51.5 87.5t-19.5 125.5z" />
<glyph unicode="u" horiz-adv-x="1220" d="M80 250q0 49 14 131l127 655h199l-119 -610q-12 -68 -12 -119q0 -72 35 -109.5t120 -37.5q100 0 189.5 59.5t147 151t77.5 194.5l92 471h199l-201 -1036h-194l24 121q4 22 11 46.5l11 38.5l5 13h-4q-23 -40 -61 -80.5t-91 -78.5t-123.5 -61.5t-144.5 -23.5 q-63 0 -115.5 15t-95 46.5t-66.5 86t-24 127.5z" />
<glyph unicode="v" horiz-adv-x="1009" d="M270 0l-184 1036h197l112 -704l11 -142h4q34 85 65 142l387 704h213l-586 -1036h-219z" />
<glyph unicode="w" horiz-adv-x="1658" d="M246 0l-131 1036h198l74 -731q3 -23 4 -50.5t1 -43.5l-1 -16h4q24 59 49 110l365 729h184l80 -729l6 -110h4q20 57 47 110l361 731h213l-535 -1036h-219l-86 670l-6 110h-4q-24 -57 -51 -110l-342 -670h-215z" />
<glyph unicode="x" horiz-adv-x="1032" d="M-76 0l465 539l-250 497h213l144 -309l22 -65h4q23 34 43 61l254 313h236l-439 -512l261 -524h-209l-160 340l-25 61h-4q-19 -32 -39 -57l-282 -344h-234z" />
<glyph unicode="y" horiz-adv-x="1042" d="M-96 -221q42 -37 112 -37q130 0 220 149l75 123l-237 1022h207l139 -700l16 -123h2q31 68 60 119l389 704h223l-727 -1226q-70 -119 -163.5 -179.5t-194.5 -60.5q-56 0 -109.5 17t-78.5 34l-25 17z" />
<glyph unicode="z" horiz-adv-x="1046" d="M-41 0l21 115l641 655q24 24 49.5 48t39.5 36l13 12v4q-30 -4 -98 -4h-478l33 170h852l-20 -114l-643 -658q-24 -24 -50 -47.5t-41 -34.5l-14 -12v-4q33 4 101 4h516l-33 -170h-889z" />
<glyph unicode="{" horiz-adv-x="714" d="M174 66q0 48 12 104l35 184q6 34 6 60q0 43 -14 75.5t-34.5 48.5t-40.5 26t-34 12l-14 2l35 176q7 1 19 3t44.5 16t60 36t55 67t38.5 105l37 184q13 67 36.5 121t50 89t61.5 61t65.5 39.5t67.5 21.5t62.5 10t55.5 2q11 0 22 -0.5t17.5 -1t7.5 -0.5l-30 -151h-27 q-19 0 -37.5 -2.5t-48 -15t-53 -34t-46 -63.5t-34.5 -100l-45 -226q-11 -57 -37.5 -104t-56 -72t-58 -42.5t-46.5 -22.5l-19 -6v-4q5 -2 13.5 -6.5t29.5 -22t37 -39t29.5 -60t13.5 -83.5q0 -20 -7 -60l-45 -223q-8 -40 -8 -72q0 -38 11.5 -66t27 -42t37.5 -22.5t37.5 -10.5 t32.5 -2h28l-30 -152q-21 -4 -50 -4q-26 0 -55.5 4.5t-69.5 21.5t-70.5 44.5t-52.5 78.5t-22 118z" />
<glyph unicode="|" horiz-adv-x="651" d="M244 -326v1948h174v-1948h-174z" />
<glyph unicode="}" horiz-adv-x="706" d="M-45 -45q21 0 39.5 2.5t48.5 15t53.5 34t46 63.5t33.5 100l47 244q11 59 38 107t56.5 74t57.5 44t47 23l18 6v4q-5 2 -13 6t-29 21t-37 38t-29 58.5t-13 81.5q0 21 7 61l39 203q8 36 8 71q0 38 -11.5 66t-27 42.5t-37.5 23t-37.5 10.5t-32.5 2h-26l28 151q23 4 50 4 q26 0 55.5 -4.5t70 -21.5t71.5 -44t53 -78t22 -118q0 -30 -12 -104l-31 -164q-6 -35 -6 -59q0 -43 14 -76t34 -49t39.5 -25.5t33.5 -11.5l14 -2l-33 -176q-4 0 -10.5 -1t-25.5 -7t-37.5 -14.5t-42 -26.5t-42.5 -40.5t-36 -59t-25 -79.5l-39 -205q-17 -92 -54.5 -159.5 t-78.5 -102.5t-95 -55t-91.5 -24.5t-81.5 -4.5l-45 4l28 152h27z" />
<glyph unicode="~" horiz-adv-x="1210" d="M113 418q0 174 74.5 260t211.5 86q50 0 93 -15t70.5 -37t55.5 -48.5t50.5 -48.5t54.5 -37t68 -15q39 0 67 17.5t42.5 47t21 61.5t6.5 67h162q0 -175 -74.5 -260.5t-210.5 -85.5q-59 0 -107.5 20.5t-80 49.5t-60.5 58t-65.5 49.5t-79.5 20.5q-50 0 -82.5 -31t-44 -71.5 t-11.5 -87.5h-161z" />
<glyph unicode="&#xa1;" horiz-adv-x="585" d="M231 836l41 200h207l-41 -200h-207zM-8 -410l219 1049h178l-190 -1049h-207z" />
<glyph unicode="&#xa2;" horiz-adv-x="1181" d="M418 -27l35 181q-154 31 -245 148.5t-91 299.5q0 129 43.5 251.5t118 217t178.5 156.5t219 73l33 170h145l-35 -178q77 -14 138.5 -51.5t94 -80.5t54 -84t27.5 -68l6 -27l-181 -68q-1 8 -4.5 21.5t-20 48.5t-40 61.5t-69.5 48t-105 21.5q-112 0 -203.5 -70.5 t-142.5 -187.5t-51 -254q0 -125 62.5 -196.5t182.5 -71.5q57 0 111 20.5t90 49.5t63.5 58t40.5 50l13 20l176 -73q-3 -6 -9.5 -16.5t-29 -41t-48.5 -59t-67 -64t-85.5 -62t-104 -46.5t-121.5 -25l-33 -172h-145z" />
<glyph unicode="&#xa3;" horiz-adv-x="1193" d="M152 653l28 144h90l58 293q31 164 168.5 272t320.5 108q62 0 119.5 -14.5t96 -35t68 -40.5t43.5 -34l13 -15l-133 -127q-3 3 -9.5 8.5t-27 20t-43.5 25t-58.5 19.5t-72.5 9q-111 0 -189 -62.5t-96 -156.5l-53 -270h379l-29 -144h-379l-92 -477h668l-35 -176h-993l35 176 h121l92 477h-90z" />
<glyph unicode="&#xa5;" horiz-adv-x="1239" d="M393 0l80 408h-334l25 129h334l16 75l-37 99h-278l24 129h211l-221 606h221l154 -451q15 -42 28.5 -94t19.5 -83l7 -32h4q57 113 125 207l328 453h241l-456 -606h209l-27 -129h-276l-72 -99l-17 -75h332l-24 -129h-332l-80 -408h-205z" />
<glyph unicode="&#xa7;" horiz-adv-x="894" d="M207 227l14 799q2 89 30 168t80 141t134 98.5t182 36.5q52 0 101.5 -11.5t82.5 -27.5t59 -32t38 -27l12 -12l-109 -119q-8 7 -22.5 17.5t-62.5 28.5t-99 18q-125 0 -193.5 -80.5t-70.5 -208.5l-14 -789h-162zM86 104q8 -7 22.5 -17.5t63 -28t100.5 -17.5q124 0 192.5 80 t70.5 207l14 788h162l-15 -797q-2 -90 -30.5 -169.5t-81 -141.5t-133.5 -98.5t-181 -36.5q-52 0 -101.5 11.5t-82.5 27.5t-59 32.5t-38 27.5l-12 12z" />
<glyph unicode="&#xa8;" horiz-adv-x="1021" d="M475 1599l39 207h164l-41 -207h-162zM131 1599l41 207h164l-41 -207h-164z" />
<glyph unicode="&#xa9;" horiz-adv-x="1697" d="M137 723q0 153 57.5 291.5t154.5 238.5t231.5 158.5t283.5 58.5q201 0 369.5 -99.5t266 -271t97.5 -376.5q0 -153 -57.5 -292t-155.5 -238.5t-234 -158.5t-286 -59q-149 0 -283.5 59t-231.5 158.5t-154.5 238.5t-57.5 292zM287 723q0 -126 44.5 -239t121.5 -194t184 -128 t227 -47q97 0 187 30t161.5 85.5t124.5 130.5t82 168t29 194t-29 194t-82 168t-124.5 130.5t-161.5 85.5t-187 30q-120 0 -227 -47t-184 -128t-121.5 -194t-44.5 -239zM475 721q0 108 48.5 201t142 150.5t213.5 57.5q66 0 124.5 -21t95 -50.5t63.5 -59t38 -50.5l12 -21 l-125 -68q-3 5 -8.5 14t-24.5 31t-40.5 39t-56.5 31t-72 14q-117 0 -185.5 -78.5t-68.5 -189.5q0 -114 67 -191t187 -77q38 0 72.5 13.5t57 32.5t40 37.5t25.5 31.5l7 14l125 -68q-4 -8 -12 -22t-37.5 -49t-64.5 -61.5t-94 -48.5t-125 -22q-180 0 -292 120.5t-112 289.5z " />
<glyph unicode="&#xaa;" horiz-adv-x="856" d="M403 782q-76 0 -133 46t-57 128q0 50 18.5 90t46.5 65.5t69 44.5t77.5 28t81.5 14.5t71 6.5t56 1h35q6 34 6 51q0 43 -28.5 67t-80.5 24q-40 0 -86 -14t-72 -28l-26 -14l-41 105q4 3 12 7.5t34.5 16.5t55 21t71 16.5t85.5 7.5q223 0 223 -198q0 -38 -10 -86l-76 -385 h-139l18 94h-4q-3 -4 -9 -11.5t-25.5 -26.5t-42 -33t-58 -26t-72.5 -12zM455 903q65 0 120.5 60.5t67.5 119.5l4 19h-24q-256 0 -256 -129q0 -31 22.5 -50.5t65.5 -19.5zM131 543l23 116h563l-25 -116h-561z" />
<glyph unicode="&#xab;" horiz-adv-x="1134" d="M748 158l-265 424l424 417h213l-446 -430l262 -411h-188zM340 158l-264 424l391 417h209l-410 -430l262 -411h-188z" />
<glyph unicode="&#xac;" horiz-adv-x="1290" d="M143 696v160h977v-547h-166v387h-811z" />
<glyph unicode="&#xad;" horiz-adv-x="882" d="M6 496l33 176h598l-33 -176h-598z" />
<glyph unicode="&#xae;" horiz-adv-x="1697" d="M137 723q0 153 57.5 291.5t154.5 238.5t231.5 158.5t283.5 58.5q201 0 369.5 -99.5t266 -271t97.5 -376.5q0 -153 -57.5 -292t-155.5 -238.5t-234 -158.5t-286 -59q-149 0 -283.5 59t-231.5 158.5t-154.5 238.5t-57.5 292zM287 723q0 -126 44.5 -239t121.5 -194t184 -128 t227 -47q97 0 187 30t161.5 85.5t124.5 130.5t82 168t29 194t-29 194t-82 168t-124.5 130.5t-161.5 85.5t-187 30q-120 0 -227 -47t-184 -128t-121.5 -194t-44.5 -239zM614 340v772h297q109 0 176.5 -64t67.5 -171q0 -82 -43.5 -136.5t-97.5 -68.5v-4q8 -8 26 -43l148 -285 h-160l-143 299h-125v-299h-146zM760 745h123q57 0 91 35.5t34 96.5q0 59 -33.5 91.5t-91.5 32.5h-123v-256z" />
<glyph unicode="&#xaf;" horiz-adv-x="1021" d="M131 1606l27 143h520l-27 -143h-520z" />
<glyph unicode="&#xb0;" horiz-adv-x="792" d="M467 864q-124 0 -202.5 75t-78.5 191q0 132 108 236t241 104q123 0 201.5 -75.5t78.5 -190.5q0 -134 -108.5 -237t-239.5 -103zM475 1016q70 0 125 53.5t55 124.5q0 56 -35.5 91.5t-93.5 35.5q-71 0 -125.5 -55t-54.5 -127q0 -55 35 -89t94 -34z" />
<glyph unicode="&#xb1;" horiz-adv-x="1433" d="M145 504v160h459v503h168v-503h457v-160h-457v-504h-168v504h-459zM178 -195h1018v-159h-1018v159z" />
<glyph unicode="&#xb2;" d="M-8 866q2 87 33.5 158.5t80.5 119.5t108 88.5t117.5 73.5t107 65.5t78.5 73.5t30 89q0 46 -34 76t-89 30q-45 0 -93.5 -24.5t-74.5 -49.5l-25 -24l-90 100q5 6 14.5 15.5t40 33.5t63 42.5t80.5 33.5t95 15q120 0 196.5 -64.5t76.5 -171.5q0 -65 -25.5 -119.5t-67.5 -93.5 t-93.5 -72.5t-105 -62.5t-100 -57.5t-82 -64.5t-47.5 -75h430l-26 -135h-598z" />
<glyph unicode="&#xb3;" d="M313 846q-56 0 -108 14t-86 34t-60.5 39.5t-38.5 33.5l-12 14l96 100q3 -4 8.5 -10t25.5 -22.5t42.5 -29t59 -22.5t75.5 -10q77 0 135 52t58 128q0 56 -46 88.5t-110 32.5h-69l-25 78l221 211l60 49v4q-39 -6 -74 -6h-283l25 137h557l-19 -98l-274 -258q35 -6 67.5 -23 t62 -44.5t47.5 -71t18 -97.5q0 -126 -101.5 -224.5t-251.5 -98.5z" />
<glyph unicode="&#xb4;" horiz-adv-x="1021" d="M186 1546l201 260h223l-245 -260h-179z" />
<glyph unicode="&#xb6;" horiz-adv-x="1210" d="M434 -102l115 596q-161 0 -281.5 119t-120.5 296q0 107 48.5 207t127 172t180.5 115t206 43h581l-33 -176h-403l-266 -1372h-154zM715 -102l241 1255h154l-244 -1255h-151z" />
<glyph unicode="&#xb7;" horiz-adv-x="552" d="M147 485l41 215h207l-41 -215h-207z" />
<glyph unicode="&#xb8;" horiz-adv-x="1021" d="M207 -293q39 -12 84 -12q44 0 77 18t33 56q0 53 -96 53l-37 -2l103 227l96 -20l-2 -17l-47 -112q50 -9 86.5 -43t36.5 -91q0 -39 -15 -71.5t-39 -54t-55 -36t-63 -20.5t-64 -6t-62.5 3.5t-44.5 6.5l-14 4z" />
<glyph unicode="&#xb9;" d="M43 866l25 135h190l96 500l17 53h-4q-12 -16 -45 -45l-82 -65l-78 106l260 211h137l-147 -760h188l-27 -135h-530z" />
<glyph unicode="&#xba;" horiz-adv-x="950" d="M522 786q-134 0 -219.5 79.5t-85.5 205.5q0 108 58.5 200.5t151.5 144.5t194 52q135 0 221 -80t86 -206q0 -82 -35 -156.5t-92 -126.5t-130.5 -82.5t-148.5 -30.5zM532 918q94 0 170 74.5t76 181.5q0 72 -46 117.5t-118 45.5q-96 0 -171.5 -74.5t-75.5 -179.5 q0 -75 45.5 -120t119.5 -45zM141 543l23 116h641l-23 -116h-641z" />
<glyph unicode="&#xbb;" horiz-adv-x="1134" d="M446 158l410 430l-262 411h188l265 -424l-392 -417h-209zM2 158l447 430l-263 411h189l264 -424l-426 -417h-211z" />
<glyph unicode="&#xbc;" horiz-adv-x="1966" d="M573 0h-163l966 1446h164zM104 551l25 135h190l97 500l16 53h-4q-12 -16 -45 -45l-82 -66l-78 107l260 211h138l-148 -760h189l-27 -135h-531zM1473 0l43 219h-429l19 103l516 573h176l-106 -541h127l-25 -135h-127l-43 -219h-151zM1290 354h250l49 252q4 24 12 53.5 t13 47.5l6 18h-4q-37 -55 -78 -98l-248 -269v-4z" />
<glyph unicode="&#xbd;" horiz-adv-x="1947" d="M578 0h-164l966 1446h164zM104 551l25 135h190l97 500l16 53h-4q-12 -16 -45 -45l-82 -66l-78 107l260 211h138l-148 -760h189l-27 -135h-531zM1112 0q2 87 33.5 158.5t80.5 119.5t108 88.5t117.5 73.5t107 65.5t78.5 73.5t30 89q0 46 -34 76t-89 30q-45 0 -93 -24.5 t-73 -49.5l-26 -24l-90 100q5 6 14.5 15t40 33t62.5 42.5t80 33.5t95 15q120 0 196.5 -64t76.5 -171q0 -65 -25.5 -119.5t-67.5 -93.5t-93 -72.5t-104.5 -62.5t-100 -57.5t-82 -64.5t-47.5 -75h430l-27 -135h-598z" />
<glyph unicode="&#xbe;" horiz-adv-x="1984" d="M592 0h-164l967 1446h164zM1491 0l43 219h-428l18 103l516 573h177l-107 -541h127l-25 -135h-126l-44 -219h-151zM1309 354h250l49 252l30 119h-4q-37 -55 -78 -98l-247 -269v-4zM389 530q-56 0 -108 14t-86 34t-60.5 40t-38.5 34l-12 14l96 100q3 -4 8.5 -10t25.5 -22.5 t42.5 -29t59 -22.5t75.5 -10q77 0 135 52t58 128q0 56 -46 88.5t-110 32.5h-70l-24 78l221 211l59 49v4q-38 -6 -73 -6h-283l25 137h557l-19 -98l-274 -258q76 -14 135 -73.5t59 -162.5q0 -127 -101 -225.5t-251 -98.5z" />
<glyph unicode="&#xbf;" horiz-adv-x="923" d="M477 836l41 200h205l-39 -200h-207zM-51 -102q0 74 24 137.5t63.5 110.5t87 88.5t98 79t93.5 74t75 81.5t42 94l17 76h194l-18 -88q-13 -67 -46 -125.5t-75 -100.5t-89.5 -81t-92.5 -74t-81.5 -71t-58.5 -81t-22 -96q0 -73 53.5 -120.5t142.5 -47.5q60 0 122.5 22 t95.5 44l32 22l88 -153q-7 -5 -19 -13t-50.5 -28.5t-79 -36t-99.5 -28.5t-116 -13q-166 0 -273.5 89.5t-107.5 238.5z" />
<glyph unicode="&#xc0;" horiz-adv-x="1282" d="M119 0h-217l792 1446h226l235 -1446h-203l-63 416h-545zM428 584h440l-71 458l-21 205h-4q-55 -131 -94 -205zM741 1546l-143 260h205l96 -260h-158z" />
<glyph unicode="&#xc1;" horiz-adv-x="1282" d="M119 0h-217l792 1446h226l235 -1446h-203l-63 416h-545zM428 584h440l-71 458l-21 205h-4q-55 -131 -94 -205zM733 1546l201 260h223l-246 -260h-178z" />
<glyph unicode="&#xc2;" horiz-adv-x="1282" d="M119 0h-217l792 1446h226l235 -1446h-203l-63 416h-545zM428 584h440l-71 458l-21 205h-4q-55 -131 -94 -205zM537 1546l231 260h207l129 -260h-168l-74 164h-4l-139 -164h-182z" />
<glyph unicode="&#xc3;" horiz-adv-x="1282" d="M119 0h-217l792 1446h226l235 -1446h-203l-63 416h-545zM428 584h440l-71 458l-21 205h-4q-55 -131 -94 -205zM498 1548q50 260 243 260q36 0 64.5 -14.5t47.5 -35t35.5 -40.5t35.5 -34.5t41 -14.5q41 0 66 39.5t34 93.5h145q-51 -260 -243 -260q-35 0 -63.5 14.5t-47 35 t-35.5 40.5t-37.5 34.5t-42.5 14.5q-39 0 -63 -39t-35 -94h-145z" />
<glyph unicode="&#xc4;" horiz-adv-x="1282" d="M119 0h-217l792 1446h226l235 -1446h-203l-63 416h-545zM428 584h440l-71 458l-21 205h-4q-55 -131 -94 -205zM932 1599l39 207h164l-41 -207h-162zM588 1599l41 207h164l-41 -207h-164z" />
<glyph unicode="&#xc5;" horiz-adv-x="1282" d="M119 0h-217l792 1446h226l235 -1446h-203l-63 416h-545zM428 584h440l-71 458l-21 205h-4q-55 -131 -94 -205zM836 1522q-70 0 -114 34.5t-44 98.5q0 75 59 123.5t133 48.5q71 0 115.5 -35.5t44.5 -99.5q0 -73 -60.5 -121.5t-133.5 -48.5zM842 1606q33 0 57.5 24.5 t24.5 59.5q0 25 -16 40t-42 15q-33 0 -57.5 -25.5t-24.5 -62.5q0 -24 15.5 -37.5t42.5 -13.5z" />
<glyph unicode="&#xc6;" horiz-adv-x="1816" d="M123 0h-225l874 1446h1075l-35 -176h-638l-89 -453h519l-35 -176h-518l-90 -465h671l-35 -176h-872l125 643h-344zM879 1270l-273 -459h277l88 459h-92z" />
<glyph unicode="&#xc7;" horiz-adv-x="1484" d="M508 -293q39 -12 84 -12q44 0 77 18t33 56q0 53 -96 53l-37 -2l74 164q-246 32 -387 200t-141 418q0 140 45 272.5t126 239t187.5 187.5t235 125t262.5 44q102 0 193.5 -20t149 -48t100 -56t60.5 -48l19 -20l-121 -139q-6 6 -17 15.5t-49 34.5t-80.5 44.5t-110 35 t-138.5 15.5q-134 0 -256 -56t-208.5 -148t-137.5 -215t-51 -253q0 -197 118 -323.5t322 -126.5q76 0 153 19t133.5 46.5t102 55t69.5 46.5l23 19l88 -160q-10 -9 -28 -23t-77.5 -51t-123 -65t-159.5 -51t-191 -23h-2l-33 -77q50 -9 86.5 -43t36.5 -91q0 -39 -15 -71.5 t-39 -54t-55 -36t-63 -20.5t-64 -6t-62.5 3.5t-44.5 6.5l-14 4z" />
<glyph unicode="&#xc8;" horiz-adv-x="1171" d="M78 0l284 1446h838l-35 -176h-637l-88 -453h518l-34 -176h-518l-91 -465h672l-33 -176h-876zM735 1546l-143 260h205l96 -260h-158z" />
<glyph unicode="&#xc9;" horiz-adv-x="1171" d="M78 0l284 1446h838l-35 -176h-637l-88 -453h518l-34 -176h-518l-91 -465h672l-33 -176h-876zM727 1546l201 260h223l-246 -260h-178z" />
<glyph unicode="&#xca;" horiz-adv-x="1171" d="M78 0l284 1446h838l-35 -176h-637l-88 -453h518l-34 -176h-518l-91 -465h672l-33 -176h-876zM530 1546l232 260h207l129 -260h-168l-74 164h-4l-139 -164h-183z" />
<glyph unicode="&#xcb;" horiz-adv-x="1171" d="M78 0l284 1446h838l-35 -176h-637l-88 -453h518l-34 -176h-518l-91 -465h672l-33 -176h-876zM924 1599l39 207h163l-41 -207h-161zM580 1599l41 207h163l-41 -207h-163z" />
<glyph unicode="&#xcc;" horiz-adv-x="595" d="M78 0l282 1446h201l-280 -1446h-203zM395 1546l-143 260h205l96 -260h-158z" />
<glyph unicode="&#xcd;" horiz-adv-x="595" d="M78 0l282 1446h201l-280 -1446h-203zM385 1546l201 260h223l-246 -260h-178z" />
<glyph unicode="&#xce;" horiz-adv-x="595" d="M78 0l282 1446h201l-280 -1446h-203zM190 1546l232 260h207l129 -260h-168l-74 164h-4l-139 -164h-183z" />
<glyph unicode="&#xcf;" horiz-adv-x="595" d="M78 0l282 1446h201l-280 -1446h-203zM586 1599l39 207h163l-40 -207h-162zM242 1599l41 207h163l-40 -207h-164z" />
<glyph unicode="&#xd0;" horiz-adv-x="1550" d="M119 639l33 168h118l125 639h447q299 0 469 -148t170 -415q0 -180 -63 -342t-174 -281.5t-271.5 -189.5t-345.5 -70h-512l123 639h-119zM348 176h264q189 0 340.5 91t235.5 248.5t84 350.5q0 194 -118.5 299t-328.5 105h-262l-92 -463h309l-32 -168h-310z" />
<glyph unicode="&#xd1;" horiz-adv-x="1536" d="M78 0l282 1446h187l463 -940q16 -34 35.5 -86t30.5 -88l11 -35h5q10 129 26 209l182 940h203l-282 -1446h-187l-463 938q-17 36 -37 88.5t-31 87.5l-11 35h-5q-10 -129 -26 -211l-182 -938h-201zM618 1548q50 260 244 260q36 0 64.5 -14.5t47 -35t35 -40.5t35.5 -34.5 t41 -14.5q42 0 67 40t34 93h145q-51 -260 -244 -260q-35 0 -63 14.5t-47 35t-36 40.5t-37 34.5t-42 14.5q-39 0 -63 -39t-35 -94h-146z" />
<glyph unicode="&#xd2;" horiz-adv-x="1677" d="M109 606q0 171 73 332t192.5 276.5t277 185.5t319.5 70q288 0 466.5 -172t178.5 -442q0 -174 -74 -338t-194 -282t-277.5 -189.5t-318.5 -71.5q-190 0 -337 81t-226.5 224.5t-79.5 325.5zM315 614q0 -199 122.5 -325.5t316.5 -126.5q120 0 238.5 54.5t210 145.5t148 219 t56.5 265q0 194 -122.5 316t-315.5 122q-122 0 -241 -53t-210 -142t-147 -214.5t-56 -260.5zM930 1546l-144 260h205l96 -260h-157z" />
<glyph unicode="&#xd3;" horiz-adv-x="1677" d="M109 606q0 171 73 332t192.5 276.5t277 185.5t319.5 70q288 0 466.5 -172t178.5 -442q0 -174 -74 -338t-194 -282t-277.5 -189.5t-318.5 -71.5q-190 0 -337 81t-226.5 224.5t-79.5 325.5zM315 614q0 -199 122.5 -325.5t316.5 -126.5q120 0 238.5 54.5t210 145.5t148 219 t56.5 265q0 194 -122.5 316t-315.5 122q-122 0 -241 -53t-210 -142t-147 -214.5t-56 -260.5zM922 1546l200 260h224l-246 -260h-178z" />
<glyph unicode="&#xd4;" horiz-adv-x="1677" d="M109 606q0 171 73 332t192.5 276.5t277 185.5t319.5 70q288 0 466.5 -172t178.5 -442q0 -174 -74 -338t-194 -282t-277.5 -189.5t-318.5 -71.5q-190 0 -337 81t-226.5 224.5t-79.5 325.5zM315 614q0 -199 122.5 -325.5t316.5 -126.5q120 0 238.5 54.5t210 145.5t148 219 t56.5 265q0 194 -122.5 316t-315.5 122q-122 0 -241 -53t-210 -142t-147 -214.5t-56 -260.5zM725 1546l231 260h207l129 -260h-168l-73 164h-4l-140 -164h-182z" />
<glyph unicode="&#xd5;" horiz-adv-x="1677" d="M109 606q0 171 73 332t192.5 276.5t277 185.5t319.5 70q288 0 466.5 -172t178.5 -442q0 -174 -74 -338t-194 -282t-277.5 -189.5t-318.5 -71.5q-190 0 -337 81t-226.5 224.5t-79.5 325.5zM315 614q0 -199 122.5 -325.5t316.5 -126.5q120 0 238.5 54.5t210 145.5t148 219 t56.5 265q0 194 -122.5 316t-315.5 122q-122 0 -241 -53t-210 -142t-147 -214.5t-56 -260.5zM686 1548q50 260 244 260q36 0 64.5 -14.5t47 -35t35 -40.5t35.5 -34.5t41 -14.5q41 0 66 39.5t34 93.5h146q-51 -260 -244 -260q-35 0 -63 14.5t-47 35t-36 40.5t-37 34.5 t-42 14.5q-39 0 -63.5 -39t-35.5 -94h-145z" />
<glyph unicode="&#xd6;" horiz-adv-x="1677" d="M109 606q0 171 73 332t192.5 276.5t277 185.5t319.5 70q288 0 466.5 -172t178.5 -442q0 -174 -74 -338t-194 -282t-277.5 -189.5t-318.5 -71.5q-190 0 -337 81t-226.5 224.5t-79.5 325.5zM315 614q0 -199 122.5 -325.5t316.5 -126.5q120 0 238.5 54.5t210 145.5t148 219 t56.5 265q0 194 -122.5 316t-315.5 122q-122 0 -241 -53t-210 -142t-147 -214.5t-56 -260.5zM1120 1599l39 207h164l-41 -207h-162zM776 1599l41 207h164l-41 -207h-164z" />
<glyph unicode="&#xd7;" horiz-adv-x="1409" d="M170 113l422 471l-422 471l113 112l417 -467l420 467l113 -112l-424 -471l424 -471l-113 -113l-420 465l-417 -465z" />
<glyph unicode="&#xd8;" horiz-adv-x="1681" d="M113 606q0 171 73 332t192.5 276.5t277 185.5t319.5 70q225 0 385 -108l127 137l94 -78l-127 -137q164 -172 164 -428q0 -174 -74 -338t-193.5 -282t-276.5 -189.5t-318 -71.5q-232 0 -398 119l-133 -145l-94 76l137 149q-155 172 -155 432zM1409 846q0 166 -94 284 l-819 -888q110 -80 262 -80q120 0 238 54.5t209 145.5t147.5 219t56.5 265zM319 614q0 -169 89 -288l817 886q-112 72 -252 72q-122 0 -241 -53t-210 -142t-147 -214.5t-56 -260.5z" />
<glyph unicode="&#xd9;" horiz-adv-x="1488" d="M147 403q0 50 13 117l180 926h201l-181 -932q-8 -39 -8 -86q0 -127 80 -196.5t225 -69.5q169 0 286 94.5t149 261.5l182 928h201l-185 -944q-47 -242 -218.5 -384.5t-418.5 -142.5q-225 0 -365.5 114t-140.5 314zM840 1546l-144 260h205l96 -260h-157z" />
<glyph unicode="&#xda;" horiz-adv-x="1488" d="M147 403q0 50 13 117l180 926h201l-181 -932q-8 -39 -8 -86q0 -127 80 -196.5t225 -69.5q169 0 286 94.5t149 261.5l182 928h201l-185 -944q-47 -242 -218.5 -384.5t-418.5 -142.5q-225 0 -365.5 114t-140.5 314zM831 1546l201 260h223l-245 -260h-179z" />
<glyph unicode="&#xdb;" horiz-adv-x="1488" d="M147 403q0 50 13 117l180 926h201l-181 -932q-8 -39 -8 -86q0 -127 80 -196.5t225 -69.5q169 0 286 94.5t149 261.5l182 928h201l-185 -944q-47 -242 -218.5 -384.5t-418.5 -142.5q-225 0 -365.5 114t-140.5 314zM635 1546l231 260h207l129 -260h-168l-73 164h-5 l-139 -164h-182z" />
<glyph unicode="&#xdc;" horiz-adv-x="1488" d="M147 403q0 50 13 117l180 926h201l-181 -932q-8 -39 -8 -86q0 -127 80 -196.5t225 -69.5q169 0 286 94.5t149 261.5l182 928h201l-185 -944q-47 -242 -218.5 -384.5t-418.5 -142.5q-225 0 -365.5 114t-140.5 314zM1028 1599l39 207h164l-41 -207h-162zM684 1599l41 207 h164l-41 -207h-164z" />
<glyph unicode="&#xdd;" horiz-adv-x="1185" d="M362 0l121 612l-319 834h217l174 -475q13 -36 26 -81.5t20 -73.5l7 -28h4q62 99 123 181l355 477h243l-651 -840l-119 -606h-201zM670 1546l200 260h224l-246 -260h-178z" />
<glyph unicode="&#xde;" horiz-adv-x="1247" d="M78 0l282 1446h203l-49 -246h295q137 0 227 -47q86 -44 133.5 -128.5t47.5 -193.5q0 -169 -88 -303t-228 -196q-101 -43 -215 -43h-348l-57 -289h-203zM371 465h295q88 0 153 33q87 41 138 123.5t51 195.5q0 98 -61 152.5t-171 54.5h-297z" />
<glyph unicode="&#xdf;" horiz-adv-x="1200" d="M37 0l213 1102q23 116 99.5 201.5t176 126t207.5 40.5q164 0 263.5 -81t99.5 -207q0 -57 -21.5 -107.5t-53 -84.5t-69 -67.5t-69 -58.5t-53 -56.5t-21.5 -62.5q0 -29 21 -60t52.5 -56.5t68 -59t68 -66t52.5 -79t21 -96.5q0 -140 -117.5 -241t-272.5 -101 q-87 0 -162.5 14.5t-107.5 29.5l-33 15l35 172q11 -7 32 -16.5t87.5 -26t134.5 -16.5q34 0 68 10t64.5 29.5t49.5 53.5t19 77t-29.5 84t-71.5 75.5t-83.5 70t-71 81t-29.5 94.5q0 57 30 108t72 89t84.5 73t72.5 76t30 84q0 58 -43 96.5t-125 38.5q-98 0 -178.5 -59 t-102.5 -168l-208 -1071h-199z" />
<glyph unicode="&#xe0;" horiz-adv-x="1073" d="M0 238q0 81 31 146.5t86 109t122 74.5t148 47.5t154 24t149 7.5h51q9 46 9 84q0 162 -187 162q-71 0 -148.5 -24.5t-118.5 -48.5l-42 -25l-53 157q7 4 20 11.5t54.5 26.5t84.5 33t107 26t125 12q77 0 140.5 -17t113.5 -52.5t78 -96t28 -141.5q0 -56 -12 -115l-125 -639 h-184l20 104q4 21 9 41.5t9 30.5t5 10h-4q2 0 -13 -21.5t-45.5 -53t-72 -62.5t-103 -52.5t-127.5 -21.5q-129 0 -219 71t-90 192zM203 270q0 -58 42 -96.5t124 -38.5q117 0 213.5 101.5t126.5 226.5l8 35h-51q-45 0 -85.5 -2.5t-98 -9.5t-103 -23t-87.5 -40t-65.5 -63.5 t-23.5 -89.5zM553 1186l-143 260h204l97 -260h-158z" />
<glyph unicode="&#xe1;" horiz-adv-x="1073" d="M0 238q0 81 31 146.5t86 109t122 74.5t148 47.5t154 24t149 7.5h51q9 46 9 84q0 162 -187 162q-71 0 -148.5 -24.5t-118.5 -48.5l-42 -25l-53 157q7 4 20 11.5t54.5 26.5t84.5 33t107 26t125 12q77 0 140.5 -17t113.5 -52.5t78 -96t28 -141.5q0 -56 -12 -115l-125 -639 h-184l20 104q4 21 9 41.5t9 30.5t5 10h-4q2 0 -13 -21.5t-45.5 -53t-72 -62.5t-103 -52.5t-127.5 -21.5q-129 0 -219 71t-90 192zM203 270q0 -58 42 -96.5t124 -38.5q117 0 213.5 101.5t126.5 226.5l8 35h-51q-45 0 -85.5 -2.5t-98 -9.5t-103 -23t-87.5 -40t-65.5 -63.5 t-23.5 -89.5zM545 1186l200 260h224l-246 -260h-178z" />
<glyph unicode="&#xe2;" horiz-adv-x="1073" d="M0 238q0 81 31 146.5t86 109t122 74.5t148 47.5t154 24t149 7.5h51q9 46 9 84q0 162 -187 162q-71 0 -148.5 -24.5t-118.5 -48.5l-42 -25l-53 157q7 4 20 11.5t54.5 26.5t84.5 33t107 26t125 12q77 0 140.5 -17t113.5 -52.5t78 -96t28 -141.5q0 -56 -12 -115l-125 -639 h-184l20 104q4 21 9 41.5t9 30.5t5 10h-4q2 0 -13 -21.5t-45.5 -53t-72 -62.5t-103 -52.5t-127.5 -21.5q-129 0 -219 71t-90 192zM203 270q0 -58 42 -96.5t124 -38.5q117 0 213.5 101.5t126.5 226.5l8 35h-51q-45 0 -85.5 -2.5t-98 -9.5t-103 -23t-87.5 -40t-65.5 -63.5 t-23.5 -89.5zM348 1186l232 260h206l129 -260h-167l-74 164h-4l-140 -164h-182z" />
<glyph unicode="&#xe3;" horiz-adv-x="1073" d="M0 238q0 81 31 146.5t86 109t122 74.5t148 47.5t154 24t149 7.5h51q9 46 9 84q0 162 -187 162q-71 0 -148.5 -24.5t-118.5 -48.5l-42 -25l-53 157q7 4 20 11.5t54.5 26.5t84.5 33t107 26t125 12q77 0 140.5 -17t113.5 -52.5t78 -96t28 -141.5q0 -56 -12 -115l-125 -639 h-184l20 104q4 21 9 41.5t9 30.5t5 10h-4q2 0 -13 -21.5t-45.5 -53t-72 -62.5t-103 -52.5t-127.5 -21.5q-129 0 -219 71t-90 192zM203 270q0 -58 42 -96.5t124 -38.5q117 0 213.5 101.5t126.5 226.5l8 35h-51q-45 0 -85.5 -2.5t-98 -9.5t-103 -23t-87.5 -40t-65.5 -63.5 t-23.5 -89.5zM309 1188q50 260 244 260q36 0 64.5 -14.5t47 -35t35 -40.5t35.5 -34.5t41 -14.5q42 0 67 40t34 93h145q-51 -260 -244 -260q-35 0 -63 14.5t-47 35t-36 40.5t-37 34.5t-42 14.5q-39 0 -63 -39t-35 -94h-146z" />
<glyph unicode="&#xe4;" horiz-adv-x="1073" d="M0 238q0 81 31 146.5t86 109t122 74.5t148 47.5t154 24t149 7.5h51q9 46 9 84q0 162 -187 162q-71 0 -148.5 -24.5t-118.5 -48.5l-42 -25l-53 157q7 4 20 11.5t54.5 26.5t84.5 33t107 26t125 12q77 0 140.5 -17t113.5 -52.5t78 -96t28 -141.5q0 -56 -12 -115l-125 -639 h-184l20 104q4 21 9 41.5t9 30.5t5 10h-4q2 0 -13 -21.5t-45.5 -53t-72 -62.5t-103 -52.5t-127.5 -21.5q-129 0 -219 71t-90 192zM203 270q0 -58 42 -96.5t124 -38.5q117 0 213.5 101.5t126.5 226.5l8 35h-51q-45 0 -85.5 -2.5t-98 -9.5t-103 -23t-87.5 -40t-65.5 -63.5 t-23.5 -89.5zM741 1239l39 207h164l-41 -207h-162zM397 1239l41 207h164l-41 -207h-164z" />
<glyph unicode="&#xe5;" horiz-adv-x="1073" d="M0 238q0 81 31 146.5t86 109t122 74.5t148 47.5t154 24t149 7.5h51q9 46 9 84q0 162 -187 162q-71 0 -148.5 -24.5t-118.5 -48.5l-42 -25l-53 157q7 4 20 11.5t54.5 26.5t84.5 33t107 26t125 12q77 0 140.5 -17t113.5 -52.5t78 -96t28 -141.5q0 -56 -12 -115l-125 -639 h-184l20 104q4 21 9 41.5t9 30.5t5 10h-4q2 0 -13 -21.5t-45.5 -53t-72 -62.5t-103 -52.5t-127.5 -21.5q-129 0 -219 71t-90 192zM203 270q0 -58 42 -96.5t124 -38.5q117 0 213.5 101.5t126.5 226.5l8 35h-51q-45 0 -85.5 -2.5t-98 -9.5t-103 -23t-87.5 -40t-65.5 -63.5 t-23.5 -89.5zM645 1161q-70 0 -114 34.5t-44 98.5q0 75 59 123.5t134 48.5q71 0 115.5 -35.5t44.5 -99.5q0 -73 -61 -121.5t-134 -48.5zM651 1245q33 0 57.5 24.5t24.5 59.5q0 25 -15.5 40t-41.5 15q-33 0 -57.5 -25.5t-24.5 -62.5q0 -24 15 -37.5t42 -13.5z" />
<glyph unicode="&#xe6;" horiz-adv-x="1761" d="M2 238q0 97 44 171t112 117t163 70t182.5 36t184.5 9h53q11 71 11 88q0 164 -193 164q-68 0 -143.5 -24.5t-117.5 -48.5l-42 -25l-53 157q7 4 20 11.5t54.5 26.5t84 33t105 26t121.5 12q248 0 311 -174h4q152 174 385 174q194 0 296 -104t102 -281q0 -35 -8 -80.5 t-16 -73.5l-7 -28h-746q-6 -38 -6 -68q0 -125 74 -202t209 -77q79 0 161.5 30.5t125.5 60.5l43 30l57 -157q-7 -6 -20 -15t-54.5 -32.5t-85 -41.5t-108.5 -32.5t-127 -14.5q-160 0 -272.5 68.5t-155.5 187.5h-5q-10 -20 -26.5 -46t-53.5 -65t-81.5 -69.5t-113.5 -53 t-146 -22.5q-136 0 -229 69.5t-93 193.5zM946 643h537q4 32 4 53q0 100 -56 153.5t-145 53.5q-116 0 -206 -68.5t-134 -191.5zM205 270q0 -59 42.5 -97t123.5 -38q61 0 118.5 29.5t101 77.5t74.5 106t44 117l6 27h-94q-52 0 -99 -3.5t-108 -17.5t-104.5 -36.5t-74 -65 t-30.5 -99.5z" />
<glyph unicode="&#xe7;" horiz-adv-x="1120" d="M295 -293q39 -12 84 -12q44 0 77 18t33 56q0 53 -96 53l-37 -2l74 166q-174 29 -274.5 147.5t-100.5 292.5q0 172 88 319t235 231.5t316 84.5q76 0 144.5 -15.5t111.5 -37.5t75 -44t46 -38l14 -15l-110 -129l-11.5 11.5t-34 26t-55.5 32.5t-75 25.5t-94 11.5 q-115 0 -218 -59.5t-166 -163.5t-63 -226q0 -130 83 -211.5t220 -81.5q54 0 109.5 14.5t96.5 35t74.5 41t50.5 34.5l17 15l56 -158q-7 -6 -20 -16.5t-55.5 -37t-88.5 -47t-116.5 -37t-141.5 -16.5h-4l-33 -77q50 -9 86.5 -43t36.5 -91q0 -39 -15 -71.5t-39 -54t-55 -36 t-63 -20.5t-64 -6t-62.5 3.5t-44.5 6.5l-14 4z" />
<glyph unicode="&#xe8;" horiz-adv-x="1128" d="M55 418q0 171 77 318t216 236t309 89q194 0 295 -104.5t101 -278.5q0 -37 -8.5 -84.5t-16.5 -75.5l-8 -29h-756q-6 -30 -6 -61q0 -121 77 -201t218 -80q79 0 161.5 30.5t125.5 60.5l43 30l57 -157q-7 -6 -20 -15t-54.5 -32.5t-85.5 -41.5t-108.5 -32.5t-126.5 -14.5 q-224 0 -357 123.5t-133 319.5zM297 639h553q4 22 4 55q0 101 -55 155t-146 54q-115 0 -212 -71t-144 -193zM623 1186l-144 260h205l96 -260h-157z" />
<glyph unicode="&#xe9;" horiz-adv-x="1128" d="M55 418q0 171 77 318t216 236t309 89q194 0 295 -104.5t101 -278.5q0 -37 -8.5 -84.5t-16.5 -75.5l-8 -29h-756q-6 -30 -6 -61q0 -121 77 -201t218 -80q79 0 161.5 30.5t125.5 60.5l43 30l57 -157q-7 -6 -20 -15t-54.5 -32.5t-85.5 -41.5t-108.5 -32.5t-126.5 -14.5 q-224 0 -357 123.5t-133 319.5zM297 639h553q4 22 4 55q0 101 -55 155t-146 54q-115 0 -212 -71t-144 -193zM614 1186l201 260h223l-245 -260h-179z" />
<glyph unicode="&#xea;" horiz-adv-x="1128" d="M55 418q0 171 77 318t216 236t309 89q194 0 295 -104.5t101 -278.5q0 -37 -8.5 -84.5t-16.5 -75.5l-8 -29h-756q-6 -30 -6 -61q0 -121 77 -201t218 -80q79 0 161.5 30.5t125.5 60.5l43 30l57 -157q-7 -6 -20 -15t-54.5 -32.5t-85.5 -41.5t-108.5 -32.5t-126.5 -14.5 q-224 0 -357 123.5t-133 319.5zM297 639h553q4 22 4 55q0 101 -55 155t-146 54q-115 0 -212 -71t-144 -193zM418 1186l231 260h207l129 -260h-168l-74 164h-4l-139 -164h-182z" />
<glyph unicode="&#xeb;" horiz-adv-x="1128" d="M55 418q0 171 77 318t216 236t309 89q194 0 295 -104.5t101 -278.5q0 -37 -8.5 -84.5t-16.5 -75.5l-8 -29h-756q-6 -30 -6 -61q0 -121 77 -201t218 -80q79 0 161.5 30.5t125.5 60.5l43 30l57 -157q-7 -6 -20 -15t-54.5 -32.5t-85.5 -41.5t-108.5 -32.5t-126.5 -14.5 q-224 0 -357 123.5t-133 319.5zM297 639h553q4 22 4 55q0 101 -55 155t-146 54q-115 0 -212 -71t-144 -193zM813 1239l39 207h164l-41 -207h-162zM469 1239l41 207h164l-41 -207h-164z" />
<glyph unicode="&#xec;" horiz-adv-x="507" d="M281 1186l-144 260h205l96 -260h-157zM37 0l201 1036h198l-200 -1036h-199z" />
<glyph unicode="&#xed;" horiz-adv-x="507" d="M272 1186l201 260h223l-245 -260h-179zM37 0l201 1036h198l-200 -1036h-199z" />
<glyph unicode="&#xee;" horiz-adv-x="507" d="M37 0l201 1036h198l-200 -1036h-199zM76 1186l231 260h207l129 -260h-168l-74 164h-4l-139 -164h-182z" />
<glyph unicode="&#xef;" horiz-adv-x="507" d="M469 1239l39 207h164l-41 -207h-162zM125 1239l41 207h164l-41 -207h-164zM37 0l201 1036h198l-200 -1036h-199z" />
<glyph unicode="&#xf0;" horiz-adv-x="1202" d="M307 981l4 129l285 115q-107 62 -250 100l82 148q220 -56 373 -166l325 131l-2 -129l-221 -88q199 -202 199 -502q0 -90 -21 -187t-70 -197.5t-118 -180t-174.5 -129.5t-231.5 -50q-106 0 -190.5 33.5t-137.5 91t-80.5 132t-27.5 159.5q0 102 41 202t113 180.5 t183.5 130.5t240.5 50q48 0 92 -9.5t72 -23.5t49.5 -28t31.5 -23l9 -10h4q-36 164 -174 283zM254 395q0 -108 59.5 -178t175.5 -70q69 0 132 27.5t109 73.5t81 103t52.5 117t17.5 116q0 95 -65 153t-179 58q-107 0 -195.5 -55.5t-138 -147t-49.5 -197.5z" />
<glyph unicode="&#xf1;" horiz-adv-x="1232" d="M37 0l201 1036h194l-22 -121q-4 -22 -11.5 -46.5t-12.5 -38.5l-5 -13h4q48 90 167 167t261 77t222.5 -69t80.5 -206q0 -49 -14 -131l-127 -655h-199l119 612q14 75 14 117q0 75 -40.5 112.5t-112.5 37.5q-153 0 -275 -119.5t-155 -286.5l-90 -473h-199zM422 1188 q50 260 244 260q36 0 64.5 -14.5t47 -35t35 -40.5t35.5 -34.5t41 -14.5q41 0 66 39.5t34 93.5h146q-51 -260 -244 -260q-35 0 -63 14.5t-47 35t-36 40.5t-37 34.5t-42 14.5q-39 0 -63.5 -39t-35.5 -94h-145z" />
<glyph unicode="&#xf2;" horiz-adv-x="1273" d="M53 432q0 130 54.5 248t143.5 200.5t205.5 131.5t237.5 49q217 0 354.5 -126t137.5 -327q0 -174 -93.5 -321.5t-240 -229.5t-305.5 -82q-218 0 -356 127.5t-138 329.5zM256 440q0 -130 82 -211.5t211 -81.5q107 0 206.5 58.5t163.5 163.5t64 229q0 129 -81.5 210 t-209.5 81q-109 0 -209 -58.5t-163.5 -163t-63.5 -227.5zM664 1186l-144 260h205l96 -260h-157z" />
<glyph unicode="&#xf3;" horiz-adv-x="1273" d="M53 432q0 130 54.5 248t143.5 200.5t205.5 131.5t237.5 49q217 0 354.5 -126t137.5 -327q0 -174 -93.5 -321.5t-240 -229.5t-305.5 -82q-218 0 -356 127.5t-138 329.5zM256 440q0 -130 82 -211.5t211 -81.5q107 0 206.5 58.5t163.5 163.5t64 229q0 129 -81.5 210 t-209.5 81q-109 0 -209 -58.5t-163.5 -163t-63.5 -227.5zM655 1186l201 260h223l-245 -260h-179z" />
<glyph unicode="&#xf4;" horiz-adv-x="1273" d="M53 432q0 130 54.5 248t143.5 200.5t205.5 131.5t237.5 49q217 0 354.5 -126t137.5 -327q0 -174 -93.5 -321.5t-240 -229.5t-305.5 -82q-218 0 -356 127.5t-138 329.5zM256 440q0 -130 82 -211.5t211 -81.5q107 0 206.5 58.5t163.5 163.5t64 229q0 129 -81.5 210 t-209.5 81q-109 0 -209 -58.5t-163.5 -163t-63.5 -227.5zM459 1186l231 260h207l129 -260h-168l-74 164h-4l-139 -164h-182z" />
<glyph unicode="&#xf5;" horiz-adv-x="1273" d="M53 432q0 130 54.5 248t143.5 200.5t205.5 131.5t237.5 49q217 0 354.5 -126t137.5 -327q0 -174 -93.5 -321.5t-240 -229.5t-305.5 -82q-218 0 -356 127.5t-138 329.5zM256 440q0 -130 82 -211.5t211 -81.5q107 0 206.5 58.5t163.5 163.5t64 229q0 129 -81.5 210 t-209.5 81q-109 0 -209 -58.5t-163.5 -163t-63.5 -227.5zM418 1188q50 260 244 260q36 0 64.5 -14.5t47 -35t35 -40.5t35.5 -34.5t41 -14.5q41 0 66 39.5t34 93.5h145q-51 -260 -243 -260q-35 0 -63 14.5t-47 35t-36 40.5t-37 34.5t-42 14.5q-39 0 -63.5 -39t-35.5 -94h-145 z" />
<glyph unicode="&#xf6;" horiz-adv-x="1273" d="M53 432q0 130 54.5 248t143.5 200.5t205.5 131.5t237.5 49q217 0 354.5 -126t137.5 -327q0 -174 -93.5 -321.5t-240 -229.5t-305.5 -82q-218 0 -356 127.5t-138 329.5zM256 440q0 -130 82 -211.5t211 -81.5q107 0 206.5 58.5t163.5 163.5t64 229q0 129 -81.5 210 t-209.5 81q-109 0 -209 -58.5t-163.5 -163t-63.5 -227.5zM852 1239l39 207h164l-41 -207h-162zM508 1239l41 207h164l-41 -207h-164z" />
<glyph unicode="&#xf7;" horiz-adv-x="1292" d="M543 891v186h192v-186h-192zM123 504v160h1034v-160h-1034zM543 90v186h192v-186h-192z" />
<glyph unicode="&#xf8;" horiz-adv-x="1273" d="M53 432q0 130 54.5 248t143.5 200.5t205.5 131.5t237.5 49q163 0 287 -76l111 121l92 -76l-111 -121q113 -122 113 -301q0 -174 -93.5 -321.5t-240 -229.5t-305.5 -82q-152 0 -275 68l-110 -121l-90 78l106 115q-125 125 -125 317zM256 440q0 -109 55 -182l541 588 q-72 43 -160 43q-109 0 -209 -58.5t-163.5 -163t-63.5 -227.5zM983 598q0 93 -45 166l-537 -582q62 -35 148 -35q107 0 206.5 58.5t163.5 163.5t64 229z" />
<glyph unicode="&#xf9;" horiz-adv-x="1220" d="M80 250q0 49 14 131l127 655h199l-119 -610q-12 -68 -12 -119q0 -72 35 -109.5t120 -37.5q100 0 189.5 59.5t147 151t77.5 194.5l92 471h199l-201 -1036h-194l24 121q4 22 11 46.5l11 38.5l5 13h-4q-23 -40 -61 -80.5t-91 -78.5t-123.5 -61.5t-144.5 -23.5 q-63 0 -115.5 15t-95 46.5t-66.5 86t-24 127.5zM627 1186l-144 260h205l96 -260h-157z" />
<glyph unicode="&#xfa;" horiz-adv-x="1220" d="M80 250q0 49 14 131l127 655h199l-119 -610q-12 -68 -12 -119q0 -72 35 -109.5t120 -37.5q100 0 189.5 59.5t147 151t77.5 194.5l92 471h199l-201 -1036h-194l24 121q4 22 11 46.5l11 38.5l5 13h-4q-23 -40 -61 -80.5t-91 -78.5t-123.5 -61.5t-144.5 -23.5 q-63 0 -115.5 15t-95 46.5t-66.5 86t-24 127.5zM618 1186l201 260h223l-245 -260h-179z" />
<glyph unicode="&#xfb;" horiz-adv-x="1220" d="M80 250q0 49 14 131l127 655h199l-119 -610q-12 -68 -12 -119q0 -72 35 -109.5t120 -37.5q100 0 189.5 59.5t147 151t77.5 194.5l92 471h199l-201 -1036h-194l24 121q4 22 11 46.5l11 38.5l5 13h-4q-23 -40 -61 -80.5t-91 -78.5t-123.5 -61.5t-144.5 -23.5 q-63 0 -115.5 15t-95 46.5t-66.5 86t-24 127.5zM422 1186l231 260h207l129 -260h-168l-73 164h-5l-139 -164h-182z" />
<glyph unicode="&#xfc;" horiz-adv-x="1220" d="M80 250q0 49 14 131l127 655h199l-119 -610q-12 -68 -12 -119q0 -72 35 -109.5t120 -37.5q100 0 189.5 59.5t147 151t77.5 194.5l92 471h199l-201 -1036h-194l24 121q4 22 11 46.5l11 38.5l5 13h-4q-23 -40 -61 -80.5t-91 -78.5t-123.5 -61.5t-144.5 -23.5 q-63 0 -115.5 15t-95 46.5t-66.5 86t-24 127.5zM817 1239l39 207h164l-41 -207h-162zM473 1239l41 207h164l-41 -207h-164z" />
<glyph unicode="&#xfd;" horiz-adv-x="1042" d="M-96 -221q42 -37 112 -37q130 0 220 149l75 123l-237 1022h207l139 -700l16 -123h2q31 68 60 119l389 704h223l-727 -1226q-70 -119 -163.5 -179.5t-194.5 -60.5q-56 0 -109.5 17t-78.5 34l-25 17zM532 1186l201 260h223l-245 -260h-179z" />
<glyph unicode="&#xfe;" horiz-adv-x="1226" d="M-43 -410l358 1856h197l-94 -481l-21 -82h4q55 77 146 127.5t201 50.5q183 0 285 -114.5t102 -311.5q0 -142 -48 -267t-127 -210t-180.5 -134t-208.5 -49q-103 0 -187.5 47t-121.5 134h-4q-2 -44 -12 -97l-92 -469h-197zM319 414q0 -116 59 -191.5t173 -75.5q68 0 135 33 t122 92t89.5 150.5t34.5 198.5q0 124 -62.5 195t-171.5 71q-103 0 -191 -67.5t-138 -176.5t-50 -229z" />
<glyph unicode="&#xff;" horiz-adv-x="1042" d="M-96 -221q42 -37 112 -37q130 0 220 149l75 123l-237 1022h207l139 -700l16 -123h2q31 68 60 119l389 704h223l-727 -1226q-70 -119 -163.5 -179.5t-194.5 -60.5q-56 0 -109.5 17t-78.5 34l-25 17zM731 1239l39 207h164l-41 -207h-162zM387 1239l41 207h164l-41 -207 h-164z" />
<glyph unicode="&#x100;" horiz-adv-x="1282" d="M119 0h-217l792 1446h226l235 -1446h-203l-63 416h-545zM428 584h440l-71 458l-21 205h-4q-55 -131 -94 -205zM580 1606l26 143h520l-26 -143h-520z" />
<glyph unicode="&#x101;" horiz-adv-x="1073" d="M0 238q0 81 31 146.5t86 109t122 74.5t148 47.5t154 24t149 7.5h51q9 46 9 84q0 162 -187 162q-71 0 -148.5 -24.5t-118.5 -48.5l-42 -25l-53 157q7 4 20 11.5t54.5 26.5t84.5 33t107 26t125 12q77 0 140.5 -17t113.5 -52.5t78 -96t28 -141.5q0 -56 -12 -115l-125 -639 h-184l20 104q4 21 9 41.5t9 30.5t5 10h-4q2 0 -13 -21.5t-45.5 -53t-72 -62.5t-103 -52.5t-127.5 -21.5q-129 0 -219 71t-90 192zM203 270q0 -58 42 -96.5t124 -38.5q117 0 213.5 101.5t126.5 226.5l8 35h-51q-45 0 -85.5 -2.5t-98 -9.5t-103 -23t-87.5 -40t-65.5 -63.5 t-23.5 -89.5zM391 1245l27 144h520l-27 -144h-520z" />
<glyph unicode="&#x102;" horiz-adv-x="1282" d="M119 0h-217l792 1446h226l235 -1446h-203l-63 416h-545zM428 584h440l-71 458l-21 205h-4q-55 -131 -94 -205zM838 1538q-116 0 -189 67t-51 173l6 28h148l-4 -26q-11 -61 17.5 -92t78.5 -31q51 0 92.5 31.5t52.5 93.5l6 24h148l-4 -28q-24 -120 -106 -180t-195 -60z" />
<glyph unicode="&#x103;" horiz-adv-x="1073" d="M0 238q0 81 31 146.5t86 109t122 74.5t148 47.5t154 24t149 7.5h51q9 46 9 84q0 162 -187 162q-71 0 -148.5 -24.5t-118.5 -48.5l-42 -25l-53 157q7 4 20 11.5t54.5 26.5t84.5 33t107 26t125 12q77 0 140.5 -17t113.5 -52.5t78 -96t28 -141.5q0 -56 -12 -115l-125 -639 h-184l20 104q4 21 9 41.5t9 30.5t5 10h-4q2 0 -13 -21.5t-45.5 -53t-72 -62.5t-103 -52.5t-127.5 -21.5q-129 0 -219 71t-90 192zM203 270q0 -58 42 -96.5t124 -38.5q117 0 213.5 101.5t126.5 226.5l8 35h-51q-45 0 -85.5 -2.5t-98 -9.5t-103 -23t-87.5 -40t-65.5 -63.5 t-23.5 -89.5zM649 1178q-116 0 -188.5 66.5t-50.5 172.5l6 29h147l-4 -27q-11 -61 17.5 -92t78.5 -31q51 0 93 31.5t53 93.5l6 25h147l-4 -29q-24 -120 -106 -179.5t-195 -59.5z" />
<glyph unicode="&#x104;" horiz-adv-x="1282" d="M803 -262q0 133 178 258v4h-29l-63 416h-545l-225 -416h-217l792 1446h226l235 -1446q-172 -120 -172 -197q0 -29 25 -47.5t50 -21.5l25 -4l-75 -154q-8 1 -22 3t-49.5 12.5t-62.5 26.5t-49 47.5t-22 72.5zM428 584h440l-71 458l-21 205h-4q-55 -131 -94 -205z" />
<glyph unicode="&#x105;" horiz-adv-x="1073" d="M0 238q0 81 31 146.5t86 109t122 74.5t148 47.5t154 24t149 7.5h51q9 46 9 84q0 162 -187 162q-71 0 -148.5 -24.5t-118.5 -48.5l-42 -25l-53 157q7 4 20 11.5t54.5 26.5t84.5 33t107 26t125 12q77 0 140.5 -17t113.5 -52.5t78 -96t28 -141.5q0 -56 -12 -115l-125 -639 q-170 -123 -170 -197q0 -29 25 -47.5t50 -21.5l25 -4l-75 -154q-8 1 -22 3t-49.5 12.5t-62.5 26.5t-49 47.5t-22 72.5q0 126 162 248l24 118q17 82 23 82h-4q2 0 -13 -21.5t-45.5 -53t-72 -62.5t-103 -52.5t-127.5 -21.5q-129 0 -219 71t-90 192zM203 270q0 -58 42 -96.5 t124 -38.5q117 0 213.5 101.5t126.5 226.5l8 35h-51q-45 0 -85.5 -2.5t-98 -9.5t-103 -23t-87.5 -40t-65.5 -63.5t-23.5 -89.5z" />
<glyph unicode="&#x106;" horiz-adv-x="1480" d="M111 602q0 140 45 272.5t126 239t187.5 187.5t235 125t262.5 44q102 0 193.5 -20t149 -48t100 -56t60.5 -48l19 -20l-121 -139q-6 6 -17 15.5t-49 34.5t-80.5 44.5t-110 35t-138.5 15.5q-179 0 -330.5 -94.5t-237.5 -248.5t-86 -329q0 -197 118.5 -323.5t322.5 -126.5 q76 0 153 19t133.5 46.5t102 55t69.5 46.5l23 19l88 -160q-10 -9 -28 -23t-77.5 -51t-123 -65t-159.5 -51t-191 -23q-293 0 -466 174.5t-173 452.5zM907 1546l201 260h223l-246 -260h-178z" />
<glyph unicode="&#x107;" horiz-adv-x="1118" d="M53 426q0 172 88 319t235 231.5t316 84.5q76 0 144.5 -15.5t111.5 -37.5t75 -44t46 -38l14 -15l-110 -129l-11.5 11.5t-34 26t-56 32.5t-75.5 25.5t-94 11.5q-115 0 -218 -59.5t-165.5 -163.5t-62.5 -226q0 -130 83 -211.5t220 -81.5q54 0 109.5 14.5t96.5 35t74.5 41 t50.5 34.5l17 15l56 -158q-7 -6 -20 -16.5t-55.5 -37t-88.5 -47t-116.5 -37t-141.5 -16.5q-222 0 -355 125t-133 326zM614 1186l201 260h223l-245 -260h-179z" />
<glyph unicode="&#x108;" horiz-adv-x="1480" d="M111 602q0 140 45 272.5t126 239t187.5 187.5t235 125t262.5 44q102 0 193.5 -20t149 -48t100 -56t60.5 -48l19 -20l-121 -139q-6 6 -17 15.5t-49 34.5t-80.5 44.5t-110 35t-138.5 15.5q-179 0 -330.5 -94.5t-237.5 -248.5t-86 -329q0 -197 118.5 -323.5t322.5 -126.5 q76 0 153 19t133.5 46.5t102 55t69.5 46.5l23 19l88 -160q-10 -9 -28 -23t-77.5 -51t-123 -65t-159.5 -51t-191 -23q-293 0 -466 174.5t-173 452.5zM711 1546l231 260h207l129 -260h-168l-74 164h-4l-139 -164h-182z" />
<glyph unicode="&#x109;" horiz-adv-x="1118" d="M53 426q0 172 88 319t235 231.5t316 84.5q76 0 144.5 -15.5t111.5 -37.5t75 -44t46 -38l14 -15l-110 -129l-11.5 11.5t-34 26t-56 32.5t-75.5 25.5t-94 11.5q-115 0 -218 -59.5t-165.5 -163.5t-62.5 -226q0 -130 83 -211.5t220 -81.5q54 0 109.5 14.5t96.5 35t74.5 41 t50.5 34.5l17 15l56 -158q-7 -6 -20 -16.5t-55.5 -37t-88.5 -47t-116.5 -37t-141.5 -16.5q-222 0 -355 125t-133 326zM418 1186l231 260h207l129 -260h-168l-74 164h-4l-139 -164h-182z" />
<glyph unicode="&#x10a;" horiz-adv-x="1480" d="M111 602q0 140 45 272.5t126 239t187.5 187.5t235 125t262.5 44q102 0 193.5 -20t149 -48t100 -56t60.5 -48l19 -20l-121 -139q-6 6 -17 15.5t-49 34.5t-80.5 44.5t-110 35t-138.5 15.5q-179 0 -330.5 -94.5t-237.5 -248.5t-86 -329q0 -197 118.5 -323.5t322.5 -126.5 q76 0 153 19t133.5 46.5t102 55t69.5 46.5l23 19l88 -160q-10 -9 -28 -23t-77.5 -51t-123 -65t-159.5 -51t-191 -23q-293 0 -466 174.5t-173 452.5zM926 1606l41 200h176l-39 -200h-178z" />
<glyph unicode="&#x10b;" horiz-adv-x="1118" d="M53 426q0 172 88 319t235 231.5t316 84.5q76 0 144.5 -15.5t111.5 -37.5t75 -44t46 -38l14 -15l-110 -129l-11.5 11.5t-34 26t-56 32.5t-75.5 25.5t-94 11.5q-115 0 -218 -59.5t-165.5 -163.5t-62.5 -226q0 -130 83 -211.5t220 -81.5q54 0 109.5 14.5t96.5 35t74.5 41 t50.5 34.5l17 15l56 -158q-7 -6 -20 -16.5t-55.5 -37t-88.5 -47t-116.5 -37t-141.5 -16.5q-222 0 -355 125t-133 326zM633 1245l41 201h176l-39 -201h-178z" />
<glyph unicode="&#x10c;" horiz-adv-x="1480" d="M111 602q0 140 45 272.5t126 239t187.5 187.5t235 125t262.5 44q102 0 193.5 -20t149 -48t100 -56t60.5 -48l19 -20l-121 -139q-6 6 -17 15.5t-49 34.5t-80.5 44.5t-110 35t-138.5 15.5q-179 0 -330.5 -94.5t-237.5 -248.5t-86 -329q0 -197 118.5 -323.5t322.5 -126.5 q76 0 153 19t133.5 46.5t102 55t69.5 46.5l23 19l88 -160q-10 -9 -28 -23t-77.5 -51t-123 -65t-159.5 -51t-191 -23q-293 0 -466 174.5t-173 452.5zM907 1546l-129 260h166l74 -166h4l141 166h183l-234 -260h-205z" />
<glyph unicode="&#x10d;" horiz-adv-x="1118" d="M53 426q0 172 88 319t235 231.5t316 84.5q76 0 144.5 -15.5t111.5 -37.5t75 -44t46 -38l14 -15l-110 -129l-11.5 11.5t-34 26t-56 32.5t-75.5 25.5t-94 11.5q-115 0 -218 -59.5t-165.5 -163.5t-62.5 -226q0 -130 83 -211.5t220 -81.5q54 0 109.5 14.5t96.5 35t74.5 41 t50.5 34.5l17 15l56 -158q-7 -6 -20 -16.5t-55.5 -37t-88.5 -47t-116.5 -37t-141.5 -16.5q-222 0 -355 125t-133 326zM614 1186l-129 260h166l74 -166h4l141 166h183l-234 -260h-205z" />
<glyph unicode="&#x10e;" horiz-adv-x="1513" d="M80 0l280 1446h447q299 0 469 -148t170 -415q0 -180 -63 -342t-174 -281.5t-271.5 -189.5t-345.5 -70h-512zM315 176h263q142 0 266 53.5t210 145.5t135.5 219.5t49.5 271.5q0 194 -118.5 299t-327.5 105h-265zM795 1546l-129 260h165l74 -166h4l142 166h182l-234 -260 h-204z" />
<glyph unicode="&#x10f;" horiz-adv-x="1290" d="M55 399q0 143 47.5 268.5t127 210.5t183.5 134t216 49q101 0 184.5 -44.5t118.5 -129.5h4q0 39 8 76l94 483h199l-281 -1446h-190l20 98q3 18 7.5 37t8.5 29l3 10h-4q-57 -86 -150 -142.5t-205 -56.5q-185 0 -288 114t-103 310zM258 414q0 -124 63.5 -195.5t172.5 -71.5 q105 0 193 70t136.5 179.5t48.5 228.5q0 115 -58 188.5t-173 73.5q-68 0 -135.5 -33t-123 -91.5t-90 -150t-34.5 -198.5zM1354 1446h174v-31q0 -70 -22 -129t-72 -137h-152q41 74 59.5 125.5t18.5 111.5q0 30 -6 60z" />
<glyph unicode="&#x110;" horiz-adv-x="1550" d="M119 639l33 168h118l125 639h447q299 0 469 -148t170 -415q0 -180 -63 -342t-174 -281.5t-271.5 -189.5t-345.5 -70h-512l123 639h-119zM348 176h264q189 0 340.5 91t235.5 248.5t84 350.5q0 194 -118.5 299t-328.5 105h-262l-92 -463h309l-32 -168h-310z" />
<glyph unicode="&#x111;" horiz-adv-x="1226" d="M713 1153l26 129h267l32 164h199l-33 -164h156l-27 -129h-153l-226 -1153h-188l18 98l21 76h-4q-57 -86 -151 -142.5t-206 -56.5q-185 0 -287 114t-102 310q0 143 47.5 268.5t127 210.5t183 134t214.5 49q102 0 185 -44.5t118 -129.5h4q2 39 8 76l37 190h-266zM258 414 q0 -125 63 -196t173 -71q104 0 192 70t137 179.5t49 228.5q0 115 -58.5 188.5t-172.5 73.5q-68 0 -135.5 -33t-123 -91.5t-90 -150t-34.5 -198.5z" />
<glyph unicode="&#x112;" horiz-adv-x="1171" d="M78 0l284 1446h838l-35 -176h-637l-88 -453h518l-34 -176h-518l-91 -465h672l-33 -176h-876zM573 1606l27 143h520l-26 -143h-521z" />
<glyph unicode="&#x113;" horiz-adv-x="1128" d="M55 418q0 171 77 318t216 236t309 89q194 0 295 -104.5t101 -278.5q0 -37 -8.5 -84.5t-16.5 -75.5l-8 -29h-756q-6 -30 -6 -61q0 -121 77 -201t218 -80q79 0 161.5 30.5t125.5 60.5l43 30l57 -157q-7 -6 -20 -15t-54.5 -32.5t-85.5 -41.5t-108.5 -32.5t-126.5 -14.5 q-224 0 -357 123.5t-133 319.5zM297 639h553q4 22 4 55q0 101 -55 155t-146 54q-115 0 -212 -71t-144 -193zM461 1245l26 144h521l-27 -144h-520z" />
<glyph unicode="&#x114;" horiz-adv-x="1171" d="M78 0l284 1446h838l-35 -176h-637l-88 -453h518l-34 -176h-518l-91 -465h672l-33 -176h-876zM831 1538q-116 0 -188.5 67t-50.5 173l6 28h147l-4 -26q-11 -61 18 -92t79 -31q51 0 92.5 31.5t52.5 93.5l6 24h148l-4 -28q-24 -120 -106.5 -180t-195.5 -60z" />
<glyph unicode="&#x115;" horiz-adv-x="1128" d="M55 418q0 171 77 318t216 236t309 89q194 0 295 -104.5t101 -278.5q0 -37 -8.5 -84.5t-16.5 -75.5l-8 -29h-756q-6 -30 -6 -61q0 -121 77 -201t218 -80q79 0 161.5 30.5t125.5 60.5l43 30l57 -157q-7 -6 -20 -15t-54.5 -32.5t-85.5 -41.5t-108.5 -32.5t-126.5 -14.5 q-224 0 -357 123.5t-133 319.5zM297 639h553q4 22 4 55q0 101 -55 155t-146 54q-115 0 -212 -71t-144 -193zM719 1178q-116 0 -189 66.5t-51 172.5l6 29h148l-4 -27q-11 -61 17.5 -92t78.5 -31q51 0 92.5 31.5t52.5 93.5l7 25h147l-4 -29q-24 -120 -106 -179.5t-195 -59.5z " />
<glyph unicode="&#x116;" horiz-adv-x="1171" d="M78 0l284 1446h838l-35 -176h-637l-88 -453h518l-34 -176h-518l-91 -465h672l-33 -176h-876zM745 1606l41 200h177l-39 -200h-179z" />
<glyph unicode="&#x117;" horiz-adv-x="1128" d="M55 418q0 171 77 318t216 236t309 89q194 0 295 -104.5t101 -278.5q0 -37 -8.5 -84.5t-16.5 -75.5l-8 -29h-756q-6 -30 -6 -61q0 -121 77 -201t218 -80q79 0 161.5 30.5t125.5 60.5l43 30l57 -157q-7 -6 -20 -15t-54.5 -32.5t-85.5 -41.5t-108.5 -32.5t-126.5 -14.5 q-224 0 -357 123.5t-133 319.5zM297 639h553q4 22 4 55q0 101 -55 155t-146 54q-115 0 -212 -71t-144 -193zM633 1245l41 201h176l-39 -201h-178z" />
<glyph unicode="&#x118;" horiz-adv-x="1171" d="M78 0l284 1446h838l-35 -176h-637l-88 -453h518l-34 -176h-518l-91 -465h672l-33 -176q-172 -120 -172 -197q0 -29 25 -47.5t51 -21.5l25 -4l-76 -154q-8 1 -22 3t-49.5 12.5t-62.5 26.5t-49 47.5t-22 72.5q0 133 178 258v4h-702z" />
<glyph unicode="&#x119;" horiz-adv-x="1130" d="M55 418q0 171 77 318t216 236t309 89q194 0 295 -104.5t101 -278.5q0 -37 -8.5 -84.5t-16.5 -75.5l-8 -29h-756q-6 -30 -6 -61q0 -124 77 -202.5t218 -78.5q79 0 161.5 30.5t125.5 60.5l43 30l57 -157q-17 -14 -80.5 -52.5t-117.5 -73.5t-100 -86t-46 -96 q0 -29 25.5 -47.5t50.5 -21.5l26 -4l-75 -154q-8 1 -22 3t-49.5 12.5t-62.5 26.5t-49 47.5t-22 72.5q0 119 149 233v4h-22q-223 0 -356.5 123.5t-133.5 319.5zM297 639h553q4 22 4 55q0 101 -55 155t-146 54q-115 0 -212 -71t-144 -193z" />
<glyph unicode="&#x11a;" horiz-adv-x="1171" d="M78 0l284 1446h838l-35 -176h-637l-88 -453h518l-34 -176h-518l-91 -465h672l-33 -176h-876zM727 1546l-129 260h166l74 -166h4l141 166h182l-233 -260h-205z" />
<glyph unicode="&#x11b;" horiz-adv-x="1128" d="M55 418q0 171 77 318t216 236t309 89q194 0 295 -104.5t101 -278.5q0 -37 -8.5 -84.5t-16.5 -75.5l-8 -29h-756q-6 -30 -6 -61q0 -121 77 -201t218 -80q79 0 161.5 30.5t125.5 60.5l43 30l57 -157q-7 -6 -20 -15t-54.5 -32.5t-85.5 -41.5t-108.5 -32.5t-126.5 -14.5 q-224 0 -357 123.5t-133 319.5zM297 639h553q4 22 4 55q0 101 -55 155t-146 54q-115 0 -212 -71t-144 -193zM614 1186l-129 260h166l74 -166h4l141 166h183l-234 -260h-205z" />
<glyph unicode="&#x11c;" horiz-adv-x="1556" d="M111 590q0 176 70 338.5t187 281t277.5 189.5t333.5 71q98 0 187.5 -17.5t147 -43t101 -51t63.5 -42.5l19 -18l-123 -141q-6 5 -17 13.5t-48.5 30.5t-80 39t-109 30.5t-136.5 13.5q-185 0 -338.5 -96.5t-238 -253t-84.5 -334.5q0 -200 120 -319t312 -119q71 0 143.5 19.5 t125 47.5t94.5 56t63 47l22 20l39 199h-233l32 176h420l-141 -727h-176l16 90l15 62h-5q-7 -7 -20 -19t-57.5 -42.5t-93.5 -54t-125 -42.5t-154 -19q-171 0 -309 75.5t-218.5 216.5t-80.5 323zM707 1546l231 260h207l129 -260h-168l-74 164h-4l-139 -164h-182z" />
<glyph unicode="&#x11d;" horiz-adv-x="1210" d="M84 -190q13 -8 36 -19t95 -30t145 -19q144 0 249 71.5t134 219.5l17 76l18 71h-2q-124 -168 -319 -168q-187 0 -291.5 115.5t-104.5 304.5q0 88 22.5 176.5t69 170t110.5 144.5t153.5 100.5t191.5 37.5q69 0 127.5 -14t111.5 -52.5t77 -97.5h4q0 23 4 43l18 96h189 l-195 -1007q-25 -123 -83 -215t-138 -143.5t-167.5 -76t-184.5 -24.5q-210 0 -373 92zM264 446q0 -122 62.5 -192t179.5 -70q69 0 128.5 30t100.5 79.5t70.5 112.5t43 129.5t13.5 130.5q0 223 -237 223q-111 0 -195 -66t-125 -165.5t-41 -211.5zM410 1186l231 260h207 l129 -260h-168l-74 164h-4l-139 -164h-182z" />
<glyph unicode="&#x11e;" horiz-adv-x="1556" d="M111 590q0 176 70 338.5t187 281t277.5 189.5t333.5 71q98 0 187.5 -17.5t147 -43t101 -51t63.5 -42.5l19 -18l-123 -141q-6 5 -17 13.5t-48.5 30.5t-80 39t-109 30.5t-136.5 13.5q-185 0 -338.5 -96.5t-238 -253t-84.5 -334.5q0 -200 120 -319t312 -119q71 0 143.5 19.5 t125 47.5t94.5 56t63 47l22 20l39 199h-233l32 176h420l-141 -727h-176l16 90l15 62h-5q-7 -7 -20 -19t-57.5 -42.5t-93.5 -54t-125 -42.5t-154 -19q-171 0 -309 75.5t-218.5 216.5t-80.5 323zM1008 1538q-116 0 -189 67t-51 173l6 28h148l-4 -26q-11 -61 17.5 -92t78.5 -31 q51 0 92.5 31.5t52.5 93.5l6 24h148l-4 -28q-24 -120 -106 -180t-195 -60z" />
<glyph unicode="&#x11f;" horiz-adv-x="1210" d="M84 -190q13 -8 36 -19t95 -30t145 -19q144 0 249 71.5t134 219.5l17 76l18 71h-2q-124 -168 -319 -168q-187 0 -291.5 115.5t-104.5 304.5q0 88 22.5 176.5t69 170t110.5 144.5t153.5 100.5t191.5 37.5q69 0 127.5 -14t111.5 -52.5t77 -97.5h4q0 23 4 43l18 96h189 l-195 -1007q-25 -123 -83 -215t-138 -143.5t-167.5 -76t-184.5 -24.5q-210 0 -373 92zM264 446q0 -122 62.5 -192t179.5 -70q69 0 128.5 30t100.5 79.5t70.5 112.5t43 129.5t13.5 130.5q0 223 -237 223q-111 0 -195 -66t-125 -165.5t-41 -211.5zM711 1178q-116 0 -189 66.5 t-51 172.5l6 29h148l-4 -27q-11 -61 17.5 -92t78.5 -31q51 0 92.5 31.5t52.5 93.5l6 25h148l-4 -29q-24 -120 -106 -179.5t-195 -59.5z" />
<glyph unicode="&#x120;" horiz-adv-x="1556" d="M111 590q0 176 70 338.5t187 281t277.5 189.5t333.5 71q98 0 187.5 -17.5t147 -43t101 -51t63.5 -42.5l19 -18l-123 -141q-6 5 -17 13.5t-48.5 30.5t-80 39t-109 30.5t-136.5 13.5q-185 0 -338.5 -96.5t-238 -253t-84.5 -334.5q0 -200 120 -319t312 -119q71 0 143.5 19.5 t125 47.5t94.5 56t63 47l22 20l39 199h-233l32 176h420l-141 -727h-176l16 90l15 62h-5q-7 -7 -20 -19t-57.5 -42.5t-93.5 -54t-125 -42.5t-154 -19q-171 0 -309 75.5t-218.5 216.5t-80.5 323zM922 1606l41 200h176l-39 -200h-178z" />
<glyph unicode="&#x121;" horiz-adv-x="1210" d="M84 -190q13 -8 36 -19t95 -30t145 -19q144 0 249 71.5t134 219.5l17 76l18 71h-2q-124 -168 -319 -168q-187 0 -291.5 115.5t-104.5 304.5q0 88 22.5 176.5t69 170t110.5 144.5t153.5 100.5t191.5 37.5q69 0 127.5 -14t111.5 -52.5t77 -97.5h4q0 23 4 43l18 96h189 l-195 -1007q-25 -123 -83 -215t-138 -143.5t-167.5 -76t-184.5 -24.5q-210 0 -373 92zM264 446q0 -122 62.5 -192t179.5 -70q69 0 128.5 30t100.5 79.5t70.5 112.5t43 129.5t13.5 130.5q0 223 -237 223q-111 0 -195 -66t-125 -165.5t-41 -211.5zM625 1245l41 201h176 l-39 -201h-178z" />
<glyph unicode="&#x122;" horiz-adv-x="1556" d="M111 590q0 176 70 338.5t187 281t277.5 189.5t333.5 71q98 0 187.5 -17.5t147 -43t101 -51t63.5 -42.5l19 -18l-123 -141q-6 5 -17 13.5t-48.5 30.5t-80 39t-109 30.5t-136.5 13.5q-185 0 -338.5 -96.5t-238 -253t-84.5 -334.5q0 -200 120 -319t312 -119q71 0 143.5 19.5 t125 47.5t94.5 56t63 47l22 20l39 199h-233l32 176h420l-141 -727h-176l16 90l15 62h-5q-7 -7 -20 -19t-57.5 -42.5t-93.5 -54t-125 -42.5t-154 -19q-171 0 -309 75.5t-218.5 216.5t-80.5 323zM582 -121h174v-31q0 -70 -22 -129t-72 -137h-152q41 74 59.5 126t18.5 112 q0 29 -6 59z" />
<glyph unicode="&#x123;" horiz-adv-x="1210" d="M84 -190q13 -8 36 -19t95 -30t145 -19q144 0 249 71.5t134 219.5l17 76l18 71h-2q-124 -168 -319 -168q-187 0 -291.5 115.5t-104.5 304.5q0 88 22.5 176.5t69 170t110.5 144.5t153.5 100.5t191.5 37.5q69 0 127.5 -14t111.5 -52.5t77 -97.5h4q0 23 4 43l18 96h189 l-195 -1007q-25 -123 -83 -215t-138 -143.5t-167.5 -76t-184.5 -24.5q-210 0 -373 92zM264 446q0 -122 62.5 -192t179.5 -70q69 0 128.5 30t100.5 79.5t70.5 112.5t43 129.5t13.5 130.5q0 223 -237 223q-111 0 -195 -66t-125 -165.5t-41 -211.5zM1022 1153h-174v31 q0 69 22 127.5t72 134.5h152q-41 -74 -59.5 -125t-18.5 -109q0 -29 6 -59z" />
<glyph unicode="&#x124;" horiz-adv-x="1546" d="M78 0l282 1446h201l-125 -637h752l125 637h200l-282 -1446h-201l123 635h-752l-122 -635h-201zM666 1546l231 260h207l129 -260h-168l-74 164h-4l-139 -164h-182z" />
<glyph unicode="&#x125;" horiz-adv-x="1230" d="M35 0l280 1446h199l-102 -531l-23 -92h4q49 88 164 163t254 75q144 0 224.5 -69t80.5 -206q0 -56 -16 -131l-127 -655h-199l119 612q14 75 14 117q0 75 -40.5 112.5t-112.5 37.5q-152 0 -274.5 -119.5t-153.5 -286.5l-93 -473h-198zM145 1546l232 260h207l129 -260h-168 l-74 164h-4l-139 -164h-183z" />
<glyph unicode="&#x126;" horiz-adv-x="1634" d="M199 1053l26 139h129l49 254h203l-49 -254h750l49 254h203l-50 -254h127l-26 -139h-129l-205 -1053h-201l123 635h-752l-122 -635h-203l205 1053h-127zM481 809h752l47 244h-752z" />
<glyph unicode="&#x127;" horiz-adv-x="1232" d="M117 1153l24 129h144l32 164h199l-31 -164h273l-25 -129h-272l-45 -238l-25 -92h4q48 88 164 163t254 75q144 0 224.5 -69t80.5 -206q0 -56 -16 -131l-127 -655h-199l119 612q14 75 14 117q0 75 -40.5 112.5t-112.5 37.5q-152 0 -274.5 -119.5t-153.5 -286.5l-92 -473 h-199l223 1153h-143z" />
<glyph unicode="&#x128;" horiz-adv-x="595" d="M78 0l282 1446h201l-280 -1446h-203zM152 1548q50 260 243 260q36 0 64.5 -14.5t47 -35t35 -40.5t35.5 -34.5t41 -14.5q42 0 67 40t34 93h145q-51 -260 -243 -260q-35 0 -63.5 14.5t-47 35t-35.5 40.5t-37.5 34.5t-42.5 14.5q-39 0 -63 -39t-35 -94h-145z" />
<glyph unicode="&#x129;" horiz-adv-x="507" d="M35 1188q50 260 244 260q36 0 64.5 -14.5t47 -35t35 -40.5t35.5 -34.5t41 -14.5q41 0 66 39.5t34 93.5h146q-51 -260 -244 -260q-35 0 -63 14.5t-47 35t-36 40.5t-37 34.5t-42 14.5q-39 0 -63.5 -39t-35.5 -94h-145zM37 0l201 1036h198l-200 -1036h-199z" />
<glyph unicode="&#x12a;" horiz-adv-x="595" d="M78 0l282 1446h201l-280 -1446h-203zM233 1606l27 143h520l-26 -143h-521z" />
<glyph unicode="&#x12b;" horiz-adv-x="507" d="M119 1245l26 144h521l-27 -144h-520zM37 0l201 1036h198l-200 -1036h-199z" />
<glyph unicode="&#x12c;" horiz-adv-x="595" d="M78 0l282 1446h201l-280 -1446h-203zM492 1538q-116 0 -189 67t-51 173l6 28h148l-5 -26q-11 -61 18 -92t79 -31q51 0 92.5 31.5t52.5 93.5l6 24h148l-4 -28q-24 -120 -106 -180t-195 -60z" />
<glyph unicode="&#x12d;" horiz-adv-x="507" d="M377 1178q-116 0 -189 66.5t-51 172.5l6 29h148l-4 -27q-11 -61 17.5 -92t78.5 -31q51 0 92.5 31.5t52.5 93.5l7 25h147l-4 -29q-24 -120 -106 -179.5t-195 -59.5zM37 0l201 1036h198l-200 -1036h-199z" />
<glyph unicode="&#x12e;" horiz-adv-x="595" d="M78 0l282 1446h201l-280 -1446q-172 -120 -172 -197q0 -29 25 -47.5t50 -21.5l25 -4l-76 -154q-8 1 -22 3t-49.5 12.5t-62.5 26.5t-49 47.5t-22 72.5q0 133 178 258v4h-28z" />
<glyph unicode="&#x12f;" horiz-adv-x="509" d="M438 1036l-202 -1036q-173 -121 -173 -197q0 -29 25.5 -47.5t50.5 -21.5l25 -4l-76 -154q-8 1 -22 3t-49.5 12.5t-62.5 26.5t-49 47.5t-22 72.5q0 123 148 235l209 1063h198zM276 1243l39 203h205l-41 -203h-203z" />
<glyph unicode="&#x130;" horiz-adv-x="595" d="M78 0l282 1446h201l-280 -1446h-203zM406 1606l40 200h177l-39 -200h-178z" />
<glyph unicode="&#x131;" horiz-adv-x="507" d="M37 0l201 1036h198l-200 -1036h-199z" />
<glyph unicode="&#x132;" horiz-adv-x="1251" d="M467 -10l35 184q40 0 77 7t80.5 28t78.5 55t65 92.5t45 135.5l186 954h201l-186 -957q-24 -123 -69 -214.5t-98.5 -145t-125.5 -85.5t-139.5 -43t-149.5 -11zM78 0l282 1446h201l-282 -1446h-201z" />
<glyph unicode="&#x133;" horiz-adv-x="1019" d="M274 1243l39 203h205l-41 -203h-203zM35 0l203 1036h198l-203 -1036h-198zM786 1243l39 203h205l-39 -203h-205zM545 -23l205 1059h198l-209 -1069q-16 -83 -47 -149t-71 -107t-82 -69t-89 -41t-82.5 -18t-72.5 -5l-94 4l32 170q19 -2 46 -2t53.5 4t61.5 18t63 37 t52.5 66.5t35.5 101.5z" />
<glyph unicode="&#x134;" horiz-adv-x="1089" d="M10 317q0 56 10 107l13 63h200l-10 -59q-8 -54 -8 -82q0 -184 182 -184q95 0 172 62.5t103 193.5l166 852h-363l35 176h563l-203 -1047q-21 -110 -70 -194t-114.5 -133t-139 -73t-153.5 -24q-77 0 -145 20.5t-122 61t-85 107.5t-31 153zM516 1546l232 260h206l129 -260 h-168l-73 164h-4l-140 -164h-182z" />
<glyph unicode="&#x135;" horiz-adv-x="507" d="M72 1186l231 260h205l129 -260h-166l-74 166h-4l-141 -166h-180zM31 -23l207 1059h198l-209 -1069q-16 -83 -47 -149t-71 -107t-82 -69t-89 -41t-82.5 -18t-72.5 -5l-94 4l32 170q19 -2 46 -2q36 0 69.5 7.5t75 29t73.5 70.5t46 120z" />
<glyph unicode="&#x136;" horiz-adv-x="1275" d="M78 0l282 1446h201l-119 -608h207l492 608h235l-565 -694v-4l299 -748h-215l-258 664h-229l-129 -664h-201zM434 -121h174v-31q0 -70 -22 -129t-72 -137h-152q41 74 59.5 126t18.5 112q0 29 -6 59z" />
<glyph unicode="&#x137;" horiz-adv-x="1073" d="M35 0l282 1446h199l-156 -789h142l358 379h240l-443 -465v-4l269 -567h-215l-219 485h-164l-95 -485h-198zM360 -121h175v-31q0 -70 -22 -128.5t-73 -137.5h-151q41 74 59.5 126t18.5 112q0 24 -7 59z" />
<glyph unicode="&#x138;" horiz-adv-x="1069" d="M37 0l203 1036h196l-78 -407h144l375 407h243l-467 -493v-4l258 -539h-219l-203 461h-163l-90 -461h-199z" />
<glyph unicode="&#x139;" horiz-adv-x="1071" d="M78 0l282 1446h203l-248 -1270h648l-37 -176h-848zM383 1546l201 260h223l-246 -260h-178z" />
<glyph unicode="&#x13a;" horiz-adv-x="540" d="M72 209q0 33 10 88l223 1149h199l-215 -1114q-10 -48 -10 -78q0 -51 25.5 -67.5t66.5 -16.5l32 2l-36 -176q-29 -4 -60 -4q-45 0 -83.5 9.5t-74.5 32.5t-56.5 67.5t-20.5 107.5zM330 1546l200 260h224l-246 -260h-178z" />
<glyph unicode="&#x13b;" horiz-adv-x="1071" d="M78 0l282 1446h203l-248 -1270h648l-37 -176h-848zM403 -121h175v-31q0 -70 -22 -128.5t-73 -137.5h-151q41 74 59.5 126t18.5 112q0 24 -7 59z" />
<glyph unicode="&#x13c;" horiz-adv-x="540" d="M72 209q0 33 10 88l223 1149h199l-215 -1114q-10 -48 -10 -78q0 -51 25.5 -67.5t66.5 -16.5l32 2l-36 -176q-29 -4 -60 -4q-45 0 -83.5 9.5t-74.5 32.5t-56.5 67.5t-20.5 107.5zM90 -121h174v-31q0 -70 -22 -129t-72 -137h-152q41 74 59.5 126t18.5 112q0 29 -6 59z" />
<glyph unicode="&#x13d;" horiz-adv-x="1071" d="M78 0l282 1446h203l-248 -1270h648l-37 -176h-848zM735 1446h174v-31q0 -70 -22 -129t-72 -137h-151q41 73 59 125t18 112q0 30 -6 60z" />
<glyph unicode="&#x13e;" horiz-adv-x="602" d="M72 209q0 33 10 88l223 1149h199l-215 -1114q-10 -48 -10 -78q0 -51 25.5 -67.5t66.5 -16.5l32 2l-36 -176q-29 -4 -60 -4q-45 0 -83.5 9.5t-74.5 32.5t-56.5 67.5t-20.5 107.5zM625 1446h174v-31q0 -70 -22 -129t-72 -137h-152q41 74 59.5 125.5t18.5 111.5q0 30 -6 60z " />
<glyph unicode="&#x13f;" horiz-adv-x="1071" d="M78 0l282 1446h203l-248 -1270h648l-37 -176h-848zM649 668l41 215h207l-41 -215h-207z" />
<glyph unicode="&#x140;" horiz-adv-x="696" d="M72 209q0 33 10 88l223 1149h199l-215 -1114q-10 -48 -10 -78q0 -51 25.5 -67.5t66.5 -16.5l32 2l-36 -176q-29 -4 -60 -4q-45 0 -83.5 9.5t-74.5 32.5t-56.5 67.5t-20.5 107.5zM500 668l41 215h207l-41 -215h-207z" />
<glyph unicode="&#x141;" horiz-adv-x="1116" d="M111 547l36 198l138 70l123 631h200l-100 -516l248 129l-39 -199l-248 -129l-109 -555h648l-35 -176h-848l121 616z" />
<glyph unicode="&#x142;" horiz-adv-x="651" d="M63 563l37 199l164 84l117 600h199l-95 -485l189 98l-39 -199l-189 -98l-84 -440q-8 -46 -8 -68q0 -51 25.5 -67.5t66.5 -16.5l33 2l-37 -176q-28 -4 -59 -4q-45 0 -83.5 9.5t-74.5 32.5t-57 67.5t-21 107.5q0 27 11 88l67 350z" />
<glyph unicode="&#x143;" horiz-adv-x="1536" d="M78 0l282 1446h187l463 -940q16 -34 35.5 -86t30.5 -88l11 -35h5q10 129 26 209l182 940h203l-282 -1446h-187l-463 938q-17 36 -37 88.5t-31 87.5l-11 35h-5q-10 -129 -26 -211l-182 -938h-201zM854 1546l201 260h223l-246 -260h-178z" />
<glyph unicode="&#x144;" horiz-adv-x="1232" d="M37 0l201 1036h194l-22 -121q-4 -22 -11.5 -46.5t-12.5 -38.5l-5 -13h4q48 90 167 167t261 77t222.5 -69t80.5 -206q0 -49 -14 -131l-127 -655h-199l119 612q14 75 14 117q0 75 -40.5 112.5t-112.5 37.5q-153 0 -275 -119.5t-155 -286.5l-90 -473h-199zM657 1186l201 260 h223l-245 -260h-179z" />
<glyph unicode="&#x145;" horiz-adv-x="1536" d="M78 0l282 1446h187l463 -940q16 -34 35.5 -86t30.5 -88l11 -35h5q10 129 26 209l182 940h203l-282 -1446h-187l-463 938q-17 36 -37 88.5t-31 87.5l-11 35h-5q-10 -129 -26 -211l-182 -938h-201zM549 -121h174v-31q0 -70 -22 -129t-72 -137h-152q41 74 59.5 126t18.5 112 q0 29 -6 59z" />
<glyph unicode="&#x146;" horiz-adv-x="1232" d="M37 0l201 1036h194l-22 -121q-4 -22 -11.5 -46.5t-12.5 -38.5l-5 -13h4q48 90 167 167t261 77t222.5 -69t80.5 -206q0 -49 -14 -131l-127 -655h-199l119 612q14 75 14 117q0 75 -40.5 112.5t-112.5 37.5q-153 0 -275 -119.5t-155 -286.5l-90 -473h-199zM410 -121h174v-31 q0 -70 -22 -128.5t-73 -137.5h-151q41 74 59.5 126t18.5 112q0 29 -6 59z" />
<glyph unicode="&#x147;" horiz-adv-x="1536" d="M78 0l282 1446h187l463 -940q16 -34 35.5 -86t30.5 -88l11 -35h5q10 129 26 209l182 940h203l-282 -1446h-187l-463 938q-17 36 -37 88.5t-31 87.5l-11 35h-5q-10 -129 -26 -211l-182 -938h-201zM854 1546l-129 260h166l74 -166h4l141 166h182l-233 -260h-205z" />
<glyph unicode="&#x148;" horiz-adv-x="1232" d="M37 0l201 1036h194l-22 -121q-4 -22 -11.5 -46.5t-12.5 -38.5l-5 -13h4q48 90 167 167t261 77t222.5 -69t80.5 -206q0 -49 -14 -131l-127 -655h-199l119 612q14 75 14 117q0 75 -40.5 112.5t-112.5 37.5q-153 0 -275 -119.5t-155 -286.5l-90 -473h-199zM657 1186 l-129 260h166l74 -166h4l141 166h183l-234 -260h-205z" />
<glyph unicode="&#x149;" horiz-adv-x="1232" d="M37 0l201 1036h194l-22 -121q-4 -22 -11.5 -46.5t-12.5 -38.5l-5 -13h4q48 90 167 167t261 77t222.5 -69t80.5 -206q0 -49 -14 -131l-127 -655h-199l119 612q14 75 14 117q0 75 -40.5 112.5t-112.5 37.5q-153 0 -275 -119.5t-155 -286.5l-90 -473h-199zM166 1446h174v-31 q0 -70 -22 -129t-72 -137h-152q41 74 59.5 125.5t18.5 111.5q0 30 -6 60z" />
<glyph unicode="&#x14a;" horiz-adv-x="1536" d="M78 0l282 1446h189l461 -940q16 -35 35.5 -87t30.5 -87l11 -35h5q10 129 26 209l185 940h200l-266 -1366q-25 -126 -72 -219t-101.5 -146t-127.5 -84.5t-137.5 -41t-143.5 -9.5l35 184q47 0 91 10.5t92 37t88 80.5t63 131l-453 915q-17 35 -36.5 87.5t-30.5 88.5l-10 35 h-5q-10 -129 -26 -211l-182 -938h-203z" />
<glyph unicode="&#x14b;" horiz-adv-x="1232" d="M37 0l203 1036h192l-22 -121q-4 -22 -10.5 -46.5t-11.5 -38.5l-5 -13h4q30 55 88 108.5t150 94.5t188 41q144 0 224.5 -69t80.5 -206q0 -56 -16 -131l-133 -694q-16 -83 -47.5 -149t-71.5 -107t-82.5 -69t-90 -41t-83 -18t-72.5 -5l-94 4l35 170q16 -2 45 -2q27 0 52.5 4 t60.5 18t63 37.5t52.5 67.5t35.5 102l123 639q14 75 14 117q0 75 -40.5 112.5t-112.5 37.5q-152 0 -274.5 -119.5t-153.5 -286.5l-92 -473h-199z" />
<glyph unicode="&#x14c;" horiz-adv-x="1677" d="M109 606q0 171 73 332t192.5 276.5t277 185.5t319.5 70q288 0 466.5 -172t178.5 -442q0 -174 -74 -338t-194 -282t-277.5 -189.5t-318.5 -71.5q-190 0 -337 81t-226.5 224.5t-79.5 325.5zM315 614q0 -199 122.5 -325.5t316.5 -126.5q120 0 238.5 54.5t210 145.5t148 219 t56.5 265q0 194 -122.5 316t-315.5 122q-122 0 -241 -53t-210 -142t-147 -214.5t-56 -260.5zM768 1606l27 143h520l-27 -143h-520z" />
<glyph unicode="&#x14d;" horiz-adv-x="1273" d="M53 432q0 130 54.5 248t143.5 200.5t205.5 131.5t237.5 49q217 0 354.5 -126t137.5 -327q0 -174 -93.5 -321.5t-240 -229.5t-305.5 -82q-218 0 -356 127.5t-138 329.5zM256 440q0 -130 82 -211.5t211 -81.5q107 0 206.5 58.5t163.5 163.5t64 229q0 129 -81.5 210 t-209.5 81q-109 0 -209 -58.5t-163.5 -163t-63.5 -227.5zM502 1245l26 144h521l-27 -144h-520z" />
<glyph unicode="&#x14e;" horiz-adv-x="1677" d="M109 606q0 171 73 332t192.5 276.5t277 185.5t319.5 70q288 0 466.5 -172t178.5 -442q0 -174 -74 -338t-194 -282t-277.5 -189.5t-318.5 -71.5q-190 0 -337 81t-226.5 224.5t-79.5 325.5zM315 614q0 -199 122.5 -325.5t316.5 -126.5q120 0 238.5 54.5t210 145.5t148 219 t56.5 265q0 194 -122.5 316t-315.5 122q-122 0 -241 -53t-210 -142t-147 -214.5t-56 -260.5zM1026 1538q-116 0 -189 67t-51 173l7 28h147l-4 -26q-11 -61 17.5 -92t78.5 -31q51 0 93 31.5t53 93.5l6 24h147l-4 -28q-24 -120 -106 -180t-195 -60z" />
<glyph unicode="&#x14f;" horiz-adv-x="1273" d="M53 432q0 130 54.5 248t143.5 200.5t205.5 131.5t237.5 49q217 0 354.5 -126t137.5 -327q0 -174 -93.5 -321.5t-240 -229.5t-305.5 -82q-218 0 -356 127.5t-138 329.5zM256 440q0 -130 82 -211.5t211 -81.5q107 0 206.5 58.5t163.5 163.5t64 229q0 129 -81.5 210 t-209.5 81q-109 0 -209 -58.5t-163.5 -163t-63.5 -227.5zM758 1178q-116 0 -189 66.5t-51 172.5l6 29h148l-4 -27q-11 -61 17.5 -92t78.5 -31q51 0 92.5 31.5t52.5 93.5l6 25h148l-4 -29q-24 -120 -106 -179.5t-195 -59.5z" />
<glyph unicode="&#x150;" horiz-adv-x="1677" d="M109 606q0 171 73 332t192.5 276.5t277 185.5t319.5 70q288 0 466.5 -172t178.5 -442q0 -174 -74 -338t-194 -282t-277.5 -189.5t-318.5 -71.5q-190 0 -337 81t-226.5 224.5t-79.5 325.5zM315 614q0 -199 122.5 -325.5t316.5 -126.5q120 0 238.5 54.5t210 145.5t148 219 t56.5 265q0 194 -122.5 316t-315.5 122q-122 0 -241 -53t-210 -142t-147 -214.5t-56 -260.5zM1057 1546l203 260h215l-246 -260h-172zM741 1546l193 260h188l-196 -260h-185z" />
<glyph unicode="&#x151;" horiz-adv-x="1273" d="M53 432q0 130 54.5 248t143.5 200.5t205.5 131.5t237.5 49q217 0 354.5 -126t137.5 -327q0 -174 -93.5 -321.5t-240 -229.5t-305.5 -82q-218 0 -356 127.5t-138 329.5zM256 440q0 -130 82 -211.5t211 -81.5q107 0 206.5 58.5t163.5 163.5t64 229q0 129 -81.5 210 t-209.5 81q-109 0 -209 -58.5t-163.5 -163t-63.5 -227.5zM788 1186l203 260h215l-245 -260h-173zM473 1186l193 260h188l-197 -260h-184z" />
<glyph unicode="&#x152;" horiz-adv-x="1964" d="M109 598q0 173 71.5 333.5t189.5 276.5t276.5 186t324.5 70q64 0 157 -9t132 -9h735l-35 -176h-639l-88 -453h518l-35 -176h-518l-90 -465h674l-35 -176h-743q-32 0 -117 -9t-137 -9q-190 0 -336.5 79t-225.5 219t-79 318zM315 598q0 -193 121 -314.5t324 -121.5 q36 0 73 4t55 8l19 4l211 1092q-59 14 -141 14q-131 0 -253 -55t-211.5 -147t-143.5 -219t-54 -265z" />
<glyph unicode="&#x153;" horiz-adv-x="2039" d="M53 432q0 130 54.5 248t143.5 200.5t205 131.5t236 49q145 0 254 -65.5t162 -180.5h4q80 114 199 180t258 66q194 0 294.5 -104.5t100.5 -278.5q0 -37 -8 -84.5t-16 -75.5l-9 -29h-753q-7 -40 -7 -63q0 -127 81.5 -203t213.5 -76q78 0 160.5 30.5t125.5 60.5l44 30 l55 -157q-7 -6 -20 -15t-54.5 -32.5t-85 -41.5t-108.5 -32.5t-127 -14.5q-154 0 -264 66t-162 186h-4q-88 -117 -216.5 -184.5t-264.5 -67.5q-218 0 -355 127t-137 330zM1210 639h551q6 26 6 55q0 101 -54.5 155t-145.5 54q-116 0 -213 -71t-144 -193zM256 440 q0 -130 81 -211.5t210 -81.5q107 0 207 58.5t163.5 163.5t63.5 229q0 129 -81 210t-210 81q-108 0 -208 -58.5t-163 -163t-63 -227.5z" />
<glyph unicode="&#x154;" horiz-adv-x="1306" d="M78 0l282 1446h492q127 0 205 -37q87 -40 135.5 -119t48.5 -184q0 -164 -94.5 -298t-253.5 -179v-4q11 -21 27 -66l200 -559h-215l-198 575h-316l-110 -575h-203zM426 752h285q136 0 228.5 89.5t92.5 235.5q0 91 -57 142t-158 51h-291zM717 1546l201 260h223l-246 -260 h-178z" />
<glyph unicode="&#x155;" horiz-adv-x="765" d="M37 0l201 1036h192l-37 -180l-20 -84h2q56 118 157 197.5t218 79.5q31 0 61 -5l-39 -196q-21 6 -55 6q-92 0 -179 -69t-147 -177.5t-84 -230.5l-71 -377h-199zM477 1186l201 260h223l-246 -260h-178z" />
<glyph unicode="&#x156;" horiz-adv-x="1306" d="M78 0l282 1446h492q127 0 205 -37q87 -40 135.5 -119t48.5 -184q0 -164 -94.5 -298t-253.5 -179v-4q11 -21 27 -66l200 -559h-215l-198 575h-316l-110 -575h-203zM426 752h285q136 0 228.5 89.5t92.5 235.5q0 91 -57 142t-158 51h-291zM461 -121h174v-31q0 -70 -22 -129 t-72 -137h-152q41 74 59.5 126t18.5 112q0 29 -6 59z" />
<glyph unicode="&#x157;" horiz-adv-x="765" d="M37 0l201 1036h192l-37 -180l-20 -84h2q56 118 157 197.5t218 79.5q31 0 61 -5l-39 -196q-21 6 -55 6q-92 0 -179 -69t-147 -177.5t-84 -230.5l-71 -377h-199zM33 -121h174v-31q0 -70 -22 -129t-72 -137h-152q41 74 59.5 126t18.5 112q0 29 -6 59z" />
<glyph unicode="&#x158;" horiz-adv-x="1306" d="M78 0l282 1446h492q127 0 205 -37q87 -40 135.5 -119t48.5 -184q0 -164 -94.5 -298t-253.5 -179v-4q11 -21 27 -66l200 -559h-215l-198 575h-316l-110 -575h-203zM426 752h285q136 0 228.5 89.5t92.5 235.5q0 91 -57 142t-158 51h-291zM717 1546l-129 260h166l73 -166h4 l142 166h182l-233 -260h-205z" />
<glyph unicode="&#x159;" horiz-adv-x="765" d="M37 0l201 1036h192l-37 -180l-20 -84h2q56 118 157 197.5t218 79.5q31 0 61 -5l-39 -196q-21 6 -55 6q-92 0 -179 -69t-147 -177.5t-84 -230.5l-71 -377h-199zM477 1186l-129 260h166l74 -166h4l141 166h182l-233 -260h-205z" />
<glyph unicode="&#x15a;" horiz-adv-x="1120" d="M6 166l127 143q5 -6 15 -15.5t43.5 -34.5t71.5 -44.5t98 -35t124 -15.5q115 0 205 68.5t90 181.5q0 51 -32 93.5t-83.5 74.5t-113 62.5t-123.5 66.5t-113.5 78.5t-83.5 106.5t-32 142q0 119 69.5 218.5t187.5 156.5t257 57q80 0 152 -15t118 -37t80.5 -43.5t49.5 -36.5 l15 -15l-114 -149q-5 4 -13.5 11.5t-38.5 26t-63 33t-84 26t-104 11.5q-126 0 -218 -74.5t-92 -169.5q0 -47 32.5 -87t84 -70.5t114 -60.5t125 -67t114 -81t84 -110.5t32.5 -147.5q0 -178 -146 -308.5t-360 -130.5q-91 0 -173 19.5t-135 47.5t-92.5 56.5t-56.5 47.5z M651 1546l201 260h223l-246 -260h-178z" />
<glyph unicode="&#x15b;" horiz-adv-x="909" d="M-23 125l109 131q4 -5 12 -12.5t36 -27t58.5 -34.5t79.5 -27t101 -12q80 0 144.5 41.5t64.5 112.5q0 32 -25 58.5t-65 46.5t-89 41t-97.5 47t-88.5 58.5t-65 82t-25 110.5q0 97 59 172t148 111.5t190 36.5q64 0 122 -12t95.5 -29t66 -33.5t41.5 -28.5l13 -12l-98 -137 q-3 3 -9.5 9t-28.5 20.5t-48 25.5t-68 20t-88 9q-78 0 -142.5 -38.5t-64.5 -111.5q0 -32 25 -58.5t65.5 -46.5t89.5 -41t97.5 -47.5t89 -59t65.5 -82t25 -111.5q0 -140 -115.5 -231t-283.5 -91q-72 0 -139 15.5t-111.5 37.5t-79 44t-50.5 38zM475 1186l201 260h223 l-246 -260h-178z" />
<glyph unicode="&#x15c;" horiz-adv-x="1120" d="M6 166l127 143q5 -6 15 -15.5t43.5 -34.5t71.5 -44.5t98 -35t124 -15.5q115 0 205 68.5t90 181.5q0 51 -32 93.5t-83.5 74.5t-113 62.5t-123.5 66.5t-113.5 78.5t-83.5 106.5t-32 142q0 119 69.5 218.5t187.5 156.5t257 57q80 0 152 -15t118 -37t80.5 -43.5t49.5 -36.5 l15 -15l-114 -149q-5 4 -13.5 11.5t-38.5 26t-63 33t-84 26t-104 11.5q-126 0 -218 -74.5t-92 -169.5q0 -47 32.5 -87t84 -70.5t114 -60.5t125 -67t114 -81t84 -110.5t32.5 -147.5q0 -178 -146 -308.5t-360 -130.5q-91 0 -173 19.5t-135 47.5t-92.5 56.5t-56.5 47.5z M455 1546l231 260h207l129 -260h-168l-74 164h-4l-139 -164h-182z" />
<glyph unicode="&#x15d;" horiz-adv-x="909" d="M-23 125l109 131q4 -5 12 -12.5t36 -27t58.5 -34.5t79.5 -27t101 -12q80 0 144.5 41.5t64.5 112.5q0 32 -25 58.5t-65 46.5t-89 41t-97.5 47t-88.5 58.5t-65 82t-25 110.5q0 97 59 172t148 111.5t190 36.5q64 0 122 -12t95.5 -29t66 -33.5t41.5 -28.5l13 -12l-98 -137 q-3 3 -9.5 9t-28.5 20.5t-48 25.5t-68 20t-88 9q-78 0 -142.5 -38.5t-64.5 -111.5q0 -32 25 -58.5t65.5 -46.5t89.5 -41t97.5 -47.5t89 -59t65.5 -82t25 -111.5q0 -140 -115.5 -231t-283.5 -91q-72 0 -139 15.5t-111.5 37.5t-79 44t-50.5 38zM279 1186l231 260h207l129 -260 h-168l-74 164h-4l-139 -164h-182z" />
<glyph unicode="&#x15e;" horiz-adv-x="1120" d="M252 -293q39 -12 84 -12q44 0 77 18t33 56q0 53 -96 53l-37 -2l72 162q-72 9 -137.5 31t-108 47.5t-74 49.5t-45.5 40l-14 16l127 143q5 -6 15 -15.5t43.5 -34.5t71.5 -44.5t98 -35t124 -15.5q115 0 205 68.5t90 181.5q0 51 -32 93.5t-83.5 74.5t-113 62.5t-123.5 66.5 t-113.5 78.5t-83.5 106.5t-32 142q0 119 69.5 218.5t187.5 156.5t257 57q80 0 152 -15t118 -37t80.5 -43.5t49.5 -36.5l15 -15l-114 -149q-5 4 -13.5 11.5t-38.5 26t-63 33t-84 26t-104 11.5q-126 0 -218 -74.5t-92 -169.5q0 -47 32.5 -87t84 -70.5t114 -60.5t125 -67 t114 -81t84 -110.5t32.5 -147.5q0 -175 -141 -304t-350 -135l-33 -77q50 -9 86.5 -43t36.5 -91q0 -39 -15 -71.5t-39 -54t-55 -36t-63 -20.5t-64 -6t-62.5 3.5t-44.5 6.5l-14 4z" />
<glyph unicode="&#x15f;" horiz-adv-x="909" d="M135 -293q39 -12 84 -12t78 18t33 56q0 53 -97 53l-36 -2l73 164q-53 9 -103 26.5t-83 36.5t-58.5 37t-37.5 30l-11 11l109 131q4 -5 12 -12.5t36 -27t58.5 -34.5t79.5 -27t101 -12q80 0 144.5 41.5t64.5 112.5q0 32 -25 58.5t-65 46.5t-89 41t-97.5 47t-88.5 58.5 t-65 82t-25 110.5q0 97 59 172t148 111.5t190 36.5q64 0 122 -12t95.5 -29t66 -33.5t41.5 -28.5l13 -12l-98 -137q-3 3 -9.5 9t-28.5 20.5t-48 25.5t-68 20t-88 9q-78 0 -142.5 -38.5t-64.5 -111.5q0 -32 25 -58.5t65.5 -46.5t89.5 -41t97.5 -47.5t89 -59t65.5 -82 t25 -111.5q0 -139 -114 -229.5t-279 -92.5l-33 -77q50 -9 86.5 -43t36.5 -91q0 -39 -15 -71.5t-39 -54t-55 -36t-63 -20.5t-64 -6t-62 3.5t-44 6.5l-14 4z" />
<glyph unicode="&#x160;" horiz-adv-x="1120" d="M6 166l127 143q5 -6 15 -15.5t43.5 -34.5t71.5 -44.5t98 -35t124 -15.5q115 0 205 68.5t90 181.5q0 51 -32 93.5t-83.5 74.5t-113 62.5t-123.5 66.5t-113.5 78.5t-83.5 106.5t-32 142q0 119 69.5 218.5t187.5 156.5t257 57q80 0 152 -15t118 -37t80.5 -43.5t49.5 -36.5 l15 -15l-114 -149q-5 4 -13.5 11.5t-38.5 26t-63 33t-84 26t-104 11.5q-126 0 -218 -74.5t-92 -169.5q0 -47 32.5 -87t84 -70.5t114 -60.5t125 -67t114 -81t84 -110.5t32.5 -147.5q0 -178 -146 -308.5t-360 -130.5q-91 0 -173 19.5t-135 47.5t-92.5 56.5t-56.5 47.5z M651 1546l-129 260h166l74 -166h4l141 166h183l-234 -260h-205z" />
<glyph unicode="&#x161;" horiz-adv-x="909" d="M-23 125l109 131q4 -5 12 -12.5t36 -27t58.5 -34.5t79.5 -27t101 -12q80 0 144.5 41.5t64.5 112.5q0 32 -25 58.5t-65 46.5t-89 41t-97.5 47t-88.5 58.5t-65 82t-25 110.5q0 97 59 172t148 111.5t190 36.5q64 0 122 -12t95.5 -29t66 -33.5t41.5 -28.5l13 -12l-98 -137 q-3 3 -9.5 9t-28.5 20.5t-48 25.5t-68 20t-88 9q-78 0 -142.5 -38.5t-64.5 -111.5q0 -32 25 -58.5t65.5 -46.5t89.5 -41t97.5 -47.5t89 -59t65.5 -82t25 -111.5q0 -140 -115.5 -231t-283.5 -91q-72 0 -139 15.5t-111.5 37.5t-79 44t-50.5 38zM475 1186l-129 260h166l74 -166 h4l141 166h182l-233 -260h-205z" />
<glyph unicode="&#x162;" horiz-adv-x="1206" d="M379 0l248 1270h-496l33 176h1194l-33 -176h-498l-245 -1270h-43l-43 -102q50 -8 86 -42.5t36 -91.5q0 -64 -38.5 -108.5t-89.5 -62t-107 -17.5q-32 0 -62.5 3.5t-44.5 6.5l-14 4l23 117q39 -12 84 -12q44 0 77 18t33 56q0 53 -96 53l-37 -2l80 180h-47z" />
<glyph unicode="&#x163;" horiz-adv-x="724" d="M106 -293q39 -12 84 -12t78 18t33 56q0 53 -96 53l-37 -2l100 221q-123 73 -123 254q0 41 13 104l90 465h-135l30 162h140l59 295h193l-60 -295h250l-31 -162h-250l-86 -452q-8 -41 -8 -82q0 -162 170 -162l60 4l-35 -176q-33 -4 -66 -4q-61 0 -117 12l-45 -106 q50 -9 86.5 -43t36.5 -91q0 -64 -38.5 -108.5t-89.5 -62t-107 -17.5q-32 0 -62.5 3.5t-44.5 6.5l-14 4z" />
<glyph unicode="&#x164;" horiz-adv-x="1206" d="M379 0l248 1270h-496l33 176h1194l-33 -176h-498l-245 -1270h-203zM684 1546l-129 260h166l74 -166h4l141 166h182l-233 -260h-205z" />
<glyph unicode="&#x165;" horiz-adv-x="722" d="M143 295q0 41 13 104l90 465h-135l30 162h140l59 295h192l-59 -295h250l-31 -162h-250l-86 -452q-8 -41 -8 -82q0 -162 170 -162l60 4l-35 -176q-33 -4 -66 -4q-52 0 -96.5 7.5t-89.5 28.5t-77 54t-51.5 87.5t-19.5 125.5zM680 1448h174v-31q0 -69 -22 -126t-72 -134 h-152q41 72 59.5 122.5t18.5 109.5q0 29 -6 59z" />
<glyph unicode="&#x166;" horiz-adv-x="1255" d="M205 635l33 156h317l94 479h-495l34 176h1192l-32 -176h-498l-94 -479h331l-30 -156h-330l-123 -635h-203l123 635h-319z" />
<glyph unicode="&#x167;" horiz-adv-x="768" d="M66 530l26 140h135l39 194h-135l31 162h139l57 295h193l-57 -295h249l-30 -162h-250l-39 -194h250l-27 -140h-250l-22 -118q-8 -41 -8 -82q0 -162 172 -162l57 4l-35 -176q-30 -4 -63 -4q-52 0 -97 7.5t-90 28.5t-77 54t-52 87.5t-20 125.5q0 45 12 104l25 131h-133z" />
<glyph unicode="&#x168;" horiz-adv-x="1488" d="M147 403q0 50 13 117l180 926h201l-181 -932q-8 -39 -8 -86q0 -127 80 -196.5t225 -69.5q169 0 286 94.5t149 261.5l182 928h201l-185 -944q-47 -242 -218.5 -384.5t-418.5 -142.5q-225 0 -365.5 114t-140.5 314zM594 1548q50 260 244 260q36 0 64.5 -14.5t47 -35 t35 -40.5t35.5 -34.5t41 -14.5q41 0 66 39.5t34 93.5h146q-51 -260 -244 -260q-35 0 -63 14.5t-47 35t-36 40.5t-37 34.5t-42 14.5q-39 0 -63.5 -39t-35.5 -94h-145z" />
<glyph unicode="&#x169;" horiz-adv-x="1220" d="M80 250q0 49 14 131l127 655h199l-119 -610q-12 -68 -12 -119q0 -72 35 -109.5t120 -37.5q100 0 189.5 59.5t147 151t77.5 194.5l92 471h199l-201 -1036h-194l24 121q4 22 11 46.5l11 38.5l5 13h-4q-23 -40 -61 -80.5t-91 -78.5t-123.5 -61.5t-144.5 -23.5 q-63 0 -115.5 15t-95 46.5t-66.5 86t-24 127.5zM383 1188q50 260 244 260q36 0 64.5 -14.5t47 -35t35 -40.5t35.5 -34.5t41 -14.5q41 0 66 39.5t34 93.5h146q-51 -260 -244 -260q-35 0 -63 14.5t-47 35t-36 40.5t-37 34.5t-42 14.5q-39 0 -63.5 -39t-35.5 -94h-145z" />
<glyph unicode="&#x16a;" horiz-adv-x="1488" d="M147 403q0 50 13 117l180 926h201l-181 -932q-8 -39 -8 -86q0 -127 80 -196.5t225 -69.5q169 0 286 94.5t149 261.5l182 928h201l-185 -944q-47 -242 -218.5 -384.5t-418.5 -142.5q-225 0 -365.5 114t-140.5 314zM678 1606l27 143h520l-27 -143h-520z" />
<glyph unicode="&#x16b;" horiz-adv-x="1220" d="M80 250q0 49 14 131l127 655h199l-119 -610q-12 -68 -12 -119q0 -72 35 -109.5t120 -37.5q100 0 189.5 59.5t147 151t77.5 194.5l92 471h199l-201 -1036h-194l24 121q4 22 11 46.5l11 38.5l5 13h-4q-23 -40 -61 -80.5t-91 -78.5t-123.5 -61.5t-144.5 -23.5 q-63 0 -115.5 15t-95 46.5t-66.5 86t-24 127.5zM467 1245l27 144h520l-27 -144h-520z" />
<glyph unicode="&#x16c;" horiz-adv-x="1488" d="M147 403q0 50 13 117l180 926h201l-181 -932q-8 -39 -8 -86q0 -127 80 -196.5t225 -69.5q169 0 286 94.5t149 261.5l182 928h201l-185 -944q-47 -242 -218.5 -384.5t-418.5 -142.5q-225 0 -365.5 114t-140.5 314zM936 1538q-116 0 -189 67t-51 173l6 28h148l-4 -26 q-11 -61 17.5 -92t78.5 -31q51 0 92.5 31.5t52.5 93.5l7 24h147l-4 -28q-24 -120 -106 -180t-195 -60z" />
<glyph unicode="&#x16d;" horiz-adv-x="1220" d="M80 250q0 49 14 131l127 655h199l-119 -610q-12 -68 -12 -119q0 -72 35 -109.5t120 -37.5q100 0 189.5 59.5t147 151t77.5 194.5l92 471h199l-201 -1036h-194l24 121q4 22 11 46.5l11 38.5l5 13h-4q-23 -40 -61 -80.5t-91 -78.5t-123.5 -61.5t-144.5 -23.5 q-63 0 -115.5 15t-95 46.5t-66.5 86t-24 127.5zM723 1178q-116 0 -189 66.5t-51 172.5l6 29h148l-4 -27q-11 -61 17.5 -92t78.5 -31q51 0 92.5 31.5t52.5 93.5l7 25h147l-4 -29q-24 -120 -106 -179.5t-195 -59.5z" />
<glyph unicode="&#x16e;" horiz-adv-x="1488" d="M147 403q0 50 13 117l180 926h201l-181 -932q-8 -39 -8 -86q0 -127 80 -196.5t225 -69.5q169 0 286 94.5t149 261.5l182 928h201l-185 -944q-47 -242 -218.5 -384.5t-418.5 -142.5q-225 0 -365.5 114t-140.5 314zM932 1522q-70 0 -114 34.5t-44 98.5q0 75 59 123.5 t134 48.5q71 0 115 -35.5t44 -99.5q0 -73 -60.5 -121.5t-133.5 -48.5zM938 1606q33 0 57.5 24.5t24.5 59.5q0 25 -15.5 40t-41.5 15q-33 0 -57.5 -25.5t-24.5 -62.5q0 -24 15 -37.5t42 -13.5z" />
<glyph unicode="&#x16f;" horiz-adv-x="1220" d="M80 250q0 49 14 131l127 655h199l-119 -610q-12 -68 -12 -119q0 -72 35 -109.5t120 -37.5q100 0 189.5 59.5t147 151t77.5 194.5l92 471h199l-201 -1036h-194l24 121q4 22 11 46.5l11 38.5l5 13h-4q-23 -40 -61 -80.5t-91 -78.5t-123.5 -61.5t-144.5 -23.5 q-63 0 -115.5 15t-95 46.5t-66.5 86t-24 127.5zM721 1161q-70 0 -114 34.5t-44 98.5q0 75 59 123.5t134 48.5q71 0 115 -35.5t44 -99.5q0 -73 -60.5 -121.5t-133.5 -48.5zM727 1245q33 0 57.5 24.5t24.5 59.5q0 25 -15.5 40t-41.5 15q-33 0 -57.5 -25.5t-24.5 -62.5 q0 -24 15 -37.5t42 -13.5z" />
<glyph unicode="&#x170;" horiz-adv-x="1488" d="M147 403q0 50 13 117l180 926h201l-181 -932q-8 -39 -8 -86q0 -127 80 -196.5t225 -69.5q169 0 286 94.5t149 261.5l182 928h201l-185 -944q-47 -242 -218.5 -384.5t-418.5 -142.5q-225 0 -365.5 114t-140.5 314zM967 1546l202 260h215l-245 -260h-172zM651 1546l193 260 h188l-196 -260h-185z" />
<glyph unicode="&#x171;" horiz-adv-x="1220" d="M80 250q0 49 14 131l127 655h199l-119 -610q-12 -68 -12 -119q0 -72 35 -109.5t120 -37.5q100 0 189.5 59.5t147 151t77.5 194.5l92 471h199l-201 -1036h-194l24 121q4 22 11 46.5l11 38.5l5 13h-4q-23 -40 -61 -80.5t-91 -78.5t-123.5 -61.5t-144.5 -23.5 q-63 0 -115.5 15t-95 46.5t-66.5 86t-24 127.5zM754 1186l202 260h215l-245 -260h-172zM438 1186l193 260h188l-196 -260h-185z" />
<glyph unicode="&#x172;" horiz-adv-x="1486" d="M522 -262q0 125 150 233v4h-19q-224 0 -365 114.5t-141 313.5q0 50 13 117l180 926h201l-181 -932q-8 -39 -8 -86q0 -127 80 -196.5t225 -69.5q169 0 285 94t150 262l182 928h201l-187 -944q-16 -80 -45.5 -147.5t-62.5 -114t-79 -88.5t-83 -67.5t-86 -53.5 q-111 -64 -171.5 -118t-60.5 -110q0 -29 26 -47.5t52 -21.5l25 -4l-76 -154q-8 1 -22 3t-49.5 12.5t-62.5 26.5t-49 47.5t-22 72.5z" />
<glyph unicode="&#x173;" horiz-adv-x="1220" d="M596 -262q0 127 154 242l28 141q4 22 11 46.5l11 38.5l5 13h-4q-23 -40 -61 -80.5t-91 -78.5t-123.5 -61.5t-144.5 -23.5q-63 0 -115.5 15t-95 46.5t-66.5 86t-24 127.5q0 49 14 131l127 655h199l-119 -610q-12 -68 -12 -119q0 -72 35 -109.5t120 -37.5q100 0 189.5 59.5 t147 151t77.5 194.5l92 471h199l-201 -1036q-172 -120 -172 -197q0 -29 25 -47.5t51 -21.5l25 -4l-76 -154q-8 1 -22 3t-49.5 12.5t-62.5 26.5t-49 47.5t-22 72.5z" />
<glyph unicode="&#x174;" horiz-adv-x="1951" d="M322 0l-97 1446h207l53 -1061q2 -35 2 -73.5t-1 -59.5l-1 -21h4q27 74 64 154l500 1061h184l63 -1061q2 -32 2 -70.5t-1 -60.5l-1 -23h5q26 78 59 154l461 1061h221l-651 -1446h-238l-63 938q-3 40 -3 91.5t1 82.5l2 31h-4q-43 -111 -86 -203l-449 -940h-233zM872 1546 l232 260h207l129 -260h-168l-74 164h-4l-139 -164h-183z" />
<glyph unicode="&#x175;" horiz-adv-x="1658" d="M246 0l-131 1036h198l74 -731q3 -23 4 -50.5t1 -43.5l-1 -16h4q24 59 49 110l365 729h184l80 -729l6 -110h4q20 57 47 110l361 731h213l-535 -1036h-219l-86 670l-6 110h-4q-24 -57 -51 -110l-342 -670h-215zM639 1186l231 260h207l129 -260h-168l-73 164h-4l-140 -164 h-182z" />
<glyph unicode="&#x176;" horiz-adv-x="1185" d="M362 0l121 612l-319 834h217l174 -475q13 -36 26 -81.5t20 -73.5l7 -28h4q62 99 123 181l355 477h243l-651 -840l-119 -606h-201zM473 1546l232 260h206l129 -260h-168l-73 164h-4l-140 -164h-182z" />
<glyph unicode="&#x177;" horiz-adv-x="1042" d="M-96 -221q42 -37 112 -37q130 0 220 149l75 123l-237 1022h207l139 -700l16 -123h2q31 68 60 119l389 704h223l-727 -1226q-70 -119 -163.5 -179.5t-194.5 -60.5q-56 0 -109.5 17t-78.5 34l-25 17zM336 1186l231 260h207l129 -260h-168l-73 164h-5l-139 -164h-182z" />
<glyph unicode="&#x178;" horiz-adv-x="1185" d="M362 0l121 612l-319 834h217l174 -475q13 -36 26 -81.5t20 -73.5l7 -28h4q62 99 123 181l355 477h243l-651 -840l-119 -606h-201zM866 1599l39 207h164l-41 -207h-162zM522 1599l41 207h164l-41 -207h-164z" />
<glyph unicode="&#x179;" horiz-adv-x="1232" d="M-37 0l27 135l874 1004q32 36 65 69.5t49 48.5l17 15v4q-36 -6 -106 -6h-643l35 176h1013l-26 -133l-877 -1006q-32 -36 -64.5 -69t-49.5 -48l-17 -14v-4q37 4 107 4h686l-33 -176h-1057zM727 1546l201 260h223l-246 -260h-178z" />
<glyph unicode="&#x17a;" horiz-adv-x="1046" d="M-41 0l21 115l641 655q24 24 49.5 48t39.5 36l13 12v4q-30 -4 -98 -4h-478l33 170h852l-20 -114l-643 -658q-24 -24 -50 -47.5t-41 -34.5l-14 -12v-4q33 4 101 4h516l-33 -170h-889zM535 1186l200 260h223l-245 -260h-178z" />
<glyph unicode="&#x17b;" horiz-adv-x="1232" d="M-37 0l27 135l874 1004q32 36 65 69.5t49 48.5l17 15v4q-36 -6 -106 -6h-643l35 176h1013l-26 -133l-877 -1006q-32 -36 -64.5 -69t-49.5 -48l-17 -14v-4q37 4 107 4h686l-33 -176h-1057zM743 1606l41 200h177l-39 -200h-179z" />
<glyph unicode="&#x17c;" horiz-adv-x="1046" d="M-41 0l21 115l641 655q24 24 49.5 48t39.5 36l13 12v4q-30 -4 -98 -4h-478l33 170h852l-20 -114l-643 -658q-24 -24 -50 -47.5t-41 -34.5l-14 -12v-4q33 4 101 4h516l-33 -170h-889zM553 1245l41 201h176l-39 -201h-178z" />
<glyph unicode="&#x17d;" horiz-adv-x="1232" d="M-37 0l27 135l874 1004q32 36 65 69.5t49 48.5l17 15v4q-36 -6 -106 -6h-643l35 176h1013l-26 -133l-877 -1006q-32 -36 -64.5 -69t-49.5 -48l-17 -14v-4q37 4 107 4h686l-33 -176h-1057zM727 1546l-129 260h166l74 -166h4l141 166h182l-233 -260h-205z" />
<glyph unicode="&#x17e;" horiz-adv-x="1046" d="M-41 0l21 115l641 655q24 24 49.5 48t39.5 36l13 12v4q-30 -4 -98 -4h-478l33 170h852l-20 -114l-643 -658q-24 -24 -50 -47.5t-41 -34.5l-14 -12v-4q33 4 101 4h516l-33 -170h-889zM535 1186l-129 260h165l74 -166h4l142 166h182l-234 -260h-204z" />
<glyph unicode="&#x17f;" horiz-adv-x="563" d="M92 0l168 864h-129l31 162h129l10 49q13 70 38.5 128t56.5 96.5t70.5 68t76 46t77 26.5t70.5 13t60 3q24 0 46.5 -1.5t33.5 -2.5l10 -2l-37 -170q-18 4 -47 4q-28 0 -54 -4t-59.5 -17.5t-60.5 -35.5t-50 -63.5t-34 -96.5l-207 -1067h-199z" />
<glyph unicode="&#x192;" horiz-adv-x="1159" d="M-74 -45q66 -10 129 -10q34 0 68 8t76.5 29.5t78.5 70t56 119.5l153 545h-168l31 160h182l66 227q27 94 73 163.5t94.5 107.5t108 60.5t103 28.5t90.5 6q39 0 87.5 -4t77.5 -8l28 -4l-33 -170q-99 14 -160 14q-209 0 -276 -227l-58 -194h240l-31 -160h-254l-164 -582 q-22 -78 -57.5 -139.5t-78 -99.5t-86 -64t-91.5 -38t-83.5 -16.5t-72.5 -4.5t-78 3.5t-63 7.5l-23 3z" />
<glyph unicode="&#x218;" horiz-adv-x="1120" d="M6 166l127 143q5 -6 15 -15.5t43.5 -34.5t71.5 -44.5t98 -35t124 -15.5q115 0 205 68.5t90 181.5q0 51 -32 93.5t-83.5 74.5t-113 62.5t-123.5 66.5t-113.5 78.5t-83.5 106.5t-32 142q0 119 69.5 218.5t187.5 156.5t257 57q80 0 152 -15t118 -37t80.5 -43.5t49.5 -36.5 l15 -15l-114 -149q-5 4 -13.5 11.5t-38.5 26t-63 33t-84 26t-104 11.5q-126 0 -218 -74.5t-92 -169.5q0 -47 32.5 -87t84 -70.5t114 -60.5t125 -67t114 -81t84 -110.5t32.5 -147.5q0 -178 -146 -308.5t-360 -130.5q-91 0 -173 19.5t-135 47.5t-92.5 56.5t-56.5 47.5z M328 -121h174v-31q0 -70 -22 -129t-72 -137h-152q41 74 59.5 126t18.5 112q0 29 -6 59z" />
<glyph unicode="&#x219;" horiz-adv-x="909" d="M-23 125l109 131q4 -5 12 -12.5t36 -27t58.5 -34.5t79.5 -27t101 -12q80 0 144.5 41.5t64.5 112.5q0 32 -25 58.5t-65 46.5t-89 41t-97.5 47t-88.5 58.5t-65 82t-25 110.5q0 97 59 172t148 111.5t190 36.5q64 0 122 -12t95.5 -29t66 -33.5t41.5 -28.5l13 -12l-98 -137 q-3 3 -9.5 9t-28.5 20.5t-48 25.5t-68 20t-88 9q-78 0 -142.5 -38.5t-64.5 -111.5q0 -32 25 -58.5t65.5 -46.5t89.5 -41t97.5 -47.5t89 -59t65.5 -82t25 -111.5q0 -140 -115.5 -231t-283.5 -91q-72 0 -139 15.5t-111.5 37.5t-79 44t-50.5 38zM225 -121h174v-31 q0 -70 -22 -129t-72 -137h-151q41 73 59 125.5t18 112.5q0 29 -6 59z" />
<glyph unicode="&#x21a;" horiz-adv-x="1206" d="M379 0l248 1270h-496l33 176h1194l-33 -176h-498l-245 -1270h-203zM371 -121h174v-31q0 -70 -22 -129t-72 -137h-152q41 74 59.5 126t18.5 112q0 29 -6 59z" />
<glyph unicode="&#x21b;" horiz-adv-x="722" d="M143 295q0 41 13 104l90 465h-135l30 162h140l59 295h192l-59 -295h250l-31 -162h-250l-86 -452q-8 -41 -8 -82q0 -162 170 -162l60 4l-35 -176q-33 -4 -66 -4q-52 0 -96.5 7.5t-89.5 28.5t-77 54t-51.5 87.5t-19.5 125.5zM221 -121h174v-31q0 -70 -22 -129t-72 -137 h-151q41 73 59 125.5t18 112.5q0 29 -6 59z" />
<glyph unicode="&#x2c6;" horiz-adv-x="1021" d="M82 1546l231 260h207l129 -260h-168l-73 164h-5l-139 -164h-182z" />
<glyph unicode="&#x2c7;" horiz-adv-x="1021" d="M279 1546l-129 260h165l74 -166h4l142 166h182l-234 -260h-204z" />
<glyph unicode="&#x2d8;" horiz-adv-x="1021" d="M383 1538q-116 0 -189 67t-51 173l7 28h147l-4 -26q-11 -61 17.5 -92t78.5 -31q51 0 93 31.5t53 93.5l6 24h147l-4 -28q-24 -120 -106 -180t-195 -60z" />
<glyph unicode="&#x2d9;" horiz-adv-x="1024" d="M297 1606l41 200h176l-39 -200h-178z" />
<glyph unicode="&#x2da;" horiz-adv-x="1024" d="M379 1522q-70 0 -114 34.5t-44 98.5q0 75 59 123.5t134 48.5q71 0 115 -35.5t44 -99.5q0 -73 -60.5 -121.5t-133.5 -48.5zM385 1606q33 0 57.5 24.5t24.5 59.5q0 25 -15.5 40t-41.5 15q-33 0 -57.5 -25.5t-24.5 -62.5q0 -24 15 -37.5t42 -13.5z" />
<glyph unicode="&#x2db;" horiz-adv-x="1021" d="M215 -262q0 49 24.5 97.5t65.5 88t83 69t89 54.5l119 -27q-8 -5 -21.5 -14t-47.5 -35t-59.5 -51t-47 -58t-21.5 -59q0 -29 24.5 -47.5t48.5 -21.5l24 -4l-76 -154q-8 1 -22 3t-49.5 12.5t-62.5 26.5t-49 47.5t-22 72.5z" />
<glyph unicode="&#x2dc;" horiz-adv-x="1021" d="M39 1548q50 260 244 260q36 0 64.5 -14.5t47 -35t35 -40.5t35.5 -34.5t41 -14.5q41 0 66 39.5t34 93.5h146q-51 -260 -244 -260q-35 0 -63 14.5t-47 35t-36 40.5t-37 34.5t-42 14.5q-39 0 -63.5 -39t-35.5 -94h-145z" />
<glyph unicode="&#x2dd;" horiz-adv-x="1021" d="M348 1546l203 260h215l-246 -260h-172zM33 1546l192 260h189l-197 -260h-184z" />
<glyph unicode="&#x3bc;" horiz-adv-x="1265" d="M-29 -410l281 1446h199l-119 -610q-13 -73 -13 -119q0 -72 35.5 -109.5t120.5 -37.5q100 0 189.5 59.5t147 151t77.5 194.5l92 471h199l-201 -1036h-195l25 121q4 22 11 46.5t12 38.5l4 13h-5q-23 -40 -61 -80.5t-90.5 -78.5t-123 -61.5t-144.5 -23.5q-126 0 -185 68h-4 q-6 -105 -18 -164l-58 -289h-176z" />
<glyph unicode="&#x1e9e;" horiz-adv-x="1390" d="M61 0l205 1053q34 175 160.5 284t300.5 109h664l-27 -137l-363 -416l-63 -70v-4q138 -13 226.5 -97.5t88.5 -238.5q0 -146 -88.5 -271.5t-228.5 -178.5q-91 -33 -270 -33h-230l35 176h209q123 0 182 23q80 32 132.5 109t52.5 163q0 92 -57 140t-189 48h-129l28 142 l293 346q35 42 63.5 73t39.5 42l12 10v4q-12 -6 -86 -6h-293q-96 0 -169.5 -66t-92.5 -164l-205 -1040h-201z" />
<glyph unicode="&#x2000;" horiz-adv-x="913" />
<glyph unicode="&#x2001;" horiz-adv-x="1827" />
<glyph unicode="&#x2002;" horiz-adv-x="913" />
<glyph unicode="&#x2003;" horiz-adv-x="1827" />
<glyph unicode="&#x2004;" horiz-adv-x="609" />
<glyph unicode="&#x2005;" horiz-adv-x="456" />
<glyph unicode="&#x2006;" horiz-adv-x="304" />
<glyph unicode="&#x2007;" horiz-adv-x="304" />
<glyph unicode="&#x2008;" horiz-adv-x="228" />
<glyph unicode="&#x2009;" horiz-adv-x="28" />
<glyph unicode="&#x200a;" horiz-adv-x="101" />
<glyph unicode="&#x2010;" horiz-adv-x="956" d="M156 496l32 176h598l-32 -176h-598z" />
<glyph unicode="&#x2011;" horiz-adv-x="956" d="M156 496l32 176h598l-32 -176h-598z" />
<glyph unicode="&#x2012;" horiz-adv-x="956" d="M156 496l32 176h598l-32 -176h-598z" />
<glyph unicode="&#x2013;" horiz-adv-x="1435" d="M158 504l30 160h1078l-31 -160h-1077z" />
<glyph unicode="&#x2014;" horiz-adv-x="1845" d="M158 504l30 160h1487l-30 -160h-1487z" />
<glyph unicode="&#x2018;" horiz-adv-x="464" d="M182 1071l211 397h154l-164 -397h-201z" />
<glyph unicode="&#x2019;" horiz-adv-x="452" d="M188 1071l164 397h201l-211 -397h-154z" />
<glyph unicode="&#x201a;" horiz-adv-x="509" d="M-66 -184l164 399h201l-211 -399h-154z" />
<glyph unicode="&#x201c;" horiz-adv-x="753" d="M471 1071l211 397h154l-164 -397h-201zM182 1071l211 397h154l-164 -397h-201z" />
<glyph unicode="&#x201d;" horiz-adv-x="741" d="M477 1071l166 397h199l-209 -397h-156zM188 1071l166 397h199l-209 -397h-156z" />
<glyph unicode="&#x201e;" horiz-adv-x="798" d="M223 -184l166 399h199l-209 -399h-156zM-66 -184l164 399h201l-209 -399h-156z" />
<glyph unicode="&#x2020;" horiz-adv-x="858" d="M193 -102l190 981h-248l31 157h248l78 410h192l-78 -410h254l-33 -157h-254l-190 -981h-190z" />
<glyph unicode="&#x2021;" horiz-adv-x="927" d="M227 -102l86 452h-245l30 160h246l74 369h-248l31 157h248l77 410h193l-78 -410h254l-33 -157h-254l-71 -369h254l-31 -160h-254l-88 -452h-191z" />
<glyph unicode="&#x2022;" horiz-adv-x="837" d="M416 279q-132 0 -225 92.5t-93 224.5t93 224.5t225 92.5q131 0 223 -92.5t92 -224.5t-92 -224.5t-223 -92.5z" />
<glyph unicode="&#x2026;" horiz-adv-x="1568" d="M1098 0l41 215h209l-43 -215h-207zM565 0l43 215h207l-41 -215h-209zM35 0l41 215h209l-43 -215h-207z" />
<glyph unicode="&#x202f;" horiz-adv-x="365" />
<glyph unicode="&#x2030;" horiz-adv-x="2295" d="M475 864q-124 0 -200 74.5t-76 194.5q0 129 109 233t247 104q124 0 200 -75.5t76 -194.5q0 -131 -110 -233.5t-246 -102.5zM25 0l1366 1446h202l-1366 -1446h-202zM489 1016q71 0 126 53.5t55 126.5q0 55 -35.5 90t-93.5 35q-70 0 -125.5 -55.5t-55.5 -128.5 q0 -53 35 -87t94 -34zM1511 244q0 129 109.5 233.5t247.5 104.5q124 0 200 -76t76 -195q0 -86 -51 -164t-133 -125t-170 -47q-126 0 -202.5 74.5t-76.5 194.5zM784 244q0 129 109.5 233.5t245.5 104.5q124 0 200 -76t76 -195q0 -131 -109 -233.5t-245 -102.5q-125 0 -201 74 t-76 195zM1673 248q0 -53 35.5 -87t93.5 -34q71 0 125.5 53.5t54.5 126.5q0 55 -34.5 90t-92.5 35q-69 0 -125.5 -56t-56.5 -128zM944 248q0 -53 36 -87t95 -34q70 0 125 54t55 126q0 55 -35.5 90t-93.5 35q-70 0 -126 -56t-56 -128z" />
<glyph unicode="&#x2039;" horiz-adv-x="708" d="M340 158l-264 424l391 417h209l-410 -430l262 -411h-188z" />
<glyph unicode="&#x203a;" horiz-adv-x="708" d="M18 158l410 430l-260 411h188l265 -424l-394 -417h-209z" />
<glyph unicode="&#x2044;" horiz-adv-x="344" d="M-346 0h-164l967 1446h164z" />
<glyph unicode="&#x205f;" horiz-adv-x="456" />
<glyph unicode="&#x2070;" d="M305 846q-276 0 -276 299q0 62 9 128.5t27.5 139.5t51.5 138t76 117.5t106 83t137 30.5q277 0 277 -301q0 -61 -9 -128t-28 -140t-52 -137.5t-76.5 -116.5t-106 -82.5t-136.5 -30.5zM307 987q63 0 113.5 48.5t79 124t43 156t14.5 154.5q0 168 -121 168q-64 0 -114.5 -49 t-78.5 -125t-42.5 -156.5t-14.5 -156.5q0 -164 121 -164z" />
<glyph unicode="&#x2074;" d="M379 866l43 219h-428l18 103l516 573h177l-107 -540h127l-25 -136h-127l-43 -219h-151zM197 1221h249l50 252q4 24 11.5 53.5t12.5 47.5l6 17h-4q-37 -55 -78 -98l-247 -268v-4z" />
<glyph unicode="&#x2075;" d="M309 846q-57 0 -108 14.5t-83 35t-55.5 40.5t-34.5 34l-10 15l103 98q2 -4 7 -10.5t21.5 -23t36.5 -29t53 -23t70 -10.5q80 0 146.5 58t66.5 141q0 60 -44 99.5t-113 39.5q-40 0 -80 -11.5t-60 -22.5l-20 -11l-84 33l135 448h477l-26 -137h-349l-39 -127l-22 -65h4 q45 20 102 20q120 0 198.5 -73.5t78.5 -186.5q0 -135 -110 -240.5t-261 -105.5z" />
<glyph unicode="&#x2076;" d="M334 846q-133 0 -212 87t-79 238q0 70 21.5 152t65.5 163t102.5 147.5t140 107.5t170.5 41q55 0 104.5 -12t71.5 -24l22 -11l-69 -123q-53 26 -131 26q-94 0 -171.5 -72.5t-117.5 -183.5h4q78 64 174 64q110 0 179 -68.5t69 -177.5q0 -152 -102.5 -253t-241.5 -101z M340 987q80 0 132 62.5t52 144.5q0 58 -36 94.5t-101 36.5q-73 0 -129.5 -47.5t-56.5 -112.5q0 -72 37.5 -125t101.5 -53z" />
<glyph unicode="&#x2077;" d="M-4 866l485 662q18 24 37.5 48t29.5 36l11 12v4q-39 -4 -92 -4h-340l27 137h618l-20 -104l-580 -791h-176z" />
<glyph unicode="&#x2078;" d="M324 846q-126 0 -213.5 63.5t-87.5 177.5q0 48 21 95t55.5 83.5t61 59t54.5 41.5q-68 58 -68 143q0 65 29.5 119t76.5 86.5t102.5 50t111.5 17.5q121 0 195.5 -56t74.5 -153q0 -43 -19 -89.5t-49 -84.5t-51 -60t-40 -39q98 -69 98 -167q0 -120 -108 -203.5t-244 -83.5z M518 1130q0 20 -9 38t-20 30.5t-35.5 28.5t-39.5 24t-49 25l-48 24q-139 -90 -139 -198q0 -56 44 -89.5t106 -33.5q70 0 130 43.5t60 107.5zM295 1516q0 -26 13.5 -49t39 -41t50 -32t58.5 -30q9 -4 13 -6q14 10 30.5 26t37.5 41.5t35 59.5t14 67q0 45 -37 71t-90 26 q-61 0 -112.5 -35.5t-51.5 -97.5z" />
<glyph unicode="&#x2079;" d="M27 893l69 123q53 -27 131 -27q94 0 171.5 72.5t117.5 183.5h-4q-77 -63 -174 -63q-110 0 -179 68t-69 177q0 152 102.5 253.5t241.5 101.5q133 0 212 -87.5t79 -238.5q0 -70 -21.5 -152t-65.5 -163t-102.5 -147t-140 -107t-170.5 -41q-55 0 -104.5 12t-71.5 24z M381 1303q73 0 129.5 47t56.5 112q0 72 -37.5 125t-101.5 53q-80 0 -132 -62.5t-52 -145.5q0 -58 36 -93.5t101 -35.5z" />
<glyph unicode="&#x2080;" d="M115 -342q-277 0 -277 299q0 62 9 128.5t28 139.5t51.5 138t76 117.5t106.5 83t137 30.5q276 0 276 -301q0 -61 -9 -128t-28 -140t-52 -137.5t-76 -116.5t-105.5 -82.5t-136.5 -30.5zM117 -201q63 0 113.5 48.5t79 124.5t43 156.5t14.5 154.5q0 168 -121 168 q-64 0 -114.5 -49t-78.5 -125.5t-42.5 -157t-14.5 -156.5q0 -164 121 -164z" />
<glyph unicode="&#x2081;" d="M-143 -322l24 136h191l96 499l16 54h-4q-12 -16 -45 -45l-82 -66l-78 106l261 211h137l-148 -759h189l-27 -136h-530z" />
<glyph unicode="&#x2082;" d="M-186 -322q2 87 33.5 158.5t80.5 119.5t108 88.5t117.5 73.5t107 65.5t78.5 73.5t30 89q0 46 -34 76.5t-89 30.5q-29 0 -59 -10t-53 -24.5t-42 -29.5t-29 -25l-10 -10l-90 101q5 6 14.5 15t40 33t63 42.5t80.5 33.5t95 15q120 0 196 -64.5t76 -171.5q0 -65 -25.5 -119.5 t-67.5 -93t-93 -72t-104.5 -63t-100 -57.5t-82 -64t-47.5 -75h430l-26 -136h-598z" />
<glyph unicode="&#x2083;" d="M94 -344q-56 0 -108 14t-86 34t-60.5 39.5t-38.5 33.5l-12 14l96 100q3 -4 8.5 -10t25.5 -22.5t42.5 -29t59 -22.5t75.5 -10q77 0 135 52t58 128q0 56 -46 88.5t-110 32.5h-70l-24 78l221 211l59 49v4q-38 -6 -73 -6h-283l25 137h557l-19 -98l-274 -258q35 -6 67 -22.5 t61.5 -44t47.5 -71t18 -97.5q0 -127 -101 -225.5t-251 -98.5z" />
<glyph unicode="&#x2084;" d="M172 -322l43 220h-428l18 102l517 573h176l-107 -540h127l-24 -135h-127l-43 -220h-152zM-10 33h250l49 252q4 24 11.5 53.5t13.5 47.5l5 17h-4q-36 -55 -77 -98l-248 -268v-4z" />
<glyph unicode="&#x2085;" d="M94 -342q-57 0 -108 14.5t-83 35t-55.5 40.5t-33.5 34l-11 15l103 99q2 -4 7 -10.5t21.5 -23t36.5 -29.5t53 -23.5t70 -10.5q80 0 146.5 58t66.5 141q0 60 -44 99.5t-113 39.5q-40 0 -80 -11.5t-60 -22.5l-20 -11l-84 33l135 448h477l-26 -137h-349l-39 -127l-22 -65h4 q45 20 102 20q120 0 198.5 -73.5t78.5 -186.5q0 -135 -110 -240.5t-261 -105.5z" />
<glyph unicode="&#x2086;" d="M137 -342q-133 0 -212 87.5t-79 238.5q0 70 21.5 152t65.5 163t102.5 147t140 107t170.5 41q55 0 104.5 -12t71.5 -24l23 -11l-70 -123q-53 27 -131 27q-94 0 -171.5 -72.5t-117.5 -183.5h4q77 63 174 63q110 0 179 -68.5t69 -177.5q0 -152 -102.5 -253t-241.5 -101z M143 -201q80 0 132.5 62.5t52.5 144.5q0 58 -36.5 94.5t-101.5 36.5q-73 0 -129.5 -47.5t-56.5 -112.5q0 -72 37.5 -125t101.5 -53z" />
<glyph unicode="&#x2087;" d="M-188 -324l485 662q18 24 37.5 48t29.5 36l11 12v4q-39 -4 -92 -4h-340l26 137h619l-21 -104l-579 -791h-176z" />
<glyph unicode="&#x2088;" d="M123 -340q-126 0 -213.5 64t-87.5 178q0 48 21 94.5t55.5 83t61 59t54.5 41.5q-67 57 -67 144q0 65 29 118.5t76 86t102.5 50t111.5 17.5q121 0 196 -56t75 -153q0 -43 -19 -89.5t-49.5 -84.5t-51 -59.5t-40.5 -38.5q98 -69 98 -168q0 -120 -108 -203.5t-244 -83.5z M317 -55q0 20 -9 38t-20 30.5t-35.5 28.5t-39 24t-49 25t-47.5 24q-140 -90 -140 -199q0 -56 44 -89.5t106 -33.5q70 0 130 44t60 108zM94 330q0 -26 13.5 -49t39 -41t50 -32t58.5 -30q9 -4 13 -6q21 15 43.5 38t48 68t25.5 89q0 45 -37 70.5t-90 25.5q-61 0 -112.5 -35.5 t-51.5 -97.5z" />
<glyph unicode="&#x2089;" d="M-180 -295l69 123q53 -27 131 -27q94 0 171.5 72.5t117.5 183.5h-4q-77 -63 -174 -63q-110 0 -179 68.5t-69 177.5q0 152 102.5 253t241.5 101q133 0 212 -87.5t79 -238.5q0 -70 -21.5 -152t-65.5 -163t-102.5 -147t-140 -107t-170.5 -41q-55 0 -104.5 12t-71.5 24z M174 115q73 0 129.5 47t56.5 112q0 72 -37.5 125.5t-101.5 53.5q-80 0 -132 -63t-52 -146q0 -58 36 -93.5t101 -35.5z" />
<glyph unicode="&#x20ac;" horiz-adv-x="1202" d="M111 805l24 131h127q103 235 314.5 384.5t455.5 149.5q62 0 121.5 -8t88.5 -16l28 -8l-82 -176q-72 20 -158 20q-167 0 -315 -94.5t-230 -251.5h578l-51 -131h-580q-24 -79 -29 -148h551l-49 -129h-489q18 -159 121.5 -259.5t281.5 -100.5q46 0 94.5 7t73.5 13l25 7 l4 -189q-92 -31 -207 -31q-258 0 -424 152t-186 401h-142l25 129h113q6 78 24 148h-108z" />
<glyph unicode="&#x2122;" horiz-adv-x="2041" d="M1020 545l72 901h141l213 -471q7 -16 14.5 -37.5t11.5 -35.5l3 -13h4q12 49 26 86l213 471h144l69 -901h-153l-43 538l2 62h-4l-195 -434h-125l-194 434h-5q1 -3 1.5 -9t1.5 -23t0 -30l-43 -538h-154zM487 545v764h-311v137h778v-137h-311v-764h-156z" />
<glyph unicode="&#x2212;" horiz-adv-x="1255" d="M-20 504v160h1058v-160h-1058z" />
<glyph unicode="&#x221e;" horiz-adv-x="1040" d="M401 342q-154 0 -263 109.5t-109 263.5q0 155 109 262.5t263 107.5q156 0 264.5 -107.5t108.5 -262.5q0 -154 -109 -263.5t-264 -109.5z" />
<glyph unicode="&#x2248;" horiz-adv-x="1255" d="M82 657l-84 121q60 63 141 106.5t168 43.5q53 0 101.5 -15t84 -36t69.5 -42t72.5 -36t78.5 -15q59 0 119.5 32.5t105.5 80.5l84 -121q-60 -62 -141 -104.5t-168 -42.5q-65 0 -124.5 22.5t-97 49t-87 49t-97.5 22.5q-60 0 -119 -33t-106 -82zM82 272l-84 119 q60 63 141 106.5t168 43.5q53 0 101.5 -15t84 -36t69.5 -42t72.5 -36t78.5 -15q59 0 119.5 32.5t105.5 80.5l84 -121q-60 -62 -141 -104.5t-168 -42.5q-65 0 -124.5 22.5t-97 49t-87 49t-97.5 22.5q-60 0 -119.5 -32.5t-105.5 -80.5z" />
<glyph unicode="&#x2260;" horiz-adv-x="1255" d="M131 150l115 159h-226v160h332l164 227h-496v160h603l168 236l104 -72l-119 -164h221v-160h-327l-162 -227h489v-160h-598l-161 -229z" />
<glyph unicode="&#x2264;" horiz-adv-x="1255" d="M18 516v135l955 426v-182l-733 -309v-4l733 -310v-182zM20 -195h953v-159h-953v159z" />
<glyph unicode="&#x2265;" horiz-adv-x="1255" d="M45 90v182l733 310v4l-733 309v182l956 -426v-135zM45 -195h952v-159h-952v159z" />
<glyph unicode="&#x25fc;" horiz-adv-x="1034" d="M0 1034h1034v-1034h-1034v1034z" />
<glyph horiz-adv-x="686" d="M129 -121h174v-31q0 -70 -22 -129t-72 -137h-152q41 74 59.5 126t18.5 112q0 29 -6 59z" />
<glyph horiz-adv-x="2314" d="M225 -10v311l-258 148v569l258 145v310l543 290l274 -145l271 145l542 -290v-310l254 -145v-569l-254 -148v-311l-542 -289l-271 145l-274 -145zM307 61l488 -258l247 136l242 -136l488 258v285l233 131v510l-233 135v279l-488 258l-242 -131l-247 131l-488 -258v-279 l-233 -135v-510l233 -131v-285zM377 131v248l-203 123v461l203 118v252l440 234l225 -121l220 121l438 -234v-252l205 -118v-461l-205 -123v-248l-438 -233l-220 118l-225 -118zM778 186h162v418h422v141h-422v338h309q29 0 39 -12t10 -41v-67h150v151q0 58 -24.5 83.5 t-86.5 25.5h-678v-140h119v-897z" />
<glyph horiz-adv-x="1175" d="M-72 453q0 83 10.5 173.5t34 190.5t58.5 192.5t89 177t119.5 147t155 99.5t191.5 37q428 0 428 -477q0 -83 -10 -173.5t-34 -190.5t-59 -192.5t-88.5 -177.5t-119.5 -147.5t-156 -99.5t-193 -37q-426 0 -426 478zM137 457q0 -295 225 -295q78 0 145 40.5t113.5 109 t83 153.5t57.5 178.5t31.5 179.5t10.5 162q0 143 -52 221t-171 78q-75 0 -140.5 -39t-113 -105t-84.5 -150t-59.5 -178t-34 -183.5t-11.5 -171.5z" />
<glyph horiz-adv-x="1175" d="M-53 0l30 176h320l180 918l19 88h-4q-23 -33 -84 -84l-158 -129l-107 139l418 338h182l-247 -1270h313l-33 -176h-829z" />
<glyph horiz-adv-x="1175" d="M-121 0q1 101 33 190t84.5 156.5t120 127t142.5 108.5t149 94.5t141.5 91.5t119.5 93t82.5 104.5t30.5 121.5q0 89 -59 141t-158 52q-55 0 -109.5 -19t-93 -46t-69 -54t-45.5 -46l-15 -19l-143 112q8 11 23 28.5t64.5 62.5t103.5 79.5t138 63t169 28.5q184 0 297.5 -98.5 t113.5 -263.5q0 -80 -27 -152.5t-73.5 -129t-106.5 -108.5t-128 -96t-137 -85.5t-134 -83.5t-118 -83.5t-90.5 -91.5t-49.5 -102h707l-33 -176h-930z" />
<glyph horiz-adv-x="1175" d="M-125 172l127 141q4 -6 13 -15.5t39.5 -34.5t66 -44.5t94.5 -35t123 -15.5q138 0 244 92t106 223q0 106 -81.5 160.5t-211.5 54.5h-104l-25 109l379 371q25 24 52.5 47.5t42.5 34.5l14 12v4q-43 -6 -123 -6h-477l34 176h865l-27 -129l-477 -459q45 -5 89.5 -18.5 t92 -42.5t83 -68.5t58.5 -101t23 -135.5q0 -100 -42.5 -194t-114.5 -165.5t-176 -114.5t-220 -43q-67 0 -128.5 11t-107 28t-85 38t-65.5 42.5t-45 38.5t-27 28z" />
<glyph horiz-adv-x="1175" d="M-137 387l24 127l832 932h250l-174 -887h196l-33 -172h-196l-76 -387h-199l74 387h-698zM137 559h459l102 526q5 30 14 66t15 57l6 21h-4q-47 -66 -94 -119l-498 -549v-2z" />
<glyph horiz-adv-x="1175" d="M-106 176l131 137q4 -6 11.5 -15.5t34.5 -34.5t59 -44.5t85.5 -35t112.5 -15.5q92 0 177 44t141 125.5t56 180.5q0 107 -77 173.5t-201 66.5q-64 0 -128.5 -18t-97.5 -36l-32 -18l-115 45l213 715h735l-34 -176h-555l-93 -301l-24 -76h4q82 41 186 41q189 0 309.5 -115 t120.5 -291q0 -151 -82 -279.5t-216 -201t-285 -72.5q-65 0 -124.5 11t-102 29t-79 39.5t-60 42.5t-40 39t-23.5 29z" />
<glyph horiz-adv-x="1175" d="M406 -25q-211 0 -337 142.5t-126 386.5q0 113 32.5 242t100.5 257.5t160.5 232.5t224.5 169t280 65q84 0 157.5 -15t105.5 -31l32 -15l-92 -166q-86 41 -201 41q-96 0 -183.5 -41.5t-153 -111.5t-114.5 -154t-79 -178h4q56 62 145.5 99.5t178.5 37.5q184 0 289.5 -109.5 t105.5 -287.5q0 -101 -38 -201t-105 -181t-168.5 -131.5t-218.5 -50.5zM403 162q140 0 235 108t95 262q0 105 -64.5 168.5t-183.5 63.5q-77 0 -154 -34.5t-130.5 -100.5t-53.5 -144q0 -131 70.5 -227t185.5 -96z" />
<glyph horiz-adv-x="1175" d="M-49 0l784 1139q26 37 54 70.5t43 48.5l14 14v4q-33 -6 -105 -6h-632l34 176h967l-27 -139l-907 -1307h-225z" />
<glyph horiz-adv-x="1175" d="M-98 369q0 70 29.5 139t66.5 116t88.5 91.5t77.5 62.5t51 33q-123 101 -123 240q0 78 35 153t97.5 134.5t159 95.5t210.5 36q194 0 306 -90.5t112 -249.5q0 -58 -23 -121t-53 -110t-70.5 -93.5t-63 -68.5t-42.5 -39q153 -106 153 -260q0 -123 -72 -229t-200 -170 t-281 -64q-208 0 -333 107t-125 287zM705 436q0 32 -15.5 61.5t-36.5 51t-61.5 47t-69 40.5t-83 42t-81.5 41q-34 -19 -68 -45.5t-77.5 -70t-70.5 -102.5t-27 -122q0 -100 72 -160.5t178 -60.5q85 0 161.5 33t127.5 98t51 147zM297 1053q0 -25 8.5 -49t20.5 -42.5t34.5 -38 t40.5 -32.5t50 -30.5t51.5 -27.5t56 -27.5t53.5 -25.5q26 23 50.5 48.5t61 71.5t59 103t22.5 113q0 80 -59 126t-160 46q-127 0 -208 -68.5t-81 -166.5z" />
<glyph horiz-adv-x="1175" d="M-94 37l92 166q88 -41 203 -41q96 0 183 41.5t152.5 111.5t114 154t78.5 178h-4q-45 -55 -135 -95t-187 -40q-186 0 -290.5 108.5t-104.5 286.5q0 102 38.5 202t106 180.5t169.5 130.5t219 50q210 0 335 -141.5t125 -386.5q0 -79 -17 -169t-51.5 -183.5t-83.5 -182.5 t-116.5 -167t-146 -137t-177.5 -93.5t-206 -34.5q-84 0 -158 15.5t-107 31.5zM455 682q57 0 116.5 21t109.5 57t82 89.5t32 113.5q0 130 -70 225.5t-186 95.5q-139 0 -234.5 -109t-95.5 -262q0 -105 64.5 -168t181.5 -63z" />
<glyph horiz-adv-x="1034" d="M217 625l33 176h598l-33 -176h-598z" />
<glyph horiz-adv-x="690" d="M289 -133q-107 272 -107 549q0 655 424 1151h180q-426 -531 -426 -1155q0 -283 95 -545h-166z" />
<glyph horiz-adv-x="688" d="M125 -133h-182q426 534 426 1155q0 283 -95 545h168q105 -272 105 -549q0 -651 -422 -1151z" />
<glyph horiz-adv-x="708" d="M94 -133l332 1700h340l-31 -150h-166l-270 -1399h166l-31 -151h-340z" />
<glyph horiz-adv-x="710" d="M20 18h164l271 1399h-166l30 150h340l-331 -1700h-336z" />
<glyph horiz-adv-x="811" d="M225 129q0 41 13 104l34 183q7 44 7 61q0 43 -14 75.5t-34.5 48.5t-41 26t-34.5 12l-14 2l35 176q7 1 19 3t44.5 16t60 35.5t55 66.5t38.5 104l37 187q67 344 399 344l48 -2l-31 -154q-13 2 -27 2q-19 0 -37 -2.5t-48 -15t-53.5 -34t-46 -64.5t-34.5 -101l-45 -223 q-11 -57 -38 -104t-56.5 -73t-57.5 -43.5t-47 -23.5l-18 -6v-4q5 -2 13.5 -6.5t29.5 -21.5t37 -38.5t29.5 -59.5t13.5 -83q0 -26 -6 -61l-43 -209q-11 -50 -11 -84q0 -38 11 -66t27 -43t37.5 -24t37.5 -11t33 -2l28 2l-30 -153q-20 -2 -49 -2q-27 0 -56 4.5t-69.5 21 t-71 43.5t-52.5 78.5t-22 118.5z" />
<glyph horiz-adv-x="815" d="M37 16q21 0 39.5 2.5t48.5 15t53.5 34t46 63.5t33.5 100l47 244q11 59 38 107t56.5 74t57.5 44t47 24l18 5v4q-5 2 -13 6t-29 21t-37 38t-29 58.5t-13 81.5q0 21 7 61l36 193q11 57 11 82q0 47 -16 78t-42 44t-46 17t-42 4h-26l28 152q22 4 49 4q21 0 45 -3.5t56.5 -12.5 t61.5 -28.5t54.5 -47.5t40.5 -73t15 -101q0 -31 -12 -105l-31 -164q-6 -35 -6 -59q0 -43 14 -76t34 -49t39.5 -25.5t33.5 -11.5l14 -2l-33 -176q-7 -1 -19.5 -3t-45.5 -16t-60 -36t-55 -67t-39 -105l-39 -205q-65 -346 -401 -346l-45 4l28 151h27z" />
<glyph horiz-adv-x="1703" d="M158 586q0 176 74 341t195 285.5t284 193.5t333 73q129 0 224 -27t149 -76.5t79.5 -111t25.5 -136.5q0 -43 -11 -100l-104 -547h145l-28 -149h-537q-175 0 -276 96t-101 242q0 108 62.5 207.5t175.5 163t246 63.5h241q4 20 4 33q0 78 -77 128t-215 50q-136 0 -264 -61 t-221 -160.5t-149.5 -231t-56.5 -266.5q0 -205 130 -336t352 -131l-31 -160q-187 0 -335.5 80t-231 221t-82.5 316zM811 674q0 -85 54 -139t145 -54h204l95 486h-201q-120 0 -208.5 -89t-88.5 -204z" />
<glyph horiz-adv-x="1210" d="M813 281l-264 424l424 417h213l-447 -430l262 -411h-188zM406 281l-265 424l391 417h209l-409 -430l262 -411h-188z" />
<glyph horiz-adv-x="1212" d="M504 281l411 430l-262 411h189l264 -424l-393 -417h-209zM61 281l447 430l-262 411h188l264 -424l-426 -417h-211z" />
<glyph horiz-adv-x="786" d="M406 281l-265 424l394 417h206l-409 -430l262 -411h-188z" />
<glyph horiz-adv-x="784" d="M78 281l409 430l-260 411h189l262 -424l-391 -417h-209z" />
<glyph horiz-adv-x="1513" d="M217 627l31 159h1077l-31 -159h-1077z" />
<glyph horiz-adv-x="1923" d="M217 627l31 159h1487l-31 -159h-1487z" />
<glyph horiz-adv-x="626" d="M203 600l41 217h209l-41 -217h-209z" />
<glyph horiz-adv-x="1050" d="M623 1245l39 201h206l-41 -201h-204zM90 303q0 74 23.5 137.5t62.5 110t86 87.5t97 78.5t93 74t76.5 82.5t44.5 96l19 80h192l-18 -93q-13 -67 -46 -125t-75 -100.5t-89.5 -81t-92.5 -73.5t-81.5 -71t-58.5 -81t-22 -96q0 -73 54 -120.5t143 -47.5q60 0 122.5 22t95.5 44 l32 22l88 -154q-7 -5 -19 -13t-51 -28.5t-79.5 -36t-99.5 -28.5t-116 -13q-166 0 -273.5 89.5t-107.5 238.5z" />
<glyph horiz-adv-x="710" d="M371 1245l41 201h204l-38 -201h-207zM131 0l219 1049h178l-192 -1049h-205z" />
<glyph horiz-adv-x="915" d="M477 406q-132 0 -224.5 93t-92.5 224q0 132 92.5 224.5t224.5 92.5q131 0 223.5 -92.5t92.5 -224.5q0 -131 -93 -224t-223 -93z" />
<glyph horiz-adv-x="1198" d="M80 420q0 99 25 201t75.5 195.5t120 166.5t166 116.5t205.5 43.5t192.5 -35.5t133 -98t74 -142t24.5 -173.5q0 -99 -24.5 -200.5t-75 -194.5t-120 -165.5t-166 -115.5t-206.5 -43q-111 0 -194.5 35t-132.5 97.5t-73 140.5t-24 172zM283 426q0 -124 56 -201.5t169 -77.5 q87 0 162 51t122.5 131.5t74 174.5t26.5 184q0 80 -22 142t-74 101.5t-129 39.5q-88 0 -163 -52t-122 -133.5t-73.5 -175.5t-26.5 -184z" />
<glyph horiz-adv-x="960" d="M8 0l35 170h311l119 614l25 121h-4q-38 -30 -91 -59l-202 -107l-68 148l422 231h176l-184 -948h282l-34 -170h-787z" />
<glyph horiz-adv-x="1079" d="M-8 0l26 137q145 85 247 149t205 138t165 135.5t100.5 127t38.5 126.5q0 76 -57.5 115t-145.5 39q-48 0 -100.5 -16.5t-92.5 -39.5t-73 -46t-51 -39l-18 -17l-91 143q8 8 22.5 21t62 45.5t97.5 58t124.5 46t146.5 20.5q178 0 279.5 -83.5t101.5 -223.5 q0 -96 -43.5 -183.5t-132 -170t-199 -156t-268.5 -158.5v-4q43 6 123 6h450l-32 -170h-885z" />
<glyph horiz-adv-x="1052" d="M-104 -80l118 129q4 -6 12.5 -15t37 -33t61.5 -42.5t87 -33.5t112 -15q136 0 242 84.5t106 216.5q0 101 -84.5 154t-204.5 53h-113l-26 104l358 338q25 23 52 45.5t41 33t14 11.5v2q-41 -6 -123 -6h-410l33 172h811l-23 -117l-477 -436q62 -5 121.5 -26t114 -60.5 t88 -106.5t33.5 -153q0 -131 -75 -241.5t-203.5 -175t-279.5 -64.5q-84 0 -158.5 18.5t-121 45.5t-80.5 54t-49 46z" />
<glyph horiz-adv-x="1196" d="M-49 68l24 127l807 923h242l-172 -878h207l-33 -172h-207l-59 -306h-197l60 306h-672zM217 240h438l103 520q5 31 14 66t15.5 56t7.5 21h-4q-50 -74 -99 -129l-475 -532v-2z" />
<glyph horiz-adv-x="1091" d="M-63 -66l118 125q4 -5 11.5 -14.5t34.5 -32.5t58.5 -41t83 -32.5t107.5 -14.5q64 0 129 21.5t121.5 61t91.5 104.5t35 143q0 103 -77 161t-191 58q-63 0 -128.5 -15.5t-99.5 -31.5l-34 -16l-111 41l203 667h710l-32 -172h-533l-86 -274l-26 -72h4q86 35 188 35 q184 0 302 -101.5t118 -271.5q0 -114 -50 -212t-132 -162.5t-187 -101t-215 -36.5q-82 0 -154.5 19t-118 46t-79 54t-47.5 46z" />
<glyph horiz-adv-x="1193" d="M102 465q0 109 32 232t99 244t157.5 219t219.5 159t273 61q84 0 157.5 -15t105.5 -31l32 -15l-88 -152q-82 41 -203 41q-94 0 -180.5 -39.5t-151 -107t-112.5 -148t-78 -170.5h4q57 60 146 95.5t177 35.5q186 0 293 -102.5t107 -269.5q0 -96 -40 -190.5t-108.5 -169 t-170 -121t-214.5 -46.5q-209 0 -333 131.5t-124 358.5zM305 449q0 -122 70 -212t188 -90q136 0 231 100t95 247q0 99 -65.5 158t-184.5 59q-128 0 -231 -78t-103 -184z" />
<glyph horiz-adv-x="1044" d="M-20 -238l745 1063q24 36 48 66.5t36 43.5l12 13v4q-26 -4 -100 -4h-604l33 170h942l-27 -131l-860 -1225h-225z" />
<glyph horiz-adv-x="1189" d="M55 340q0 63 24.5 125t58.5 106.5t79 86.5t75.5 63.5t59.5 38.5q-116 91 -116 221q0 74 34 145t94 127.5t153 91.5t202 35q189 0 300 -82.5t111 -226.5q0 -55 -21.5 -115.5t-49 -105t-65.5 -92t-57.5 -67t-39.5 -38.5q143 -99 143 -241q0 -83 -42 -163t-113 -140 t-171.5 -97t-211.5 -37q-200 0 -323.5 100.5t-123.5 264.5zM838 408q0 30 -15.5 58t-36 48t-60 43.5t-68.5 38t-81.5 39.5t-80.5 39q-26 -14 -51.5 -30.5t-61 -47.5t-61.5 -64.5t-45 -80t-19 -95.5q0 -94 71 -151.5t175 -57.5q79 0 155 32t127.5 93t51.5 136zM432 989 q0 -23 8 -44.5t19 -38t33 -35t39 -30t49.5 -28.5t52.5 -26t59 -27t58 -27q16 13 32 27.5t45 47.5t50 66.5t37 80t16 92.5q0 76 -58 119.5t-157 43.5q-123 0 -203 -65t-80 -156z" />
<glyph horiz-adv-x="1193" d="M84 -49q82 -41 203 -41q94 0 180.5 40t151 107.5t112.5 148t78 169.5h-4q-57 -60 -146.5 -95.5t-177.5 -35.5q-186 0 -292.5 102.5t-106.5 269.5q0 96 40 190.5t108 169t169.5 121t214.5 46.5q209 0 333 -131t124 -359q0 -90 -23.5 -191t-67 -203.5t-112 -196t-152 -166 t-194 -115.5t-231.5 -43q-84 0 -157.5 15t-105.5 31l-32 15zM532 408q82 0 159 34.5t127 96t50 131.5q0 78 -29 145.5t-89 111.5t-140 44q-136 0 -230.5 -99.5t-94.5 -246.5q0 -99 64.5 -158t182.5 -59z" />
<glyph horiz-adv-x="1175" d="M-66 420q0 99 25 201t75.5 195.5t120 166.5t166 116.5t205.5 43.5t192.5 -35.5t133 -98t74 -142t24.5 -173.5q0 -99 -24.5 -200.5t-75 -194.5t-120 -165.5t-166 -115.5t-206.5 -43q-111 0 -194.5 35t-132.5 97.5t-73 140.5t-24 172zM137 426q0 -124 56 -201.5t169 -77.5 q71 0 133.5 33.5t108 89t78.5 126t49.5 145.5t16.5 147q0 124 -56 203.5t-170 79.5q-88 0 -163 -52t-122 -133.5t-73.5 -175.5t-26.5 -184z" />
<glyph horiz-adv-x="1175" d="M-8 0l35 170h311l119 614l24 121h-4q-37 -30 -90 -59l-203 -107l-67 148l422 231h176l-185 -948h283l-35 -170h-786z" />
<glyph horiz-adv-x="1175" d="M-80 0l27 137q145 85 247 149t204.5 138t164.5 135.5t100.5 127t38.5 126.5q0 76 -57.5 115t-144.5 39q-48 0 -100.5 -16.5t-92.5 -39.5t-73.5 -46t-51.5 -39l-18 -17l-90 143q8 8 22.5 21t62 45.5t97.5 58t124 46t146 20.5q178 0 279.5 -83.5t101.5 -223.5 q0 -96 -43.5 -183.5t-132 -170t-199 -156t-268.5 -158.5v-4q43 6 123 6h451l-33 -170h-885z" />
<glyph horiz-adv-x="1175" d="M-147 -78l118 129q4 -6 12.5 -15t37 -33t61.5 -42.5t87 -33.5t112 -15q136 0 241 84.5t105 216.5q0 101 -83.5 154t-203.5 53h-113l-26 104l358 336q24 23 50.5 45.5t40.5 33t14 11.5v2q-41 -6 -121 -6h-410l33 172h809l-23 -117l-475 -434q48 -4 95.5 -17.5t95 -41 t83 -65.5t58 -95.5t22.5 -126.5q0 -131 -74.5 -241.5t-202.5 -175t-278 -64.5q-84 0 -158.5 18.5t-121 45.5t-80.5 54t-48 46z" />
<glyph horiz-adv-x="1175" d="M-176 68l24 127l807 923h242l-172 -878h207l-33 -172h-207l-59 -306h-197l60 306h-672zM90 240h438l103 520q5 31 14 66t15.5 56t7.5 21h-4q-50 -74 -99 -129l-475 -532v-2z" />
<glyph horiz-adv-x="1175" d="M-141 -66l118 125q4 -5 11.5 -14.5t34.5 -32.5t58.5 -41t83 -32.5t107.5 -14.5q64 0 129 21.5t121.5 61t91.5 104.5t35 143q0 103 -77 161t-191 58q-63 0 -128.5 -15.5t-99.5 -31.5l-34 -16l-111 41l203 667h711l-33 -172h-533l-86 -274l-26 -72h4q86 35 188 35 q184 0 302 -101.5t118 -271.5q0 -114 -50 -212t-132 -162.5t-187 -101t-215 -36.5q-82 0 -154.5 19t-118 46t-79 54t-47.5 46z" />
<glyph horiz-adv-x="1175" d="M-57 465q0 77 16.5 162.5t50.5 174.5t81.5 172.5t114 157.5t143 129t173.5 87t201 32q84 0 157.5 -15t105.5 -31l32 -15l-88 -152q-82 41 -203 41q-94 0 -180.5 -39.5t-151 -107t-112.5 -148t-78 -170.5h4q57 60 146 95.5t177 35.5q186 0 293 -102.5t107 -269.5 q0 -96 -40 -190.5t-108.5 -169t-170 -121t-214.5 -46.5q-208 0 -332 131.5t-124 358.5zM145 449q0 -122 70 -212t188 -90q136 0 231 100t95 247q0 99 -65.5 158t-184.5 59q-128 0 -231 -78t-103 -184z" />
<glyph horiz-adv-x="1175" d="M-80 -238l746 1063q24 36 48 66.5t36 43.5l12 13v4q-26 -4 -100 -4h-605l33 170h942l-26 -131l-861 -1225h-225z" />
<glyph horiz-adv-x="1175" d="M-98 340q0 63 24.5 125t58.5 106.5t79 86.5t75.5 63.5t59.5 38.5q-117 92 -117 221q0 74 34 145t94 127.5t153 91.5t202 35q189 0 300.5 -82.5t111.5 -226.5q0 -55 -22 -115.5t-49 -105t-65.5 -92t-57.5 -67t-40 -38.5q144 -100 144 -241q0 -83 -42 -163t-113.5 -140 t-172 -97t-211.5 -37q-200 0 -323 100.5t-123 264.5zM684 408q0 30 -15.5 58t-36 48t-60 43.5t-68.5 38t-81.5 39.5t-80.5 39q-26 -14 -51.5 -30.5t-61 -47.5t-61.5 -64.5t-45 -80t-19 -95.5q0 -94 71 -151.5t175 -57.5q79 0 155 32t127.5 93t51.5 136zM279 989 q0 -23 8 -44.5t18.5 -38t33 -35t39 -30t49.5 -28.5t52 -26t58.5 -27t58.5 -27q16 13 32 27.5t45 47.5t50 66.5t37 80t16 92.5q0 76 -58 119.5t-157 43.5q-123 0 -202.5 -64.5t-79.5 -156.5z" />
<glyph horiz-adv-x="1175" d="M-47 -49q82 -41 203 -41q94 0 180.5 40t151 107.5t112.5 148t78 169.5h-4q-57 -60 -146.5 -95.5t-177.5 -35.5q-186 0 -292.5 102.5t-106.5 269.5q0 96 40 190.5t108 169t169.5 121t214.5 46.5q209 0 333 -131t124 -359q0 -90 -23.5 -191t-67 -203.5t-112 -196t-152 -166 t-194 -115.5t-231.5 -43q-84 0 -157.5 15t-105.5 31l-32 15zM401 408q82 0 159 34.5t127 96t50 131.5q0 78 -29 145.5t-89 111.5t-140 44q-136 0 -230.5 -99.5t-94.5 -246.5q0 -99 64.5 -158t182.5 -59z" />
<glyph horiz-adv-x="1073" d="M12 174l121 133q5 -6 14 -16.5t40.5 -36.5t66 -45.5t88 -36t109.5 -16.5q102 0 178 50t76 136q0 38 -28 69.5t-73.5 56t-100 48.5t-109 54t-100 65.5t-73.5 89t-28 119.5q0 142 113.5 242.5t293.5 115.5l37 180h143l-37 -182q83 -11 153.5 -43t99.5 -58l30 -26l-108 -145 q-4 4 -11.5 11t-33.5 24.5t-54.5 31t-74 24.5t-93.5 11q-46 0 -89 -10.5t-80.5 -31.5t-60 -57.5t-22.5 -84.5q0 -38 28 -69.5t73.5 -55t100 -47.5t109 -53t100 -64t73.5 -88.5t28 -120.5q0 -153 -122 -255t-297 -113l-37 -189h-144l39 195q-65 10 -123.5 33.5t-96 49 t-65.5 49.5t-41 40z" />
<glyph horiz-adv-x="1142" d="M98 530q0 110 42.5 211.5t115.5 178t172 127.5t209 65l35 170h147l-35 -168q59 -8 112.5 -27t88.5 -41.5t62 -44t39 -35.5l12 -14l-113 -135q-3 5 -10 13t-31.5 29t-52.5 37t-74.5 29t-97.5 13q-171 0 -293.5 -115.5t-122.5 -277.5q0 -116 78 -188t211 -72 q50 0 100.5 13.5t86.5 32.5t65 38.5t44 32.5l15 14l70 -158q-6 -6 -18 -15.5t-51 -34.5t-81 -44.5t-105.5 -37t-127.5 -20.5l-31 -161h-149l32 172q-161 32 -252.5 142.5t-91.5 270.5z" />
<glyph horiz-adv-x="1263" d="M-2 0l31 170h127l61 324h-92l27 139h92l39 192q35 175 176.5 279t333.5 104q62 0 120.5 -12t97.5 -29.5t69.5 -35t44.5 -29.5l14 -12l-115 -136q-4 3 -10.5 8t-30.5 18.5t-50 23.5t-67.5 18t-85.5 8q-116 0 -199 -64t-102 -159l-35 -174h443l-27 -139h-442l-64 -324h666 l-33 -170h-989z" />
<glyph horiz-adv-x="1269" d="M135 305l27 129h338l6 29l-49 117h-269l27 131h191l-193 475h217l141 -377q14 -36 29 -82t23 -74l8 -28h4q60 102 119 184l282 377h242l-377 -475h195l-25 -131h-272l-92 -117l-7 -29h342l-24 -129h-342l-60 -305h-200l59 305h-340z" />
<glyph horiz-adv-x="1161" d="M-80 -76q66 -12 127 -12q35 0 69 8t77 29.5t79 70t56 119.5l135 484h-168l31 159h182l65 232q27 94 73 164.5t93.5 108t106.5 60.5t102.5 29t89.5 6q39 0 87.5 -4.5t76.5 -9.5l29 -4l-33 -168q-99 14 -160 14q-36 0 -69.5 -8t-75 -29.5t-76.5 -70t-55 -119.5l-57 -201 h239l-33 -159h-254l-145 -519q-26 -93 -72 -162.5t-94 -107t-107 -60t-102 -28.5t-88 -6q-37 0 -78 4t-63 8l-23 4z" />
<glyph horiz-adv-x="1241" d="M119 651l24 123h144q40 90 103 166.5t147.5 137.5t195.5 95.5t236 34.5q61 0 117.5 -8t83.5 -16l26 -8l-74 -156q-69 20 -151 20q-159 0 -279.5 -74t-189.5 -192h520l-51 -123h-522q-20 -73 -23 -125h502l-49 -120h-443q28 -116 121 -188.5t246 -72.5q45 0 91 7.5 t70 14.5l23 7l4 -170q-88 -29 -194 -29q-127 0 -230 33.5t-171.5 93t-110 136.5t-54.5 168h-159l24 120h129q3 55 19 125h-125z" />
<glyph d="M262 530q-276 0 -276 299q0 62 9 128.5t27.5 139.5t51.5 138t76 117.5t106 83t137 30.5q277 0 277 -301q0 -61 -9 -128t-28 -140t-52 -137.5t-76.5 -116.5t-106 -82.5t-136.5 -30.5zM264 672q63 0 113.5 48.5t79 124t43 156t14.5 154.5q0 168 -121 168q-64 0 -114.5 -49 t-78.5 -125t-42.5 -156.5t-14.5 -156.5q0 -164 121 -164z" />
<glyph d="M-8 551l24 135h191l96 500l16 53h-4q-12 -16 -45 -45l-82 -66l-77 107l260 211h137l-148 -760h189l-27 -135h-530z" />
<glyph d="M-45 551q2 87 33.5 158.5t80.5 119.5t108 88.5t117.5 73.5t107 65.5t78.5 73.5t30 89q0 46 -34 76t-89 30q-45 0 -93 -24.5t-74 -48.5l-25 -25l-91 100q5 6 14.5 15t40 33t63 42.5t80.5 33.5t95 15q120 0 196.5 -64t76.5 -171q0 -65 -25.5 -119.5t-67.5 -93.5t-93 -72.5 t-104.5 -62.5t-100 -57.5t-82 -64.5t-47.5 -75h430l-27 -135h-598z" />
<glyph d="M256 530q-56 0 -108 14t-86 34t-60.5 40t-38.5 34l-12 14l96 100q3 -4 8.5 -10t25.5 -22.5t42.5 -29t59 -22.5t75.5 -10q77 0 135 52t58 128q0 56 -46 88.5t-110 32.5h-70l-24 78l221 211l59 49v4q-38 -6 -73 -6h-283l25 137h557l-19 -98l-274 -258q76 -14 135 -73.5 t59 -162.5q0 -127 -101 -225.5t-251 -98.5z" />
<glyph d="M303 551l43 219h-428l19 102l516 574h176l-107 -541h127l-24 -135h-127l-43 -219h-152zM121 905h250l49 252q4 24 12 53.5t14 47.5l5 18h-5q-36 -55 -77 -98l-248 -269v-4z" />
<glyph d="M244 530q-57 0 -108 14.5t-83 35t-55.5 41t-33.5 35.5l-11 14l102 98q2 -4 7 -10.5t22 -23t37 -29t53 -23t70 -10.5q80 0 146.5 57.5t66.5 140.5q0 60 -44.5 100t-113.5 40q-40 0 -80 -11t-60 -23l-20 -11l-84 32l135 449h478l-27 -137h-348l-39 -127l-23 -66h5 q45 21 102 21q120 0 198 -73.5t78 -186.5q0 -135 -109.5 -241t-260.5 -106z" />
<glyph d="M270 530q-133 0 -211.5 87.5t-78.5 238.5q0 70 21.5 152t65 163t102 147t140 107t170.5 41q55 0 104.5 -12t72.5 -24l22 -11l-70 -123q-53 27 -131 27q-94 0 -171.5 -72.5t-117.5 -183.5h5q77 63 174 63q110 0 178.5 -68t68.5 -177q0 -152 -102.5 -253.5t-241.5 -101.5z M276 672q80 0 132.5 62.5t52.5 144.5q0 59 -36.5 95t-100.5 36q-73 0 -130 -47.5t-57 -112.5q0 -72 37.5 -125t101.5 -53z" />
<glyph d="M-35 551l486 661l77 97v4q-39 -4 -92 -4h-340l27 137h618l-20 -105l-580 -790h-176z" />
<glyph d="M270 530q-126 0 -213.5 64t-87.5 178q0 39 15.5 78t36.5 68.5t50 58t49.5 44.5t41.5 30q-68 58 -68 143q0 65 29.5 118.5t76.5 86t102.5 50t111.5 17.5q121 0 195.5 -56t74.5 -153q0 -43 -19 -89.5t-49.5 -84.5t-51 -59.5t-40.5 -38.5q99 -70 99 -168 q0 -120 -108.5 -203.5t-244.5 -83.5zM465 815q0 20 -9 38t-20 30.5t-35.5 28.5t-39.5 24t-49 25l-48 24q-139 -90 -139 -199q0 -56 43.5 -89t105.5 -33q71 0 131 43.5t60 107.5zM242 1200q0 -26 13.5 -49t39 -41t50 -32t58.5 -30q9 -4 13 -6q20 15 43 38t48 68t25 89 q0 45 -36.5 70.5t-89.5 25.5q-61 0 -112.5 -35.5t-51.5 -97.5z" />
<glyph d="M-10 578l69 122q53 -26 131 -26q94 0 171.5 72.5t117.5 183.5h-4q-78 -64 -174 -64q-110 0 -179 68.5t-69 177.5q0 152 102.5 253t241.5 101q133 0 212 -87t79 -238q0 -70 -21.5 -152t-65.5 -163t-102.5 -147.5t-140 -107.5t-170.5 -41q-55 0 -104.5 12t-71.5 24z M344 987q73 0 129.5 47.5t56.5 112.5q0 72 -37.5 125t-101.5 53q-80 0 -132 -63t-52 -146q0 -58 36 -93.5t101 -35.5z" />
<glyph d="M176 -20q-276 0 -276 299q0 62 9 128.5t27.5 139.5t51.5 137.5t76 117t106 83t137 30.5q277 0 277 -301q0 -61 -9 -128t-28 -139.5t-52 -137t-76.5 -116.5t-106 -82.5t-136.5 -30.5zM178 121q63 0 113.5 48.5t79 124t43 156t14.5 154.5q0 168 -121 168q-64 0 -114.5 -49 t-78.5 -125t-42.5 -156.5t-14.5 -156.5q0 -164 121 -164z" />
<glyph d="M-88 0l25 135h190l96 500l17 53h-4q-13 -16 -46 -45l-81 -65l-78 106l260 211h137l-147 -760h188l-27 -135h-530z" />
<glyph d="M-143 0q2 87 33.5 158.5t80.5 119.5t108 88.5t117.5 73.5t107 65.5t78.5 73.5t30 89q0 46 -34 76t-89 30q-45 0 -93.5 -24.5t-73.5 -49.5l-26 -24l-90 100q5 6 14.5 15t40 33t63 42.5t80.5 33.5t95 15q120 0 196 -64t76 -171q0 -65 -25.5 -119.5t-67.5 -93.5t-93 -72.5 t-104.5 -62.5t-100 -57.5t-82 -64.5t-47.5 -75h430l-26 -135h-598z" />
<glyph d="M145 -20q-56 0 -108 14t-86 34t-60.5 39.5t-38.5 33.5l-12 14l97 100q3 -4 8.5 -10t25.5 -22.5t42 -29t58.5 -22.5t75.5 -10q77 0 135 52t58 128q0 56 -46 88.5t-110 32.5h-69l-25 78l221 211l60 49v4q-39 -6 -74 -6h-283l25 137h557l-18 -98l-275 -258q35 -6 67.5 -23 t62 -44.5t47.5 -71t18 -97.5q0 -126 -101.5 -224.5t-251.5 -98.5z" />
<glyph d="M225 0l43 219h-428l19 103l516 573h176l-107 -541h127l-24 -135h-127l-43 -219h-152zM43 354h250l49 252q4 24 12 53.5t14 47.5l5 18h-4q-37 -55 -78 -98l-248 -269v-4z" />
<glyph d="M143 -20q-57 0 -107.5 14.5t-82.5 35t-56 40.5t-34 34l-10 15l102 98q2 -4 7 -10.5t21.5 -23t36.5 -29t53 -23t70 -10.5q80 0 146.5 57.5t66.5 140.5q0 60 -44 100t-113 40q-40 0 -80 -11.5t-60 -22.5l-20 -11l-84 32l135 449h477l-26 -137h-348l-39 -127l-23 -66h4 q46 21 103 21q120 0 198 -73.5t78 -186.5q0 -135 -110 -240.5t-261 -105.5z" />
<glyph d="M184 -20q-133 0 -211.5 87t-78.5 238q0 70 21.5 152t65 163t102 147t140 107t170.5 41q55 0 104.5 -11.5t72.5 -23.5l22 -12l-70 -123q-53 27 -131 27q-94 0 -171.5 -72.5t-117.5 -183.5h4q78 64 175 64q110 0 178.5 -68.5t68.5 -177.5q0 -152 -102.5 -253t-241.5 -101z M190 121q80 0 132.5 62.5t52.5 144.5q0 58 -36.5 94.5t-100.5 36.5q-73 0 -130 -47.5t-57 -112.5q0 -72 37.5 -125t101.5 -53z" />
<glyph d="M-143 0l485 662q18 24 37.5 48t30.5 36l10 12v4q-39 -4 -92 -4h-340l26 137h619l-21 -104l-579 -791h-176z" />
<glyph d="M168 -20q-126 0 -213.5 63.5t-87.5 177.5q0 48 21 95t55.5 83.5t61 59t54.5 41.5q-67 57 -67 143q0 65 29 118.5t76 86t102.5 50t111.5 17.5q121 0 196 -55.5t75 -152.5q0 -43 -19 -89.5t-49.5 -84.5t-51.5 -60t-40 -39q98 -69 98 -168q0 -120 -108 -203t-244 -83z M362 264q0 20 -9 38t-20 30.5t-35.5 28.5t-39 24t-49 25t-47.5 24q-139 -90 -139 -198q0 -56 43.5 -89.5t105.5 -33.5q70 0 130 43.5t60 107.5zM139 649q0 -34 27.5 -64.5t52.5 -44.5t78 -40q11 -5 16 -8q14 10 30.5 26t37.5 41.5t35 59.5t14 67q0 45 -37 70.5t-90 25.5 q-61 0 -112.5 -35.5t-51.5 -97.5z" />
<glyph d="M-123 27l70 123q53 -27 131 -27q94 0 171.5 72.5t117.5 183.5h-5q-78 -64 -174 -64q-110 0 -178.5 68.5t-68.5 177.5q0 152 102.5 253t241.5 101q133 0 211.5 -87t78.5 -238q0 -70 -21.5 -152t-65 -163t-102 -147t-140 -107t-170.5 -41q-55 0 -104.5 11.5t-71.5 23.5z M231 436q73 0 130 47.5t57 112.5q0 72 -37.5 125t-101.5 53q-80 0 -132.5 -63t-52.5 -146q0 -58 36 -93.5t101 -35.5z" />
</font>
</defs>
</svg>
