<svg width="24" height="24" viewBox="0 0 24 24" version="1.1" xmlns="http://www.w3.org/2000/svg" xmlns:xlink="http://www.w3.org/1999/xlink" xmlns:figma="http://www.figma.com/figma/ns">
<title>ic_minus_box</title>
<desc>Created using Figma</desc>
<g id="Canvas" transform="translate(-3704 -2032)" figma:type="canvas">
<g id="ic_minus_box" figma:type="frame">
<g id="Bounds" opacity="0.01" figma:type="vector">
<use xlink:href="#path0_fill" transform="translate(3704 2032)" fill="#D0021B" fill-opacity="0.1"/>
</g>
<g id="Icon Shape" figma:type="vector-operation">
<use xlink:href="#path1_fill" transform="translate(3707 2036)" fill="#BDC0CB"/>
</g>
</g>
</g>
<defs>
<path id="path0_fill" fill-rule="evenodd" d="M 0 0L 24 0L 24 24L 0 24L 0 0Z"/>
<path id="path1_fill" fill-rule="evenodd" d="M 3 0L 14 0C 15.6599 0 17 1.33997 17 3L 17 14C 17 15.6599 15.6599 17 14 17L 3 17C 1.34009 17 0 15.6599 0 14L 0 3C 0 1.33997 1.34009 0 3 0ZM 4 8L 13 8L 13 9L 4 9L 4 8ZM 1 3C 1 1.90002 1.8999 1 3 1L 14 1C 15.1001 1 16 1.90002 16 3L 16 14C 16 15.1001 15.1001 16 14 16L 3 16C 1.8999 16 1 15.1001 1 14L 1 3Z"/>
</defs>
</svg>
