<svg width="62" height="54" viewBox="0 0 62 54" version="1.1" xmlns="http://www.w3.org/2000/svg" xmlns:xlink="http://www.w3.org/1999/xlink" xmlns:figma="http://www.figma.com/figma/ns">
<title>icon-react-native</title>
<desc>Created using Figma</desc>
<g id="Canvas" transform="translate(-3931 -1743)" figma:type="canvas">
<g id="icon-react-native" figma:type="frame">
<g id="Group" figma:type="frame">
<g id="Oval" figma:type="vector">
<use xlink:href="#path0_fill" transform="translate(3956.45 1764.45)" fill="#444F6C"/>
</g>
<g id="Oval" figma:type="vector">
<use xlink:href="#path1_stroke" transform="matrix(0.866025 0.5 -0.5 0.866025 3966.9 1739.08)" fill="#444F6C"/>
</g>
<g id="Oval" figma:type="vector">
<use xlink:href="#path1_stroke" transform="matrix(6.12323e-17 1 -1 6.12323e-17 3991.23 1758.81)" fill="#444F6C"/>
</g>
<g id="Oval" figma:type="vector">
<use xlink:href="#path1_stroke" transform="matrix(-0.866025 0.5 -0.5 -0.866025 3986.26 1789.74)" fill="#444F6C"/>
</g>
</g>
</g>
</g>
<defs>
<path id="path0_fill" fill-rule="evenodd" d="M 5.54722 11.0688C 8.61087 11.0688 11.0944 8.59094 11.0944 5.53438C 11.0944 2.47783 8.61087 0 5.54722 0C 2.48358 0 0 2.47783 0 5.53438C 0 8.59094 2.48358 11.0688 5.54722 11.0688Z"/>
<path id="path1_stroke" d="M 11.1726 59.4618C 13.0963 59.4618 14.815 58.438 16.2634 56.8351C 17.6699 55.2695 18.9672 52.9699 20.0069 50.2573C 22.0591 44.8746 23.3416 37.3874 23.3451 29.2309L 21.3451 29.2309C 21.3487 37.2181 20.1301 44.3464 18.1387 49.5432C 17.1565 52.1204 16.0463 54.1016 14.7795 55.4942C 13.5546 56.8497 12.3341 57.4618 11.1726 57.4618L 11.1726 59.4618ZM 23.3451 29.2309C 23.3416 21.0744 22.0591 13.5872 20.0069 8.2045C 18.9672 5.49189 17.6699 3.19233 16.2634 1.62664C 14.815 0.0238208 13.0963 -1 11.1726 -1L 11.1726 1C 12.3341 1 13.5546 1.61207 14.7795 2.96757C 16.0463 4.36021 17.1565 6.34142 18.1387 8.91856C 20.1301 14.1154 21.3487 21.2436 21.3451 29.2309L 23.3451 29.2309ZM 11.1726 -1C 9.24883 -1 7.53018 0.0238208 6.08176 1.62664C 4.67524 3.19233 3.37798 5.49189 2.33828 8.2045C 0.286041 13.5872 -0.996412 21.0744 -1 29.2309L 1 29.2309C 0.996412 21.2436 2.21502 14.1154 4.20646 8.91856C 5.18859 6.34142 6.29883 4.36021 7.56564 2.96757C 8.79057 1.61207 10.0111 1 11.1726 1L 11.1726 -1ZM -1 29.2309C -0.996412 37.3874 0.286041 44.8746 2.33828 50.2573C 3.37798 52.9699 4.67524 55.2695 6.08176 56.8351C 7.53018 58.438 9.24883 59.4618 11.1726 59.4618L 11.1726 57.4618C 10.0111 57.4618 8.79057 56.8497 7.56564 55.4942C 6.29883 54.1016 5.18859 52.1204 4.20646 49.5432C 2.21502 44.3464 0.996412 37.2181 1 29.2309L -1 29.2309Z"/>
</defs>
</svg>
