<svg width="57" height="65" viewBox="0 0 57 65" version="1.1" xmlns="http://www.w3.org/2000/svg" xmlns:xlink="http://www.w3.org/1999/xlink" xmlns:figma="http://www.figma.com/figma/ns">
<title>icon-ui-toolkit</title>
<desc>Created using Figma</desc>
<g id="Canvas" transform="translate(-4156 -1738)" figma:type="canvas">
<g id="icon-ui-toolkit" figma:type="frame">
<g id="Group 32" figma:type="frame">
<g id="icon-tutorial-ui-toolkit" figma:type="frame">
<g id="Rectangle 390" figma:type="vector">
<mask id="mask0_outline_ins">
<use xlink:href="#path0_fill" fill="white" transform="translate(4156 1738)"/>
</mask>
<g mask="url(#mask0_outline_ins)">
<use xlink:href="#path1_stroke_2x" transform="translate(4156 1738)" fill="#444F6C"/>
</g>
</g>
<g id="Line" figma:type="vector">
<use xlink:href="#path2_stroke" transform="translate(4158 1747)" fill="#444F6C"/>
</g>
<g id="Line" figma:type="vector">
<use xlink:href="#path2_stroke" transform="translate(4158 1792)" fill="#444F6C"/>
</g>
</g>
</g>
<g id="noun_689818_cc" figma:type="frame">
<g id="Group" figma:type="frame">
<g id="Shape" figma:type="vector-operation">
<use xlink:href="#path3_fill" transform="matrix(-1 0 0 1 4211 1756)" fill="#FFFFFF"/>
<use xlink:href="#path4_stroke" transform="matrix(-1 0 0 1 4211 1756)" fill="#FFFFFF"/>
</g>
<g id="Shape" figma:type="vector-operation">
<use xlink:href="#path5_fill" transform="matrix(-1 0 0 1 4211 1756)" fill="#444F6C"/>
</g>
<g id="Vector" figma:type="vector">
<use xlink:href="#path6_fill" transform="translate(4189.5 1771)" fill="#444F6C"/>
</g>
</g>
</g>
</g>
</g>
<defs>
<path id="path0_fill" fill-rule="evenodd" d="M 0 6C 0 2.68629 2.68629 0 6 0L 34 0C 37.3137 0 40 2.68629 40 6L 40 59C 40 62.3137 37.3137 65 34 65L 6 65C 2.68629 65 0 62.3137 0 59L 0 6Z"/>
<path id="path1_stroke_2x" d="M 6 2L 34 2L 34 -2L 6 -2L 6 2ZM 38 6L 38 59L 42 59L 42 6L 38 6ZM 34 63L 6 63L 6 67L 34 67L 34 63ZM 2 59L 2 6L -2 6L -2 59L 2 59ZM 6 -2C 1.58172 -2 -2 1.58172 -2 6L 2 6C 2 3.79086 3.79086 2 6 2L 6 -2ZM 34 2C 36.2091 2 38 3.79086 38 6L 42 6C 42 1.58172 38.4183 -2 34 -2L 34 2ZM 38 59C 38 61.2091 36.2091 63 34 63L 34 67C 38.4183 67 42 63.4183 42 59L 38 59ZM 6 63C 3.79086 63 2 61.2091 2 59L -2 59C -2 63.4183 1.58172 67 6 67L 6 63Z"/>
<path id="path2_stroke" d="M 0.473684 0L -0.526316 0L -0.526316 2L 0.473684 2L 0.473684 0ZM 35.5263 2L 36.5263 2L 36.5263 0L 35.5263 0L 35.5263 2ZM 0.473684 2L 35.5263 2L 35.5263 0L 0.473684 0L 0.473684 2Z"/>
<path id="path3_fill" fill-rule="evenodd" d="M 8.58496 24.9993C 9.22998 25.6453 10.0879 26.0003 11 26.0003C 11.9121 26.0003 12.77 25.6453 13.416 24.9983L 21.645 16.7693C 22.6211 15.7932 22.6211 14.2063 21.645 13.2303L 8.70703 0.293243C 8.31592 -0.0977478 7.68408 -0.0977478 7.29297 0.293243C 6.90186 0.684235 6.90186 1.31631 7.29297 1.70731L 9.58594 4.00027L 1 12.5852C 0.35498 13.2303 0 14.0883 0 15.0003C 0 15.9253 0.346191 16.7603 1 17.4153L 8.58496 24.9993ZM 20.7627 21.4423C 20.1294 22.3682 19.5 23.2884 19.5 24.3333C 19.5 25.8063 20.6191 27.0003 22 27.0003C 23.3809 27.0003 24.5 25.8063 24.5 24.3333C 24.5 23.2963 23.873 22.3771 23.2407 21.4502C 22.7046 20.6646 22.1646 19.8733 22 19.0003C 21.8374 19.8711 21.2983 20.6587 20.7627 21.4423Z"/>
<path id="path4_stroke" d="M 8.58496 24.9993L 10.0002 23.5862L 9.99908 23.585L 8.58496 24.9993ZM 13.416 24.9983L 12.0018 23.5841L 12.0007 23.5852L 13.416 24.9983ZM 21.645 13.2303L 23.0592 11.816L 23.0592 11.816L 21.645 13.2303ZM 8.70703 0.293243L 10.1212 -1.12102L 10.121 -1.12119L 8.70703 0.293243ZM 7.29297 1.70731L 8.70718 0.293092L 8.70696 0.292872L 7.29297 1.70731ZM 9.58594 4.00027L 11.0001 5.41457L 12.4144 4.00036L 11.0002 2.58606L 9.58594 4.00027ZM 1 12.5852L -0.414133 11.1709L -0.414214 11.171L 1 12.5852ZM 1 17.4153L -0.415533 18.8282L -0.414123 18.8296L 1 17.4153ZM 20.7627 21.4423L 22.4135 22.5714L 22.4138 22.571L 20.7627 21.4423ZM 23.2407 21.4502L 24.8929 20.3231L 24.8927 20.3229L 23.2407 21.4502ZM 22 19.0003L 23.9654 18.6298L 20.034 18.6332L 22 19.0003ZM 11 24.0003C 10.6179 24.0003 10.2695 23.8558 10.0002 23.5862L 7.16968 26.4124C 8.19049 27.4348 9.55783 28.0003 11 28.0003L 11 24.0003ZM 12.0007 23.5852C 11.7302 23.8561 11.3816 24.0003 11 24.0003L 11 28.0003C 12.4426 28.0003 13.8098 27.4345 14.8313 26.4115L 12.0007 23.5852ZM 20.2308 15.3551L 12.0018 23.5841L 14.8302 26.4125L 23.0592 18.1835L 20.2308 15.3551ZM 20.2308 14.6445C 20.4258 14.8395 20.4258 15.1601 20.2308 15.3551L 23.0592 18.1835C 24.8164 16.4264 24.8164 13.5732 23.0592 11.816L 20.2308 14.6445ZM 7.29287 1.70751L 20.2309 14.6445L 23.0592 11.816L 10.1212 -1.12102L 7.29287 1.70751ZM 8.70696 1.70768C 8.31708 2.09744 7.68292 2.09744 7.29304 1.70768L 10.121 -1.12119C 8.94891 -2.29294 7.05109 -2.29294 5.87898 -1.12119L 8.70696 1.70768ZM 8.70696 0.292872C 9.09719 0.682979 9.09719 1.31757 8.70696 1.70768L 5.87898 -1.12119C 4.70652 0.0508994 4.70652 1.94965 5.87898 3.12174L 8.70696 0.292872ZM 11.0002 2.58606L 8.70718 0.293092L 5.87876 3.12152L 8.17172 5.41449L 11.0002 2.58606ZM 2.41413 13.9995L 11.0001 5.41457L 8.1718 2.58598L -0.414133 11.1709L 2.41413 13.9995ZM 2 15.0003C 2 14.6181 2.14468 14.269 2.41421 13.9994L -0.414214 11.171C -1.43472 12.1915 -2 13.5584 -2 15.0003L 2 15.0003ZM 2.41553 16.0024C 2.13504 15.7214 2 15.3942 2 15.0003L -2 15.0003C -2 16.4565 -1.44266 17.7992 -0.415532 18.8282L 2.41553 16.0024ZM 9.99908 23.585L 2.41412 16.001L -0.414123 18.8296L 7.17084 26.4136L 9.99908 23.585ZM 21.5 24.3333C 21.5 24.0219 21.6895 23.6299 22.4135 22.5714L 19.1119 20.3132C 18.5693 21.1065 17.5 22.5548 17.5 24.3333L 21.5 24.3333ZM 22 25.0003C 21.8436 25.0003 21.5 24.8256 21.5 24.3333L 17.5 24.3333C 17.5 26.7871 19.3947 29.0003 22 29.0003L 22 25.0003ZM 22.5 24.3333C 22.5 24.8256 22.1564 25.0003 22 25.0003L 22 29.0003C 24.6053 29.0003 26.5 26.7871 26.5 24.3333L 22.5 24.3333ZM 21.5886 22.5773C 22.3127 23.6388 22.5 24.0291 22.5 24.3333L 26.5 24.3333C 26.5 22.5635 25.4334 21.1154 24.8929 20.3231L 21.5886 22.5773ZM 20.0346 19.3707C 20.2911 20.7313 21.1096 21.8754 21.5887 22.5776L 24.8927 20.3229C 24.2996 19.4537 24.038 19.0153 23.9654 18.6298L 20.0346 19.3707ZM 22.4138 22.571C 22.8914 21.8723 23.7117 20.7293 23.966 19.3674L 20.034 18.6332C 19.9631 19.0129 19.7053 19.4452 19.1116 20.3136L 22.4138 22.571Z"/>
<path id="path5_fill" fill-rule="evenodd" d="M 11 26.0003C 10.0879 26.0003 9.22998 25.6453 8.58496 24.9993L 1 17.4153C 0.346191 16.7603 0 15.9253 0 15.0003C 0 14.0883 0.35498 13.2303 1 12.5852L 9.58594 4.00027L 7.29297 1.70731C 6.90186 1.31631 6.90186 0.684235 7.29297 0.293243C 7.68408 -0.0977478 8.31592 -0.0977478 8.70703 0.293243L 21.645 13.2303C 22.6211 14.2063 22.6211 15.7932 21.645 16.7693L 13.416 24.9983C 12.77 25.6453 11.9121 26.0003 11 26.0003ZM 11 5.41434L 2.41504 14.0004C 2.14404 14.2714 2 14.6173 2 15.0004C 2 15.3993 2.13184 15.7183 2.41504 16.0004L 10 23.5854C 10.5352 24.1204 11.4658 24.1204 12 23.5854L 20.23 15.3564C 20.4258 15.1603 20.4258 14.8413 20.23 14.6453L 11 5.41434Z"/>
<path id="path6_fill" d="M 10.5 10.5L 0 0L 20.5 0L 10.5 10.5Z"/>
</defs>
</svg>
