<svg width="76" height="76" viewBox="0 0 76 76" version="1.1" xmlns="http://www.w3.org/2000/svg" xmlns:xlink="http://www.w3.org/1999/xlink" xmlns:figma="http://www.figma.com/figma/ns">
<title>paintbrush</title>
<desc>Created using Figma</desc>
<g id="Canvas" transform="translate(-4406 -845)" figma:type="canvas">
<g id="paintbrush" figma:type="frame">
<g id="noun_721822_cc" figma:type="frame">
<g id="Group" figma:type="frame">
<g id="Group" figma:type="frame">
<g id="Group 22" figma:type="frame">
<g id="Shape" figma:type="vector-operation">
<use xlink:href="#path0_fill" transform="matrix(-1 0 0 1 4450.73 851.221)" fill="#444F6C"/>
</g>
<g id="Shape" figma:type="vector-operation">
<use xlink:href="#path1_fill" transform="matrix(-1 0 0 1 4478.8 848.202)" fill="#FFFFFF"/>
<mask id="mask0_outline_out">
<rect id="mask0_outline_inv" fill="white" x="-3" y="-3" width="76" height="76" transform="matrix(-1 0 0 1 4478.8 848.202)"/>
<use xlink:href="#path1_fill" fill="black" transform="matrix(-1 0 0 1 4478.8 848.202)"/>
</mask>
<g mask="url(#mask0_outline_out)">
<use xlink:href="#path2_stroke_2x" transform="matrix(-1 0 0 1 4478.8 848.202)" fill="#444F6C"/>
</g>
</g>
</g>
<g id="Oval" figma:type="vector">
<use xlink:href="#path3_fill" transform="matrix(-1 0 0 1 4471.75 905.354)" fill="#FFFFFF"/>
</g>
</g>
</g>
</g>
</g>
</g>
<defs>
<path id="path0_fill" fill-rule="evenodd" d="M 28.624 30.0125L 31.7129 29.6813L 38.5127 22.8837L 15.6274 0L 7.71143 7.91626L 7.71143 10.5325C 7.91895 10.8725 9.74658 11.2875 12.8213 10.2975L 14.8188 9.65125C 17.9087 8.65503 19.4277 9.67499 20.0576 10.3713C 20.6875 11.07 21.5513 12.6825 20.25 15.6575L 19.3691 17.6713C 18.8179 18.9325 18.7676 19.985 19.2314 20.56C 19.6963 21.1362 20.7363 21.31 22.0825 21.035L 23.6602 20.7175C 26.1714 20.21 28.1274 20.6738 29.1587 22.0275C 29.6841 22.7175 30.3813 24.2338 29.1562 26.6512C 28.1313 28.6713 28.2588 29.8325 28.4189 30.0112C 28.415 30.0112 28.4526 30.0187 28.52 30.0187C 28.5479 30.0187 28.5825 30.0162 28.624 30.0125ZM 5.21143 10.5312L 5.21143 10.415L 0 15.6262L 22.8838 38.5112L 28.8901 32.4975C 28.7686 32.5112 28.6499 32.5175 28.5327 32.5175C 27.6226 32.5175 26.8423 32.13 26.3564 31.4262C 25.4673 30.1375 25.6748 27.9862 26.9248 25.52C 27.3623 24.6562 27.4551 23.9162 27.1689 23.54C 26.8701 23.1462 25.8999 22.8162 24.1538 23.1675L 22.5762 23.485C 20.2515 23.9537 18.3711 23.475 17.2861 22.1287C 16.2002 20.785 16.1265 18.845 17.0786 16.67L 17.96 14.6562C 18.5864 13.225 18.4824 12.3575 18.2036 12.0487C 17.9248 11.7425 17.0737 11.5537 15.5864 12.03L 13.5889 12.6762C 10.4624 13.6837 7.73486 13.6625 6.29639 12.615C 5.59619 12.1062 5.21143 11.365 5.21143 10.5312Z"/>
<path id="path1_fill" fill-rule="evenodd" d="M 69.2305 25.0178C 69.4653 25.2516 69.5967 25.5691 69.5967 25.9016C 69.5967 26.2328 69.4639 26.5503 69.2305 26.7853L 51.834 44.1828L 46.3179 49.699C 44.6216 51.394 41.4878 52.2153 39.1792 51.569L 31.6641 49.4666C 30.1753 49.0478 27.8101 49.5328 26.604 50.4991C 26.6055 50.4991 24.7988 52.1503 22.9092 58.3841C 21.4565 63.1753 16.2539 67.9465 11.064 69.2478C 10.1353 69.4791 9.23145 69.5953 8.36523 69.5953C 6.07764 69.5953 4.05029 68.7928 2.49512 67.2378L 2.35645 67.0991C 0.213867 64.9565 -0.5 61.9128 0.347656 58.5303C 1.64893 53.3403 6.42041 48.1378 11.2114 46.6853C 17.4517 44.7941 19.0991 42.9866 19.1152 42.9678C 20.0625 41.7841 20.5454 39.4203 20.1289 37.9316L 18.0278 30.4153C 17.3828 28.1066 18.2041 24.9703 19.8989 23.2766L 25.415 17.7615L 33.644 9.53284L 42.8101 0.366577C 43.2988 -0.122192 44.0889 -0.122192 44.5776 0.366577L 69.2305 25.0178ZM 33.2778 13.5504L 33.2778 13.4341L 28.0664 18.6453L 50.9502 41.5303L 56.9565 35.5166C 56.835 35.5303 56.7163 35.5366 56.5991 35.5366C 55.689 35.5366 54.9087 35.1491 54.4229 34.4453C 53.5337 33.1566 53.7412 31.0053 54.9912 28.5391C 55.4287 27.6754 55.5215 26.9353 55.2354 26.5591C 54.9365 26.1653 53.9663 25.8353 52.2202 26.1866L 50.6426 26.5041C 48.3179 26.9728 46.4375 26.4941 45.3525 25.1478C 44.2666 23.8041 44.1929 21.8641 45.145 19.6891L 46.0264 17.6754C 46.6528 16.2441 46.5488 15.3766 46.27 15.0678C 45.9912 14.7616 45.1401 14.5728 43.6528 15.0491L 41.6553 15.6953C 38.5288 16.7028 35.8013 16.6816 34.3628 15.6341C 33.6626 15.1253 33.2778 14.3841 33.2778 13.5504ZM 44.5513 47.9303C 43.4927 48.9891 41.2964 49.5641 39.854 49.1603L 32.3389 47.0578C 30.0776 46.4241 26.874 47.0803 25.0425 48.5466C 24.8037 48.7366 22.6528 50.6141 20.5176 57.6566C 19.3164 61.6203 14.8037 65.7316 10.4575 66.8203C 8.69141 67.264 6.18262 67.3878 4.26367 65.4691L 4.125 65.3303C 2.20654 63.4103 2.33008 60.9028 2.77246 59.1365C 3.86279 54.7903 7.97266 50.2778 11.9365 49.0765C 18.979 46.9416 20.8564 44.7916 21.0479 44.5528C 22.5151 42.7216 23.1689 39.5165 22.5366 37.2565L 20.4351 29.7403C 20.0312 28.2978 20.6064 26.1028 21.6665 25.0428L 26.2988 20.4116L 49.1826 43.2978L 44.5513 47.9303ZM 56.6904 33.0316L 59.7793 32.7003L 66.5791 25.9028L 43.6938 3.01904L 35.7778 10.9353L 35.7778 13.5515C 35.9854 13.8915 37.813 14.3065 40.8877 13.3165L 42.8853 12.6703C 45.9751 11.6741 47.4941 12.694 48.124 13.3903C 48.7539 14.0891 49.6177 15.7015 48.3164 18.6765L 47.4355 20.6903C 46.8843 21.9515 46.834 23.004 47.2979 23.579C 47.7627 24.1553 48.8027 24.329 50.1489 24.054L 51.7266 23.7366C 54.2378 23.2291 56.1938 23.6928 57.2251 25.0466C 57.7505 25.7366 58.4478 27.2528 57.2227 29.6703C 56.1978 31.6903 56.3252 32.8516 56.4854 33.0303C 56.4814 33.0303 56.519 33.0378 56.5864 33.0378C 56.6143 33.0378 56.6489 33.0353 56.6904 33.0316Z"/>
<path id="path2_stroke_2x" d="M 69.2305 25.0178L 67.4628 26.7857L 67.4669 26.7897L 69.2305 25.0178ZM 69.2305 26.7853L 70.9983 28.5531L 71.0044 28.5469L 69.2305 26.7853ZM 51.834 44.1828L 53.6018 45.9505L 53.6018 45.9505L 51.834 44.1828ZM 46.3179 49.699L 48.085 51.4675L 48.0857 51.4668L 46.3179 49.699ZM 39.1792 51.569L 39.8532 49.1616L 39.8528 49.1615L 39.1792 51.569ZM 31.6641 49.4666L 30.9871 51.8732L 30.9905 51.8741L 31.6641 49.4666ZM 26.604 50.4991L 25.0409 48.548L 19.4851 52.9991L 26.604 52.9991L 26.604 50.4991ZM 22.9092 58.3841L 25.3016 59.1095L 25.3017 59.1093L 22.9092 58.3841ZM 11.064 69.2478L 11.6681 71.6737L 11.672 71.6727L 11.064 69.2478ZM 2.49512 67.2378L 0.726961 69.0052L 0.727454 69.0057L 2.49512 67.2378ZM 2.35645 67.0991L 4.1246 65.3317L 4.12419 65.3313L 2.35645 67.0991ZM 0.347656 58.5303L -2.07729 57.9223L -2.07736 57.9226L 0.347656 58.5303ZM 11.2114 46.6853L 10.4863 44.2928L 10.4861 44.2928L 11.2114 46.6853ZM 19.1152 42.9678L 21.0108 44.5979L 21.0396 44.5643L 21.0672 44.5298L 19.1152 42.9678ZM 20.1289 37.9316L 17.7212 38.6046L 17.7214 38.6052L 20.1289 37.9316ZM 18.0278 30.4153L 15.62 31.088L 15.6201 31.0883L 18.0278 30.4153ZM 19.8989 23.2766L 21.6662 25.0449L 21.6665 25.0445L 19.8989 23.2766ZM 25.415 17.7615L 27.1826 19.5295L 27.1828 19.5293L 25.415 17.7615ZM 33.644 9.53284L 35.4118 11.3006L 35.4118 11.3006L 33.644 9.53284ZM 42.8101 0.366577L 41.0423 -1.40119L 41.0423 -1.40117L 42.8101 0.366577ZM 44.5776 0.366577L 42.8099 2.13434L 42.8099 2.1344L 44.5776 0.366577ZM 33.2778 13.4341L 35.7778 13.4341L 35.7778 7.3987L 31.5101 11.6663L 33.2778 13.4341ZM 28.0664 18.6453L 26.2987 16.8775L 24.5309 18.6452L 26.2986 20.413L 28.0664 18.6453ZM 50.9502 41.5303L 49.1824 43.2981L 50.9512 45.067L 52.719 43.297L 50.9502 41.5303ZM 56.9565 35.5166L 58.7254 37.2833L 63.7715 32.2309L 56.6759 33.0324L 56.9565 35.5166ZM 54.4229 34.4453L 52.3651 35.865L 52.3655 35.8656L 54.4229 34.4453ZM 54.9912 28.5391L 57.2211 29.6693L 57.2214 29.6687L 54.9912 28.5391ZM 55.2354 26.5591L 53.2439 28.0705L 53.2455 28.0725L 55.2354 26.5591ZM 52.2202 26.1866L 51.7272 23.7357L 51.727 23.7357L 52.2202 26.1866ZM 50.6426 26.5041L 50.1493 24.0532L 50.1484 24.0534L 50.6426 26.5041ZM 45.3525 25.1478L 47.2991 23.5791L 47.297 23.5765L 45.3525 25.1478ZM 45.145 19.6891L 47.4352 20.6917L 47.4353 20.6915L 45.145 19.6891ZM 46.0264 17.6754L 43.7361 16.6729L 43.7361 16.673L 46.0264 17.6754ZM 46.27 15.0678L 48.1255 13.3924L 48.1186 13.3847L 46.27 15.0678ZM 43.6528 15.0491L 42.8904 12.6681L 42.8833 12.6705L 43.6528 15.0491ZM 41.6553 15.6953L 42.4221 18.0748L 42.4248 18.0739L 41.6553 15.6953ZM 34.3628 15.6341L 35.8344 13.6131L 35.8324 13.6116L 34.3628 15.6341ZM 39.854 49.1603L 40.5279 46.7529L 40.5276 46.7528L 39.854 49.1603ZM 44.5513 47.9303L 46.3192 49.6979L 46.3193 49.6978L 44.5513 47.9303ZM 32.3389 47.0578L 31.6642 49.465L 31.6653 49.4654L 32.3389 47.0578ZM 25.0425 48.5466L 26.5992 50.5028L 26.6049 50.4982L 25.0425 48.5466ZM 20.5176 57.6566L 18.1251 56.9312L 18.125 56.9315L 20.5176 57.6566ZM 10.4575 66.8203L 9.85003 64.3952L 9.84834 64.3957L 10.4575 66.8203ZM 4.26367 65.4691L 2.49552 67.2364L 2.49599 67.2369L 4.26367 65.4691ZM 4.125 65.3303L 2.35653 67.0974L 2.35684 67.0977L 4.125 65.3303ZM 2.77246 59.1365L 0.3476 58.5282L 0.347366 58.5292L 2.77246 59.1365ZM 11.9365 49.0765L 12.6616 51.4691L 12.6618 51.469L 11.9365 49.0765ZM 21.0479 44.5528L 22.9985 46.1165L 22.9988 46.116L 21.0479 44.5528ZM 22.5366 37.2565L 20.129 37.9297L 20.1291 37.9301L 22.5366 37.2565ZM 20.4351 29.7403L 22.8427 29.0671L 22.8425 29.0664L 20.4351 29.7403ZM 21.6665 25.0428L 19.8989 23.2748L 19.8988 23.275L 21.6665 25.0428ZM 26.2988 20.4116L 28.0667 18.6439L 26.2991 16.8761L 24.5313 18.6436L 26.2988 20.4116ZM 49.1826 43.2978L 50.9506 45.0653L 52.7178 43.2977L 50.9505 41.5301L 49.1826 43.2978ZM 59.7793 32.7003L 60.0459 35.1861L 60.9229 35.092L 61.5468 34.4684L 59.7793 32.7003ZM 56.6904 33.0316L 56.9138 35.5216L 56.9354 35.5196L 56.957 35.5173L 56.6904 33.0316ZM 66.5791 25.9028L 68.3466 27.6708L 70.115 25.903L 68.3468 24.1349L 66.5791 25.9028ZM 43.6938 3.01904L 45.4616 1.25122L 43.6938 -0.516459L 41.9261 1.2513L 43.6938 3.01904ZM 35.7778 10.9353L 34.01 9.16756L 33.2778 9.89979L 33.2778 10.9353L 35.7778 10.9353ZM 35.7778 13.5515L 33.2778 13.5515L 33.2778 14.2541L 33.6439 14.8539L 35.7778 13.5515ZM 40.8877 13.3165L 41.6539 15.6962L 41.6572 15.6951L 40.8877 13.3165ZM 42.8853 12.6703L 42.1181 10.2909L 42.1157 10.2917L 42.8853 12.6703ZM 48.124 13.3903L 49.9809 11.7164L 49.978 11.7132L 48.124 13.3903ZM 48.3164 18.6765L 50.6069 19.6784L 50.6069 19.6784L 48.3164 18.6765ZM 47.4355 20.6903L 45.1451 19.6884L 45.1448 19.6891L 47.4355 20.6903ZM 47.2979 23.579L 49.2437 22.0094L 49.2436 22.0094L 47.2979 23.579ZM 50.1489 24.054L 49.6558 21.6031L 49.6485 21.6046L 50.1489 24.054ZM 51.7266 23.7366L 52.2197 26.1875L 52.2218 26.187L 51.7266 23.7366ZM 57.2251 25.0466L 59.2141 23.5321L 59.2138 23.5316L 57.2251 25.0466ZM 57.2227 29.6703L 59.4521 30.8015L 59.4527 30.8004L 57.2227 29.6703ZM 56.4854 33.0303L 56.4854 35.5303L 62.0828 35.5303L 58.3471 31.3618L 56.4854 33.0303ZM 72.0967 25.9016C 72.0967 24.9083 71.7033 23.9518 70.9941 23.2459L 67.4669 26.7897C 67.2273 26.5513 67.0967 26.2299 67.0967 25.9016L 72.0967 25.9016ZM 71.0044 28.5469C 71.6958 27.8506 72.0967 26.9028 72.0967 25.9016L 67.0967 25.9016C 67.0967 25.5628 67.2319 25.25 67.4565 25.0238L 71.0044 28.5469ZM 53.6018 45.9505L 70.9983 28.5531L 67.4627 25.0176L 50.0662 42.4151L 53.6018 45.9505ZM 48.0857 51.4668L 53.6018 45.9505L 50.0662 42.4151L 44.5501 47.9313L 48.0857 51.4668ZM 38.5052 53.9765C 41.684 54.8664 45.7506 53.8001 48.085 51.4675L 44.5508 47.9306C 43.4925 48.988 41.2916 49.5643 39.8532 49.1616L 38.5052 53.9765ZM 30.9905 51.8741L 38.5056 53.9766L 39.8528 49.1615L 32.3376 47.059L 30.9905 51.8741ZM 28.1671 52.4501C 28.3635 52.2929 28.8456 52.0524 29.5286 51.9128C 30.2121 51.7731 30.7475 51.8058 30.9871 51.8732L 32.341 47.0599C 31.0919 46.7086 29.7003 46.7744 28.5274 47.0141C 27.3541 47.2539 26.0506 47.7391 25.0409 48.548L 28.1671 52.4501ZM 25.3017 59.1093C 26.1881 56.1627 26.9946 54.4522 27.6312 53.3532C 27.914 52.8575 28.0962 52.6042 28.2568 52.4016C 28.3152 52.3261 28.3289 52.3115 28.3596 52.2785C 28.3632 52.2743 28.3539 52.2844 28.3515 52.2867C 28.3561 52.2822 28.3345 52.3034 28.3354 52.3025C 28.338 52.3 28.3304 52.3073 28.3321 52.3057C 28.3333 52.3045 28.341 52.2971 28.3478 52.2906C 28.3545 52.284 28.3771 52.2615 28.393 52.2453C 28.4093 52.2285 28.4603 52.1736 28.4944 52.135C 28.6068 51.9953 28.7974 49.2995 26.604 47.9991L 26.604 52.9991C 24.4106 51.6987 24.6012 49.0029 24.7136 48.8632C 24.7476 48.8246 24.7986 48.7698 24.8148 48.753C 24.7991 48.769 24.8662 48.7018 24.8597 48.7082C 24.8533 48.7143 24.8738 48.6946 24.8734 48.6949C 24.8735 48.6949 24.8685 48.6996 24.8624 48.7055C 24.8547 48.713 24.8338 48.7334 24.8156 48.7516C 24.7907 48.7765 24.7361 48.8328 24.6867 48.8859C 24.6116 48.9676 24.4696 49.1306 24.3292 49.3074C 24.0925 49.6092 23.7052 50.1583 23.3003 50.8547C 22.5615 52.1397 21.5199 54.3717 20.5167 57.6589L 25.3017 59.1093ZM 11.672 71.6727C 17.6428 70.1757 23.5735 64.8093 25.3016 59.1095L 20.5167 57.6587C 19.3396 61.5413 14.865 65.7174 10.456 66.8229L 11.672 71.6727ZM 8.36523 72.0953C 9.39127 72.0902 10.5976 71.9359 11.6681 71.6737L 10.4599 66.8219C 9.67294 67.0222 9.07162 67.1004 8.36523 67.0953L 8.36523 72.0953ZM 0.727454 69.0057C 2.78174 71.0597 5.45872 72.0953 8.36523 72.0953L 8.36523 67.0953C 6.69655 67.0953 5.31885 66.5259 4.26278 65.4699L 0.727454 69.0057ZM 0.588289 68.8664L 0.726961 69.0052L 4.26327 65.4704L 4.1246 65.3317L 0.588289 68.8664ZM -2.07736 57.9226C -3.10041 62.0051 -2.27879 65.9994 0.588704 68.8669L 4.12419 65.3313C 2.70652 63.9136 2.10041 61.8206 2.77267 59.138L -2.07736 57.9226ZM 10.4861 44.2928C 4.78647 46.0208 -0.580201 51.9513 -2.07729 57.9223L 2.7726 59.1383C 3.87805 54.7293 8.05435 50.2548 11.9368 49.0778L 10.4861 44.2928ZM 17.2197 41.3378C 17.6223 40.8696 16.4639 42.4811 10.4863 44.2928L 11.9365 49.0778C 18.4394 47.107 20.5759 45.1035 21.0108 44.5979L 17.2197 41.3378ZM 17.7214 38.6052C 17.7892 38.8477 17.8212 39.3857 17.6831 40.0685C 17.5445 40.7537 17.3075 41.2256 17.1633 41.4059L 21.0672 44.5298C 21.8703 43.5263 22.3483 42.2244 22.5839 41.0596C 22.8199 39.8924 22.8851 38.5042 22.5365 37.258L 17.7214 38.6052ZM 15.6201 31.0883L 17.7212 38.6046L 22.5366 37.2585L 20.4355 29.7422L 15.6201 31.0883ZM 18.1317 21.5082C 15.7972 23.8413 14.7324 27.911 15.62 31.088L 20.4356 29.7426C 20.0332 28.3022 20.611 26.0994 21.6662 25.0449L 18.1317 21.5082ZM 23.6474 15.9936L 18.1313 21.5086L 21.6665 25.0445L 27.1826 19.5295L 23.6474 15.9936ZM 31.8763 7.76504L 23.6473 15.9937L 27.1828 19.5293L 35.4118 11.3006L 31.8763 7.76504ZM 41.0423 -1.40117L 31.8763 7.76509L 35.4118 11.3006L 44.5779 2.13432L 41.0423 -1.40117ZM 46.3454 -1.40119C 44.8803 -2.86627 42.5074 -2.86627 41.0423 -1.40119L 44.5778 2.13434C 44.0903 2.62189 43.2974 2.62189 42.8099 2.13434L 46.3454 -1.40119ZM 70.9982 23.25L 46.3453 -1.40125L 42.8099 2.1344L 67.4628 26.7856L 70.9982 23.25ZM 30.7778 13.4341L 30.7778 13.5504L 35.7778 13.5504L 35.7778 13.4341L 30.7778 13.4341ZM 29.8341 20.4131L 35.0456 15.2019L 31.5101 11.6663L 26.2987 16.8775L 29.8341 20.4131ZM 52.718 39.7626L 29.8342 16.8776L 26.2986 20.413L 49.1824 43.2981L 52.718 39.7626ZM 55.1877 33.7499L 49.1813 39.7637L 52.719 43.297L 58.7254 37.2833L 55.1877 33.7499ZM 56.5991 38.0366C 56.7818 38.0357 57.0408 38.0218 57.2371 38.0008L 56.6759 33.0324C 56.6291 33.0388 56.6508 33.0374 56.5991 33.0366L 56.5991 38.0366ZM 52.3655 35.8656C 53.359 37.3049 54.9423 38.0366 56.5991 38.0366L 56.5991 33.0366C 56.5491 33.0366 56.5155 33.0313 56.4962 33.0269C 56.4864 33.0247 56.4797 33.0226 56.4758 33.0212C 56.4738 33.0205 56.4723 33.0199 56.4715 33.0195C 56.4706 33.0191 56.4702 33.0189 56.4702 33.0189C 56.4702 33.0189 56.4705 33.0191 56.4711 33.0194C 56.4717 33.0198 56.4725 33.0203 56.4735 33.021C 56.4755 33.0223 56.4777 33.0239 56.4797 33.0257C 56.4844 33.0297 56.4843 33.0309 56.4803 33.0251L 52.3655 35.8656ZM 52.7613 27.4088C 51.4216 30.0521 50.6466 33.3743 52.3651 35.865L 56.4806 33.0256C 56.4208 32.9389 56.0609 31.9585 57.2211 29.6693L 52.7613 27.4088ZM 53.2455 28.0725C 53.0343 27.7949 52.9512 27.5256 52.9198 27.3532C 52.8893 27.1855 52.9012 27.0787 52.9036 27.059C 52.9072 27.0301 52.8929 27.149 52.761 27.4094L 57.2214 29.6687C 57.5183 29.0671 57.7816 28.255 57.8657 27.6736C 57.9473 27.0144 57.9265 25.9678 57.2252 25.0457L 53.2455 28.0725ZM 52.7133 28.6375C 53.3657 28.5062 53.7205 28.5351 53.8365 28.5555C 53.8926 28.5654 53.8551 28.5666 53.758 28.5176C 53.6697 28.473 53.4538 28.347 53.2439 28.0705L 57.2268 25.0477C 56.5396 24.1422 55.5084 23.7731 54.7045 23.6314C 53.9804 23.5143 52.8358 23.5242 51.7272 23.7357L 52.7133 28.6375ZM 51.1358 28.9549L 52.7135 28.6374L 51.727 23.7357L 50.1493 24.0532L 51.1358 28.9549ZM 43.406 26.7166C 45.2927 29.0577 48.294 29.528 51.1367 28.9548L 50.1484 24.0534C 48.3418 24.4177 47.5823 23.9305 47.2991 23.5791L 43.406 26.7166ZM 42.8549 18.6865C 41.6893 21.3491 41.5199 24.3827 43.4081 26.7192L 47.297 23.5765C 47.0133 23.2255 46.6965 22.3791 47.4352 20.6917L 42.8549 18.6865ZM 43.7361 16.673L 42.8548 18.6867L 47.4353 20.6915L 48.3166 18.6777L 43.7361 16.673ZM 44.4145 16.7432C 44.1538 16.4545 44.0569 16.1791 44.0218 16.0475C 43.9842 15.9063 43.9905 15.8313 43.9897 15.8503C 43.988 15.8928 43.9617 16.1575 43.7361 16.6729L 48.3166 18.6778C 48.7142 17.7415 48.9485 16.7136 48.9857 16.051C 49.0155 15.309 48.8901 14.2392 48.1255 13.3924L 44.4145 16.7432ZM 44.4152 17.43C 44.9525 17.2579 45.2205 17.2579 45.2653 17.2606C 45.2854 17.2618 45.2111 17.2606 45.0751 17.2097C 44.9486 17.1622 44.6837 17.039 44.4215 16.7509L 48.1186 13.3847C 47.3517 12.5425 46.3011 12.3136 45.5639 12.2695C 44.9029 12.2403 43.8604 12.3691 42.8904 12.6682L 44.4152 17.43ZM 42.4248 18.0739L 44.4224 17.4277L 42.8833 12.6705L 40.8858 13.3167L 42.4248 18.0739ZM 32.8912 17.6551C 34.1888 18.6 35.8156 18.9226 37.3555 18.9352C 38.8267 18.9378 40.6847 18.6278 42.4221 18.0748L 40.8885 13.3158C 39.4994 13.7703 38.4304 13.9535 37.3966 13.9354C 36.4315 13.9275 35.9753 13.7157 35.8344 13.6131L 32.8912 17.6551ZM 30.7778 13.5504C 30.7778 15.2159 31.5717 16.6963 32.8932 17.6565L 35.8324 13.6116C 35.8031 13.5904 35.7876 13.5744 35.7809 13.5667C 35.7744 13.5592 35.7738 13.557 35.7755 13.5602C 35.7773 13.5636 35.7786 13.5673 35.779 13.5693C 35.7795 13.5712 35.7778 13.5657 35.7778 13.5504L 30.7778 13.5504ZM 39.1801 51.5678C 40.4531 51.9241 41.8348 51.8121 42.9798 51.5122C 44.1248 51.2124 45.3843 50.6329 46.3192 49.6979L 42.7833 46.1627C 42.6596 46.2864 42.2917 46.5238 41.7133 46.6753C 41.135 46.8267 40.6973 46.8003 40.5279 46.7529L 39.1801 51.5678ZM 31.6653 49.4654L 39.1804 51.5679L 40.5276 46.7528L 33.0124 44.6502L 31.6653 49.4654ZM 26.6049 50.4982C 27.8094 49.5339 30.1807 49.0493 31.6642 49.465L 33.0135 44.6506C 29.9746 43.7989 25.9386 44.6267 23.4801 46.5949L 26.6049 50.4982ZM 22.91 58.3819C 24.9534 51.6425 26.8843 50.2759 26.5992 50.5028L 23.4858 46.5904C 22.7232 47.1972 20.3523 49.5856 18.1251 56.9312L 22.91 58.3819ZM 11.065 69.2454C 16.1797 67.9641 21.4299 63.2661 22.9101 58.3816L 18.125 56.9315C 17.2029 59.9745 13.4278 63.499 9.85003 64.3952L 11.065 69.2454ZM 2.49599 67.2369C 5.34647 70.0871 8.98263 69.7686 11.0667 69.245L 9.84834 64.3957C 8.40019 64.7595 7.01876 64.6885 6.03135 63.7012L 2.49599 67.2369ZM 2.35684 67.0977L 2.49552 67.2364L 6.03183 63.7017L 5.89316 63.5629L 2.35684 67.0977ZM 0.347366 58.5292C -0.174452 60.6126 -0.492218 64.2464 2.35653 67.0974L 5.89347 63.5633C 4.9053 62.5743 4.83461 61.1931 5.19756 59.7439L 0.347366 58.5292ZM 11.2114 46.684C 6.32648 48.1644 1.63043 53.4146 0.3476 58.5282L 5.19732 59.7449C 6.09515 56.1659 9.61883 52.3912 12.6616 51.4691L 11.2114 46.684ZM 19.0972 42.9891C 19.3196 42.7117 17.9472 44.642 11.2112 46.6841L 12.6618 51.469C 20.0108 49.2411 22.3933 46.8714 22.9985 46.1165L 19.0972 42.9891ZM 20.1291 37.9301C 20.5445 39.4148 20.0604 41.7871 19.0969 42.9896L 22.9988 46.116C 24.9699 43.656 25.7934 39.6183 24.9442 36.5829L 20.1291 37.9301ZM 18.0274 30.4135L 20.129 37.9297L 24.9443 36.5833L 22.8427 29.0671L 18.0274 30.4135ZM 19.8988 23.275C 18.9638 24.2099 18.3838 25.4688 18.0835 26.6142C 17.7833 27.7595 17.6712 29.1411 18.0276 30.4142L 22.8425 29.0664C 22.7951 28.897 22.7687 28.4598 22.9201 27.882C 23.0716 27.3043 23.3091 26.9357 23.4342 26.8106L 19.8988 23.275ZM 24.5313 18.6436L 19.8989 23.2748L 23.4341 26.8108L 28.0664 22.1795L 24.5313 18.6436ZM 50.9505 41.5301L 28.0667 18.6439L 24.531 22.1792L 47.4148 45.0655L 50.9505 41.5301ZM 46.3193 49.6978L 50.9506 45.0653L 47.4146 41.5302L 42.7833 46.1628L 46.3193 49.6978ZM 59.5127 30.2146L 56.4239 30.5458L 56.957 35.5173L 60.0459 35.1861L 59.5127 30.2146ZM 64.8116 24.1347L 58.0118 30.9323L 61.5468 34.4684L 68.3466 27.6708L 64.8116 24.1347ZM 41.9261 4.78687L 64.8114 27.6706L 68.3468 24.1349L 45.4616 1.25122L 41.9261 4.78687ZM 37.5456 12.703L 45.4616 4.78678L 41.9261 1.2513L 34.01 9.16756L 37.5456 12.703ZM 38.2778 13.5515L 38.2778 10.9353L 33.2778 10.9353L 33.2778 13.5515L 38.2778 13.5515ZM 40.1215 10.9368C 38.8108 11.3589 37.8672 11.4478 37.3224 11.4336C 37.0465 11.4315 36.8254 11.3618 36.9203 11.3942C 36.9269 11.3954 36.9879 11.4175 36.9798 11.4151C 37.0123 11.4279 37.0687 11.4521 37.141 11.4921C 37.2253 11.5387 37.6097 11.7541 37.9118 12.2491L 33.6439 14.8539C 33.9978 15.4339 34.4847 15.7367 34.7207 15.8672C 34.9347 15.9801 35.2967 16.1268 35.5425 16.2007C 35.9448 16.3108 36.6014 16.4116 37.1927 16.4319C 38.2382 16.4527 39.8816 16.2544 41.6539 15.6962L 40.1215 10.9368ZM 42.1157 10.2917L 40.1182 10.9379L 41.6572 15.6951L 43.6548 15.0489L 42.1157 10.2917ZM 49.978 11.7132C 48.6627 10.2592 46.1066 9.00496 42.1181 10.2909L 43.6524 15.0497C 44.8413 14.6664 45.5044 14.7396 45.8038 14.8167C 46.0977 14.8923 46.2262 15.019 46.2701 15.0675L 49.978 11.7132ZM 50.6069 19.6784C 52.2877 15.8357 51.2913 13.1701 49.9809 11.7164L 46.2671 15.0642C 46.3141 15.1163 46.4273 15.2586 46.4732 15.5582C 46.5199 15.8635 46.5266 16.5301 46.0259 17.6746L 50.6069 19.6784ZM 49.726 21.6922L 50.6069 19.6784L 46.0259 17.6746L 45.1451 19.6884L 49.726 21.6922ZM 49.2436 22.0094C 49.5211 22.3533 49.4777 22.6258 49.4832 22.5111C 49.4881 22.4085 49.5326 22.1346 49.7263 21.6916L 45.1448 19.6891C 44.7974 20.5032 44.538 21.5233 44.4889 22.2729C 44.4473 23.1435 44.6107 24.2298 45.3521 25.1487L 49.2436 22.0094ZM 49.6485 21.6046C 49.1783 21.7007 48.9035 21.6864 48.804 21.6698C 48.6929 21.6513 48.9673 21.6669 49.2437 22.0094L 45.3521 25.1487C 46.0932 26.0675 47.1201 26.458 47.9817 26.6017C 48.7259 26.7121 49.78 26.673 50.6493 26.5034L 49.6485 21.6046ZM 51.2334 21.2857L 49.6558 21.6031L 50.6421 26.5049L 52.2197 26.1875L 51.2334 21.2857ZM 59.2138 23.5316C 57.3317 21.0609 54.1453 20.6972 51.2313 21.2861L 52.2218 26.187C 54.3302 25.7609 55.056 26.3248 55.2364 26.5615L 59.2138 23.5316ZM 59.4527 30.8004C 61.1491 27.4528 60.2672 24.9151 59.2141 23.5321L 55.2361 26.5611C 55.2859 26.6265 55.3702 26.7622 55.3962 26.9917C 55.4208 27.209 55.4161 27.7046 54.9927 28.5402L 59.4527 30.8004ZM 58.3471 31.3618C 58.5244 31.5596 58.6304 31.7448 58.6886 31.8603C 58.7504 31.9831 58.7884 32.0874 58.8112 32.159C 58.856 32.2997 58.8693 32.3997 58.8735 32.437C 58.8822 32.5151 58.8704 32.4996 58.8872 32.375C 58.9195 32.1351 59.0427 31.6084 59.4521 30.8015L 54.9932 28.5391C 54.3814 29.771 54.0379 30.9679 53.932 31.7066C 53.8775 32.1499 53.8739 32.6811 53.9043 32.9909C 53.9291 33.214 54.0198 34.025 54.6236 34.6987L 58.3471 31.3618ZM 56.5864 30.5378C 56.5309 30.5362 56.8063 30.5512 56.7783 30.5486C 56.7412 30.5441 56.9511 30.5739 56.9203 30.5688C 56.8831 30.5619 57.1783 30.6268 57.1177 30.6118C 57.0843 30.6028 57.3367 30.6787 57.2861 30.6622C 57.2468 30.6485 57.5304 30.7578 57.4753 30.7348C 57.5315 30.7591 57.7207 30.8412 57.9349 30.9936C 58.0387 31.0676 58.2559 31.2326 58.4653 31.5043C 58.6684 31.7678 59.0311 32.3544 58.9804 33.1829C 58.926 34.0722 58.4359 34.6612 58.0781 34.957C 57.7517 35.2269 57.4364 35.3469 57.297 35.3948C 57.007 35.4944 56.7665 35.5152 56.7054 35.5206C 56.7704 35.5157 56.4404 35.5307 56.4854 35.5303L 56.4854 30.5303C 56.4403 30.5307 56.3301 30.5351 56.265 30.54C 56.159 30.5516 55.8615 30.6093 55.6732 30.6658C 55.5103 30.7282 55.1138 30.94 54.892 31.1036C 54.5343 31.3994 54.0441 31.9884 53.9897 32.8778C 53.9391 33.7062 54.3018 34.2928 54.5049 34.5564C 54.6498 34.728 54.9198 34.9797 55.0354 35.0671C 55.1766 35.1606 55.4087 35.2868 55.4951 35.326C 55.5502 35.349 55.6451 35.385 55.6846 35.3987C 55.7354 35.4153 55.8201 35.4403 55.8539 35.4494C 55.9162 35.4649 56.0185 35.4866 56.0597 35.4941C 56.0986 35.5007 56.1856 35.5132 56.24 35.5195C 56.3027 35.5259 56.4635 35.5362 56.5864 35.5378L 56.5864 30.5378ZM 56.4671 30.5416C 56.4561 30.5425 56.4619 30.5419 56.4763 30.541C 56.4892 30.5402 56.5298 30.5378 56.5864 30.5378L 56.5864 35.5378C 56.7043 35.5362 56.8506 35.5271 56.9138 35.5216L 56.4671 30.5416Z"/>
<path id="path3_fill" fill-rule="evenodd" d="M 2.65625 5.3125C 4.12326 5.3125 5.3125 4.12326 5.3125 2.65625C 5.3125 1.18924 4.12326 0 2.65625 0C 1.18924 0 0 1.18924 0 2.65625C 0 4.12326 1.18924 5.3125 2.65625 5.3125Z"/>
</defs>
</svg>
