<svg width="103" height="77" viewBox="0 0 103 77" version="1.1" xmlns="http://www.w3.org/2000/svg" xmlns:xlink="http://www.w3.org/1999/xlink" xmlns:figma="http://www.figma.com/figma/ns">
<title>puzzle-wrench</title>
<desc>Created using Figma</desc>
<g id="Canvas" transform="translate(-4106 -837)" figma:type="canvas">
<g id="puzzle-wrench" figma:type="frame">
<g id="puzzle" figma:type="frame">
<g id="Icon Shape" figma:type="vector">
<use xlink:href="#path0_stroke" transform="translate(4108 846)" fill="#FFFFFF"/>
</g>
<g id="Oval 2" figma:type="vector">
<use xlink:href="#path1_fill" transform="translate(4114 902)" fill="#FFFFFF"/>
</g>
<g id="Oval 2" figma:type="vector">
<use xlink:href="#path1_fill" transform="translate(4151 902)" fill="#FFFFFF"/>
</g>
<g id="Oval 2" figma:type="vector">
<use xlink:href="#path1_fill" transform="translate(4114 865)" fill="#FFFFFF"/>
</g>
<g id="Oval 2" figma:type="vector">
<use xlink:href="#path1_fill" transform="translate(4149 870)" fill="#FFFFFF"/>
</g>
</g>
<g id="wrench" figma:type="vector">
<use xlink:href="#path2_fill" transform="matrix(0.0697565 -0.997564 0.997564 0.0697565 4143.98 894.834)" fill="#444F6C"/>
<use xlink:href="#path3_stroke" transform="matrix(0.0697565 -0.997564 0.997564 0.0697565 4143.98 894.834)" fill="#FFFFFF"/>
</g>
</g>
</g>
<defs>
<path id="path0_stroke" d="M 53.4286 31.4286L 52.1786 31.4286L 52.1786 32.6786L 53.4286 32.6786L 53.4286 31.4286ZM 34.5714 12.5714L 33.3214 12.5714L 33.3214 13.8214L 34.5714 13.8214L 34.5714 12.5714ZM 18.8571 12.5714L 18.8571 13.8214L 20.1071 13.8214L 20.1071 12.5714L 18.8571 12.5714ZM 0.0314286 30.8L -1.21857 30.8L -1.21857 32.05L 0.0314286 32.05L 0.0314286 30.8ZM 0 47.7714L 0 46.5214L -1.25 46.5214L -1.25 47.7714L 0 47.7714ZM 18.2286 66L 18.2286 67.25L 19.4786 67.25L 19.4786 66L 18.2286 66ZM 35.2 66L 33.95 66L 33.95 67.25L 35.2 67.25L 35.2 66ZM 53.4286 47.1429L 53.4286 45.8929L 52.1786 45.8929L 52.1786 47.1429L 53.4286 47.1429ZM 54.6786 31.4286L 54.6786 18.8571L 52.1786 18.8571L 52.1786 31.4286L 54.6786 31.4286ZM 54.6786 18.8571C 54.6786 14.7096 51.2904 11.3214 47.1429 11.3214L 47.1429 13.8214C 49.9096 13.8214 52.1786 16.0904 52.1786 18.8571L 54.6786 18.8571ZM 47.1429 11.3214L 34.5714 11.3214L 34.5714 13.8214L 47.1429 13.8214L 47.1429 11.3214ZM 35.8214 12.5714L 35.8214 7.85714L 33.3214 7.85714L 33.3214 12.5714L 35.8214 12.5714ZM 35.8214 7.85714C 35.8214 2.82964 31.7418 -1.25 26.7143 -1.25L 26.7143 1.25C 30.3611 1.25 33.3214 4.21036 33.3214 7.85714L 35.8214 7.85714ZM 26.7143 -1.25C 21.6868 -1.25 17.6071 2.82964 17.6071 7.85714L 20.1071 7.85714C 20.1071 4.21036 23.0675 1.25 26.7143 1.25L 26.7143 -1.25ZM 17.6071 7.85714L 17.6071 12.5714L 20.1071 12.5714L 20.1071 7.85714L 17.6071 7.85714ZM 18.8571 11.3214L 6.28571 11.3214L 6.28571 13.8214L 18.8571 13.8214L 18.8571 11.3214ZM 6.28571 11.3214C 2.13007 11.3214 -1.21857 14.7178 -1.21857 18.8571L 1.28143 18.8571C 1.28143 16.0822 3.52707 13.8214 6.28571 13.8214L 6.28571 11.3214ZM -1.21857 18.8571L -1.21857 30.8L 1.28143 30.8L 1.28143 18.8571L -1.21857 18.8571ZM 0.0314286 32.05L 4.71429 32.05L 4.71429 29.55L 0.0314286 29.55L 0.0314286 32.05ZM 4.71429 32.05C 8.70679 32.05 11.95 35.2932 11.95 39.2857L 14.45 39.2857C 14.45 33.9125 10.0875 29.55 4.71429 29.55L 4.71429 32.05ZM 11.95 39.2857C 11.95 43.2782 8.70679 46.5214 4.71429 46.5214L 4.71429 49.0214C 10.0875 49.0214 14.45 44.6589 14.45 39.2857L 11.95 39.2857ZM 4.71429 46.5214L 0 46.5214L 0 49.0214L 4.71429 49.0214L 4.71429 46.5214ZM -1.25 47.7714L -1.25 59.7143L 1.25 59.7143L 1.25 47.7714L -1.25 47.7714ZM -1.25 59.7143C -1.25 63.8618 2.13822 67.25 6.28571 67.25L 6.28571 64.75C 3.51893 64.75 1.25 62.4811 1.25 59.7143L -1.25 59.7143ZM 6.28571 67.25L 18.2286 67.25L 18.2286 64.75L 6.28571 64.75L 6.28571 67.25ZM 19.4786 66L 19.4786 61.2857L 16.9786 61.2857L 16.9786 66L 19.4786 66ZM 19.4786 61.2857C 19.4786 57.2932 22.7218 54.05 26.7143 54.05L 26.7143 51.55C 21.3411 51.55 16.9786 55.9125 16.9786 61.2857L 19.4786 61.2857ZM 26.7143 54.05C 30.7068 54.05 33.95 57.2932 33.95 61.2857L 36.45 61.2857C 36.45 55.9125 32.0875 51.55 26.7143 51.55L 26.7143 54.05ZM 33.95 61.2857L 33.95 66L 36.45 66L 36.45 61.2857L 33.95 61.2857ZM 35.2 67.25L 47.1429 67.25L 47.1429 64.75L 35.2 64.75L 35.2 67.25ZM 47.1429 67.25C 51.2904 67.25 54.6786 63.8618 54.6786 59.7143L 52.1786 59.7143C 52.1786 62.4811 49.9096 64.75 47.1429 64.75L 47.1429 67.25ZM 54.6786 59.7143L 54.6786 47.1429L 52.1786 47.1429L 52.1786 59.7143L 54.6786 59.7143ZM 53.4286 48.3929L 58.1429 48.3929L 58.1429 45.8929L 53.4286 45.8929L 53.4286 48.3929ZM 58.1429 48.3929C 60.9722 48.3929 62.7859 46.547 63.8249 44.3814C 64.8141 42.2882 65.2463 39.5498 65.25 37.2857L 62.75 37.2857C 62.7537 39.3588 62.4259 41.549 61.5708 43.3C 60.7655 44.9787 59.6507 45.8929 58.1429 45.8929L 58.1429 48.3929ZM 65.25 37.2857C 65.25 35.0333 64.869 33.1341 63.5817 31.8468C 62.2944 30.5595 60.3952 30.1786 58.1429 30.1786L 58.1429 32.6786C 60.2276 32.6786 61.257 33.0576 61.814 33.6146C 62.371 34.1716 62.75 35.2009 62.75 37.2857L 65.25 37.2857ZM 58.1429 30.1786L 53.4286 30.1786L 53.4286 32.6786L 58.1429 32.6786L 58.1429 30.1786Z"/>
<path id="path1_fill" fill-rule="evenodd" d="M 2 4C 3.10457 4 4 3.10457 4 2C 4 0.89543 3.10457 0 2 0C 0.89543 0 0 0.89543 0 2C 0 3.10457 0.89543 4 2 4Z"/>
<path id="path2_fill" fill-rule="evenodd" d="M 57.9453 48.0287L 40.6083 30.6959L 29.6381 19.9427L 30.0831 18.6145L 30.2699 16.7432C 30.323 16.2269 30.3505 15.7032 30.3505 15.1739C 30.3505 11.1218 28.7721 7.30958 25.9063 4.44758C 23.0389 1.58018 19.2282 0 15.1724 0C 13.7808 0 12.4038 0.190433 11.0799 0.563916C 10.9041 0.611495 10.7466 0.70677 10.6166 0.833101C 10.2009 1.25053 10.2009 1.92624 10.6166 2.34367L 19.0305 10.7593C 19.3749 11.1036 19.3821 11.889 19.0526 12.8613C 18.6443 14.0698 17.7726 15.3955 16.6008 16.5931C 15.4125 17.7557 14.0537 18.6476 12.8616 19.054C 11.9021 19.3781 11.1129 19.3671 10.7705 19.0448L 2.34373 10.6166C 1.93907 10.2137 1.23228 10.2137 0.831247 10.6166C 0.703038 10.7484 0.611511 10.904 0.560297 11.0817C 0.190438 12.4018 0 13.7807 0 15.1741C 0 19.2298 1.57835 23.0403 4.44406 25.9096C 7.30965 28.7714 11.1202 30.3516 15.1742 30.3516C 16.5969 30.3516 18.005 30.1538 19.3637 29.7657L 19.7427 29.6558L 48.0281 57.9455C 49.3484 59.2639 51.1099 59.9964 52.9905 60C 54.8619 60 56.6215 59.2676 57.9436 57.9455C 59.2693 56.6235 60 54.8621 60 52.987C 59.9961 51.1121 59.2654 49.3506 57.9453 48.0287Z"/>
<path id="path3_stroke" d="M 57.9453 48.0287L 58.8297 47.1454L 58.829 47.1447L 57.9453 48.0287ZM 40.6083 30.6959L 41.4921 29.8119L 41.4833 29.8033L 40.6083 30.6959ZM 29.6381 19.9427L 28.4528 19.5456L 28.2043 20.2876L 28.7631 20.8354L 29.6381 19.9427ZM 30.0831 18.6145L 31.2683 19.0116L 31.313 18.8784L 31.3269 18.7387L 30.0831 18.6145ZM 30.2699 16.7432L 29.0264 16.6154L 29.0261 16.6191L 30.2699 16.7432ZM 25.9063 4.44758L 25.0225 5.33147L 25.023 5.33203L 25.9063 4.44758ZM 11.0799 0.563916L 11.4064 1.77057L 11.4192 1.76696L 11.0799 0.563916ZM 10.6166 0.833101L 9.74533 -0.0632327L 9.73804 -0.0561389L 9.73085 -0.0489272L 10.6166 0.833101ZM 10.6166 2.34367L 9.73085 3.2257L 9.73262 3.22747L 10.6166 2.34367ZM 19.0305 10.7593L 18.1466 11.6431L 18.1467 11.6432L 19.0305 10.7593ZM 19.0526 12.8613L 17.8687 12.4601L 17.8683 12.4612L 19.0526 12.8613ZM 16.6008 16.5931L 17.475 17.4866L 17.4847 17.4771L 17.4942 17.4673L 16.6008 16.5931ZM 12.8616 19.054L 13.2617 20.2382L 13.265 20.2371L 12.8616 19.054ZM 10.7705 19.0448L 9.8865 19.9286L 9.89994 19.9421L 9.91379 19.9551L 10.7705 19.0448ZM 2.34373 10.6166L 3.2277 9.73275L 3.22568 9.73074L 2.34373 10.6166ZM 0.831247 10.6166L -0.0546847 9.73472L -0.0598157 9.73988L -0.0648864 9.74509L 0.831247 10.6166ZM 0.560297 11.0817L -0.640828 10.7354L -0.643355 10.7445L 0.560297 11.0817ZM 4.44406 25.9096L 3.55963 26.7929L 3.56075 26.794L 4.44406 25.9096ZM 19.3637 29.7657L 19.7071 30.9676L 19.7119 30.9662L 19.3637 29.7657ZM 19.7427 29.6558L 20.6267 28.7719L 20.1042 28.2494L 19.3945 28.4552L 19.7427 29.6558ZM 48.0281 57.9455L 47.1441 58.8294L 47.1448 58.8301L 48.0281 57.9455ZM 52.9905 60L 52.9881 61.25L 52.9905 61.25L 52.9905 60ZM 57.9436 57.9455L 57.061 57.0604L 57.0598 57.0616L 57.9436 57.9455ZM 60 52.987L 61.25 52.987L 61.25 52.9844L 60 52.987ZM 58.829 47.1447L 41.492 29.8119L 39.7245 31.5799L 57.0615 48.9127L 58.829 47.1447ZM 41.4833 29.8033L 30.5131 19.05L 28.7631 20.8354L 39.7333 31.5886L 41.4833 29.8033ZM 30.8233 20.3398L 31.2683 19.0116L 28.8978 18.2174L 28.4528 19.5456L 30.8233 20.3398ZM 31.3269 18.7387L 31.5137 16.8674L 29.0261 16.6191L 28.8393 18.4903L 31.3269 18.7387ZM 31.5133 16.8711C 31.5692 16.3237 31.6001 15.736 31.6005 15.1739L 29.1005 15.1739C 29.101 15.6703 29.0767 16.1301 29.0264 16.6154L 31.5133 16.8711ZM 31.6005 15.1739C 31.6005 10.7905 29.8905 6.65996 26.7897 3.56312L 25.023 5.33203C 27.6536 7.9592 29.1005 11.453 29.1005 15.1739L 31.6005 15.1739ZM 26.7902 3.56368C 23.6886 0.462125 19.5601 -1.25 15.1724 -1.25L 15.1724 1.25C 18.8964 1.25 22.3892 2.69824 25.0225 5.33147L 26.7902 3.56368ZM 15.1724 -1.25C 13.695 -1.24705 12.1479 -1.03309 10.7405 -0.63913L 11.4192 1.76696C 12.6597 1.41396 13.8666 1.24705 15.1724 1.25L 15.1724 -1.25ZM 10.7533 -0.64267C 10.4125 -0.537792 9.98252 -0.282548 9.74533 -0.0632327L 11.4878 1.72943C 11.4822 1.73497 11.4568 1.75685 11.4064 1.7705L 10.7533 -0.64267ZM 9.73085 -0.0489272C 8.82948 0.85623 8.82948 2.32054 9.73085 3.2257L 11.5023 1.46165C 11.5723 1.53194 11.5723 1.64483 11.5023 1.71513L 9.73085 -0.0489272ZM 9.73262 3.22747L 18.1466 11.6431L 19.9145 9.87549L 11.5006 1.45988L 9.73262 3.22747ZM 18.1467 11.6432C 17.9878 11.4844 18.0422 11.3787 18.0443 11.5875C 18.0461 11.7667 18.0037 12.0619 17.8687 12.4601L 20.2364 13.2626C 20.4272 12.6893 20.5433 12.0426 20.5442 11.5621C 20.539 11.049 20.4176 10.3785 19.9144 9.8754L 18.1467 11.6432ZM 17.8683 12.4612C 17.5208 13.5219 16.7991 14.6114 15.7074 15.7189L 17.4942 17.4673C 18.7461 16.1797 19.7678 14.6177 20.2368 13.2614L 17.8683 12.4612ZM 15.7266 15.6996C 14.6323 16.7703 13.4282 17.5402 12.4583 17.8708L 13.265 20.2371C 14.6793 19.7549 16.1926 18.7412 17.475 17.4866L 15.7266 15.6996ZM 12.4616 17.8697C 12.0742 18.0006 11.7783 18.0431 11.5934 18.0418C 11.3724 18.0403 11.4664 17.9832 11.6271 18.1345L 9.91379 19.9551C 10.417 20.4287 11.0768 20.5383 11.5759 20.5418C 12.0509 20.5398 12.6929 20.4267 13.2617 20.2382L 12.4616 17.8697ZM 11.6544 18.161L 3.2277 9.73275L 1.45977 11.5004L 9.8865 19.9286L 11.6544 18.161ZM 3.22568 9.73074C 2.33552 8.84446 0.83716 8.83873 -0.0546847 9.73472L 1.71718 11.4984C 1.65633 11.5595 1.60125 11.5644 1.58613 11.5644C 1.57091 11.5644 1.5193 11.5596 1.46179 11.5024L 3.22568 9.73074ZM -0.0648864 9.74509C -0.290901 9.99038 -0.536802 10.4102 -0.640795 10.7354L 1.76139 11.4279C 1.75875 11.4371 1.7539 11.4493 1.74634 11.4623C 1.73884 11.4751 1.73152 11.4838 1.72738 11.488L -0.0648864 9.74509ZM -0.643355 10.7445C -1.03334 12.1471 -1.24706 13.695 -1.25 15.1741L 1.25 15.1741C 1.24706 13.8664 1.41421 12.6565 1.76395 11.4189L -0.643355 10.7445ZM -1.25 15.1741C -1.25 19.5613 0.460021 23.6894 3.55963 26.7929L 5.32849 25.0262C 2.69668 22.3911 1.25 18.8982 1.25 15.1741L -1.25 15.1741ZM 3.56075 26.794C 6.66035 29.8896 10.7884 31.6016 15.1742 31.6016L 15.1742 29.1016C 11.4519 29.1016 7.95895 27.6533 5.32737 25.0251L 3.56075 26.794ZM 15.1742 31.6016C 16.6841 31.5986 18.2642 31.3766 19.7071 30.9676L 19.0204 28.5638C 17.7457 28.931 16.5098 29.1047 15.1742 29.1016L 15.1742 31.6016ZM 19.7119 30.9662L 20.0909 30.8563L 19.3945 28.4552L 19.0155 28.5652L 19.7119 30.9662ZM 18.8588 30.5396L 47.1441 58.8294L 48.912 57.0617L 20.6267 28.7719L 18.8588 30.5396ZM 47.1448 58.8301C 48.6994 60.3824 50.7778 61.2457 52.9881 61.25L 52.9929 58.75C 51.442 58.747 49.9974 58.1455 48.9113 57.061L 47.1448 58.8301ZM 52.9905 61.25C 55.1949 61.25 57.2719 60.3848 58.8275 58.8295L 57.0598 57.0616C 55.971 58.1503 54.5289 58.75 52.9905 58.75L 52.9905 61.25ZM 58.8263 58.8307C 60.3874 57.2738 61.25 55.1937 61.25 52.987L 58.75 52.987C 58.75 54.5304 58.1512 55.9733 57.061 57.0604L 58.8263 58.8307ZM 61.25 52.9844C 61.2454 50.78 60.3839 48.7016 58.8297 47.1454L 57.0608 48.912C 58.147 49.9996 58.7468 51.4442 58.75 52.9896L 61.25 52.9844Z"/>
</defs>
</svg>
