<svg width="190" height="113" viewBox="0 0 190 113" xmlns="http://www.w3.org/2000/svg" xmlns:xlink="http://www.w3.org/1999/xlink"><title>5C3706CA-8244-4E89-B4E4-ED2EEA03C153</title><defs><path id="a" d="M0 0h190v113H0z"/></defs><g fill="none" fill-rule="evenodd"><mask id="b" fill="#fff"><use xlink:href="#a"/></mask><use fill="#BDC0CB" xlink:href="#a"/><rect fill="#313C59" mask="url(#b)" x="41" y="5" width="108" height="214" rx="15"/><g mask="url(#b)"><path fill="#FFF" d="M46 27h98v167.5H46z"/><path fill="#7B8397" opacity=".3" d="M84 35h22v2H84z"/><g transform="translate(67 51)"><path opacity=".3" d="M16 15h24v24H16z"/><circle stroke="#A2A7B6" stroke-width="2" opacity=".3" cx="28" cy="28" r="16"/><circle stroke="#A2A7B6" stroke-width="2" opacity=".2" cx="28" cy="28" r="22"/><circle stroke="#A2A7B6" stroke-width="2" opacity=".1" cx="28" cy="28" r="28"/><path d="M28 18v9.28a4.39 4.39 0 0 0-1.5-.28c-2.49 0-4.5 2.01-4.5 4.5s2.01 4.5 4.5 4.5c2.31 0 4.2-1.75 4.45-4H31V21h4v-3h-7z" fill="#7B8397"/></g></g></g></svg>