<svg width="190" height="113" viewBox="0 0 190 113" xmlns="http://www.w3.org/2000/svg" xmlns:xlink="http://www.w3.org/1999/xlink"><title>3BF5EB34-8E8F-4427-ADE1-EFC40AE9723F</title><defs><path id="a" d="M0 0h190v113H0z"/><path id="c" d="M0 0h98v162H0z"/><path id="d" d="M77.502 90.787h34.296v-24.12H77.502z"/></defs><g fill="none" fill-rule="evenodd"><mask id="b" fill="#fff"><use xlink:href="#a"/></mask><use fill="#BDC0CB" xlink:href="#a"/><rect fill="#313C59" mask="url(#b)" x="41" y="5" width="108" height="214" rx="15"/><g mask="url(#b)"><g transform="translate(46 27)"><use fill="#666F84" xlink:href="#c"/><use fill="#E4E6E9" xlink:href="#c"/></g><path fill="#7B8397" opacity=".3" d="M84 34h22v2H84z"/><path fill="#FFF" d="M46 43h98v70H46z"/></g><path fill="#FFF" mask="url(#b)" d="M91.106 83.177l9.268-4.802-9.268-4.835v9.637"/><path fill="#DEDED9" mask="url(#b)" d="M99.234 78.967h-.001l1.14-.592-1.14.592"/><mask id="e" fill="#fff"><use xlink:href="#d"/></mask><path fill="#DEDED9" mask="url(#e)" d="M99.233 78.966l-8.127-5.426 9.268 4.835-1.141.591"/><g mask="url(#e)" fill="#7B8397"><path d="M91.108 83.177l-.002-9.637 9.268 4.835-9.266 4.802zm20.347-11.307s-.335-2.363-1.363-3.404c-1.305-1.366-2.766-1.373-3.437-1.453-4.8-.347-11.999-.347-11.999-.347h-.015s-7.199 0-11.999.347c-.67.08-2.131.087-3.436 1.453-1.028 1.04-1.363 3.404-1.363 3.404s-.343 2.776-.343 5.551v2.602c0 2.776.343 5.551.343 5.551s.335 2.364 1.363 3.405c1.305 1.366 3.018 1.322 3.782 1.466 2.744.263 11.66.344 11.66.344s7.208-.01 12.007-.358c.67-.08 2.132-.086 3.437-1.452 1.028-1.041 1.363-3.405 1.363-3.405s.343-2.775.343-5.55V77.42c0-2.775-.343-5.55-.343-5.55z"/></g></g></svg>