<svg width="190" height="113" viewBox="0 0 190 113" xmlns="http://www.w3.org/2000/svg" xmlns:xlink="http://www.w3.org/1999/xlink"><title>30749512-2C45-43F6-8E50-BDDA85E2237C</title><defs><path id="a" d="M0 0h190v113H0z"/></defs><g fill="none" fill-rule="evenodd"><mask id="b" fill="#fff"><use xlink:href="#a"/></mask><use fill="#BDC0CB" xlink:href="#a"/><rect fill="#313C59" mask="url(#b)" x="41" y="5" width="108" height="214" rx="15"/><g mask="url(#b)"><path fill="#E4E6E9" d="M46 27h98v167.5H46z"/><path fill="#FFF" d="M46 43h98v163H46z"/><path fill="#7B8397" opacity=".3" d="M50 48h28v27H50zM81 48h28v27H81z"/><path d="M120.18 70a2.18 2.18 0 1 1 0-4.36 2.18 2.18 0 0 1 0 4.36zM118 54.44c8.59 0 15.56 6.97 15.56 15.56h-2.83c0-7.03-5.7-12.73-12.73-12.73v-2.83zm0 5.66c5.47 0 9.9 4.43 9.9 9.9h-2.83c0-3.9-3.17-7.07-7.07-7.07V60.1z" fill="#7B8397"/><path fill="#7B8397" opacity=".3" d="M50 78h28v27H50zM81 78h28v27H81zM112 78h28v27h-28zM50 108h28v27H50zM81 108h28v27H81zM112 108h28v27h-28zM84 35h22v2H84z"/></g></g></svg>