<svg width="190" height="113" viewBox="0 0 190 113" xmlns="http://www.w3.org/2000/svg" xmlns:xlink="http://www.w3.org/1999/xlink"><title>F6631CEF-72FD-4210-8840-324CA7712510</title><defs><path id="a" d="M0 0h190v113H0z"/><path id="c" d="M0 0h98v167.5H0z"/></defs><g fill="none" fill-rule="evenodd"><mask id="b" fill="#fff"><use xlink:href="#a"/></mask><use fill="#BDC0CB" xlink:href="#a"/><rect fill="#313C59" mask="url(#b)" x="41" y="5" width="108" height="214" rx="15"/><g mask="url(#b)"><g transform="translate(46 27)"><mask id="d" fill="#fff"><use xlink:href="#c"/></mask><use fill="#E4E6E9" xlink:href="#c"/><path fill="#FFF" mask="url(#d)" d="M2 16h94v58H2z"/><path d="M53.266 41.008h-8.532l1.711-4.664a.985.985 0 0 0-.035-.774.962.962 0 0 0-.574-.515.931.931 0 0 0-.75.035.962.962 0 0 0-.516.574l-1.945 5.344h-1.617a2.01 2.01 0 0 0-.867.187 1.894 1.894 0 0 0-.68.54c-.188.234-.32.495-.398.785-.079.289-.086.582-.024.878l1.992 9.985c.094.469.324.855.692 1.16.367.305.793.457 1.277.457h12c.469 0 .89-.152 1.266-.457.375-.305.609-.691.703-1.16l1.992-9.985c.062-.296.055-.59-.023-.878-.079-.29-.211-.551-.399-.786a1.894 1.894 0 0 0-.68-.539 2.01 2.01 0 0 0-.867-.187h-1.617l-1.945-5.344a.962.962 0 0 0-.516-.574.931.931 0 0 0-.75-.035.962.962 0 0 0-.574.515.985.985 0 0 0-.035.774l1.71 4.664zM41.008 43h15.984L55 53.008H43L41.008 43z" fill="#7B8397" mask="url(#d)"/><path fill="#FFF" mask="url(#d)" d="M2 76h46v9H2zM50 76h46v9H50z"/><path fill="#7B8397" opacity=".3" mask="url(#d)" d="M10 60h25v2H10zM10 66h10v2H10zM38 8h22v2H38z"/></g></g></g></svg>