<svg width="190" height="113" viewBox="0 0 190 113" xmlns="http://www.w3.org/2000/svg" xmlns:xlink="http://www.w3.org/1999/xlink"><title>37EEC1F8-FF3D-4D88-B3C2-BF408324DF31</title><defs><path id="a" d="M0 0h190v113H0z"/><path id="c" d="M0 0h98v162H0z"/></defs><g fill="none" fill-rule="evenodd"><mask id="b" fill="#fff"><use xlink:href="#a"/></mask><use fill="#BDC0CB" xlink:href="#a"/><rect fill="#313C59" mask="url(#b)" x="41" y="5" width="108" height="214" rx="15"/><g mask="url(#b)"><g transform="translate(46 27)"><use fill="#666F84" xlink:href="#c"/><use fill="#E4E6E9" xlink:href="#c"/></g><path fill="#7B8397" opacity=".3" d="M84 34h22v2H84z"/><g transform="translate(46 43)"><path fill="#FFF" d="M0 0h98v70H0z"/><ellipse stroke="#BBBFCB" stroke-width="2" cx="49" cy="36" rx="25.201" ry="25.201"/><ellipse stroke="#BBBFCB" stroke-width="2" cx="49" cy="36" rx="17.559" ry="17.559"/><path d="M47.93 34.51l-7.02-7.01a4.008 4.008 0 0 0 0 5.66l4.19 4.18 2.83-2.83zm9.22-.36c1.91-1.91 2.28-4.65.81-6.12-1.46-1.46-4.2-1.1-6.12.81-1.59 1.59-2.09 3.74-1.38 5.27l-8.697 8.697a1.502 1.502 0 0 0-.009 2.117l-.698-.698a1.496 1.496 0 0 0 2.115-.004L49 38.41l5.82 5.82a1.5 1.5 0 0 0 2.114.006l-.698.698a1.493 1.493 0 0 0-.006-2.114L50.41 37l1.47-1.47c1.53.71 3.68.21 5.27-1.38z" fill="#7B8397"/></g></g></g></svg>