<svg width="190" height="113" viewBox="0 0 190 113" xmlns="http://www.w3.org/2000/svg" xmlns:xlink="http://www.w3.org/1999/xlink"><title>85656A56-1838-45F1-A340-2A4B8F4F04F6</title><defs><path id="a" d="M0 0h190v113H0z"/><path id="c" d="M0 0h98v162H0z"/></defs><g fill="none" fill-rule="evenodd"><mask id="b" fill="#fff"><use xlink:href="#a"/></mask><use fill="#BDC0CB" xlink:href="#a"/><rect fill="#313C59" mask="url(#b)" x="41" y="5" width="108" height="214" rx="15"/><g mask="url(#b)"><g transform="translate(46 27)"><use fill="#666F84" xlink:href="#c"/><use fill="#E4E6E9" xlink:href="#c"/></g><path fill="#7B8397" opacity=".3" d="M84 34h22v2H84z"/><path fill="#FFF" d="M46 43h98v69H46z"/><g transform="translate(62 53)"><path fill="#A2A7B6" d="M3 28h18v2H3z"/><ellipse fill="#BBC0CB" cx="12" cy="12" rx="12" ry="12"/><path d="M12 12a2.666 2.666 0 1 0 0-5.333A2.666 2.666 0 1 0 12 12zm-5.333 4v.336c0 .551.444.997 1.003.997h8.66c.554 0 1.003-.451 1.003-.997V16c0-1.773-3.553-2.667-5.333-2.667-1.78 0-5.333.894-5.333 2.667z" fill="#FFF"/></g><g transform="translate(104 53)"><path fill="#A2A7B6" d="M3 28h18v2H3z"/><ellipse fill="#BBC0CB" cx="12" cy="12" rx="12" ry="12"/><path d="M12 12a2.666 2.666 0 1 0 0-5.333A2.666 2.666 0 1 0 12 12zm-5.333 4v.336c0 .551.444.997 1.003.997h8.66c.554 0 1.003-.451 1.003-.997V16c0-1.773-3.553-2.667-5.333-2.667-1.78 0-5.333.894-5.333 2.667z" fill="#FFF"/></g><g><g transform="translate(62 94)"><ellipse fill="#BBC0CB" cx="12" cy="12" rx="12" ry="12"/><path d="M12 12a2.666 2.666 0 1 0 0-5.333A2.666 2.666 0 1 0 12 12zm-5.333 4v.336c0 .551.444.997 1.003.997h8.66c.554 0 1.003-.451 1.003-.997V16c0-1.773-3.553-2.667-5.333-2.667-1.78 0-5.333.894-5.333 2.667z" fill="#FFF"/></g><g transform="translate(104 94)"><ellipse fill="#BBC0CB" cx="12" cy="12" rx="12" ry="12"/><path d="M12 12a2.666 2.666 0 1 0 0-5.333A2.666 2.666 0 1 0 12 12zm-5.333 4v.336c0 .551.444.997 1.003.997h8.66c.554 0 1.003-.451 1.003-.997V16c0-1.773-3.553-2.667-5.333-2.667-1.78 0-5.333.894-5.333 2.667z" fill="#FFF"/></g></g></g></g></svg>