<svg width="190" height="113" viewBox="0 0 190 113" xmlns="http://www.w3.org/2000/svg" xmlns:xlink="http://www.w3.org/1999/xlink"><title>4BAA8FCE-835C-49AE-A066-713AF7F84AB3</title><defs><path id="a" d="M0 0h190v113H0z"/><path id="c" d="M0 0h98v161H0z"/></defs><g fill="none" fill-rule="evenodd"><mask id="b" fill="#fff"><use xlink:href="#a"/></mask><use fill="#BDC0CB" xlink:href="#a"/><rect fill="#313C59" mask="url(#b)" x="41" y="5" width="108" height="214" rx="15"/><g mask="url(#b)"><g transform="translate(46 27)"><mask id="d" fill="#fff"><use xlink:href="#c"/></mask><use fill="#E4E6E9" xlink:href="#c"/><path fill="#FFF" mask="url(#d)" d="M0 0h74v161H0z"/><g mask="url(#d)"><g transform="translate(7.558 7.006)"><circle fill="#00AADF" cx="5.442" cy="5.994" r="5"/><circle fill="#BBC0CB" cx="5.442" cy="22.144" r="5"/><circle fill="#BBC0CB" cx="5.442" cy="38.244" r="5"/><circle fill="#BBC0CB" cx="5.442" cy="53.002" r="5"/><circle fill="#BBC0CB" cx="5.442" cy="67.76" r="5"/><path fill="#00AADF" d="M18.442 5h15v2h-15z"/><path fill="#BBC0CB" d="M18.442 21h9v2h-9zM18.442 37h20v2h-20zM18.442 52h17v2h-17zM18.442 67h13v2h-13z"/></g></g><g fill="#7B8397" mask="url(#d)"><path d="M81 9h10v1H81zM81 12h10v1H81zM81 15h10v1H81z"/></g></g></g></g></svg>