<svg width="190" height="113" viewBox="0 0 190 113" xmlns="http://www.w3.org/2000/svg" xmlns:xlink="http://www.w3.org/1999/xlink"><title>8A0D6C78-F394-4410-8773-40D7F67E25CA</title><defs><path id="a" d="M0 0h190v113H0z"/><path id="c" d="M0 0h98v167.5H0z"/></defs><g fill="none" fill-rule="evenodd"><mask id="b" fill="#fff"><use xlink:href="#a"/></mask><use fill="#BDC0CB" xlink:href="#a"/><rect fill="#313C59" mask="url(#b)" x="41" y="5" width="108" height="214" rx="15"/><g mask="url(#b)"><g transform="translate(46 27)"><mask id="d" fill="#fff"><use xlink:href="#c"/></mask><use fill="#E4E6E9" xlink:href="#c"/><path fill="#FFF" mask="url(#d)" d="M2 16h94v58H2z"/><path fill="#7B8397" opacity=".3" mask="url(#d)" d="M10 66h15v2H10z"/><g mask="url(#d)"><path opacity=".3" d="M37 33h24v24H37z"/><path d="M51 35h-8c-1.1 0-1.99.9-1.99 2L41 53c0 1.1.89 2 1.99 2H55c1.1 0 2-.9 2-2V41l-6-6zm2 16h-8v-2h8v2zm0-4h-8v-2h8v2zm-3-5v-5.5l5.5 5.5H50z" fill="#7B8397"/></g><path fill="#FFF" mask="url(#d)" d="M2 76h46v48H2zM50 76h46v48H50z"/><path fill="#7B8397" opacity=".3" mask="url(#d)" d="M38 8h22v2H38z"/></g></g></g></svg>