<svg width="190" height="113" viewBox="0 0 190 113" xmlns="http://www.w3.org/2000/svg" xmlns:xlink="http://www.w3.org/1999/xlink"><title>86728145-86A7-4701-BD43-BF4BFD7EFA62</title><defs><path id="a" d="M0 0h190v113H0z"/><path id="c" d="M0 0h98v167.5H0z"/></defs><g fill="none" fill-rule="evenodd"><mask id="b" fill="#fff"><use xlink:href="#a"/></mask><use fill="#BDC0CB" xlink:href="#a"/><rect fill="#313C59" mask="url(#b)" x="41" y="5" width="108" height="214" rx="15"/><g mask="url(#b)"><g transform="translate(46 27)"><mask id="d" fill="#fff"><use xlink:href="#c"/></mask><use fill="#E4E6E9" xlink:href="#c"/><path fill="#FFF" mask="url(#d)" d="M2 16h94v58H2z"/><g mask="url(#d)"><path d="M74.18 43a2.18 2.18 0 1 1 0-4.36 2.18 2.18 0 0 1 0 4.36zM72 27.44c8.59 0 15.56 6.97 15.56 15.56h-2.83c0-7.03-5.7-12.73-12.73-12.73v-2.83zm0 5.66c5.47 0 9.9 4.43 9.9 9.9h-2.83c0-3.9-3.17-7.07-7.07-7.07V33.1z" fill="#7B8397"/></g><path fill="#7B8397" opacity=".3" mask="url(#d)" d="M10 66h15v2H10z"/><path fill="#FFF" mask="url(#d)" d="M2 76h46v48H2zM50 76h46v48H50z"/><path fill="#7B8397" opacity=".3" mask="url(#d)" d="M38 8h22v2H38z"/></g></g></g></svg>