<svg width="190" height="113" viewBox="0 0 190 113" xmlns="http://www.w3.org/2000/svg" xmlns:xlink="http://www.w3.org/1999/xlink"><title>8B17821B-E056-42B1-94CD-9319CFE6FB23</title><defs><path id="a" d="M0 0h190v113H0z"/><path id="c" d="M0 0h98v162H0z"/></defs><g fill="none" fill-rule="evenodd"><mask id="b" fill="#fff"><use xlink:href="#a"/></mask><use fill="#BDC0CB" xlink:href="#a"/><rect fill="#313C59" mask="url(#b)" x="41" y="5" width="108" height="214" rx="15"/><g mask="url(#b)"><g transform="translate(46 27)"><use fill="#666F84" xlink:href="#c"/><use fill="#E4E6E9" xlink:href="#c"/></g><path fill="#7B8397" opacity=".3" d="M84 34h22v2H84z"/><path fill="#FFF" d="M46 43h98v70H46z"/><path fill="#A2A7B6" d="M55 51h21v27H55zM84 51h22v27H84zM114 51h21v27h-21z"/><path fill="#7B8397" d="M51 78h88v2H51z"/><path fill="#A2A7B6" d="M55 84h21v27H55zM84 84h22v27H84zM114 84h21v27h-21z"/><path fill="#7B8397" d="M51 111h88v2H51z"/></g></g></svg>