<svg width="190" height="113" viewBox="0 0 190 113" xmlns="http://www.w3.org/2000/svg" xmlns:xlink="http://www.w3.org/1999/xlink"><title>330C5FD1-D838-423E-9F6B-BA628CA76604</title><defs><path id="a" d="M0 0h190v113H0z"/><path id="c" d="M0 0h98v168H0z"/></defs><g fill="none" fill-rule="evenodd"><mask id="b" fill="#fff"><use xlink:href="#a"/></mask><use fill="#BDC0CB" xlink:href="#a"/><rect fill="#313C59" mask="url(#b)" x="41" y="5" width="108" height="214" rx="15"/><g mask="url(#b)"><g transform="translate(46 27)"><mask id="d" fill="#fff"><use xlink:href="#c"/></mask><use fill="#E4E6E9" xlink:href="#c"/><path fill="#FFF" mask="url(#d)" d="M0 0h98v20H0z"/><path fill="#7B8397" opacity=".2" mask="url(#d)" d="M38 9h22v2H38z"/><g mask="url(#d)"><path d="M48 60h2v-6h-2v6zm1-15c-5.52 0-10 4.48-10 10s4.48 10 10 10 10-4.48 10-10-4.48-10-10-10zm0 18c-4.41 0-8-3.59-8-8s3.59-8 8-8 8 3.59 8 8-3.59 8-8 8zm-1-11h2v-2h-2v2z" fill="#7B8397"/></g></g></g></g></svg>