<svg width="190" height="113" viewBox="0 0 190 113" xmlns="http://www.w3.org/2000/svg" xmlns:xlink="http://www.w3.org/1999/xlink"><title>ED31C202-5F91-4135-AD6C-41DAD1C9FA00</title><defs><path id="a" d="M0 0h190v113H0z"/><path id="c" d="M0 0h98v167.5H0z"/></defs><g fill="none" fill-rule="evenodd"><mask id="b" fill="#fff"><use xlink:href="#a"/></mask><use fill="#BDC0CB" xlink:href="#a"/><rect fill="#313C59" mask="url(#b)" x="41" y="5" width="108" height="214" rx="15"/><g mask="url(#b)"><g transform="translate(46 27)"><mask id="d" fill="#fff"><use xlink:href="#c"/></mask><use fill="#E4E6E9" xlink:href="#c"/><path fill="#FFF" mask="url(#d)" d="M2 16h94v58H2z"/><g mask="url(#d)"><path opacity=".3" d="M37 33h24v24H37z"/><path d="M49 35c-3.87 0-7 3.13-7 7 0 5.25 7 13 7 13s7-7.75 7-13c0-3.87-3.13-7-7-7zm0 9.5a2.5 2.5 0 0 1 0-5 2.5 2.5 0 0 1 0 5z" fill="#7B8397"/></g><path fill="#FFF" mask="url(#d)" d="M2 76h46v48H2zM50 76h46v48H50z"/><path fill="#7B8397" opacity=".3" mask="url(#d)" d="M10 66h25v2H10zM10 60h10v2H10zM38 8h22v2H38z"/></g></g></g></svg>