<svg width="190" height="113" viewBox="0 0 190 113" xmlns="http://www.w3.org/2000/svg" xmlns:xlink="http://www.w3.org/1999/xlink"><title>DAF0F796-47A0-4891-A228-3C2F4566DE00</title><defs><path id="a" d="M0 0h190v113H0z"/><path id="c" d="M0 0h98v167.5H0z"/></defs><g fill="none" fill-rule="evenodd"><mask id="b" fill="#fff"><use xlink:href="#a"/></mask><use fill="#BDC0CB" xlink:href="#a"/><rect fill="#313C59" mask="url(#b)" x="41" y="5" width="108" height="214" rx="15"/><g mask="url(#b)"><g transform="translate(46 27)"><mask id="d" fill="#fff"><use xlink:href="#c"/></mask><use fill="#E4E6E9" xlink:href="#c"/><path fill="#FFF" mask="url(#d)" d="M2 16h94v58H2z"/><path fill="#7B8397" opacity=".3" mask="url(#d)" d="M10 66h15v2H10z"/><g mask="url(#d)"><path d="M43.18 53a2.18 2.18 0 1 1 0-4.36 2.18 2.18 0 0 1 0 4.36zM41 38.358c0-.306 0 0 0 0 0-.474.447-.904.998-.886 0 0-.308-.02.033.002 7.791.51 14.022 6.761 14.5 14.561.02.32 0 0 0 0 .02.525-.421.965-.977.965h-.818a1.041 1.041 0 0 1-1.044-.993s.025.317-.001-.015c-.488-6.222-5.45-11.188-11.67-11.682-.337-.026-.016 0-.016 0A1.056 1.056 0 0 1 41 39.26v-.902zm0 6.566v-.818a.94.94 0 0 1 1-.956s-.307-.032.032.003a9.9 9.9 0 0 1 8.818 8.845c.033.33 0 .008 0 .008a.94.94 0 0 1-.956.994h-.818c-.564 0-1.035-.43-1.071-.96 0 0 .043.313 0 0a7.083 7.083 0 0 0-5.988-6.037c-.332-.048-.016-.002-.016-.002A1.098 1.098 0 0 1 41 44.924z" fill="#7B8397"/></g><path fill="#FFF" mask="url(#d)" d="M2 76h46v48H2zM50 76h46v48H50z"/><path fill="#7B8397" opacity=".3" mask="url(#d)" d="M38 8h22v2H38z"/></g></g></g></svg>