<svg width="190" height="113" viewBox="0 0 190 113" xmlns="http://www.w3.org/2000/svg" xmlns:xlink="http://www.w3.org/1999/xlink"><title>DEEFAB27-BB37-4853-A248-D1690C7ECF59</title><defs><path id="a" d="M0 0h190v113H0z"/><path id="c" d="M0 0h98v162H0z"/><linearGradient x1="50%" y1="0%" x2="50%" y2="100%" id="d"><stop stop-color="#DADCE2" offset="0%"/><stop offset="100%"/></linearGradient></defs><g fill="none" fill-rule="evenodd"><mask id="b" fill="#fff"><use xlink:href="#a"/></mask><use fill="#BDC0CB" xlink:href="#a"/><rect fill="#313C59" mask="url(#b)" x="41" y="5" width="108" height="214" rx="15"/><g mask="url(#b)"><g transform="translate(46 27)"><use fill="#666F84" xlink:href="#c"/><use fill="#E4E6E9" xlink:href="#c"/></g><path fill="#7B8397" opacity=".3" d="M84 34h22v2H84z"/><path fill="#FFF" d="M46 43h98v28H46z"/><path d="M78 56h19v2H78z" fill="#A2A7B6"/><path d="M56.895 52h2.526l1.895 2h3.79c1.048 0 1.894.893 1.894 2v4c0 1.107-.846 2-1.895 2h-8.21C55.846 62 55 61.107 55 60v-6c0-1.107.846-2 1.895-2z" fill="#444F6C" opacity=".5"/><g><path fill="#FFF" d="M79 72h64v28H79z"/><g transform="translate(84.092 80.346)" fill="#BBC0CB"><rect x=".908" y=".654" width="10" height="9.997" rx="4.998"/><path d="M16.908 4.654h26v2h-26z"/></g></g><g><path fill="#FFF" d="M79 101h64v28H79z"/><rect x=".908" y=".654" width="10" height="9.997" rx="4.998" transform="translate(84.092 109.346)" fill="#BBC0CB"/></g></g></g></svg>