<svg width="190" height="113" viewBox="0 0 190 113" xmlns="http://www.w3.org/2000/svg" xmlns:xlink="http://www.w3.org/1999/xlink"><title>8D13D31C-2F4D-4B34-8B78-32C23D3BCD7E</title><defs><path id="a" d="M0 0h190v113H0z"/><path id="c" d="M0 0h98v167.5H0z"/></defs><g fill="none" fill-rule="evenodd"><mask id="b" fill="#fff"><use xlink:href="#a"/></mask><use fill="#BDC0CB" xlink:href="#a"/><rect fill="#313C59" mask="url(#b)" x="41" y="5" width="108" height="214" rx="15"/><g mask="url(#b)"><g transform="translate(46 27)"><mask id="d" fill="#fff"><use xlink:href="#c"/></mask><use fill="#E4E6E9" xlink:href="#c"/><path fill="#7B8397" opacity=".3" mask="url(#d)" d="M38 8h22v2H38z"/><path fill="#FFF" mask="url(#d)" d="M2 16h94v69H2z"/><g mask="url(#d)"><path d="M50 43.5v.71c2.31.65 4 2.79 4 5.29v3.499c0 1.105.636 2.637 1.412 3.413l.176.176c.78.78.522 1.412-.588 1.412H42c-1.105 0-1.364-.636-.588-1.412l.176-.176C42.368 55.632 43 54.104 43 53V49.5c0-2.5 1.69-4.64 4-5.29v-.71c0-.83.67-1.5 1.5-1.5s1.5.67 1.5 1.5zM46.05 59h4.9a2.5 2.5 0 0 1-4.9 0z" fill="#7B8397"/></g></g></g></g></svg>