<svg width="190" height="113" viewBox="0 0 190 113" xmlns="http://www.w3.org/2000/svg" xmlns:xlink="http://www.w3.org/1999/xlink"><title>F9EAD975-EEF0-40FE-A000-B67F7CD7EE25</title><defs><path id="a" d="M0 0h190v113H0z"/></defs><g fill="none" fill-rule="evenodd"><mask id="b" fill="#fff"><use xlink:href="#a"/></mask><use fill="#BDC0CB" xlink:href="#a"/><rect fill="#313C59" mask="url(#b)" x="41" y="5" width="108" height="214" rx="15"/><g mask="url(#b)"><path fill="#E4E6E9" d="M46 27h98v167.5H46z"/><path fill="#FFF" d="M46 43h98v163H46z"/><path fill="#7B8397" opacity=".3" d="M50 48h28v27H50zM81 48h28v27H81zM112 48h28v27h-28zM50 78h28v27H50zM81 78h28v27H81zM112 78h28v27h-28zM50 108h28v27H50zM81 108h28v27H81zM112 108h28v27h-28zM84 35h22v2H84z"/></g></g></svg>