<svg width="190" height="113" viewBox="0 0 190 113" xmlns="http://www.w3.org/2000/svg" xmlns:xlink="http://www.w3.org/1999/xlink"><title>448D382F-A5DD-485B-93A7-4D063A935F2C</title><defs><path id="a" d="M0 0h190v113H0z"/><path id="c" d="M0 0h98v168H0z"/></defs><g fill="none" fill-rule="evenodd"><mask id="b" fill="#fff"><use xlink:href="#a"/></mask><use fill="#BDC0CB" xlink:href="#a"/><rect fill="#313C59" mask="url(#b)" x="41" y="5" width="108" height="214" rx="15"/><g mask="url(#b)"><g transform="translate(46 27)"><mask id="d" fill="#fff"><use xlink:href="#c"/></mask><use fill="#E4E6E9" xlink:href="#c"/><path fill="#7B8397" opacity=".3" mask="url(#d)" d="M0 16h98v57H0z"/><path fill="#FFF" mask="url(#d)" d="M0 73h98v48H0z"/><path fill="#7B8397" opacity=".3" mask="url(#d)" d="M10 84h25v2H10zM10 78h10v2H10zM38 8h22v2H38z"/></g><g transform="translate(83 60)"><circle fill="#7B8397" cx="12" cy="12" r="12"/><path fill="#FFF" d="M15.947 12l-7 4V8z"/></g></g><g mask="url(#b)"><path d="M120.18 70a2.18 2.18 0 1 1 0-4.36 2.18 2.18 0 0 1 0 4.36zM118 54.44c8.59 0 15.56 6.97 15.56 15.56h-2.83c0-7.03-5.7-12.73-12.73-12.73v-2.83zm0 5.66c5.47 0 9.9 4.43 9.9 9.9h-2.83c0-3.9-3.17-7.07-7.07-7.07V60.1z" fill="#7B8397"/></g></g></svg>