<svg width="190" height="113" viewBox="0 0 190 113" xmlns="http://www.w3.org/2000/svg" xmlns:xlink="http://www.w3.org/1999/xlink"><title>39EF5F56-0B40-40BF-A78E-54AED0B479A8</title><defs><path id="a" d="M0 0h190v113H0z"/><path id="c" d="M0 0h98v167.5H0z"/></defs><g fill="none" fill-rule="evenodd"><mask id="b" fill="#fff"><use xlink:href="#a"/></mask><use fill="#BDC0CB" xlink:href="#a"/><rect fill="#313C59" mask="url(#b)" x="41" y="5" width="108" height="213" rx="15"/><g mask="url(#b)"><g transform="translate(46 27)"><mask id="d" fill="#fff"><use xlink:href="#c"/></mask><use fill="#E4E6E9" xlink:href="#c"/><path fill="#FFF" mask="url(#d)" d="M2 16h94v58H2z"/><g opacity=".9" mask="url(#d)"><path opacity=".3" d="M37 33h24v24H37z"/><path d="M54 45h-5v5h5v-5zm-1-11v2h-8v-2h-2v2h-1c-1.11 0-1.99.9-1.99 2L40 52a2 2 0 0 0 2 2h14c1.1 0 2-.9 2-2V38c0-1.1-.9-2-2-2h-1v-2h-2zm3 18H42V41h14v11z" fill="#7B8397"/></g><path fill="#FFF" mask="url(#d)" d="M2 76h46v48H2zM50 76h46v48H50z"/><path fill="#7B8397" opacity=".3" mask="url(#d)" d="M38 8h22v2H38z"/></g></g></g></svg>