<svg width="190" height="113" viewBox="0 0 190 113" xmlns="http://www.w3.org/2000/svg" xmlns:xlink="http://www.w3.org/1999/xlink"><title>C90359A6-1F30-400A-B15C-8C85136B9101</title><defs><path id="a" d="M0 0h190v113H0z"/><path id="c" d="M0 0h98v164H0z"/></defs><g fill="none" fill-rule="evenodd"><mask id="b" fill="#fff"><use xlink:href="#a"/></mask><use fill="#BDC0CB" xlink:href="#a"/><rect fill="#313C59" mask="url(#b)" x="41" y="5" width="108" height="214" rx="15"/><g mask="url(#b)"><g transform="translate(46 27)"><use fill="#666F84" xlink:href="#c"/><use fill="#E4E6E9" xlink:href="#c"/></g><path fill="#7B8397" opacity=".3" d="M84 34h22v2H84z"/><g transform="translate(46 41)"><path fill="#FFF" d="M0 0h98v28H0z"/><path fill="#7B8397" d="M0 34h98v3H0z"/><rect fill="#7B8397" opacity=".3" x="8" y="9" width="10" height="10.003" rx="5"/><path fill="#7B8397" opacity=".3" d="M24 13h20v2H24z"/><rect fill="#FFF" x="79.747" y="13.398" width="2.613" height="2.614" rx="1.307"/></g><g transform="translate(46 84)"><path fill="#FFF" d="M0 0h98v28H0z"/><rect fill="#7B8397" opacity=".3" x="8" y="9" width="10" height="10.003" rx="5"/><path fill="#7B8397" opacity=".3" d="M24 13h35v2H24z"/><rect fill="#FFF" x="79.747" y="13.398" width="2.613" height="2.614" rx="1.307"/></g></g></g></svg>