<svg width="190" height="113" viewBox="0 0 190 113" xmlns="http://www.w3.org/2000/svg" xmlns:xlink="http://www.w3.org/1999/xlink"><title>2EF16C80-21A9-44C9-A2FF-FCBD16F98A04</title><defs><path d="M0 4.005A4 4 0 0 1 3.99 0h182.02c2.203 0 3.99 1.798 3.99 4.005V113H0V4.005z" id="a"/><path id="c" d="M0 0h98v167.5H0z"/></defs><g fill="none" fill-rule="evenodd"><mask id="b" fill="#fff"><use xlink:href="#a"/></mask><use fill="#BDC0CB" xlink:href="#a"/><rect fill="#313C59" mask="url(#b)" x="41" y="5" width="108" height="214" rx="15"/><g mask="url(#b)"><g transform="translate(46 27)"><mask id="d" fill="#fff"><use xlink:href="#c"/></mask><use fill="#E4E6E9" xlink:href="#c"/><path fill="#FFF" mask="url(#d)" d="M2 16h94v69H2z"/><g mask="url(#d)"><path d="M55 45H43v2h12v-2zm0 4H43v2h12v-2zm-12 6h8v-2h-8v2zm14-10v8.18c-.31-.11-.65-.18-1-.18-1.66 0-3 1.34-3 3s1.34 3 3 3 3-1.34 3-3v-9h3v-2h-5z" fill="#7B8397"/></g><path fill="#7B8397" opacity=".3" mask="url(#d)" d="M38 8h22v2H38z"/></g></g></g></svg>