<svg width="190" height="113" viewBox="0 0 190 113" xmlns="http://www.w3.org/2000/svg" xmlns:xlink="http://www.w3.org/1999/xlink"><title>0744A3B6-84A5-41D7-AE2F-BD31FB4950F9</title><defs><path id="a" d="M0 0h190v113H0z"/><path id="c" d="M0 0h98v162H0z"/></defs><g fill="none" fill-rule="evenodd"><mask id="b" fill="#fff"><use xlink:href="#a"/></mask><use fill="#BDC0CB" xlink:href="#a"/><rect fill="#313C59" mask="url(#b)" x="41" y="5" width="108" height="214" rx="15"/><g mask="url(#b)"><g transform="translate(46 27)"><use fill="#666F84" xlink:href="#c"/><use fill="#E4E6E9" xlink:href="#c"/></g><path fill="#7B8397" opacity=".3" d="M84 34h22v2H84z"/><path fill="#FFF" d="M46 43h98v70H46z"/></g><g mask="url(#b)" fill="#7B8397"><path d="M112.599 69.94c-.154 3.377-2.508 8-7.06 13.867C100.833 89.936 96.851 93 93.594 93c-2.017 0-3.726-1.866-5.12-5.599L85.68 77.136c-1.036-3.73-2.147-5.598-3.335-5.598-.259 0-1.165.546-2.716 1.633L78 71.07a440.444 440.444 0 0 0 5.052-4.514c2.278-1.972 3.989-3.01 5.128-3.115 2.695-.259 4.353 1.586 4.975 5.536.673 4.26 1.138 6.911 1.4 7.949.776 3.535 1.63 5.3 2.564 5.3.724 0 1.813-1.146 3.264-3.439 1.45-2.293 2.226-4.038 2.33-5.237.207-1.98-.57-2.972-2.33-2.972-.829 0-1.683.191-2.562.57 1.7-5.584 4.951-8.295 9.749-8.14 3.557.104 5.234 2.415 5.029 6.933"/></g></g></svg>