<svg width="191" height="114" viewBox="0 0 191 114" xmlns="http://www.w3.org/2000/svg" xmlns:xlink="http://www.w3.org/1999/xlink"><title>FF2A31FB-F0BE-42C8-AD78-968F86336AC8</title><defs><path id="a" d="M0 0h190v113H0z"/><path id="c" d="M0 0h98v167.5H0z"/><path id="e" d="M0 23.995h24V0H0z"/></defs><g transform="translate(.32 .797)" fill="none" fill-rule="evenodd"><mask id="b" fill="#fff"><use xlink:href="#a"/></mask><use fill="#BDC0CB" xlink:href="#a"/><rect fill="#313C59" mask="url(#b)" x="41" y="5" width="108" height="214" rx="15"/><g mask="url(#b)"><g transform="translate(46 27)"><mask id="d" fill="#fff"><use xlink:href="#c"/></mask><use fill="#FFF" xlink:href="#c"/><path fill="#E4E6E9" mask="url(#d)" d="M0 16h98v57H0z"/><path fill="#FFF" mask="url(#d)" d="M0 73h98v48H0z"/><path fill="#7B8397" opacity=".3" mask="url(#d)" d="M10 84h25v2H10zM10 78h10v2H10zM38 8h22v2H38z"/></g><g transform="translate(83.5 59.5)"><mask id="f" fill="#fff"><use xlink:href="#e"/></mask><path d="M21.333 6.667a.667.667 0 0 1-.666.666h-3.334a.667.667 0 0 1-.666-.666V3.333c0-.368.298-.666.666-.666h3.334c.368 0 .666.298.666.666v3.334zm0 14a.667.667 0 0 1-.666.666H3.333a.667.667 0 0 1-.666-.666V10h2.276a7.333 7.333 0 1 0 14.114 0h2.276v10.667zM12 7.333a4.667 4.667 0 1 1 0 9.334 4.667 4.667 0 0 1 0-9.334zM20.667 0H3.333A3.333 3.333 0 0 0 0 3.333v17.334A3.333 3.333 0 0 0 3.333 24h17.334A3.333 3.333 0 0 0 24 20.667V3.333A3.333 3.333 0 0 0 20.667 0z" fill="#7B8397" mask="url(#f)"/></g></g></g></svg>