<svg width="190" height="113" viewBox="0 0 190 113" xmlns="http://www.w3.org/2000/svg" xmlns:xlink="http://www.w3.org/1999/xlink"><title>87CCD071-3E8F-47A8-822C-C14785A10832</title><defs><path id="b" d="M0 0h190v113H0z"/><path id="a" d="M56 0h40v65H56z"/><mask id="d" x="-2" y="-2" width="44" height="69"><path fill="#fff" d="M54-2h44v69H54z"/><use xlink:href="#a"/></mask></defs><g fill="none" fill-rule="evenodd"><mask id="c" fill="#fff"><use xlink:href="#b"/></mask><use fill="#444F6C" xlink:href="#b"/><g mask="url(#c)"><path fill="#FFF" d="M47 24h40v65H47z"/><g transform="translate(47 24)"><use fill="#FFF" xlink:href="#a"/><use stroke="#7B8397" mask="url(#d)" stroke-width="4" xlink:href="#a"/></g><path fill="#C4C7CF" d="M51 28h32v12H51zM51 52h15v15H51zM68 52h15v15H68z"/><path fill="#7B8397" opacity=".3" d="M57 44h20v2H57zM51 70h15v2H51zM68 70h15v2H68z"/><path fill="#C4C7CF" d="M51 81h15v8H51zM68 81h15v8H68zM107 28h15v15h-15z"/><path fill="#D7D9DF" d="M124 28h15v2h-15z"/><path fill="#7B8397" opacity=".3" d="M124 37h15v2h-15zM124 33h15v2h-15z"/><g><path fill="#C4C7CF" d="M107 51h15v15h-15z"/><path fill="#D7D9DF" d="M124 51h15v2h-15z"/><path fill="#7B8397" opacity=".3" d="M124 60h15v2h-15zM124 56h15v2h-15z"/></g><g><path fill="#C4C7CF" d="M107 74h15v15h-15z"/><path fill="#D7D9DF" d="M124 74h15v2h-15z"/><path fill="#7B8397" opacity=".3" d="M124 83h15v2h-15zM124 79h15v2h-15z"/></g></g></g></svg>