<?xml version="1.0" encoding="UTF-8"?>
<svg width="510px" height="320px" viewBox="0 0 510 320" version="1.1" xmlns="http://www.w3.org/2000/svg" xmlns:xlink="http://www.w3.org/1999/xlink">
    <!-- Generator: sketchtool 46.2 (44496) - http://www.bohemiancoding.com/sketch -->
    <title>E78465CA-4FF9-417F-985F-DC0EF594CE49</title>
    <desc>Created with sketchtool.</desc>
    <defs>
        <linearGradient x1="50%" y1="0%" x2="50%" y2="98.7424267%" id="linearGradient-1">
            <stop stop-color="#D0021B" stop-opacity="0.100000001" offset="0%"></stop>
            <stop stop-color="#D1021A" stop-opacity="0.2" offset="100%"></stop>
        </linearGradient>
    </defs>
    <g id="----A1.12-SE-Web---Developers" stroke="none" stroke-width="1" fill="none" fill-rule="evenodd">
        <g id="A1.12-SE-Web---Developers-v16.5" transform="translate(-160.000000, -1839.000000)">
            <g id="Group-3" transform="translate(160.000000, 1839.000000)">
                <g id="2nd_step">
                    <rect id="3" fill="#313C59" opacity="0.900000036" x="0" y="0" width="510" height="320" rx="3.57894737"></rect>
                    <g id="Group-5" transform="translate(123.000000, 28.000000)">
                        <g id="Group-35" transform="translate(0.000000, 144.000000)">
                            <rect id="Rectangle-36-Copy-4" fill="#FFFFFF" x="0" y="0" width="120" height="120" rx="9"></rect>
                            <g id="Group-87" transform="translate(16.500000, 18.000000)">
                                <rect id="Rectangle-26" fill="#D8D8D8" opacity="0" x="19.5" y="0" width="48" height="48"></rect>
                                <g id="ic_clipboard_check" transform="translate(25.500000, 12.000000)">
                                    <polygon id="Bounds" fill="url(#linearGradient-1)" opacity="0" points="0 0 36 0 36 36 0 36"></polygon>
                                    <path d="M9,7.5 L12.75,7.5 C12.75,5.01 14.76,3 17.25,3 C19.74,3 21.75,5.01 21.75,7.5 L25.5,7.5 C27.99,7.5 30,9.51 30,12 L30,28.5 C30,30.99 27.99,33 25.5,33 L9,33 C6.51,33 4.5,30.99 4.5,28.5 L4.5,12 C4.5,9.51 6.51,7.5 9,7.5 L9,7.5 Z M9,9 C7.35,9 6,10.35 6,12 L6,28.5 C6,30.15 7.35,31.5 9,31.5 L25.5,31.5 C27.15,31.5 28.5,30.15 28.5,28.5 L28.5,12 C28.5,10.35 27.15,9 25.5,9 L24,9 L24,13.5 L10.5,13.5 L10.5,9 L9,9 L9,9 Z M12,17.565 L13.065,16.5 L17.25,20.685 L21.435,16.5 L22.5,17.565 L18.315,21.75 L22.5,25.935 L21.435,27 L17.25,22.815 L13.065,27 L12,25.935 L16.185,21.75 L12,17.565 Z M12,12 L22.5,12 L22.5,9 L12,9 L12,12 L12,12 Z M17.25,4.5 C15.6,4.5 14.25,5.85 14.25,7.5 L20.25,7.5 C20.25,5.85 18.9,4.5 17.25,4.5 L17.25,4.5 Z" id="Icon-Shape" fill="#7B8397"></path>
                                </g>
                                <path d="M24.38125,66.41 C24.38125,68.53 25.89125,70.12 28.13125,70.12 C30.00125,70.12 31.01125,68.92 31.01125,68.92 L30.11125,67.64 C30.11125,67.64 29.29125,68.52 28.21125,68.52 C26.89125,68.52 26.19125,67.43 26.19125,66.37 C26.19125,65.34 26.84125,64.33 28.21125,64.33 C29.20125,64.33 30.00125,65.06 30.00125,65.06 L30.81125,63.74 C30.81125,63.74 29.90125,62.73 28.13125,62.73 C25.98125,62.73 24.38125,64.33 24.38125,66.41 Z M33.00875,70 L33.00875,62.85 L35.49875,62.85 C36.22875,62.85 36.57875,62.9 36.88875,63.02 C37.69875,63.33 38.20875,64.06 38.20875,65.1 C38.20875,65.86 37.84875,66.69 37.13875,67.05 L37.13875,67.07 C37.13875,67.07 37.23875,67.2 37.40875,67.5 L38.79875,70 L36.84875,70 L35.57875,67.59 L34.75875,67.59 L34.75875,70 L33.00875,70 Z M34.75875,66.09 L35.51875,66.09 C36.07875,66.09 36.42875,65.78 36.42875,65.21 C36.42875,64.67 36.22875,64.35 35.34875,64.35 L34.75875,64.35 L34.75875,66.09 Z M44.81625,70 L44.37625,68.5 L42.14625,68.5 L41.71625,70 L39.91625,70 L42.34625,62.85 L44.18625,62.85 L46.61625,70 L44.81625,70 Z M43.27625,64.48 L43.25625,64.48 C43.25625,64.48 43.09625,65.26 42.96625,65.71 L42.55625,67.1 L43.96625,67.1 L43.56625,65.71 C43.43625,65.26 43.27625,64.48 43.27625,64.48 Z M47.82375,69.1 C47.82375,69.1 48.75375,70.12 50.43375,70.12 C52.04375,70.12 52.95375,69.09 52.95375,67.9 C52.95375,65.64 49.73375,65.8 49.73375,64.9 C49.73375,64.5 50.13375,64.34 50.49375,64.34 C51.35375,64.34 52.07375,64.97 52.07375,64.97 L52.81375,63.54 C52.81375,63.54 52.05375,62.73 50.51375,62.73 C49.09375,62.73 47.98375,63.6 47.98375,64.92 C47.98375,67.12 51.20375,67.09 51.20375,67.94 C51.20375,68.37 50.81375,68.51 50.45375,68.51 C49.55375,68.51 48.74375,67.77 48.74375,67.77 L47.82375,69.1 Z M55.09125,70 L56.84125,70 L56.84125,67.2 L59.44125,67.2 L59.44125,70 L61.19125,70 L61.19125,62.85 L59.44125,62.85 L59.44125,65.71 L56.84125,65.71 L56.84125,62.85 L55.09125,62.85 L55.09125,70 Z M18.03875,82 L18.03875,74.85 L20.52875,74.85 C21.25875,74.85 21.60875,74.9 21.91875,75.02 C22.72875,75.33 23.23875,76.06 23.23875,77.1 C23.23875,77.86 22.87875,78.69 22.16875,79.05 L22.16875,79.07 C22.16875,79.07 22.26875,79.2 22.43875,79.5 L23.82875,82 L21.87875,82 L20.60875,79.59 L19.78875,79.59 L19.78875,82 L18.03875,82 Z M19.78875,78.09 L20.54875,78.09 C21.10875,78.09 21.45875,77.78 21.45875,77.21 C21.45875,76.67 21.25875,76.35 20.37875,76.35 L19.78875,76.35 L19.78875,78.09 Z M25.79625,82 L30.41625,82 L30.41625,80.5 L27.54625,80.5 L27.54625,79.15 L29.72625,79.15 L29.72625,77.65 L27.54625,77.65 L27.54625,76.35 L30.27625,76.35 L30.27625,74.85 L25.79625,74.85 L25.79625,82 Z M32.61375,82 L32.61375,74.85 L35.58375,74.85 C36.97375,74.85 37.91375,75.87 37.91375,77.31 C37.91375,78.75 36.97375,79.79 35.58375,79.79 L34.36375,79.79 L34.36375,82 L32.61375,82 Z M34.36375,78.29 L35.22375,78.29 C35.83375,78.29 36.13375,77.88 36.13375,77.31 C36.13375,76.74 35.83375,76.35 35.25375,76.35 L34.36375,76.35 L34.36375,78.29 Z M39.40125,78.38 C39.40125,76.33 40.98125,74.73 43.14125,74.73 C45.30125,74.73 46.88125,76.33 46.88125,78.38 C46.88125,80.48 45.30125,82.12 43.14125,82.12 C40.98125,82.12 39.40125,80.48 39.40125,78.38 Z M41.21125,78.38 C41.21125,79.6 42.07125,80.52 43.14125,80.52 C44.21125,80.52 45.07125,79.6 45.07125,78.38 C45.07125,77.21 44.21125,76.33 43.14125,76.33 C42.07125,76.33 41.21125,77.21 41.21125,78.38 Z M49.00875,82 L49.00875,74.85 L51.49875,74.85 C52.22875,74.85 52.57875,74.9 52.88875,75.02 C53.69875,75.33 54.20875,76.06 54.20875,77.1 C54.20875,77.86 53.84875,78.69 53.13875,79.05 L53.13875,79.07 C53.13875,79.07 53.23875,79.2 53.40875,79.5 L54.79875,82 L52.84875,82 L51.57875,79.59 L50.75875,79.59 L50.75875,82 L49.00875,82 Z M50.75875,78.09 L51.51875,78.09 C52.07875,78.09 52.42875,77.78 52.42875,77.21 C52.42875,76.67 52.22875,76.35 51.34875,76.35 L50.75875,76.35 L50.75875,78.09 Z M58.16625,82 L59.91625,82 L59.91625,76.35 L62.08625,76.35 L62.08625,74.85 L55.99625,74.85 L55.99625,76.35 L58.16625,76.35 L58.16625,82 Z M63.37375,81.1 C63.37375,81.1 64.30375,82.12 65.98375,82.12 C67.59375,82.12 68.50375,81.09 68.50375,79.9 C68.50375,77.64 65.28375,77.8 65.28375,76.9 C65.28375,76.5 65.68375,76.34 66.04375,76.34 C66.90375,76.34 67.62375,76.97 67.62375,76.97 L68.36375,75.54 C68.36375,75.54 67.60375,74.73 66.06375,74.73 C64.64375,74.73 63.53375,75.6 63.53375,76.92 C63.53375,79.12 66.75375,79.09 66.75375,79.94 C66.75375,80.37 66.36375,80.51 66.00375,80.51 C65.10375,80.51 64.29375,79.77 64.29375,79.77 L63.37375,81.1 Z" id="CRASH-REPORTS" fill="#7B8397" opacity="0.900000036"></path>
                            </g>
                        </g>
                        <g id="Group-30">
                            <path d="M9,0 L111,0 L111,0 C115.970563,-9.13077564e-16 120,4.02943725 120,9 L120,111 L120,111 C120,115.970563 115.970563,120 111,120 L9,120 L9,120 C4.02943725,120 6.08718376e-16,115.970563 0,111 L0,9 L0,9 C-6.08718376e-16,4.02943725 4.02943725,9.13077564e-16 9,0 Z" id="Rectangle-36-Copy-4" fill="#00AADF"></path>
                            <g id="Group-89" transform="translate(16.500000, 18.000000)">
                                <rect id="Rectangle-26" fill="#D8D8D8" opacity="0" x="19.5" y="0" width="48" height="48"></rect>
                                <g id="ic_bell" transform="translate(25.500000, 12.000000)">
                                    <polygon id="Bounds" fill="url(#linearGradient-1)" opacity="0" points="0 0 36 0 36 36 0 36"></polygon>
                                    <path d="M18,6.75 C18,6.33 17.67,6 17.25,6 C16.83,6 16.5,6.33 16.5,6.75 L16.5,9.045 C13.125,9.42 10.5,12.27 10.5,15.75 L10.5,24.615 L8.115,27 L26.385,27 L24,24.615 L24,15.75 C24,12.27 21.375,9.42 18,9.045 L18,6.75 L18,6.75 Z M17.25,4.5 C18.495,4.5 19.5,5.505 19.5,6.75 L19.5,7.815 C22.965,8.79 25.5,12 25.5,15.75 L25.5,24 L30,28.5 L4.5,28.5 L9,24 L9,15.75 C9,12 11.535,8.79 15,7.815 L15,6.75 C15,5.505 16.005,4.5 17.25,4.5 L17.25,4.5 Z M17.25,33 C15.435,33 13.92,31.71 13.575,30 L15.135,30 C15.435,30.87 16.275,31.5 17.25,31.5 C18.225,31.5 19.065,30.87 19.365,30 L20.925,30 C20.58,31.71 19.065,33 17.25,33 L17.25,33 Z" id="Icon-Shape" fill="#FFFFFF"></path>
                                </g>
                                <path d="M29.4,70 L29.4,62.85 L32.37,62.85 C33.76,62.85 34.7,63.87 34.7,65.31 C34.7,66.75 33.76,67.79 32.37,67.79 L31.15,67.79 L31.15,70 L29.4,70 Z M31.15,66.29 L32.01,66.29 C32.62,66.29 32.92,65.88 32.92,65.31 C32.92,64.74 32.62,64.35 32.04,64.35 L31.15,64.35 L31.15,66.29 Z M36.265,67.37 C36.265,68.98 37.445,70.12 39.265,70.12 C41.065,70.12 42.245,68.98 42.245,67.37 L42.245,62.85 L40.495,62.85 L40.495,67.37 C40.495,68.12 40.005,68.52 39.255,68.52 C38.505,68.52 38.015,68.12 38.015,67.37 L38.015,62.85 L36.265,62.85 L36.265,67.37 Z M43.92,69.1 C43.92,69.1 44.85,70.12 46.53,70.12 C48.14,70.12 49.05,69.09 49.05,67.9 C49.05,65.64 45.83,65.8 45.83,64.9 C45.83,64.5 46.23,64.34 46.59,64.34 C47.45,64.34 48.17,64.97 48.17,64.97 L48.91,63.54 C48.91,63.54 48.15,62.73 46.61,62.73 C45.19,62.73 44.08,63.6 44.08,64.92 C44.08,67.12 47.3,67.09 47.3,67.94 C47.3,68.37 46.91,68.51 46.55,68.51 C45.65,68.51 44.84,67.77 44.84,67.77 L43.92,69.1 Z M50.875,70 L52.625,70 L52.625,67.2 L55.225,67.2 L55.225,70 L56.975,70 L56.975,62.85 L55.225,62.85 L55.225,65.71 L52.625,65.71 L52.625,62.85 L50.875,62.85 L50.875,70 Z M0.6975,82 L2.4475,82 L2.4475,78.67 C2.4475,78.22 2.3675,77.45 2.3675,77.45 L2.3875,77.45 C2.3875,77.45 2.7075,78.2 2.9875,78.67 L4.9775,82 L6.7375,82 L6.7375,74.85 L4.9875,74.85 L4.9875,78.19 C4.9875,78.64 5.0675,79.41 5.0675,79.41 L5.0475,79.41 C5.0475,79.41 4.7275,78.66 4.4475,78.19 L2.4675,74.85 L0.6975,74.85 L0.6975,82 Z M8.5525,78.38 C8.5525,76.33 10.1325,74.73 12.2925,74.73 C14.4525,74.73 16.0325,76.33 16.0325,78.38 C16.0325,80.48 14.4525,82.12 12.2925,82.12 C10.1325,82.12 8.5525,80.48 8.5525,78.38 Z M10.3625,78.38 C10.3625,79.6 11.2225,80.52 12.2925,80.52 C13.3625,80.52 14.2225,79.6 14.2225,78.38 C14.2225,77.21 13.3625,76.33 12.2925,76.33 C11.2225,76.33 10.3625,77.21 10.3625,78.38 Z M19.2175,82 L20.9675,82 L20.9675,76.35 L23.1375,76.35 L23.1375,74.85 L17.0475,74.85 L17.0475,76.35 L19.2175,76.35 L19.2175,82 Z M24.6425,82 L26.3925,82 L26.3925,74.85 L24.6425,74.85 L24.6425,82 Z M28.6975,82 L30.4475,82 L30.4475,79.35 L32.6275,79.35 L32.6275,77.85 L30.4475,77.85 L30.4475,76.35 L33.0775,76.35 L33.0775,74.85 L28.6975,74.85 L28.6975,82 Z M34.8125,82 L36.5625,82 L36.5625,74.85 L34.8125,74.85 L34.8125,82 Z M38.3775,78.41 C38.3775,80.53 39.8875,82.12 42.1275,82.12 C43.9975,82.12 45.0075,80.92 45.0075,80.92 L44.1075,79.64 C44.1075,79.64 43.2875,80.52 42.2075,80.52 C40.8875,80.52 40.1875,79.43 40.1875,78.37 C40.1875,77.34 40.8375,76.33 42.2075,76.33 C43.1975,76.33 43.9975,77.06 43.9975,77.06 L44.8075,75.74 C44.8075,75.74 43.8975,74.73 42.1275,74.73 C39.9775,74.73 38.3775,76.33 38.3775,78.41 Z M50.7125,82 L50.2725,80.5 L48.0425,80.5 L47.6125,82 L45.8125,82 L48.2425,74.85 L50.0825,74.85 L52.5125,82 L50.7125,82 Z M49.1725,76.48 L49.1525,76.48 C49.1525,76.48 48.9925,77.26 48.8625,77.71 L48.4525,79.1 L49.8625,79.1 L49.4625,77.71 C49.3325,77.26 49.1725,76.48 49.1725,76.48 Z M54.9275,82 L56.6775,82 L56.6775,76.35 L58.8475,76.35 L58.8475,74.85 L52.7575,74.85 L52.7575,76.35 L54.9275,76.35 L54.9275,82 Z M60.3525,82 L62.1025,82 L62.1025,74.85 L60.3525,74.85 L60.3525,82 Z M63.9175,78.38 C63.9175,76.33 65.4975,74.73 67.6575,74.73 C69.8175,74.73 71.3975,76.33 71.3975,78.38 C71.3975,80.48 69.8175,82.12 67.6575,82.12 C65.4975,82.12 63.9175,80.48 63.9175,78.38 Z M65.7275,78.38 C65.7275,79.6 66.5875,80.52 67.6575,80.52 C68.7275,80.52 69.5875,79.6 69.5875,78.38 C69.5875,77.21 68.7275,76.33 67.6575,76.33 C66.5875,76.33 65.7275,77.21 65.7275,78.38 Z M73.2125,82 L74.9625,82 L74.9625,78.67 C74.9625,78.22 74.8825,77.45 74.8825,77.45 L74.9025,77.45 C74.9025,77.45 75.2225,78.2 75.5025,78.67 L77.4925,82 L79.2525,82 L79.2525,74.85 L77.5025,74.85 L77.5025,78.19 C77.5025,78.64 77.5825,79.41 77.5825,79.41 L77.5625,79.41 C77.5625,79.41 77.2425,78.66 76.9625,78.19 L74.9825,74.85 L73.2125,74.85 L73.2125,82 Z M81.0275,81.1 C81.0275,81.1 81.9575,82.12 83.6375,82.12 C85.2475,82.12 86.1575,81.09 86.1575,79.9 C86.1575,77.64 82.9375,77.8 82.9375,76.9 C82.9375,76.5 83.3375,76.34 83.6975,76.34 C84.5575,76.34 85.2775,76.97 85.2775,76.97 L86.0175,75.54 C86.0175,75.54 85.2575,74.73 83.7175,74.73 C82.2975,74.73 81.1875,75.6 81.1875,76.92 C81.1875,79.12 84.4075,79.09 84.4075,79.94 C84.4075,80.37 84.0175,80.51 83.6575,80.51 C82.7575,80.51 81.9475,79.77 81.9475,79.77 L81.0275,81.1 Z" id="PUSH-NOTIFICATIONS" fill="#FFFFFF" opacity="0.900000036"></path>
                            </g>
                        </g>
                        <g id="Group-39" transform="translate(141.000000, 144.000000)">
                            <path d="M10.5,0 L112.5,0 L112.5,0 C117.470563,-9.13077564e-16 121.5,4.02943725 121.5,9 L121.5,111 L121.5,111 C121.5,115.970563 117.470563,120 112.5,120 L10.5,120 L10.5,120 C5.52943725,120 1.5,115.970563 1.5,111 L1.5,9 L1.5,9 C1.5,4.02943725 5.52943725,9.13077564e-16 10.5,0 Z" id="Rectangle-36-Copy-4" fill="#41BF56"></path>
                            <g id="Group-88" transform="translate(0.000000, 18.000000)">
                                <rect id="Rectangle-26" fill="#D8D8D8" opacity="0" x="39" y="0" width="48" height="48"></rect>
                                <polygon id="Bounds" fill="url(#linearGradient-1)" opacity="0" points="43 12 79 12 79 48 43 48"></polygon>
                                <g id="ic_account" transform="translate(51.000000, 18.000000)" fill="#FFFFFF">
                                    <g id="unfriend">
                                        <g id="icon-copy">
                                            <path d="M14.625,7.5 C14.625,4.60050506 12.2744949,2.25 9.375,2.25 C6.47550506,2.25 4.125,4.60050506 4.125,7.5 C4.125,10.3994949 6.47550506,12.75 9.375,12.75 C12.2744949,12.75 14.625,10.3994949 14.625,7.5 Z M2.625,7.5 C2.625,3.77207794 5.64707794,0.75 9.375,0.75 C13.1029221,0.75 16.125,3.77207794 16.125,7.5 C16.125,11.2279221 13.1029221,14.25 9.375,14.25 C5.64707794,14.25 2.625,11.2279221 2.625,7.5 Z" id="Oval-12" fill-rule="nonzero"></path>
                                            <path d="M8.64955281,21.3 C12.1705208,21.3 12.1705208,21.3 15,21.3 C15.5843512,21.3 15.5843512,21.3 16.2084771,21.3 C18.1015707,21.3 18.2193108,21.3 18.7816123,21.3 C18.7870573,21.3341402 18.7923194,21.3683413 18.7973976,21.4026024 L17.4,22.8 C17.4,20.1688231 16.114124,17.7566265 13.996387,16.2772734 C12.672993,15.3528114 11.1011332,14.85 9.45,14.85 C5.05933624,14.85 1.5,18.4093362 1.5,22.8 L0.10260241,21.4026024 C0.107680624,21.3683413 0.112942723,21.3341402 0.118387672,21.3 C2.16462923,21.3 2.28296136,21.3 8.64955281,21.3 Z M0,22.8 C0,17.5809091 4.23090911,13.35 9.45,13.35 C11.4601408,13.35 13.323693,13.9776202 14.8553866,15.0475906 C17.3005528,16.7556707 18.9,19.5910499 18.9,22.8 C18.9,22.8 16.5934255,22.8 15,22.8 C10.2934255,22.8 0,22.8 0,22.8 Z" id="Oval-12" fill-rule="nonzero"></path>
                                            <path d="M19.8459489,14.1934199 L17.7876438,12.168499 L17.7876438,12.168499 C17.554736,11.9393687 17.1813109,11.9387091 16.947595,12.1670151 L16.9465009,12.1680839 L16.9465009,12.1680839 C16.718109,12.3911892 16.7138233,12.7571999 16.9369285,12.9855918 C16.9396061,12.9883328 16.9423109,12.9910471 16.9450424,12.9937344 L19.8459489,15.8475904 L26.5568641,9.24552119 L26.5568641,9.24552119 C26.7844503,9.02162622 26.7874427,8.65562838 26.5635477,8.42804214 C26.5613381,8.42579608 26.5591102,8.42356813 26.5568641,8.4213585 L26.5568641,8.4213585 L26.5568641,8.4213585 C26.3243945,8.1926594 25.9514967,8.19257134 25.7189192,8.42116062 L19.8459489,14.1934199 Z" id="Shape"></path>
                                        </g>
                                    </g>
                                </g>
                                <path d="M47.2257694,67.37 C47.2257694,68.98 48.4057694,70.12 50.2257694,70.12 C52.0257694,70.12 53.2057694,68.98 53.2057694,67.37 L53.2057694,62.85 L51.4557694,62.85 L51.4557694,67.37 C51.4557694,68.12 50.9657694,68.52 50.2157694,68.52 C49.4657694,68.52 48.9757694,68.12 48.9757694,67.37 L48.9757694,62.85 L47.2257694,62.85 L47.2257694,67.37 Z M55.2653847,69.1 C55.2653847,69.1 56.1953847,70.12 57.8753847,70.12 C59.4853847,70.12 60.3953847,69.09 60.3953847,67.9 C60.3953847,65.64 57.1753847,65.8 57.1753847,64.9 C57.1753847,64.5 57.5753847,64.34 57.9353847,64.34 C58.7953847,64.34 59.5153847,64.97 59.5153847,64.97 L60.2553847,63.54 C60.2553847,63.54 59.4953847,62.73 57.9553847,62.73 C56.5353847,62.73 55.4253847,63.6 55.4253847,64.92 C55.4253847,67.12 58.6453847,67.09 58.6453847,67.94 C58.6453847,68.37 58.2553847,68.51 57.8953847,68.51 C56.9953847,68.51 56.1853847,67.77 56.1853847,67.77 L55.2653847,69.1 Z M62.605,70 L67.225,70 L67.225,68.5 L64.355,68.5 L64.355,67.15 L66.535,67.15 L66.535,65.65 L64.355,65.65 L64.355,64.35 L67.085,64.35 L67.085,62.85 L62.605,62.85 L62.605,70 Z M69.4946153,70 L69.4946153,62.85 L71.9846153,62.85 C72.7146153,62.85 73.0646153,62.9 73.3746153,63.02 C74.1846153,63.33 74.6946153,64.06 74.6946153,65.1 C74.6946153,65.86 74.3346153,66.69 73.6246153,67.05 L73.6246153,67.07 C73.6246153,67.07 73.7246153,67.2 73.8946153,67.5 L75.2846153,70 L73.3346153,70 L72.0646153,67.59 L71.2446153,67.59 L71.2446153,70 L69.4946153,70 Z M71.2446153,66.09 L72.0046153,66.09 C72.5646153,66.09 72.9146153,65.78 72.9146153,65.21 C72.9146153,64.67 72.7146153,64.35 71.8346153,64.35 L71.2446153,64.35 L71.2446153,66.09 Z M22.5423082,82 L24.3623082,82 L26.8823082,74.85 L25.0123082,74.85 L23.7323082,78.92 C23.5923082,79.37 23.4623082,80.07 23.4623082,80.07 L23.4423082,80.07 C23.4423082,80.07 23.3123082,79.37 23.1723082,78.92 L21.9123082,74.85 L20.0123082,74.85 L22.5423082,82 Z M28.6719235,82 L33.2919235,82 L33.2919235,80.5 L30.4219235,80.5 L30.4219235,79.15 L32.6019235,79.15 L32.6019235,77.65 L30.4219235,77.65 L30.4219235,76.35 L33.1519235,76.35 L33.1519235,74.85 L28.6719235,74.85 L28.6719235,82 Z M35.5615388,82 L35.5615388,74.85 L38.0515388,74.85 C38.7815388,74.85 39.1315388,74.9 39.4415388,75.02 C40.2515388,75.33 40.7615388,76.06 40.7615388,77.1 C40.7615388,77.86 40.4015388,78.69 39.6915388,79.05 L39.6915388,79.07 C39.6915388,79.07 39.7915388,79.2 39.9615388,79.5 L41.3515388,82 L39.4015388,82 L38.1315388,79.59 L37.3115388,79.59 L37.3115388,82 L35.5615388,82 Z M37.3115388,78.09 L38.0715388,78.09 C38.6315388,78.09 38.9815388,77.78 38.9815388,77.21 C38.9815388,76.67 38.7815388,76.35 37.9015388,76.35 L37.3115388,76.35 L37.3115388,78.09 Z M43.3911541,82 L45.1411541,82 L45.1411541,74.85 L43.3911541,74.85 L43.3911541,82 Z M47.8307694,82 L49.5807694,82 L49.5807694,79.35 L51.7607694,79.35 L51.7607694,77.85 L49.5807694,77.85 L49.5807694,76.35 L52.2107694,76.35 L52.2107694,74.85 L47.8307694,74.85 L47.8307694,82 Z M54.3303847,82 L56.0803847,82 L56.0803847,74.85 L54.3303847,74.85 L54.3303847,82 Z M58.28,78.41 C58.28,80.53 59.79,82.12 62.03,82.12 C63.9,82.12 64.91,80.92 64.91,80.92 L64.01,79.64 C64.01,79.64 63.19,80.52 62.11,80.52 C60.79,80.52 60.09,79.43 60.09,78.37 C60.09,77.34 60.74,76.33 62.11,76.33 C63.1,76.33 63.9,77.06 63.9,77.06 L64.71,75.74 C64.71,75.74 63.8,74.73 62.03,74.73 C59.88,74.73 58.28,76.33 58.28,78.41 Z M70.9996153,82 L70.5596153,80.5 L68.3296153,80.5 L67.8996153,82 L66.0996153,82 L68.5296153,74.85 L70.3696153,74.85 L72.7996153,82 L70.9996153,82 Z M69.4596153,76.48 L69.4396153,76.48 C69.4396153,76.48 69.2796153,77.26 69.1496153,77.71 L68.7396153,79.1 L70.1496153,79.1 L69.7496153,77.71 C69.6196153,77.26 69.4596153,76.48 69.4596153,76.48 Z M75.5992306,82 L77.3492306,82 L77.3492306,76.35 L79.5192306,76.35 L79.5192306,74.85 L73.4292306,74.85 L73.4292306,76.35 L75.5992306,76.35 L75.5992306,82 Z M81.4088459,82 L83.1588459,82 L83.1588459,74.85 L81.4088459,74.85 L81.4088459,82 Z M85.3584612,78.38 C85.3584612,76.33 86.9384612,74.73 89.0984612,74.73 C91.2584612,74.73 92.8384612,76.33 92.8384612,78.38 C92.8384612,80.48 91.2584612,82.12 89.0984612,82.12 C86.9384612,82.12 85.3584612,80.48 85.3584612,78.38 Z M87.1684612,78.38 C87.1684612,79.6 88.0284612,80.52 89.0984612,80.52 C90.1684612,80.52 91.0284612,79.6 91.0284612,78.38 C91.0284612,77.21 90.1684612,76.33 89.0984612,76.33 C88.0284612,76.33 87.1684612,77.21 87.1684612,78.38 Z M95.0380765,82 L96.7880765,82 L96.7880765,78.67 C96.7880765,78.22 96.7080765,77.45 96.7080765,77.45 L96.7280765,77.45 C96.7280765,77.45 97.0480765,78.2 97.3280765,78.67 L99.3180765,82 L101.078077,82 L101.078077,74.85 L99.3280765,74.85 L99.3280765,78.19 C99.3280765,78.64 99.4080765,79.41 99.4080765,79.41 L99.3880765,79.41 C99.3880765,79.41 99.0680765,78.66 98.7880765,78.19 L96.8080765,74.85 L95.0380765,74.85 L95.0380765,82 Z" id="USER-VERIFICATION" fill="#FFFFFF" opacity="0.900000036"></path>
                            </g>
                        </g>
                        <g id="Group-34" transform="translate(144.000000, 0.000000)">
                            <rect id="Rectangle-36-Copy-4" fill="#F5A623" x="0" y="0" width="120" height="120" rx="9"></rect>
                            <g id="Group-88" transform="translate(16.500000, 18.000000)">
                                <rect id="Rectangle-26" fill="#D8D8D8" opacity="0" x="19.5" y="0" width="48" height="48"></rect>
                                <g id="ic_chart_line" transform="translate(25.500000, 12.000000)">
                                    <polygon id="Bounds" fill="url(#linearGradient-1)" opacity="0" points="0 0 36 0 36 36 0 36"></polygon>
                                    <polygon id="Icon-Shape" fill="#FFFFFF" points="4.5 6 6 6 6 27 14.37 12.495 23.385 17.7 28.815 8.31 30.105 9.06 23.94 19.755 14.925 14.55 6 30 30 30 30 31.5 4.5 31.5"></polygon>
                                </g>
                                <path d="M17.8325,77 L17.3925,75.5 L15.1625,75.5 L14.7325,77 L12.9325,77 L15.3625,69.85 L17.2025,69.85 L19.6325,77 L17.8325,77 Z M16.2925,71.48 L16.2725,71.48 C16.2725,71.48 16.1125,72.26 15.9825,72.71 L15.5725,74.1 L16.9825,74.1 L16.5825,72.71 C16.4525,72.26 16.2925,71.48 16.2925,71.48 Z M21.0575,77 L22.8075,77 L22.8075,73.67 C22.8075,73.22 22.7275,72.45 22.7275,72.45 L22.7475,72.45 C22.7475,72.45 23.0675,73.2 23.3475,73.67 L25.3375,77 L27.0975,77 L27.0975,69.85 L25.3475,69.85 L25.3475,73.19 C25.3475,73.64 25.4275,74.41 25.4275,74.41 L25.4075,74.41 C25.4075,74.41 25.0875,73.66 24.8075,73.19 L22.8275,69.85 L21.0575,69.85 L21.0575,77 Z M33.4225,77 L32.9825,75.5 L30.7525,75.5 L30.3225,77 L28.5225,77 L30.9525,69.85 L32.7925,69.85 L35.2225,77 L33.4225,77 Z M31.8825,71.48 L31.8625,71.48 C31.8625,71.48 31.7025,72.26 31.5725,72.71 L31.1625,74.1 L32.5725,74.1 L32.1725,72.71 C32.0425,72.26 31.8825,71.48 31.8825,71.48 Z M36.6475,77 L41.3175,77 L41.3175,75.5 L38.3975,75.5 L38.3975,69.85 L36.6475,69.85 L36.6475,77 Z M43.8825,77 L45.6325,77 L45.6325,74.07 L47.9925,69.85 L46.0025,69.85 L45.2025,71.57 C44.9725,72.06 44.7725,72.6 44.7725,72.6 L44.7525,72.6 C44.7525,72.6 44.5525,72.06 44.3225,71.57 L43.5125,69.85 L41.5225,69.85 L43.8825,74.07 L43.8825,77 Z M51.1375,77 L52.8875,77 L52.8875,71.35 L55.0575,71.35 L55.0575,69.85 L48.9675,69.85 L48.9675,71.35 L51.1375,71.35 L51.1375,77 Z M56.5625,77 L58.3125,77 L58.3125,69.85 L56.5625,69.85 L56.5625,77 Z M60.1275,73.41 C60.1275,75.53 61.6375,77.12 63.8775,77.12 C65.7475,77.12 66.7575,75.92 66.7575,75.92 L65.8575,74.64 C65.8575,74.64 65.0375,75.52 63.9575,75.52 C62.6375,75.52 61.9375,74.43 61.9375,73.37 C61.9375,72.34 62.5875,71.33 63.9575,71.33 C64.9475,71.33 65.7475,72.06 65.7475,72.06 L66.5575,70.74 C66.5575,70.74 65.6475,69.73 63.8775,69.73 C61.7275,69.73 60.1275,71.33 60.1275,73.41 Z M67.9125,76.1 C67.9125,76.1 68.8425,77.12 70.5225,77.12 C72.1325,77.12 73.0425,76.09 73.0425,74.9 C73.0425,72.64 69.8225,72.8 69.8225,71.9 C69.8225,71.5 70.2225,71.34 70.5825,71.34 C71.4425,71.34 72.1625,71.97 72.1625,71.97 L72.9025,70.54 C72.9025,70.54 72.1425,69.73 70.6025,69.73 C69.1825,69.73 68.0725,70.6 68.0725,71.92 C68.0725,74.12 71.2925,74.09 71.2925,74.94 C71.2925,75.37 70.9025,75.51 70.5425,75.51 C69.6425,75.51 68.8325,74.77 68.8325,74.77 L67.9125,76.1 Z" id="ANALYTICS" fill="#FFFFFF" opacity="0.900000036"></path>
                            </g>
                        </g>
                    </g>
                </g>
            </g>
        </g>
    </g>
</svg>