<?xml version="1.0" encoding="UTF-8"?>
<svg width="510px" height="320px" viewBox="0 0 510 320" version="1.1" xmlns="http://www.w3.org/2000/svg" xmlns:xlink="http://www.w3.org/1999/xlink">
    <!-- Generator: sketchtool 46.2 (44496) - http://www.bohemiancoding.com/sketch -->
    <title>868341D6-9ABF-4ACD-A73D-1D364B0B9CEC</title>
    <desc>Created with sketchtool.</desc>
    <defs>
        <rect id="path-1" x="0" y="0" width="510" height="320" rx="3.57894737"></rect>
        <path d="M16.2371134,0 L413.762887,0 L413.762887,-2.13162821e-14 C422.730397,-2.2963587e-14 430,7.26960329 430,16.2371134 L430,263 L-7.95807864e-13,263 L-7.95807864e-13,16.2371134 L-7.95807864e-13,16.2371134 C-7.96906067e-13,7.26960329 7.26960329,1.64730488e-15 16.2371134,0 Z" id="path-3"></path>
        <rect id="path-5" x="16" y="31" width="387" height="236"></rect>
        <path d="M0.8,6.36 C1.27,6.77 2,7.08 2.71,7.15 L2.71,8.6 L3.4,8.6 L3.4,7.13 C4.47,7 5.15,6.37 5.15,5.51 C5.15,3.68 2.04,3.87 2.04,2.87 C2.04,2.41 2.42,2.13 3.03,2.13 C3.67,2.13 4.02,2.34 4.48,2.69 L4.99,2.11 C4.59,1.71 4.12,1.4 3.4,1.33 L3.4,0.03 L2.71,0.03 L2.71,1.34 C1.73,1.46 1.08,2.04 1.08,2.89 C1.08,4.65 4.18,4.45 4.18,5.58 C4.18,6.04 3.8,6.35 3.1,6.35 C2.38,6.35 1.78,6.05 1.25,5.68 L0.8,6.36 Z M15.06,7.62 C16.5,7.62 17.3,6.95 17.3,6.13 C17.3,5.37 16.9,4.96 15.3,4.61 C14.35,4.41 13.96,4.25 13.96,3.87 C13.96,3.53 14.23,3.25 14.97,3.25 C15.57,3.25 16.13,3.44 16.6,3.75 L17.06,3.13 C16.57,2.8 15.83,2.49 15.06,2.49 C13.7,2.49 12.97,3.1 12.97,3.92 C12.97,4.66 13.58,5.1 14.87,5.37 C16.1,5.63 16.3,5.84 16.3,6.19 C16.3,6.56 15.94,6.86 15.19,6.86 C14.34,6.86 13.68,6.62 13.11,6.22 L12.67,6.86 C13.26,7.27 14.13,7.62 15.06,7.62 Z M18.88,7.5 L19.87,7.5 L19.87,4.13 C20.37,3.61 20.74,3.35 21.26,3.35 C22,3.35 22.28,3.75 22.28,4.6 L22.28,7.5 L23.27,7.5 L23.27,4.47 C23.27,3.2 22.75,2.49 21.61,2.49 C20.86,2.49 20.3,2.89 19.84,3.39 L19.81,3.39 L19.87,2.29 L19.87,0.41 L18.88,0.41 L18.88,7.5 Z M27,7.62 C25.72,7.62 24.56,6.68 24.56,5.06 C24.56,3.43 25.72,2.49 27,2.49 C28.28,2.49 29.44,3.43 29.44,5.06 C29.44,6.68 28.28,7.62 27,7.62 Z M27,6.81 C27.87,6.81 28.42,6.11 28.42,5.06 C28.42,4.01 27.87,3.31 27,3.31 C26.13,3.31 25.58,4.01 25.58,5.06 C25.58,6.11 26.13,6.81 27,6.81 Z M32.4,7.62 C33.14,7.62 33.69,7.24 34.17,6.69 L34.21,6.69 L34.29,7.5 L35.1,7.5 L35.1,2.61 L34.11,2.61 L34.11,5.96 C33.63,6.54 33.25,6.77 32.74,6.77 C32,6.77 31.72,6.37 31.72,5.51 L31.72,2.61 L30.73,2.61 L30.73,5.64 C30.73,6.92 31.25,7.62 32.4,7.62 Z M39.92,7.62 C40.55,7.62 41.03,7.49 41.47,7.34 L41.27,6.61 C40.93,6.74 40.58,6.82 40.15,6.82 C39.26,6.82 38.97,6.41 38.97,5.57 L38.97,3.41 L41.28,3.41 L41.28,2.61 L38.97,2.61 L38.97,1.06 L38.15,1.06 L38.02,2.61 L36.64,2.66 L36.64,3.41 L37.98,3.41 L37.98,5.57 C37.98,6.79 38.47,7.62 39.92,7.62 Z M45.3,7.62 C43.82,7.62 42.65,6.68 42.65,5.05 C42.65,3.46 43.85,2.49 45.15,2.49 C46.59,2.49 47.4,3.44 47.4,4.8 C47.4,5.01 47.38,5.21 47.36,5.34 L43.64,5.34 C43.75,6.35 44.47,6.84 45.43,6.84 C45.97,6.84 46.41,6.68 46.85,6.41 L47.2,7.04 C46.7,7.37 46.05,7.62 45.3,7.62 Z M45.18,3.27 C44.44,3.27 43.81,3.74 43.66,4.61 L46.51,4.61 C46.44,3.72 45.94,3.27 45.18,3.27 Z M48.52,7.5 L49.49,7.5 L49.49,4.02 C49.7,3.57 49.9,3.34 50.2,3.34 C50.51,3.34 50.64,3.6 50.64,4.09 L50.64,7.5 L51.5,7.5 L51.5,4.02 C51.73,3.57 51.9,3.34 52.2,3.34 C52.51,3.34 52.65,3.6 52.65,4.09 L52.65,7.5 L53.62,7.5 L53.62,4.02 C53.62,3.04 53.22,2.49 52.53,2.49 C51.97,2.49 51.66,2.83 51.4,3.33 C51.27,2.77 50.97,2.49 50.5,2.49 C49.94,2.49 49.63,2.81 49.4,3.25 L49.38,3.25 L49.3,2.61 L48.52,2.61 L48.52,7.5 Z M63.45,7.62 C64.16,7.62 64.86,7.35 65.41,6.87 L64.98,6.23 C64.59,6.55 64.12,6.81 63.53,6.81 C62.49,6.81 61.78,6.11 61.78,5.06 C61.78,4.01 62.51,3.31 63.56,3.31 C64.04,3.31 64.44,3.5 64.83,3.82 L65.31,3.19 C64.91,2.8 64.31,2.49 63.51,2.49 C62.03,2.49 60.76,3.43 60.76,5.06 C60.76,6.68 61.92,7.62 63.45,7.62 Z M70.04,7.62 C70.59,7.62 70.92,7.52 71.39,7.34 L71.15,6.6 C70.82,6.74 70.54,6.81 70.27,6.81 C69.73,6.81 69.35,6.53 69.35,5.85 L69.35,0.41 L66.76,0.41 L66.76,1.2 L68.36,1.2 L68.36,5.79 C68.36,6.97 68.95,7.62 70.04,7.62 Z M75,7.62 C73.72,7.62 72.56,6.68 72.56,5.06 C72.56,3.43 73.72,2.49 75,2.49 C76.28,2.49 77.44,3.43 77.44,5.06 C77.44,6.68 76.28,7.62 75,7.62 Z M75,6.81 C75.87,6.81 76.42,6.11 76.42,5.06 C76.42,4.01 75.87,3.31 75,3.31 C74.13,3.31 73.58,4.01 73.58,5.06 C73.58,6.11 74.13,6.81 75,6.81 Z M78.88,7.5 L79.87,7.5 L79.87,4.13 C80.37,3.61 80.74,3.35 81.26,3.35 C82,3.35 82.28,3.75 82.28,4.6 L82.28,7.5 L83.27,7.5 L83.27,4.47 C83.27,3.2 82.75,2.49 81.61,2.49 C80.85,2.49 80.3,2.89 79.81,3.4 L79.77,3.4 L79.69,2.61 L78.88,2.61 L78.88,7.5 Z M87.3,7.62 C85.82,7.62 84.65,6.68 84.65,5.05 C84.65,3.46 85.85,2.49 87.15,2.49 C88.59,2.49 89.4,3.44 89.4,4.8 C89.4,5.01 89.38,5.21 89.36,5.34 L85.64,5.34 C85.75,6.35 86.47,6.84 87.43,6.84 C87.97,6.84 88.41,6.68 88.85,6.41 L89.2,7.04 C88.7,7.37 88.05,7.62 87.3,7.62 Z M87.18,3.27 C86.44,3.27 85.81,3.74 85.66,4.61 L88.51,4.61 C88.44,3.72 87.94,3.27 87.18,3.27 Z M3.03,30.12 C4.52,30.12 5.41,29.26 5.41,28.21 C5.41,27.25 4.79,26.78 3.97,26.46 L3.08,26.07 C2.5,25.84 1.94,25.63 1.94,25.06 C1.94,24.53 2.4,24.2 3.09,24.2 C3.76,24.2 4.24,24.42 4.67,24.79 L5.19,24.15 C4.68,23.65 3.95,23.33 3.14,23.33 C1.84,23.33 0.93,24.1 0.93,25.12 C0.93,26.08 1.66,26.57 2.33,26.83 L3.25,27.24 C3.91,27.51 4.39,27.69 4.39,28.33 C4.39,28.87 3.92,29.25 3.09,29.25 C2.37,29.25 1.71,28.94 1.21,28.47 L0.63,29.15 C1.25,29.76 2.09,30.12 3.03,30.12 Z M9.3,30.12 C7.82,30.12 6.65,29.18 6.65,27.55 C6.65,25.96 7.85,24.99 9.15,24.99 C10.59,24.99 11.4,25.94 11.4,27.3 C11.4,27.51 11.38,27.71 11.36,27.84 L7.64,27.84 C7.75,28.85 8.47,29.34 9.43,29.34 C9.97,29.34 10.41,29.18 10.85,28.91 L11.2,29.54 C10.7,29.87 10.05,30.12 9.3,30.12 Z M9.18,25.77 C8.44,25.77 7.81,26.24 7.66,27.11 L10.51,27.11 C10.44,26.22 9.94,25.77 9.18,25.77 Z M16.04,30.12 C16.59,30.12 16.92,30.02 17.39,29.84 L17.15,29.1 C16.82,29.24 16.54,29.31 16.27,29.31 C15.73,29.31 15.35,29.03 15.35,28.35 L15.35,22.91 L12.76,22.91 L12.76,23.7 L14.36,23.7 L14.36,28.29 C14.36,29.47 14.95,30.12 16.04,30.12 Z M21.3,30.12 C19.82,30.12 18.65,29.18 18.65,27.55 C18.65,25.96 19.85,24.99 21.15,24.99 C22.59,24.99 23.4,25.94 23.4,27.3 C23.4,27.51 23.38,27.71 23.36,27.84 L19.64,27.84 C19.75,28.85 20.47,29.34 21.43,29.34 C21.97,29.34 22.41,29.18 22.85,28.91 L23.2,29.54 C22.7,29.87 22.05,30.12 21.3,30.12 Z M21.18,25.77 C20.44,25.77 19.81,26.24 19.66,27.11 L22.51,27.11 C22.44,26.22 21.94,25.77 21.18,25.77 Z M27.45,30.12 C28.16,30.12 28.86,29.85 29.41,29.37 L28.98,28.73 C28.59,29.05 28.12,29.31 27.53,29.31 C26.49,29.31 25.78,28.61 25.78,27.56 C25.78,26.51 26.51,25.81 27.56,25.81 C28.04,25.81 28.44,26 28.83,26.32 L29.31,25.69 C28.91,25.3 28.31,24.99 27.51,24.99 C26.03,24.99 24.76,25.93 24.76,27.56 C24.76,29.18 25.92,30.12 27.45,30.12 Z M33.92,30.12 C34.55,30.12 35.03,29.99 35.47,29.84 L35.27,29.11 C34.93,29.24 34.58,29.32 34.15,29.32 C33.26,29.32 32.97,28.91 32.97,28.07 L32.97,25.91 L35.28,25.91 L35.28,25.11 L32.97,25.11 L32.97,23.56 L32.15,23.56 L32.02,25.11 L30.64,25.16 L30.64,25.91 L31.98,25.91 L31.98,28.07 C31.98,29.29 32.47,30.12 33.92,30.12 Z M45.92,30.12 C46.55,30.12 47.03,29.99 47.47,29.84 L47.27,29.11 C46.93,29.24 46.58,29.32 46.15,29.32 C45.26,29.32 44.97,28.91 44.97,28.07 L44.97,25.91 L47.28,25.91 L47.28,25.11 L44.97,25.11 L44.97,23.56 L44.15,23.56 L44.02,25.11 L42.64,25.16 L42.64,25.91 L43.98,25.91 L43.98,28.07 C43.98,29.29 44.47,30.12 45.92,30.12 Z M48.88,30 L49.87,30 L49.87,26.63 C50.37,26.11 50.74,25.85 51.26,25.85 C52,25.85 52.28,26.25 52.28,27.1 L52.28,30 L53.27,30 L53.27,26.97 C53.27,25.7 52.75,24.99 51.61,24.99 C50.86,24.99 50.3,25.39 49.84,25.89 L49.81,25.89 L49.87,24.79 L49.87,22.91 L48.88,22.91 L48.88,30 Z M57.3,30.12 C55.82,30.12 54.65,29.18 54.65,27.55 C54.65,25.96 55.85,24.99 57.15,24.99 C58.59,24.99 59.4,25.94 59.4,27.3 C59.4,27.51 59.38,27.71 59.36,27.84 L55.64,27.84 C55.75,28.85 56.47,29.34 57.43,29.34 C57.97,29.34 58.41,29.18 58.85,28.91 L59.2,29.54 C58.7,29.87 58.05,30.12 57.3,30.12 Z M57.18,25.77 C56.44,25.77 55.81,26.24 55.66,27.11 L58.51,27.11 C58.44,26.22 57.94,25.77 57.18,25.77 Z M68.41,30.12 C67.47,30.12 66.76,29.57 66.76,28.71 C66.76,27.61 67.75,27.08 70.21,26.89 C70.18,26.29 69.86,25.8 68.99,25.8 C68.39,25.8 67.81,26.07 67.33,26.35 L66.96,25.68 C67.5,25.35 68.31,24.99 69.16,24.99 C70.51,24.99 71.2,25.77 71.2,27.06 L71.2,30 L70.39,30 L70.31,29.37 L70.28,29.37 C69.76,29.77 69.08,30.12 68.41,30.12 Z M68.69,29.33 C69.21,29.33 69.71,29.09 70.21,28.68 L70.21,27.52 C68.29,27.67 67.72,28.05 67.72,28.64 C67.72,29.13 68.16,29.33 68.69,29.33 Z M72.88,32 L72.88,25.11 L73.69,25.11 L73.77,25.71 L73.8,25.71 C74.24,25.29 74.85,24.99 75.43,24.99 C76.72,24.99 77.44,25.97 77.44,27.48 C77.44,29.15 76.39,30.12 75.24,30.12 C74.79,30.12 74.26,29.9 73.85,29.52 L73.82,29.52 L73.87,30.4 L73.87,32 L72.88,32 Z M75.05,29.3 C75.83,29.3 76.42,28.65 76.42,27.49 C76.42,26.47 76.04,25.82 75.16,25.82 C74.76,25.82 74.31,26.02 73.87,26.48 L73.87,28.79 C74.28,29.16 74.74,29.3 75.05,29.3 Z M78.88,32 L78.88,25.11 L79.69,25.11 L79.77,25.71 L79.8,25.71 C80.24,25.29 80.85,24.99 81.43,24.99 C82.72,24.99 83.44,25.97 83.44,27.48 C83.44,29.15 82.39,30.12 81.24,30.12 C80.79,30.12 80.26,29.9 79.85,29.52 L79.82,29.52 L79.87,30.4 L79.87,32 L78.88,32 Z M81.05,29.3 C81.83,29.3 82.42,28.65 82.42,27.49 C82.42,26.47 82.04,25.82 81.16,25.82 C80.76,25.82 80.31,26.02 79.87,26.48 L79.87,28.79 C80.28,29.16 80.74,29.3 81.05,29.3 Z M91.34,32.05 C92.48,32.05 93.08,31.35 93.47,30.31 L95.56,25.11 L94.62,25.11 L93.65,27.66 C93.49,28.11 93.31,28.62 93.15,29.09 L93.11,29.09 C92.91,28.61 92.72,28.1 92.54,27.66 L91.44,25.11 L90.45,25.11 L92.68,29.97 L92.55,30.31 C92.33,30.85 91.94,31.25 91.29,31.25 C91.14,31.25 90.99,31.22 90.87,31.18 L90.67,31.95 C90.85,32.01 91.1,32.05 91.34,32.05 Z M99,30.12 C97.72,30.12 96.56,29.18 96.56,27.56 C96.56,25.93 97.72,24.99 99,24.99 C100.28,24.99 101.44,25.93 101.44,27.56 C101.44,29.18 100.28,30.12 99,30.12 Z M99,29.31 C99.87,29.31 100.42,28.61 100.42,27.56 C100.42,26.51 99.87,25.81 99,25.81 C98.13,25.81 97.58,26.51 97.58,27.56 C97.58,28.61 98.13,29.31 99,29.31 Z M104.4,30.12 C105.14,30.12 105.69,29.74 106.17,29.19 L106.21,29.19 L106.29,30 L107.1,30 L107.1,25.11 L106.11,25.11 L106.11,28.46 C105.63,29.04 105.25,29.27 104.74,29.27 C104,29.27 103.72,28.87 103.72,28.01 L103.72,25.11 L102.73,25.11 L102.73,28.14 C102.73,29.42 103.25,30.12 104.4,30.12 Z M115.07,30 L116.29,30 L116.76,27.86 C116.84,27.45 116.91,26.98 116.98,26.42 L117.02,26.42 C117.09,27.02 117.17,27.5 117.25,27.86 L117.73,30 L118.96,30 L119.93,25.11 L119.01,25.11 L118.51,27.8 C118.43,28.27 118.39,28.7 118.31,29.17 L118.27,29.17 C118.21,28.7 118.09,28.27 117.99,27.8 L117.47,25.51 L116.59,25.51 L116.06,27.8 C115.96,28.26 115.86,28.7 115.8,29.17 L115.76,29.17 C115.7,28.7 115.64,28.27 115.55,27.8 L115.05,25.11 L114.07,25.11 L115.07,30 Z M122.41,30.12 C121.47,30.12 120.76,29.57 120.76,28.71 C120.76,27.61 121.75,27.08 124.21,26.89 C124.18,26.29 123.86,25.8 122.99,25.8 C122.39,25.8 121.81,26.07 121.33,26.35 L120.96,25.68 C121.5,25.35 122.31,24.99 123.16,24.99 C124.51,24.99 125.2,25.77 125.2,27.06 L125.2,30 L124.39,30 L124.31,29.37 L124.28,29.37 C123.76,29.77 123.08,30.12 122.41,30.12 Z M122.69,29.33 C123.21,29.33 123.71,29.09 124.21,28.68 L124.21,27.52 C122.29,27.67 121.72,28.05 121.72,28.64 C121.72,29.13 122.16,29.33 122.69,29.33 Z M126.88,30 L127.87,30 L127.87,26.63 C128.37,26.11 128.74,25.85 129.26,25.85 C130,25.85 130.28,26.25 130.28,27.1 L130.28,30 L131.27,30 L131.27,26.97 C131.27,25.7 130.75,24.99 129.61,24.99 C128.85,24.99 128.3,25.39 127.81,25.9 L127.77,25.9 L127.69,25.11 L126.88,25.11 L126.88,30 Z M135.92,30.12 C136.55,30.12 137.03,29.99 137.47,29.84 L137.27,29.11 C136.93,29.24 136.58,29.32 136.15,29.32 C135.26,29.32 134.97,28.91 134.97,28.07 L134.97,25.91 L137.28,25.91 L137.28,25.11 L134.97,25.11 L134.97,23.56 L134.15,23.56 L134.02,25.11 L132.64,25.16 L132.64,25.91 L133.98,25.91 L133.98,28.07 C133.98,29.29 134.47,30.12 135.92,30.12 Z M147.92,30.12 C148.55,30.12 149.03,29.99 149.47,29.84 L149.27,29.11 C148.93,29.24 148.58,29.32 148.15,29.32 C147.26,29.32 146.97,28.91 146.97,28.07 L146.97,25.91 L149.28,25.91 L149.28,25.11 L146.97,25.11 L146.97,23.56 L146.15,23.56 L146.02,25.11 L144.64,25.16 L144.64,25.91 L145.98,25.91 L145.98,28.07 C145.98,29.29 146.47,30.12 147.92,30.12 Z M153,30.12 C151.72,30.12 150.56,29.18 150.56,27.56 C150.56,25.93 151.72,24.99 153,24.99 C154.28,24.99 155.44,25.93 155.44,27.56 C155.44,29.18 154.28,30.12 153,30.12 Z M153,29.31 C153.87,29.31 154.42,28.61 154.42,27.56 C154.42,26.51 153.87,25.81 153,25.81 C152.13,25.81 151.58,26.51 151.58,27.56 C151.58,28.61 152.13,29.31 153,29.31 Z M165.45,30.12 C166.16,30.12 166.86,29.85 167.41,29.37 L166.98,28.73 C166.59,29.05 166.12,29.31 165.53,29.31 C164.49,29.31 163.78,28.61 163.78,27.56 C163.78,26.51 164.51,25.81 165.56,25.81 C166.04,25.81 166.44,26 166.83,26.32 L167.31,25.69 C166.91,25.3 166.31,24.99 165.51,24.99 C164.03,24.99 162.76,25.93 162.76,27.56 C162.76,29.18 163.92,30.12 165.45,30.12 Z M172.04,30.12 C172.59,30.12 172.92,30.02 173.39,29.84 L173.15,29.1 C172.82,29.24 172.54,29.31 172.27,29.31 C171.73,29.31 171.35,29.03 171.35,28.35 L171.35,22.91 L168.76,22.91 L168.76,23.7 L170.36,23.7 L170.36,28.29 C170.36,29.47 170.95,30.12 172.04,30.12 Z M177,30.12 C175.72,30.12 174.56,29.18 174.56,27.56 C174.56,25.93 175.72,24.99 177,24.99 C178.28,24.99 179.44,25.93 179.44,27.56 C179.44,29.18 178.28,30.12 177,30.12 Z M177,29.31 C177.87,29.31 178.42,28.61 178.42,27.56 C178.42,26.51 177.87,25.81 177,25.81 C176.13,25.81 175.58,26.51 175.58,27.56 C175.58,28.61 176.13,29.31 177,29.31 Z M180.88,30 L181.87,30 L181.87,26.63 C182.37,26.11 182.74,25.85 183.26,25.85 C184,25.85 184.28,26.25 184.28,27.1 L184.28,30 L185.27,30 L185.27,26.97 C185.27,25.7 184.75,24.99 183.61,24.99 C182.85,24.99 182.3,25.39 181.81,25.9 L181.77,25.9 L181.69,25.11 L180.88,25.11 L180.88,30 Z M189.3,30.12 C187.82,30.12 186.65,29.18 186.65,27.55 C186.65,25.96 187.85,24.99 189.15,24.99 C190.59,24.99 191.4,25.94 191.4,27.3 C191.4,27.51 191.38,27.71 191.36,27.84 L187.64,27.84 C187.75,28.85 188.47,29.34 189.43,29.34 C189.97,29.34 190.41,29.18 190.85,28.91 L191.2,29.54 C190.7,29.87 190.05,30.12 189.3,30.12 Z M189.18,25.77 C188.44,25.77 187.81,26.24 187.66,27.11 L190.51,27.11 C190.44,26.22 189.94,25.77 189.18,25.77 Z M195,26.63 C195.51,26.63 195.9,26.25 195.9,25.7 C195.9,25.16 195.51,24.77 195,24.77 C194.49,24.77 194.1,25.16 194.1,25.7 C194.1,26.25 194.49,26.63 195,26.63 Z M195,30.12 C195.51,30.12 195.9,29.74 195.9,29.19 C195.9,28.65 195.51,28.26 195,28.26 C194.49,28.26 194.1,28.65 194.1,29.19 C194.1,29.74 194.49,30.12 195,30.12 Z M204.78,30 L205.74,30 L205.74,26.86 C205.74,26.16 205.64,25.41 205.6,24.73 L205.63,24.73 L206.24,26.11 L208.15,30 L209.22,30 L209.22,23.45 L208.26,23.45 L208.26,26.57 C208.26,27.28 208.36,28.06 208.4,28.72 L208.37,28.72 L207.76,27.34 L205.85,23.45 L204.78,23.45 L204.78,30 Z M213.3,30.12 C211.82,30.12 210.65,29.18 210.65,27.55 C210.65,25.96 211.85,24.99 213.15,24.99 C214.59,24.99 215.4,25.94 215.4,27.3 C215.4,27.51 215.38,27.71 215.36,27.84 L211.64,27.84 C211.75,28.85 212.47,29.34 213.43,29.34 C213.97,29.34 214.41,29.18 214.85,28.91 L215.2,29.54 C214.7,29.87 214.05,30.12 213.3,30.12 Z M213.18,25.77 C212.44,25.77 211.81,26.24 211.66,27.11 L214.51,27.11 C214.44,26.22 213.94,25.77 213.18,25.77 Z M217.07,30 L218.29,30 L218.76,27.86 C218.84,27.45 218.91,26.98 218.98,26.42 L219.02,26.42 C219.09,27.02 219.17,27.5 219.25,27.86 L219.73,30 L220.96,30 L221.93,25.11 L221.01,25.11 L220.51,27.8 C220.43,28.27 220.39,28.7 220.31,29.17 L220.27,29.17 C220.21,28.7 220.09,28.27 219.99,27.8 L219.47,25.51 L218.59,25.51 L218.06,27.8 C217.96,28.26 217.86,28.7 217.8,29.17 L217.76,29.17 C217.7,28.7 217.64,28.27 217.55,27.8 L217.05,25.11 L216.07,25.11 L217.07,30 Z M225.06,30.12 C226.5,30.12 227.3,29.45 227.3,28.63 C227.3,27.87 226.9,27.46 225.3,27.11 C224.35,26.91 223.96,26.75 223.96,26.37 C223.96,26.03 224.23,25.75 224.97,25.75 C225.57,25.75 226.13,25.94 226.6,26.25 L227.06,25.63 C226.57,25.3 225.83,24.99 225.06,24.99 C223.7,24.99 222.97,25.6 222.97,26.42 C222.97,27.16 223.58,27.6 224.87,27.87 C226.1,28.13 226.3,28.34 226.3,28.69 C226.3,29.06 225.94,29.36 225.19,29.36 C224.34,29.36 223.68,29.12 223.11,28.72 L222.67,29.36 C223.26,29.77 224.13,30.12 225.06,30.12 Z M236.41,30.12 C235.47,30.12 234.76,29.57 234.76,28.71 C234.76,27.61 235.75,27.08 238.21,26.89 C238.18,26.29 237.86,25.8 236.99,25.8 C236.39,25.8 235.81,26.07 235.33,26.35 L234.96,25.68 C235.5,25.35 236.31,24.99 237.16,24.99 C238.51,24.99 239.2,25.77 239.2,27.06 L239.2,30 L238.39,30 L238.31,29.37 L238.28,29.37 C237.76,29.77 237.08,30.12 236.41,30.12 Z M236.69,29.33 C237.21,29.33 237.71,29.09 238.21,28.68 L238.21,27.52 C236.29,27.67 235.72,28.05 235.72,28.64 C235.72,29.13 236.16,29.33 236.69,29.33 Z M240.88,32 L240.88,25.11 L241.69,25.11 L241.77,25.71 L241.8,25.71 C242.24,25.29 242.85,24.99 243.43,24.99 C244.72,24.99 245.44,25.97 245.44,27.48 C245.44,29.15 244.39,30.12 243.24,30.12 C242.79,30.12 242.26,29.9 241.85,29.52 L241.82,29.52 L241.87,30.4 L241.87,32 L240.88,32 Z M243.05,29.3 C243.83,29.3 244.42,28.65 244.42,27.49 C244.42,26.47 244.04,25.82 243.16,25.82 C242.76,25.82 242.31,26.02 241.87,26.48 L241.87,28.79 C242.28,29.16 242.74,29.3 243.05,29.3 Z M246.88,32 L246.88,25.11 L247.69,25.11 L247.77,25.71 L247.8,25.71 C248.24,25.29 248.85,24.99 249.43,24.99 C250.72,24.99 251.44,25.97 251.44,27.48 C251.44,29.15 250.39,30.12 249.24,30.12 C248.79,30.12 248.26,29.9 247.85,29.52 L247.82,29.52 L247.87,30.4 L247.87,32 L246.88,32 Z M249.05,29.3 C249.83,29.3 250.42,28.65 250.42,27.49 C250.42,26.47 250.04,25.82 249.16,25.82 C248.76,25.82 248.31,26.02 247.87,26.48 L247.87,28.79 C248.28,29.16 248.74,29.3 249.05,29.3 Z M262.22,31.76 L262.77,31.29 C261.47,30.15 260.87,28.87 260.87,27.22 C260.87,25.57 261.47,24.29 262.77,23.15 L262.22,22.68 C260.85,23.77 260.01,25.3 260.01,27.22 C260.01,29.14 260.85,30.67 262.22,31.76 Z M267.02,30.12 C265.57,30.12 264.66,29.39 264.66,28.37 C264.66,27.52 265.31,27.03 265.99,26.71 L265.99,26.67 C265.46,26.33 265.03,25.85 265.03,25.18 C265.03,24.17 265.88,23.51 267.05,23.51 C268.3,23.51 269.06,24.21 269.06,25.22 C269.06,25.82 268.62,26.35 268.1,26.71 L268.1,26.75 C268.79,27.09 269.34,27.51 269.34,28.4 C269.34,29.37 268.5,30.12 267.02,30.12 Z M267.5,26.47 C267.97,26.1 268.21,25.71 268.21,25.28 C268.21,24.68 267.79,24.23 267.03,24.23 C266.38,24.23 265.92,24.59 265.92,25.18 C265.92,25.87 266.6,26.18 267.5,26.47 Z M267.04,29.4 C267.89,29.4 268.4,29 268.4,28.37 C268.4,27.56 267.58,27.35 266.52,26.98 C265.96,27.29 265.55,27.69 265.55,28.27 C265.55,28.94 266.14,29.4 267.04,29.4 Z M273,30.12 C271.57,30.12 270.67,28.92 270.67,26.79 C270.67,24.65 271.57,23.51 273,23.51 C274.43,23.51 275.33,24.65 275.33,26.79 C275.33,28.92 274.43,30.12 273,30.12 Z M273,29.33 C273.82,29.33 274.42,28.58 274.42,26.79 C274.42,25 273.82,24.29 273,24.29 C272.18,24.29 271.58,25 271.58,26.79 C271.58,28.58 272.18,29.33 273,29.33 Z M273,27.43 C272.64,27.43 272.34,27.17 272.34,26.74 C272.34,26.31 272.64,26.05 273,26.05 C273.36,26.05 273.66,26.31 273.66,26.74 C273.66,27.17 273.36,27.43 273,27.43 Z M278.17,30 L279.19,30 C279.3,27.5 279.67,26.13 281.34,24.24 L281.34,23.63 L276.68,23.63 L276.68,24.47 L280.23,24.47 C278.81,26.23 278.28,27.66 278.17,30 Z M285.61,30 L285.61,28.3 L282.38,28.3 L282.38,27.63 L285.43,23.62 L286.54,23.62 L286.54,27.52 L287.49,27.52 L287.49,28.3 L286.54,28.3 L286.54,30 L285.61,30 Z M283.42,27.52 L285.61,27.52 L285.61,25.78 C285.62,25.42 285.64,24.95 285.66,24.58 L285.61,24.58 C285.41,24.91 285.17,25.23 284.95,25.55 L283.42,27.52 Z M289.78,31.76 C291.15,30.67 291.99,29.14 291.99,27.22 C291.99,25.3 291.15,23.77 289.78,22.68 L289.23,23.15 C290.53,24.29 291.13,25.57 291.13,27.22 C291.13,28.87 290.53,30.15 289.23,31.29 L289.78,31.76 Z M3.52,52.62 C4.39,52.62 5.06,52.28 5.58,51.67 L5.02,51.06 C4.63,51.5 4.19,51.75 3.62,51.75 C2.43,51.75 1.65,50.78 1.65,49.21 C1.65,47.66 2.43,46.7 3.6,46.7 C4.14,46.7 4.55,46.92 4.88,47.27 L5.44,46.64 C5.04,46.22 4.4,45.83 3.6,45.83 C1.88,45.83 0.62,47.11 0.62,49.24 C0.62,51.39 1.9,52.62 3.52,52.62 Z M10.04,52.62 C10.59,52.62 10.92,52.52 11.39,52.34 L11.15,51.6 C10.82,51.74 10.54,51.81 10.27,51.81 C9.73,51.81 9.35,51.53 9.35,50.85 L9.35,45.41 L6.76,45.41 L6.76,46.2 L8.36,46.2 L8.36,50.79 C8.36,51.97 8.95,52.62 10.04,52.62 Z M15,52.62 C13.72,52.62 12.56,51.68 12.56,50.06 C12.56,48.43 13.72,47.49 15,47.49 C16.28,47.49 17.44,48.43 17.44,50.06 C17.44,51.68 16.28,52.62 15,52.62 Z M15,51.81 C15.87,51.81 16.42,51.11 16.42,50.06 C16.42,49.01 15.87,48.31 15,48.31 C14.13,48.31 13.58,49.01 13.58,50.06 C13.58,51.11 14.13,51.81 15,51.81 Z M18.88,52.5 L19.87,52.5 L19.87,49.13 C20.37,48.61 20.74,48.35 21.26,48.35 C22,48.35 22.28,48.75 22.28,49.6 L22.28,52.5 L23.27,52.5 L23.27,49.47 C23.27,48.2 22.75,47.49 21.61,47.49 C20.85,47.49 20.3,47.89 19.81,48.4 L19.77,48.4 L19.69,47.61 L18.88,47.61 L18.88,52.5 Z M27.06,52.5 L28.05,52.5 L28.05,47.61 L24.87,47.61 L24.87,48.41 L27.06,48.41 L27.06,52.5 Z M27.47,46.66 C27.89,46.66 28.21,46.38 28.21,45.95 C28.21,45.53 27.89,45.24 27.47,45.24 C27.05,45.24 26.73,45.53 26.73,45.95 C26.73,46.38 27.05,46.66 27.47,46.66 Z M30.88,52.5 L31.87,52.5 L31.87,49.13 C32.37,48.61 32.74,48.35 33.26,48.35 C34,48.35 34.28,48.75 34.28,49.6 L34.28,52.5 L35.27,52.5 L35.27,49.47 C35.27,48.2 34.75,47.49 33.61,47.49 C32.85,47.49 32.3,47.89 31.81,48.4 L31.77,48.4 L31.69,47.61 L30.88,47.61 L30.88,52.5 Z M38.91,54.71 C37.52,54.71 36.67,54.24 36.67,53.38 C36.67,52.98 36.94,52.61 37.46,52.32 L37.46,52.28 C37.2,52.13 36.96,51.88 36.96,51.47 C36.96,51.15 37.18,50.8 37.54,50.55 L37.54,50.51 C37.2,50.26 36.93,49.83 36.93,49.25 C36.93,48.16 37.84,47.49 38.9,47.49 C39.18,47.49 39.42,47.53 39.64,47.61 L41.65,47.61 L41.65,48.39 L40.46,48.39 C40.65,48.6 40.82,48.93 40.82,49.28 C40.82,50.35 39.97,50.95 38.9,50.95 C38.66,50.95 38.37,50.9 38.11,50.79 C37.89,50.93 37.77,51.09 37.77,51.3 C37.77,51.65 38.11,51.81 38.74,51.81 L39.78,51.81 C41.05,51.81 41.68,52.15 41.68,52.98 C41.68,53.93 40.6,54.71 38.91,54.71 Z M38.9,50.31 C39.46,50.31 39.92,49.91 39.92,49.25 C39.92,48.61 39.46,48.19 38.9,48.19 C38.34,48.19 37.87,48.61 37.87,49.25 C37.87,49.91 38.34,50.31 38.9,50.31 Z M39.01,54.02 C40.05,54.02 40.71,53.6 40.71,53.15 C40.71,52.72 40.36,52.61 39.67,52.61 L38.8,52.61 C38.5,52.61 38.26,52.59 38.06,52.53 C37.65,52.76 37.5,53.01 37.5,53.26 C37.5,53.73 38.04,54.02 39.01,54.02 Z M51.92,52.62 C52.55,52.62 53.03,52.49 53.47,52.34 L53.27,51.61 C52.93,51.74 52.58,51.82 52.15,51.82 C51.26,51.82 50.97,51.41 50.97,50.57 L50.97,48.41 L53.28,48.41 L53.28,47.61 L50.97,47.61 L50.97,46.06 L50.15,46.06 L50.02,47.61 L48.64,47.66 L48.64,48.41 L49.98,48.41 L49.98,50.57 C49.98,51.79 50.47,52.62 51.92,52.62 Z M54.88,52.5 L55.87,52.5 L55.87,49.13 C56.37,48.61 56.74,48.35 57.26,48.35 C58,48.35 58.28,48.75 58.28,49.6 L58.28,52.5 L59.27,52.5 L59.27,49.47 C59.27,48.2 58.75,47.49 57.61,47.49 C56.86,47.49 56.3,47.89 55.84,48.39 L55.81,48.39 L55.87,47.29 L55.87,45.41 L54.88,45.41 L54.88,52.5 Z M63.3,52.62 C61.82,52.62 60.65,51.68 60.65,50.05 C60.65,48.46 61.85,47.49 63.15,47.49 C64.59,47.49 65.4,48.44 65.4,49.8 C65.4,50.01 65.38,50.21 65.36,50.34 L61.64,50.34 C61.75,51.35 62.47,51.84 63.43,51.84 C63.97,51.84 64.41,51.68 64.85,51.41 L65.2,52.04 C64.7,52.37 64.05,52.62 63.3,52.62 Z M63.18,48.27 C62.44,48.27 61.81,48.74 61.66,49.61 L64.51,49.61 C64.44,48.72 63.94,48.27 63.18,48.27 Z M74.41,52.62 C73.47,52.62 72.76,52.07 72.76,51.21 C72.76,50.11 73.75,49.58 76.21,49.39 C76.18,48.79 75.86,48.3 74.99,48.3 C74.39,48.3 73.81,48.57 73.33,48.85 L72.96,48.18 C73.5,47.85 74.31,47.49 75.16,47.49 C76.51,47.49 77.2,48.27 77.2,49.56 L77.2,52.5 L76.39,52.5 L76.31,51.87 L76.28,51.87 C75.76,52.27 75.08,52.62 74.41,52.62 Z M74.69,51.83 C75.21,51.83 75.71,51.59 76.21,51.18 L76.21,50.02 C74.29,50.17 73.72,50.55 73.72,51.14 C73.72,51.63 74.16,51.83 74.69,51.83 Z M78.88,54.5 L78.88,47.61 L79.69,47.61 L79.77,48.21 L79.8,48.21 C80.24,47.79 80.85,47.49 81.43,47.49 C82.72,47.49 83.44,48.47 83.44,49.98 C83.44,51.65 82.39,52.62 81.24,52.62 C80.79,52.62 80.26,52.4 79.85,52.02 L79.82,52.02 L79.87,52.9 L79.87,54.5 L78.88,54.5 Z M81.05,51.8 C81.83,51.8 82.42,51.15 82.42,49.99 C82.42,48.97 82.04,48.32 81.16,48.32 C80.76,48.32 80.31,48.52 79.87,48.98 L79.87,51.29 C80.28,51.66 80.74,51.8 81.05,51.8 Z M84.88,54.5 L84.88,47.61 L85.69,47.61 L85.77,48.21 L85.8,48.21 C86.24,47.79 86.85,47.49 87.43,47.49 C88.72,47.49 89.44,48.47 89.44,49.98 C89.44,51.65 88.39,52.62 87.24,52.62 C86.79,52.62 86.26,52.4 85.85,52.02 L85.82,52.02 L85.87,52.9 L85.87,54.5 L84.88,54.5 Z M87.05,51.8 C87.83,51.8 88.42,51.15 88.42,49.99 C88.42,48.97 88.04,48.32 87.16,48.32 C86.76,48.32 86.31,48.52 85.87,48.98 L85.87,51.29 C86.28,51.66 86.74,51.8 87.05,51.8 Z M99,49.16 C99.46,49.16 99.79,48.82 99.79,48.32 C99.79,47.87 99.48,47.55 99.03,47.55 C98.95,47.55 98.87,47.57 98.79,47.6 C98.83,46.92 99.21,46.42 99.84,46.08 L99.54,45.52 C98.58,46 98.03,46.83 98.03,47.85 C98.03,48.67 98.42,49.16 99,49.16 Z M102.78,52.5 L103.74,52.5 L103.74,49.36 C103.74,48.66 103.64,47.91 103.6,47.23 L103.63,47.23 L104.24,48.61 L106.15,52.5 L107.22,52.5 L107.22,45.95 L106.26,45.95 L106.26,49.07 C106.26,49.78 106.36,50.56 106.4,51.22 L106.37,51.22 L105.76,49.84 L103.85,45.95 L102.78,45.95 L102.78,52.5 Z M111.3,52.62 C109.82,52.62 108.65,51.68 108.65,50.05 C108.65,48.46 109.85,47.49 111.15,47.49 C112.59,47.49 113.4,48.44 113.4,49.8 C113.4,50.01 113.38,50.21 113.36,50.34 L109.64,50.34 C109.75,51.35 110.47,51.84 111.43,51.84 C111.97,51.84 112.41,51.68 112.85,51.41 L113.2,52.04 C112.7,52.37 112.05,52.62 111.3,52.62 Z M111.18,48.27 C110.44,48.27 109.81,48.74 109.66,49.61 L112.51,49.61 C112.44,48.72 111.94,48.27 111.18,48.27 Z M115.07,52.5 L116.29,52.5 L116.76,50.36 C116.84,49.95 116.91,49.48 116.98,48.92 L117.02,48.92 C117.09,49.52 117.17,50 117.25,50.36 L117.73,52.5 L118.96,52.5 L119.93,47.61 L119.01,47.61 L118.51,50.3 C118.43,50.77 118.39,51.2 118.31,51.67 L118.27,51.67 C118.21,51.2 118.09,50.77 117.99,50.3 L117.47,48.01 L116.59,48.01 L116.06,50.3 C115.96,50.76 115.86,51.2 115.8,51.67 L115.76,51.67 C115.7,51.2 115.64,50.77 115.55,50.3 L115.05,47.61 L114.07,47.61 L115.07,52.5 Z M123.06,52.62 C124.5,52.62 125.3,51.95 125.3,51.13 C125.3,50.37 124.9,49.96 123.3,49.61 C122.35,49.41 121.96,49.25 121.96,48.87 C121.96,48.53 122.23,48.25 122.97,48.25 C123.57,48.25 124.13,48.44 124.6,48.75 L125.06,48.13 C124.57,47.8 123.83,47.49 123.06,47.49 C121.7,47.49 120.97,48.1 120.97,48.92 C120.97,49.66 121.58,50.1 122.87,50.37 C124.1,50.63 124.3,50.84 124.3,51.19 C124.3,51.56 123.94,51.86 123.19,51.86 C122.34,51.86 121.68,51.62 121.11,51.22 L120.67,51.86 C121.26,52.27 122.13,52.62 123.06,52.62 Z M134.41,52.62 C133.47,52.62 132.76,52.07 132.76,51.21 C132.76,50.11 133.75,49.58 136.21,49.39 C136.18,48.79 135.86,48.3 134.99,48.3 C134.39,48.3 133.81,48.57 133.33,48.85 L132.96,48.18 C133.5,47.85 134.31,47.49 135.16,47.49 C136.51,47.49 137.2,48.27 137.2,49.56 L137.2,52.5 L136.39,52.5 L136.31,51.87 L136.28,51.87 C135.76,52.27 135.08,52.62 134.41,52.62 Z M134.69,51.83 C135.21,51.83 135.71,51.59 136.21,51.18 L136.21,50.02 C134.29,50.17 133.72,50.55 133.72,51.14 C133.72,51.63 134.16,51.83 134.69,51.83 Z M138.88,54.5 L138.88,47.61 L139.69,47.61 L139.77,48.21 L139.8,48.21 C140.24,47.79 140.85,47.49 141.43,47.49 C142.72,47.49 143.44,48.47 143.44,49.98 C143.44,51.65 142.39,52.62 141.24,52.62 C140.79,52.62 140.26,52.4 139.85,52.02 L139.82,52.02 L139.87,52.9 L139.87,54.5 L138.88,54.5 Z M141.05,51.8 C141.83,51.8 142.42,51.15 142.42,49.99 C142.42,48.97 142.04,48.32 141.16,48.32 C140.76,48.32 140.31,48.52 139.87,48.98 L139.87,51.29 C140.28,51.66 140.74,51.8 141.05,51.8 Z M144.88,54.5 L144.88,47.61 L145.69,47.61 L145.77,48.21 L145.8,48.21 C146.24,47.79 146.85,47.49 147.43,47.49 C148.72,47.49 149.44,48.47 149.44,49.98 C149.44,51.65 148.39,52.62 147.24,52.62 C146.79,52.62 146.26,52.4 145.85,52.02 L145.82,52.02 L145.87,52.9 L145.87,54.5 L144.88,54.5 Z M147.05,51.8 C147.83,51.8 148.42,51.15 148.42,49.99 C148.42,48.97 148.04,48.32 147.16,48.32 C146.76,48.32 146.31,48.52 145.87,48.98 L145.87,51.29 C146.28,51.66 146.74,51.8 147.05,51.8 Z M152.44,49.16 C153.4,48.68 153.95,47.85 153.95,46.83 C153.95,46 153.56,45.52 152.98,45.52 C152.52,45.52 152.19,45.86 152.19,46.35 C152.19,46.81 152.5,47.12 152.95,47.12 C153.03,47.12 153.11,47.1 153.19,47.07 C153.15,47.75 152.77,48.26 152.13,48.6 L152.44,49.16 Z M156.99,52.62 C157.42,52.62 157.74,52.28 157.74,51.82 C157.74,51.34 157.42,51.01 156.99,51.01 C156.56,51.01 156.23,51.34 156.23,51.82 C156.23,52.28 156.56,52.62 156.99,52.62 Z M159,52.62 C159.43,52.62 159.75,52.28 159.75,51.82 C159.75,51.34 159.43,51.01 159,51.01 C158.57,51.01 158.25,51.34 158.25,51.82 C158.25,52.28 158.57,52.62 159,52.62 Z M161.01,52.62 C161.44,52.62 161.77,52.28 161.77,51.82 C161.77,51.34 161.44,51.01 161.01,51.01 C160.58,51.01 160.26,51.34 160.26,51.82 C160.26,52.28 160.58,52.62 161.01,52.62 Z M0.95,75 L0.95,68.45 L3.02,68.45 C4.46,68.45 5.47,68.95 5.47,70.42 C5.47,71.84 4.44,72.5 3.02,72.5 L1.95,72.5 L1.95,75 L0.95,75 Z M1.95,71.69 L2.92,71.69 C3.98,71.69 4.48,71.29 4.48,70.42 C4.48,69.55 3.96,69.25 2.92,69.25 L1.95,69.25 L1.95,71.69 Z M8.4,75.12 C9.14,75.12 9.69,74.74 10.17,74.19 L10.21,74.19 L10.29,75 L11.1,75 L11.1,70.11 L10.11,70.11 L10.11,73.46 C9.63,74.04 9.25,74.27 8.74,74.27 C8,74.27 7.72,73.87 7.72,73.01 L7.72,70.11 L6.73,70.11 L6.73,73.14 C6.73,74.42 7.25,75.12 8.4,75.12 Z M16.04,75.12 C16.59,75.12 16.92,75.02 17.39,74.84 L17.15,74.1 C16.82,74.24 16.54,74.31 16.27,74.31 C15.73,74.31 15.35,74.03 15.35,73.35 L15.35,67.91 L12.76,67.91 L12.76,68.7 L14.36,68.7 L14.36,73.29 C14.36,74.47 14.95,75.12 16.04,75.12 Z M22.04,75.12 C22.59,75.12 22.92,75.02 23.39,74.84 L23.15,74.1 C22.82,74.24 22.54,74.31 22.27,74.31 C21.73,74.31 21.35,74.03 21.35,73.35 L21.35,67.91 L18.76,67.91 L18.76,68.7 L20.36,68.7 L20.36,73.29 C20.36,74.47 20.95,75.12 22.04,75.12 Z M27.06,75 L28.05,75 L28.05,70.11 L24.87,70.11 L24.87,70.91 L27.06,70.91 L27.06,75 Z M27.47,69.16 C27.89,69.16 28.21,68.88 28.21,68.45 C28.21,68.03 27.89,67.74 27.47,67.74 C27.05,67.74 26.73,68.03 26.73,68.45 C26.73,68.88 27.05,69.16 27.47,69.16 Z M30.88,75 L31.87,75 L31.87,71.63 C32.37,71.11 32.74,70.85 33.26,70.85 C34,70.85 34.28,71.25 34.28,72.1 L34.28,75 L35.27,75 L35.27,71.97 C35.27,70.7 34.75,69.99 33.61,69.99 C32.85,69.99 32.3,70.39 31.81,70.9 L31.77,70.9 L31.69,70.11 L30.88,70.11 L30.88,75 Z M38.91,77.21 C37.52,77.21 36.67,76.74 36.67,75.88 C36.67,75.48 36.94,75.11 37.46,74.82 L37.46,74.78 C37.2,74.63 36.96,74.38 36.96,73.97 C36.96,73.65 37.18,73.3 37.54,73.05 L37.54,73.01 C37.2,72.76 36.93,72.33 36.93,71.75 C36.93,70.66 37.84,69.99 38.9,69.99 C39.18,69.99 39.42,70.03 39.64,70.11 L41.65,70.11 L41.65,70.89 L40.46,70.89 C40.65,71.1 40.82,71.43 40.82,71.78 C40.82,72.85 39.97,73.45 38.9,73.45 C38.66,73.45 38.37,73.4 38.11,73.29 C37.89,73.43 37.77,73.59 37.77,73.8 C37.77,74.15 38.11,74.31 38.74,74.31 L39.78,74.31 C41.05,74.31 41.68,74.65 41.68,75.48 C41.68,76.43 40.6,77.21 38.91,77.21 Z M38.9,72.81 C39.46,72.81 39.92,72.41 39.92,71.75 C39.92,71.11 39.46,70.69 38.9,70.69 C38.34,70.69 37.87,71.11 37.87,71.75 C37.87,72.41 38.34,72.81 38.9,72.81 Z M39.01,76.52 C40.05,76.52 40.71,76.1 40.71,75.65 C40.71,75.22 40.36,75.11 39.67,75.11 L38.8,75.11 C38.5,75.11 38.26,75.09 38.06,75.03 C37.65,75.26 37.5,75.51 37.5,75.76 C37.5,76.23 38.04,76.52 39.01,76.52 Z M51.3,75.12 C49.82,75.12 48.65,74.18 48.65,72.55 C48.65,70.96 49.85,69.99 51.15,69.99 C52.59,69.99 53.4,70.94 53.4,72.3 C53.4,72.51 53.38,72.71 53.36,72.84 L49.64,72.84 C49.75,73.85 50.47,74.34 51.43,74.34 C51.97,74.34 52.41,74.18 52.85,73.91 L53.2,74.54 C52.7,74.87 52.05,75.12 51.3,75.12 Z M51.18,70.77 C50.44,70.77 49.81,71.24 49.66,72.11 L52.51,72.11 C52.44,71.22 51.94,70.77 51.18,70.77 Z M54.57,75 L55.62,75 L56.34,73.96 C56.53,73.66 56.72,73.37 56.9,73.08 L56.94,73.08 C57.15,73.36 57.37,73.68 57.56,73.96 L58.34,75 L59.42,75 L57.6,72.56 L59.3,70.11 L58.25,70.11 L57.6,71.1 C57.44,71.37 57.25,71.67 57.08,71.94 L57.04,71.94 C56.86,71.67 56.66,71.38 56.49,71.11 L55.78,70.11 L54.7,70.11 L56.39,72.46 L54.57,75 Z M63.92,75.12 C64.55,75.12 65.03,74.99 65.47,74.84 L65.27,74.11 C64.93,74.24 64.58,74.32 64.15,74.32 C63.26,74.32 62.97,73.91 62.97,73.07 L62.97,70.91 L65.28,70.91 L65.28,70.11 L62.97,70.11 L62.97,68.56 L62.15,68.56 L62.02,70.11 L60.64,70.16 L60.64,70.91 L61.98,70.91 L61.98,73.07 C61.98,74.29 62.47,75.12 63.92,75.12 Z M69.3,75.12 C67.82,75.12 66.65,74.18 66.65,72.55 C66.65,70.96 67.85,69.99 69.15,69.99 C70.59,69.99 71.4,70.94 71.4,72.3 C71.4,72.51 71.38,72.71 71.36,72.84 L67.64,72.84 C67.75,73.85 68.47,74.34 69.43,74.34 C69.97,74.34 70.41,74.18 70.85,73.91 L71.2,74.54 C70.7,74.87 70.05,75.12 69.3,75.12 Z M69.18,70.77 C68.44,70.77 67.81,71.24 67.66,72.11 L70.51,72.11 C70.44,71.22 69.94,70.77 69.18,70.77 Z M72.88,75 L73.87,75 L73.87,71.63 C74.37,71.11 74.74,70.85 75.26,70.85 C76,70.85 76.28,71.25 76.28,72.1 L76.28,75 L77.27,75 L77.27,71.97 C77.27,70.7 76.75,69.99 75.61,69.99 C74.85,69.99 74.3,70.39 73.81,70.9 L73.77,70.9 L73.69,70.11 L72.88,70.11 L72.88,75 Z M81.06,75.12 C82.5,75.12 83.3,74.45 83.3,73.63 C83.3,72.87 82.9,72.46 81.3,72.11 C80.35,71.91 79.96,71.75 79.96,71.37 C79.96,71.03 80.23,70.75 80.97,70.75 C81.57,70.75 82.13,70.94 82.6,71.25 L83.06,70.63 C82.57,70.3 81.83,69.99 81.06,69.99 C79.7,69.99 78.97,70.6 78.97,71.42 C78.97,72.16 79.58,72.6 80.87,72.87 C82.1,73.13 82.3,73.34 82.3,73.69 C82.3,74.06 81.94,74.36 81.19,74.36 C80.34,74.36 79.68,74.12 79.11,73.72 L78.67,74.36 C79.26,74.77 80.13,75.12 81.06,75.12 Z M87.06,75 L88.05,75 L88.05,70.11 L84.87,70.11 L84.87,70.91 L87.06,70.91 L87.06,75 Z M87.47,69.16 C87.89,69.16 88.21,68.88 88.21,68.45 C88.21,68.03 87.89,67.74 87.47,67.74 C87.05,67.74 86.73,68.03 86.73,68.45 C86.73,68.88 87.05,69.16 87.47,69.16 Z M93,75.12 C91.72,75.12 90.56,74.18 90.56,72.56 C90.56,70.93 91.72,69.99 93,69.99 C94.28,69.99 95.44,70.93 95.44,72.56 C95.44,74.18 94.28,75.12 93,75.12 Z M93,74.31 C93.87,74.31 94.42,73.61 94.42,72.56 C94.42,71.51 93.87,70.81 93,70.81 C92.13,70.81 91.58,71.51 91.58,72.56 C91.58,73.61 92.13,74.31 93,74.31 Z M96.88,75 L97.87,75 L97.87,71.63 C98.37,71.11 98.74,70.85 99.26,70.85 C100,70.85 100.28,71.25 100.28,72.1 L100.28,75 L101.27,75 L101.27,71.97 C101.27,70.7 100.75,69.99 99.61,69.99 C98.85,69.99 98.3,70.39 97.81,70.9 L97.77,70.9 L97.69,70.11 L96.88,70.11 L96.88,75 Z M105.06,75.12 C106.5,75.12 107.3,74.45 107.3,73.63 C107.3,72.87 106.9,72.46 105.3,72.11 C104.35,71.91 103.96,71.75 103.96,71.37 C103.96,71.03 104.23,70.75 104.97,70.75 C105.57,70.75 106.13,70.94 106.6,71.25 L107.06,70.63 C106.57,70.3 105.83,69.99 105.06,69.99 C103.7,69.99 102.97,70.6 102.97,71.42 C102.97,72.16 103.58,72.6 104.87,72.87 C106.1,73.13 106.3,73.34 106.3,73.69 C106.3,74.06 105.94,74.36 105.19,74.36 C104.34,74.36 103.68,74.12 103.11,73.72 L102.67,74.36 C103.26,74.77 104.13,75.12 105.06,75.12 Z M111,75.12 C111.51,75.12 111.9,74.74 111.9,74.19 C111.9,73.65 111.51,73.26 111,73.26 C110.49,73.26 110.1,73.65 110.1,74.19 C110.1,74.74 110.49,75.12 111,75.12 Z M117,75.12 C117.51,75.12 117.9,74.74 117.9,74.19 C117.9,73.65 117.51,73.26 117,73.26 C116.49,73.26 116.1,73.65 116.1,74.19 C116.1,74.74 116.49,75.12 117,75.12 Z M123,75.12 C123.51,75.12 123.9,74.74 123.9,74.19 C123.9,73.65 123.51,73.26 123,73.26 C122.49,73.26 122.1,73.65 122.1,74.19 C122.1,74.74 122.49,75.12 123,75.12 Z M3.03,97.62 C4.52,97.62 5.41,96.76 5.41,95.71 C5.41,94.75 4.79,94.28 3.97,93.96 L3.08,93.57 C2.5,93.34 1.94,93.13 1.94,92.56 C1.94,92.03 2.4,91.7 3.09,91.7 C3.76,91.7 4.24,91.92 4.67,92.29 L5.19,91.65 C4.68,91.15 3.95,90.83 3.14,90.83 C1.84,90.83 0.93,91.6 0.93,92.62 C0.93,93.58 1.66,94.07 2.33,94.33 L3.25,94.74 C3.91,95.01 4.39,95.19 4.39,95.83 C4.39,96.37 3.92,96.75 3.09,96.75 C2.37,96.75 1.71,96.44 1.21,95.97 L0.63,96.65 C1.25,97.26 2.09,97.62 3.03,97.62 Z M8.4,97.62 C9.14,97.62 9.69,97.24 10.17,96.69 L10.21,96.69 L10.29,97.5 L11.1,97.5 L11.1,92.61 L10.11,92.61 L10.11,95.96 C9.63,96.54 9.25,96.77 8.74,96.77 C8,96.77 7.72,96.37 7.72,95.51 L7.72,92.61 L6.73,92.61 L6.73,95.64 C6.73,96.92 7.25,97.62 8.4,97.62 Z M15.45,97.62 C16.16,97.62 16.86,97.35 17.41,96.87 L16.98,96.23 C16.59,96.55 16.12,96.81 15.53,96.81 C14.49,96.81 13.78,96.11 13.78,95.06 C13.78,94.01 14.51,93.31 15.56,93.31 C16.04,93.31 16.44,93.5 16.83,93.82 L17.31,93.19 C16.91,92.8 16.31,92.49 15.51,92.49 C14.03,92.49 12.76,93.43 12.76,95.06 C12.76,96.68 13.92,97.62 15.45,97.62 Z M21.45,97.62 C22.16,97.62 22.86,97.35 23.41,96.87 L22.98,96.23 C22.59,96.55 22.12,96.81 21.53,96.81 C20.49,96.81 19.78,96.11 19.78,95.06 C19.78,94.01 20.51,93.31 21.56,93.31 C22.04,93.31 22.44,93.5 22.83,93.82 L23.31,93.19 C22.91,92.8 22.31,92.49 21.51,92.49 C20.03,92.49 18.76,93.43 18.76,95.06 C18.76,96.68 19.92,97.62 21.45,97.62 Z M27.3,97.62 C25.82,97.62 24.65,96.68 24.65,95.05 C24.65,93.46 25.85,92.49 27.15,92.49 C28.59,92.49 29.4,93.44 29.4,94.8 C29.4,95.01 29.38,95.21 29.36,95.34 L25.64,95.34 C25.75,96.35 26.47,96.84 27.43,96.84 C27.97,96.84 28.41,96.68 28.85,96.41 L29.2,97.04 C28.7,97.37 28.05,97.62 27.3,97.62 Z M27.18,93.27 C26.44,93.27 25.81,93.74 25.66,94.61 L28.51,94.61 C28.44,93.72 27.94,93.27 27.18,93.27 Z M33.06,97.62 C34.5,97.62 35.3,96.95 35.3,96.13 C35.3,95.37 34.9,94.96 33.3,94.61 C32.35,94.41 31.96,94.25 31.96,93.87 C31.96,93.53 32.23,93.25 32.97,93.25 C33.57,93.25 34.13,93.44 34.6,93.75 L35.06,93.13 C34.57,92.8 33.83,92.49 33.06,92.49 C31.7,92.49 30.97,93.1 30.97,93.92 C30.97,94.66 31.58,95.1 32.87,95.37 C34.1,95.63 34.3,95.84 34.3,96.19 C34.3,96.56 33.94,96.86 33.19,96.86 C32.34,96.86 31.68,96.62 31.11,96.22 L30.67,96.86 C31.26,97.27 32.13,97.62 33.06,97.62 Z M39.06,97.62 C40.5,97.62 41.3,96.95 41.3,96.13 C41.3,95.37 40.9,94.96 39.3,94.61 C38.35,94.41 37.96,94.25 37.96,93.87 C37.96,93.53 38.23,93.25 38.97,93.25 C39.57,93.25 40.13,93.44 40.6,93.75 L41.06,93.13 C40.57,92.8 39.83,92.49 39.06,92.49 C37.7,92.49 36.97,93.1 36.97,93.92 C36.97,94.66 37.58,95.1 38.87,95.37 C40.1,95.63 40.3,95.84 40.3,96.19 C40.3,96.56 39.94,96.86 39.19,96.86 C38.34,96.86 37.68,96.62 37.11,96.22 L36.67,96.86 C37.26,97.27 38.13,97.62 39.06,97.62 Z M44.67,95.12 L45.33,95.12 L45.46,91.84 L45.49,90.8 L44.51,90.8 L44.54,91.84 L44.67,95.12 Z M45,97.62 C45.44,97.62 45.8,97.29 45.8,96.78 C45.8,96.28 45.44,95.95 45,95.95 C44.56,95.95 44.2,96.28 44.2,96.78 C44.2,97.29 44.56,97.62 45,97.62 Z M3.52,120.12 C4.39,120.12 5.06,119.78 5.58,119.17 L5.02,118.56 C4.63,119 4.19,119.25 3.62,119.25 C2.43,119.25 1.65,118.28 1.65,116.71 C1.65,115.16 2.43,114.2 3.6,114.2 C4.14,114.2 4.55,114.42 4.88,114.77 L5.44,114.14 C5.04,113.72 4.4,113.33 3.6,113.33 C1.88,113.33 0.62,114.61 0.62,116.74 C0.62,118.89 1.9,120.12 3.52,120.12 Z M6.88,120 L7.87,120 L7.87,116.63 C8.37,116.11 8.74,115.85 9.26,115.85 C10,115.85 10.28,116.25 10.28,117.1 L10.28,120 L11.27,120 L11.27,116.97 C11.27,115.7 10.75,114.99 9.61,114.99 C8.86,114.99 8.3,115.39 7.84,115.89 L7.81,115.89 L7.87,114.79 L7.87,112.91 L6.88,112.91 L6.88,120 Z M14.41,120.12 C13.47,120.12 12.76,119.57 12.76,118.71 C12.76,117.61 13.75,117.08 16.21,116.89 C16.18,116.29 15.86,115.8 14.99,115.8 C14.39,115.8 13.81,116.07 13.33,116.35 L12.96,115.68 C13.5,115.35 14.31,114.99 15.16,114.99 C16.51,114.99 17.2,115.77 17.2,117.06 L17.2,120 L16.39,120 L16.31,119.37 L16.28,119.37 C15.76,119.77 15.08,120.12 14.41,120.12 Z M14.69,119.33 C15.21,119.33 15.71,119.09 16.21,118.68 L16.21,117.52 C14.29,117.67 13.72,118.05 13.72,118.64 C13.72,119.13 14.16,119.33 14.69,119.33 Z M18.88,120 L19.87,120 L19.87,116.63 C20.37,116.11 20.74,115.85 21.26,115.85 C22,115.85 22.28,116.25 22.28,117.1 L22.28,120 L23.27,120 L23.27,116.97 C23.27,115.7 22.75,114.99 21.61,114.99 C20.85,114.99 20.3,115.39 19.81,115.9 L19.77,115.9 L19.69,115.11 L18.88,115.11 L18.88,120 Z M26.91,122.21 C25.52,122.21 24.67,121.74 24.67,120.88 C24.67,120.48 24.94,120.11 25.46,119.82 L25.46,119.78 C25.2,119.63 24.96,119.38 24.96,118.97 C24.96,118.65 25.18,118.3 25.54,118.05 L25.54,118.01 C25.2,117.76 24.93,117.33 24.93,116.75 C24.93,115.66 25.84,114.99 26.9,114.99 C27.18,114.99 27.42,115.03 27.64,115.11 L29.65,115.11 L29.65,115.89 L28.46,115.89 C28.65,116.1 28.82,116.43 28.82,116.78 C28.82,117.85 27.97,118.45 26.9,118.45 C26.66,118.45 26.37,118.4 26.11,118.29 C25.89,118.43 25.77,118.59 25.77,118.8 C25.77,119.15 26.11,119.31 26.74,119.31 L27.78,119.31 C29.05,119.31 29.68,119.65 29.68,120.48 C29.68,121.43 28.6,122.21 26.91,122.21 Z M26.9,117.81 C27.46,117.81 27.92,117.41 27.92,116.75 C27.92,116.11 27.46,115.69 26.9,115.69 C26.34,115.69 25.87,116.11 25.87,116.75 C25.87,117.41 26.34,117.81 26.9,117.81 Z M27.01,121.52 C28.05,121.52 28.71,121.1 28.71,120.65 C28.71,120.22 28.36,120.11 27.67,120.11 L26.8,120.11 C26.5,120.11 26.26,120.09 26.06,120.03 C25.65,120.26 25.5,120.51 25.5,120.76 C25.5,121.23 26.04,121.52 27.01,121.52 Z M33.3,120.12 C31.82,120.12 30.65,119.18 30.65,117.55 C30.65,115.96 31.85,114.99 33.15,114.99 C34.59,114.99 35.4,115.94 35.4,117.3 C35.4,117.51 35.38,117.71 35.36,117.84 L31.64,117.84 C31.75,118.85 32.47,119.34 33.43,119.34 C33.97,119.34 34.41,119.18 34.85,118.91 L35.2,119.54 C34.7,119.87 34.05,120.12 33.3,120.12 Z M33.18,115.77 C32.44,115.77 31.81,116.24 31.66,117.11 L34.51,117.11 C34.44,116.22 33.94,115.77 33.18,115.77 Z M43.34,122.05 C44.48,122.05 45.08,121.35 45.47,120.31 L47.56,115.11 L46.62,115.11 L45.65,117.66 C45.49,118.11 45.31,118.62 45.15,119.09 L45.11,119.09 C44.91,118.61 44.72,118.1 44.54,117.66 L43.44,115.11 L42.45,115.11 L44.68,119.97 L44.55,120.31 C44.33,120.85 43.94,121.25 43.29,121.25 C43.14,121.25 42.99,121.22 42.87,121.18 L42.67,121.95 C42.85,122.01 43.1,122.05 43.34,122.05 Z M51,120.12 C49.72,120.12 48.56,119.18 48.56,117.56 C48.56,115.93 49.72,114.99 51,114.99 C52.28,114.99 53.44,115.93 53.44,117.56 C53.44,119.18 52.28,120.12 51,120.12 Z M51,119.31 C51.87,119.31 52.42,118.61 52.42,117.56 C52.42,116.51 51.87,115.81 51,115.81 C50.13,115.81 49.58,116.51 49.58,117.56 C49.58,118.61 50.13,119.31 51,119.31 Z M56.4,120.12 C57.14,120.12 57.69,119.74 58.17,119.19 L58.21,119.19 L58.29,120 L59.1,120 L59.1,115.11 L58.11,115.11 L58.11,118.46 C57.63,119.04 57.25,119.27 56.74,119.27 C56,119.27 55.72,118.87 55.72,118.01 L55.72,115.11 L54.73,115.11 L54.73,118.14 C54.73,119.42 55.25,120.12 56.4,120.12 Z M61.38,120 L62.37,120 L62.37,117.22 C62.91,116.24 63.59,115.88 64.29,115.88 C64.66,115.88 64.85,115.93 65.18,116.04 L65.4,115.19 C65.1,115.05 64.82,114.99 64.44,114.99 C63.57,114.99 62.81,115.46 62.31,116.25 L62.28,116.25 L62.2,115.11 L61.38,115.11 L61.38,120 Z M73.07,120 L74.29,120 L74.76,117.86 C74.84,117.45 74.91,116.98 74.98,116.42 L75.02,116.42 C75.09,117.02 75.17,117.5 75.25,117.86 L75.73,120 L76.96,120 L77.93,115.11 L77.01,115.11 L76.51,117.8 C76.43,118.27 76.39,118.7 76.31,119.17 L76.27,119.17 C76.21,118.7 76.09,118.27 75.99,117.8 L75.47,115.51 L74.59,115.51 L74.06,117.8 C73.96,118.26 73.86,118.7 73.8,119.17 L73.76,119.17 C73.7,118.7 73.64,118.27 73.55,117.8 L73.05,115.11 L72.07,115.11 L73.07,120 Z M81,120.12 C79.72,120.12 78.56,119.18 78.56,117.56 C78.56,115.93 79.72,114.99 81,114.99 C82.28,114.99 83.44,115.93 83.44,117.56 C83.44,119.18 82.28,120.12 81,120.12 Z M81,119.31 C81.87,119.31 82.42,118.61 82.42,117.56 C82.42,116.51 81.87,115.81 81,115.81 C80.13,115.81 79.58,116.51 79.58,117.56 C79.58,118.61 80.13,119.31 81,119.31 Z M85.38,120 L86.37,120 L86.37,117.22 C86.91,116.24 87.59,115.88 88.29,115.88 C88.66,115.88 88.85,115.93 89.18,116.04 L89.4,115.19 C89.1,115.05 88.82,114.99 88.44,114.99 C87.57,114.99 86.81,115.46 86.31,116.25 L86.28,116.25 L86.2,115.11 L85.38,115.11 L85.38,120 Z M90.98,120 L91.97,120 L91.97,118.7 L93,117.66 L94.68,120 L95.77,120 L93.61,117.05 L95.53,115.11 L94.42,115.11 L92.01,117.53 L91.97,117.53 L91.97,112.91 L90.98,112.91 L90.98,120 Z M99.06,120 L100.05,120 L100.05,115.11 L96.87,115.11 L96.87,115.91 L99.06,115.91 L99.06,120 Z M99.47,114.16 C99.89,114.16 100.21,113.88 100.21,113.45 C100.21,113.03 99.89,112.74 99.47,112.74 C99.05,112.74 98.73,113.03 98.73,113.45 C98.73,113.88 99.05,114.16 99.47,114.16 Z M102.88,120 L103.87,120 L103.87,116.63 C104.37,116.11 104.74,115.85 105.26,115.85 C106,115.85 106.28,116.25 106.28,117.1 L106.28,120 L107.27,120 L107.27,116.97 C107.27,115.7 106.75,114.99 105.61,114.99 C104.85,114.99 104.3,115.39 103.81,115.9 L103.77,115.9 L103.69,115.11 L102.88,115.11 L102.88,120 Z M110.91,122.21 C109.52,122.21 108.67,121.74 108.67,120.88 C108.67,120.48 108.94,120.11 109.46,119.82 L109.46,119.78 C109.2,119.63 108.96,119.38 108.96,118.97 C108.96,118.65 109.18,118.3 109.54,118.05 L109.54,118.01 C109.2,117.76 108.93,117.33 108.93,116.75 C108.93,115.66 109.84,114.99 110.9,114.99 C111.18,114.99 111.42,115.03 111.64,115.11 L113.65,115.11 L113.65,115.89 L112.46,115.89 C112.65,116.1 112.82,116.43 112.82,116.78 C112.82,117.85 111.97,118.45 110.9,118.45 C110.66,118.45 110.37,118.4 110.11,118.29 C109.89,118.43 109.77,118.59 109.77,118.8 C109.77,119.15 110.11,119.31 110.74,119.31 L111.78,119.31 C113.05,119.31 113.68,119.65 113.68,120.48 C113.68,121.43 112.6,122.21 110.91,122.21 Z M110.9,117.81 C111.46,117.81 111.92,117.41 111.92,116.75 C111.92,116.11 111.46,115.69 110.9,115.69 C110.34,115.69 109.87,116.11 109.87,116.75 C109.87,117.41 110.34,117.81 110.9,117.81 Z M111.01,121.52 C112.05,121.52 112.71,121.1 112.71,120.65 C112.71,120.22 112.36,120.11 111.67,120.11 L110.8,120.11 C110.5,120.11 110.26,120.09 110.06,120.03 C109.65,120.26 109.5,120.51 109.5,120.76 C109.5,121.23 110.04,121.52 111.01,121.52 Z M122.67,120.12 C121.4,120.12 120.56,119.18 120.56,117.56 C120.56,115.97 121.62,114.99 122.75,114.99 C123.32,114.99 123.75,115.21 124.15,115.6 L124.18,115.6 L124.13,114.73 L124.13,112.91 L125.12,112.91 L125.12,120 L124.31,120 L124.23,119.4 L124.2,119.4 C123.81,119.79 123.25,120.12 122.67,120.12 Z M122.9,119.3 C123.34,119.3 123.75,119.08 124.13,118.64 L124.13,116.32 C123.74,115.95 123.36,115.82 122.97,115.82 C122.21,115.82 121.58,116.49 121.58,117.55 C121.58,118.67 122.07,119.3 122.9,119.3 Z M129.06,120 L130.05,120 L130.05,115.11 L126.87,115.11 L126.87,115.91 L129.06,115.91 L129.06,120 Z M129.47,114.16 C129.89,114.16 130.21,113.88 130.21,113.45 C130.21,113.03 129.89,112.74 129.47,112.74 C129.05,112.74 128.73,113.03 128.73,113.45 C128.73,113.88 129.05,114.16 129.47,114.16 Z M133.38,120 L134.37,120 L134.37,117.22 C134.91,116.24 135.59,115.88 136.29,115.88 C136.66,115.88 136.85,115.93 137.18,116.04 L137.4,115.19 C137.1,115.05 136.82,114.99 136.44,114.99 C135.57,114.99 134.81,115.46 134.31,116.25 L134.28,116.25 L134.2,115.11 L133.38,115.11 L133.38,120 Z M141.3,120.12 C139.82,120.12 138.65,119.18 138.65,117.55 C138.65,115.96 139.85,114.99 141.15,114.99 C142.59,114.99 143.4,115.94 143.4,117.3 C143.4,117.51 143.38,117.71 143.36,117.84 L139.64,117.84 C139.75,118.85 140.47,119.34 141.43,119.34 C141.97,119.34 142.41,119.18 142.85,118.91 L143.2,119.54 C142.7,119.87 142.05,120.12 141.3,120.12 Z M141.18,115.77 C140.44,115.77 139.81,116.24 139.66,117.11 L142.51,117.11 C142.44,116.22 141.94,115.77 141.18,115.77 Z M147.45,120.12 C148.16,120.12 148.86,119.85 149.41,119.37 L148.98,118.73 C148.59,119.05 148.12,119.31 147.53,119.31 C146.49,119.31 145.78,118.61 145.78,117.56 C145.78,116.51 146.51,115.81 147.56,115.81 C148.04,115.81 148.44,116 148.83,116.32 L149.31,115.69 C148.91,115.3 148.31,114.99 147.51,114.99 C146.03,114.99 144.76,115.93 144.76,117.56 C144.76,119.18 145.92,120.12 147.45,120.12 Z M153.92,120.12 C154.55,120.12 155.03,119.99 155.47,119.84 L155.27,119.11 C154.93,119.24 154.58,119.32 154.15,119.32 C153.26,119.32 152.97,118.91 152.97,118.07 L152.97,115.91 L155.28,115.91 L155.28,115.11 L152.97,115.11 L152.97,113.56 L152.15,113.56 L152.02,115.11 L150.64,115.16 L150.64,115.91 L151.98,115.91 L151.98,118.07 C151.98,119.29 152.47,120.12 153.92,120.12 Z M159,120.12 C157.72,120.12 156.56,119.18 156.56,117.56 C156.56,115.93 157.72,114.99 159,114.99 C160.28,114.99 161.44,115.93 161.44,117.56 C161.44,119.18 160.28,120.12 159,120.12 Z M159,119.31 C159.87,119.31 160.42,118.61 160.42,117.56 C160.42,116.51 159.87,115.81 159,115.81 C158.13,115.81 157.58,116.51 157.58,117.56 C157.58,118.61 158.13,119.31 159,119.31 Z M163.38,120 L164.37,120 L164.37,117.22 C164.91,116.24 165.59,115.88 166.29,115.88 C166.66,115.88 166.85,115.93 167.18,116.04 L167.4,115.19 C167.1,115.05 166.82,114.99 166.44,114.99 C165.57,114.99 164.81,115.46 164.31,116.25 L164.28,116.25 L164.2,115.11 L163.38,115.11 L163.38,120 Z M169.34,122.05 C170.48,122.05 171.08,121.35 171.47,120.31 L173.56,115.11 L172.62,115.11 L171.65,117.66 C171.49,118.11 171.31,118.62 171.15,119.09 L171.11,119.09 C170.91,118.61 170.72,118.1 170.54,117.66 L169.44,115.11 L168.45,115.11 L170.68,119.97 L170.55,120.31 C170.33,120.85 169.94,121.25 169.29,121.25 C169.14,121.25 168.99,121.22 168.87,121.18 L168.67,121.95 C168.85,122.01 169.1,122.05 169.34,122.05 Z M183.92,120.12 C184.55,120.12 185.03,119.99 185.47,119.84 L185.27,119.11 C184.93,119.24 184.58,119.32 184.15,119.32 C183.26,119.32 182.97,118.91 182.97,118.07 L182.97,115.91 L185.28,115.91 L185.28,115.11 L182.97,115.11 L182.97,113.56 L182.15,113.56 L182.02,115.11 L180.64,115.16 L180.64,115.91 L181.98,115.91 L181.98,118.07 C181.98,119.29 182.47,120.12 183.92,120.12 Z M189,120.12 C187.72,120.12 186.56,119.18 186.56,117.56 C186.56,115.93 187.72,114.99 189,114.99 C190.28,114.99 191.44,115.93 191.44,117.56 C191.44,119.18 190.28,120.12 189,120.12 Z M189,119.31 C189.87,119.31 190.42,118.61 190.42,117.56 C190.42,116.51 189.87,115.81 189,115.81 C188.13,115.81 187.58,116.51 187.58,117.56 C187.58,118.61 188.13,119.31 189,119.31 Z M201,116.66 C201.46,116.66 201.79,116.32 201.79,115.82 C201.79,115.37 201.48,115.05 201.03,115.05 C200.95,115.05 200.87,115.07 200.79,115.1 C200.83,114.42 201.21,113.92 201.84,113.58 L201.54,113.02 C200.58,113.5 200.03,114.33 200.03,115.35 C200.03,116.17 200.42,116.66 201,116.66 Z M204.78,120 L205.74,120 L205.74,116.86 C205.74,116.16 205.64,115.41 205.6,114.73 L205.63,114.73 L206.24,116.11 L208.15,120 L209.22,120 L209.22,113.45 L208.26,113.45 L208.26,116.57 C208.26,117.28 208.36,118.06 208.4,118.72 L208.37,118.72 L207.76,117.34 L205.85,113.45 L204.78,113.45 L204.78,120 Z M213.3,120.12 C211.82,120.12 210.65,119.18 210.65,117.55 C210.65,115.96 211.85,114.99 213.15,114.99 C214.59,114.99 215.4,115.94 215.4,117.3 C215.4,117.51 215.38,117.71 215.36,117.84 L211.64,117.84 C211.75,118.85 212.47,119.34 213.43,119.34 C213.97,119.34 214.41,119.18 214.85,118.91 L215.2,119.54 C214.7,119.87 214.05,120.12 213.3,120.12 Z M213.18,115.77 C212.44,115.77 211.81,116.24 211.66,117.11 L214.51,117.11 C214.44,116.22 213.94,115.77 213.18,115.77 Z M217.07,120 L218.29,120 L218.76,117.86 C218.84,117.45 218.91,116.98 218.98,116.42 L219.02,116.42 C219.09,117.02 219.17,117.5 219.25,117.86 L219.73,120 L220.96,120 L221.93,115.11 L221.01,115.11 L220.51,117.8 C220.43,118.27 220.39,118.7 220.31,119.17 L220.27,119.17 C220.21,118.7 220.09,118.27 219.99,117.8 L219.47,115.51 L218.59,115.51 L218.06,117.8 C217.96,118.26 217.86,118.7 217.8,119.17 L217.76,119.17 C217.7,118.7 217.64,118.27 217.55,117.8 L217.05,115.11 L216.07,115.11 L217.07,120 Z M225.06,120.12 C226.5,120.12 227.3,119.45 227.3,118.63 C227.3,117.87 226.9,117.46 225.3,117.11 C224.35,116.91 223.96,116.75 223.96,116.37 C223.96,116.03 224.23,115.75 224.97,115.75 C225.57,115.75 226.13,115.94 226.6,116.25 L227.06,115.63 C226.57,115.3 225.83,114.99 225.06,114.99 C223.7,114.99 222.97,115.6 222.97,116.42 C222.97,117.16 223.58,117.6 224.87,117.87 C226.1,118.13 226.3,118.34 226.3,118.69 C226.3,119.06 225.94,119.36 225.19,119.36 C224.34,119.36 223.68,119.12 223.11,118.72 L222.67,119.36 C223.26,119.77 224.13,120.12 225.06,120.12 Z M228.6,121.46 L233.4,121.46 L233.4,120.65 L228.6,120.65 L228.6,121.46 Z M236.41,120.12 C235.47,120.12 234.76,119.57 234.76,118.71 C234.76,117.61 235.75,117.08 238.21,116.89 C238.18,116.29 237.86,115.8 236.99,115.8 C236.39,115.8 235.81,116.07 235.33,116.35 L234.96,115.68 C235.5,115.35 236.31,114.99 237.16,114.99 C238.51,114.99 239.2,115.77 239.2,117.06 L239.2,120 L238.39,120 L238.31,119.37 L238.28,119.37 C237.76,119.77 237.08,120.12 236.41,120.12 Z M236.69,119.33 C237.21,119.33 237.71,119.09 238.21,118.68 L238.21,117.52 C236.29,117.67 235.72,118.05 235.72,118.64 C235.72,119.13 236.16,119.33 236.69,119.33 Z M240.88,122 L240.88,115.11 L241.69,115.11 L241.77,115.71 L241.8,115.71 C242.24,115.29 242.85,114.99 243.43,114.99 C244.72,114.99 245.44,115.97 245.44,117.48 C245.44,119.15 244.39,120.12 243.24,120.12 C242.79,120.12 242.26,119.9 241.85,119.52 L241.82,119.52 L241.87,120.4 L241.87,122 L240.88,122 Z M243.05,119.3 C243.83,119.3 244.42,118.65 244.42,117.49 C244.42,116.47 244.04,115.82 243.16,115.82 C242.76,115.82 242.31,116.02 241.87,116.48 L241.87,118.79 C242.28,119.16 242.74,119.3 243.05,119.3 Z M246.88,122 L246.88,115.11 L247.69,115.11 L247.77,115.71 L247.8,115.71 C248.24,115.29 248.85,114.99 249.43,114.99 C250.72,114.99 251.44,115.97 251.44,117.48 C251.44,119.15 250.39,120.12 249.24,120.12 C248.79,120.12 248.26,119.9 247.85,119.52 L247.82,119.52 L247.87,120.4 L247.87,122 L246.88,122 Z M249.05,119.3 C249.83,119.3 250.42,118.65 250.42,117.49 C250.42,116.47 250.04,115.82 249.16,115.82 C248.76,115.82 248.31,116.02 247.87,116.48 L247.87,118.79 C248.28,119.16 248.74,119.3 249.05,119.3 Z M254.44,116.66 C255.4,116.18 255.95,115.35 255.95,114.33 C255.95,113.5 255.56,113.02 254.98,113.02 C254.52,113.02 254.19,113.36 254.19,113.85 C254.19,114.31 254.5,114.62 254.95,114.62 C255.03,114.62 255.11,114.6 255.19,114.57 C255.15,115.25 254.77,115.76 254.13,116.1 L254.44,116.66 Z M261,120.12 C261.51,120.12 261.9,119.74 261.9,119.19 C261.9,118.65 261.51,118.26 261,118.26 C260.49,118.26 260.1,118.65 260.1,119.19 C260.1,119.74 260.49,120.12 261,120.12 Z" id="path-7"></path>
    </defs>
    <g id="----A1.12-SE-Web---Developers" stroke="none" stroke-width="1" fill="none" fill-rule="evenodd">
        <g id="A1.12-SE-Web---Developers-v16.5" transform="translate(-770.000000, -2239.000000)">
            <g id="Group-29" transform="translate(185.000000, 2239.000000)">
                <g id="3rd_step" transform="translate(585.000000, 0.000000)">
                    <g id="Image">
                        <mask id="mask-2" fill="white">
                            <use xlink:href="#path-1"></use>
                        </mask>
                        <use id="Mask" fill="#00AADF" xlink:href="#path-1"></use>
                        <g id="Group-25" mask="url(#mask-2)">
                            <g transform="translate(80.000000, 20.000000)">
                                <g id="image-builder-copy-2" transform="translate(27.000000, 0.000000)">
                                    <mask id="mask-4" fill="white">
                                        <use xlink:href="#path-3"></use>
                                    </mask>
                                    <use id="Mask" fill="#444F6C" xlink:href="#path-3"></use>
                                    <g id="Window-Bar" mask="url(#mask-4)">
                                        <g transform="translate(16.000000, 19.000000)">
                                            <path d="M1.24001742,0 L394.759983,0 L394.759983,-2.22044605e-16 C395.444825,6.23031912e-14 396,0.555174711 396,1.24001742 L396,12 L0,12 L0,1.24001742 L-2.22044605e-16,1.24001742 C-3.05913649e-16,0.555174711 0.555174711,1.01398199e-15 1.24001742,8.8817842e-16 Z" id="Rectangle-39" fill="#F5F5F5"></path>
                                            <ellipse id="Oval-83" fill="#BABABA" cx="5.88732394" cy="5.83783784" rx="1.85915493" ry="1.94594595"></ellipse>
                                            <ellipse id="Oval-83" fill="#BABABA" cx="12.084507" cy="5.83783784" rx="1.85915493" ry="1.94594595"></ellipse>
                                            <ellipse id="Oval-83" fill="#BABABA" cx="18.2816901" cy="5.83783784" rx="1.85915493" ry="1.94594595"></ellipse>
                                        </g>
                                    </g>
                                    <mask id="mask-6" fill="white">
                                        <use xlink:href="#path-5"></use>
                                    </mask>
                                    <use id="Rectangle-3" fill="#313C59" xlink:href="#path-5"></use>
                                    <g id="Group-40" mask="url(#mask-6)">
                                        <g transform="translate(40.000000, 58.000000)">
                                            <mask id="mask-8" fill="white">
                                                <use xlink:href="#path-7"></use>
                                            </mask>
                                            <use id="$-shoutem-clone-Sele" stroke="none" fill="#FFFFFF" fill-rule="evenodd" xlink:href="#path-7"></use>
                                            <rect id="Rectangle-7" stroke="none" fill="#7B8397" fill-rule="evenodd" mask="url(#mask-8)" x="-7" y="18" width="328" height="115"></rect>
                                        </g>
                                    </g>
                                </g>
                                <g id="Group-47" transform="translate(0.000000, 262.000000)">
                                    <rect id="Rectangle-5" fill="#444F6C" x="26.8591516" y="0.789168279" width="429.101111" height="5"></rect>
                                    <path d="M0.134827935,15.1121731 C0.134827935,15.1121731 4.80413906,21.0446594 19.1766658,23.1064149 L466.48233,23.1064149 C466.48233,23.1064149 478.40691,23.5997995 486.141771,15.4524757 L10.9993415,15.4524757 L0.134827935,15.1121731 Z" id="lower-bottom" fill="#444F6C"></path>
                                    <rect id="upper-bottom" fill="#444F6C" x="0" y="5.67688762" width="486.330124" height="10"></rect>
                                </g>
                            </g>
                        </g>
                    </g>
                </g>
            </g>
        </g>
    </g>
</svg>