<?xml version="1.0" encoding="UTF-8"?>
<svg width="510px" height="320px" viewBox="0 0 510 320" version="1.1" xmlns="http://www.w3.org/2000/svg" xmlns:xlink="http://www.w3.org/1999/xlink">
    <!-- Generator: sketchtool 46.2 (44496) - http://www.bohemiancoding.com/sketch -->
    <title>F693C1A4-450E-4DB6-B013-8ACB7382C3F4</title>
    <desc>Created with sketchtool.</desc>
    <defs>
        <rect id="path-1" x="0" y="0" width="510" height="320" rx="3.57894737"></rect>
        <path d="M12.763623,0 L327.236377,0 L327.236377,-1.95399252e-14 C334.285531,-2.08348339e-14 340,5.71446865 340,12.763623 L340,221.236377 L340,221.236377 C340,228.285531 334.285531,234 327.236377,234 L12.763623,234 L12.763623,234 C5.71446865,234 1.32977703e-14,228.285531 1.24344979e-14,221.236377 L0,12.763623 L0,12.763623 C-8.63272427e-16,5.71446865 5.71446865,-4.03416188e-15 12.763623,-5.32907052e-15 Z" id="path-3"></path>
        <polygon id="path-5" points="13.6666667 26 325.666667 26 325.666667 212 13.6666667 212"></polygon>
    </defs>
    <g id="----A1.12-SE-Web---Developers" stroke="none" stroke-width="1" fill="none" fill-rule="evenodd">
        <g id="A1.12-SE-Web---Developers-v16.5" transform="translate(-770.000000, -3039.000000)">
            <g id="Group-7-Copy" transform="translate(185.000000, 3039.000000)">
                <g id="5th_step" transform="translate(585.000000, 0.000000)">
                    <g id="Image">
                        <mask id="mask-2" fill="white">
                            <use xlink:href="#path-1"></use>
                        </mask>
                        <use id="Mask" fill="#00AADF" xlink:href="#path-1"></use>
                        <path d="M31.469,86.6976 C27.674,86.6976 24.588,89.7846 24.588,93.5786 C24.588,97.3736 27.674,100.4606 31.469,100.4606 C35.264,100.4606 38.35,97.3736 38.35,93.5786 C38.35,89.7846 35.264,86.6976 31.469,86.6976 M31.469,105.0476 C25.145,105.0476 20,99.9026 20,93.5786 C20,87.2556 25.145,82.1096 31.469,82.1096 C37.792,82.1096 42.938,87.2556 42.938,93.5786 C42.938,99.9026 37.792,105.0476 31.469,105.0476" id="particle-2-copy-2" fill="#FFFFFE" mask="url(#mask-2)"></path>
                        <g id="Group-3" mask="url(#mask-2)">
                            <g transform="translate(25.000000, -22.000000)">
                                <rect id="Rectangle-18" fill="#D8D8D8" opacity="0" x="0" y="0" width="460" height="354"></rect>
                                <g id="Group-45" stroke-width="1" fill="none" transform="translate(60.333333, 58.567308)">
                                    <g id="Group-31" transform="translate(0.000000, -0.000000)">
                                        <mask id="mask-4" fill="white">
                                            <use xlink:href="#path-3"></use>
                                        </mask>
                                        <use id="Mask" fill="#444F6C" xlink:href="#path-3"></use>
                                        <g id="Window-Bar" mask="url(#mask-4)">
                                            <g transform="translate(13.418154, 17.210437)">
                                                <path d="M1.23186675,0.222254846 L311.265159,0.222254846 L311.265159,0.222254846 C311.808251,0.222254846 312.248513,0.662517267 312.248513,1.20560849 L312.248513,9.22225485 L0.248513112,9.22225485 L0.248513112,1.20560849 L0.248513112,1.20560849 C0.248513112,0.662517267 0.688775534,0.222254846 1.23186675,0.222254846 Z" id="Rectangle-39" fill="#DBDBDB"></path>
                                                <g id="Group-48" stroke-width="1" fill="none" transform="translate(3.248513, 3.222255)">
                                                    <ellipse id="Oval-83" fill="#BABABA" cx="2.0517174" cy="1.50389306" rx="1.47053902" ry="1.45263488"></ellipse>
                                                    <ellipse id="Oval-83" fill="#BABABA" cx="6.95351413" cy="1.50389306" rx="1.47053902" ry="1.45263488"></ellipse>
                                                    <ellipse id="Oval-83" fill="#BABABA" cx="11.8553109" cy="1.50389306" rx="1.47053902" ry="1.45263488"></ellipse>
                                                </g>
                                            </g>
                                        </g>
                                        <mask id="mask-6" fill="white">
                                            <use xlink:href="#path-5"></use>
                                        </mask>
                                        <g id="Mask">
                                            <use fill="#888FA1" xlink:href="#path-5"></use>
                                            <use fill="#FFFFFF" xlink:href="#path-5"></use>
                                        </g>
                                        <g id="Group-51" mask="url(#mask-6)">
                                            <g transform="translate(20.000000, 79.000000)">
                                                <path d="M96.951,8.016 C96.951,10.886 99.023,13.168 101.935,13.168 C104.357,13.168 105.701,11.642 105.701,11.642 L105.141,10.956 C105.141,10.956 103.937,12.272 101.949,12.272 C99.611,12.272 97.959,10.354 97.959,8.002 C97.959,5.678 99.611,3.886 101.921,3.886 C103.769,3.886 104.917,4.978 104.917,4.978 L105.435,4.264 C105.435,4.264 104.245,2.99 101.893,2.99 C99.079,2.99 96.951,5.16 96.951,8.016 Z M107.003,9.444 C107.003,7.358 108.669,5.79 110.727,5.79 C112.785,5.79 114.451,7.358 114.451,9.444 C114.451,11.572 112.785,13.168 110.727,13.168 C108.669,13.168 107.003,11.572 107.003,9.444 Z M107.983,9.444 C107.983,11.082 109.215,12.314 110.727,12.314 C112.239,12.314 113.471,11.082 113.471,9.444 C113.471,7.848 112.239,6.658 110.727,6.658 C109.215,6.658 107.983,7.848 107.983,9.444 Z M117.352706,7.20387902 L117.167,6.76167662 L117.167,7.008 C117.167,7.316 117.139,7.568 117.139,7.568 L117.167,7.568 C117.209969,7.45818928 117.271663,7.33413188 117.352706,7.20387902 Z M117.167,6.76167662 L117.352706,7.20387902 C117.746948,6.57024619 118.599076,5.79 119.981,5.79 C121.717,5.79 122.333,6.784 122.333,8.52 L122.333,13 L121.381,13 L121.381,8.772 C121.381,7.666 121.213,6.686 119.855,6.686 C118.651,6.686 117.615,7.512 117.293,8.674 C117.209,8.968 117.181,9.29 117.181,9.626 L117.181,13 L116.229,13 L116.229,5.958 L117.167,5.958 L117.167,6.76167662 Z M129.185736,12.10272 L129.431,12.2801887 L129.431,12.23 C129.431,11.964 129.459,11.726 129.459,11.726 L129.431,11.726 C129.358219,11.8618571 129.27661,11.9876247 129.185736,12.10272 Z M129.431,12.2801887 L129.185736,12.10272 C128.752195,12.6518126 128.10777,12.958 127.205,12.958 C125.315,12.958 124.069,11.46 124.069,9.346 C124.069,7.232 125.231,5.79 127.121,5.79 C128.983,5.79 129.445,6.966 129.445,6.966 L129.473,6.966 C129.473,6.966 129.459,6.882 129.459,6.728 L129.459,5.958 L130.383,5.958 L130.383,12.832 C130.383,15.072 128.731,15.94 127.009,15.94 C126.197,15.94 125.385,15.73 124.699,15.38 L125.063,14.596 C125.063,14.596 125.931,15.086 126.967,15.086 C128.339,15.086 129.431,14.442 129.431,12.874 L129.431,12.2801887 Z M127.359,12.104 C128.465,12.104 129.445,11.418 129.445,9.346 C129.445,7.288 128.465,6.658 127.219,6.658 C125.847,6.658 125.049,7.652 125.049,9.332 C125.049,11.012 125.959,12.104 127.359,12.104 Z M133.79432,7.31183599 L133.617,7.01794969 L133.617,7.204 C133.617,7.512 133.589,7.764 133.589,7.764 L133.617,7.764 C133.666513,7.60720919 133.725754,7.45589054 133.79432,7.31183599 Z M133.617,7.01794969 L133.79432,7.31183599 C134.191052,6.47832022 134.89998,5.888 135.843,5.888 C136.039,5.888 136.221,5.93 136.221,5.93 L136.221,6.868 C136.221,6.868 136.053,6.84 135.871,6.84 C134.877,6.84 134.135,7.624 133.827,8.66 C133.687,9.108 133.631,9.584 133.631,10.032 L133.631,13 L132.679,13 L132.679,5.958 L133.617,5.958 L133.617,7.01794969 Z M137.089,11.082 C137.089,8.702 140.183,8.646 141.401,8.646 L141.793,8.646 L141.793,8.464 C141.793,7.106 141.051,6.644 140.043,6.644 C138.881,6.644 138.055,7.316 138.055,7.316 L137.607,6.588 C137.607,6.588 138.531,5.79 140.113,5.79 C141.807,5.79 142.745,6.728 142.745,8.492 L142.745,13 L141.835,13 L141.835,12.23 C141.835,11.88 141.863,11.642 141.863,11.642 L141.835,11.642 C141.835,11.642 141.247,13.168 139.483,13.168 C138.307,13.168 137.089,12.482 137.089,11.082 Z M138.069,11.026 C138.069,11.684 138.587,12.356 139.637,12.356 C140.981,12.356 141.793,10.956 141.793,9.738 L141.793,9.43 L141.387,9.43 C140.281,9.43 138.069,9.472 138.069,11.026 Z M145.167,10.438 C145.167,12.79 146.805,13.056 147.617,13.056 C147.869,13.056 148.023,13.028 148.023,13.028 L148.023,12.174 C148.023,12.174 147.897,12.202 147.701,12.202 C147.169,12.202 146.119,11.992 146.119,10.34 L146.119,6.84 L147.883,6.84 L147.883,6.042 L146.119,6.042 L146.119,4.012 L145.181,4.012 L145.181,6.042 L144.243,6.042 L144.243,6.84 L145.167,6.84 L145.167,10.438 Z M154.403665,11.7689035 L154.603,12.1709086 L154.603,11.95 C154.603,11.642 154.631,11.39 154.631,11.39 L154.603,11.39 C154.555256,11.5069723 154.488788,11.635749 154.403665,11.7689035 Z M154.603,12.1709086 L154.403665,11.7689035 C153.989574,12.4166518 153.134022,13.168 151.845,13.168 C150.193,13.168 149.493,12.272 149.493,10.438 L149.493,5.958 L150.445,5.958 L150.445,10.186 C150.445,11.292 150.613,12.272 151.971,12.272 C153.581,12.272 154.575,10.858 154.575,9.332 L154.575,5.958 L155.527,5.958 L155.527,13 L154.603,13 L154.603,12.1709086 Z M157.753,11.334 C157.753,12.874 158.789,13.056 159.377,13.056 C159.559,13.056 159.727,13.028 159.727,13.028 L159.727,12.174 C159.727,12.174 159.615,12.188 159.489,12.188 C159.125,12.188 158.705,12.048 158.705,11.124 L158.705,3.158 L157.753,3.158 L157.753,11.334 Z M160.707,11.082 C160.707,8.702 163.801,8.646 165.019,8.646 L165.411,8.646 L165.411,8.464 C165.411,7.106 164.669,6.644 163.661,6.644 C162.499,6.644 161.673,7.316 161.673,7.316 L161.225,6.588 C161.225,6.588 162.149,5.79 163.731,5.79 C165.425,5.79 166.363,6.728 166.363,8.492 L166.363,13 L165.453,13 L165.453,12.23 C165.453,11.88 165.481,11.642 165.481,11.642 L165.453,11.642 C165.453,11.642 164.865,13.168 163.101,13.168 C161.925,13.168 160.707,12.482 160.707,11.082 Z M161.687,11.026 C161.687,11.684 162.205,12.356 163.255,12.356 C164.599,12.356 165.411,10.956 165.411,9.738 L165.411,9.43 L165.005,9.43 C163.899,9.43 161.687,9.472 161.687,11.026 Z M168.785,10.438 C168.785,12.79 170.423,13.056 171.235,13.056 C171.487,13.056 171.641,13.028 171.641,13.028 L171.641,12.174 C171.641,12.174 171.515,12.202 171.319,12.202 C170.787,12.202 169.737,11.992 169.737,10.34 L169.737,6.84 L171.501,6.84 L171.501,6.042 L169.737,6.042 L169.737,4.012 L168.799,4.012 L168.799,6.042 L167.861,6.042 L167.861,6.84 L168.785,6.84 L168.785,10.438 Z M173.181,4.348 L174.175,4.348 L174.175,3.158 L173.181,3.158 L173.181,4.348 Z M173.209,13 L174.161,13 L174.161,5.958 L173.209,5.958 L173.209,13 Z M175.939,9.444 C175.939,7.358 177.605,5.79 179.663,5.79 C181.721,5.79 183.387,7.358 183.387,9.444 C183.387,11.572 181.721,13.168 179.663,13.168 C177.605,13.168 175.939,11.572 175.939,9.444 Z M176.919,9.444 C176.919,11.082 178.151,12.314 179.663,12.314 C181.175,12.314 182.407,11.082 182.407,9.444 C182.407,7.848 181.175,6.658 179.663,6.658 C178.151,6.658 176.919,7.848 176.919,9.444 Z M186.288706,7.20387902 L186.103,6.76167662 L186.103,7.008 C186.103,7.316 186.075,7.568 186.075,7.568 L186.103,7.568 C186.145969,7.45818928 186.207663,7.33413188 186.288706,7.20387902 Z M186.103,6.76167662 L186.288706,7.20387902 C186.682948,6.57024619 187.535076,5.79 188.917,5.79 C190.653,5.79 191.269,6.784 191.269,8.52 L191.269,13 L190.317,13 L190.317,8.772 C190.317,7.666 190.149,6.686 188.791,6.686 C187.587,6.686 186.551,7.512 186.229,8.674 C186.145,8.968 186.117,9.29 186.117,9.626 L186.117,13 L185.165,13 L185.165,5.958 L186.103,5.958 L186.103,6.76167662 Z M192.893,12.146 C192.893,12.146 193.789,13.168 195.497,13.168 C196.911,13.168 197.905,12.342 197.905,11.194 C197.905,8.87 194.111,9.29 194.111,7.736 C194.111,6.952 194.797,6.644 195.511,6.644 C196.673,6.644 197.275,7.288 197.275,7.288 L197.709,6.56 C197.709,6.56 197.023,5.79 195.539,5.79 C194.265,5.79 193.131,6.476 193.131,7.736 C193.131,10.032 196.925,9.654 196.925,11.194 C196.925,11.936 196.267,12.314 195.511,12.314 C194.195,12.314 193.411,11.46 193.411,11.46 L192.893,12.146 Z M200.215,10.424 L201.111,10.424 L201.153,3.158 L200.173,3.158 L200.215,10.424 Z M200.145,13 L201.223,13 L201.223,11.922 L200.145,11.922 L200.145,13 Z" id="Congratulations!" fill="#444F6C"></path>
                                                <path d="M106.9785,37 L106.9785,34.907 L105.3195,32.058 L106.1035,32.058 L107.0205,33.682 C107.1745,33.955 107.3215,34.305 107.3215,34.305 L107.3355,34.305 C107.3355,34.305 107.4825,33.962 107.6365,33.682 L108.5395,32.058 L109.3235,32.058 L107.6715,34.907 L107.6715,37 L106.9785,37 Z M109.2605,35.222 C109.2605,34.151 110.1145,33.374 111.1715,33.374 C112.2285,33.374 113.0825,34.151 113.0825,35.222 C113.0825,36.3 112.2285,37.084 111.1715,37.084 C110.1145,37.084 109.2605,36.3 109.2605,35.222 Z M109.9535,35.222 C109.9535,35.964 110.5065,36.496 111.1715,36.496 C111.8435,36.496 112.3895,35.964 112.3895,35.222 C112.3895,34.487 111.8435,33.962 111.1715,33.962 C110.5065,33.962 109.9535,34.487 109.9535,35.222 Z M116.247941,36.4598802 L116.3515,36.6175968 L116.3515,36.531 C116.3515,36.384 116.3655,36.272 116.3655,36.272 L116.3515,36.272 C116.326182,36.3322819 116.291519,36.3958862 116.247941,36.4598802 Z M116.3515,36.6175968 L116.247941,36.4598802 C116.038503,36.7674391 115.623142,37.084 115.0495,37.084 C114.2515,37.084 113.8385,36.664 113.8385,35.726 L113.8385,33.458 L114.5175,33.458 L114.5175,35.572 C114.5175,36.062 114.6155,36.454 115.1825,36.454 C115.9035,36.454 116.3305,35.817 116.3305,35.117 L116.3305,33.458 L117.0095,33.458 L117.0095,37 L116.3515,37 L116.3515,36.6175968 Z M118.816636,34.1235236 L118.7315,33.981775 L118.7315,34.074 C118.7315,34.221 118.7175,34.34 118.7175,34.34 L118.7315,34.34 C118.754745,34.2652116 118.783243,34.1927578 118.816636,34.1235236 Z M118.7315,33.981775 L118.816636,34.1235236 C119.01453,33.7132273 119.384331,33.416 119.8515,33.416 C119.9425,33.416 120.0265,33.43 120.0265,33.43 L120.0265,34.102 C120.0265,34.102 119.9355,34.081 119.8305,34.081 C119.3965,34.081 118.9975,34.389 118.8365,34.914 C118.7735,35.117 118.7525,35.334 118.7525,35.551 L118.7525,37 L118.0735,37 L118.0735,33.458 L118.7315,33.458 L118.7315,33.981775 Z M122.2105,36.006 C122.2105,34.837 123.7505,34.788 124.3455,34.788 L124.4995,34.788 L124.4995,34.725 C124.4995,34.144 124.1705,33.948 123.7225,33.948 C123.1765,33.948 122.7355,34.291 122.7355,34.291 L122.4555,33.794 C122.4555,33.794 122.9665,33.374 123.7785,33.374 C124.6745,33.374 125.1785,33.864 125.1785,34.76 L125.1785,37 L124.5485,37 L124.5485,36.664 C124.5485,36.503 124.5625,36.384 124.5625,36.384 L124.5485,36.384 C124.5485,36.384 124.2615,37.084 123.4145,37.084 C122.8055,37.084 122.2105,36.713 122.2105,36.006 Z M122.8965,35.971 C122.8965,36.258 123.1205,36.538 123.5615,36.538 C124.1355,36.538 124.5065,35.936 124.5065,35.411 L124.5065,35.299 L124.3315,35.299 C123.8205,35.299 122.8965,35.334 122.8965,35.971 Z M126.1935,38.4 L126.1935,33.458 L126.8165,33.458 L126.8165,33.759 C126.8165,33.899 126.8025,34.018 126.8025,34.018 L126.8165,34.018 C126.8165,34.018 127.1175,33.374 128.0065,33.374 C128.9585,33.374 129.5605,34.13 129.5605,35.229 C129.5605,36.356 128.8815,37.084 127.9575,37.084 C127.1805,37.084 126.8725,36.503 126.8725,36.503 L126.8585,36.503 C126.8585,36.503 126.8725,36.629 126.8725,36.811 L126.8725,38.4 L126.1935,38.4 Z M126.8515,35.243 C126.8515,35.873 127.2015,36.503 127.8525,36.503 C128.4125,36.503 128.8745,36.041 128.8745,35.236 C128.8745,34.466 128.4615,33.969 127.8735,33.969 C127.3415,33.969 126.8515,34.34 126.8515,35.243 Z M130.3935,38.4 L130.3935,33.458 L131.0165,33.458 L131.0165,33.759 C131.0165,33.899 131.0025,34.018 131.0025,34.018 L131.0165,34.018 C131.0165,34.018 131.3175,33.374 132.2065,33.374 C133.1585,33.374 133.7605,34.13 133.7605,35.229 C133.7605,36.356 133.0815,37.084 132.1575,37.084 C131.3805,37.084 131.0725,36.503 131.0725,36.503 L131.0585,36.503 C131.0585,36.503 131.0725,36.629 131.0725,36.811 L131.0725,38.4 L130.3935,38.4 Z M131.0515,35.243 C131.0515,35.873 131.4015,36.503 132.0525,36.503 C132.6125,36.503 133.0745,36.041 133.0745,35.236 C133.0745,34.466 132.6615,33.969 132.0735,33.969 C131.5415,33.969 131.0515,34.34 131.0515,35.243 Z M136.3855,32.751 L137.0715,32.751 L137.0715,32.058 L136.3855,32.058 L136.3855,32.751 Z M136.3925,37 L137.0715,37 L137.0715,33.458 L136.3925,33.458 L136.3925,37 Z M137.8485,36.566 C137.8485,36.566 138.3245,37.084 139.1925,37.084 C139.9695,37.084 140.4735,36.643 140.4735,36.055 C140.4735,34.893 138.6535,35.033 138.6535,34.396 C138.6535,34.088 138.9405,33.962 139.2345,33.962 C139.7945,33.962 140.1095,34.277 140.1095,34.277 L140.3825,33.766 C140.3825,33.766 140.0185,33.374 139.2415,33.374 C138.5345,33.374 137.9605,33.738 137.9605,34.382 C137.9605,35.537 139.7805,35.404 139.7805,36.055 C139.7805,36.342 139.4865,36.496 139.1925,36.496 C138.5765,36.496 138.1775,36.083 138.1775,36.083 L137.8485,36.566 Z M143.0705,37 L143.0705,32.058 L143.7495,32.058 L143.7495,33.675 C143.7495,33.85 143.7355,33.976 143.7355,33.976 L143.7495,33.976 C143.7495,33.976 144.0505,33.374 144.8835,33.374 C145.8355,33.374 146.4375,34.13 146.4375,35.229 C146.4375,36.356 145.7585,37.084 144.8275,37.084 C144.0365,37.084 143.7145,36.475 143.7145,36.475 L143.7005,36.475 C143.7005,36.475 143.7145,36.587 143.7145,36.741 L143.7145,37 L143.0705,37 Z M143.7285,35.243 C143.7285,35.873 144.0575,36.503 144.7295,36.503 C145.2895,36.503 145.7515,36.041 145.7515,35.236 C145.7515,34.466 145.3385,33.969 144.7505,33.969 C144.2185,33.969 143.7285,34.34 143.7285,35.243 Z M147.0255,35.229 C147.0255,34.102 147.7885,33.374 148.7965,33.374 C149.7975,33.374 150.3295,34.116 150.3295,35.033 C150.3295,35.124 150.3085,35.327 150.3085,35.327 L147.7255,35.327 C147.7605,36.104 148.3135,36.496 148.9435,36.496 C149.5525,36.496 149.9935,36.083 149.9935,36.083 L150.2735,36.58 C150.2735,36.58 149.7485,37.084 148.9015,37.084 C147.7885,37.084 147.0255,36.279 147.0255,35.229 Z M147.7465,34.816 L149.6365,34.816 C149.6155,34.207 149.2375,33.913 148.7825,33.913 C148.2645,33.913 147.8445,34.235 147.7465,34.816 Z M151.1485,32.751 L151.8345,32.751 L151.8345,32.058 L151.1485,32.058 L151.1485,32.751 Z M151.1555,37 L151.8345,37 L151.8345,33.458 L151.1555,33.458 L151.1555,37 Z M153.654114,34.0129896 L153.5565,33.8214474 L153.5565,33.927 C153.5565,34.067 153.5425,34.186 153.5425,34.186 L153.5565,34.186 C153.580613,34.1329519 153.613032,34.0740896 153.654114,34.0129896 Z M153.5565,33.8214474 L153.654114,34.0129896 C153.851559,33.7193391 154.24912,33.374 154.8865,33.374 C155.7195,33.374 156.1045,33.829 156.1045,34.732 L156.1045,37 L155.4255,37 L155.4255,34.886 C155.4255,34.389 155.3205,33.997 154.7535,33.997 C154.2145,33.997 153.7805,34.354 153.6335,34.865 C153.5915,35.005 153.5775,35.166 153.5775,35.341 L153.5775,37 L152.8985,37 L152.8985,33.458 L153.5565,33.458 L153.5565,33.8214474 Z M157.4345,37.644 C157.4345,37.644 157.8755,37.882 158.4075,37.882 C159.0235,37.882 159.5275,37.609 159.5275,36.888 L159.5275,36.629 C159.5275,36.517 159.5345,36.405 159.5345,36.405 L159.5205,36.405 C159.3105,36.755 158.9815,36.958 158.4705,36.958 C157.4835,36.958 156.8885,36.167 156.8885,35.145 C156.8885,34.13 157.4555,33.374 158.4355,33.374 C159.2895,33.374 159.5485,33.899 159.5485,33.899 L159.5625,33.899 C159.5625,33.899 159.5555,33.85 159.5555,33.787 L159.5555,33.458 L160.2065,33.458 L160.2065,36.853 C160.2065,38.022 159.3175,38.47 158.4215,38.47 C157.9945,38.47 157.5535,38.351 157.2105,38.176 L157.4345,37.644 Z M158.6035,36.37 C159.0935,36.37 159.5415,36.076 159.5415,35.152 C159.5415,34.228 159.0935,33.962 158.5405,33.962 C157.9245,33.962 157.5745,34.41 157.5745,35.131 C157.5745,35.866 157.9665,36.37 158.6035,36.37 Z M163.812636,34.1235236 L163.7275,33.981775 L163.7275,34.074 C163.7275,34.221 163.7135,34.34 163.7135,34.34 L163.7275,34.34 C163.750745,34.2652116 163.779243,34.1927578 163.812636,34.1235236 Z M163.7275,33.981775 L163.812636,34.1235236 C164.01053,33.7132273 164.380331,33.416 164.8475,33.416 C164.9385,33.416 165.0225,33.43 165.0225,33.43 L165.0225,34.102 C165.0225,34.102 164.9315,34.081 164.8265,34.081 C164.3925,34.081 163.9935,34.389 163.8325,34.914 C163.7695,35.117 163.7485,35.334 163.7485,35.551 L163.7485,37 L163.0695,37 L163.0695,33.458 L163.7275,33.458 L163.7275,33.981775 Z M165.4285,35.229 C165.4285,34.102 166.1915,33.374 167.1995,33.374 C168.2005,33.374 168.7325,34.116 168.7325,35.033 C168.7325,35.124 168.7115,35.327 168.7115,35.327 L166.1285,35.327 C166.1635,36.104 166.7165,36.496 167.3465,36.496 C167.9555,36.496 168.3965,36.083 168.3965,36.083 L168.6765,36.58 C168.6765,36.58 168.1515,37.084 167.3045,37.084 C166.1915,37.084 165.4285,36.279 165.4285,35.229 Z M166.1495,34.816 L168.0395,34.816 C168.0185,34.207 167.6405,33.913 167.1855,33.913 C166.6675,33.913 166.2475,34.235 166.1495,34.816 Z M170.3985,37 L171.1825,37 L172.4915,33.458 L171.7775,33.458 L170.9165,35.852 C170.8465,36.048 170.7975,36.335 170.7905,36.335 L170.7765,36.335 C170.7695,36.335 170.7275,36.048 170.6575,35.852 L169.7965,33.458 L169.0755,33.458 L170.3985,37 Z M173.0655,32.751 L173.7515,32.751 L173.7515,32.058 L173.0655,32.058 L173.0655,32.751 Z M173.0725,37 L173.7515,37 L173.7515,33.458 L173.0725,33.458 L173.0725,37 Z M174.5705,35.229 C174.5705,34.102 175.3335,33.374 176.3415,33.374 C177.3425,33.374 177.8745,34.116 177.8745,35.033 C177.8745,35.124 177.8535,35.327 177.8535,35.327 L175.2705,35.327 C175.3055,36.104 175.8585,36.496 176.4885,36.496 C177.0975,36.496 177.5385,36.083 177.5385,36.083 L177.8185,36.58 C177.8185,36.58 177.2935,37.084 176.4465,37.084 C175.3335,37.084 174.5705,36.279 174.5705,35.229 Z M175.2915,34.816 L177.1815,34.816 C177.1605,34.207 176.7825,33.913 176.3275,33.913 C175.8095,33.913 175.3895,34.235 175.2915,34.816 Z M179.4285,37 L180.1845,37 L180.9125,34.725 C180.9685,34.543 181.0105,34.34 181.0105,34.34 L181.0245,34.34 C181.0245,34.34 181.0665,34.543 181.1225,34.725 L181.8575,37 L182.6065,37 L183.7475,33.458 L183.0335,33.458 L182.2915,35.943 C182.2355,36.125 182.2075,36.321 182.2075,36.321 L182.1935,36.321 C182.1935,36.321 182.1515,36.125 182.0955,35.943 L181.3325,33.465 L180.7095,33.465 L179.9395,35.943 C179.8835,36.125 179.8485,36.321 179.8485,36.321 L179.8345,36.321 C179.8275,36.321 179.7995,36.125 179.7435,35.943 L179.0085,33.458 L178.2875,33.458 L179.4285,37 Z M187.1215,36.083 C187.1215,36.083 187.1215,36.083 187.1215,36.083 L187.1215,36.083 Z M187.1215,36.083 L187.4015,36.58 C187.4015,36.58 186.8765,37.084 186.0295,37.084 C184.9165,37.084 184.1535,36.279 184.1535,35.229 C184.1535,34.102 184.9165,33.374 185.9245,33.374 C186.9255,33.374 187.4575,34.116 187.4575,35.033 C187.4575,35.124 187.4365,35.327 187.4365,35.327 L184.8535,35.327 C184.8885,36.104 185.4415,36.496 186.0715,36.496 C186.680426,36.496 187.121392,36.0831008 187.1215,36.083 L187.1215,36.083 Z M184.8745,34.816 L186.7645,34.816 C186.7435,34.207 186.3655,33.913 185.9105,33.913 C185.3925,33.913 184.9725,34.235 184.8745,34.816 Z M188.0525,35.229 C188.0525,34.102 188.7175,33.374 189.6555,33.374 C190.4745,33.374 190.7475,33.934 190.7475,33.934 L190.7615,33.934 C190.7615,33.934 190.7475,33.829 190.7475,33.696 L190.7475,32.058 L191.4265,32.058 L191.4265,37 L190.7825,37 L190.7825,36.664 C190.7825,36.524 190.7895,36.426 190.7895,36.426 L190.7755,36.426 C190.7755,36.426 190.4885,37.084 189.6135,37.084 C188.6545,37.084 188.0525,36.328 188.0525,35.229 Z M188.7455,35.229 C188.7455,35.999 189.1585,36.496 189.7465,36.496 C190.2715,36.496 190.7685,36.125 190.7685,35.222 C190.7685,34.592 190.4395,33.962 189.7675,33.962 C189.2075,33.962 188.7455,34.424 188.7455,35.229 Z M192.4905,37 L193.2045,37 L193.2045,36.279 L192.4905,36.279 L192.4905,37 Z M85.2505,44.058 L84.2845,47.684 C84.2145,47.957 84.1795,48.209 84.1795,48.209 L84.1655,48.209 C84.1655,48.209 84.1375,47.95 84.0745,47.684 L83.1995,44.058 L82.4855,44.058 L83.7455,49 L84.5505,49 L85.4045,45.794 C85.4885,45.479 85.5515,45.094 85.5515,45.094 L85.5655,45.094 C85.5655,45.094 85.6285,45.479 85.7125,45.794 L86.5665,49 L87.3715,49 L88.6665,44.058 L87.9525,44.058 L87.0425,47.684 C86.9725,47.95 86.9515,48.209 86.9515,48.209 L86.9375,48.209 C86.9375,48.209 86.9025,47.957 86.8325,47.684 L85.8665,44.058 L85.2505,44.058 Z M89.0445,47.229 C89.0445,46.102 89.8075,45.374 90.8155,45.374 C91.8165,45.374 92.3485,46.116 92.3485,47.033 C92.3485,47.124 92.3275,47.327 92.3275,47.327 L89.7445,47.327 C89.7795,48.104 90.3325,48.496 90.9625,48.496 C91.5715,48.496 92.0125,48.083 92.0125,48.083 L92.2925,48.58 C92.2925,48.58 91.7675,49.084 90.9205,49.084 C89.8075,49.084 89.0445,48.279 89.0445,47.229 Z M89.7655,46.816 L91.6555,46.816 C91.6345,46.207 91.2565,45.913 90.8015,45.913 C90.2835,45.913 89.8635,46.235 89.7655,46.816 Z M95.7015,49 L96.4575,49 L97.1855,46.725 C97.2415,46.543 97.2835,46.34 97.2835,46.34 L97.2975,46.34 C97.2975,46.34 97.3395,46.543 97.3955,46.725 L98.1305,49 L98.8795,49 L100.0205,45.458 L99.3065,45.458 L98.5645,47.943 C98.5085,48.125 98.4805,48.321 98.4805,48.321 L98.4665,48.321 C98.4665,48.321 98.4245,48.125 98.3685,47.943 L97.6055,45.465 L96.9825,45.465 L96.2125,47.943 C96.1565,48.125 96.1215,48.321 96.1215,48.321 L96.1075,48.321 C96.1005,48.321 96.0725,48.125 96.0165,47.943 L95.2815,45.458 L94.5605,45.458 L95.7015,49 Z M100.6645,44.751 L101.3505,44.751 L101.3505,44.058 L100.6645,44.058 L100.6645,44.751 Z M100.6715,49 L101.3505,49 L101.3505,45.458 L100.6715,45.458 L100.6715,49 Z M102.3725,48.034 C102.3725,48.923 102.9395,49.028 103.3245,49.028 C103.4435,49.028 103.5485,49.014 103.5485,49.014 L103.5485,48.412 C103.5485,48.412 103.4925,48.419 103.4295,48.419 C103.2195,48.419 103.0515,48.342 103.0515,47.915 L103.0515,44.058 L102.3725,44.058 L102.3725,48.034 Z M104.2275,48.034 C104.2275,48.923 104.7945,49.028 105.1795,49.028 C105.2985,49.028 105.4035,49.014 105.4035,49.014 L105.4035,48.412 C105.4035,48.412 105.3475,48.419 105.2845,48.419 C105.0745,48.419 104.9065,48.342 104.9065,47.915 L104.9065,44.058 L104.2275,44.058 L104.2275,48.034 Z M108.679114,46.0129896 L108.5815,45.8214474 L108.5815,45.927 C108.5815,46.067 108.5675,46.186 108.5675,46.186 L108.5815,46.186 C108.605613,46.1329519 108.638032,46.0740896 108.679114,46.0129896 Z M108.5815,45.8214474 L108.679114,46.0129896 C108.876559,45.7193391 109.27412,45.374 109.9115,45.374 C110.7445,45.374 111.1295,45.829 111.1295,46.732 L111.1295,49 L110.4505,49 L110.4505,46.886 C110.4505,46.389 110.3455,45.997 109.7785,45.997 C109.2395,45.997 108.8055,46.354 108.6585,46.865 C108.6165,47.005 108.6025,47.166 108.6025,47.341 L108.6025,49 L107.9235,49 L107.9235,45.458 L108.5815,45.458 L108.5815,45.8214474 Z M111.8855,47.222 C111.8855,46.151 112.7395,45.374 113.7965,45.374 C114.8535,45.374 115.7075,46.151 115.7075,47.222 C115.7075,48.3 114.8535,49.084 113.7965,49.084 C112.7395,49.084 111.8855,48.3 111.8855,47.222 Z M112.5785,47.222 C112.5785,47.964 113.1315,48.496 113.7965,48.496 C114.4685,48.496 115.0145,47.964 115.0145,47.222 C115.0145,46.487 114.4685,45.962 113.7965,45.962 C113.1315,45.962 112.5785,46.487 112.5785,47.222 Z M116.6595,47.705 C116.6595,48.888 117.5625,49.028 118.0175,49.028 C118.1575,49.028 118.2555,49.014 118.2555,49.014 L118.2555,48.412 C118.2555,48.412 118.1925,48.426 118.0945,48.426 C117.8355,48.426 117.3385,48.335 117.3385,47.628 L117.3385,46.053 L118.1925,46.053 L118.1925,45.507 L117.3385,45.507 L117.3385,44.485 L116.6805,44.485 L116.6805,45.507 L116.1975,45.507 L116.1975,46.053 L116.6595,46.053 L116.6595,47.705 Z M119.0115,44.751 L119.6975,44.751 L119.6975,44.058 L119.0115,44.058 L119.0115,44.751 Z M119.0185,49 L119.6975,49 L119.6975,45.458 L119.0185,45.458 L119.0185,49 Z M120.9505,49 L121.6225,49 L121.6225,46.053 L122.4625,46.053 L122.4625,45.507 L121.6225,45.507 L121.6225,45.353 C121.6225,44.695 122.1055,44.611 122.3645,44.611 C122.4695,44.611 122.5395,44.625 122.5395,44.625 L122.5395,44.044 C122.5395,44.044 122.4345,44.023 122.2805,44.023 C121.8325,44.023 120.9505,44.17 120.9505,45.339 L120.9505,45.507 L120.5095,45.507 L120.5095,46.053 L120.9505,46.053 L120.9505,49 Z M122.6865,50.253 C122.6865,50.253 122.9735,50.47 123.3725,50.47 C123.8695,50.47 124.3035,50.183 124.5205,49.637 L126.1795,45.458 L125.4445,45.458 L124.5835,47.782 C124.5205,47.964 124.4645,48.202 124.4645,48.202 L124.4505,48.202 C124.4505,48.202 124.3875,47.957 124.3175,47.775 L123.4285,45.458 L122.6655,45.458 L124.1495,48.958 L123.9745,49.364 C123.8415,49.686 123.6105,49.882 123.3375,49.882 C123.1205,49.882 122.9245,49.735 122.9245,49.735 L122.6865,50.253 Z M128.0555,50.253 C128.0555,50.253 128.3425,50.47 128.7415,50.47 C129.2385,50.47 129.6725,50.183 129.8895,49.637 L131.5485,45.458 L130.8135,45.458 L129.9525,47.782 C129.8895,47.964 129.8335,48.202 129.8335,48.202 L129.8195,48.202 C129.8195,48.202 129.7565,47.957 129.6865,47.775 L128.7975,45.458 L128.0345,45.458 L129.5185,48.958 L129.3435,49.364 C129.2105,49.686 128.9795,49.882 128.7065,49.882 C128.4895,49.882 128.2935,49.735 128.2935,49.735 L128.0555,50.253 Z M131.8635,47.222 C131.8635,46.151 132.7175,45.374 133.7745,45.374 C134.8315,45.374 135.6855,46.151 135.6855,47.222 C135.6855,48.3 134.8315,49.084 133.7745,49.084 C132.7175,49.084 131.8635,48.3 131.8635,47.222 Z M132.5565,47.222 C132.5565,47.964 133.1095,48.496 133.7745,48.496 C134.4465,48.496 134.9925,47.964 134.9925,47.222 C134.9925,46.487 134.4465,45.962 133.7745,45.962 C133.1095,45.962 132.5565,46.487 132.5565,47.222 Z M138.850941,48.4598802 L138.9545,48.6175968 L138.9545,48.531 C138.9545,48.384 138.9685,48.272 138.9685,48.272 L138.9545,48.272 C138.929182,48.3322819 138.894519,48.3958862 138.850941,48.4598802 Z M138.9545,48.6175968 L138.850941,48.4598802 C138.641503,48.7674391 138.226142,49.084 137.6525,49.084 C136.8545,49.084 136.4415,48.664 136.4415,47.726 L136.4415,45.458 L137.1205,45.458 L137.1205,47.572 C137.1205,48.062 137.2185,48.454 137.7855,48.454 C138.5065,48.454 138.9335,47.817 138.9335,47.117 L138.9335,45.458 L139.6125,45.458 L139.6125,49 L138.9545,49 L138.9545,48.6175968 Z M142.1885,48.006 C142.1885,46.837 143.7285,46.788 144.3235,46.788 L144.4775,46.788 L144.4775,46.725 C144.4775,46.144 144.1485,45.948 143.7005,45.948 C143.1545,45.948 142.7135,46.291 142.7135,46.291 L142.4335,45.794 C142.4335,45.794 142.9445,45.374 143.7565,45.374 C144.6525,45.374 145.1565,45.864 145.1565,46.76 L145.1565,49 L144.5265,49 L144.5265,48.664 C144.5265,48.503 144.5405,48.384 144.5405,48.384 L144.5265,48.384 C144.5265,48.384 144.2395,49.084 143.3925,49.084 C142.7835,49.084 142.1885,48.713 142.1885,48.006 Z M142.8745,47.971 C142.8745,48.258 143.0985,48.538 143.5395,48.538 C144.1135,48.538 144.4845,47.936 144.4845,47.411 L144.4845,47.299 L144.3095,47.299 C143.7985,47.299 142.8745,47.334 142.8745,47.971 Z M145.8845,48.566 C145.8845,48.566 146.3605,49.084 147.2285,49.084 C148.0055,49.084 148.5095,48.643 148.5095,48.055 C148.5095,46.893 146.6895,47.033 146.6895,46.396 C146.6895,46.088 146.9765,45.962 147.2705,45.962 C147.8305,45.962 148.1455,46.277 148.1455,46.277 L148.4185,45.766 C148.4185,45.766 148.0545,45.374 147.2775,45.374 C146.5705,45.374 145.9965,45.738 145.9965,46.382 C145.9965,47.537 147.8165,47.404 147.8165,48.055 C147.8165,48.342 147.5225,48.496 147.2285,48.496 C146.6125,48.496 146.2135,48.083 146.2135,48.083 L145.8845,48.566 Z M150.8195,48.566 C150.8195,48.566 151.2955,49.084 152.1635,49.084 C152.9405,49.084 153.4445,48.643 153.4445,48.055 C153.4445,46.893 151.6245,47.033 151.6245,46.396 C151.6245,46.088 151.9115,45.962 152.2055,45.962 C152.7655,45.962 153.0805,46.277 153.0805,46.277 L153.3535,45.766 C153.3535,45.766 152.9895,45.374 152.2125,45.374 C151.5055,45.374 150.9315,45.738 150.9315,46.382 C150.9315,47.537 152.7515,47.404 152.7515,48.055 C152.7515,48.342 152.4575,48.496 152.1635,48.496 C151.5475,48.496 151.1485,48.083 151.1485,48.083 L150.8195,48.566 Z M153.9835,47.222 C153.9835,46.151 154.8375,45.374 155.8945,45.374 C156.9515,45.374 157.8055,46.151 157.8055,47.222 C157.8055,48.3 156.9515,49.084 155.8945,49.084 C154.8375,49.084 153.9835,48.3 153.9835,47.222 Z M154.6765,47.222 C154.6765,47.964 155.2295,48.496 155.8945,48.496 C156.5665,48.496 157.1125,47.964 157.1125,47.222 C157.1125,46.487 156.5665,45.962 155.8945,45.962 C155.2295,45.962 154.6765,46.487 154.6765,47.222 Z M158.3515,47.222 C158.3515,46.151 159.2055,45.374 160.2625,45.374 C161.3195,45.374 162.1735,46.151 162.1735,47.222 C162.1735,48.3 161.3195,49.084 160.2625,49.084 C159.2055,49.084 158.3515,48.3 158.3515,47.222 Z M159.0445,47.222 C159.0445,47.964 159.5975,48.496 160.2625,48.496 C160.9345,48.496 161.4805,47.964 161.4805,47.222 C161.4805,46.487 160.9345,45.962 160.2625,45.962 C159.5975,45.962 159.0445,46.487 159.0445,47.222 Z M163.734114,46.0129896 L163.6365,45.8214474 L163.6365,45.927 C163.6365,46.067 163.6225,46.186 163.6225,46.186 L163.6365,46.186 C163.660613,46.1329519 163.693032,46.0740896 163.734114,46.0129896 Z M163.6365,45.8214474 L163.734114,46.0129896 C163.931559,45.7193391 164.32912,45.374 164.9665,45.374 C165.7995,45.374 166.1845,45.829 166.1845,46.732 L166.1845,49 L165.5055,49 L165.5055,46.886 C165.5055,46.389 165.4005,45.997 164.8335,45.997 C164.2945,45.997 163.8605,46.354 163.7135,46.865 C163.6715,47.005 163.6575,47.166 163.6575,47.341 L163.6575,49 L162.9785,49 L162.9785,45.458 L163.6365,45.458 L163.6365,45.8214474 Z M168.7115,48.006 C168.7115,46.837 170.2515,46.788 170.8465,46.788 L171.0005,46.788 L171.0005,46.725 C171.0005,46.144 170.6715,45.948 170.2235,45.948 C169.6775,45.948 169.2365,46.291 169.2365,46.291 L168.9565,45.794 C168.9565,45.794 169.4675,45.374 170.2795,45.374 C171.1755,45.374 171.6795,45.864 171.6795,46.76 L171.6795,49 L171.0495,49 L171.0495,48.664 C171.0495,48.503 171.0635,48.384 171.0635,48.384 L171.0495,48.384 C171.0495,48.384 170.7625,49.084 169.9155,49.084 C169.3065,49.084 168.7115,48.713 168.7115,48.006 Z M169.3975,47.971 C169.3975,48.258 169.6215,48.538 170.0625,48.538 C170.6365,48.538 171.0075,47.936 171.0075,47.411 L171.0075,47.299 L170.8325,47.299 C170.3215,47.299 169.3975,47.334 169.3975,47.971 Z M172.4075,48.566 C172.4075,48.566 172.8835,49.084 173.7515,49.084 C174.5285,49.084 175.0325,48.643 175.0325,48.055 C175.0325,46.893 173.2125,47.033 173.2125,46.396 C173.2125,46.088 173.4995,45.962 173.7935,45.962 C174.3535,45.962 174.6685,46.277 174.6685,46.277 L174.9415,45.766 C174.9415,45.766 174.5775,45.374 173.8005,45.374 C173.0935,45.374 172.5195,45.738 172.5195,46.382 C172.5195,47.537 174.3395,47.404 174.3395,48.055 C174.3395,48.342 174.0455,48.496 173.7515,48.496 C173.1355,48.496 172.7365,48.083 172.7365,48.083 L172.4075,48.566 Z M177.6225,44.751 L178.3085,44.751 L178.3085,44.058 L177.6225,44.058 L177.6225,44.751 Z M177.6295,49 L178.3085,49 L178.3085,45.458 L177.6295,45.458 L177.6295,49 Z M179.5195,47.705 C179.5195,48.888 180.4225,49.028 180.8775,49.028 C181.0175,49.028 181.1155,49.014 181.1155,49.014 L181.1155,48.412 C181.1155,48.412 181.0525,48.426 180.9545,48.426 C180.6955,48.426 180.1985,48.335 180.1985,47.628 L180.1985,46.053 L181.0525,46.053 L181.0525,45.507 L180.1985,45.507 L180.1985,44.485 L179.5405,44.485 L179.5405,45.507 L179.0575,45.507 L179.0575,46.053 L179.5195,46.053 L179.5195,47.705 Z M181.7035,45.339 L182.2075,45.339 L182.6625,43.974 L182.0045,43.974 L181.7035,45.339 Z M183.1245,48.566 C183.1245,48.566 183.6005,49.084 184.4685,49.084 C185.2455,49.084 185.7495,48.643 185.7495,48.055 C185.7495,46.893 183.9295,47.033 183.9295,46.396 C183.9295,46.088 184.2165,45.962 184.5105,45.962 C185.0705,45.962 185.3855,46.277 185.3855,46.277 L185.6585,45.766 C185.6585,45.766 185.2945,45.374 184.5175,45.374 C183.8105,45.374 183.2365,45.738 183.2365,46.382 C183.2365,47.537 185.0565,47.404 185.0565,48.055 C185.0565,48.342 184.7625,48.496 184.4685,48.496 C183.8525,48.496 183.4535,48.083 183.4535,48.083 L183.1245,48.566 Z M189.089636,46.1235236 L189.0045,45.981775 L189.0045,46.074 C189.0045,46.221 188.9905,46.34 188.9905,46.34 L189.0045,46.34 C189.027745,46.2652116 189.056243,46.1927578 189.089636,46.1235236 Z M189.0045,45.981775 L189.089636,46.1235236 C189.28753,45.7132273 189.657331,45.416 190.1245,45.416 C190.2155,45.416 190.2995,45.43 190.2995,45.43 L190.2995,46.102 C190.2995,46.102 190.2085,46.081 190.1035,46.081 C189.6695,46.081 189.2705,46.389 189.1095,46.914 C189.0465,47.117 189.0255,47.334 189.0255,47.551 L189.0255,49 L188.3465,49 L188.3465,45.458 L189.0045,45.458 L189.0045,45.981775 Z M190.7055,47.229 C190.7055,46.102 191.4685,45.374 192.4765,45.374 C193.4775,45.374 194.0095,46.116 194.0095,47.033 C194.0095,47.124 193.9885,47.327 193.9885,47.327 L191.4055,47.327 C191.4405,48.104 191.9935,48.496 192.6235,48.496 C193.2325,48.496 193.6735,48.083 193.6735,48.083 L193.9535,48.58 C193.9535,48.58 193.4285,49.084 192.5815,49.084 C191.4685,49.084 190.7055,48.279 190.7055,47.229 Z M191.4265,46.816 L193.3165,46.816 C193.2955,46.207 192.9175,45.913 192.4625,45.913 C191.9445,45.913 191.5245,46.235 191.4265,46.816 Z M194.7935,48.034 C194.7935,48.923 195.3605,49.028 195.7455,49.028 C195.8645,49.028 195.9695,49.014 195.9695,49.014 L195.9695,48.412 C195.9695,48.412 195.9135,48.419 195.8505,48.419 C195.6405,48.419 195.4725,48.342 195.4725,47.915 L195.4725,44.058 L194.7935,44.058 L194.7935,48.034 Z M196.4455,47.229 C196.4455,46.102 197.2085,45.374 198.2165,45.374 C199.2175,45.374 199.7495,46.116 199.7495,47.033 C199.7495,47.124 199.7285,47.327 199.7285,47.327 L197.1455,47.327 C197.1805,48.104 197.7335,48.496 198.3635,48.496 C198.9725,48.496 199.4135,48.083 199.4135,48.083 L199.6935,48.58 C199.6935,48.58 199.1685,49.084 198.3215,49.084 C197.2085,49.084 196.4455,48.279 196.4455,47.229 Z M197.1665,46.816 L199.0565,46.816 C199.0355,46.207 198.6575,45.913 198.2025,45.913 C197.6845,45.913 197.2645,46.235 197.1665,46.816 Z M200.2885,48.006 C200.2885,46.837 201.8285,46.788 202.4235,46.788 L202.5775,46.788 L202.5775,46.725 C202.5775,46.144 202.2485,45.948 201.8005,45.948 C201.2545,45.948 200.8135,46.291 200.8135,46.291 L200.5335,45.794 C200.5335,45.794 201.0445,45.374 201.8565,45.374 C202.7525,45.374 203.2565,45.864 203.2565,46.76 L203.2565,49 L202.6265,49 L202.6265,48.664 C202.6265,48.503 202.6405,48.384 202.6405,48.384 L202.6265,48.384 C202.6265,48.384 202.3395,49.084 201.4925,49.084 C200.8835,49.084 200.2885,48.713 200.2885,48.006 Z M200.9745,47.971 C200.9745,48.258 201.1985,48.538 201.6395,48.538 C202.2135,48.538 202.5845,47.936 202.5845,47.411 L202.5845,47.299 L202.4095,47.299 C201.8985,47.299 200.9745,47.334 200.9745,47.971 Z M203.9845,48.566 C203.9845,48.566 204.4605,49.084 205.3285,49.084 C206.1055,49.084 206.6095,48.643 206.6095,48.055 C206.6095,46.893 204.7895,47.033 204.7895,46.396 C204.7895,46.088 205.0765,45.962 205.3705,45.962 C205.9305,45.962 206.2455,46.277 206.2455,46.277 L206.5185,45.766 C206.5185,45.766 206.1545,45.374 205.3775,45.374 C204.6705,45.374 204.0965,45.738 204.0965,46.382 C204.0965,47.537 205.9165,47.404 205.9165,48.055 C205.9165,48.342 205.6225,48.496 205.3285,48.496 C204.7125,48.496 204.3135,48.083 204.3135,48.083 L203.9845,48.566 Z M207.1625,47.229 C207.1625,46.102 207.9255,45.374 208.9335,45.374 C209.9345,45.374 210.4665,46.116 210.4665,47.033 C210.4665,47.124 210.4455,47.327 210.4455,47.327 L207.8625,47.327 C207.8975,48.104 208.4505,48.496 209.0805,48.496 C209.6895,48.496 210.1305,48.083 210.1305,48.083 L210.4105,48.58 C210.4105,48.58 209.8855,49.084 209.0385,49.084 C207.9255,49.084 207.1625,48.279 207.1625,47.229 Z M207.8835,46.816 L209.7735,46.816 C209.7525,46.207 209.3745,45.913 208.9195,45.913 C208.4015,45.913 207.9815,46.235 207.8835,46.816 Z M211.0615,47.229 C211.0615,46.102 211.7265,45.374 212.6645,45.374 C213.4835,45.374 213.7565,45.934 213.7565,45.934 L213.7705,45.934 C213.7705,45.934 213.7565,45.829 213.7565,45.696 L213.7565,44.058 L214.4355,44.058 L214.4355,49 L213.7915,49 L213.7915,48.664 C213.7915,48.524 213.7985,48.426 213.7985,48.426 L213.7845,48.426 C213.7845,48.426 213.4975,49.084 212.6225,49.084 C211.6635,49.084 211.0615,48.328 211.0615,47.229 Z M211.7545,47.229 C211.7545,47.999 212.1675,48.496 212.7555,48.496 C213.2805,48.496 213.7775,48.125 213.7775,47.222 C213.7775,46.592 213.4485,45.962 212.7765,45.962 C212.2165,45.962 211.7545,46.424 211.7545,47.229 Z M215.4995,49 L216.2135,49 L216.2135,48.279 L215.4995,48.279 L215.4995,49 Z" id="Your-app-is-being-re" fill="#969CAC"></path>
                                                <rect id="Rectangle-1" fill="#444F6C" x="135" y="69" width="30" height="12" rx="1"></rect>
                                                <path d="M147.505875,75.08 C147.505875,74.42025 148.019375,73.9035 148.698625,73.9035 C149.377875,73.9035 149.891375,74.42025 149.891375,75.08 C149.891375,75.75925 149.377875,76.289 148.698625,76.289 C148.019375,76.289 147.505875,75.75925 147.505875,75.08 Z M147.938125,75.08 C147.938125,75.5545 148.276125,75.9055 148.698625,75.9055 C149.121125,75.9055 149.459125,75.5545 149.459125,75.08 C149.459125,74.625 149.121125,74.287 148.698625,74.287 C148.276125,74.287 147.938125,74.625 147.938125,75.08 Z M150.567125,76.25 L150.986375,76.25 L150.986375,75.2425 L151.285375,75.2425 L151.850875,76.25 L152.322125,76.25 L151.629875,75.0475 L151.629875,75.041 L152.283125,73.9425 L151.828125,73.9425 L151.285375,74.88175 L150.986375,74.88175 L150.986375,73.9425 L150.567125,73.9425 L150.567125,76.25 Z" id="Type-something-22" fill="#FFFFFF"></path>
                                            </g>
                                        </g>
                                        <g id="Group-49" mask="url(#mask-6)">
                                            <g transform="translate(20.000000, 74.000000)">
                                                <g id="Group-4" transform="translate(135.000000, 69.000000)"></g>
                                                <g id="Group-50" transform="translate(0.000000, 5.000000)"></g>
                                            </g>
                                        </g>
                                    </g>
                                    <rect id="Rectangle-21-Copy-5" fill="#E7E8EC" x="217.37037" y="176.298077" width="40.8888889" height="18.7211538"></rect>
                                </g>
                                <g id="Group-15" stroke-width="1" fill="none" transform="translate(25.555556, 58.932692)">
                                    <path d="M0,233.713287 L0,230 L408.888889,230 L408.888889,233.713287 C402.827979,237.11955 396.349777,239.388781 389.454282,240.520979 C382.817564,241.610687 371.47683,243.615385 346.103393,243.615385 C259.979797,243.615385 151.373027,243.615385 65.2494305,243.615385 C43.2444795,243.615385 24.7174977,241.446279 16.000877,239.902098 C10.5243855,238.931918 5.19075984,236.868981 0,233.713287 Z" id="Body" fill-opacity="0.02" fill="#444F6C"></path>
                                    <rect id="Rectangle-448" fill="#313C59" x="243.62963" y="147" width="61.3333333" height="122.538462" rx="6.81481481"></rect>
                                    <path d="M122.325444,261.655308 C121.060444,261.655308 120.031444,262.683308 120.031444,263.949308 C120.031444,265.215308 121.060444,266.243308 122.325444,266.243308 C123.590444,266.243308 124.619444,265.215308 124.619444,263.949308 C124.619444,262.683308 123.590444,261.655308 122.325444,261.655308 M122.325444,270.830308 C118.530444,270.830308 115.444444,267.743308 115.444444,263.949308 C115.444444,260.154308 118.530444,257.067308 122.325444,257.067308 C126.120444,257.067308 129.206444,260.154308 129.206444,263.949308 C129.206444,267.743308 126.120444,270.830308 122.325444,270.830308" id="particle-1-copy-3" fill="#FFFFFE"></path>
                                    <path d="M431.469,245.588 C427.674,245.588 424.588,248.675 424.588,252.469 C424.588,256.264 427.674,259.351 431.469,259.351 C435.264,259.351 438.35,256.264 438.35,252.469 C438.35,248.675 435.264,245.588 431.469,245.588 M431.469,263.938 C425.145,263.938 420,258.793 420,252.469 C420,246.146 425.145,241 431.469,241 C437.792,241 442.938,246.146 442.938,252.469 C442.938,258.793 437.792,263.938 431.469,263.938" id="particle-2-copy-3" fill="#FFFFFE"></path>
                                    <path d="M11.469,163.588 L9.175,163.588 L9.175,161.294 C9.175,160.026 8.148,159 6.882,159 C5.615,159 4.588,160.026 4.588,161.294 L4.588,163.588 L2.294,163.588 C1.028,163.588 0,164.614 0,165.882 C0,167.15 1.028,168.176 2.294,168.176 L4.588,168.176 L4.588,170.469 C4.588,171.737 5.615,172.763 6.882,172.763 C8.148,172.763 9.175,171.737 9.175,170.469 L9.175,168.176 L11.469,168.176 C12.736,168.176 13.763,167.15 13.763,165.882 C13.763,164.614 12.736,163.588 11.469,163.588" id="particle-4-copy-2" fill="#FFFFFE"></path>
                                    <path d="M405.125,95.881 L408.091,92.915 C408.987,92.019 408.987,90.568 408.091,89.672 C407.195,88.776 405.743,88.776 404.847,89.672 L401.881,92.638 L398.915,89.672 C398.019,88.776 396.568,88.776 395.672,89.672 C394.776,90.568 394.776,92.019 395.672,92.915 L398.638,95.881 L395.672,98.847 C394.776,99.743 394.776,101.194 395.672,102.09 C396.12,102.538 396.707,102.762 397.294,102.762 C397.881,102.762 398.468,102.538 398.915,102.09 L401.881,99.125 L404.847,102.09 C405.295,102.538 405.882,102.762 406.469,102.762 C407.056,102.762 407.643,102.538 408.091,102.09 C408.987,101.194 408.987,99.743 408.091,98.847 L405.125,95.881 Z" id="particle-3-copy" fill="#FFFFFE"></path>
                                    <path d="M428.881,4.588 C427.616,4.588 426.587,5.616 426.587,6.882 C426.587,8.148 427.616,9.176 428.881,9.176 C430.146,9.176 431.175,8.148 431.175,6.882 C431.175,5.616 430.146,4.588 428.881,4.588 M428.881,13.763 C425.086,13.763 422,10.676 422,6.882 C422,3.087 425.086,1.70530257e-13 428.881,1.70530257e-13 C432.676,1.70530257e-13 435.762,3.087 435.762,6.882 C435.762,10.676 432.676,13.763 428.881,13.763" id="particle-1-copy" fill="#FFFFFE"></path>
                                    <rect id="Rectangle-509" fill="#FFFFFF" x="247.037037" y="158.913462" width="54.5185185" height="98.7115385"></rect>
                                    <path d="M284.193602,219.75543 C282.97349,221.65465 281.679878,223.507921 279.710058,223.538554 C277.740239,223.584503 277.108133,222.328567 274.873711,222.328567 C272.624589,222.328567 271.933682,223.507921 270.066763,223.584503 C268.141044,223.661084 266.68573,221.562752 265.450918,219.709481 C262.937193,215.926358 261.011474,208.957446 263.5987,204.270661 C264.877612,201.942585 267.170835,200.472221 269.655159,200.426272 C271.536778,200.39564 273.330195,201.75879 274.491507,201.75879 C275.638118,201.75879 277.81374,200.119947 280.092262,200.365007 C281.047771,200.410956 283.723198,200.763231 285.443115,203.397633 C285.310813,203.48953 282.253183,205.358118 282.282583,209.233139 C282.326684,213.858659 286.178122,215.405604 286.222222,215.42092 C286.178122,215.528134 285.604816,217.626466 284.193602,219.75543 L284.193602,219.75543 Z M275.79982,195.249367 C276.87293,193.978114 278.651648,193.013188 280.121662,192.951923 C280.312764,194.743929 279.621857,196.551251 278.592847,197.83782 C277.578537,199.139704 275.902721,200.150579 274.256305,200.012733 C274.035802,198.251359 274.85901,196.413405 275.79982,195.249367 L275.79982,195.249367 Z" id="Icon-Shape" fill="#7B8397"></path>
                                </g>
                                <g id="Group-14" stroke-width="1" fill="none" transform="translate(344.148148, 205.932692)">
                                    <rect id="Rectangle-448-Copy" fill="#313C59" x="0" y="0" width="61.3333333" height="122.538462" rx="13.6296296"></rect>
                                    <rect id="Rectangle-509" fill="#FFFFFF" x="3.40740741" y="11.9134615" width="54.5185185" height="98.7115385"></rect>
                                    <path d="M22.4888889,68.5024038 C22.4888889,69.2434495 23.1022222,69.8497596 23.8518519,69.8497596 L25.2148148,69.8497596 L25.2148148,74.5655048 C25.2148148,75.6838101 26.128,76.5865385 27.2592593,76.5865385 C28.3905185,76.5865385 29.3037037,75.6838101 29.3037037,74.5655048 L29.3037037,69.8497596 L32.0296296,69.8497596 L32.0296296,74.5655048 C32.0296296,75.6838101 32.9428148,76.5865385 34.0740741,76.5865385 C35.2053333,76.5865385 36.1185185,75.6838101 36.1185185,74.5655048 L36.1185185,69.8497596 L37.4814815,69.8497596 C38.2311111,69.8497596 38.8444444,69.2434495 38.8444444,68.5024038 L38.8444444,55.0288462 L22.4888889,55.0288462 L22.4888889,68.5024038 L22.4888889,68.5024038 Z M19.0814815,55.0288462 C17.9502222,55.0288462 17.037037,55.9315745 17.037037,57.0498798 L17.037037,66.4813702 C17.037037,67.5996755 17.9502222,68.5024038 19.0814815,68.5024038 C20.2127407,68.5024038 21.1259259,67.5996755 21.1259259,66.4813702 L21.1259259,57.0498798 C21.1259259,55.9315745 20.2127407,55.0288462 19.0814815,55.0288462 L19.0814815,55.0288462 Z M42.2518519,55.0288462 C41.1205926,55.0288462 40.2074074,55.9315745 40.2074074,57.0498798 L40.2074074,66.4813702 C40.2074074,67.5996755 41.1205926,68.5024038 42.2518519,68.5024038 C43.3831111,68.5024038 44.2962963,67.5996755 44.2962963,66.4813702 L44.2962963,57.0498798 C44.2962963,55.9315745 43.3831111,55.0288462 42.2518519,55.0288462 L42.2518519,55.0288462 Z M35.4779259,47.1602885 L37.2497778,45.408726 C37.5223704,45.1392548 37.5223704,44.7215745 37.2497778,44.4521034 C36.9771852,44.1826322 36.5546667,44.1826322 36.2820741,44.4521034 L34.2648889,46.4461899 C33.1881481,45.9072476 31.9614815,45.5973558 30.6666667,45.5973558 C29.3582222,45.5973558 28.1315556,45.9072476 27.0411852,46.4461899 L25.0103704,44.4521034 C24.7377778,44.1826322 24.3152593,44.1826322 24.0426667,44.4521034 C23.7700741,44.7215745 23.7700741,45.1392548 24.0426667,45.408726 L25.8281481,47.173762 C23.810963,48.6423798 22.4888889,51.0002524 22.4888889,53.6814904 L38.8444444,53.6814904 C38.8444444,51.0002524 37.5223704,48.6289063 35.4779259,47.1602885 L35.4779259,47.1602885 Z M27.9407407,50.9867788 L26.5777778,50.9867788 L26.5777778,49.6394231 L27.9407407,49.6394231 L27.9407407,50.9867788 L27.9407407,50.9867788 Z M34.7555556,50.9867788 L33.3925926,50.9867788 L33.3925926,49.6394231 L34.7555556,49.6394231 L34.7555556,50.9867788 L34.7555556,50.9867788 Z" id="Icon-Shape" fill="#7B8397"></path>
                                </g>
                            </g>
                        </g>
                    </g>
                </g>
            </g>
        </g>
    </g>
</svg>