<?xml version="1.0" encoding="UTF-8"?>
<svg width="48px" height="48px" viewBox="0 0 48 48" version="1.1" xmlns="http://www.w3.org/2000/svg" xmlns:xlink="http://www.w3.org/1999/xlink">
    <!-- Generator: Sketch 45.1 (43504) - http://www.bohemiancoding.com/sketch -->
    <title>ads</title>
    <desc>Created with Sketch.</desc>
    <defs></defs>
    <g id="A1.01.3-SE-Web---Home-(short)" stroke="none" stroke-width="1" fill="none" fill-rule="evenodd">
        <g id="ads">
            <rect id="bounds" fill-opacity="0" fill="#D8D8D8" x="0" y="0" width="48" height="48"></rect>
            <path d="M10.2857143,16.25 C9.8649259,16.25 9.52380952,16.5857864 9.52380952,17 L9.52380952,29 C9.52380952,29.4142136 9.8649259,29.75 10.2857143,29.75 L37.7142857,29.75 C38.1350741,29.75 38.4761905,29.4142136 38.4761905,29 L38.4761905,17 C38.4761905,16.5857864 38.1350741,16.25 37.7142857,16.25 L10.2857143,16.25 Z M31.6190476,31.25 L16.3809524,31.25 L16.3809524,37.25 C16.3809524,37.6642136 16.039836,38 15.6190476,38 C15.1982592,38 14.8571429,37.6642136 14.8571429,37.25 L14.8571429,31.25 L10.2857143,31.25 C9.02334914,31.25 8,30.2426407 8,29 L8,17 C8,15.7573593 9.02334914,14.75 10.2857143,14.75 L14.8571429,14.75 L14.8571429,11.75 C14.8571429,11.3357864 15.1982592,11 15.6190476,11 C16.039836,11 16.3809524,11.3357864 16.3809524,11.75 L16.3809524,14.75 L31.6190476,14.75 L31.6190476,11.75 C31.6190476,11.3357864 31.960164,11 32.3809524,11 C32.8017408,11 33.1428571,11.3357864 33.1428571,11.75 L33.1428571,14.75 L37.7142857,14.75 C38.9766509,14.75 40,15.7573593 40,17 L40,29 C40,30.2426407 38.9766509,31.25 37.7142857,31.25 L33.1428571,31.25 L33.1428571,37.25 C33.1428571,37.6642136 32.8017408,38 32.3809524,38 C31.960164,38 31.6190476,37.6642136 31.6190476,37.25 L31.6190476,31.25 Z M14.0833333,21.5 C13.6691198,21.5 13.3333333,21.8357864 13.3333333,22.25 C13.3333333,22.6642136 13.6691198,23 14.0833333,23 L29.3452381,23 C29.7594517,23 30.0952381,22.6642136 30.0952381,22.25 C30.0952381,21.8357864 29.7594517,21.5 29.3452381,21.5 L14.0833333,21.5 Z M14.0833333,25.25 C13.6691198,25.25 13.3333333,25.5857864 13.3333333,26 C13.3333333,26.4142136 13.6691198,26.75 14.0833333,26.75 L23.25,26.75 C23.6642136,26.75 24,26.4142136 24,26 L24,26 C24,25.5857864 23.6642136,25.25 23.25,25.25 L23.25,25.25 L14.0833333,25.25 Z" id="Combined-Shape" fill="#7B8397" fill-rule="nonzero"></path>
        </g>
    </g>
</svg>