<?xml version="1.0" encoding="UTF-8"?>
<svg width="48px" height="48px" viewBox="0 0 48 48" version="1.1" xmlns="http://www.w3.org/2000/svg" xmlns:xlink="http://www.w3.org/1999/xlink">
    <!-- Generator: Sketch 45.1 (43504) - http://www.bohemiancoding.com/sketch -->
    <title>analytics</title>
    <desc>Created with Sketch.</desc>
    <defs></defs>
    <g id="A1.01.3-SE-Web---Home-(short)" stroke="none" stroke-width="1" fill="none" fill-rule="evenodd">
        <g id="analytics">
            <rect id="bounds" fill-opacity="0" fill="#D8D8D8" x="0" y="0" width="48" height="48"></rect>
            <path d="M22.3611721,11.336657 C15.7501755,11.6783506 10.5040298,17.1881604 10.5040298,23.8938979 C10.5040298,30.8559056 16.1340398,36.4938504 23.0862491,36.4938504 C29.7825489,36.4938504 35.2419526,31.2403109 35.6258169,24.6199968 L23.2142039,24.6199968 C22.7450364,24.6199968 22.3611721,24.2355915 22.3611721,23.7657628 L22.3611721,11.336657 Z M35.6258169,23.1138473 C36.4907444,23.1138473 37.1774548,23.8426135 37.1273177,24.7073036 C36.6956039,32.1528533 30.5509078,38 23.0862491,38 C15.3033871,38 9,31.687729 9,23.8938979 C9,16.4030869 14.8566884,10.2163768 22.2836479,9.83250955 C23.1436088,9.78806192 23.8652019,10.4743379 23.8652019,11.336657 L23.8652019,23.1138473 L35.6258169,23.1138473 Z M28.6351338,8.50671628 L28.6351338,18.3808837 L38.4954043,18.3808837 C37.4482959,13.4438 33.565269,9.55530044 28.6351338,8.50671628 Z M28.9476038,7.03342964 C34.4589673,8.20563448 38.7960623,12.5488422 39.9666174,18.0679733 C40.1653177,19.0048391 39.4518197,19.8870333 38.4954043,19.8870333 L28.6351338,19.8870333 C27.804481,19.8870333 27.131104,19.2127072 27.131104,18.3808837 L27.131104,8.50671628 C27.131104,7.54895288 28.0120565,6.83444929 28.9476038,7.03342964 Z" id="Combined-Shape" fill="#7B8397" fill-rule="nonzero"></path>
        </g>
    </g>
</svg>