<?xml version="1.0" encoding="UTF-8"?>
<svg width="48px" height="48px" viewBox="0 0 48 48" version="1.1" xmlns="http://www.w3.org/2000/svg" xmlns:xlink="http://www.w3.org/1999/xlink">
    <!-- Generator: Sketch 45.1 (43504) - http://www.bohemiancoding.com/sketch -->
    <title>cms</title>
    <desc>Created with Sketch.</desc>
    <defs></defs>
    <g id="A1.01.3-SE-Web---Home-(short)" stroke="none" stroke-width="1" fill="none" fill-rule="evenodd">
        <g id="cms">
            <rect id="bounds" fill-opacity="0" fill="#D8D8D8" x="0" y="0" width="48" height="48"></rect>
            <path d="M17.1853238,10.2325581 L17.1853238,9.48837209 C17.1853238,8.66636688 17.8486233,8 18.6668448,8 L27.5559713,8 C28.3741928,8 29.0374923,8.66636688 29.0374923,9.48837209 L29.0374923,10.2325581 L32.0005345,10.2325581 C33.2278667,10.2325581 34.2228161,11.2321085 34.2228161,12.4651163 L34.2228161,22.2753087 L35.6193061,20.8788186 C35.9099288,20.5881959 36.3800369,20.5871115 36.6693219,20.8763964 L39.8121027,24.0191772 C40.1013877,24.3084622 40.1003032,24.7785703 39.8096805,25.069193 L34.2228161,30.6560574 L34.2228161,37.7674419 C34.2228161,39.0004497 33.2278667,40 32.0005345,40 L14.2222816,40 C12.9949494,40 12,39.0004497 12,37.7674419 L12,12.4651163 C12,11.2321085 12.9949494,10.2325581 14.2222816,10.2325581 L17.1853238,10.2325581 Z M17.1853238,11.7209302 L14.2222816,11.7209302 C13.8131709,11.7209302 13.4815211,12.0541137 13.4815211,12.4651163 L13.4815211,37.7674419 C13.4815211,38.1784445 13.8131709,38.5116279 14.2222816,38.5116279 L32.0005345,38.5116279 C32.4096452,38.5116279 32.741295,38.1784445 32.741295,37.7674419 L32.741295,32.1375785 L30.3377385,34.541135 C30.2238804,34.6549931 30.0763346,34.729021 29.9172477,34.7521071 L26.2409813,35.2855927 C25.7508125,35.3567241 25.331775,34.9376867 25.4029065,34.4475178 L25.9363921,30.7712514 C25.9594781,30.6121645 26.033506,30.4646188 26.1473641,30.3507606 L32.741295,23.7568297 L32.741295,12.4651163 C32.741295,12.0541137 32.4096452,11.7209302 32.0005345,11.7209302 L29.0374923,11.7209302 L29.0374923,12.4651163 C29.0374923,13.2871215 28.3741928,13.9534884 27.5559713,13.9534884 L18.6668448,13.9534884 C17.8486233,13.9534884 17.1853238,13.2871215 17.1853238,12.4651163 L17.1853238,11.7209302 Z M27.3695566,31.2229479 L27.0138996,33.6737922 L29.4647438,33.3181351 L38.2350605,24.5478184 L36.1398733,22.4526312 L27.3695566,31.2229479 Z M18.6668448,9.48837209 L18.6668448,12.4651163 L27.5559713,12.4651163 L27.5559713,9.48837209 L18.6668448,9.48837209 Z M17.9295098,18.4186047 L28.2933063,18.4186047 L28.2933063,18.4186047 C28.7043089,18.4186047 29.0374923,18.7517881 29.0374923,19.1627907 L29.0374923,19.1627907 C29.0374923,19.5737933 28.7043089,19.9069767 28.2933063,19.9069767 L17.9295098,19.9069767 C17.5185072,19.9069767 17.1853238,19.5737933 17.1853238,19.1627907 C17.1853238,18.7517881 17.5185072,18.4186047 17.9295098,18.4186047 Z M17.9295098,22.8837209 L28.2933063,22.8837209 C28.7043089,22.8837209 29.0374923,23.2169044 29.0374923,23.627907 L29.0374923,23.627907 C29.0374923,24.0389096 28.7043089,24.372093 28.2933063,24.372093 L17.9295098,24.372093 L17.9295098,24.372093 C17.5185072,24.372093 17.1853238,24.0389096 17.1853238,23.627907 C17.1853238,23.2169044 17.5185072,22.8837209 17.9295098,22.8837209 Z M17.9295098,27.3488372 L22.367222,27.3488372 C22.7782246,27.3488372 23.111408,27.6820207 23.111408,28.0930233 C23.111408,28.5040259 22.7782246,28.8372093 22.367222,28.8372093 L17.9295098,28.8372093 C17.5185072,28.8372093 17.1853238,28.5040259 17.1853238,28.0930233 C17.1853238,27.6820207 17.5185072,27.3488372 17.9295098,27.3488372 L17.9295098,27.3488372 Z" id="Combined-Shape" fill="#7B8397" fill-rule="nonzero"></path>
        </g>
    </g>
</svg>