<?xml version="1.0" encoding="UTF-8"?>
<svg width="510px" height="280px" viewBox="0 0 510 280" version="1.1" xmlns="http://www.w3.org/2000/svg" xmlns:xlink="http://www.w3.org/1999/xlink">
    <!-- Generator: sketchtool 47.1 (45422) - http://www.bohemiancoding.com/sketch -->
    <title>99F3CCB3-54EC-4B49-BCA5-77A4BDEE4E9B</title>
    <desc>Created with sketchtool.</desc>
    <defs>
        <rect id="path-1" x="0" y="0" width="510" height="280" rx="4"></rect>
    </defs>
    <g id="→-Developers" stroke="none" stroke-width="1" fill="none" fill-rule="evenodd">
        <g id="Shoutem-Web---Developers-v2" transform="translate(-765.000000, -3145.000000)">
            <g id="Group-37" transform="translate(0.000000, 1243.000000)">
                <g id="devs-step6" transform="translate(765.000000, 1902.000000)">
                    <mask id="mask-2" fill="white">
                        <use xlink:href="#path-1"></use>
                    </mask>
                    <use id="Mask" fill="#444F6C" xlink:href="#path-1"></use>
                    <g id="Group" mask="url(#mask-2)">
                        <g transform="translate(22.000000, 56.000000)">
                            <polyline id="Fill-6" fill="#313C59" points="47.984 235.931 55.643 235.931 73.261 192.795 53.346 194.257 47.984 235.931"></polyline>
                            <polyline id="Fill-7" fill="#313C59" points="394.961 192.795 412.578 235.931 420.238 235.931 414.876 194.257 394.961 192.795"></polyline>
                            <polygon id="Fill-8" fill="#313C59" points="44.538 202.373 423.685 202.373 423.685 194.443 44.538 194.443"></polygon>
                            <path d="M420.637,17.328 L47.585,17.328 C39.874,17.328 33.622,23.295 33.622,30.655 L33.622,157.702 L434.599,157.702 L434.599,30.655 C434.599,23.295 428.348,17.328 420.637,17.328" id="Fill-9" fill="#7B8397"></path>
                            <path d="M350.310846,66.9045106 C350.427178,69.3631919 350.64141,71.6789251 350.921,73.578 C351.36,76.457 351.876,78.376 351.876,78.376 C351.876,78.376 352.393,76.457 352.832,73.578 C353.110798,71.6791184 353.325418,69.3630799 353.441991,66.9044024 C354.589931,66.4823712 355.503226,65.6099328 355.944453,64.5141726 C358.519676,64.4015638 360.946101,64.1960337 362.935,63.931 C365.951,63.512 367.961,63.023 367.961,63.023 C367.961,63.023 365.951,62.533 362.935,62.114 C360.946292,61.8497553 358.519557,61.6438364 355.944333,61.5309876 C355.502729,60.4342232 354.588457,59.5613224 353.439407,59.1396607 C353.321145,56.6816554 353.104983,54.3655339 352.827,52.467 C352.39,49.588 351.876,47.669 351.876,47.669 C351.876,47.669 351.363,49.588 350.925,52.467 C350.646988,54.3657285 350.431394,56.6815468 350.313415,59.1395576 C349.165453,59.5608509 348.251694,60.4327712 347.80969,61.5284195 C345.233762,61.6396218 342.807078,61.8441785 340.818,62.11 C337.802,62.529 335.791,63.023 335.791,63.023 C335.791,63.023 337.802,63.516 340.818,63.935 C342.807204,64.2016022 345.234069,64.4063483 347.809733,64.5171426 C348.251422,65.6116028 349.164126,66.4829017 350.310846,66.9045106 Z M232.54501,66.9042031 C232.662012,69.3631275 232.876008,71.6790523 233.155,73.578 C233.594,76.457 234.111,78.376 234.111,78.376 C234.111,78.376 234.628,76.457 235.067,73.578 C235.235,72.433 235.38,71.137 235.493,69.749 L234.263243,67.1785079 C236.598724,67.1019343 238.467,65.2703728 238.467,63.023 C238.467,60.726 236.517,58.864 234.111,58.864 C231.705,58.864 229.755,60.726 229.755,63.023 C229.755,63.2496914 229.774009,63.4721521 229.810589,63.6890076 C229.773907,63.4718504 229.755,63.2494642 229.755,63.023 C229.755,62.496 229.857,61.992 230.044,61.528 C227.733,61.628 225.541,61.803 223.678,62.03 L223.067,63.937 C225.053915,64.2019886 227.474792,64.4059825 230.044669,64.5169857 C230.486227,65.6112535 231.398627,66.4824579 232.54501,66.9042031 Z M114.779937,66.9042255 C114.803196,67.3969139 114.830319,67.8839024 114.861,68.363 C115.141,68.524 115.422,68.689 115.705,68.859 C116.328,69.231 117.003,69.609 117.708,69.99 C117.791949,69.0030167 117.860604,67.9670929 117.910993,66.9044195 C119.058502,66.4823955 119.971974,65.6099502 120.413341,64.5141775 C122.988606,64.4015697 125.415073,64.1960375 127.404,63.931 C130.42,63.512 132.43,63.023 132.43,63.023 C132.43,63.023 130.42,62.533 127.404,62.114 C125.415155,61.8497371 122.988806,61.643808 120.413214,61.5309643 C119.971484,60.4342403 119.057095,59.5613664 117.90855,59.1396948 C117.790564,56.6816767 117.574985,54.3655427 117.297,52.467 C116.859,49.588 116.346,47.669 116.346,47.669 C116.346,47.669 115.832,49.588 115.394,52.467 C115.116742,54.3657996 114.900739,56.6817202 114.78253,59.1398337 C113.634729,59.5612318 112.720923,60.4330104 112.278824,61.5284193 C109.703127,61.6396215 107.276844,61.8441783 105.287,62.11 C103.735,62.326 102.45,62.561 101.567,62.739 C102.841,63.109 104.082,63.503 105.31,63.938 C107.29586,64.2028322 109.713338,64.4065037 112.278811,64.5170068 C112.720572,65.6112841 113.633342,66.4824914 114.779937,66.9042255 Z" id="Combined-Shape" fill-opacity="0.5" fill="#BBBFCB"></path>
                            <path d="M452.689,69.968 L430.031,69.968 C422.968,69.968 417.04,75.047 416.281,81.749 L409.29,143.476 C408.798,147.825 404.951,151.122 400.368,151.122 L67.855,151.122 C63.272,151.122 59.424,147.825 58.932,143.476 L51.94,81.749 C51.182,75.047 45.254,69.968 38.192,69.968 L15.534,69.968 C7.281,69.968 0.865,76.823 1.792,84.651 L12.774,177.381 C14.035,188.035 23.477,196.085 34.71,196.085 L433.512,196.085 C444.745,196.085 454.186,188.035 455.448,177.381 L466.43,84.651 C467.357,76.823 460.941,69.968 452.689,69.968" id="Fill-18" fill="#BBBFCB"></path>
                            <path d="M221.774,124.546 L72.577,124.546 C67.127,124.546 62.71,126.773 62.71,129.519 L62.71,141.578 C62.71,144.326 67.127,146.552 72.577,146.552 L221.774,146.552 C227.223,146.552 231.641,144.326 231.641,141.578 L231.641,129.519 C231.641,126.773 227.223,124.546 221.774,124.546" id="Fill-19" fill="#BBBFCB"></path>
                            <path d="M395.646,124.546 L246.448,124.546 C240.999,124.546 236.581,126.773 236.581,129.519 L236.581,141.578 C236.581,144.326 240.999,146.552 246.448,146.552 L395.646,146.552 C401.095,146.552 405.512,144.326 405.512,141.578 L405.512,129.519 C405.512,126.773 401.095,124.546 395.646,124.546" id="Fill-20" fill="#BBBFCB"></path>
                            <path d="M376.113,105.144 C376.113,105.144 394.942,89.751 397.108,87.87 C403.656,82.181 404.799,77.837 404.799,77.837 L406.566,74.32 C406.566,74.32 411.035,75.044 409.788,79.698 L408.54,82.802 C408.54,82.802 411.035,87.766 407.917,93.352 C404.799,98.937 402.72,99.972 400.226,104.937 C397.732,109.902 399.23,118.688 396.172,122.211 C394.198,124.486 392.015,124.073 392.015,124.073 L375.489,122.521 L376.113,105.144" id="Fill-90" fill="#E4E6E9"></path>
                            <path d="M77.429,58.718 C77.429,58.718 74.179,48.824 74.562,46.541 C74.944,44.257 81.635,38.549 81.635,38.549 C81.635,38.549 82.4,35.695 80.68,33.983 C78.959,32.27 77.238,31.7 77.238,31.7 L74.562,26.943 L70.929,24.66 L72.076,19.903 L62.326,17.62 L61.178,15.146 C61.178,15.146 55.061,9.819 50.854,9.628 L30.78,18.952 L43.207,45.97 L46.648,53.771 C46.648,53.771 50.854,53.961 52.575,60.43 L64.428,64.806 L77.429,58.718" id="Fill-93" fill="#E4E6E9"></path>
                            <path d="M65.47,60.995 C64.232,60.995 62.867,60.951 61.362,60.852 C57.579,58.175 53.489,55.465 49.445,52.885 L50.281,45.399 C50.031,45.434 49.798,45.452 49.577,45.452 C47.437,45.452 46.5,43.819 43.207,41.403 C40.277,39.255 42.82,37.106 43.913,36.356 C45.659,37.583 47.456,38.699 49.305,39.676 C49.462,40.534 49.844,41.331 50.535,41.906 C52.653,43.665 56.06,44.278 59.795,44.278 C67.879,44.278 77.495,41.406 78.881,41.063 C77.923,41.987 76.884,43.049 76.063,44.04 C75.29,44.97 74.711,45.839 74.575,46.471 C74.575,46.472 74.575,46.473 74.574,46.474 C74.574,46.478 74.573,46.481 74.572,46.484 C74.572,46.486 74.572,46.488 74.571,46.489 C74.571,46.492 74.57,46.495 74.57,46.498 C74.569,46.5 74.569,46.503 74.568,46.505 C74.568,46.507 74.567,46.51 74.567,46.512 C74.566,46.515 74.566,46.518 74.565,46.521 C74.565,46.523 74.565,46.525 74.564,46.526 C74.563,46.531 74.563,46.536 74.562,46.541 C74.541,46.666 74.531,46.813 74.53,46.981 C74.526,49.32 76.421,55.542 77.149,57.845 C76.327,59.015 73.715,60.995 65.47,60.995" id="Fill-95" fill="#D3D6DD"></path>
                            <path d="M172.449,124.36 L171.875,76.413 L210.878,18.191 C210.878,18.191 227.511,1.067 240.129,17.62 C252.747,34.173 274.542,99.815 274.542,99.815 L249.88,99.815 L226.937,51.868 L209.731,105.523 L172.449,124.36" id="Fill-96" fill="#444F6C"></path>
                            <path d="M245.348,90.345 L226.937,51.868 L214.914,89.36 C207.196,90.512 209.90274,89.36 190.381,88.431 C190.372333,88.4603333 185.309667,88.341 175.193,88.073 C174.873,86.886 174.554,85.75 174.248,84.691 C174.501,84.566 174.756,84.41 175.011,84.218 C188.647,73.999 201.527,62.99 213.948,51.336 C221.888,43.887 226.826,38.723 237.088,38.723 C238.212,38.723 239.401,38.785 240.663,38.912 C244.563,39.307 248.71,40.501 252.819,41.969 C260.216,59.08 267.634,79.776 271.599,91.195 L245.348,90.345 Z" id="Fill-97" fill="#313C59"></path>
                            <path d="M172.449,124.36 C172.449,124.36 197.686,123.789 210.878,124.36 L270.528,120.935 L377.21,124.36 L377.784,102.099 L273.396,91.254 L168.72,87.863 L172.449,124.36" id="Fill-100" fill="#444F6C"></path>
                            <path d="M52.575,59.859 C52.575,59.859 47.25,77.582 55.281,88.998 C63.31,100.414 66.803,101.728 83.022,107.152 C102.257,113.584 104.305,116.229 136.987,122.658 C138.654,122.986 180.241,124.549 176.13,124.549 C175.802,124.549 179.217,120.554 178.567,106.094 C178.083,95.324 171.95,77.274 171.95,77.274 C171.95,77.274 128.311,75.845 126.346,74.626 C123.485,72.852 118.907,70.77 115.705,68.859 C107.901,64.198 101.779,62.604 92.913,60.558 L77.525,57.005 C77.525,57.005 76.951,63.57 52.575,59.859" id="Fill-105" fill="#00AADF"></path>
                            <path d="M2.551,34.253 C2.551,34.253 7.967,28.296 19.082,27.161 L18.798,39.075 L2.551,34.253" id="Fill-107" fill="#D3D6DD"></path>
                            <path d="M49.707,0.876 C49.707,0.876 52.193,8.867 47.413,11.722 C42.633,14.575 41.104,18.761 41.104,18.761 C41.104,18.761 50.663,27.133 50.472,30.748 C50.281,34.364 49.898,37.788 49.898,37.788 L44.354,36.076 C44.354,36.076 39.575,38.74 43.207,41.403 C46.84,44.067 47.604,45.78 50.281,45.399 L49.134,55.673 L46.648,55.864 C46.648,55.864 24.28,48.824 21.603,44.448 C18.926,40.072 17.97,34.173 18.926,32.08 C18.926,32.08 15.103,24.469 21.794,17.81 C28.486,11.151 49.707,0.876 49.707,0.876" id="Fill-108" fill="#7B8397"></path>
                            <path d="M20.698,16.383 L29.819,8.44 C29.819,8.44 32.479,20.921 42.739,33.78 L39.699,38.697 C39.699,38.697 24.498,28.107 20.698,16.383" id="Fill-109" fill="#C0C1BC"></path>
                            <path d="M40.886,31.301 C32.185,19.366 29.819,8.44 29.819,8.44 L19.558,15.248 C22.2,23.401 31.474,32.117 36.194,35.99 C37.462,34.136 39.041,32.546 40.886,31.301" id="Fill-110" fill="#FFFFFE"></path>
                            <path d="M58.321,42.29 C58.321,48.034 53.642,52.69 47.87,52.69 C42.098,52.69 37.419,48.034 37.419,42.29 C37.419,36.546 42.098,31.889 47.87,31.889 C53.642,31.889 58.321,36.546 58.321,42.29" id="Fill-111" fill="#FFFFFE"></path>
                            <path d="M52.43,42.29 C52.43,44.796 50.389,46.828 47.87,46.828 C45.351,46.828 43.31,44.796 43.31,42.29 C43.31,39.783 45.351,37.751 47.87,37.751 C50.389,37.751 52.43,39.783 52.43,42.29" id="Fill-112" fill="#7B8397"></path>
                            <path d="M27.402,55.149 C30.384,52.505 33.246,49.695 36.053,46.838 L16.892,33.755 C16.892,33.755 7.76,32.041 4.93,33.021 C-4.162,36.166 2.139,40.135 6.023,49.119 C7.481,52.49 13.103,57.694 19.227,62.672 C21.651,59.875 24.597,57.635 27.402,55.149" id="Fill-113" fill="#E4E6E9"></path>
                            <path d="M10.121,54.528 C8.631,52.985 7.427,51.547 6.646,50.289 C6.392,49.879 6.183,49.488 6.023,49.119 C6.015,49.1 6.006,49.08 5.998,49.061 C5.996,49.056 5.994,49.052 5.992,49.047 C5.985,49.032 5.979,49.018 5.973,49.004 C5.969,48.994 5.964,48.983 5.96,48.973 C5.956,48.964 5.952,48.955 5.948,48.947 C4.77,46.262 3.386,44.033 2.276,42.137 C5.575,44.586 9.988,45.985 13.92,45.985 C14.102,45.985 14.284,45.982 14.465,45.976 C15.896,45.928 17.403,45.624 18.825,45.082 C16.491,48.242 13.832,51.262 11.089,53.728 C11.101,53.679 11.113,53.629 11.126,53.58 C10.789,53.884 10.456,54.213 10.121,54.528" id="Fill-115" fill="#D3D6DD"></path>
                            <path d="M76.354,73.535 C66.334,61.137 23.648,37.488 23.648,37.488 C20.321,43.739 14.911,50.751 9.369,55.191 C17.781,64.417 36.008,77.122 36.008,77.122 C36.008,77.122 65.188,100.281 74.309,95.569 C83.43,90.857 79.838,77.845 76.354,73.535" id="Fill-116" fill="#00AADF"></path>
                            <polyline id="Fill-127" fill="#FEF1E9" points="8.835 56.132 23.695 37.065 29.343 39.926 14.095 60.633 8.835 56.132"></polyline>
                            <polyline id="Fill-128" fill="#BBBFCB" points="371.466 99.588 378.307 100.344 377.21 124.36 369.946 124.171 371.466 99.588"></polyline>
                        </g>
                    </g>
                </g>
            </g>
        </g>
    </g>
</svg>