<?xml version="1.0" encoding="UTF-8"?>
<svg width="510px" height="280px" viewBox="0 0 510 280" version="1.1" xmlns="http://www.w3.org/2000/svg" xmlns:xlink="http://www.w3.org/1999/xlink">
    <!-- Generator: sketchtool 47.1 (45422) - http://www.bohemiancoding.com/sketch -->
    <title>63F0AD42-654E-442F-BF49-08616DB1CCF7</title>
    <desc>Created with sketchtool.</desc>
    <defs>
        <rect id="path-1" x="0" y="0" width="510" height="280" rx="4"></rect>
    </defs>
    <g id="→-Developers" stroke="none" stroke-width="1" fill="none" fill-rule="evenodd">
        <g id="Shoutem-Web---Developers-v2" transform="translate(-165.000000, -1425.000000)">
            <g id="Group-37" transform="translate(0.000000, 1243.000000)">
                <g id="devs-step1" transform="translate(165.000000, 182.000000)">
                    <mask id="mask-2" fill="white">
                        <use xlink:href="#path-1"></use>
                    </mask>
                    <use id="Mask" fill="#E6F7FC" xlink:href="#path-1"></use>
                    <g id="Group" mask="url(#mask-2)" fill-rule="nonzero">
                        <g transform="translate(48.000000, -42.000000)">
                            <path d="M370.455657,3.30851735 L38.0012774,3.30851735 C36.9732633,3.30809532 36.0130549,3.82133963 35.4424642,4.67623745 C34.8718734,5.53113527 34.7664045,6.61456111 35.1614051,7.56340694 L71.6935219,95.6138801 C72.1724427,96.7590213 73.2918592,97.5051004 74.5333942,97.5066246 L333.931113,97.5066246 C335.164371,97.4960035 336.272566,96.7514466 336.748266,95.6138801 L373.295529,7.56340694 C373.69053,6.61456111 373.585061,5.53113527 373.01447,4.67623745 C372.443879,3.82133963 371.483671,3.30809532 370.455657,3.30851735 L370.455657,3.30851735 Z" id="Shape" fill="#313C59"></path>
                            <path d="M370.455657,1.98359621 L38.0012774,1.98359621 C36.5396241,1.99019233 35.17632,2.72079822 34.3616856,3.93408343 C33.5470511,5.14736864 33.3870677,6.68548865 33.9345803,8.04037855 L70.4666971,96.0757098 C71.14515,97.7181886 72.7483329,98.7886863 74.5258212,98.7861199 L333.931113,98.7861199 C335.708601,98.7886863 337.311784,97.7181886 337.990237,96.0757098 L374.522354,8.04037855 C375.069867,6.68548865 374.909883,5.14736864 374.095249,3.93408343 C373.280614,2.72079822 371.91731,1.99019233 370.455657,1.98359621 Z M372.076277,7.05615142 L335.551734,95.0914826 C335.278936,95.7447071 334.639168,96.1691134 333.931113,96.1665615 L74.5106752,96.1665615 C73.8026207,96.1691134 73.1628521,95.7447071 72.8900547,95.0914826 L36.3655109,7.03343849 C36.1396361,6.49259356 36.1997633,5.87459163 36.5256584,5.38740138 C36.8515536,4.90021112 37.3998858,4.60860946 37.9861314,4.61072555 L370.440511,4.61072555 C371.026757,4.60860946 371.575089,4.90021112 371.900984,5.38740138 C372.226879,5.87459163 372.287006,6.49259356 372.061131,7.03343849 L372.076277,7.05615142 Z" id="Shape" fill="#313C59"></path>
                            <polygon id="Shape" fill="#00AADF" points="81.9129562 87.014511 326.452464 87.014511 357.357847 14 51 14"></polygon>
                            <path d="M78.2138686,98.4227129 L326.789781,98.4227129 C331.528495,98.4227129 335.369982,102.263178 335.369982,107.000631 L335.369982,268.012618 C335.369982,272.750072 331.528495,276.590536 326.789781,276.590536 L78.2138686,276.590536 C73.473928,276.590538 69.6302747,272.751296 69.6260949,268.012618 L69.6260949,107.023344 C69.6200546,104.743093 70.5224105,102.554276 72.1338043,100.94047 C73.7451981,99.3266637 75.9330041,98.4206924 78.2138686,98.4227129 Z" id="Shape" fill="#FFFFFF"></path>
                            <rect id="Rectangle-path" fill="#E4E6E9" x="97.7824818" y="116.638486" width="209.438686" height="83.0687697" rx="5.14826498"></rect>
                            <path d="M102.41697,119.553312 L114.428103,119.553312 L114.428103,119.553312 C114.808605,119.553312 115.117062,119.86177 115.117062,120.242271 L115.117062,125.73123 C115.117062,126.111732 114.808605,126.420189 114.428103,126.420189 L102.41697,126.420189 C102.036468,126.420189 101.728011,126.111732 101.728011,125.73123 L101.728011,120.242271 L101.728011,120.242271 C101.728011,119.86177 102.036468,119.553312 102.41697,119.553312 L102.41697,119.553312 Z M275.777919,119.553312 L287.789052,119.553312 L287.789052,119.553312 C288.169554,119.553312 288.478011,119.86177 288.478011,120.242271 L288.478011,125.73123 C288.478011,126.111732 288.169554,126.420189 287.789052,126.420189 L275.777919,126.420189 C275.397417,126.420189 275.08896,126.111732 275.08896,125.73123 L275.08896,120.242271 L275.08896,120.242271 C275.08896,119.86177 275.397417,119.553312 275.777919,119.553312 L275.777919,119.553312 Z M261.336222,119.553312 L273.347355,119.553312 L273.347355,119.553312 C273.727856,119.553312 274.036314,119.86177 274.036314,120.242271 L274.036314,125.73123 C274.036314,126.111732 273.727856,126.420189 273.347355,126.420189 L261.336222,126.420189 C260.95572,126.420189 260.647263,126.111732 260.647263,125.73123 L260.647263,120.242271 L260.647263,120.242271 C260.647263,119.86177 260.95572,119.553312 261.336222,119.553312 L261.336222,119.553312 Z M246.886952,119.553312 L258.898085,119.553312 L258.898085,119.553312 C259.278586,119.553312 259.587044,119.86177 259.587044,120.242271 L259.587044,125.73123 C259.587044,126.111732 259.278586,126.420189 258.898085,126.420189 L246.886952,126.420189 C246.50645,126.420189 246.197993,126.111732 246.197993,125.73123 L246.197993,120.242271 L246.197993,120.242271 C246.197993,119.86177 246.50645,119.553312 246.886952,119.553312 L246.886952,119.553312 Z M232.437682,119.553312 L244.448815,119.553312 C244.829316,119.553312 245.137774,119.86177 245.137774,120.242271 L245.137774,125.73123 C245.137774,126.111732 244.829316,126.420189 244.448815,126.420189 L232.437682,126.420189 C232.05718,126.420189 231.748723,126.111732 231.748723,125.73123 L231.748723,120.242271 C231.748723,119.86177 232.05718,119.553312 232.437682,119.553312 L232.437682,119.553312 Z M217.995985,119.553312 L230.007118,119.553312 C230.387619,119.553312 230.696077,119.86177 230.696077,120.242271 L230.696077,125.73123 C230.696077,126.111732 230.387619,126.420189 230.007118,126.420189 L217.995985,126.420189 C217.615483,126.420189 217.307026,126.111732 217.307026,125.73123 L217.307026,120.242271 C217.307026,119.86177 217.615483,119.553312 217.995985,119.553312 L217.995985,119.553312 Z M203.546714,119.553312 L215.557848,119.553312 L215.557848,119.553312 C215.938349,119.553312 216.246807,119.86177 216.246807,120.242271 L216.246807,125.73123 C216.246807,126.111732 215.938349,126.420189 215.557848,126.420189 L203.546714,126.420189 C203.166213,126.420189 202.857755,126.111732 202.857755,125.73123 L202.857755,120.242271 L202.857755,120.242271 C202.857755,119.86177 203.166213,119.553312 203.546714,119.553312 L203.546714,119.553312 Z M189.097444,119.553312 L201.108578,119.553312 C201.489079,119.553312 201.797536,119.86177 201.797536,120.242271 L201.797536,125.73123 C201.797536,126.111732 201.489079,126.420189 201.108578,126.420189 L189.097444,126.420189 C188.716943,126.420189 188.408485,126.111732 188.408485,125.73123 L188.408485,120.242271 L188.408485,120.242271 C188.408485,119.86177 188.716943,119.553312 189.097444,119.553312 L189.097444,119.553312 Z M174.648174,119.553312 L186.659307,119.553312 C187.039809,119.553312 187.348266,119.86177 187.348266,120.242271 L187.348266,125.73123 C187.348266,126.111732 187.039809,126.420189 186.659307,126.420189 L174.648174,126.420189 C174.267673,126.420189 173.959215,126.111732 173.959215,125.73123 L173.959215,120.242271 L173.959215,120.242271 C173.959215,119.86177 174.267673,119.553312 174.648174,119.553312 L174.648174,119.553312 Z M160.206477,119.553312 L172.21761,119.553312 L172.21761,119.553312 C172.598112,119.553312 172.906569,119.86177 172.906569,120.242271 L172.906569,125.73123 C172.906569,126.111732 172.598112,126.420189 172.21761,126.420189 L160.206477,126.420189 C159.825976,126.420189 159.517518,126.111732 159.517518,125.73123 L159.517518,120.242271 L159.517518,120.242271 C159.517518,119.86177 159.825976,119.553312 160.206477,119.553312 L160.206477,119.553312 Z M145.757207,119.553312 L157.76834,119.553312 L157.76834,119.553312 C158.148842,119.553312 158.457299,119.86177 158.457299,120.242271 L158.457299,125.73123 C158.457299,126.111732 158.148842,126.420189 157.76834,126.420189 L145.757207,126.420189 C145.376706,126.420189 145.068248,126.111732 145.068248,125.73123 L145.068248,120.242271 L145.068248,120.242271 C145.068248,119.86177 145.376706,119.553312 145.757207,119.553312 L145.757207,119.553312 Z M131.307937,119.553312 L143.31907,119.553312 C143.699572,119.553312 144.008029,119.86177 144.008029,120.242271 L144.008029,125.73123 C144.008029,126.111732 143.699572,126.420189 143.31907,126.420189 L131.307937,126.420189 C130.927436,126.420189 130.618978,126.111732 130.618978,125.73123 L130.618978,120.242271 L130.618978,120.242271 C130.618978,119.86177 130.927436,119.553312 131.307937,119.553312 L131.307937,119.553312 Z M116.86624,119.553312 L128.877373,119.553312 L128.877373,119.553312 C129.257875,119.553312 129.566332,119.86177 129.566332,120.242271 L129.566332,125.73123 C129.566332,126.111732 129.257875,126.420189 128.877373,126.420189 L116.86624,126.420189 C116.485738,126.420189 116.177281,126.111732 116.177281,125.73123 L116.177281,120.242271 L116.177281,120.242271 C116.177281,119.86177 116.485738,119.553312 116.86624,119.553312 L116.86624,119.553312 Z M290.227189,119.553312 L302.238322,119.553312 L302.238322,119.553312 C302.618824,119.553312 302.927281,119.86177 302.927281,120.242271 L302.927281,125.73123 C302.927281,126.111732 302.618824,126.420189 302.238322,126.420189 L290.227189,126.420189 C289.846687,126.420189 289.53823,126.111732 289.53823,125.73123 L289.53823,120.242271 L289.53823,120.242271 C289.53823,119.86177 289.846687,119.553312 290.227189,119.553312 L290.227189,119.553312 Z M263.555109,142.281388 L274.710494,142.281388 C275.090995,142.281388 275.399453,142.589845 275.399453,142.970347 L275.399453,152.577918 L275.399453,152.577918 C275.399453,152.95842 275.090995,153.266877 274.710494,153.266877 L263.555109,153.266877 L263.555109,153.266877 C263.174607,153.266877 262.86615,152.95842 262.86615,152.577918 L262.86615,142.970347 C262.86615,142.589845 263.174607,142.281388 263.555109,142.281388 Z M249.522536,142.281388 L260.677555,142.281388 C261.058158,142.281388 261.366697,142.589845 261.366697,142.970347 L261.366697,152.577918 C261.366697,152.95842 261.058158,153.266877 260.677555,153.266877 L249.522536,153.266877 C249.146116,153.266877 248.840967,152.961809 248.840967,152.585489 L248.840967,142.970347 C248.840944,142.592783 249.144894,142.285537 249.522536,142.281388 L249.522536,142.281388 Z M235.504744,142.281388 L246.660129,142.281388 C247.04063,142.281388 247.349088,142.589845 247.349088,142.970347 L247.349088,152.577918 C247.349088,152.95842 247.04063,153.266877 246.660129,153.266877 L235.504744,153.266877 C235.124242,153.266877 234.815785,152.95842 234.815785,152.577918 L234.815785,142.970347 C234.815785,142.589845 235.124242,142.281388 235.504744,142.281388 Z M221.479561,142.281388 L232.634946,142.281388 C233.015448,142.281388 233.323905,142.589845 233.323905,142.970347 L233.323905,152.577918 C233.323905,152.95842 233.015448,153.266877 232.634946,153.266877 L221.479561,153.266877 C221.09906,153.266877 220.790602,152.95842 220.790602,152.577918 L220.790602,142.970347 C220.790602,142.589845 221.09906,142.281388 221.479561,142.281388 Z M207.454379,142.281388 L218.609764,142.281388 C218.990265,142.281388 219.298723,142.589845 219.298723,142.970347 L219.298723,152.577918 C219.298723,152.95842 218.990265,153.266877 218.609764,153.266877 L207.454379,153.266877 C207.073877,153.266877 206.76542,152.95842 206.76542,152.577918 L206.76542,142.970347 C206.76542,142.589845 207.073877,142.281388 207.454379,142.281388 Z M193.429196,142.281388 L204.584581,142.281388 C204.965083,142.281388 205.27354,142.589845 205.27354,142.970347 L205.27354,152.577918 C205.27354,152.95842 204.965083,153.266877 204.584581,153.266877 L193.429196,153.266877 C193.048695,153.266877 192.740237,152.95842 192.740237,152.577918 L192.740237,142.970347 C192.740237,142.589845 193.048695,142.281388 193.429196,142.281388 Z M179.404014,142.281388 L190.559399,142.281388 C190.9399,142.281388 191.248358,142.589845 191.248358,142.970347 L191.248358,152.577918 C191.248358,152.95842 190.9399,153.266877 190.559399,153.266877 L179.404014,153.266877 C179.023512,153.266877 178.715055,152.95842 178.715055,152.577918 L178.715055,142.970347 C178.715055,142.589845 179.023512,142.281388 179.404014,142.281388 Z M165.378831,142.281388 L176.534216,142.281388 C176.914718,142.281388 177.223175,142.589845 177.223175,142.970347 L177.223175,152.577918 C177.223175,152.95842 176.914718,153.266877 176.534216,153.266877 L165.378831,153.266877 C164.99833,153.266877 164.689872,152.95842 164.689872,152.577918 L164.689872,142.970347 C164.689872,142.589845 164.99833,142.281388 165.378831,142.281388 Z M151.361222,142.281388 L162.516607,142.281388 C162.897108,142.281388 163.205566,142.589845 163.205566,142.970347 L163.205566,152.577918 C163.205566,152.95842 162.897108,153.266877 162.516607,153.266877 L151.361222,153.266877 C150.98072,153.266877 150.672263,152.95842 150.672263,152.577918 L150.672263,142.970347 C150.672263,142.589845 150.98072,142.281388 151.361222,142.281388 Z M137.336039,142.281388 L148.491424,142.281388 C148.871926,142.281388 149.180383,142.589845 149.180383,142.970347 L149.180383,152.577918 C149.180383,152.95842 148.871926,153.266877 148.491424,153.266877 L137.336039,153.266877 C136.955538,153.266877 136.64708,152.95842 136.64708,152.577918 L136.64708,142.970347 C136.64708,142.589845 136.955538,142.281388 137.336039,142.281388 Z M123.310857,142.281388 L134.466242,142.281388 C134.846743,142.281388 135.155201,142.589845 135.155201,142.970347 L135.155201,152.577918 L135.155201,152.577918 C135.155201,152.95842 134.846743,153.266877 134.466242,153.266877 L123.310857,153.266877 C122.930355,153.266877 122.621898,152.95842 122.621898,152.577918 L122.621898,142.970347 C122.621898,142.589845 122.930355,142.281388 123.310857,142.281388 Z M277.572718,142.281388 L288.728103,142.281388 C289.108605,142.281388 289.417062,142.589845 289.417062,142.970347 L289.417062,152.577918 C289.417062,152.95842 289.108605,153.266877 288.728103,153.266877 L277.572718,153.266877 C277.192217,153.266877 276.883759,152.95842 276.883759,152.577918 L276.883759,142.970347 C276.883759,142.589845 277.192217,142.281388 277.572718,142.281388 Z M102.41697,142.281388 L120.441059,142.281388 C120.821561,142.281388 121.130018,142.589845 121.130018,142.970347 L121.130018,152.577918 C121.130018,152.95842 120.821561,153.266877 120.441059,153.266877 L102.41697,153.266877 L102.41697,153.266877 C102.036468,153.266877 101.728011,152.95842 101.728011,152.577918 L101.728011,142.970347 C101.728011,142.589845 102.036468,142.281388 102.41697,142.281388 L102.41697,142.281388 Z M127.044342,155.697161 L138.199727,155.697161 C138.580229,155.697161 138.888686,156.005618 138.888686,156.38612 L138.888686,165.993691 L138.888686,165.993691 C138.888686,166.374192 138.580229,166.68265 138.199727,166.68265 L127.044342,166.68265 C126.663841,166.68265 126.355383,166.374192 126.355383,165.993691 L126.355383,156.38612 C126.355383,156.005618 126.663841,155.697161 127.044342,155.697161 Z M266.894798,155.697161 L278.050183,155.697161 C278.430685,155.697161 278.739142,156.005618 278.739142,156.38612 L278.739142,165.993691 C278.739142,166.374192 278.430685,166.68265 278.050183,166.68265 L266.894798,166.68265 C266.514297,166.68265 266.205839,166.374192 266.205839,165.993691 L266.205839,156.38612 C266.205839,156.005618 266.514297,155.697161 266.894798,155.697161 Z M252.907481,155.697161 L264.062866,155.697161 C264.443367,155.697161 264.751825,156.005618 264.751825,156.38612 L264.751825,165.993691 C264.751825,166.374192 264.443367,166.68265 264.062866,166.68265 L252.907481,166.68265 C252.526979,166.68265 252.218522,166.374192 252.218522,165.993691 L252.218522,156.38612 C252.218522,156.005618 252.526979,155.697161 252.907481,155.697161 Z M238.927736,155.697161 L250.083121,155.697161 C250.463623,155.697161 250.77208,156.005618 250.77208,156.38612 L250.77208,165.993691 C250.77208,166.374192 250.463623,166.68265 250.083121,166.68265 L238.927736,166.68265 C238.547235,166.68265 238.238777,166.374192 238.238777,165.993691 L238.238777,156.38612 C238.238777,156.005618 238.547235,155.697161 238.927736,155.697161 Z M224.940419,155.697161 L236.095804,155.697161 C236.476305,155.697161 236.784763,156.005618 236.784763,156.38612 L236.784763,165.993691 L236.784763,165.993691 C236.784763,166.374192 236.476305,166.68265 236.095804,166.68265 L224.940419,166.68265 C224.559917,166.68265 224.25146,166.374192 224.25146,165.993691 L224.25146,156.38612 C224.25146,156.005618 224.559917,155.697161 224.940419,155.697161 Z M210.953101,155.697161 L222.108486,155.697161 C222.488988,155.697161 222.797445,156.005618 222.797445,156.38612 L222.797445,165.993691 C222.797445,166.374192 222.488988,166.68265 222.108486,166.68265 L210.953101,166.68265 C210.5726,166.68265 210.264142,166.374192 210.264142,165.993691 L210.264142,156.38612 C210.264142,156.005618 210.5726,155.697161 210.953101,155.697161 Z M196.965784,155.697161 L208.121169,155.697161 C208.50167,155.697161 208.810128,156.005618 208.810128,156.38612 L208.810128,165.993691 C208.810128,166.374192 208.50167,166.68265 208.121169,166.68265 L196.965784,166.68265 C196.585282,166.68265 196.276825,166.374192 196.276825,165.993691 L196.276825,156.38612 C196.276825,156.005618 196.585282,155.697161 196.965784,155.697161 Z M182.986039,155.697161 L194.141424,155.697161 C194.521926,155.697161 194.830383,156.005618 194.830383,156.38612 L194.830383,165.993691 C194.830383,166.374192 194.521926,166.68265 194.141424,166.68265 L182.986039,166.68265 C182.605538,166.68265 182.29708,166.374192 182.29708,165.993691 L182.29708,156.38612 C182.29708,156.005618 182.605538,155.697161 182.986039,155.697161 Z M168.998722,155.697161 L180.154107,155.697161 C180.534608,155.697161 180.843066,156.005618 180.843066,156.38612 L180.843066,165.993691 C180.843066,166.374192 180.534608,166.68265 180.154107,166.68265 L168.998722,166.68265 C168.61822,166.68265 168.309763,166.374192 168.309763,165.993691 L168.309763,156.38612 C168.309763,156.005618 168.61822,155.697161 168.998722,155.697161 Z M155.018977,155.697161 L166.174362,155.697161 C166.554864,155.697161 166.863321,156.005618 166.863321,156.38612 L166.863321,165.993691 C166.863321,166.374192 166.554864,166.68265 166.174362,166.68265 L155.018977,166.68265 C154.638476,166.68265 154.330018,166.374192 154.330018,165.993691 L154.330018,156.38612 C154.330018,156.005618 154.638476,155.697161 155.018977,155.697161 Z M141.03166,155.697161 L152.187045,155.697161 C152.567546,155.697161 152.876004,156.005618 152.876004,156.38612 L152.876004,165.993691 C152.876004,166.374192 152.567546,166.68265 152.187045,166.68265 L141.03166,166.68265 C140.651158,166.68265 140.342701,166.374192 140.342701,165.993691 L140.342701,156.38612 C140.342701,156.005618 140.651158,155.697161 141.03166,155.697161 Z M280.882116,155.697161 L292.037501,155.697161 C292.418002,155.697161 292.72646,156.005618 292.72646,156.38612 L292.72646,165.993691 C292.72646,166.374192 292.418002,166.68265 292.037501,166.68265 L280.882116,166.68265 C280.501614,166.68265 280.193157,166.374192 280.193157,165.993691 L280.193157,156.38612 C280.193157,156.005618 280.501614,155.697161 280.882116,155.697161 Z M102.41697,155.697161 L124.21241,155.697161 C124.592911,155.697161 124.901369,156.005618 124.901369,156.38612 L124.901369,165.993691 L124.901369,165.993691 C124.901369,166.374192 124.592911,166.68265 124.21241,166.68265 L102.41697,166.68265 L102.41697,166.68265 C102.036468,166.68265 101.728011,166.374192 101.728011,165.993691 L101.728011,156.38612 L101.728011,156.38612 C101.728011,156.005618 102.036468,155.697161 102.41697,155.697161 L102.41697,155.697161 Z M133.6177,169.120505 L144.773085,169.120505 C145.153586,169.120505 145.462044,169.428962 145.462044,169.809464 L145.462044,179.417035 C145.462044,179.797536 145.153586,180.105994 144.773085,180.105994 L133.6177,180.105994 C133.237198,180.105994 132.928741,179.797536 132.928741,179.417035 L132.928741,169.809464 C132.928741,169.428962 133.237198,169.120505 133.6177,169.120505 Z M259.88978,169.120505 L271.045165,169.120505 C271.425667,169.120505 271.734124,169.428962 271.734124,169.809464 L271.734124,179.417035 C271.734124,179.797536 271.425667,180.105994 271.045165,180.105994 L259.88978,180.105994 C259.509279,180.105994 259.200821,179.797536 259.200821,179.417035 L259.200821,169.809464 C259.200821,169.428962 259.509279,169.120505 259.88978,169.120505 Z M245.857025,169.120505 L257.01241,169.120505 C257.392911,169.120505 257.701369,169.428962 257.701369,169.809464 L257.701369,179.417035 L257.701369,179.417035 C257.701369,179.797536 257.392911,180.105994 257.01241,180.105994 L245.857025,180.105994 C245.476523,180.105994 245.168066,179.797536 245.168066,179.417035 L245.168066,169.809464 C245.168066,169.428962 245.476523,169.120505 245.857025,169.120505 Z M231.824269,169.120505 L242.979654,169.120505 C243.360156,169.120505 243.668613,169.428962 243.668613,169.809464 L243.668613,179.417035 C243.668613,179.797536 243.360156,180.105994 242.979654,180.105994 L231.824269,180.105994 C231.443768,180.105994 231.13531,179.797536 231.13531,179.417035 L231.13531,169.809464 C231.13531,169.428962 231.443768,169.120505 231.824269,169.120505 Z M217.799087,169.120505 L228.954472,169.120505 C229.334973,169.120505 229.643431,169.428962 229.643431,169.809464 L229.643431,179.417035 C229.643431,179.797536 229.334973,180.105994 228.954472,180.105994 L217.799087,180.105994 C217.418585,180.105994 217.110128,179.797536 217.110128,179.417035 L217.110128,169.809464 C217.110128,169.428962 217.418585,169.120505 217.799087,169.120505 Z M203.766331,169.120505 L214.921716,169.120505 C215.302218,169.120505 215.610675,169.428962 215.610675,169.809464 L215.610675,179.417035 C215.610675,179.797536 215.302218,180.105994 214.921716,180.105994 L203.766331,180.105994 C203.38583,180.105994 203.077372,179.797536 203.077372,179.417035 L203.077372,169.809464 C203.077372,169.428962 203.38583,169.120505 203.766331,169.120505 Z M189.733576,169.120505 L200.888961,169.120505 C201.269462,169.120505 201.57792,169.428962 201.57792,169.809464 L201.57792,179.417035 C201.57792,179.797536 201.269462,180.105994 200.888961,180.105994 L189.733576,180.105994 C189.353074,180.105994 189.044617,179.797536 189.044617,179.417035 L189.044617,169.809464 C189.044617,169.428962 189.353074,169.120505 189.733576,169.120505 Z M175.708393,169.120505 L186.863778,169.120505 C187.24428,169.120505 187.552737,169.428962 187.552737,169.809464 L187.552737,179.417035 C187.552737,179.797536 187.24428,180.105994 186.863778,180.105994 L175.708393,180.105994 C175.327892,180.105994 175.019434,179.797536 175.019434,179.417035 L175.019434,169.809464 C175.019434,169.428962 175.327892,169.120505 175.708393,169.120505 Z M161.675638,169.120505 L172.831023,169.120505 C173.211524,169.120505 173.519982,169.428962 173.519982,169.809464 L173.519982,179.417035 C173.519982,179.797536 173.211524,180.105994 172.831023,180.105994 L161.675638,180.105994 C161.295136,180.105994 160.986679,179.797536 160.986679,179.417035 L160.986679,169.809464 C160.986679,169.428962 161.295136,169.120505 161.675638,169.120505 Z M147.642882,169.120505 L158.798267,169.120505 C159.178769,169.120505 159.487226,169.428962 159.487226,169.809464 L159.487226,179.417035 C159.487226,179.797536 159.178769,180.105994 158.798267,180.105994 L147.642882,180.105994 C147.262381,180.105994 146.953923,179.797536 146.953923,179.417035 L146.953923,169.809464 C146.953923,169.428962 147.262381,169.120505 147.642882,169.120505 Z M102.41697,169.120505 L130.740329,169.120505 C131.120831,169.120505 131.429288,169.428962 131.429288,169.809464 L131.429288,179.417035 C131.429288,179.797536 131.120831,180.105994 130.740329,180.105994 L102.41697,180.105994 L102.41697,180.105994 C102.036468,180.105994 101.728011,179.797536 101.728011,179.417035 L101.728011,169.809464 L101.728011,169.809464 C101.728011,169.428962 102.036468,169.120505 102.41697,169.120505 L102.41697,169.120505 Z M273.914963,169.120505 L302.238322,169.120505 C302.618824,169.120505 302.927281,169.428962 302.927281,169.809464 L302.927281,179.417035 C302.927281,179.797536 302.618824,180.105994 302.238322,180.105994 L273.914963,180.105994 C273.534461,180.105994 273.226004,179.797536 273.226004,179.417035 L273.226004,169.809464 C273.226004,169.428962 273.534461,169.120505 273.914963,169.120505 Z M102.41697,128.858044 L113.572355,128.858044 C113.952856,128.858044 114.261314,129.166502 114.261314,129.547003 L114.261314,139.154574 L114.261314,139.154574 C114.261314,139.535076 113.952856,139.843533 113.572355,139.843533 L102.41697,139.843533 C102.036468,139.843533 101.728011,139.535076 101.728011,139.154574 L101.728011,129.547003 C101.728011,129.166502 102.036468,128.858044 102.41697,128.858044 L102.41697,128.858044 Z M283.873631,128.858044 L302.245712,128.858044 C302.622132,128.858044 302.927281,129.163112 302.927281,129.539432 L302.927281,139.154574 C302.927281,139.535076 302.618741,139.843533 302.238139,139.843533 L283.873631,139.843533 C283.493029,139.843533 283.184489,139.535076 283.184489,139.154574 L283.184489,129.547003 C283.184489,129.36428 283.257095,129.18904 283.386334,129.059836 C283.515573,128.930631 283.690859,128.858044 283.873631,128.858044 Z M255.959397,128.858044 L267.114782,128.858044 C267.495283,128.858044 267.803741,129.166502 267.803741,129.547003 L267.803741,139.154574 C267.803741,139.535076 267.495283,139.843533 267.114782,139.843533 L255.959397,139.843533 L255.959397,139.843533 C255.578895,139.843533 255.270438,139.535076 255.270438,139.154574 L255.270438,129.547003 C255.270438,129.166502 255.578895,128.858044 255.959397,128.858044 Z M242.002371,128.858044 L253.157756,128.858044 C253.538258,128.858044 253.846715,129.166502 253.846715,129.547003 L253.846715,139.154574 L253.846715,139.154574 C253.846715,139.535076 253.538258,139.843533 253.157756,139.843533 L242.002371,139.843533 C241.62187,139.843533 241.313412,139.535076 241.313412,139.154574 L241.313412,129.547003 C241.313412,129.166502 241.62187,128.858044 242.002371,128.858044 Z M228.045346,128.858044 L239.200731,128.858044 C239.581232,128.858044 239.88969,129.166502 239.88969,129.547003 L239.88969,139.154574 L239.88969,139.154574 C239.88969,139.535076 239.581232,139.843533 239.200731,139.843533 L228.045346,139.843533 C227.664844,139.843533 227.356387,139.535076 227.356387,139.154574 L227.356387,129.547003 C227.356387,129.166502 227.664844,128.858044 228.045346,128.858044 Z M214.080747,128.858044 L225.236132,128.858044 C225.616634,128.858044 225.925091,129.166502 225.925091,129.547003 L225.925091,139.154574 C225.925091,139.535076 225.616634,139.843533 225.236132,139.843533 L214.080747,139.843533 C213.700246,139.843533 213.391788,139.535076 213.391788,139.154574 L213.391788,129.547003 C213.391788,129.166502 213.700246,128.858044 214.080747,128.858044 Z M200.123722,128.858044 L211.279107,128.858044 C211.659608,128.858044 211.968066,129.166502 211.968066,129.547003 L211.968066,139.154574 C211.968066,139.535076 211.659608,139.843533 211.279107,139.843533 L200.123722,139.843533 C199.74322,139.843533 199.434763,139.535076 199.434763,139.154574 L199.434763,129.547003 C199.434763,129.166502 199.74322,128.858044 200.123722,128.858044 Z M186.166696,128.858044 L197.322081,128.858044 C197.702583,128.858044 198.01104,129.166502 198.01104,129.547003 L198.01104,139.154574 C198.01104,139.535076 197.702583,139.843533 197.322081,139.843533 L186.166696,139.843533 C185.786195,139.843533 185.477737,139.535076 185.477737,139.154574 L185.477737,129.547003 C185.477737,129.166502 185.786195,128.858044 186.166696,128.858044 Z M172.209671,128.858044 L183.365056,128.858044 C183.745557,128.858044 184.054015,129.166502 184.054015,129.547003 L184.054015,139.154574 C184.054015,139.535076 183.745557,139.843533 183.365056,139.843533 L172.209671,139.843533 C171.829169,139.843533 171.520712,139.535076 171.520712,139.154574 L171.520712,129.547003 C171.520712,129.166502 171.829169,128.858044 172.209671,128.858044 Z M158.252645,128.858044 L169.40803,128.858044 C169.788532,128.858044 170.096989,129.166502 170.096989,129.547003 L170.096989,139.154574 C170.096989,139.535076 169.788532,139.843533 169.40803,139.843533 L158.252645,139.843533 C157.872144,139.843533 157.563686,139.535076 157.563686,139.154574 L157.563686,129.547003 C157.563686,129.166502 157.872144,128.858044 158.252645,128.858044 Z M144.29562,128.858044 L155.451005,128.858044 C155.831506,128.858044 156.139964,129.166502 156.139964,129.547003 L156.139964,139.154574 C156.139964,139.535076 155.831506,139.843533 155.451005,139.843533 L144.29562,139.843533 C143.915118,139.843533 143.606661,139.535076 143.606661,139.154574 L143.606661,129.547003 C143.606661,129.166502 143.915118,128.858044 144.29562,128.858044 Z M130.331021,128.858044 L141.486406,128.858044 C141.866908,128.858044 142.175365,129.166502 142.175365,129.547003 L142.175365,139.154574 C142.175365,139.535076 141.866908,139.843533 141.486406,139.843533 L130.331021,139.843533 C129.950519,139.843533 129.642062,139.535076 129.642062,139.154574 L129.642062,129.547003 C129.642062,129.166502 129.950519,128.858044 130.331021,128.858044 Z M116.373995,128.858044 L127.52938,128.858044 C127.909882,128.858044 128.218339,129.166502 128.218339,129.547003 L128.218339,139.154574 C128.218339,139.535076 127.909882,139.843533 127.52938,139.843533 L116.373995,139.843533 C115.993494,139.843533 115.685036,139.535076 115.685036,139.154574 L115.685036,129.547003 C115.685036,129.166502 115.993494,128.858044 116.373995,128.858044 Z M269.916422,128.858044 L281.071807,128.858044 C281.452309,128.858044 281.760766,129.166502 281.760766,129.547003 L281.760766,139.154574 C281.760766,139.535076 281.452309,139.843533 281.071807,139.843533 L269.916422,139.843533 C269.535921,139.843533 269.227464,139.535076 269.227464,139.154574 L269.227464,129.547003 C269.227464,129.166502 269.535921,128.858044 269.916422,128.858044 Z M228.939142,182.543849 L228.939142,182.543849 C229.164441,182.525061 229.387587,182.599479 229.556483,182.749728 C229.725379,182.899977 229.825241,183.112905 229.832755,183.338801 L229.832755,194.452997 C229.796576,194.893867 229.419122,195.227809 228.977007,195.210095 L161.812135,195.210095 C161.370021,195.227809 160.992566,194.893867 160.956387,194.452997 L160.956387,183.338801 C160.964275,183.119884 161.058903,182.913085 161.21942,182.763972 C161.379937,182.614859 161.593171,182.535668 161.812135,182.543849 L228.939142,182.543849 Z M113.46615,182.543849 C113.91924,182.531078 114.297871,182.88595 114.314325,183.338801 L114.314325,194.452997 C114.282006,194.892699 113.906807,195.227609 113.46615,195.210095 L102.583759,195.210095 C102.143102,195.227609 101.767903,194.892699 101.735584,194.452997 L101.735584,183.338801 C101.752038,182.88595 102.130668,182.531078 102.583759,182.543849 L113.46615,182.543849 Z M127.574635,182.543849 C127.793599,182.535668 128.006833,182.614859 128.16735,182.763972 C128.327867,182.913085 128.422495,183.119884 128.430383,183.338801 L128.430383,194.452997 C128.394204,194.893867 128.016749,195.227809 127.574635,195.210095 L116.699818,195.210095 C116.257703,195.227809 115.880249,194.893867 115.844069,194.452997 L115.844069,183.338801 C115.851957,183.119884 115.946586,182.913085 116.107103,182.763972 C116.26762,182.614859 116.480853,182.535668 116.699818,182.543849 L127.574635,182.543849 Z M141.68312,182.543849 C141.902085,182.535668 142.115318,182.614859 142.275835,182.763972 C142.436352,182.913085 142.53098,183.119884 142.538869,183.338801 L142.538869,194.452997 C142.502689,194.893867 142.125235,195.227809 141.68312,195.210095 L130.808303,195.210095 C130.366189,195.227809 129.988734,194.893867 129.952555,194.452997 L129.952555,183.338801 C129.960443,183.119884 130.055071,182.913085 130.215588,182.763972 C130.376105,182.614859 130.589339,182.535668 130.808303,182.543849 L141.68312,182.543849 Z M259.905109,182.543849 C260.124074,182.535668 260.337307,182.614859 260.497824,182.763972 C260.658341,182.913085 260.75297,183.119884 260.760858,183.338801 L260.760858,194.452997 C260.724678,194.893867 260.347224,195.227809 259.905109,195.210095 L249.030292,195.210095 C248.588178,195.227809 248.210723,194.893867 248.174544,194.452997 L248.174544,183.338801 C248.182432,183.119884 248.27706,182.913085 248.437577,182.763972 C248.598094,182.614859 248.811328,182.535668 249.030292,182.543849 L259.905109,182.543849 Z M158.540602,182.543849 C158.759567,182.535668 158.9728,182.614859 159.133317,182.763972 C159.293834,182.913085 159.388462,183.119884 159.39635,183.338801 L159.39635,194.452997 C159.360171,194.893867 158.982717,195.227809 158.540602,195.210095 L144.909215,195.210095 C144.467101,195.227809 144.089646,194.893867 144.053467,194.452997 L144.053467,183.338801 C144.061355,183.119884 144.155983,182.913085 144.3165,182.763972 C144.477018,182.614859 144.690251,182.535668 144.909215,182.543849 L158.540602,182.543849 Z M245.796624,182.543849 C246.249715,182.531078 246.628346,182.88595 246.644799,183.338801 L246.644799,194.452997 C246.61248,194.892699 246.237281,195.227609 245.796624,195.210095 L232.165237,195.210095 C231.723123,195.227809 231.345668,194.893867 231.309489,194.452997 L231.309489,183.338801 C231.317377,183.119884 231.412005,182.913085 231.572522,182.763972 C231.733039,182.614859 231.946273,182.535668 232.165237,182.543849 L245.796624,182.543849 Z M262.971988,188.895899 L274.127373,188.895899 C274.507875,188.895899 274.816332,189.204357 274.816332,189.584858 L274.816332,194.558991 C274.816332,194.939492 274.507875,195.24795 274.127373,195.24795 L262.971988,195.24795 C262.591487,195.24795 262.283029,194.939492 262.283029,194.558991 L262.283029,189.584858 C262.283029,189.204357 262.591487,188.895899 262.971988,188.895899 Z M291.082937,188.895899 L302.238322,188.895899 C302.618824,188.895899 302.927281,189.204357 302.927281,189.584858 L302.927281,194.558991 C302.927281,194.939492 302.618824,195.24795 302.238322,195.24795 L291.082937,195.24795 C290.702436,195.24795 290.393978,194.939492 290.393978,194.558991 L290.393978,189.584858 C290.393978,189.204357 290.702436,188.895899 291.082937,188.895899 Z M277.027646,188.895899 L288.190237,188.895899 C288.566658,188.895899 288.871807,189.200967 288.871807,189.577287 L288.871807,194.574132 C288.871807,194.954634 288.563267,195.263091 288.182664,195.263091 L277.027646,195.263091 C276.844874,195.263091 276.669588,195.190505 276.540349,195.0613 C276.41111,194.932095 276.338504,194.756856 276.338504,194.574132 L276.338504,189.577287 C276.342654,189.199745 276.649981,188.895876 277.027646,188.895899 L277.027646,188.895899 Z M288.167518,182.543849 C288.34032,182.533512 288.510129,182.592378 288.639435,182.707444 C288.768741,182.82251 288.846905,182.984308 288.856661,183.157098 L288.856661,187.593691 C288.846905,187.766481 288.768741,187.928278 288.639435,188.043345 C288.510129,188.158411 288.34032,188.217277 288.167518,188.20694 L277.0125,188.20694 C276.839698,188.217277 276.66989,188.158411 276.540583,188.043345 C276.411277,187.928278 276.333113,187.766481 276.323358,187.593691 L276.323358,183.157098 C276.333113,182.984308 276.411277,182.82251 276.540583,182.707444 C276.66989,182.592378 276.839698,182.533512 277.0125,182.543849 L288.167518,182.543849 Z M301.980657,141.978549 L301.980657,141.978549 C302.36126,141.978549 302.669799,142.287006 302.669799,142.667508 L302.677372,165.925552 C302.677395,166.307298 302.370054,166.617933 301.98823,166.622082 L294.57427,166.622082 C294.193667,166.622082 293.885128,166.313625 293.885128,165.933123 L293.885128,153.009464 L291.295164,153.009464 C290.914561,153.009464 290.606022,152.701006 290.606022,152.320505 L290.606022,142.667508 C290.606022,142.287006 290.914561,141.978549 291.295164,141.978549 L301.980657,141.978549 Z" id="Combined-Shape" fill="#313C59"></path>
                            <rect id="Rectangle-path" fill="#444F6C" x="99.4939781" y="98.4454259" width="206.23531" height="8.46435331"></rect>
                            <rect id="Rectangle-path" fill="#E4E6E9" x="163.197993" y="209.428391" width="78.1078467" height="55.6088328" rx="5.14826498"></rect>
                            <rect id="Rectangle-path" fill="#313C59" x="99.4939781" y="102.677603" width="206.23531" height="4.23217666"></rect>
                            <path d="M133.496715,166.781073 C130.611998,166.226778 127.815246,168.086291 127.211131,170.960252 L114.518796,231.444795 C114.08861,233.495071 114.785202,235.619045 116.346173,237.016636 C117.907144,238.414226 120.095345,238.873107 122.086502,238.220421 C124.077659,237.567736 125.569267,235.902642 125.999453,233.852366 C125.999453,233.852366 125.999453,233.784227 125.999453,233.761514 L137.730018,173.080126 C138.295474,170.173108 136.40253,167.356452 133.496715,166.781073 Z" id="Shape" fill="#BBBFCB"></path>
                            <path d="M119.827464,158.452997 C116.970436,157.924071 114.208953,159.756752 113.587318,162.594322 L100.425456,222.988013 C99.7762198,226.368392 101.941598,229.649715 105.305576,230.383143 C108.669555,231.11657 112.004895,229.034535 112.822445,225.690852 C112.822445,225.630284 112.822445,225.547003 112.86031,225.494006 L124.136496,164.721767 C124.675484,161.801665 122.747433,158.996742 119.827464,158.452997 Z" id="Shape" fill="#BBBFCB"></path>
                            <path d="M104.386131,159.104101 C101.533435,158.588009 98.7821749,160.416124 98.1535584,163.245426 L84.9083942,223.616404 C84.3488973,225.887038 85.065523,228.282396 86.7802026,229.87302 C88.4948823,231.463645 90.9377128,231.999159 93.1608149,231.27177 C95.383917,230.544382 97.0373582,228.668586 97.479562,226.37224 C97.479562,226.311672 97.479562,226.228391 97.525,226.160252 L108.702737,165.3653 C108.96129,163.962694 108.651686,162.51486 107.842088,161.340546 C107.03249,160.166231 105.789271,159.361709 104.386131,159.104101 L104.386131,159.104101 Z" id="Shape" fill="#BBBFCB"></path>
                            <path d="M88.1269161,164.146372 C85.4351512,163.620102 82.8200404,165.35405 82.2578467,168.037855 L69.6791058,228.552681 C69.0776174,231.460253 70.9445793,234.305681 73.8518248,234.912303 C76.767427,235.517981 81.0310219,233.746372 81.6368613,230.839117 C81.6368613,230.839117 82.3562956,230.839117 82.3562956,230.839117 L92.0800182,170.036593 C92.3402155,168.731107 92.0694368,167.375778 91.3275748,166.270385 C90.5857128,165.164992 89.4339051,164.400632 88.1269161,164.146372 L88.1269161,164.146372 Z" id="Shape" fill="#BBBFCB"></path>
                            <path d="M115.276095,220.391167 C114.814142,220.270032 113.875091,220.186751 113.875091,218.377287 L101.985493,215.788013 C101.985493,215.788013 101.781022,217.446057 100.667792,217.385489 C98.7896898,217.287066 99.3576642,215.45489 99.3576642,215.45489 L86.8395073,215.046057 C86.8395073,215.046057 86.2033759,217.135647 84.5676095,216.673817 C83.2196168,216.295268 83.3483577,214.334385 83.3483577,214.334385 L71.8146898,218.074448 C71.8146898,218.074448 69.3686131,230.188013 68.3235401,235.366562 C63.9236314,257.193691 69.6260949,280.482019 69.6260949,280.482019 L109.051095,288.423975 C109.051095,288.423975 121.395073,266.998107 126.612865,229.309779 L117.31323,219.066246 C117.31323,219.066246 116.65438,220.747003 115.276095,220.391167 Z" id="Shape" fill="#BBBFCB"></path>
                            <path d="M135.109763,218.006309 L126.976369,236.880757 C126.976369,236.880757 122.190237,246.927445 108.801186,240.953943 L69.5730839,280.482019 L108.998084,288.423975 C108.998084,288.423975 122.629471,275.053628 126.249361,269.88265 C131.073358,262.940063 141.319617,239.780442 141.319617,239.780442 L150.808577,209.935647 C150.808577,209.935647 142.614599,204.77224 135.109763,218.006309 Z" id="Shape" fill="#BBBFCB"></path>
                            <path d="M127.38531,254.831546 C111.345712,268.247319 92.1254562,275.92429 72.1024635,280.981703 L109.035949,288.423975 C109.035949,288.423975 122.667336,275.053628 126.287226,269.88265 C130.512956,263.825868 138.896259,245.269401 140.910675,240.77224 C136.907902,245.919927 132.374493,250.632302 127.38531,254.831546 L127.38531,254.831546 Z" id="Shape" fill-opacity="0.2" fill="#7B8397"></path>
                            <path d="M21.5148723,464.509779 L77.3278285,475.752681 C84.1965328,463.283281 109.01323,288.423975 109.01323,288.423975 L69.5882299,280.482019 C61.6593066,306.336909 21.5148723,464.509779 21.5148723,464.509779 Z" id="Shape" fill="#EEB595"></path>
                            <polygon id="Shape" fill="#00AADF" points="63.0300182 297.342587 108.55885 306.518612 111.754653 287.818297 67.3314781 278.869401"></polygon>
                            <polygon id="Shape" fill="#FFFFFF" points="17.622354 463.722397 80.3721715 476.365931 108.55885 306.518612 63.0300182 297.342587"></polygon>
                            <path d="M110.240055,287.220189 C109.403909,287.155075 108.573688,287.02855 107.756113,286.84164 C105.575091,286.357098 103.394069,285.91041 101.205474,285.486435 C97.1009124,299.477603 93.1099453,313.499054 88.0739051,327.194953 C82.7728102,341.579811 76.1388686,355.109148 68.8763686,368.555205 C62.0606752,381.244164 54.8436131,393.766562 47.0510036,405.895268 L46.0286496,407.462461 C40.2277372,418.37224 34.0633212,429.092744 27.8534672,439.752681 C25.6875912,443.462461 23.4459854,447.141956 21.1740876,450.798738 L17.652646,463.722397 L21.5375912,464.479495 L21.5375912,464.479495 L77.3505474,475.722397 L77.3505474,475.722397 L80.3797445,476.335647 L108.55885,306.495899 L111.754653,287.795584 L109.990146,287.432177 L110.240055,287.220189 Z" id="Shape" fill="#231F20" opacity="0.08"></path>
                            <ellipse id="Oval" fill="#F6FAFD" cx="72.1630474" cy="289.143218" rx="3.12764599" ry="3.12681388"></ellipse>
                            <path d="M367.040237,239.962145 C366.601004,223.525552 361.413504,204.204416 361.413504,204.204416 L361.292336,204.204416 L356.74854,191.568454 C356.019077,188.740306 353.245976,186.94072 350.365145,187.425991 C347.484315,187.911262 345.454175,190.519946 345.691971,193.430915 L345.4875,199.086435 L342.208394,187.729968 C341.602555,184.845426 338.543066,182.960252 335.256387,183.512934 C331.969708,184.065615 329.591788,186.972871 330.091606,189.970978 L330.356661,197.928076 L326.638321,184.769716 C326.040055,181.877603 322.851825,180.007571 319.436405,180.590536 C316.020985,181.173502 313.529471,184.095899 314.036861,187.094006 L313.817245,191.788013 L303.828467,154.326814 C303.141168,151.437302 300.284713,149.614073 297.373593,150.20677 C294.462472,150.799467 292.546744,153.594301 293.044526,156.522397 L304.941697,221.292114 C305.214325,223.290852 305.509672,225.236593 305.827737,227.144479 C301.283942,221.178549 294.188047,207.588644 294.188047,207.588644 C286.062226,192.242271 277.996989,197.981073 277.996989,197.981073 L290.674179,237.191167 C290.674179,237.191167 296.679562,249.509148 301.927646,257.587382 C304.752372,261.940694 316.694982,273.607571 323.079015,279.71735 C325.479653,296.116088 350.205474,464.502208 353.12865,468.658675 C356.157847,473.027129 411.622445,456.38612 411.622445,456.38612 L362.231387,274.508517 C364.268522,269.943218 367.585493,259.419558 367.040237,239.962145 Z" id="Shape" fill="#BBBFCB"></path>
                            <path d="M367.040237,239.962145 C366.601004,223.525552 361.413504,204.204416 361.413504,204.204416 L361.292336,204.204416 L356.74854,191.568454 C356.360487,189.668759 354.947708,188.142547 353.083212,187.608833 C353.310401,188.169085 353.514872,188.721767 353.726916,189.282019 C357.831478,197.307256 359.232482,206.415142 359.096168,215.712303 C358.959854,225.009464 357.717883,234.57918 356.415328,243.861199 C355.132582,253.154989 353.05502,262.321692 350.205474,271.260568 C350.084307,271.639117 349.955566,272.017666 349.826825,272.396215 C349.273996,275.038486 348.630292,277.695899 347.835128,280.239748 C345.798406,287.230695 342.534091,293.803731 338.194708,299.651735 C335.265219,305.083857 331.976277,310.314413 328.349818,315.308517 C336.445347,369.736278 350.940055,465.52429 353.136223,468.643533 C356.16542,473.011987 411.630018,456.370978 411.630018,456.370978 L362.231387,274.508517 C364.268522,269.943218 367.585493,259.419558 367.040237,239.962145 Z" id="Shape" fill-opacity="0.2" fill="#7B8397"></path>
                            <path d="M324.108942,282.132492 C324.108942,282.132492 344.995255,457.506625 351.576186,470.119874 L407.616332,460.133754 C407.616332,460.133754 371.031204,301.105363 363.692974,275.076341 L324.108942,282.132492 Z" id="Shape" fill="#EEB595"></path>
                            <polygon id="Shape" fill="#00AADF" points="321.375091 281.466246 324.146807 300.2347 369.872536 292.080757 365.987591 273.516719"></polygon>
                            <polygon id="Shape" fill="#FFFFFF" points="324.146807 300.2347 348.509124 470.664984 411.531569 459.437224 369.872536 292.080757"></polygon>
                            <path d="M369.872536,292.080757 L365.987591,273.531861 L365.987591,273.531861 C365.987591,273.531861 355.173358,275.394322 355.180931,275.462461 C363.836861,289.695899 371.599179,347.386751 372.121715,360.325552 C372.712409,375.119243 373.401551,389.912934 373.825639,404.706625 C374.416332,425.307256 374.370894,445.85489 372.909307,466.341956 L407.654197,460.148896 L407.654197,460.148896 L411.554288,459.452366 L369.872536,292.080757 Z" id="Shape" fill="#231F20" opacity="0.08"></path>
                            <ellipse id="Oval" fill="#F6FAFD" cx="360.413869" cy="283.752681" rx="3.12764599" ry="3.12681388"></ellipse>
                        </g>
                    </g>
                </g>
            </g>
        </g>
    </g>
</svg>