<?xml version="1.0" encoding="UTF-8"?>
<svg width="510px" height="280px" viewBox="0 0 510 280" version="1.1" xmlns="http://www.w3.org/2000/svg" xmlns:xlink="http://www.w3.org/1999/xlink">
    <!-- Generator: sketchtool 47.1 (45422) - http://www.bohemiancoding.com/sketch -->
    <title>8E8E486F-0199-46DB-A805-7A78939B26E8</title>
    <desc>Created with sketchtool.</desc>
    <defs>
        <rect id="path-1" x="0" y="0" width="510" height="280" rx="4"></rect>
        <path d="M12.763623,0 L327.236377,0 L327.236377,-1.95399252e-14 C334.285531,-2.08348339e-14 340,5.71446865 340,12.763623 L340,221.236377 L340,221.236377 C340,228.285531 334.285531,234 327.236377,234 L12.763623,234 L12.763623,234 C5.71446865,234 1.32977703e-14,228.285531 1.24344979e-14,221.236377 L0,12.763623 L0,12.763623 C-8.63272427e-16,5.71446865 5.71446865,-4.03416188e-15 12.763623,-5.32907052e-15 Z" id="path-3"></path>
        <polygon id="path-5" points="13.6666667 26 325.666667 26 325.666667 212 13.6666667 212"></polygon>
    </defs>
    <g id="→-Developers" stroke="none" stroke-width="1" fill="none" fill-rule="evenodd">
        <g id="Shoutem-Web---Developers-v2" transform="translate(-165.000000, -2801.000000)">
            <g id="Group-37" transform="translate(0.000000, 1243.000000)">
                <g id="devs-step5" transform="translate(165.000000, 1558.000000)">
                    <mask id="mask-2" fill="white">
                        <use xlink:href="#path-1"></use>
                    </mask>
                    <use id="Mask" fill="#00AADF" opacity="0.100000001" xlink:href="#path-1"></use>
                    <g id="Group-3" mask="url(#mask-2)">
                        <g transform="translate(20.000000, -41.000000)">
                            <rect id="Rectangle-18" fill="#D8D8D8" opacity="0" x="0" y="0" width="460" height="354"></rect>
                            <g id="Group-45" stroke-width="1" fill="none" transform="translate(60.333333, 58.567308)">
                                <g id="Group-31" transform="translate(0.000000, -0.000000)">
                                    <mask id="mask-4" fill="white">
                                        <use xlink:href="#path-3"></use>
                                    </mask>
                                    <use id="Mask" fill="#444F6C" xlink:href="#path-3"></use>
                                    <g id="Window-Bar" mask="url(#mask-4)">
                                        <g transform="translate(13.418154, 17.210437)">
                                            <path d="M1.23186675,0.222254846 L311.265159,0.222254846 L311.265159,0.222254846 C311.808251,0.222254846 312.248513,0.662517267 312.248513,1.20560849 L312.248513,9.22225485 L0.248513112,9.22225485 L0.248513112,1.20560849 L0.248513112,1.20560849 C0.248513112,0.662517267 0.688775534,0.222254846 1.23186675,0.222254846 Z" id="Rectangle-39" fill="#DBDBDB"></path>
                                            <g id="Group-48" stroke-width="1" fill="none" transform="translate(3.248513, 3.222255)">
                                                <ellipse id="Oval-83" fill="#BABABA" cx="2.0517174" cy="1.50389306" rx="1.47053902" ry="1.45263488"></ellipse>
                                                <ellipse id="Oval-83" fill="#BABABA" cx="6.95351413" cy="1.50389306" rx="1.47053902" ry="1.45263488"></ellipse>
                                                <ellipse id="Oval-83" fill="#BABABA" cx="11.8553109" cy="1.50389306" rx="1.47053902" ry="1.45263488"></ellipse>
                                            </g>
                                        </g>
                                    </g>
                                    <mask id="mask-6" fill="white">
                                        <use xlink:href="#path-5"></use>
                                    </mask>
                                    <g id="Mask">
                                        <use fill="#888FA1" xlink:href="#path-5"></use>
                                        <use fill="#FFFFFF" xlink:href="#path-5"></use>
                                    </g>
                                    <g id="Group-51" mask="url(#mask-6)">
                                        <g transform="translate(102.000000, 81.000000)">
                                            <path d="M14.951,6.016 C14.951,8.886 17.023,11.168 19.935,11.168 C22.357,11.168 23.701,9.642 23.701,9.642 L23.141,8.956 C23.141,8.956 21.937,10.272 19.949,10.272 C17.611,10.272 15.959,8.354 15.959,6.002 C15.959,3.678 17.611,1.886 19.921,1.886 C21.769,1.886 22.917,2.978 22.917,2.978 L23.435,2.264 C23.435,2.264 22.245,0.99 19.893,0.99 C17.079,0.99 14.951,3.16 14.951,6.016 Z M25.003,7.444 C25.003,5.358 26.669,3.79 28.727,3.79 C30.785,3.79 32.451,5.358 32.451,7.444 C32.451,9.572 30.785,11.168 28.727,11.168 C26.669,11.168 25.003,9.572 25.003,7.444 Z M25.983,7.444 C25.983,9.082 27.215,10.314 28.727,10.314 C30.239,10.314 31.471,9.082 31.471,7.444 C31.471,5.848 30.239,4.658 28.727,4.658 C27.215,4.658 25.983,5.848 25.983,7.444 Z M35.3527055,5.20387902 L35.167,4.76167662 L35.167,5.008 C35.167,5.316 35.139,5.568 35.139,5.568 L35.167,5.568 C35.2099694,5.45818928 35.271663,5.33413188 35.3527055,5.20387902 Z M35.167,4.76167662 L35.3527055,5.20387902 C35.7469479,4.57024619 36.5990756,3.79 37.981,3.79 C39.717,3.79 40.333,4.784 40.333,6.52 L40.333,11 L39.381,11 L39.381,6.772 C39.381,5.666 39.213,4.686 37.855,4.686 C36.651,4.686 35.615,5.512 35.293,6.674 C35.209,6.968 35.181,7.29 35.181,7.626 L35.181,11 L34.229,11 L34.229,3.958 L35.167,3.958 L35.167,4.76167662 Z M47.185736,10.10272 L47.431,10.2801887 L47.431,10.23 C47.431,9.964 47.459,9.726 47.459,9.726 L47.431,9.726 C47.3582194,9.86185714 47.2766104,9.98762473 47.185736,10.10272 Z M47.431,10.2801887 L47.185736,10.10272 C46.7521952,10.6518126 46.1077704,10.958 45.205,10.958 C43.315,10.958 42.069,9.46 42.069,7.346 C42.069,5.232 43.231,3.79 45.121,3.79 C46.983,3.79 47.445,4.966 47.445,4.966 L47.473,4.966 C47.473,4.966 47.459,4.882 47.459,4.728 L47.459,3.958 L48.383,3.958 L48.383,10.832 C48.383,13.072 46.731,13.94 45.009,13.94 C44.197,13.94 43.385,13.73 42.699,13.38 L43.063,12.596 C43.063,12.596 43.931,13.086 44.967,13.086 C46.339,13.086 47.431,12.442 47.431,10.874 L47.431,10.2801887 Z M45.359,10.104 C46.465,10.104 47.445,9.418 47.445,7.346 C47.445,5.288 46.465,4.658 45.219,4.658 C43.847,4.658 43.049,5.652 43.049,7.332 C43.049,9.012 43.959,10.104 45.359,10.104 Z M51.7943203,5.31183599 L51.617,5.01794969 L51.617,5.204 C51.617,5.512 51.589,5.764 51.589,5.764 L51.617,5.764 C51.6665129,5.60720919 51.7257541,5.45589054 51.7943203,5.31183599 Z M51.617,5.01794969 L51.7943203,5.31183599 C52.1910523,4.47832022 52.8999799,3.888 53.843,3.888 C54.039,3.888 54.221,3.93 54.221,3.93 L54.221,4.868 C54.221,4.868 54.053,4.84 53.871,4.84 C52.877,4.84 52.135,5.624 51.827,6.66 C51.687,7.108 51.631,7.584 51.631,8.032 L51.631,11 L50.679,11 L50.679,3.958 L51.617,3.958 L51.617,5.01794969 Z M55.089,9.082 C55.089,6.702 58.183,6.646 59.401,6.646 L59.793,6.646 L59.793,6.464 C59.793,5.106 59.051,4.644 58.043,4.644 C56.881,4.644 56.055,5.316 56.055,5.316 L55.607,4.588 C55.607,4.588 56.531,3.79 58.113,3.79 C59.807,3.79 60.745,4.728 60.745,6.492 L60.745,11 L59.835,11 L59.835,10.23 C59.835,9.88 59.863,9.642 59.863,9.642 L59.835,9.642 C59.835,9.642 59.247,11.168 57.483,11.168 C56.307,11.168 55.089,10.482 55.089,9.082 Z M56.069,9.026 C56.069,9.684 56.587,10.356 57.637,10.356 C58.981,10.356 59.793,8.956 59.793,7.738 L59.793,7.43 L59.387,7.43 C58.281,7.43 56.069,7.472 56.069,9.026 Z M63.167,8.438 C63.167,10.79 64.805,11.056 65.617,11.056 C65.869,11.056 66.023,11.028 66.023,11.028 L66.023,10.174 C66.023,10.174 65.897,10.202 65.701,10.202 C65.169,10.202 64.119,9.992 64.119,8.34 L64.119,4.84 L65.883,4.84 L65.883,4.042 L64.119,4.042 L64.119,2.012 L63.181,2.012 L63.181,4.042 L62.243,4.042 L62.243,4.84 L63.167,4.84 L63.167,8.438 Z M72.4036654,9.76890348 L72.603,10.1709086 L72.603,9.95 C72.603,9.642 72.631,9.39 72.631,9.39 L72.603,9.39 C72.5552562,9.50697229 72.4887882,9.63574897 72.4036654,9.76890348 Z M72.603,10.1709086 L72.4036654,9.76890348 C71.9895738,10.4166518 71.134022,11.168 69.845,11.168 C68.193,11.168 67.493,10.272 67.493,8.438 L67.493,3.958 L68.445,3.958 L68.445,8.186 C68.445,9.292 68.613,10.272 69.971,10.272 C71.581,10.272 72.575,8.858 72.575,7.332 L72.575,3.958 L73.527,3.958 L73.527,11 L72.603,11 L72.603,10.1709086 Z M75.753,9.334 C75.753,10.874 76.789,11.056 77.377,11.056 C77.559,11.056 77.727,11.028 77.727,11.028 L77.727,10.174 C77.727,10.174 77.615,10.188 77.489,10.188 C77.125,10.188 76.705,10.048 76.705,9.124 L76.705,1.158 L75.753,1.158 L75.753,9.334 Z M78.707,9.082 C78.707,6.702 81.801,6.646 83.019,6.646 L83.411,6.646 L83.411,6.464 C83.411,5.106 82.669,4.644 81.661,4.644 C80.499,4.644 79.673,5.316 79.673,5.316 L79.225,4.588 C79.225,4.588 80.149,3.79 81.731,3.79 C83.425,3.79 84.363,4.728 84.363,6.492 L84.363,11 L83.453,11 L83.453,10.23 C83.453,9.88 83.481,9.642 83.481,9.642 L83.453,9.642 C83.453,9.642 82.865,11.168 81.101,11.168 C79.925,11.168 78.707,10.482 78.707,9.082 Z M79.687,9.026 C79.687,9.684 80.205,10.356 81.255,10.356 C82.599,10.356 83.411,8.956 83.411,7.738 L83.411,7.43 L83.005,7.43 C81.899,7.43 79.687,7.472 79.687,9.026 Z M86.785,8.438 C86.785,10.79 88.423,11.056 89.235,11.056 C89.487,11.056 89.641,11.028 89.641,11.028 L89.641,10.174 C89.641,10.174 89.515,10.202 89.319,10.202 C88.787,10.202 87.737,9.992 87.737,8.34 L87.737,4.84 L89.501,4.84 L89.501,4.042 L87.737,4.042 L87.737,2.012 L86.799,2.012 L86.799,4.042 L85.861,4.042 L85.861,4.84 L86.785,4.84 L86.785,8.438 Z M91.181,2.348 L92.175,2.348 L92.175,1.158 L91.181,1.158 L91.181,2.348 Z M91.209,11 L92.161,11 L92.161,3.958 L91.209,3.958 L91.209,11 Z M93.939,7.444 C93.939,5.358 95.605,3.79 97.663,3.79 C99.721,3.79 101.387,5.358 101.387,7.444 C101.387,9.572 99.721,11.168 97.663,11.168 C95.605,11.168 93.939,9.572 93.939,7.444 Z M94.919,7.444 C94.919,9.082 96.151,10.314 97.663,10.314 C99.175,10.314 100.407,9.082 100.407,7.444 C100.407,5.848 99.175,4.658 97.663,4.658 C96.151,4.658 94.919,5.848 94.919,7.444 Z M104.288706,5.20387902 L104.103,4.76167662 L104.103,5.008 C104.103,5.316 104.075,5.568 104.075,5.568 L104.103,5.568 C104.145969,5.45818928 104.207663,5.33413188 104.288706,5.20387902 Z M104.103,4.76167662 L104.288706,5.20387902 C104.682948,4.57024619 105.535076,3.79 106.917,3.79 C108.653,3.79 109.269,4.784 109.269,6.52 L109.269,11 L108.317,11 L108.317,6.772 C108.317,5.666 108.149,4.686 106.791,4.686 C105.587,4.686 104.551,5.512 104.229,6.674 C104.145,6.968 104.117,7.29 104.117,7.626 L104.117,11 L103.165,11 L103.165,3.958 L104.103,3.958 L104.103,4.76167662 Z M110.893,10.146 C110.893,10.146 111.789,11.168 113.497,11.168 C114.911,11.168 115.905,10.342 115.905,9.194 C115.905,6.87 112.111,7.29 112.111,5.736 C112.111,4.952 112.797,4.644 113.511,4.644 C114.673,4.644 115.275,5.288 115.275,5.288 L115.709,4.56 C115.709,4.56 115.023,3.79 113.539,3.79 C112.265,3.79 111.131,4.476 111.131,5.736 C111.131,8.032 114.925,7.654 114.925,9.194 C114.925,9.936 114.267,10.314 113.511,10.314 C112.195,10.314 111.411,9.46 111.411,9.46 L110.893,10.146 Z M118.215,8.424 L119.111,8.424 L119.153,1.158 L118.173,1.158 L118.215,8.424 Z M118.145,11 L119.223,11 L119.223,9.922 L118.145,9.922 L118.145,11 Z" id="Congratulations!" fill="#444F6C"></path>
                                            <path d="M24.9785,35 L24.9785,32.907 L23.3195,30.058 L24.1035,30.058 L25.0205,31.682 C25.1745,31.955 25.3215,32.305 25.3215,32.305 L25.3355,32.305 C25.3355,32.305 25.4825,31.962 25.6365,31.682 L26.5395,30.058 L27.3235,30.058 L25.6715,32.907 L25.6715,35 L24.9785,35 Z M27.2605,33.222 C27.2605,32.151 28.1145,31.374 29.1715,31.374 C30.2285,31.374 31.0825,32.151 31.0825,33.222 C31.0825,34.3 30.2285,35.084 29.1715,35.084 C28.1145,35.084 27.2605,34.3 27.2605,33.222 Z M27.9535,33.222 C27.9535,33.964 28.5065,34.496 29.1715,34.496 C29.8435,34.496 30.3895,33.964 30.3895,33.222 C30.3895,32.487 29.8435,31.962 29.1715,31.962 C28.5065,31.962 27.9535,32.487 27.9535,33.222 Z M34.247941,34.4598802 L34.3515,34.6175968 L34.3515,34.531 C34.3515,34.384 34.3655,34.272 34.3655,34.272 L34.3515,34.272 C34.3261816,34.3322819 34.2915189,34.3958862 34.247941,34.4598802 Z M34.3515,34.6175968 L34.247941,34.4598802 C34.0385033,34.7674391 33.6231419,35.084 33.0495,35.084 C32.2515,35.084 31.8385,34.664 31.8385,33.726 L31.8385,31.458 L32.5175,31.458 L32.5175,33.572 C32.5175,34.062 32.6155,34.454 33.1825,34.454 C33.9035,34.454 34.3305,33.817 34.3305,33.117 L34.3305,31.458 L35.0095,31.458 L35.0095,35 L34.3515,35 L34.3515,34.6175968 Z M36.8166361,32.1235236 L36.7315,31.981775 L36.7315,32.074 C36.7315,32.221 36.7175,32.34 36.7175,32.34 L36.7315,32.34 C36.7547451,32.2652116 36.7832431,32.1927578 36.8166361,32.1235236 Z M36.7315,31.981775 L36.8166361,32.1235236 C37.0145297,31.7132273 37.3843311,31.416 37.8515,31.416 C37.9425,31.416 38.0265,31.43 38.0265,31.43 L38.0265,32.102 C38.0265,32.102 37.9355,32.081 37.8305,32.081 C37.3965,32.081 36.9975,32.389 36.8365,32.914 C36.7735,33.117 36.7525,33.334 36.7525,33.551 L36.7525,35 L36.0735,35 L36.0735,31.458 L36.7315,31.458 L36.7315,31.981775 Z M40.2105,34.006 C40.2105,32.837 41.7505,32.788 42.3455,32.788 L42.4995,32.788 L42.4995,32.725 C42.4995,32.144 42.1705,31.948 41.7225,31.948 C41.1765,31.948 40.7355,32.291 40.7355,32.291 L40.4555,31.794 C40.4555,31.794 40.9665,31.374 41.7785,31.374 C42.6745,31.374 43.1785,31.864 43.1785,32.76 L43.1785,35 L42.5485,35 L42.5485,34.664 C42.5485,34.503 42.5625,34.384 42.5625,34.384 L42.5485,34.384 C42.5485,34.384 42.2615,35.084 41.4145,35.084 C40.8055,35.084 40.2105,34.713 40.2105,34.006 Z M40.8965,33.971 C40.8965,34.258 41.1205,34.538 41.5615,34.538 C42.1355,34.538 42.5065,33.936 42.5065,33.411 L42.5065,33.299 L42.3315,33.299 C41.8205,33.299 40.8965,33.334 40.8965,33.971 Z M44.1935,36.4 L44.1935,31.458 L44.8165,31.458 L44.8165,31.759 C44.8165,31.899 44.8025,32.018 44.8025,32.018 L44.8165,32.018 C44.8165,32.018 45.1175,31.374 46.0065,31.374 C46.9585,31.374 47.5605,32.13 47.5605,33.229 C47.5605,34.356 46.8815,35.084 45.9575,35.084 C45.1805,35.084 44.8725,34.503 44.8725,34.503 L44.8585,34.503 C44.8585,34.503 44.8725,34.629 44.8725,34.811 L44.8725,36.4 L44.1935,36.4 Z M44.8515,33.243 C44.8515,33.873 45.2015,34.503 45.8525,34.503 C46.4125,34.503 46.8745,34.041 46.8745,33.236 C46.8745,32.466 46.4615,31.969 45.8735,31.969 C45.3415,31.969 44.8515,32.34 44.8515,33.243 Z M48.3935,36.4 L48.3935,31.458 L49.0165,31.458 L49.0165,31.759 C49.0165,31.899 49.0025,32.018 49.0025,32.018 L49.0165,32.018 C49.0165,32.018 49.3175,31.374 50.2065,31.374 C51.1585,31.374 51.7605,32.13 51.7605,33.229 C51.7605,34.356 51.0815,35.084 50.1575,35.084 C49.3805,35.084 49.0725,34.503 49.0725,34.503 L49.0585,34.503 C49.0585,34.503 49.0725,34.629 49.0725,34.811 L49.0725,36.4 L48.3935,36.4 Z M49.0515,33.243 C49.0515,33.873 49.4015,34.503 50.0525,34.503 C50.6125,34.503 51.0745,34.041 51.0745,33.236 C51.0745,32.466 50.6615,31.969 50.0735,31.969 C49.5415,31.969 49.0515,32.34 49.0515,33.243 Z M54.3855,30.751 L55.0715,30.751 L55.0715,30.058 L54.3855,30.058 L54.3855,30.751 Z M54.3925,35 L55.0715,35 L55.0715,31.458 L54.3925,31.458 L54.3925,35 Z M55.8485,34.566 C55.8485,34.566 56.3245,35.084 57.1925,35.084 C57.9695,35.084 58.4735,34.643 58.4735,34.055 C58.4735,32.893 56.6535,33.033 56.6535,32.396 C56.6535,32.088 56.9405,31.962 57.2345,31.962 C57.7945,31.962 58.1095,32.277 58.1095,32.277 L58.3825,31.766 C58.3825,31.766 58.0185,31.374 57.2415,31.374 C56.5345,31.374 55.9605,31.738 55.9605,32.382 C55.9605,33.537 57.7805,33.404 57.7805,34.055 C57.7805,34.342 57.4865,34.496 57.1925,34.496 C56.5765,34.496 56.1775,34.083 56.1775,34.083 L55.8485,34.566 Z M61.0705,35 L61.0705,30.058 L61.7495,30.058 L61.7495,31.675 C61.7495,31.85 61.7355,31.976 61.7355,31.976 L61.7495,31.976 C61.7495,31.976 62.0505,31.374 62.8835,31.374 C63.8355,31.374 64.4375,32.13 64.4375,33.229 C64.4375,34.356 63.7585,35.084 62.8275,35.084 C62.0365,35.084 61.7145,34.475 61.7145,34.475 L61.7005,34.475 C61.7005,34.475 61.7145,34.587 61.7145,34.741 L61.7145,35 L61.0705,35 Z M61.7285,33.243 C61.7285,33.873 62.0575,34.503 62.7295,34.503 C63.2895,34.503 63.7515,34.041 63.7515,33.236 C63.7515,32.466 63.3385,31.969 62.7505,31.969 C62.2185,31.969 61.7285,32.34 61.7285,33.243 Z M65.0255,33.229 C65.0255,32.102 65.7885,31.374 66.7965,31.374 C67.7975,31.374 68.3295,32.116 68.3295,33.033 C68.3295,33.124 68.3085,33.327 68.3085,33.327 L65.7255,33.327 C65.7605,34.104 66.3135,34.496 66.9435,34.496 C67.5525,34.496 67.9935,34.083 67.9935,34.083 L68.2735,34.58 C68.2735,34.58 67.7485,35.084 66.9015,35.084 C65.7885,35.084 65.0255,34.279 65.0255,33.229 Z M65.7465,32.816 L67.6365,32.816 C67.6155,32.207 67.2375,31.913 66.7825,31.913 C66.2645,31.913 65.8445,32.235 65.7465,32.816 Z M69.1485,30.751 L69.8345,30.751 L69.8345,30.058 L69.1485,30.058 L69.1485,30.751 Z M69.1555,35 L69.8345,35 L69.8345,31.458 L69.1555,31.458 L69.1555,35 Z M71.6541141,32.0129896 L71.5565,31.8214474 L71.5565,31.927 C71.5565,32.067 71.5425,32.186 71.5425,32.186 L71.5565,32.186 C71.5806128,32.1329519 71.6130316,32.0740896 71.6541141,32.0129896 Z M71.5565,31.8214474 L71.6541141,32.0129896 C71.8515591,31.7193391 72.2491201,31.374 72.8865,31.374 C73.7195,31.374 74.1045,31.829 74.1045,32.732 L74.1045,35 L73.4255,35 L73.4255,32.886 C73.4255,32.389 73.3205,31.997 72.7535,31.997 C72.2145,31.997 71.7805,32.354 71.6335,32.865 C71.5915,33.005 71.5775,33.166 71.5775,33.341 L71.5775,35 L70.8985,35 L70.8985,31.458 L71.5565,31.458 L71.5565,31.8214474 Z M75.4345,35.644 C75.4345,35.644 75.8755,35.882 76.4075,35.882 C77.0235,35.882 77.5275,35.609 77.5275,34.888 L77.5275,34.629 C77.5275,34.517 77.5345,34.405 77.5345,34.405 L77.5205,34.405 C77.3105,34.755 76.9815,34.958 76.4705,34.958 C75.4835,34.958 74.8885,34.167 74.8885,33.145 C74.8885,32.13 75.4555,31.374 76.4355,31.374 C77.2895,31.374 77.5485,31.899 77.5485,31.899 L77.5625,31.899 C77.5625,31.899 77.5555,31.85 77.5555,31.787 L77.5555,31.458 L78.2065,31.458 L78.2065,34.853 C78.2065,36.022 77.3175,36.47 76.4215,36.47 C75.9945,36.47 75.5535,36.351 75.2105,36.176 L75.4345,35.644 Z M76.6035,34.37 C77.0935,34.37 77.5415,34.076 77.5415,33.152 C77.5415,32.228 77.0935,31.962 76.5405,31.962 C75.9245,31.962 75.5745,32.41 75.5745,33.131 C75.5745,33.866 75.9665,34.37 76.6035,34.37 Z M81.8126361,32.1235236 L81.7275,31.981775 L81.7275,32.074 C81.7275,32.221 81.7135,32.34 81.7135,32.34 L81.7275,32.34 C81.7507451,32.2652116 81.7792431,32.1927578 81.8126361,32.1235236 Z M81.7275,31.981775 L81.8126361,32.1235236 C82.0105297,31.7132273 82.3803311,31.416 82.8475,31.416 C82.9385,31.416 83.0225,31.43 83.0225,31.43 L83.0225,32.102 C83.0225,32.102 82.9315,32.081 82.8265,32.081 C82.3925,32.081 81.9935,32.389 81.8325,32.914 C81.7695,33.117 81.7485,33.334 81.7485,33.551 L81.7485,35 L81.0695,35 L81.0695,31.458 L81.7275,31.458 L81.7275,31.981775 Z M83.4285,33.229 C83.4285,32.102 84.1915,31.374 85.1995,31.374 C86.2005,31.374 86.7325,32.116 86.7325,33.033 C86.7325,33.124 86.7115,33.327 86.7115,33.327 L84.1285,33.327 C84.1635,34.104 84.7165,34.496 85.3465,34.496 C85.9555,34.496 86.3965,34.083 86.3965,34.083 L86.6765,34.58 C86.6765,34.58 86.1515,35.084 85.3045,35.084 C84.1915,35.084 83.4285,34.279 83.4285,33.229 Z M84.1495,32.816 L86.0395,32.816 C86.0185,32.207 85.6405,31.913 85.1855,31.913 C84.6675,31.913 84.2475,32.235 84.1495,32.816 Z M88.3985,35 L89.1825,35 L90.4915,31.458 L89.7775,31.458 L88.9165,33.852 C88.8465,34.048 88.7975,34.335 88.7905,34.335 L88.7765,34.335 C88.7695,34.335 88.7275,34.048 88.6575,33.852 L87.7965,31.458 L87.0755,31.458 L88.3985,35 Z M91.0655,30.751 L91.7515,30.751 L91.7515,30.058 L91.0655,30.058 L91.0655,30.751 Z M91.0725,35 L91.7515,35 L91.7515,31.458 L91.0725,31.458 L91.0725,35 Z M92.5705,33.229 C92.5705,32.102 93.3335,31.374 94.3415,31.374 C95.3425,31.374 95.8745,32.116 95.8745,33.033 C95.8745,33.124 95.8535,33.327 95.8535,33.327 L93.2705,33.327 C93.3055,34.104 93.8585,34.496 94.4885,34.496 C95.0975,34.496 95.5385,34.083 95.5385,34.083 L95.8185,34.58 C95.8185,34.58 95.2935,35.084 94.4465,35.084 C93.3335,35.084 92.5705,34.279 92.5705,33.229 Z M93.2915,32.816 L95.1815,32.816 C95.1605,32.207 94.7825,31.913 94.3275,31.913 C93.8095,31.913 93.3895,32.235 93.2915,32.816 Z M97.4285,35 L98.1845,35 L98.9125,32.725 C98.9685,32.543 99.0105,32.34 99.0105,32.34 L99.0245,32.34 C99.0245,32.34 99.0665,32.543 99.1225,32.725 L99.8575,35 L100.6065,35 L101.7475,31.458 L101.0335,31.458 L100.2915,33.943 C100.2355,34.125 100.2075,34.321 100.2075,34.321 L100.1935,34.321 C100.1935,34.321 100.1515,34.125 100.0955,33.943 L99.3325,31.465 L98.7095,31.465 L97.9395,33.943 C97.8835,34.125 97.8485,34.321 97.8485,34.321 L97.8345,34.321 C97.8275,34.321 97.7995,34.125 97.7435,33.943 L97.0085,31.458 L96.2875,31.458 L97.4285,35 Z M105.1215,34.083 C105.1215,34.083 105.1215,34.083 105.1215,34.083 L105.1215,34.083 Z M105.1215,34.083 L105.4015,34.58 C105.4015,34.58 104.8765,35.084 104.0295,35.084 C102.9165,35.084 102.1535,34.279 102.1535,33.229 C102.1535,32.102 102.9165,31.374 103.9245,31.374 C104.9255,31.374 105.4575,32.116 105.4575,33.033 C105.4575,33.124 105.4365,33.327 105.4365,33.327 L102.8535,33.327 C102.8885,34.104 103.4415,34.496 104.0715,34.496 C104.680426,34.496 105.121392,34.0831008 105.1215,34.083 L105.1215,34.083 Z M102.8745,32.816 L104.7645,32.816 C104.7435,32.207 104.3655,31.913 103.9105,31.913 C103.3925,31.913 102.9725,32.235 102.8745,32.816 Z M106.0525,33.229 C106.0525,32.102 106.7175,31.374 107.6555,31.374 C108.4745,31.374 108.7475,31.934 108.7475,31.934 L108.7615,31.934 C108.7615,31.934 108.7475,31.829 108.7475,31.696 L108.7475,30.058 L109.4265,30.058 L109.4265,35 L108.7825,35 L108.7825,34.664 C108.7825,34.524 108.7895,34.426 108.7895,34.426 L108.7755,34.426 C108.7755,34.426 108.4885,35.084 107.6135,35.084 C106.6545,35.084 106.0525,34.328 106.0525,33.229 Z M106.7455,33.229 C106.7455,33.999 107.1585,34.496 107.7465,34.496 C108.2715,34.496 108.7685,34.125 108.7685,33.222 C108.7685,32.592 108.4395,31.962 107.7675,31.962 C107.2075,31.962 106.7455,32.424 106.7455,33.229 Z M110.4905,35 L111.2045,35 L111.2045,34.279 L110.4905,34.279 L110.4905,35 Z M3.2505,42.058 L2.2845,45.684 C2.2145,45.957 2.1795,46.209 2.1795,46.209 L2.1655,46.209 C2.1655,46.209 2.1375,45.95 2.0745,45.684 L1.1995,42.058 L0.4855,42.058 L1.7455,47 L2.5505,47 L3.4045,43.794 C3.4885,43.479 3.5515,43.094 3.5515,43.094 L3.5655,43.094 C3.5655,43.094 3.6285,43.479 3.7125,43.794 L4.5665,47 L5.3715,47 L6.6665,42.058 L5.9525,42.058 L5.0425,45.684 C4.9725,45.95 4.9515,46.209 4.9515,46.209 L4.9375,46.209 C4.9375,46.209 4.9025,45.957 4.8325,45.684 L3.8665,42.058 L3.2505,42.058 Z M7.0445,45.229 C7.0445,44.102 7.8075,43.374 8.8155,43.374 C9.8165,43.374 10.3485,44.116 10.3485,45.033 C10.3485,45.124 10.3275,45.327 10.3275,45.327 L7.7445,45.327 C7.7795,46.104 8.3325,46.496 8.9625,46.496 C9.5715,46.496 10.0125,46.083 10.0125,46.083 L10.2925,46.58 C10.2925,46.58 9.7675,47.084 8.9205,47.084 C7.8075,47.084 7.0445,46.279 7.0445,45.229 Z M7.7655,44.816 L9.6555,44.816 C9.6345,44.207 9.2565,43.913 8.8015,43.913 C8.2835,43.913 7.8635,44.235 7.7655,44.816 Z M13.7015,47 L14.4575,47 L15.1855,44.725 C15.2415,44.543 15.2835,44.34 15.2835,44.34 L15.2975,44.34 C15.2975,44.34 15.3395,44.543 15.3955,44.725 L16.1305,47 L16.8795,47 L18.0205,43.458 L17.3065,43.458 L16.5645,45.943 C16.5085,46.125 16.4805,46.321 16.4805,46.321 L16.4665,46.321 C16.4665,46.321 16.4245,46.125 16.3685,45.943 L15.6055,43.465 L14.9825,43.465 L14.2125,45.943 C14.1565,46.125 14.1215,46.321 14.1215,46.321 L14.1075,46.321 C14.1005,46.321 14.0725,46.125 14.0165,45.943 L13.2815,43.458 L12.5605,43.458 L13.7015,47 Z M18.6645,42.751 L19.3505,42.751 L19.3505,42.058 L18.6645,42.058 L18.6645,42.751 Z M18.6715,47 L19.3505,47 L19.3505,43.458 L18.6715,43.458 L18.6715,47 Z M20.3725,46.034 C20.3725,46.923 20.9395,47.028 21.3245,47.028 C21.4435,47.028 21.5485,47.014 21.5485,47.014 L21.5485,46.412 C21.5485,46.412 21.4925,46.419 21.4295,46.419 C21.2195,46.419 21.0515,46.342 21.0515,45.915 L21.0515,42.058 L20.3725,42.058 L20.3725,46.034 Z M22.2275,46.034 C22.2275,46.923 22.7945,47.028 23.1795,47.028 C23.2985,47.028 23.4035,47.014 23.4035,47.014 L23.4035,46.412 C23.4035,46.412 23.3475,46.419 23.2845,46.419 C23.0745,46.419 22.9065,46.342 22.9065,45.915 L22.9065,42.058 L22.2275,42.058 L22.2275,46.034 Z M26.6791141,44.0129896 L26.5815,43.8214474 L26.5815,43.927 C26.5815,44.067 26.5675,44.186 26.5675,44.186 L26.5815,44.186 C26.6056128,44.1329519 26.6380316,44.0740896 26.6791141,44.0129896 Z M26.5815,43.8214474 L26.6791141,44.0129896 C26.8765591,43.7193391 27.2741201,43.374 27.9115,43.374 C28.7445,43.374 29.1295,43.829 29.1295,44.732 L29.1295,47 L28.4505,47 L28.4505,44.886 C28.4505,44.389 28.3455,43.997 27.7785,43.997 C27.2395,43.997 26.8055,44.354 26.6585,44.865 C26.6165,45.005 26.6025,45.166 26.6025,45.341 L26.6025,47 L25.9235,47 L25.9235,43.458 L26.5815,43.458 L26.5815,43.8214474 Z M29.8855,45.222 C29.8855,44.151 30.7395,43.374 31.7965,43.374 C32.8535,43.374 33.7075,44.151 33.7075,45.222 C33.7075,46.3 32.8535,47.084 31.7965,47.084 C30.7395,47.084 29.8855,46.3 29.8855,45.222 Z M30.5785,45.222 C30.5785,45.964 31.1315,46.496 31.7965,46.496 C32.4685,46.496 33.0145,45.964 33.0145,45.222 C33.0145,44.487 32.4685,43.962 31.7965,43.962 C31.1315,43.962 30.5785,44.487 30.5785,45.222 Z M34.6595,45.705 C34.6595,46.888 35.5625,47.028 36.0175,47.028 C36.1575,47.028 36.2555,47.014 36.2555,47.014 L36.2555,46.412 C36.2555,46.412 36.1925,46.426 36.0945,46.426 C35.8355,46.426 35.3385,46.335 35.3385,45.628 L35.3385,44.053 L36.1925,44.053 L36.1925,43.507 L35.3385,43.507 L35.3385,42.485 L34.6805,42.485 L34.6805,43.507 L34.1975,43.507 L34.1975,44.053 L34.6595,44.053 L34.6595,45.705 Z M37.0115,42.751 L37.6975,42.751 L37.6975,42.058 L37.0115,42.058 L37.0115,42.751 Z M37.0185,47 L37.6975,47 L37.6975,43.458 L37.0185,43.458 L37.0185,47 Z M38.9505,47 L39.6225,47 L39.6225,44.053 L40.4625,44.053 L40.4625,43.507 L39.6225,43.507 L39.6225,43.353 C39.6225,42.695 40.1055,42.611 40.3645,42.611 C40.4695,42.611 40.5395,42.625 40.5395,42.625 L40.5395,42.044 C40.5395,42.044 40.4345,42.023 40.2805,42.023 C39.8325,42.023 38.9505,42.17 38.9505,43.339 L38.9505,43.507 L38.5095,43.507 L38.5095,44.053 L38.9505,44.053 L38.9505,47 Z M40.6865,48.253 C40.6865,48.253 40.9735,48.47 41.3725,48.47 C41.8695,48.47 42.3035,48.183 42.5205,47.637 L44.1795,43.458 L43.4445,43.458 L42.5835,45.782 C42.5205,45.964 42.4645,46.202 42.4645,46.202 L42.4505,46.202 C42.4505,46.202 42.3875,45.957 42.3175,45.775 L41.4285,43.458 L40.6655,43.458 L42.1495,46.958 L41.9745,47.364 C41.8415,47.686 41.6105,47.882 41.3375,47.882 C41.1205,47.882 40.9245,47.735 40.9245,47.735 L40.6865,48.253 Z M46.0555,48.253 C46.0555,48.253 46.3425,48.47 46.7415,48.47 C47.2385,48.47 47.6725,48.183 47.8895,47.637 L49.5485,43.458 L48.8135,43.458 L47.9525,45.782 C47.8895,45.964 47.8335,46.202 47.8335,46.202 L47.8195,46.202 C47.8195,46.202 47.7565,45.957 47.6865,45.775 L46.7975,43.458 L46.0345,43.458 L47.5185,46.958 L47.3435,47.364 C47.2105,47.686 46.9795,47.882 46.7065,47.882 C46.4895,47.882 46.2935,47.735 46.2935,47.735 L46.0555,48.253 Z M49.8635,45.222 C49.8635,44.151 50.7175,43.374 51.7745,43.374 C52.8315,43.374 53.6855,44.151 53.6855,45.222 C53.6855,46.3 52.8315,47.084 51.7745,47.084 C50.7175,47.084 49.8635,46.3 49.8635,45.222 Z M50.5565,45.222 C50.5565,45.964 51.1095,46.496 51.7745,46.496 C52.4465,46.496 52.9925,45.964 52.9925,45.222 C52.9925,44.487 52.4465,43.962 51.7745,43.962 C51.1095,43.962 50.5565,44.487 50.5565,45.222 Z M56.850941,46.4598802 L56.9545,46.6175968 L56.9545,46.531 C56.9545,46.384 56.9685,46.272 56.9685,46.272 L56.9545,46.272 C56.9291816,46.3322819 56.8945189,46.3958862 56.850941,46.4598802 Z M56.9545,46.6175968 L56.850941,46.4598802 C56.6415033,46.7674391 56.2261419,47.084 55.6525,47.084 C54.8545,47.084 54.4415,46.664 54.4415,45.726 L54.4415,43.458 L55.1205,43.458 L55.1205,45.572 C55.1205,46.062 55.2185,46.454 55.7855,46.454 C56.5065,46.454 56.9335,45.817 56.9335,45.117 L56.9335,43.458 L57.6125,43.458 L57.6125,47 L56.9545,47 L56.9545,46.6175968 Z M60.1885,46.006 C60.1885,44.837 61.7285,44.788 62.3235,44.788 L62.4775,44.788 L62.4775,44.725 C62.4775,44.144 62.1485,43.948 61.7005,43.948 C61.1545,43.948 60.7135,44.291 60.7135,44.291 L60.4335,43.794 C60.4335,43.794 60.9445,43.374 61.7565,43.374 C62.6525,43.374 63.1565,43.864 63.1565,44.76 L63.1565,47 L62.5265,47 L62.5265,46.664 C62.5265,46.503 62.5405,46.384 62.5405,46.384 L62.5265,46.384 C62.5265,46.384 62.2395,47.084 61.3925,47.084 C60.7835,47.084 60.1885,46.713 60.1885,46.006 Z M60.8745,45.971 C60.8745,46.258 61.0985,46.538 61.5395,46.538 C62.1135,46.538 62.4845,45.936 62.4845,45.411 L62.4845,45.299 L62.3095,45.299 C61.7985,45.299 60.8745,45.334 60.8745,45.971 Z M63.8845,46.566 C63.8845,46.566 64.3605,47.084 65.2285,47.084 C66.0055,47.084 66.5095,46.643 66.5095,46.055 C66.5095,44.893 64.6895,45.033 64.6895,44.396 C64.6895,44.088 64.9765,43.962 65.2705,43.962 C65.8305,43.962 66.1455,44.277 66.1455,44.277 L66.4185,43.766 C66.4185,43.766 66.0545,43.374 65.2775,43.374 C64.5705,43.374 63.9965,43.738 63.9965,44.382 C63.9965,45.537 65.8165,45.404 65.8165,46.055 C65.8165,46.342 65.5225,46.496 65.2285,46.496 C64.6125,46.496 64.2135,46.083 64.2135,46.083 L63.8845,46.566 Z M68.8195,46.566 C68.8195,46.566 69.2955,47.084 70.1635,47.084 C70.9405,47.084 71.4445,46.643 71.4445,46.055 C71.4445,44.893 69.6245,45.033 69.6245,44.396 C69.6245,44.088 69.9115,43.962 70.2055,43.962 C70.7655,43.962 71.0805,44.277 71.0805,44.277 L71.3535,43.766 C71.3535,43.766 70.9895,43.374 70.2125,43.374 C69.5055,43.374 68.9315,43.738 68.9315,44.382 C68.9315,45.537 70.7515,45.404 70.7515,46.055 C70.7515,46.342 70.4575,46.496 70.1635,46.496 C69.5475,46.496 69.1485,46.083 69.1485,46.083 L68.8195,46.566 Z M71.9835,45.222 C71.9835,44.151 72.8375,43.374 73.8945,43.374 C74.9515,43.374 75.8055,44.151 75.8055,45.222 C75.8055,46.3 74.9515,47.084 73.8945,47.084 C72.8375,47.084 71.9835,46.3 71.9835,45.222 Z M72.6765,45.222 C72.6765,45.964 73.2295,46.496 73.8945,46.496 C74.5665,46.496 75.1125,45.964 75.1125,45.222 C75.1125,44.487 74.5665,43.962 73.8945,43.962 C73.2295,43.962 72.6765,44.487 72.6765,45.222 Z M76.3515,45.222 C76.3515,44.151 77.2055,43.374 78.2625,43.374 C79.3195,43.374 80.1735,44.151 80.1735,45.222 C80.1735,46.3 79.3195,47.084 78.2625,47.084 C77.2055,47.084 76.3515,46.3 76.3515,45.222 Z M77.0445,45.222 C77.0445,45.964 77.5975,46.496 78.2625,46.496 C78.9345,46.496 79.4805,45.964 79.4805,45.222 C79.4805,44.487 78.9345,43.962 78.2625,43.962 C77.5975,43.962 77.0445,44.487 77.0445,45.222 Z M81.7341141,44.0129896 L81.6365,43.8214474 L81.6365,43.927 C81.6365,44.067 81.6225,44.186 81.6225,44.186 L81.6365,44.186 C81.6606128,44.1329519 81.6930316,44.0740896 81.7341141,44.0129896 Z M81.6365,43.8214474 L81.7341141,44.0129896 C81.9315591,43.7193391 82.3291201,43.374 82.9665,43.374 C83.7995,43.374 84.1845,43.829 84.1845,44.732 L84.1845,47 L83.5055,47 L83.5055,44.886 C83.5055,44.389 83.4005,43.997 82.8335,43.997 C82.2945,43.997 81.8605,44.354 81.7135,44.865 C81.6715,45.005 81.6575,45.166 81.6575,45.341 L81.6575,47 L80.9785,47 L80.9785,43.458 L81.6365,43.458 L81.6365,43.8214474 Z M86.7115,46.006 C86.7115,44.837 88.2515,44.788 88.8465,44.788 L89.0005,44.788 L89.0005,44.725 C89.0005,44.144 88.6715,43.948 88.2235,43.948 C87.6775,43.948 87.2365,44.291 87.2365,44.291 L86.9565,43.794 C86.9565,43.794 87.4675,43.374 88.2795,43.374 C89.1755,43.374 89.6795,43.864 89.6795,44.76 L89.6795,47 L89.0495,47 L89.0495,46.664 C89.0495,46.503 89.0635,46.384 89.0635,46.384 L89.0495,46.384 C89.0495,46.384 88.7625,47.084 87.9155,47.084 C87.3065,47.084 86.7115,46.713 86.7115,46.006 Z M87.3975,45.971 C87.3975,46.258 87.6215,46.538 88.0625,46.538 C88.6365,46.538 89.0075,45.936 89.0075,45.411 L89.0075,45.299 L88.8325,45.299 C88.3215,45.299 87.3975,45.334 87.3975,45.971 Z M90.4075,46.566 C90.4075,46.566 90.8835,47.084 91.7515,47.084 C92.5285,47.084 93.0325,46.643 93.0325,46.055 C93.0325,44.893 91.2125,45.033 91.2125,44.396 C91.2125,44.088 91.4995,43.962 91.7935,43.962 C92.3535,43.962 92.6685,44.277 92.6685,44.277 L92.9415,43.766 C92.9415,43.766 92.5775,43.374 91.8005,43.374 C91.0935,43.374 90.5195,43.738 90.5195,44.382 C90.5195,45.537 92.3395,45.404 92.3395,46.055 C92.3395,46.342 92.0455,46.496 91.7515,46.496 C91.1355,46.496 90.7365,46.083 90.7365,46.083 L90.4075,46.566 Z M95.6225,42.751 L96.3085,42.751 L96.3085,42.058 L95.6225,42.058 L95.6225,42.751 Z M95.6295,47 L96.3085,47 L96.3085,43.458 L95.6295,43.458 L95.6295,47 Z M97.5195,45.705 C97.5195,46.888 98.4225,47.028 98.8775,47.028 C99.0175,47.028 99.1155,47.014 99.1155,47.014 L99.1155,46.412 C99.1155,46.412 99.0525,46.426 98.9545,46.426 C98.6955,46.426 98.1985,46.335 98.1985,45.628 L98.1985,44.053 L99.0525,44.053 L99.0525,43.507 L98.1985,43.507 L98.1985,42.485 L97.5405,42.485 L97.5405,43.507 L97.0575,43.507 L97.0575,44.053 L97.5195,44.053 L97.5195,45.705 Z M99.7035,43.339 L100.2075,43.339 L100.6625,41.974 L100.0045,41.974 L99.7035,43.339 Z M101.1245,46.566 C101.1245,46.566 101.6005,47.084 102.4685,47.084 C103.2455,47.084 103.7495,46.643 103.7495,46.055 C103.7495,44.893 101.9295,45.033 101.9295,44.396 C101.9295,44.088 102.2165,43.962 102.5105,43.962 C103.0705,43.962 103.3855,44.277 103.3855,44.277 L103.6585,43.766 C103.6585,43.766 103.2945,43.374 102.5175,43.374 C101.8105,43.374 101.2365,43.738 101.2365,44.382 C101.2365,45.537 103.0565,45.404 103.0565,46.055 C103.0565,46.342 102.7625,46.496 102.4685,46.496 C101.8525,46.496 101.4535,46.083 101.4535,46.083 L101.1245,46.566 Z M107.089636,44.1235236 L107.0045,43.981775 L107.0045,44.074 C107.0045,44.221 106.9905,44.34 106.9905,44.34 L107.0045,44.34 C107.027745,44.2652116 107.056243,44.1927578 107.089636,44.1235236 Z M107.0045,43.981775 L107.089636,44.1235236 C107.28753,43.7132273 107.657331,43.416 108.1245,43.416 C108.2155,43.416 108.2995,43.43 108.2995,43.43 L108.2995,44.102 C108.2995,44.102 108.2085,44.081 108.1035,44.081 C107.6695,44.081 107.2705,44.389 107.1095,44.914 C107.0465,45.117 107.0255,45.334 107.0255,45.551 L107.0255,47 L106.3465,47 L106.3465,43.458 L107.0045,43.458 L107.0045,43.981775 Z M108.7055,45.229 C108.7055,44.102 109.4685,43.374 110.4765,43.374 C111.4775,43.374 112.0095,44.116 112.0095,45.033 C112.0095,45.124 111.9885,45.327 111.9885,45.327 L109.4055,45.327 C109.4405,46.104 109.9935,46.496 110.6235,46.496 C111.2325,46.496 111.6735,46.083 111.6735,46.083 L111.9535,46.58 C111.9535,46.58 111.4285,47.084 110.5815,47.084 C109.4685,47.084 108.7055,46.279 108.7055,45.229 Z M109.4265,44.816 L111.3165,44.816 C111.2955,44.207 110.9175,43.913 110.4625,43.913 C109.9445,43.913 109.5245,44.235 109.4265,44.816 Z M112.7935,46.034 C112.7935,46.923 113.3605,47.028 113.7455,47.028 C113.8645,47.028 113.9695,47.014 113.9695,47.014 L113.9695,46.412 C113.9695,46.412 113.9135,46.419 113.8505,46.419 C113.6405,46.419 113.4725,46.342 113.4725,45.915 L113.4725,42.058 L112.7935,42.058 L112.7935,46.034 Z M114.4455,45.229 C114.4455,44.102 115.2085,43.374 116.2165,43.374 C117.2175,43.374 117.7495,44.116 117.7495,45.033 C117.7495,45.124 117.7285,45.327 117.7285,45.327 L115.1455,45.327 C115.1805,46.104 115.7335,46.496 116.3635,46.496 C116.9725,46.496 117.4135,46.083 117.4135,46.083 L117.6935,46.58 C117.6935,46.58 117.1685,47.084 116.3215,47.084 C115.2085,47.084 114.4455,46.279 114.4455,45.229 Z M115.1665,44.816 L117.0565,44.816 C117.0355,44.207 116.6575,43.913 116.2025,43.913 C115.6845,43.913 115.2645,44.235 115.1665,44.816 Z M118.2885,46.006 C118.2885,44.837 119.8285,44.788 120.4235,44.788 L120.5775,44.788 L120.5775,44.725 C120.5775,44.144 120.2485,43.948 119.8005,43.948 C119.2545,43.948 118.8135,44.291 118.8135,44.291 L118.5335,43.794 C118.5335,43.794 119.0445,43.374 119.8565,43.374 C120.7525,43.374 121.2565,43.864 121.2565,44.76 L121.2565,47 L120.6265,47 L120.6265,46.664 C120.6265,46.503 120.6405,46.384 120.6405,46.384 L120.6265,46.384 C120.6265,46.384 120.3395,47.084 119.4925,47.084 C118.8835,47.084 118.2885,46.713 118.2885,46.006 Z M118.9745,45.971 C118.9745,46.258 119.1985,46.538 119.6395,46.538 C120.2135,46.538 120.5845,45.936 120.5845,45.411 L120.5845,45.299 L120.4095,45.299 C119.8985,45.299 118.9745,45.334 118.9745,45.971 Z M121.9845,46.566 C121.9845,46.566 122.4605,47.084 123.3285,47.084 C124.1055,47.084 124.6095,46.643 124.6095,46.055 C124.6095,44.893 122.7895,45.033 122.7895,44.396 C122.7895,44.088 123.0765,43.962 123.3705,43.962 C123.9305,43.962 124.2455,44.277 124.2455,44.277 L124.5185,43.766 C124.5185,43.766 124.1545,43.374 123.3775,43.374 C122.6705,43.374 122.0965,43.738 122.0965,44.382 C122.0965,45.537 123.9165,45.404 123.9165,46.055 C123.9165,46.342 123.6225,46.496 123.3285,46.496 C122.7125,46.496 122.3135,46.083 122.3135,46.083 L121.9845,46.566 Z M125.1625,45.229 C125.1625,44.102 125.9255,43.374 126.9335,43.374 C127.9345,43.374 128.4665,44.116 128.4665,45.033 C128.4665,45.124 128.4455,45.327 128.4455,45.327 L125.8625,45.327 C125.8975,46.104 126.4505,46.496 127.0805,46.496 C127.6895,46.496 128.1305,46.083 128.1305,46.083 L128.4105,46.58 C128.4105,46.58 127.8855,47.084 127.0385,47.084 C125.9255,47.084 125.1625,46.279 125.1625,45.229 Z M125.8835,44.816 L127.7735,44.816 C127.7525,44.207 127.3745,43.913 126.9195,43.913 C126.4015,43.913 125.9815,44.235 125.8835,44.816 Z M129.0615,45.229 C129.0615,44.102 129.7265,43.374 130.6645,43.374 C131.4835,43.374 131.7565,43.934 131.7565,43.934 L131.7705,43.934 C131.7705,43.934 131.7565,43.829 131.7565,43.696 L131.7565,42.058 L132.4355,42.058 L132.4355,47 L131.7915,47 L131.7915,46.664 C131.7915,46.524 131.7985,46.426 131.7985,46.426 L131.7845,46.426 C131.7845,46.426 131.4975,47.084 130.6225,47.084 C129.6635,47.084 129.0615,46.328 129.0615,45.229 Z M129.7545,45.229 C129.7545,45.999 130.1675,46.496 130.7555,46.496 C131.2805,46.496 131.7775,46.125 131.7775,45.222 C131.7775,44.592 131.4485,43.962 130.7765,43.962 C130.2165,43.962 129.7545,44.424 129.7545,45.229 Z M133.4995,47 L134.2135,47 L134.2135,46.279 L133.4995,46.279 L133.4995,47 Z" id="Your-app-is-being-re" fill="#969CAC"></path>
                                            <rect id="Rectangle-1" fill="#444F6C" x="53" y="67" width="30" height="12" rx="1"></rect>
                                            <path d="M65.505875,73.08 C65.505875,72.42025 66.019375,71.9035 66.698625,71.9035 C67.377875,71.9035 67.891375,72.42025 67.891375,73.08 C67.891375,73.75925 67.377875,74.289 66.698625,74.289 C66.019375,74.289 65.505875,73.75925 65.505875,73.08 Z M65.938125,73.08 C65.938125,73.5545 66.276125,73.9055 66.698625,73.9055 C67.121125,73.9055 67.459125,73.5545 67.459125,73.08 C67.459125,72.625 67.121125,72.287 66.698625,72.287 C66.276125,72.287 65.938125,72.625 65.938125,73.08 Z M68.567125,74.25 L68.986375,74.25 L68.986375,73.2425 L69.285375,73.2425 L69.850875,74.25 L70.322125,74.25 L69.629875,73.0475 L69.629875,73.041 L70.283125,71.9425 L69.828125,71.9425 L69.285375,72.88175 L68.986375,72.88175 L68.986375,71.9425 L68.567125,71.9425 L68.567125,74.25 Z" id="Type-something-22" fill="#FFFFFF"></path>
                                        </g>
                                    </g>
                                    <g id="Group-49" mask="url(#mask-6)">
                                        <g transform="translate(20.000000, 79.000000)">
                                            <g id="Group-4" transform="translate(135.000000, 64.000000)"></g>
                                            <g id="Group-50"></g>
                                        </g>
                                    </g>
                                </g>
                                <rect id="Rectangle-21-Copy-5" fill="#E7E8EC" x="217.37037" y="176.298077" width="40.8888889" height="18.7211538"></rect>
                            </g>
                            <g id="Group-15" stroke-width="1" fill="none" transform="translate(25.555556, 189.932692)">
                                <path d="M0,96.3636364 L0,92 L408.888889,92 L408.888889,96.3636364 C402.827979,100.366477 396.349777,103.033144 389.454282,104.363636 C382.817564,105.644198 371.47683,108 346.103393,108 C259.979797,108 151.373027,108 65.2494305,108 C43.2444795,108 24.7174977,105.450994 16.000877,103.636364 C10.5243855,102.496265 5.19075984,100.072022 0,96.3636364 Z" id="Body" fill-opacity="0.02" fill="#FFFFFF"></path>
                                <rect id="Rectangle-448" fill="#444F6C" x="243.62963" y="1.70530257e-13" width="61.3333333" height="122.538462" rx="6.81481481"></rect>
                                <rect id="Rectangle-509" fill="#FFFFFF" x="247.037037" y="11.9134615" width="54.5185185" height="98.7115385"></rect>
                                <path d="M284.193602,72.7554302 C282.97349,74.6546501 281.679878,76.5079212 279.710058,76.5385538 C277.740239,76.5845027 277.108133,75.3285669 274.873711,75.3285669 C272.624589,75.3285669 271.933682,76.5079212 270.066763,76.5845027 C268.141044,76.6610841 266.68573,74.5627524 265.450918,72.7094813 C262.937193,68.9263578 261.011474,61.9574459 263.5987,57.2706612 C264.877612,54.9425852 267.170835,53.4722214 269.655159,53.4262725 C271.536778,53.3956399 273.330195,54.7587897 274.491507,54.7587897 C275.638118,54.7587897 277.81374,53.1199467 280.092262,53.3650073 C281.047771,53.4109562 283.723198,53.7632309 285.443115,56.3976327 C285.310813,56.4895305 282.253183,58.3581178 282.282583,62.2331391 C282.326684,66.8586586 286.178122,68.4056039 286.222222,68.4209202 C286.178122,68.5281342 285.604816,70.6264659 284.193602,72.7554302 L284.193602,72.7554302 Z M275.79982,48.2493665 C276.87293,46.9781145 278.651648,46.0131882 280.121662,45.9519231 C280.312764,47.743929 279.621857,49.5512512 278.592847,50.8378195 C277.578537,52.1397042 275.902721,53.1505793 274.256305,53.0127327 C274.035802,51.2513593 274.85901,49.4134046 275.79982,48.2493665 L275.79982,48.2493665 Z" id="Icon-Shape" fill="#7B8397"></path>
                            </g>
                            <g id="Group-14" stroke-width="1" fill="none" transform="translate(344.148148, 189.932692)">
                                <rect id="Rectangle-448-Copy" fill="#444F6C" x="0" y="1.70530257e-13" width="61.3333333" height="122.538462" rx="13.6296296"></rect>
                                <rect id="Rectangle-509" fill="#FFFFFF" x="3.40740741" y="11.9134615" width="54.5185185" height="98.7115385"></rect>
                                <path d="M22.4888889,68.5024038 C22.4888889,69.2434495 23.1022222,69.8497596 23.8518519,69.8497596 L25.2148148,69.8497596 L25.2148148,74.5655048 C25.2148148,75.6838101 26.128,76.5865385 27.2592593,76.5865385 C28.3905185,76.5865385 29.3037037,75.6838101 29.3037037,74.5655048 L29.3037037,69.8497596 L32.0296296,69.8497596 L32.0296296,74.5655048 C32.0296296,75.6838101 32.9428148,76.5865385 34.0740741,76.5865385 C35.2053333,76.5865385 36.1185185,75.6838101 36.1185185,74.5655048 L36.1185185,69.8497596 L37.4814815,69.8497596 C38.2311111,69.8497596 38.8444444,69.2434495 38.8444444,68.5024038 L38.8444444,55.0288462 L22.4888889,55.0288462 L22.4888889,68.5024038 L22.4888889,68.5024038 Z M19.0814815,55.0288462 C17.9502222,55.0288462 17.037037,55.9315745 17.037037,57.0498798 L17.037037,66.4813702 C17.037037,67.5996755 17.9502222,68.5024038 19.0814815,68.5024038 C20.2127407,68.5024038 21.1259259,67.5996755 21.1259259,66.4813702 L21.1259259,57.0498798 C21.1259259,55.9315745 20.2127407,55.0288462 19.0814815,55.0288462 L19.0814815,55.0288462 Z M42.2518519,55.0288462 C41.1205926,55.0288462 40.2074074,55.9315745 40.2074074,57.0498798 L40.2074074,66.4813702 C40.2074074,67.5996755 41.1205926,68.5024038 42.2518519,68.5024038 C43.3831111,68.5024038 44.2962963,67.5996755 44.2962963,66.4813702 L44.2962963,57.0498798 C44.2962963,55.9315745 43.3831111,55.0288462 42.2518519,55.0288462 L42.2518519,55.0288462 Z M35.4779259,47.1602885 L37.2497778,45.408726 C37.5223704,45.1392548 37.5223704,44.7215745 37.2497778,44.4521034 C36.9771852,44.1826322 36.5546667,44.1826322 36.2820741,44.4521034 L34.2648889,46.4461899 C33.1881481,45.9072476 31.9614815,45.5973558 30.6666667,45.5973558 C29.3582222,45.5973558 28.1315556,45.9072476 27.0411852,46.4461899 L25.0103704,44.4521034 C24.7377778,44.1826322 24.3152593,44.1826322 24.0426667,44.4521034 C23.7700741,44.7215745 23.7700741,45.1392548 24.0426667,45.408726 L25.8281481,47.173762 C23.810963,48.6423798 22.4888889,51.0002524 22.4888889,53.6814904 L38.8444444,53.6814904 C38.8444444,51.0002524 37.5223704,48.6289063 35.4779259,47.1602885 L35.4779259,47.1602885 Z M27.9407407,50.9867788 L26.5777778,50.9867788 L26.5777778,49.6394231 L27.9407407,49.6394231 L27.9407407,50.9867788 L27.9407407,50.9867788 Z M34.7555556,50.9867788 L33.3925926,50.9867788 L33.3925926,49.6394231 L34.7555556,49.6394231 L34.7555556,50.9867788 L34.7555556,50.9867788 Z" id="Icon-Shape" fill="#7B8397"></path>
                            </g>
                        </g>
                    </g>
                </g>
            </g>
        </g>
    </g>
</svg>