<?xml version="1.0" encoding="UTF-8"?>
<svg width="510px" height="280px" viewBox="0 0 510 280" version="1.1" xmlns="http://www.w3.org/2000/svg" xmlns:xlink="http://www.w3.org/1999/xlink">
    <!-- Generator: sketchtool 47.1 (45422) - http://www.bohemiancoding.com/sketch -->
    <title>85AEBA00-AE85-4DF8-BE57-68228EC97C09</title>
    <desc>Created with sketchtool.</desc>
    <defs>
        <rect id="path-1" x="0" y="0" width="510" height="280" rx="4"></rect>
        <path d="M16.2371134,0 L413.762887,0 L413.762887,-2.84217094e-14 C422.730397,-3.00690143e-14 430,7.26960329 430,16.2371134 L430,241 L-7.95807864e-13,241 L-7.95807864e-13,16.2371134 L-7.95807864e-13,16.2371134 C-7.96906067e-13,7.26960329 7.26960329,1.64730488e-15 16.2371134,0 Z" id="path-3"></path>
        <rect id="path-5" x="16" y="31" width="387" height="210"></rect>
        <path d="M3.03,8.12 C4.52,8.12 5.41,7.26 5.41,6.21 C5.41,5.25 4.79,4.78 3.97,4.46 L3.08,4.07 C2.5,3.84 1.94,3.63 1.94,3.06 C1.94,2.53 2.4,2.2 3.09,2.2 C3.76,2.2 4.24,2.42 4.67,2.79 L5.19,2.15 C4.68,1.65 3.95,1.33 3.14,1.33 C1.84,1.33 0.93,2.1 0.93,3.12 C0.93,4.08 1.66,4.57 2.33,4.83 L3.25,5.24 C3.91,5.51 4.39,5.69 4.39,6.33 C4.39,6.87 3.92,7.25 3.09,7.25 C2.37,7.25 1.71,6.94 1.21,6.47 L0.63,7.15 C1.25,7.76 2.09,8.12 3.03,8.12 Z M9.3,8.12 C7.82,8.12 6.65,7.18 6.65,5.55 C6.65,3.96 7.85,2.99 9.15,2.99 C10.59,2.99 11.4,3.94 11.4,5.3 C11.4,5.51 11.38,5.71 11.36,5.84 L7.64,5.84 C7.75,6.85 8.47,7.34 9.43,7.34 C9.97,7.34 10.41,7.18 10.85,6.91 L11.2,7.54 C10.7,7.87 10.05,8.12 9.3,8.12 Z M9.18,3.77 C8.44,3.77 7.81,4.24 7.66,5.11 L10.51,5.11 C10.44,4.22 9.94,3.77 9.18,3.77 Z M16.04,8.12 C16.59,8.12 16.92,8.02 17.39,7.84 L17.15,7.1 C16.82,7.24 16.54,7.31 16.27,7.31 C15.73,7.31 15.35,7.03 15.35,6.35 L15.35,0.91 L12.76,0.91 L12.76,1.7 L14.36,1.7 L14.36,6.29 C14.36,7.47 14.95,8.12 16.04,8.12 Z M21.3,8.12 C19.82,8.12 18.65,7.18 18.65,5.55 C18.65,3.96 19.85,2.99 21.15,2.99 C22.59,2.99 23.4,3.94 23.4,5.3 C23.4,5.51 23.38,5.71 23.36,5.84 L19.64,5.84 C19.75,6.85 20.47,7.34 21.43,7.34 C21.97,7.34 22.41,7.18 22.85,6.91 L23.2,7.54 C22.7,7.87 22.05,8.12 21.3,8.12 Z M21.18,3.77 C20.44,3.77 19.81,4.24 19.66,5.11 L22.51,5.11 C22.44,4.22 21.94,3.77 21.18,3.77 Z M27.45,8.12 C28.16,8.12 28.86,7.85 29.41,7.37 L28.98,6.73 C28.59,7.05 28.12,7.31 27.53,7.31 C26.49,7.31 25.78,6.61 25.78,5.56 C25.78,4.51 26.51,3.81 27.56,3.81 C28.04,3.81 28.44,4 28.83,4.32 L29.31,3.69 C28.91,3.3 28.31,2.99 27.51,2.99 C26.03,2.99 24.76,3.93 24.76,5.56 C24.76,7.18 25.92,8.12 27.45,8.12 Z M33.92,8.12 C34.55,8.12 35.03,7.99 35.47,7.84 L35.27,7.11 C34.93,7.24 34.58,7.32 34.15,7.32 C33.26,7.32 32.97,6.91 32.97,6.07 L32.97,3.91 L35.28,3.91 L35.28,3.11 L32.97,3.11 L32.97,1.56 L32.15,1.56 L32.02,3.11 L30.64,3.16 L30.64,3.91 L31.98,3.91 L31.98,6.07 C31.98,7.29 32.47,8.12 33.92,8.12 Z M45.92,8.12 C46.55,8.12 47.03,7.99 47.47,7.84 L47.27,7.11 C46.93,7.24 46.58,7.32 46.15,7.32 C45.26,7.32 44.97,6.91 44.97,6.07 L44.97,3.91 L47.28,3.91 L47.28,3.11 L44.97,3.11 L44.97,1.56 L44.15,1.56 L44.02,3.11 L42.64,3.16 L42.64,3.91 L43.98,3.91 L43.98,6.07 C43.98,7.29 44.47,8.12 45.92,8.12 Z M48.88,8 L49.87,8 L49.87,4.63 C50.37,4.11 50.74,3.85 51.26,3.85 C52,3.85 52.28,4.25 52.28,5.1 L52.28,8 L53.27,8 L53.27,4.97 C53.27,3.7 52.75,2.99 51.61,2.99 C50.86,2.99 50.3,3.39 49.84,3.89 L49.81,3.89 L49.87,2.79 L49.87,0.91 L48.88,0.91 L48.88,8 Z M57.3,8.12 C55.82,8.12 54.65,7.18 54.65,5.55 C54.65,3.96 55.85,2.99 57.15,2.99 C58.59,2.99 59.4,3.94 59.4,5.3 C59.4,5.51 59.38,5.71 59.36,5.84 L55.64,5.84 C55.75,6.85 56.47,7.34 57.43,7.34 C57.97,7.34 58.41,7.18 58.85,6.91 L59.2,7.54 C58.7,7.87 58.05,8.12 57.3,8.12 Z M57.18,3.77 C56.44,3.77 55.81,4.24 55.66,5.11 L58.51,5.11 C58.44,4.22 57.94,3.77 57.18,3.77 Z M68.41,8.12 C67.47,8.12 66.76,7.57 66.76,6.71 C66.76,5.61 67.75,5.08 70.21,4.89 C70.18,4.29 69.86,3.8 68.99,3.8 C68.39,3.8 67.81,4.07 67.33,4.35 L66.96,3.68 C67.5,3.35 68.31,2.99 69.16,2.99 C70.51,2.99 71.2,3.77 71.2,5.06 L71.2,8 L70.39,8 L70.31,7.37 L70.28,7.37 C69.76,7.77 69.08,8.12 68.41,8.12 Z M68.69,7.33 C69.21,7.33 69.71,7.09 70.21,6.68 L70.21,5.52 C68.29,5.67 67.72,6.05 67.72,6.64 C67.72,7.13 68.16,7.33 68.69,7.33 Z M72.88,10 L72.88,3.11 L73.69,3.11 L73.77,3.71 L73.8,3.71 C74.24,3.29 74.85,2.99 75.43,2.99 C76.72,2.99 77.44,3.97 77.44,5.48 C77.44,7.15 76.39,8.12 75.24,8.12 C74.79,8.12 74.26,7.9 73.85,7.52 L73.82,7.52 L73.87,8.4 L73.87,10 L72.88,10 Z M75.05,7.3 C75.83,7.3 76.42,6.65 76.42,5.49 C76.42,4.47 76.04,3.82 75.16,3.82 C74.76,3.82 74.31,4.02 73.87,4.48 L73.87,6.79 C74.28,7.16 74.74,7.3 75.05,7.3 Z M78.88,10 L78.88,3.11 L79.69,3.11 L79.77,3.71 L79.8,3.71 C80.24,3.29 80.85,2.99 81.43,2.99 C82.72,2.99 83.44,3.97 83.44,5.48 C83.44,7.15 82.39,8.12 81.24,8.12 C80.79,8.12 80.26,7.9 79.85,7.52 L79.82,7.52 L79.87,8.4 L79.87,10 L78.88,10 Z M81.05,7.3 C81.83,7.3 82.42,6.65 82.42,5.49 C82.42,4.47 82.04,3.82 81.16,3.82 C80.76,3.82 80.31,4.02 79.87,4.48 L79.87,6.79 C80.28,7.16 80.74,7.3 81.05,7.3 Z M91.34,10.05 C92.48,10.05 93.08,9.35 93.47,8.31 L95.56,3.11 L94.62,3.11 L93.65,5.66 C93.49,6.11 93.31,6.62 93.15,7.09 L93.11,7.09 C92.91,6.61 92.72,6.1 92.54,5.66 L91.44,3.11 L90.45,3.11 L92.68,7.97 L92.55,8.31 C92.33,8.85 91.94,9.25 91.29,9.25 C91.14,9.25 90.99,9.22 90.87,9.18 L90.67,9.95 C90.85,10.01 91.1,10.05 91.34,10.05 Z M99,8.12 C97.72,8.12 96.56,7.18 96.56,5.56 C96.56,3.93 97.72,2.99 99,2.99 C100.28,2.99 101.44,3.93 101.44,5.56 C101.44,7.18 100.28,8.12 99,8.12 Z M99,7.31 C99.87,7.31 100.42,6.61 100.42,5.56 C100.42,4.51 99.87,3.81 99,3.81 C98.13,3.81 97.58,4.51 97.58,5.56 C97.58,6.61 98.13,7.31 99,7.31 Z M104.4,8.12 C105.14,8.12 105.69,7.74 106.17,7.19 L106.21,7.19 L106.29,8 L107.1,8 L107.1,3.11 L106.11,3.11 L106.11,6.46 C105.63,7.04 105.25,7.27 104.74,7.27 C104,7.27 103.72,6.87 103.72,6.01 L103.72,3.11 L102.73,3.11 L102.73,6.14 C102.73,7.42 103.25,8.12 104.4,8.12 Z M115.07,8 L116.29,8 L116.76,5.86 C116.84,5.45 116.91,4.98 116.98,4.42 L117.02,4.42 C117.09,5.02 117.17,5.5 117.25,5.86 L117.73,8 L118.96,8 L119.93,3.11 L119.01,3.11 L118.51,5.8 C118.43,6.27 118.39,6.7 118.31,7.17 L118.27,7.17 C118.21,6.7 118.09,6.27 117.99,5.8 L117.47,3.51 L116.59,3.51 L116.06,5.8 C115.96,6.26 115.86,6.7 115.8,7.17 L115.76,7.17 C115.7,6.7 115.64,6.27 115.55,5.8 L115.05,3.11 L114.07,3.11 L115.07,8 Z M122.41,8.12 C121.47,8.12 120.76,7.57 120.76,6.71 C120.76,5.61 121.75,5.08 124.21,4.89 C124.18,4.29 123.86,3.8 122.99,3.8 C122.39,3.8 121.81,4.07 121.33,4.35 L120.96,3.68 C121.5,3.35 122.31,2.99 123.16,2.99 C124.51,2.99 125.2,3.77 125.2,5.06 L125.2,8 L124.39,8 L124.31,7.37 L124.28,7.37 C123.76,7.77 123.08,8.12 122.41,8.12 Z M122.69,7.33 C123.21,7.33 123.71,7.09 124.21,6.68 L124.21,5.52 C122.29,5.67 121.72,6.05 121.72,6.64 C121.72,7.13 122.16,7.33 122.69,7.33 Z M126.88,8 L127.87,8 L127.87,4.63 C128.37,4.11 128.74,3.85 129.26,3.85 C130,3.85 130.28,4.25 130.28,5.1 L130.28,8 L131.27,8 L131.27,4.97 C131.27,3.7 130.75,2.99 129.61,2.99 C128.85,2.99 128.3,3.39 127.81,3.9 L127.77,3.9 L127.69,3.11 L126.88,3.11 L126.88,8 Z M135.92,8.12 C136.55,8.12 137.03,7.99 137.47,7.84 L137.27,7.11 C136.93,7.24 136.58,7.32 136.15,7.32 C135.26,7.32 134.97,6.91 134.97,6.07 L134.97,3.91 L137.28,3.91 L137.28,3.11 L134.97,3.11 L134.97,1.56 L134.15,1.56 L134.02,3.11 L132.64,3.16 L132.64,3.91 L133.98,3.91 L133.98,6.07 C133.98,7.29 134.47,8.12 135.92,8.12 Z M147.92,8.12 C148.55,8.12 149.03,7.99 149.47,7.84 L149.27,7.11 C148.93,7.24 148.58,7.32 148.15,7.32 C147.26,7.32 146.97,6.91 146.97,6.07 L146.97,3.91 L149.28,3.91 L149.28,3.11 L146.97,3.11 L146.97,1.56 L146.15,1.56 L146.02,3.11 L144.64,3.16 L144.64,3.91 L145.98,3.91 L145.98,6.07 C145.98,7.29 146.47,8.12 147.92,8.12 Z M153,8.12 C151.72,8.12 150.56,7.18 150.56,5.56 C150.56,3.93 151.72,2.99 153,2.99 C154.28,2.99 155.44,3.93 155.44,5.56 C155.44,7.18 154.28,8.12 153,8.12 Z M153,7.31 C153.87,7.31 154.42,6.61 154.42,5.56 C154.42,4.51 153.87,3.81 153,3.81 C152.13,3.81 151.58,4.51 151.58,5.56 C151.58,6.61 152.13,7.31 153,7.31 Z M165.45,8.12 C166.16,8.12 166.86,7.85 167.41,7.37 L166.98,6.73 C166.59,7.05 166.12,7.31 165.53,7.31 C164.49,7.31 163.78,6.61 163.78,5.56 C163.78,4.51 164.51,3.81 165.56,3.81 C166.04,3.81 166.44,4 166.83,4.32 L167.31,3.69 C166.91,3.3 166.31,2.99 165.51,2.99 C164.03,2.99 162.76,3.93 162.76,5.56 C162.76,7.18 163.92,8.12 165.45,8.12 Z M172.04,8.12 C172.59,8.12 172.92,8.02 173.39,7.84 L173.15,7.1 C172.82,7.24 172.54,7.31 172.27,7.31 C171.73,7.31 171.35,7.03 171.35,6.35 L171.35,0.91 L168.76,0.91 L168.76,1.7 L170.36,1.7 L170.36,6.29 C170.36,7.47 170.95,8.12 172.04,8.12 Z M177,8.12 C175.72,8.12 174.56,7.18 174.56,5.56 C174.56,3.93 175.72,2.99 177,2.99 C178.28,2.99 179.44,3.93 179.44,5.56 C179.44,7.18 178.28,8.12 177,8.12 Z M177,7.31 C177.87,7.31 178.42,6.61 178.42,5.56 C178.42,4.51 177.87,3.81 177,3.81 C176.13,3.81 175.58,4.51 175.58,5.56 C175.58,6.61 176.13,7.31 177,7.31 Z M180.88,8 L181.87,8 L181.87,4.63 C182.37,4.11 182.74,3.85 183.26,3.85 C184,3.85 184.28,4.25 184.28,5.1 L184.28,8 L185.27,8 L185.27,4.97 C185.27,3.7 184.75,2.99 183.61,2.99 C182.85,2.99 182.3,3.39 181.81,3.9 L181.77,3.9 L181.69,3.11 L180.88,3.11 L180.88,8 Z M189.3,8.12 C187.82,8.12 186.65,7.18 186.65,5.55 C186.65,3.96 187.85,2.99 189.15,2.99 C190.59,2.99 191.4,3.94 191.4,5.3 C191.4,5.51 191.38,5.71 191.36,5.84 L187.64,5.84 C187.75,6.85 188.47,7.34 189.43,7.34 C189.97,7.34 190.41,7.18 190.85,6.91 L191.2,7.54 C190.7,7.87 190.05,8.12 189.3,8.12 Z M189.18,3.77 C188.44,3.77 187.81,4.24 187.66,5.11 L190.51,5.11 C190.44,4.22 189.94,3.77 189.18,3.77 Z M195,4.63 C195.51,4.63 195.9,4.25 195.9,3.7 C195.9,3.16 195.51,2.77 195,2.77 C194.49,2.77 194.1,3.16 194.1,3.7 C194.1,4.25 194.49,4.63 195,4.63 Z M195,8.12 C195.51,8.12 195.9,7.74 195.9,7.19 C195.9,6.65 195.51,6.26 195,6.26 C194.49,6.26 194.1,6.65 194.1,7.19 C194.1,7.74 194.49,8.12 195,8.12 Z M204.78,8 L205.74,8 L205.74,4.86 C205.74,4.16 205.64,3.41 205.6,2.73 L205.63,2.73 L206.24,4.11 L208.15,8 L209.22,8 L209.22,1.45 L208.26,1.45 L208.26,4.57 C208.26,5.28 208.36,6.06 208.4,6.72 L208.37,6.72 L207.76,5.34 L205.85,1.45 L204.78,1.45 L204.78,8 Z M213.3,8.12 C211.82,8.12 210.65,7.18 210.65,5.55 C210.65,3.96 211.85,2.99 213.15,2.99 C214.59,2.99 215.4,3.94 215.4,5.3 C215.4,5.51 215.38,5.71 215.36,5.84 L211.64,5.84 C211.75,6.85 212.47,7.34 213.43,7.34 C213.97,7.34 214.41,7.18 214.85,6.91 L215.2,7.54 C214.7,7.87 214.05,8.12 213.3,8.12 Z M213.18,3.77 C212.44,3.77 211.81,4.24 211.66,5.11 L214.51,5.11 C214.44,4.22 213.94,3.77 213.18,3.77 Z M217.07,8 L218.29,8 L218.76,5.86 C218.84,5.45 218.91,4.98 218.98,4.42 L219.02,4.42 C219.09,5.02 219.17,5.5 219.25,5.86 L219.73,8 L220.96,8 L221.93,3.11 L221.01,3.11 L220.51,5.8 C220.43,6.27 220.39,6.7 220.31,7.17 L220.27,7.17 C220.21,6.7 220.09,6.27 219.99,5.8 L219.47,3.51 L218.59,3.51 L218.06,5.8 C217.96,6.26 217.86,6.7 217.8,7.17 L217.76,7.17 C217.7,6.7 217.64,6.27 217.55,5.8 L217.05,3.11 L216.07,3.11 L217.07,8 Z M225.06,8.12 C226.5,8.12 227.3,7.45 227.3,6.63 C227.3,5.87 226.9,5.46 225.3,5.11 C224.35,4.91 223.96,4.75 223.96,4.37 C223.96,4.03 224.23,3.75 224.97,3.75 C225.57,3.75 226.13,3.94 226.6,4.25 L227.06,3.63 C226.57,3.3 225.83,2.99 225.06,2.99 C223.7,2.99 222.97,3.6 222.97,4.42 C222.97,5.16 223.58,5.6 224.87,5.87 C226.1,6.13 226.3,6.34 226.3,6.69 C226.3,7.06 225.94,7.36 225.19,7.36 C224.34,7.36 223.68,7.12 223.11,6.72 L222.67,7.36 C223.26,7.77 224.13,8.12 225.06,8.12 Z M236.41,8.12 C235.47,8.12 234.76,7.57 234.76,6.71 C234.76,5.61 235.75,5.08 238.21,4.89 C238.18,4.29 237.86,3.8 236.99,3.8 C236.39,3.8 235.81,4.07 235.33,4.35 L234.96,3.68 C235.5,3.35 236.31,2.99 237.16,2.99 C238.51,2.99 239.2,3.77 239.2,5.06 L239.2,8 L238.39,8 L238.31,7.37 L238.28,7.37 C237.76,7.77 237.08,8.12 236.41,8.12 Z M236.69,7.33 C237.21,7.33 237.71,7.09 238.21,6.68 L238.21,5.52 C236.29,5.67 235.72,6.05 235.72,6.64 C235.72,7.13 236.16,7.33 236.69,7.33 Z M240.88,10 L240.88,3.11 L241.69,3.11 L241.77,3.71 L241.8,3.71 C242.24,3.29 242.85,2.99 243.43,2.99 C244.72,2.99 245.44,3.97 245.44,5.48 C245.44,7.15 244.39,8.12 243.24,8.12 C242.79,8.12 242.26,7.9 241.85,7.52 L241.82,7.52 L241.87,8.4 L241.87,10 L240.88,10 Z M243.05,7.3 C243.83,7.3 244.42,6.65 244.42,5.49 C244.42,4.47 244.04,3.82 243.16,3.82 C242.76,3.82 242.31,4.02 241.87,4.48 L241.87,6.79 C242.28,7.16 242.74,7.3 243.05,7.3 Z M246.88,10 L246.88,3.11 L247.69,3.11 L247.77,3.71 L247.8,3.71 C248.24,3.29 248.85,2.99 249.43,2.99 C250.72,2.99 251.44,3.97 251.44,5.48 C251.44,7.15 250.39,8.12 249.24,8.12 C248.79,8.12 248.26,7.9 247.85,7.52 L247.82,7.52 L247.87,8.4 L247.87,10 L246.88,10 Z M249.05,7.3 C249.83,7.3 250.42,6.65 250.42,5.49 C250.42,4.47 250.04,3.82 249.16,3.82 C248.76,3.82 248.31,4.02 247.87,4.48 L247.87,6.79 C248.28,7.16 248.74,7.3 249.05,7.3 Z M262.22,9.76 L262.77,9.29 C261.47,8.15 260.87,6.87 260.87,5.22 C260.87,3.57 261.47,2.29 262.77,1.15 L262.22,0.68 C260.85,1.77 260.01,3.3 260.01,5.22 C260.01,7.14 260.85,8.67 262.22,9.76 Z M267.02,8.12 C265.57,8.12 264.66,7.39 264.66,6.37 C264.66,5.52 265.31,5.03 265.99,4.71 L265.99,4.67 C265.46,4.33 265.03,3.85 265.03,3.18 C265.03,2.17 265.88,1.51 267.05,1.51 C268.3,1.51 269.06,2.21 269.06,3.22 C269.06,3.82 268.62,4.35 268.1,4.71 L268.1,4.75 C268.79,5.09 269.34,5.51 269.34,6.4 C269.34,7.37 268.5,8.12 267.02,8.12 Z M267.5,4.47 C267.97,4.1 268.21,3.71 268.21,3.28 C268.21,2.68 267.79,2.23 267.03,2.23 C266.38,2.23 265.92,2.59 265.92,3.18 C265.92,3.87 266.6,4.18 267.5,4.47 Z M267.04,7.4 C267.89,7.4 268.4,7 268.4,6.37 C268.4,5.56 267.58,5.35 266.52,4.98 C265.96,5.29 265.55,5.69 265.55,6.27 C265.55,6.94 266.14,7.4 267.04,7.4 Z M273,8.12 C271.57,8.12 270.67,6.92 270.67,4.79 C270.67,2.65 271.57,1.51 273,1.51 C274.43,1.51 275.33,2.65 275.33,4.79 C275.33,6.92 274.43,8.12 273,8.12 Z M273,7.33 C273.82,7.33 274.42,6.58 274.42,4.79 C274.42,3 273.82,2.29 273,2.29 C272.18,2.29 271.58,3 271.58,4.79 C271.58,6.58 272.18,7.33 273,7.33 Z M273,5.43 C272.64,5.43 272.34,5.17 272.34,4.74 C272.34,4.31 272.64,4.05 273,4.05 C273.36,4.05 273.66,4.31 273.66,4.74 C273.66,5.17 273.36,5.43 273,5.43 Z M278.17,8 L279.19,8 C279.3,5.5 279.67,4.13 281.34,2.24 L281.34,1.63 L276.68,1.63 L276.68,2.47 L280.23,2.47 C278.81,4.23 278.28,5.66 278.17,8 Z M285.61,8 L285.61,6.3 L282.38,6.3 L282.38,5.63 L285.43,1.62 L286.54,1.62 L286.54,5.52 L287.49,5.52 L287.49,6.3 L286.54,6.3 L286.54,8 L285.61,8 Z M283.42,5.52 L285.61,5.52 L285.61,3.78 C285.62,3.42 285.64,2.95 285.66,2.58 L285.61,2.58 C285.41,2.91 285.17,3.23 284.95,3.55 L283.42,5.52 Z M289.78,9.76 C291.15,8.67 291.99,7.14 291.99,5.22 C291.99,3.3 291.15,1.77 289.78,0.68 L289.23,1.15 C290.53,2.29 291.13,3.57 291.13,5.22 C291.13,6.87 290.53,8.15 289.23,9.29 L289.78,9.76 Z M3.52,30.62 C4.39,30.62 5.06,30.28 5.58,29.67 L5.02,29.06 C4.63,29.5 4.19,29.75 3.62,29.75 C2.43,29.75 1.65,28.78 1.65,27.21 C1.65,25.66 2.43,24.7 3.6,24.7 C4.14,24.7 4.55,24.92 4.88,25.27 L5.44,24.64 C5.04,24.22 4.4,23.83 3.6,23.83 C1.88,23.83 0.62,25.11 0.62,27.24 C0.62,29.39 1.9,30.62 3.52,30.62 Z M10.04,30.62 C10.59,30.62 10.92,30.52 11.39,30.34 L11.15,29.6 C10.82,29.74 10.54,29.81 10.27,29.81 C9.73,29.81 9.35,29.53 9.35,28.85 L9.35,23.41 L6.76,23.41 L6.76,24.2 L8.36,24.2 L8.36,28.79 C8.36,29.97 8.95,30.62 10.04,30.62 Z M15,30.62 C13.72,30.62 12.56,29.68 12.56,28.06 C12.56,26.43 13.72,25.49 15,25.49 C16.28,25.49 17.44,26.43 17.44,28.06 C17.44,29.68 16.28,30.62 15,30.62 Z M15,29.81 C15.87,29.81 16.42,29.11 16.42,28.06 C16.42,27.01 15.87,26.31 15,26.31 C14.13,26.31 13.58,27.01 13.58,28.06 C13.58,29.11 14.13,29.81 15,29.81 Z M18.88,30.5 L19.87,30.5 L19.87,27.13 C20.37,26.61 20.74,26.35 21.26,26.35 C22,26.35 22.28,26.75 22.28,27.6 L22.28,30.5 L23.27,30.5 L23.27,27.47 C23.27,26.2 22.75,25.49 21.61,25.49 C20.85,25.49 20.3,25.89 19.81,26.4 L19.77,26.4 L19.69,25.61 L18.88,25.61 L18.88,30.5 Z M27.06,30.5 L28.05,30.5 L28.05,25.61 L24.87,25.61 L24.87,26.41 L27.06,26.41 L27.06,30.5 Z M27.47,24.66 C27.89,24.66 28.21,24.38 28.21,23.95 C28.21,23.53 27.89,23.24 27.47,23.24 C27.05,23.24 26.73,23.53 26.73,23.95 C26.73,24.38 27.05,24.66 27.47,24.66 Z M30.88,30.5 L31.87,30.5 L31.87,27.13 C32.37,26.61 32.74,26.35 33.26,26.35 C34,26.35 34.28,26.75 34.28,27.6 L34.28,30.5 L35.27,30.5 L35.27,27.47 C35.27,26.2 34.75,25.49 33.61,25.49 C32.85,25.49 32.3,25.89 31.81,26.4 L31.77,26.4 L31.69,25.61 L30.88,25.61 L30.88,30.5 Z M38.91,32.71 C37.52,32.71 36.67,32.24 36.67,31.38 C36.67,30.98 36.94,30.61 37.46,30.32 L37.46,30.28 C37.2,30.13 36.96,29.88 36.96,29.47 C36.96,29.15 37.18,28.8 37.54,28.55 L37.54,28.51 C37.2,28.26 36.93,27.83 36.93,27.25 C36.93,26.16 37.84,25.49 38.9,25.49 C39.18,25.49 39.42,25.53 39.64,25.61 L41.65,25.61 L41.65,26.39 L40.46,26.39 C40.65,26.6 40.82,26.93 40.82,27.28 C40.82,28.35 39.97,28.95 38.9,28.95 C38.66,28.95 38.37,28.9 38.11,28.79 C37.89,28.93 37.77,29.09 37.77,29.3 C37.77,29.65 38.11,29.81 38.74,29.81 L39.78,29.81 C41.05,29.81 41.68,30.15 41.68,30.98 C41.68,31.93 40.6,32.71 38.91,32.71 Z M38.9,28.31 C39.46,28.31 39.92,27.91 39.92,27.25 C39.92,26.61 39.46,26.19 38.9,26.19 C38.34,26.19 37.87,26.61 37.87,27.25 C37.87,27.91 38.34,28.31 38.9,28.31 Z M39.01,32.02 C40.05,32.02 40.71,31.6 40.71,31.15 C40.71,30.72 40.36,30.61 39.67,30.61 L38.8,30.61 C38.5,30.61 38.26,30.59 38.06,30.53 C37.65,30.76 37.5,31.01 37.5,31.26 C37.5,31.73 38.04,32.02 39.01,32.02 Z M51.92,30.62 C52.55,30.62 53.03,30.49 53.47,30.34 L53.27,29.61 C52.93,29.74 52.58,29.82 52.15,29.82 C51.26,29.82 50.97,29.41 50.97,28.57 L50.97,26.41 L53.28,26.41 L53.28,25.61 L50.97,25.61 L50.97,24.06 L50.15,24.06 L50.02,25.61 L48.64,25.66 L48.64,26.41 L49.98,26.41 L49.98,28.57 C49.98,29.79 50.47,30.62 51.92,30.62 Z M54.88,30.5 L55.87,30.5 L55.87,27.13 C56.37,26.61 56.74,26.35 57.26,26.35 C58,26.35 58.28,26.75 58.28,27.6 L58.28,30.5 L59.27,30.5 L59.27,27.47 C59.27,26.2 58.75,25.49 57.61,25.49 C56.86,25.49 56.3,25.89 55.84,26.39 L55.81,26.39 L55.87,25.29 L55.87,23.41 L54.88,23.41 L54.88,30.5 Z M63.3,30.62 C61.82,30.62 60.65,29.68 60.65,28.05 C60.65,26.46 61.85,25.49 63.15,25.49 C64.59,25.49 65.4,26.44 65.4,27.8 C65.4,28.01 65.38,28.21 65.36,28.34 L61.64,28.34 C61.75,29.35 62.47,29.84 63.43,29.84 C63.97,29.84 64.41,29.68 64.85,29.41 L65.2,30.04 C64.7,30.37 64.05,30.62 63.3,30.62 Z M63.18,26.27 C62.44,26.27 61.81,26.74 61.66,27.61 L64.51,27.61 C64.44,26.72 63.94,26.27 63.18,26.27 Z M74.41,30.62 C73.47,30.62 72.76,30.07 72.76,29.21 C72.76,28.11 73.75,27.58 76.21,27.39 C76.18,26.79 75.86,26.3 74.99,26.3 C74.39,26.3 73.81,26.57 73.33,26.85 L72.96,26.18 C73.5,25.85 74.31,25.49 75.16,25.49 C76.51,25.49 77.2,26.27 77.2,27.56 L77.2,30.5 L76.39,30.5 L76.31,29.87 L76.28,29.87 C75.76,30.27 75.08,30.62 74.41,30.62 Z M74.69,29.83 C75.21,29.83 75.71,29.59 76.21,29.18 L76.21,28.02 C74.29,28.17 73.72,28.55 73.72,29.14 C73.72,29.63 74.16,29.83 74.69,29.83 Z M78.88,32.5 L78.88,25.61 L79.69,25.61 L79.77,26.21 L79.8,26.21 C80.24,25.79 80.85,25.49 81.43,25.49 C82.72,25.49 83.44,26.47 83.44,27.98 C83.44,29.65 82.39,30.62 81.24,30.62 C80.79,30.62 80.26,30.4 79.85,30.02 L79.82,30.02 L79.87,30.9 L79.87,32.5 L78.88,32.5 Z M81.05,29.8 C81.83,29.8 82.42,29.15 82.42,27.99 C82.42,26.97 82.04,26.32 81.16,26.32 C80.76,26.32 80.31,26.52 79.87,26.98 L79.87,29.29 C80.28,29.66 80.74,29.8 81.05,29.8 Z M84.88,32.5 L84.88,25.61 L85.69,25.61 L85.77,26.21 L85.8,26.21 C86.24,25.79 86.85,25.49 87.43,25.49 C88.72,25.49 89.44,26.47 89.44,27.98 C89.44,29.65 88.39,30.62 87.24,30.62 C86.79,30.62 86.26,30.4 85.85,30.02 L85.82,30.02 L85.87,30.9 L85.87,32.5 L84.88,32.5 Z M87.05,29.8 C87.83,29.8 88.42,29.15 88.42,27.99 C88.42,26.97 88.04,26.32 87.16,26.32 C86.76,26.32 86.31,26.52 85.87,26.98 L85.87,29.29 C86.28,29.66 86.74,29.8 87.05,29.8 Z M99,27.16 C99.46,27.16 99.79,26.82 99.79,26.32 C99.79,25.87 99.48,25.55 99.03,25.55 C98.95,25.55 98.87,25.57 98.79,25.6 C98.83,24.92 99.21,24.42 99.84,24.08 L99.54,23.52 C98.58,24 98.03,24.83 98.03,25.85 C98.03,26.67 98.42,27.16 99,27.16 Z M102.78,30.5 L103.74,30.5 L103.74,27.36 C103.74,26.66 103.64,25.91 103.6,25.23 L103.63,25.23 L104.24,26.61 L106.15,30.5 L107.22,30.5 L107.22,23.95 L106.26,23.95 L106.26,27.07 C106.26,27.78 106.36,28.56 106.4,29.22 L106.37,29.22 L105.76,27.84 L103.85,23.95 L102.78,23.95 L102.78,30.5 Z M111.3,30.62 C109.82,30.62 108.65,29.68 108.65,28.05 C108.65,26.46 109.85,25.49 111.15,25.49 C112.59,25.49 113.4,26.44 113.4,27.8 C113.4,28.01 113.38,28.21 113.36,28.34 L109.64,28.34 C109.75,29.35 110.47,29.84 111.43,29.84 C111.97,29.84 112.41,29.68 112.85,29.41 L113.2,30.04 C112.7,30.37 112.05,30.62 111.3,30.62 Z M111.18,26.27 C110.44,26.27 109.81,26.74 109.66,27.61 L112.51,27.61 C112.44,26.72 111.94,26.27 111.18,26.27 Z M115.07,30.5 L116.29,30.5 L116.76,28.36 C116.84,27.95 116.91,27.48 116.98,26.92 L117.02,26.92 C117.09,27.52 117.17,28 117.25,28.36 L117.73,30.5 L118.96,30.5 L119.93,25.61 L119.01,25.61 L118.51,28.3 C118.43,28.77 118.39,29.2 118.31,29.67 L118.27,29.67 C118.21,29.2 118.09,28.77 117.99,28.3 L117.47,26.01 L116.59,26.01 L116.06,28.3 C115.96,28.76 115.86,29.2 115.8,29.67 L115.76,29.67 C115.7,29.2 115.64,28.77 115.55,28.3 L115.05,25.61 L114.07,25.61 L115.07,30.5 Z M123.06,30.62 C124.5,30.62 125.3,29.95 125.3,29.13 C125.3,28.37 124.9,27.96 123.3,27.61 C122.35,27.41 121.96,27.25 121.96,26.87 C121.96,26.53 122.23,26.25 122.97,26.25 C123.57,26.25 124.13,26.44 124.6,26.75 L125.06,26.13 C124.57,25.8 123.83,25.49 123.06,25.49 C121.7,25.49 120.97,26.1 120.97,26.92 C120.97,27.66 121.58,28.1 122.87,28.37 C124.1,28.63 124.3,28.84 124.3,29.19 C124.3,29.56 123.94,29.86 123.19,29.86 C122.34,29.86 121.68,29.62 121.11,29.22 L120.67,29.86 C121.26,30.27 122.13,30.62 123.06,30.62 Z M134.41,30.62 C133.47,30.62 132.76,30.07 132.76,29.21 C132.76,28.11 133.75,27.58 136.21,27.39 C136.18,26.79 135.86,26.3 134.99,26.3 C134.39,26.3 133.81,26.57 133.33,26.85 L132.96,26.18 C133.5,25.85 134.31,25.49 135.16,25.49 C136.51,25.49 137.2,26.27 137.2,27.56 L137.2,30.5 L136.39,30.5 L136.31,29.87 L136.28,29.87 C135.76,30.27 135.08,30.62 134.41,30.62 Z M134.69,29.83 C135.21,29.83 135.71,29.59 136.21,29.18 L136.21,28.02 C134.29,28.17 133.72,28.55 133.72,29.14 C133.72,29.63 134.16,29.83 134.69,29.83 Z M138.88,32.5 L138.88,25.61 L139.69,25.61 L139.77,26.21 L139.8,26.21 C140.24,25.79 140.85,25.49 141.43,25.49 C142.72,25.49 143.44,26.47 143.44,27.98 C143.44,29.65 142.39,30.62 141.24,30.62 C140.79,30.62 140.26,30.4 139.85,30.02 L139.82,30.02 L139.87,30.9 L139.87,32.5 L138.88,32.5 Z M141.05,29.8 C141.83,29.8 142.42,29.15 142.42,27.99 C142.42,26.97 142.04,26.32 141.16,26.32 C140.76,26.32 140.31,26.52 139.87,26.98 L139.87,29.29 C140.28,29.66 140.74,29.8 141.05,29.8 Z M144.88,32.5 L144.88,25.61 L145.69,25.61 L145.77,26.21 L145.8,26.21 C146.24,25.79 146.85,25.49 147.43,25.49 C148.72,25.49 149.44,26.47 149.44,27.98 C149.44,29.65 148.39,30.62 147.24,30.62 C146.79,30.62 146.26,30.4 145.85,30.02 L145.82,30.02 L145.87,30.9 L145.87,32.5 L144.88,32.5 Z M147.05,29.8 C147.83,29.8 148.42,29.15 148.42,27.99 C148.42,26.97 148.04,26.32 147.16,26.32 C146.76,26.32 146.31,26.52 145.87,26.98 L145.87,29.29 C146.28,29.66 146.74,29.8 147.05,29.8 Z M152.44,27.16 C153.4,26.68 153.95,25.85 153.95,24.83 C153.95,24 153.56,23.52 152.98,23.52 C152.52,23.52 152.19,23.86 152.19,24.35 C152.19,24.81 152.5,25.12 152.95,25.12 C153.03,25.12 153.11,25.1 153.19,25.07 C153.15,25.75 152.77,26.26 152.13,26.6 L152.44,27.16 Z M156.99,30.62 C157.42,30.62 157.74,30.28 157.74,29.82 C157.74,29.34 157.42,29.01 156.99,29.01 C156.56,29.01 156.23,29.34 156.23,29.82 C156.23,30.28 156.56,30.62 156.99,30.62 Z M159,30.62 C159.43,30.62 159.75,30.28 159.75,29.82 C159.75,29.34 159.43,29.01 159,29.01 C158.57,29.01 158.25,29.34 158.25,29.82 C158.25,30.28 158.57,30.62 159,30.62 Z M161.01,30.62 C161.44,30.62 161.77,30.28 161.77,29.82 C161.77,29.34 161.44,29.01 161.01,29.01 C160.58,29.01 160.26,29.34 160.26,29.82 C160.26,30.28 160.58,30.62 161.01,30.62 Z M0.95,53 L0.95,46.45 L3.02,46.45 C4.46,46.45 5.47,46.95 5.47,48.42 C5.47,49.84 4.44,50.5 3.02,50.5 L1.95,50.5 L1.95,53 L0.95,53 Z M1.95,49.69 L2.92,49.69 C3.98,49.69 4.48,49.29 4.48,48.42 C4.48,47.55 3.96,47.25 2.92,47.25 L1.95,47.25 L1.95,49.69 Z M8.4,53.12 C9.14,53.12 9.69,52.74 10.17,52.19 L10.21,52.19 L10.29,53 L11.1,53 L11.1,48.11 L10.11,48.11 L10.11,51.46 C9.63,52.04 9.25,52.27 8.74,52.27 C8,52.27 7.72,51.87 7.72,51.01 L7.72,48.11 L6.73,48.11 L6.73,51.14 C6.73,52.42 7.25,53.12 8.4,53.12 Z M16.04,53.12 C16.59,53.12 16.92,53.02 17.39,52.84 L17.15,52.1 C16.82,52.24 16.54,52.31 16.27,52.31 C15.73,52.31 15.35,52.03 15.35,51.35 L15.35,45.91 L12.76,45.91 L12.76,46.7 L14.36,46.7 L14.36,51.29 C14.36,52.47 14.95,53.12 16.04,53.12 Z M22.04,53.12 C22.59,53.12 22.92,53.02 23.39,52.84 L23.15,52.1 C22.82,52.24 22.54,52.31 22.27,52.31 C21.73,52.31 21.35,52.03 21.35,51.35 L21.35,45.91 L18.76,45.91 L18.76,46.7 L20.36,46.7 L20.36,51.29 C20.36,52.47 20.95,53.12 22.04,53.12 Z M27.06,53 L28.05,53 L28.05,48.11 L24.87,48.11 L24.87,48.91 L27.06,48.91 L27.06,53 Z M27.47,47.16 C27.89,47.16 28.21,46.88 28.21,46.45 C28.21,46.03 27.89,45.74 27.47,45.74 C27.05,45.74 26.73,46.03 26.73,46.45 C26.73,46.88 27.05,47.16 27.47,47.16 Z M30.88,53 L31.87,53 L31.87,49.63 C32.37,49.11 32.74,48.85 33.26,48.85 C34,48.85 34.28,49.25 34.28,50.1 L34.28,53 L35.27,53 L35.27,49.97 C35.27,48.7 34.75,47.99 33.61,47.99 C32.85,47.99 32.3,48.39 31.81,48.9 L31.77,48.9 L31.69,48.11 L30.88,48.11 L30.88,53 Z M38.91,55.21 C37.52,55.21 36.67,54.74 36.67,53.88 C36.67,53.48 36.94,53.11 37.46,52.82 L37.46,52.78 C37.2,52.63 36.96,52.38 36.96,51.97 C36.96,51.65 37.18,51.3 37.54,51.05 L37.54,51.01 C37.2,50.76 36.93,50.33 36.93,49.75 C36.93,48.66 37.84,47.99 38.9,47.99 C39.18,47.99 39.42,48.03 39.64,48.11 L41.65,48.11 L41.65,48.89 L40.46,48.89 C40.65,49.1 40.82,49.43 40.82,49.78 C40.82,50.85 39.97,51.45 38.9,51.45 C38.66,51.45 38.37,51.4 38.11,51.29 C37.89,51.43 37.77,51.59 37.77,51.8 C37.77,52.15 38.11,52.31 38.74,52.31 L39.78,52.31 C41.05,52.31 41.68,52.65 41.68,53.48 C41.68,54.43 40.6,55.21 38.91,55.21 Z M38.9,50.81 C39.46,50.81 39.92,50.41 39.92,49.75 C39.92,49.11 39.46,48.69 38.9,48.69 C38.34,48.69 37.87,49.11 37.87,49.75 C37.87,50.41 38.34,50.81 38.9,50.81 Z M39.01,54.52 C40.05,54.52 40.71,54.1 40.71,53.65 C40.71,53.22 40.36,53.11 39.67,53.11 L38.8,53.11 C38.5,53.11 38.26,53.09 38.06,53.03 C37.65,53.26 37.5,53.51 37.5,53.76 C37.5,54.23 38.04,54.52 39.01,54.52 Z M51.3,53.12 C49.82,53.12 48.65,52.18 48.65,50.55 C48.65,48.96 49.85,47.99 51.15,47.99 C52.59,47.99 53.4,48.94 53.4,50.3 C53.4,50.51 53.38,50.71 53.36,50.84 L49.64,50.84 C49.75,51.85 50.47,52.34 51.43,52.34 C51.97,52.34 52.41,52.18 52.85,51.91 L53.2,52.54 C52.7,52.87 52.05,53.12 51.3,53.12 Z M51.18,48.77 C50.44,48.77 49.81,49.24 49.66,50.11 L52.51,50.11 C52.44,49.22 51.94,48.77 51.18,48.77 Z M54.57,53 L55.62,53 L56.34,51.96 C56.53,51.66 56.72,51.37 56.9,51.08 L56.94,51.08 C57.15,51.36 57.37,51.68 57.56,51.96 L58.34,53 L59.42,53 L57.6,50.56 L59.3,48.11 L58.25,48.11 L57.6,49.1 C57.44,49.37 57.25,49.67 57.08,49.94 L57.04,49.94 C56.86,49.67 56.66,49.38 56.49,49.11 L55.78,48.11 L54.7,48.11 L56.39,50.46 L54.57,53 Z M63.92,53.12 C64.55,53.12 65.03,52.99 65.47,52.84 L65.27,52.11 C64.93,52.24 64.58,52.32 64.15,52.32 C63.26,52.32 62.97,51.91 62.97,51.07 L62.97,48.91 L65.28,48.91 L65.28,48.11 L62.97,48.11 L62.97,46.56 L62.15,46.56 L62.02,48.11 L60.64,48.16 L60.64,48.91 L61.98,48.91 L61.98,51.07 C61.98,52.29 62.47,53.12 63.92,53.12 Z M69.3,53.12 C67.82,53.12 66.65,52.18 66.65,50.55 C66.65,48.96 67.85,47.99 69.15,47.99 C70.59,47.99 71.4,48.94 71.4,50.3 C71.4,50.51 71.38,50.71 71.36,50.84 L67.64,50.84 C67.75,51.85 68.47,52.34 69.43,52.34 C69.97,52.34 70.41,52.18 70.85,51.91 L71.2,52.54 C70.7,52.87 70.05,53.12 69.3,53.12 Z M69.18,48.77 C68.44,48.77 67.81,49.24 67.66,50.11 L70.51,50.11 C70.44,49.22 69.94,48.77 69.18,48.77 Z M72.88,53 L73.87,53 L73.87,49.63 C74.37,49.11 74.74,48.85 75.26,48.85 C76,48.85 76.28,49.25 76.28,50.1 L76.28,53 L77.27,53 L77.27,49.97 C77.27,48.7 76.75,47.99 75.61,47.99 C74.85,47.99 74.3,48.39 73.81,48.9 L73.77,48.9 L73.69,48.11 L72.88,48.11 L72.88,53 Z M81.06,53.12 C82.5,53.12 83.3,52.45 83.3,51.63 C83.3,50.87 82.9,50.46 81.3,50.11 C80.35,49.91 79.96,49.75 79.96,49.37 C79.96,49.03 80.23,48.75 80.97,48.75 C81.57,48.75 82.13,48.94 82.6,49.25 L83.06,48.63 C82.57,48.3 81.83,47.99 81.06,47.99 C79.7,47.99 78.97,48.6 78.97,49.42 C78.97,50.16 79.58,50.6 80.87,50.87 C82.1,51.13 82.3,51.34 82.3,51.69 C82.3,52.06 81.94,52.36 81.19,52.36 C80.34,52.36 79.68,52.12 79.11,51.72 L78.67,52.36 C79.26,52.77 80.13,53.12 81.06,53.12 Z M87.06,53 L88.05,53 L88.05,48.11 L84.87,48.11 L84.87,48.91 L87.06,48.91 L87.06,53 Z M87.47,47.16 C87.89,47.16 88.21,46.88 88.21,46.45 C88.21,46.03 87.89,45.74 87.47,45.74 C87.05,45.74 86.73,46.03 86.73,46.45 C86.73,46.88 87.05,47.16 87.47,47.16 Z M93,53.12 C91.72,53.12 90.56,52.18 90.56,50.56 C90.56,48.93 91.72,47.99 93,47.99 C94.28,47.99 95.44,48.93 95.44,50.56 C95.44,52.18 94.28,53.12 93,53.12 Z M93,52.31 C93.87,52.31 94.42,51.61 94.42,50.56 C94.42,49.51 93.87,48.81 93,48.81 C92.13,48.81 91.58,49.51 91.58,50.56 C91.58,51.61 92.13,52.31 93,52.31 Z M96.88,53 L97.87,53 L97.87,49.63 C98.37,49.11 98.74,48.85 99.26,48.85 C100,48.85 100.28,49.25 100.28,50.1 L100.28,53 L101.27,53 L101.27,49.97 C101.27,48.7 100.75,47.99 99.61,47.99 C98.85,47.99 98.3,48.39 97.81,48.9 L97.77,48.9 L97.69,48.11 L96.88,48.11 L96.88,53 Z M105.06,53.12 C106.5,53.12 107.3,52.45 107.3,51.63 C107.3,50.87 106.9,50.46 105.3,50.11 C104.35,49.91 103.96,49.75 103.96,49.37 C103.96,49.03 104.23,48.75 104.97,48.75 C105.57,48.75 106.13,48.94 106.6,49.25 L107.06,48.63 C106.57,48.3 105.83,47.99 105.06,47.99 C103.7,47.99 102.97,48.6 102.97,49.42 C102.97,50.16 103.58,50.6 104.87,50.87 C106.1,51.13 106.3,51.34 106.3,51.69 C106.3,52.06 105.94,52.36 105.19,52.36 C104.34,52.36 103.68,52.12 103.11,51.72 L102.67,52.36 C103.26,52.77 104.13,53.12 105.06,53.12 Z M111,53.12 C111.51,53.12 111.9,52.74 111.9,52.19 C111.9,51.65 111.51,51.26 111,51.26 C110.49,51.26 110.1,51.65 110.1,52.19 C110.1,52.74 110.49,53.12 111,53.12 Z M117,53.12 C117.51,53.12 117.9,52.74 117.9,52.19 C117.9,51.65 117.51,51.26 117,51.26 C116.49,51.26 116.1,51.65 116.1,52.19 C116.1,52.74 116.49,53.12 117,53.12 Z M123,53.12 C123.51,53.12 123.9,52.74 123.9,52.19 C123.9,51.65 123.51,51.26 123,51.26 C122.49,51.26 122.1,51.65 122.1,52.19 C122.1,52.74 122.49,53.12 123,53.12 Z M3.03,75.62 C4.52,75.62 5.41,74.76 5.41,73.71 C5.41,72.75 4.79,72.28 3.97,71.96 L3.08,71.57 C2.5,71.34 1.94,71.13 1.94,70.56 C1.94,70.03 2.4,69.7 3.09,69.7 C3.76,69.7 4.24,69.92 4.67,70.29 L5.19,69.65 C4.68,69.15 3.95,68.83 3.14,68.83 C1.84,68.83 0.93,69.6 0.93,70.62 C0.93,71.58 1.66,72.07 2.33,72.33 L3.25,72.74 C3.91,73.01 4.39,73.19 4.39,73.83 C4.39,74.37 3.92,74.75 3.09,74.75 C2.37,74.75 1.71,74.44 1.21,73.97 L0.63,74.65 C1.25,75.26 2.09,75.62 3.03,75.62 Z M8.4,75.62 C9.14,75.62 9.69,75.24 10.17,74.69 L10.21,74.69 L10.29,75.5 L11.1,75.5 L11.1,70.61 L10.11,70.61 L10.11,73.96 C9.63,74.54 9.25,74.77 8.74,74.77 C8,74.77 7.72,74.37 7.72,73.51 L7.72,70.61 L6.73,70.61 L6.73,73.64 C6.73,74.92 7.25,75.62 8.4,75.62 Z M15.45,75.62 C16.16,75.62 16.86,75.35 17.41,74.87 L16.98,74.23 C16.59,74.55 16.12,74.81 15.53,74.81 C14.49,74.81 13.78,74.11 13.78,73.06 C13.78,72.01 14.51,71.31 15.56,71.31 C16.04,71.31 16.44,71.5 16.83,71.82 L17.31,71.19 C16.91,70.8 16.31,70.49 15.51,70.49 C14.03,70.49 12.76,71.43 12.76,73.06 C12.76,74.68 13.92,75.62 15.45,75.62 Z M21.45,75.62 C22.16,75.62 22.86,75.35 23.41,74.87 L22.98,74.23 C22.59,74.55 22.12,74.81 21.53,74.81 C20.49,74.81 19.78,74.11 19.78,73.06 C19.78,72.01 20.51,71.31 21.56,71.31 C22.04,71.31 22.44,71.5 22.83,71.82 L23.31,71.19 C22.91,70.8 22.31,70.49 21.51,70.49 C20.03,70.49 18.76,71.43 18.76,73.06 C18.76,74.68 19.92,75.62 21.45,75.62 Z M27.3,75.62 C25.82,75.62 24.65,74.68 24.65,73.05 C24.65,71.46 25.85,70.49 27.15,70.49 C28.59,70.49 29.4,71.44 29.4,72.8 C29.4,73.01 29.38,73.21 29.36,73.34 L25.64,73.34 C25.75,74.35 26.47,74.84 27.43,74.84 C27.97,74.84 28.41,74.68 28.85,74.41 L29.2,75.04 C28.7,75.37 28.05,75.62 27.3,75.62 Z M27.18,71.27 C26.44,71.27 25.81,71.74 25.66,72.61 L28.51,72.61 C28.44,71.72 27.94,71.27 27.18,71.27 Z M33.06,75.62 C34.5,75.62 35.3,74.95 35.3,74.13 C35.3,73.37 34.9,72.96 33.3,72.61 C32.35,72.41 31.96,72.25 31.96,71.87 C31.96,71.53 32.23,71.25 32.97,71.25 C33.57,71.25 34.13,71.44 34.6,71.75 L35.06,71.13 C34.57,70.8 33.83,70.49 33.06,70.49 C31.7,70.49 30.97,71.1 30.97,71.92 C30.97,72.66 31.58,73.1 32.87,73.37 C34.1,73.63 34.3,73.84 34.3,74.19 C34.3,74.56 33.94,74.86 33.19,74.86 C32.34,74.86 31.68,74.62 31.11,74.22 L30.67,74.86 C31.26,75.27 32.13,75.62 33.06,75.62 Z M39.06,75.62 C40.5,75.62 41.3,74.95 41.3,74.13 C41.3,73.37 40.9,72.96 39.3,72.61 C38.35,72.41 37.96,72.25 37.96,71.87 C37.96,71.53 38.23,71.25 38.97,71.25 C39.57,71.25 40.13,71.44 40.6,71.75 L41.06,71.13 C40.57,70.8 39.83,70.49 39.06,70.49 C37.7,70.49 36.97,71.1 36.97,71.92 C36.97,72.66 37.58,73.1 38.87,73.37 C40.1,73.63 40.3,73.84 40.3,74.19 C40.3,74.56 39.94,74.86 39.19,74.86 C38.34,74.86 37.68,74.62 37.11,74.22 L36.67,74.86 C37.26,75.27 38.13,75.62 39.06,75.62 Z M44.67,73.12 L45.33,73.12 L45.46,69.84 L45.49,68.8 L44.51,68.8 L44.54,69.84 L44.67,73.12 Z M45,75.62 C45.44,75.62 45.8,75.29 45.8,74.78 C45.8,74.28 45.44,73.95 45,73.95 C44.56,73.95 44.2,74.28 44.2,74.78 C44.2,75.29 44.56,75.62 45,75.62 Z M3.52,98.12 C4.39,98.12 5.06,97.78 5.58,97.17 L5.02,96.56 C4.63,97 4.19,97.25 3.62,97.25 C2.43,97.25 1.65,96.28 1.65,94.71 C1.65,93.16 2.43,92.2 3.6,92.2 C4.14,92.2 4.55,92.42 4.88,92.77 L5.44,92.14 C5.04,91.72 4.4,91.33 3.6,91.33 C1.88,91.33 0.62,92.61 0.62,94.74 C0.62,96.89 1.9,98.12 3.52,98.12 Z M6.88,98 L7.87,98 L7.87,94.63 C8.37,94.11 8.74,93.85 9.26,93.85 C10,93.85 10.28,94.25 10.28,95.1 L10.28,98 L11.27,98 L11.27,94.97 C11.27,93.7 10.75,92.99 9.61,92.99 C8.86,92.99 8.3,93.39 7.84,93.89 L7.81,93.89 L7.87,92.79 L7.87,90.91 L6.88,90.91 L6.88,98 Z M14.41,98.12 C13.47,98.12 12.76,97.57 12.76,96.71 C12.76,95.61 13.75,95.08 16.21,94.89 C16.18,94.29 15.86,93.8 14.99,93.8 C14.39,93.8 13.81,94.07 13.33,94.35 L12.96,93.68 C13.5,93.35 14.31,92.99 15.16,92.99 C16.51,92.99 17.2,93.77 17.2,95.06 L17.2,98 L16.39,98 L16.31,97.37 L16.28,97.37 C15.76,97.77 15.08,98.12 14.41,98.12 Z M14.69,97.33 C15.21,97.33 15.71,97.09 16.21,96.68 L16.21,95.52 C14.29,95.67 13.72,96.05 13.72,96.64 C13.72,97.13 14.16,97.33 14.69,97.33 Z M18.88,98 L19.87,98 L19.87,94.63 C20.37,94.11 20.74,93.85 21.26,93.85 C22,93.85 22.28,94.25 22.28,95.1 L22.28,98 L23.27,98 L23.27,94.97 C23.27,93.7 22.75,92.99 21.61,92.99 C20.85,92.99 20.3,93.39 19.81,93.9 L19.77,93.9 L19.69,93.11 L18.88,93.11 L18.88,98 Z M26.91,100.21 C25.52,100.21 24.67,99.74 24.67,98.88 C24.67,98.48 24.94,98.11 25.46,97.82 L25.46,97.78 C25.2,97.63 24.96,97.38 24.96,96.97 C24.96,96.65 25.18,96.3 25.54,96.05 L25.54,96.01 C25.2,95.76 24.93,95.33 24.93,94.75 C24.93,93.66 25.84,92.99 26.9,92.99 C27.18,92.99 27.42,93.03 27.64,93.11 L29.65,93.11 L29.65,93.89 L28.46,93.89 C28.65,94.1 28.82,94.43 28.82,94.78 C28.82,95.85 27.97,96.45 26.9,96.45 C26.66,96.45 26.37,96.4 26.11,96.29 C25.89,96.43 25.77,96.59 25.77,96.8 C25.77,97.15 26.11,97.31 26.74,97.31 L27.78,97.31 C29.05,97.31 29.68,97.65 29.68,98.48 C29.68,99.43 28.6,100.21 26.91,100.21 Z M26.9,95.81 C27.46,95.81 27.92,95.41 27.92,94.75 C27.92,94.11 27.46,93.69 26.9,93.69 C26.34,93.69 25.87,94.11 25.87,94.75 C25.87,95.41 26.34,95.81 26.9,95.81 Z M27.01,99.52 C28.05,99.52 28.71,99.1 28.71,98.65 C28.71,98.22 28.36,98.11 27.67,98.11 L26.8,98.11 C26.5,98.11 26.26,98.09 26.06,98.03 C25.65,98.26 25.5,98.51 25.5,98.76 C25.5,99.23 26.04,99.52 27.01,99.52 Z M33.3,98.12 C31.82,98.12 30.65,97.18 30.65,95.55 C30.65,93.96 31.85,92.99 33.15,92.99 C34.59,92.99 35.4,93.94 35.4,95.3 C35.4,95.51 35.38,95.71 35.36,95.84 L31.64,95.84 C31.75,96.85 32.47,97.34 33.43,97.34 C33.97,97.34 34.41,97.18 34.85,96.91 L35.2,97.54 C34.7,97.87 34.05,98.12 33.3,98.12 Z M33.18,93.77 C32.44,93.77 31.81,94.24 31.66,95.11 L34.51,95.11 C34.44,94.22 33.94,93.77 33.18,93.77 Z M43.34,100.05 C44.48,100.05 45.08,99.35 45.47,98.31 L47.56,93.11 L46.62,93.11 L45.65,95.66 C45.49,96.11 45.31,96.62 45.15,97.09 L45.11,97.09 C44.91,96.61 44.72,96.1 44.54,95.66 L43.44,93.11 L42.45,93.11 L44.68,97.97 L44.55,98.31 C44.33,98.85 43.94,99.25 43.29,99.25 C43.14,99.25 42.99,99.22 42.87,99.18 L42.67,99.95 C42.85,100.01 43.1,100.05 43.34,100.05 Z M51,98.12 C49.72,98.12 48.56,97.18 48.56,95.56 C48.56,93.93 49.72,92.99 51,92.99 C52.28,92.99 53.44,93.93 53.44,95.56 C53.44,97.18 52.28,98.12 51,98.12 Z M51,97.31 C51.87,97.31 52.42,96.61 52.42,95.56 C52.42,94.51 51.87,93.81 51,93.81 C50.13,93.81 49.58,94.51 49.58,95.56 C49.58,96.61 50.13,97.31 51,97.31 Z M56.4,98.12 C57.14,98.12 57.69,97.74 58.17,97.19 L58.21,97.19 L58.29,98 L59.1,98 L59.1,93.11 L58.11,93.11 L58.11,96.46 C57.63,97.04 57.25,97.27 56.74,97.27 C56,97.27 55.72,96.87 55.72,96.01 L55.72,93.11 L54.73,93.11 L54.73,96.14 C54.73,97.42 55.25,98.12 56.4,98.12 Z M61.38,98 L62.37,98 L62.37,95.22 C62.91,94.24 63.59,93.88 64.29,93.88 C64.66,93.88 64.85,93.93 65.18,94.04 L65.4,93.19 C65.1,93.05 64.82,92.99 64.44,92.99 C63.57,92.99 62.81,93.46 62.31,94.25 L62.28,94.25 L62.2,93.11 L61.38,93.11 L61.38,98 Z M73.07,98 L74.29,98 L74.76,95.86 C74.84,95.45 74.91,94.98 74.98,94.42 L75.02,94.42 C75.09,95.02 75.17,95.5 75.25,95.86 L75.73,98 L76.96,98 L77.93,93.11 L77.01,93.11 L76.51,95.8 C76.43,96.27 76.39,96.7 76.31,97.17 L76.27,97.17 C76.21,96.7 76.09,96.27 75.99,95.8 L75.47,93.51 L74.59,93.51 L74.06,95.8 C73.96,96.26 73.86,96.7 73.8,97.17 L73.76,97.17 C73.7,96.7 73.64,96.27 73.55,95.8 L73.05,93.11 L72.07,93.11 L73.07,98 Z M81,98.12 C79.72,98.12 78.56,97.18 78.56,95.56 C78.56,93.93 79.72,92.99 81,92.99 C82.28,92.99 83.44,93.93 83.44,95.56 C83.44,97.18 82.28,98.12 81,98.12 Z M81,97.31 C81.87,97.31 82.42,96.61 82.42,95.56 C82.42,94.51 81.87,93.81 81,93.81 C80.13,93.81 79.58,94.51 79.58,95.56 C79.58,96.61 80.13,97.31 81,97.31 Z M85.38,98 L86.37,98 L86.37,95.22 C86.91,94.24 87.59,93.88 88.29,93.88 C88.66,93.88 88.85,93.93 89.18,94.04 L89.4,93.19 C89.1,93.05 88.82,92.99 88.44,92.99 C87.57,92.99 86.81,93.46 86.31,94.25 L86.28,94.25 L86.2,93.11 L85.38,93.11 L85.38,98 Z M90.98,98 L91.97,98 L91.97,96.7 L93,95.66 L94.68,98 L95.77,98 L93.61,95.05 L95.53,93.11 L94.42,93.11 L92.01,95.53 L91.97,95.53 L91.97,90.91 L90.98,90.91 L90.98,98 Z M99.06,98 L100.05,98 L100.05,93.11 L96.87,93.11 L96.87,93.91 L99.06,93.91 L99.06,98 Z M99.47,92.16 C99.89,92.16 100.21,91.88 100.21,91.45 C100.21,91.03 99.89,90.74 99.47,90.74 C99.05,90.74 98.73,91.03 98.73,91.45 C98.73,91.88 99.05,92.16 99.47,92.16 Z M102.88,98 L103.87,98 L103.87,94.63 C104.37,94.11 104.74,93.85 105.26,93.85 C106,93.85 106.28,94.25 106.28,95.1 L106.28,98 L107.27,98 L107.27,94.97 C107.27,93.7 106.75,92.99 105.61,92.99 C104.85,92.99 104.3,93.39 103.81,93.9 L103.77,93.9 L103.69,93.11 L102.88,93.11 L102.88,98 Z M110.91,100.21 C109.52,100.21 108.67,99.74 108.67,98.88 C108.67,98.48 108.94,98.11 109.46,97.82 L109.46,97.78 C109.2,97.63 108.96,97.38 108.96,96.97 C108.96,96.65 109.18,96.3 109.54,96.05 L109.54,96.01 C109.2,95.76 108.93,95.33 108.93,94.75 C108.93,93.66 109.84,92.99 110.9,92.99 C111.18,92.99 111.42,93.03 111.64,93.11 L113.65,93.11 L113.65,93.89 L112.46,93.89 C112.65,94.1 112.82,94.43 112.82,94.78 C112.82,95.85 111.97,96.45 110.9,96.45 C110.66,96.45 110.37,96.4 110.11,96.29 C109.89,96.43 109.77,96.59 109.77,96.8 C109.77,97.15 110.11,97.31 110.74,97.31 L111.78,97.31 C113.05,97.31 113.68,97.65 113.68,98.48 C113.68,99.43 112.6,100.21 110.91,100.21 Z M110.9,95.81 C111.46,95.81 111.92,95.41 111.92,94.75 C111.92,94.11 111.46,93.69 110.9,93.69 C110.34,93.69 109.87,94.11 109.87,94.75 C109.87,95.41 110.34,95.81 110.9,95.81 Z M111.01,99.52 C112.05,99.52 112.71,99.1 112.71,98.65 C112.71,98.22 112.36,98.11 111.67,98.11 L110.8,98.11 C110.5,98.11 110.26,98.09 110.06,98.03 C109.65,98.26 109.5,98.51 109.5,98.76 C109.5,99.23 110.04,99.52 111.01,99.52 Z M122.67,98.12 C121.4,98.12 120.56,97.18 120.56,95.56 C120.56,93.97 121.62,92.99 122.75,92.99 C123.32,92.99 123.75,93.21 124.15,93.6 L124.18,93.6 L124.13,92.73 L124.13,90.91 L125.12,90.91 L125.12,98 L124.31,98 L124.23,97.4 L124.2,97.4 C123.81,97.79 123.25,98.12 122.67,98.12 Z M122.9,97.3 C123.34,97.3 123.75,97.08 124.13,96.64 L124.13,94.32 C123.74,93.95 123.36,93.82 122.97,93.82 C122.21,93.82 121.58,94.49 121.58,95.55 C121.58,96.67 122.07,97.3 122.9,97.3 Z M129.06,98 L130.05,98 L130.05,93.11 L126.87,93.11 L126.87,93.91 L129.06,93.91 L129.06,98 Z M129.47,92.16 C129.89,92.16 130.21,91.88 130.21,91.45 C130.21,91.03 129.89,90.74 129.47,90.74 C129.05,90.74 128.73,91.03 128.73,91.45 C128.73,91.88 129.05,92.16 129.47,92.16 Z M133.38,98 L134.37,98 L134.37,95.22 C134.91,94.24 135.59,93.88 136.29,93.88 C136.66,93.88 136.85,93.93 137.18,94.04 L137.4,93.19 C137.1,93.05 136.82,92.99 136.44,92.99 C135.57,92.99 134.81,93.46 134.31,94.25 L134.28,94.25 L134.2,93.11 L133.38,93.11 L133.38,98 Z M141.3,98.12 C139.82,98.12 138.65,97.18 138.65,95.55 C138.65,93.96 139.85,92.99 141.15,92.99 C142.59,92.99 143.4,93.94 143.4,95.3 C143.4,95.51 143.38,95.71 143.36,95.84 L139.64,95.84 C139.75,96.85 140.47,97.34 141.43,97.34 C141.97,97.34 142.41,97.18 142.85,96.91 L143.2,97.54 C142.7,97.87 142.05,98.12 141.3,98.12 Z M141.18,93.77 C140.44,93.77 139.81,94.24 139.66,95.11 L142.51,95.11 C142.44,94.22 141.94,93.77 141.18,93.77 Z M147.45,98.12 C148.16,98.12 148.86,97.85 149.41,97.37 L148.98,96.73 C148.59,97.05 148.12,97.31 147.53,97.31 C146.49,97.31 145.78,96.61 145.78,95.56 C145.78,94.51 146.51,93.81 147.56,93.81 C148.04,93.81 148.44,94 148.83,94.32 L149.31,93.69 C148.91,93.3 148.31,92.99 147.51,92.99 C146.03,92.99 144.76,93.93 144.76,95.56 C144.76,97.18 145.92,98.12 147.45,98.12 Z M153.92,98.12 C154.55,98.12 155.03,97.99 155.47,97.84 L155.27,97.11 C154.93,97.24 154.58,97.32 154.15,97.32 C153.26,97.32 152.97,96.91 152.97,96.07 L152.97,93.91 L155.28,93.91 L155.28,93.11 L152.97,93.11 L152.97,91.56 L152.15,91.56 L152.02,93.11 L150.64,93.16 L150.64,93.91 L151.98,93.91 L151.98,96.07 C151.98,97.29 152.47,98.12 153.92,98.12 Z M159,98.12 C157.72,98.12 156.56,97.18 156.56,95.56 C156.56,93.93 157.72,92.99 159,92.99 C160.28,92.99 161.44,93.93 161.44,95.56 C161.44,97.18 160.28,98.12 159,98.12 Z M159,97.31 C159.87,97.31 160.42,96.61 160.42,95.56 C160.42,94.51 159.87,93.81 159,93.81 C158.13,93.81 157.58,94.51 157.58,95.56 C157.58,96.61 158.13,97.31 159,97.31 Z M163.38,98 L164.37,98 L164.37,95.22 C164.91,94.24 165.59,93.88 166.29,93.88 C166.66,93.88 166.85,93.93 167.18,94.04 L167.4,93.19 C167.1,93.05 166.82,92.99 166.44,92.99 C165.57,92.99 164.81,93.46 164.31,94.25 L164.28,94.25 L164.2,93.11 L163.38,93.11 L163.38,98 Z M169.34,100.05 C170.48,100.05 171.08,99.35 171.47,98.31 L173.56,93.11 L172.62,93.11 L171.65,95.66 C171.49,96.11 171.31,96.62 171.15,97.09 L171.11,97.09 C170.91,96.61 170.72,96.1 170.54,95.66 L169.44,93.11 L168.45,93.11 L170.68,97.97 L170.55,98.31 C170.33,98.85 169.94,99.25 169.29,99.25 C169.14,99.25 168.99,99.22 168.87,99.18 L168.67,99.95 C168.85,100.01 169.1,100.05 169.34,100.05 Z M183.92,98.12 C184.55,98.12 185.03,97.99 185.47,97.84 L185.27,97.11 C184.93,97.24 184.58,97.32 184.15,97.32 C183.26,97.32 182.97,96.91 182.97,96.07 L182.97,93.91 L185.28,93.91 L185.28,93.11 L182.97,93.11 L182.97,91.56 L182.15,91.56 L182.02,93.11 L180.64,93.16 L180.64,93.91 L181.98,93.91 L181.98,96.07 C181.98,97.29 182.47,98.12 183.92,98.12 Z M189,98.12 C187.72,98.12 186.56,97.18 186.56,95.56 C186.56,93.93 187.72,92.99 189,92.99 C190.28,92.99 191.44,93.93 191.44,95.56 C191.44,97.18 190.28,98.12 189,98.12 Z M189,97.31 C189.87,97.31 190.42,96.61 190.42,95.56 C190.42,94.51 189.87,93.81 189,93.81 C188.13,93.81 187.58,94.51 187.58,95.56 C187.58,96.61 188.13,97.31 189,97.31 Z M201,94.66 C201.46,94.66 201.79,94.32 201.79,93.82 C201.79,93.37 201.48,93.05 201.03,93.05 C200.95,93.05 200.87,93.07 200.79,93.1 C200.83,92.42 201.21,91.92 201.84,91.58 L201.54,91.02 C200.58,91.5 200.03,92.33 200.03,93.35 C200.03,94.17 200.42,94.66 201,94.66 Z M204.78,98 L205.74,98 L205.74,94.86 C205.74,94.16 205.64,93.41 205.6,92.73 L205.63,92.73 L206.24,94.11 L208.15,98 L209.22,98 L209.22,91.45 L208.26,91.45 L208.26,94.57 C208.26,95.28 208.36,96.06 208.4,96.72 L208.37,96.72 L207.76,95.34 L205.85,91.45 L204.78,91.45 L204.78,98 Z M213.3,98.12 C211.82,98.12 210.65,97.18 210.65,95.55 C210.65,93.96 211.85,92.99 213.15,92.99 C214.59,92.99 215.4,93.94 215.4,95.3 C215.4,95.51 215.38,95.71 215.36,95.84 L211.64,95.84 C211.75,96.85 212.47,97.34 213.43,97.34 C213.97,97.34 214.41,97.18 214.85,96.91 L215.2,97.54 C214.7,97.87 214.05,98.12 213.3,98.12 Z M213.18,93.77 C212.44,93.77 211.81,94.24 211.66,95.11 L214.51,95.11 C214.44,94.22 213.94,93.77 213.18,93.77 Z M217.07,98 L218.29,98 L218.76,95.86 C218.84,95.45 218.91,94.98 218.98,94.42 L219.02,94.42 C219.09,95.02 219.17,95.5 219.25,95.86 L219.73,98 L220.96,98 L221.93,93.11 L221.01,93.11 L220.51,95.8 C220.43,96.27 220.39,96.7 220.31,97.17 L220.27,97.17 C220.21,96.7 220.09,96.27 219.99,95.8 L219.47,93.51 L218.59,93.51 L218.06,95.8 C217.96,96.26 217.86,96.7 217.8,97.17 L217.76,97.17 C217.7,96.7 217.64,96.27 217.55,95.8 L217.05,93.11 L216.07,93.11 L217.07,98 Z M225.06,98.12 C226.5,98.12 227.3,97.45 227.3,96.63 C227.3,95.87 226.9,95.46 225.3,95.11 C224.35,94.91 223.96,94.75 223.96,94.37 C223.96,94.03 224.23,93.75 224.97,93.75 C225.57,93.75 226.13,93.94 226.6,94.25 L227.06,93.63 C226.57,93.3 225.83,92.99 225.06,92.99 C223.7,92.99 222.97,93.6 222.97,94.42 C222.97,95.16 223.58,95.6 224.87,95.87 C226.1,96.13 226.3,96.34 226.3,96.69 C226.3,97.06 225.94,97.36 225.19,97.36 C224.34,97.36 223.68,97.12 223.11,96.72 L222.67,97.36 C223.26,97.77 224.13,98.12 225.06,98.12 Z M228.6,99.46 L233.4,99.46 L233.4,98.65 L228.6,98.65 L228.6,99.46 Z M236.41,98.12 C235.47,98.12 234.76,97.57 234.76,96.71 C234.76,95.61 235.75,95.08 238.21,94.89 C238.18,94.29 237.86,93.8 236.99,93.8 C236.39,93.8 235.81,94.07 235.33,94.35 L234.96,93.68 C235.5,93.35 236.31,92.99 237.16,92.99 C238.51,92.99 239.2,93.77 239.2,95.06 L239.2,98 L238.39,98 L238.31,97.37 L238.28,97.37 C237.76,97.77 237.08,98.12 236.41,98.12 Z M236.69,97.33 C237.21,97.33 237.71,97.09 238.21,96.68 L238.21,95.52 C236.29,95.67 235.72,96.05 235.72,96.64 C235.72,97.13 236.16,97.33 236.69,97.33 Z M240.88,100 L240.88,93.11 L241.69,93.11 L241.77,93.71 L241.8,93.71 C242.24,93.29 242.85,92.99 243.43,92.99 C244.72,92.99 245.44,93.97 245.44,95.48 C245.44,97.15 244.39,98.12 243.24,98.12 C242.79,98.12 242.26,97.9 241.85,97.52 L241.82,97.52 L241.87,98.4 L241.87,100 L240.88,100 Z M243.05,97.3 C243.83,97.3 244.42,96.65 244.42,95.49 C244.42,94.47 244.04,93.82 243.16,93.82 C242.76,93.82 242.31,94.02 241.87,94.48 L241.87,96.79 C242.28,97.16 242.74,97.3 243.05,97.3 Z M246.88,100 L246.88,93.11 L247.69,93.11 L247.77,93.71 L247.8,93.71 C248.24,93.29 248.85,92.99 249.43,92.99 C250.72,92.99 251.44,93.97 251.44,95.48 C251.44,97.15 250.39,98.12 249.24,98.12 C248.79,98.12 248.26,97.9 247.85,97.52 L247.82,97.52 L247.87,98.4 L247.87,100 L246.88,100 Z M249.05,97.3 C249.83,97.3 250.42,96.65 250.42,95.49 C250.42,94.47 250.04,93.82 249.16,93.82 C248.76,93.82 248.31,94.02 247.87,94.48 L247.87,96.79 C248.28,97.16 248.74,97.3 249.05,97.3 Z M254.44,94.66 C255.4,94.18 255.95,93.35 255.95,92.33 C255.95,91.5 255.56,91.02 254.98,91.02 C254.52,91.02 254.19,91.36 254.19,91.85 C254.19,92.31 254.5,92.62 254.95,92.62 C255.03,92.62 255.11,92.6 255.19,92.57 C255.15,93.25 254.77,93.76 254.13,94.1 L254.44,94.66 Z M261,98.12 C261.51,98.12 261.9,97.74 261.9,97.19 C261.9,96.65 261.51,96.26 261,96.26 C260.49,96.26 260.1,96.65 260.1,97.19 C260.1,97.74 260.49,98.12 261,98.12 Z" id="path-7"></path>
    </defs>
    <g id="→-Developers" stroke="none" stroke-width="1" fill="none" fill-rule="evenodd">
        <g id="Shoutem-Web---Developers-v2" transform="translate(-165.000000, -2113.000000)">
            <g id="Group-37" transform="translate(0.000000, 1243.000000)">
                <g id="devs-step3" transform="translate(165.000000, 870.000000)">
                    <mask id="mask-2" fill="white">
                        <use xlink:href="#path-1"></use>
                    </mask>
                    <use id="Mask" fill="#E6F7FC" xlink:href="#path-1"></use>
                    <g id="Group-25" mask="url(#mask-2)">
                        <g transform="translate(105.000000, 16.000000)">
                            <g id="image-builder-copy-2" transform="translate(42.000000, 0.000000)">
                                <mask id="mask-4" fill="white">
                                    <use xlink:href="#path-3"></use>
                                </mask>
                                <use id="Mask" fill="#444F6C" xlink:href="#path-3"></use>
                                <g id="Window-Bar" mask="url(#mask-4)">
                                    <g transform="translate(16.000000, 19.000000)">
                                        <path d="M1.24001742,0 L394.759983,0 L394.759983,-2.22044605e-16 C395.444825,6.23031912e-14 396,0.555174711 396,1.24001742 L396,12 L0,12 L0,1.24001742 L-2.22044605e-16,1.24001742 C-3.05913649e-16,0.555174711 0.555174711,1.01398199e-15 1.24001742,8.8817842e-16 Z" id="Rectangle-39" fill="#F5F5F5"></path>
                                        <ellipse id="Oval-83" fill="#BABABA" cx="5.88732394" cy="5.83783784" rx="1.85915493" ry="1.94594595"></ellipse>
                                        <ellipse id="Oval-83" fill="#BABABA" cx="12.084507" cy="5.83783784" rx="1.85915493" ry="1.94594595"></ellipse>
                                        <ellipse id="Oval-83" fill="#BABABA" cx="18.2816901" cy="5.83783784" rx="1.85915493" ry="1.94594595"></ellipse>
                                    </g>
                                </g>
                                <mask id="mask-6" fill="white">
                                    <use xlink:href="#path-5"></use>
                                </mask>
                                <use id="Rectangle-3" fill="#313C59" xlink:href="#path-5"></use>
                                <path d="M40.8,64.36 L41.25,63.68 C41.78,64.05 42.38,64.35 43.1,64.35 C43.8,64.35 44.18,64.04 44.18,63.58 C44.18,62.45 41.08,62.65 41.08,60.89 C41.08,60.04 41.73,59.46 42.71,59.34 L42.71,58.03 L43.4,58.03 L43.4,59.33 C44.12,59.4 44.59,59.71 44.99,60.11 L44.48,60.69 C44.02,60.34 43.67,60.13 43.03,60.13 C42.42,60.13 42.04,60.41 42.04,60.87 C42.04,61.87 45.15,61.68 45.15,63.51 C45.15,64.37 44.47,65 43.4,65.13 L43.4,66.6 L42.71,66.6 L42.71,65.15 C42,65.08 41.27,64.77 40.8,64.36 Z M55.06,65.62 C54.13,65.62 53.26,65.27 52.67,64.86 L53.11,64.22 C53.68,64.62 54.34,64.86 55.19,64.86 C55.94,64.86 56.3,64.56 56.3,64.19 C56.3,63.84 56.1,63.63 54.87,63.37 C53.58,63.1 52.97,62.66 52.97,61.92 C52.97,61.1 53.7,60.49 55.06,60.49 C55.83,60.49 56.57,60.8 57.06,61.13 L56.6,61.75 C56.13,61.44 55.57,61.25 54.97,61.25 C54.23,61.25 53.96,61.53 53.96,61.87 C53.96,62.25 54.35,62.41 55.3,62.61 C56.9,62.96 57.3,63.37 57.3,64.13 C57.3,64.95 56.5,65.62 55.06,65.62 Z M58.88,65.5 L58.88,58.41 L59.87,58.41 L59.87,60.29 L59.81,61.39 L59.84,61.39 C60.3,60.89 60.86,60.49 61.61,60.49 C62.75,60.49 63.27,61.2 63.27,62.47 L63.27,65.5 L62.28,65.5 L62.28,62.6 C62.28,61.75 62,61.35 61.26,61.35 C60.74,61.35 60.37,61.61 59.87,62.13 L59.87,65.5 L58.88,65.5 Z M67,65.62 C65.72,65.62 64.56,64.68 64.56,63.06 C64.56,61.43 65.72,60.49 67,60.49 C68.28,60.49 69.44,61.43 69.44,63.06 C69.44,64.68 68.28,65.62 67,65.62 Z M67,64.81 C67.87,64.81 68.42,64.11 68.42,63.06 C68.42,62.01 67.87,61.31 67,61.31 C66.13,61.31 65.58,62.01 65.58,63.06 C65.58,64.11 66.13,64.81 67,64.81 Z M72.4,65.62 C71.25,65.62 70.73,64.92 70.73,63.64 L70.73,60.61 L71.72,60.61 L71.72,63.51 C71.72,64.37 72,64.77 72.74,64.77 C73.25,64.77 73.63,64.54 74.11,63.96 L74.11,60.61 L75.1,60.61 L75.1,65.5 L74.29,65.5 L74.21,64.69 L74.17,64.69 C73.69,65.24 73.14,65.62 72.4,65.62 Z M79.92,65.62 C78.47,65.62 77.98,64.79 77.98,63.57 L77.98,61.41 L76.64,61.41 L76.64,60.66 L78.02,60.61 L78.15,59.06 L78.97,59.06 L78.97,60.61 L81.28,60.61 L81.28,61.41 L78.97,61.41 L78.97,63.57 C78.97,64.41 79.26,64.82 80.15,64.82 C80.58,64.82 80.93,64.74 81.27,64.61 L81.47,65.34 C81.03,65.49 80.55,65.62 79.92,65.62 Z M85.3,65.62 C83.82,65.62 82.65,64.68 82.65,63.05 C82.65,61.46 83.85,60.49 85.15,60.49 C86.59,60.49 87.4,61.44 87.4,62.8 C87.4,63.01 87.38,63.21 87.36,63.34 L83.64,63.34 C83.75,64.35 84.47,64.84 85.43,64.84 C85.97,64.84 86.41,64.68 86.85,64.41 L87.2,65.04 C86.7,65.37 86.05,65.62 85.3,65.62 Z M85.18,61.27 C84.44,61.27 83.81,61.74 83.66,62.61 L86.51,62.61 C86.44,61.72 85.94,61.27 85.18,61.27 Z M88.52,65.5 L88.52,60.61 L89.3,60.61 L89.38,61.25 L89.4,61.25 C89.63,60.81 89.94,60.49 90.5,60.49 C90.97,60.49 91.27,60.77 91.4,61.33 C91.66,60.83 91.97,60.49 92.53,60.49 C93.22,60.49 93.62,61.04 93.62,62.02 L93.62,65.5 L92.65,65.5 L92.65,62.09 C92.65,61.6 92.51,61.34 92.2,61.34 C91.9,61.34 91.73,61.57 91.5,62.02 L91.5,65.5 L90.64,65.5 L90.64,62.09 C90.64,61.6 90.51,61.34 90.2,61.34 C89.9,61.34 89.7,61.57 89.49,62.02 L89.49,65.5 L88.52,65.5 Z M103.45,65.62 C101.92,65.62 100.76,64.68 100.76,63.06 C100.76,61.43 102.03,60.49 103.51,60.49 C104.31,60.49 104.91,60.8 105.31,61.19 L104.83,61.82 C104.44,61.5 104.04,61.31 103.56,61.31 C102.51,61.31 101.78,62.01 101.78,63.06 C101.78,64.11 102.49,64.81 103.53,64.81 C104.12,64.81 104.59,64.55 104.98,64.23 L105.41,64.87 C104.86,65.35 104.16,65.62 103.45,65.62 Z M110.04,65.62 C108.95,65.62 108.36,64.97 108.36,63.79 L108.36,59.2 L106.76,59.2 L106.76,58.41 L109.35,58.41 L109.35,63.85 C109.35,64.53 109.73,64.81 110.27,64.81 C110.54,64.81 110.82,64.74 111.15,64.6 L111.39,65.34 C110.92,65.52 110.59,65.62 110.04,65.62 Z M115,65.62 C113.72,65.62 112.56,64.68 112.56,63.06 C112.56,61.43 113.72,60.49 115,60.49 C116.28,60.49 117.44,61.43 117.44,63.06 C117.44,64.68 116.28,65.62 115,65.62 Z M115,64.81 C115.87,64.81 116.42,64.11 116.42,63.06 C116.42,62.01 115.87,61.31 115,61.31 C114.13,61.31 113.58,62.01 113.58,63.06 C113.58,64.11 114.13,64.81 115,64.81 Z M118.88,65.5 L118.88,60.61 L119.69,60.61 L119.77,61.4 L119.81,61.4 C120.3,60.89 120.85,60.49 121.61,60.49 C122.75,60.49 123.27,61.2 123.27,62.47 L123.27,65.5 L122.28,65.5 L122.28,62.6 C122.28,61.75 122,61.35 121.26,61.35 C120.74,61.35 120.37,61.61 119.87,62.13 L119.87,65.5 L118.88,65.5 Z M127.3,65.62 C125.82,65.62 124.65,64.68 124.65,63.05 C124.65,61.46 125.85,60.49 127.15,60.49 C128.59,60.49 129.4,61.44 129.4,62.8 C129.4,63.01 129.38,63.21 129.36,63.34 L125.64,63.34 C125.75,64.35 126.47,64.84 127.43,64.84 C127.97,64.84 128.41,64.68 128.85,64.41 L129.2,65.04 C128.7,65.37 128.05,65.62 127.3,65.62 Z M127.18,61.27 C126.44,61.27 125.81,61.74 125.66,62.61 L128.51,62.61 C128.44,61.72 127.94,61.27 127.18,61.27 Z" id="Combined-Shape" fill="#FFFFFF" mask="url(#mask-6)"></path>
                                <g id="Group-40" mask="url(#mask-6)">
                                    <g transform="translate(40.000000, 80.000000)">
                                        <mask id="mask-8" fill="white">
                                            <use xlink:href="#path-7"></use>
                                        </mask>
                                        <use id="$-shoutem-clone-Sele" stroke="none" fill="#7B8397" fill-rule="evenodd" xlink:href="#path-7"></use>
                                    </g>
                                </g>
                            </g>
                            <g id="Group-47" transform="translate(0.000000, 229.000000)">
                                <g id="Group-22">
                                    <rect id="Rectangle-5" fill="#444F6C" x="42.8591516" y="0.789168279" width="429.101111" height="5"></rect>
                                    <g id="Group-23" transform="translate(0.000000, 6.000000)" fill-opacity="0.02" fill="#FFFFFF">
                                        <path d="M0,4.36363636 L0,5.33664022e-16 L481,5.33664022e-16 L481,4.36363636 C473.870196,8.36647727 466.249506,11.0331439 458.137931,12.3636364 C450.33077,13.6441975 436.989999,16 407.141736,16 C305.829494,16 178.068977,16 76.7567349,16 C50.8710195,16 29.0766433,13.4509943 18.8227707,11.6363636 C12.3804524,10.4962648 6.10619548,8.07202234 0,4.36363636 Z" id="Body"></path>
                                    </g>
                                </g>
                            </g>
                        </g>
                    </g>
                </g>
            </g>
        </g>
    </g>
</svg>