<?xml version="1.0" encoding="UTF-8"?>
<svg width="48px" height="48px" viewBox="0 0 48 48" version="1.1" xmlns="http://www.w3.org/2000/svg" xmlns:xlink="http://www.w3.org/1999/xlink">
    <!-- Generator: Sketch 45.1 (43504) - http://www.bohemiancoding.com/sketch -->
    <title>discounts</title>
    <desc>Created with Sketch.</desc>
    <defs></defs>
    <g id="A1.01.3-SE-Web---Home-(short)" stroke="none" stroke-width="1" fill="none" fill-rule="evenodd">
        <g id="discounts">
            <rect id="bounds" fill-opacity="0" fill="#D8D8D8" x="0" y="0" width="48" height="48"></rect>
            <path d="M39.766858,27.4879952 C40.2843652,28.6530688 39.8509394,30.0153584 38.7145638,30.6495935 L35.410542,32.441573 L34.749034,36.1982704 C34.5415785,37.4720387 33.3406436,38.3522317 32.035815,38.1851964 L28.3662476,37.6487441 L25.6966898,40.3129966 C24.7474582,41.2304053 23.2525418,41.2304053 22.2947025,40.3045427 L19.6337226,37.648727 L15.9825762,38.1822842 C14.6855811,38.4034924 13.4612158,37.4891954 13.2525079,36.2073692 L12.589448,32.4415453 L9.30179359,30.6582124 C8.13933074,30.0634229 7.67329528,28.6327034 8.24190686,27.4690028 L9.90364963,23.9999715 L8.23314201,20.5120048 C7.71563477,19.3469312 8.14906057,17.9846416 9.28543616,17.3504065 L12.589458,15.558427 L13.250966,11.8017296 C13.4584215,10.5279613 14.6593564,9.64776831 15.964185,9.81480364 L19.6337524,10.3512559 L22.3033102,7.68700342 C23.2525418,6.76959472 24.7474582,6.76959472 25.7052975,7.69545735 L28.3662774,10.351273 L32.0174238,9.81771584 C33.3144189,9.59650757 34.5387842,10.5108046 34.7474921,11.7926308 L35.410552,15.5584547 L38.6982064,17.3417876 C39.8606693,17.9365771 40.3267047,19.3672966 39.7580931,20.5309972 L38.0963504,24.0000285 L39.766858,27.4879952 Z M36.5653494,23.6884639 L38.378777,19.9028284 C38.6045228,19.4408049 38.418612,18.8700626 37.9710711,18.6408229 L34.0312401,16.504004 L33.9699109,16.1556874 L33.2439843,12.0324727 C33.1629942,11.5351971 32.7140243,11.199928 32.2628412,11.2766548 L27.8192887,11.9262556 L27.5464917,11.653988 L24.6213413,8.73437754 C24.2666804,8.3916066 23.7333196,8.3916066 23.3872664,8.72592361 L20.1807113,11.9262556 L19.7937132,11.8696805 L15.7510885,11.2785637 C15.2830998,11.2187006 14.835072,11.5470705 14.7544738,12.0415716 L13.9687599,16.504004 L13.6508525,16.6764252 L10.0371022,18.6363256 C9.59214202,18.8846927 9.41576065,19.4390724 9.62368879,19.907925 L11.5838833,24 L11.4346506,24.3115361 L9.62122302,28.0971716 C9.39547718,28.5591951 9.58138796,29.1299374 10.0289289,29.3591771 L13.9687599,31.495996 L14.0300891,31.8443126 L14.7560157,35.9675273 C14.8370058,36.4648029 15.2859757,36.800072 15.7371588,36.7233452 L20.1807113,36.0737444 L20.4535083,36.346012 L23.3786587,39.2656225 C23.7333196,39.6083934 24.2666804,39.6083934 24.6127336,39.2740764 L27.8192887,36.0737444 L28.2062868,36.1303195 L32.2489115,36.7214363 C32.7169002,36.7812994 33.164928,36.4529295 33.2455262,35.9584284 L34.0312401,31.495996 L34.3491475,31.3235748 L37.9628978,29.3636744 C38.407858,29.1153073 38.5842394,28.5609276 38.3763112,28.092075 L36.4161167,24 L36.5653494,23.6884639 Z M29.2253522,18.7732348 C29.5228778,19.0707605 29.5228778,19.5531448 29.2253522,19.8506705 L19.8492575,29.2267652 L19.8492575,29.2267652 C19.5517318,29.5242908 19.0693474,29.5242908 18.7718218,29.2267652 C18.4742961,28.9292395 18.4742961,28.4468552 18.7718218,28.1493295 L28.1479165,18.7732348 C28.4454421,18.4757092 28.9278265,18.4757092 29.2253522,18.7732348 Z M19.4288275,22.5216476 C17.7457683,22.5216476 16.3813792,21.1978857 16.3813792,19.5649427 C16.3813792,17.9319996 17.7457683,16.6082378 19.4288275,16.6082378 C21.1118867,16.6082378 22.4762758,17.9319996 22.4762758,19.5649427 C22.4762758,21.1978857 21.1118867,22.5216476 19.4288275,22.5216476 Z M28.5711725,31.3917622 C26.8881133,31.3917622 25.5237242,30.0680004 25.5237242,28.4350573 C25.5237242,26.8021143 26.8881133,25.4783524 28.5711725,25.4783524 C30.2542317,25.4783524 31.6186208,26.8021143 31.6186208,28.4350573 C31.6186208,30.0680004 30.2542317,31.3917622 28.5711725,31.3917622 Z M28.5711725,29.9134098 C29.4127021,29.9134098 30.0948967,29.2515288 30.0948967,28.4350573 C30.0948967,27.6185858 29.4127021,26.9567049 28.5711725,26.9567049 C27.7296429,26.9567049 27.0474483,27.6185858 27.0474483,28.4350573 C27.0474483,29.2515288 27.7296429,29.9134098 28.5711725,29.9134098 Z M19.4288275,21.0432951 C20.2703571,21.0432951 20.9525517,20.3814142 20.9525517,19.5649427 C20.9525517,18.7484712 20.2703571,18.0865902 19.4288275,18.0865902 C18.5872979,18.0865902 17.9051033,18.7484712 17.9051033,19.5649427 C17.9051033,20.3814142 18.5872979,21.0432951 19.4288275,21.0432951 Z" id="Combined-Shape" fill="#7B8397" fill-rule="nonzero"></path>
        </g>
    </g>
</svg>