<?xml version="1.0" encoding="UTF-8"?>
<svg width="48px" height="48px" viewBox="0 0 48 48" version="1.1" xmlns="http://www.w3.org/2000/svg" xmlns:xlink="http://www.w3.org/1999/xlink">
    <!-- Generator: Sketch 45.1 (43504) - http://www.bohemiancoding.com/sketch -->
    <title>ecommerce</title>
    <desc>Created with Sketch.</desc>
    <defs></defs>
    <g id="A1.01.3-SE-Web---Home-(short)" stroke="none" stroke-width="1" fill="none" fill-rule="evenodd">
        <g id="ecommerce">
            <rect id="bounds" fill-opacity="0" fill="#D8D8D8" x="0" y="0" width="48" height="48"></rect>
            <path d="M16.7085782,31.7682327 L10.7662779,11.4871795 L6.76314974,11.4871795 C6.34167377,11.4871795 6,11.154263 6,10.7435897 C6,10.3329165 6.34167377,10 6.76314974,10 L11.3420481,10 C11.6828387,10 11.982325,10.2201608 12.0758788,10.5394596 L18.018179,30.8205128 L30.5718323,30.8205128 L33.2850797,18.9299336 L18,18.9299336 C17.578524,18.9299336 17.2399902,18.5970171 17.2399902,18.1863439 C17.2399902,17.7756706 17.578524,17.4427541 18,17.4427541 L34.2365402,17.4427541 C34.7247976,17.4427541 35.0874688,17.8833268 34.9814991,18.3477299 L31.9289002,31.7254886 C31.8512758,32.0656711 31.5415975,32.3076923 31.1839413,32.3076923 L17.4424088,32.3076923 C17.1016182,32.3076923 16.802132,32.0875315 16.7085782,31.7682327 Z M19.7366952,39 C18.0507914,39 16.6840963,37.6683341 16.6840963,36.025641 C16.6840963,34.3829479 18.0507914,33.0512821 19.7366952,33.0512821 C21.4225991,33.0512821 22.7892942,34.3829479 22.7892942,36.025641 C22.7892942,37.6683341 21.4225991,39 19.7366952,39 Z M28.8944921,39 C27.2085882,39 25.8418931,37.6683341 25.8418931,36.025641 C25.8418931,34.3829479 27.2085882,33.0512821 28.8944921,33.0512821 C30.5803959,33.0512821 31.947091,34.3829479 31.947091,36.025641 C31.947091,37.6683341 30.5803959,39 28.8944921,39 Z M19.7366952,37.5128205 C20.5796472,37.5128205 21.2629947,36.8469876 21.2629947,36.025641 C21.2629947,35.2042945 20.5796472,34.5384615 19.7366952,34.5384615 C18.8937433,34.5384615 18.2103958,35.2042945 18.2103958,36.025641 C18.2103958,36.8469876 18.8937433,37.5128205 19.7366952,37.5128205 Z M28.8944921,37.5128205 C29.737444,37.5128205 30.4207915,36.8469876 30.4207915,36.025641 C30.4207915,35.2042945 29.737444,34.5384615 28.8944921,34.5384615 C28.0515401,34.5384615 27.3681926,35.2042945 27.3681926,36.025641 C27.3681926,36.8469876 28.0515401,37.5128205 28.8944921,37.5128205 Z" id="Combined-Shape" fill="#7B8397" fill-rule="nonzero"></path>
        </g>
    </g>
</svg>