<?xml version="1.0" encoding="UTF-8"?>
<svg width="48px" height="48px" viewBox="0 0 48 48" version="1.1" xmlns="http://www.w3.org/2000/svg" xmlns:xlink="http://www.w3.org/1999/xlink">
    <!-- Generator: Sketch 45.1 (43504) - http://www.bohemiancoding.com/sketch -->
    <title>events</title>
    <desc>Created with Sketch.</desc>
    <defs></defs>
    <g id="A1.01.3-SE-Web---Home-(short)" stroke="none" stroke-width="1" fill="none" fill-rule="evenodd">
        <g id="events">
            <path d="M18.3947368,9 C18.8162173,9 19.1578947,9.34167743 19.1578947,9.76315789 L19.1578947,12.0526316 L17.6315789,12.0526316 L17.6315789,9.76315789 L17.6315789,9.76315789 C17.6315789,9.34167743 17.9732564,9 18.3947368,9 Z M30.6052632,9 C31.0267436,9 31.3684211,9.34167743 31.3684211,9.76315789 L31.3684211,12.0526316 L29.8421053,12.0526316 L29.8421053,9.76315789 L29.8421053,9.76315789 C29.8421053,9.34167743 30.1837827,9 30.6052632,9 Z M11.5263158,12.0526316 L37.4736842,12.0526316 C38.3166451,12.0526316 39,12.7359864 39,13.5789474 L39,36.4736842 C39,37.3166451 38.3166451,38 37.4736842,38 L11.5263158,38 C10.6833549,38 10,37.3166451 10,36.4736842 L10,13.5789474 C10,12.7359864 10.6833549,12.0526316 11.5263158,12.0526316 Z M11.5263158,13.5789474 L11.5263158,36.4736842 L37.4736842,36.4736842 L37.4736842,13.5789474 L11.5263158,13.5789474 Z M16.1052632,22.7368421 L20.6842105,22.7368421 C21.5271715,22.7368421 22.2105263,23.420197 22.2105263,24.2631579 L22.2105263,28.8421053 C22.2105263,29.6850662 21.5271715,30.3684211 20.6842105,30.3684211 L16.1052632,30.3684211 C15.2623022,30.3684211 14.5789474,29.6850662 14.5789474,28.8421053 L14.5789474,24.2631579 C14.5789474,23.420197 15.2623022,22.7368421 16.1052632,22.7368421 Z M16.1052632,24.2631579 L16.1052632,28.8421053 L20.6842105,28.8421053 L20.6842105,24.2631579 L16.1052632,24.2631579 Z M11.5263158,18.1578947 L37.4736842,18.1578947 L37.4736842,19.6842105 L11.5263158,19.6842105 L11.5263158,18.1578947 Z" id="Combined-Shape" fill="#7B8397" fill-rule="nonzero"></path>
            <rect id="bounds" fill-opacity="0" fill="#D8D8D8" x="0" y="0" width="48" height="48"></rect>
        </g>
    </g>
</svg>