<svg height="184" viewBox="0 0 184 184" width="184" xmlns="http://www.w3.org/2000/svg" xmlns:xlink="http://www.w3.org/1999/xlink"><defs><path id="a" d="m83.8484572 96.5074296c-.6137175-.1782039-1.1397611-.2673059-1.7534786-.1782039-1.4027829.1782039-2.8055658.8910195-4.2083487 1.0692234-.9644132.089102-1.8411525-.6237137-1.9288264-1.6929371-.2630218-3.2967723-.2630218-6.5935446 0-9.8903169 0-.4455098-.3506958-.8019176-.7890654-.8019176-3.6823051-.089102-7.2769363.2673059-10.9592414 1.1583254-.9644132.2673059-1.7534786 1.0692235-1.6658047 2.0493449.1753479 2.049345 1.4904569 4.1877919.8767393 6.3262388-.5260435 1.871141-2.0165004 3.2076703-3.8576529 3.5640781-1.8411526.3564078-3.769979-.5346117-4.8220662-2.0493449-1.227435-1.7820391-.6137175-4.2768938-1.1397611-6.3262387-.2630218-.9801215-1.227435-1.5147333-2.1918483-1.4256313-3.6823051.3564078-7.2769362 1.2474274-10.6962195 2.5839567-.4383697.1782039-.7013915.6237136-.4383697.9801215 1.315109 3.0294664 2.3671961 6.1480348 3.1562615 9.355705.2630218.980122-.3506957 1.960243-1.3151089 2.227549-1.4027829.356408-2.9809137.089102-4.2960226.44551-.6137176.089102-1.1397611.356408-1.5781308.712815-1.6658047 1.069224-2.4548701 3.029467-2.1918483 4.811506s1.5781308 3.296772 3.2439355 3.920486c2.1041743.712815 3.9453269-.623714 6.0495012-.801918.9644132-.089102 1.8411525.623714 1.9288265 1.692937.2630218 3.296773.2630218 6.593545 0 9.890317 0 .44551.3506957.801918.7890653.801918 3.6823051.267306 7.3646102-.267306 10.9592414-1.158326.9644132-.267305 1.7534786-1.069223 1.6658047-2.049344-.1753479-2.138447-1.5781308-4.276894-.9644133-6.415341.5260436-1.782039 2.1918483-3.207671 3.9453269-3.474976 1.7534786-.267306 3.7699791.534611 4.8220662 2.049345 1.315109 1.782039.6137175 4.365995 1.1397611 6.41534.2630218.980122 1.2274351 1.514733 2.1918483 1.425632 3.6823051-.356408 7.3646102-1.069224 10.6962196-2.583957.4383696-.178204.7013914-.623714.4383696-.980122-1.315109-3.029466-2.3671961-6.148034-3.1562615-9.355705-.2630218-.980121.3506957-1.960243 1.315109-2.227549 2.0165004-.445509 4.1206747.178204 5.9618273-1.247427 1.4027829-1.069223 2.1918482-2.940364 1.8411525-4.722404 0-1.9602425-1.4027829-3.5640777-3.0685876-4.0986894z"/></defs><g fill="none" fill-rule="evenodd" transform=""><circle cx="92" cy="92" fill="#fff" r="92"/><path d="m84.3725963 52-4.8486381 18.0953693s-.2416179 3.6820667 1.2023278 5.1260813c1.4440761 1.4439308 2.7764273 1.0906964 3.7617881.826643 1.4085087-.3774278 3.5696546-2.4057705 7.5797238-1.3312754 4.0101699 1.0745221 5.1798998 3.3143773 3.6389424 9.0653106-1.5409845 5.7510341-3.6739087 7.1058699-7.6840786 6.0313477-4.0100691-1.0744951-4.8674756-3.9117756-5.8985607-4.9429124-.7213236-.7213473-1.6985537-1.6934432-3.6711552-1.1648899-1.9725007.5285802-3.6042943 3.8381827-3.6042943 3.8381827l-4.8486515 18.0954201 18.0953717 4.848641s3.3096341 1.631727 3.8381208 3.604299c.5285943 1.972492-.4435539 2.949675-1.1649478 3.67105-1.03111 1.031145-3.8683292 1.888599-4.9427986 5.898575-1.0744964 4.010076.2803612 6.143167 6.0312984 7.684127 5.7510279 1.540983 7.9908235.371077 9.0653195-3.638999 1.07447-4.009976-.9539074-6.171163-1.3313024-7.579716-.264058-.985426-.6172812-2.317741.8266504-3.761697 1.444059-1.444029 5.126149-1.202328 5.126149-1.202328l18.095372 4.848641 4.848651-18.095419s1.631801-3.3095901 3.604302-3.8381703c1.972501-.5285803 2.949731.4435155 3.671155 1.1648899 1.031078 1.0311244 1.888492 3.8684064 5.898562 4.9429014 4.010069 1.074496 6.143081-.280306 7.684065-6.0313399 1.540958-5.7509333.371137-7.9908128-3.638932-9.0653079-4.010069-1.0744952-6.17122.9538354-7.579722 1.3312759-.985459.2640163-2.317812.6172608-3.761785-.8266531-1.443946-1.4440146-1.202338-5.126084-1.202338-5.126084l4.848638-18.0953693-18.095372-4.8486418s-3.682111-.2416203-5.126146 1.2023184c-1.443934 1.4439658-1.090743 2.7764017-.826672 3.7617776.377411 1.4084926 2.405794 3.5696592 1.3313 7.5797256-1.074518 4.0101571-3.314284 5.1799526-9.065312 3.6389688-5.750937-1.5409595-7.1058243-3.6739397-6.031306-7.6840968 1.074493-4.0100664 3.911707-4.8674999 4.942801-5.8985847.72138-.7213247 1.693561-1.6986283 1.164969-3.6711309-.528511-1.972481-3.838123-3.6042881-3.838123-3.6042881z" fill="#fff" stroke="#00aadf" stroke-width="2"/><g fill-rule="nonzero"><use fill="#fff" fill-rule="evenodd" xlink:href="#a"/><use fill="#00aadf" fill-opacity=".1" fill-rule="evenodd" stroke="#00aadf" stroke-width="2" xlink:href="#a"/></g></g></svg>