<?xml version="1.0" encoding="UTF-8"?>
<svg width="26px" height="35px" viewBox="0 0 26 35" version="1.1" xmlns="http://www.w3.org/2000/svg" xmlns:xlink="http://www.w3.org/1999/xlink">
    <!-- Generator: sketchtool 46.2 (44496) - http://www.bohemiancoding.com/sketch -->
    <title>4635684D-CA9C-40CE-924E-6787BA5AD700</title>
    <desc>Created with sketchtool.</desc>
    <defs></defs>
    <g id="Homepage" stroke="none" stroke-width="1" fill="none" fill-rule="evenodd">
        <g id="Shoutem-Web---Homepage" transform="translate(-532.000000, -4755.000000)">
            <g id="firebase" transform="translate(521.000000, 4749.000000)">
                <rect id="bounds" fill="#D8D8D8" opacity="0" x="0" y="0" width="48" height="48"></rect>
                <path d="M28.057989,16.7876091 L31.1990886,13.6823102 C32.0718332,12.8171098 33.420365,13.3222149 33.615006,14.5086991 L36.740103,33.5543888 C36.7914857,33.8675371 36.6402245,34.1791318 36.3623918,34.3324651 L25.4188763,40.372088 C24.5053743,40.8762198 23.394082,40.8759605 22.4805517,40.3712084 L11.8041481,34.4659627 C11.4954397,34.4275932 11.2609661,34.2061341 11.179833,33.9327573 C11.0756692,33.7869762 11.0234519,33.5974189 11.0601674,33.3768506 L15.2813937,8.01782083 C15.5171692,6.59898217 17.3692562,6.27806376 18.0804505,7.53277763 L21.5945144,13.7741513 L22.7911065,11.2882167 C23.354954,10.1150335 24.8535086,10.2078629 25.4072974,11.3446431 L28.057989,16.7876091 Z M14.7312803,29.9624265 L23.9748944,20.8241666 L21.7737948,16.6131681 L14.7312803,29.9624265 Z M14.8484353,26.525659 L20.7520384,15.335235 L16.7744426,8.27057086 C16.7644824,8.25299882 15.5882404,15.2902762 13.2457165,29.3824029 L14.8484353,26.525659 Z M22.6471109,15.0458555 L25.0797535,19.6998266 L26.8536942,17.7406448 L24.0857873,12.0569876 L22.6471109,15.0458555 Z M32.151029,14.8504846 L13.2399921,33.5459839 L23.2062707,39.0584511 C23.6682817,39.3137255 24.231947,39.313857 24.6941046,39.0588075 L35.1741923,33.2749459 L32.151029,14.8504846 Z" id="Combined-Shape" fill="#7B8397" fill-rule="nonzero"></path>
            </g>
        </g>
    </g>
</svg>