<svg height="504" viewBox="0 0 447 504" width="447" xmlns="http://www.w3.org/2000/svg" xmlns:xlink="http://www.w3.org/1999/xlink"><defs><linearGradient id="a" x1="50%" x2="50%" y1="0%" y2="98.742427%"><stop offset="0" stop-color="#d0021b" stop-opacity=".1"/><stop offset="1" stop-color="#d1021a" stop-opacity=".2"/></linearGradient><rect id="b" height="104" rx="6" width="83" x="230" y="72"/><mask id="c" fill="#fff" height="104" width="83" x="0" y="0"><use xlink:href="#b"/></mask><rect id="d" height="104" rx="6" width="83" x="135" y="188"/><mask id="e" fill="#fff" height="104" width="83" x="0" y="0"><use xlink:href="#d"/></mask><rect id="f" height="104" rx="6" width="83" x="230" y="188"/><mask id="g" fill="#fff" height="104" width="83" x="0" y="0"><use xlink:href="#f"/></mask><rect id="h" height="104" rx="6" width="83" x="135" y="304"/><mask id="i" fill="#fff" height="104" width="83" x="0" y="0"><use xlink:href="#h"/></mask><rect id="j" height="104" rx="6" width="83" x="230" y="304"/><mask id="k" fill="#fff" height="104" width="83" x="0" y="0"><use xlink:href="#j"/></mask></defs><g fill="none" fill-rule="evenodd"><path d="m139 0h169c17.673112 0 32 14.326888 32 32v418c0 17.673112-14.326888 32-32 32h-169c-17.673112 0-32-14.326888-32-32v-418c0-17.673112 14.326888-32 32-32zm12.335294 56.7873563c-17.673112 0-32 14.326888-32 32v305.8103447c0 17.673112 14.326888 32 32 32h144.329412c17.673112 0 32-14.326888 32-32v-305.8103447c0-17.673112-14.326888-32-32-32z" fill="#fff"/><path d="m125 54h198c3.313708 0 6 2.6862915 6 6v361c0 3.313708-2.686292 6-6 6h-198c-3.313708 0-6-2.686292-6-6v-361c0-3.3137085 2.686292-6 6-6z" fill="#444f6c"/><rect height="102" opacity=".4" rx="6" stroke="#fff" stroke-width="2" width="81" x="136" y="73"/><g transform="translate(159 100)"><path d="m2 0h32v32h-32z" fill="#d8d8d8" opacity="0"/><g transform="translate(6 4)"><path d="m0 0h24v24h-24z" fill="url(#a)" opacity="0"/><path d="m15.17 16.74-.71-.7 3.54-3.54-3.54-3.54.71-.7 4.24 4.24zm-7.34 0-4.24-4.24 4.24-4.24.71.7-3.54 3.54 3.54 3.54z" fill="#fff"/></g><path d="m5.96699996 52.236s-.00000052.0000006-.00000156.0000017zm0 0 .612.837s-.882 1.035-2.511 1.035c-1.953 0-3.303-1.449-3.303-3.33 0-1.854 1.404-3.276 3.285-3.276 1.557 0 2.358.873 2.358.873l-.558.864s-.729-.675-1.746-.675c-1.35 0-2.142 1.008-2.142 2.196 0 1.215.819 2.286 2.151 2.286 1.10607707 0 1.85275417-.8086499 1.85399844-.8099983zm4.79945124 1.1741199.1565488.1403377v-.0724576c0-.18.018-.324.018-.324h-.018c-.0407148.0863154-.0932177.1726308-.1565488.2561199zm.1565488.1403377-.1565488-.1403377c-.2866517.3778917-.79513879.6978801-1.43645123.6978801-.981 0-1.593-.495-1.593-1.746v-2.952h1.143v2.718c0 .558.144.936.711.936.82800003 0 1.28700003-.729 1.28700003-1.548v-2.106h1.143v4.59h-1.098zm2.301-.1174576s.639.675 1.782.675c1.089 0 1.755-.612 1.755-1.377 0-1.476-2.232-1.395-2.232-2.043 0-.288.288-.414.585-.414.702 0 1.125.396 1.125.396l.423-.846s-.504-.522-1.539-.522c-.99 0-1.755.495-1.755 1.35 0 1.476 2.232 1.386 2.232 2.07 0 .27-.279.414-.603.414-.747 0-1.251-.504-1.251-.504zm4.983-1.116c0 1.539 1.269 1.728 1.908 1.728.216 0 .351-.027.351-.027v-.999s-.081.018-.207.018c-.315 0-.909-.108-.909-.864v-1.782h1.044v-.909h-1.044v-1.323h-1.116v1.323h-.621v.909h.594zm3.183-.612c0-1.404 1.125-2.403 2.52-2.403 1.404 0 2.529.999 2.529 2.403 0 1.413-1.125 2.403-2.52 2.403-1.404 0-2.529-.99-2.529-2.403zm1.161 0c0 .855.621 1.431 1.368 1.431.738 0 1.359-.576 1.359-1.431 0-.846-.621-1.431-1.359-1.431-.747 0-1.368.585-1.368 1.431zm6.383082-1.6899359-.149082-.1464436v.0723795c0 .171-.018.315-.018.315h.018c.0398258-.0796516.0898026-.160995.149082-.2409359zm-.149082-.1464436.149082.1464436c.2756254-.3716932.7523606-.7130641 1.344918-.7130641.702 0 1.152.324 1.341.945h.018c.252-.495.846-.945 1.566-.945.954 0 1.503.54 1.503 1.746v2.952h-1.143v-2.736c0-.522-.099-.918-.63-.918-.585 0-.972.468-1.107 1.044-.045.18-.054.378-.054.594v2.016h-1.143v-2.736c0-.495-.081-.918-.621-.918-.594 0-.981.468-1.125 1.053-.045.171-.054.378-.054.585v2.016h-1.143v-4.59h1.098z" fill="#fff" opacity=".9"/></g><g stroke="#fff" stroke-dasharray="3.831997" stroke-width="4"><use mask="url(#c)" opacity=".4" xlink:href="#b"/><use mask="url(#e)" opacity=".4" xlink:href="#d"/><use mask="url(#g)" opacity=".4" xlink:href="#f"/><use mask="url(#i)" opacity=".4" xlink:href="#h"/><use mask="url(#k)" opacity=".4" xlink:href="#j"/></g><g transform="translate(0 36)"><rect fill="#313c59" height="104" rx="6" width="83"/><g transform="translate(26 25)"><path d="m0 0h32v32h-32z" fill="#d8d8d8" opacity="0"/><g transform="translate(4 7)"><path d="m0 0h24v24h-24z" fill="url(#a)" opacity="0"/><path d="m6 5h2.5c0-1.66 1.34-3 3-3s3 1.34 3 3h2.5c1.66 0 3 1.34 3 3v11c0 1.66-1.34 3-3 3h-11c-1.66 0-3-1.34-3-3v-11c0-1.66 1.34-3 3-3zm0 1c-1.1 0-2 .9-2 2v11c0 1.1.9 2 2 2h11c1.1 0 2-.9 2-2v-11c0-1.1-.9-2-2-2h-1v3h-9v-3zm2 5.71.71-.71 2.79 2.79 2.79-2.79.71.71-2.79 2.79 2.79 2.79-.71.71-2.79-2.79-2.79 2.79-.71-.71 2.79-2.79zm0-3.71h7v-2h-7zm3.5-5c-1.1 0-2 .9-2 2h4c0-1.1-.9-2-2-2z" fill="#fff"/></g><path d="m3.35799997 47.778c0 1.881 1.35 3.33 3.303 3.33 1.629 0 2.511-1.035 2.511-1.035l-.612-.837s-.747.81-1.854.81c-1.332 0-2.151-1.071-2.151-2.286 0-1.188.792-2.196 2.142-2.196 1.017 0 1.746.675 1.746.675l.558-.864s-.801-.873-2.358-.873c-1.881 0-3.285 1.422-3.285 3.276zm8.23915663-.5181741-.1061566-.1796592v.1218333c0 .171-.018.324-.018.324h.018c.0288936-.0917058.0644505-.1807813.1061566-.2661741zm-.1061566-.1796592.1061566.1796592c.257086-.5263798.7478304-.9128259 1.3518434-.9128259.108 0 .207.018.207.018v1.125s-.117-.018-.27-.018c-.486 0-1.035.279-1.251.963-.072.225-.099.477-.099.747v1.818h-1.143v-4.59h1.098zm2.382 2.5968333c0-1.458 1.971-1.557 2.718-1.557h.153v-.063c0-.603-.378-.81-.882-.81-.657 0-1.26.441-1.26.441l-.432-.819s.711-.567 1.8-.567c1.206 0 1.908.666 1.908 1.827v2.871h-1.053v-.378c0-.18.018-.324.018-.324h-.018c.009 0-.351.81-1.395.81-.819 0-1.557-.513-1.557-1.431zm1.152-.054c0 .306.225.594.693.594.603 0 1.035-.648 1.035-1.206v-.108h-.198c-.585 0-1.53.081-1.53.72zm3.984.81s.639.675 1.782.675c1.089 0 1.755-.612 1.755-1.377 0-1.476-2.232-1.395-2.232-2.043 0-.288.288-.414.585-.414.702 0 1.125.396 1.125.396l.423-.846s-.504-.522-1.539-.522c-.99 0-1.755.495-1.755 1.35 0 1.476 2.232 1.386 2.232 2.07 0 .27-.279.414-.603.414-.747 0-1.251-.504-1.251-.504zm6.1180842-3.5048858-.1900842-.1404466v.0363324c0 .225-.018.387-.018.387h.018c.048308-.0946837.1119663-.190612.1900842-.2828858zm-.1900842-.1404466.1900842.1404466c.2857251-.3375021.7648923-.6261142 1.3939158-.6261142 1.017 0 1.593.531 1.593 1.746v2.952h-1.134v-2.718c0-.558-.144-.936-.729-.936-.603 0-1.071.396-1.242.954-.054.18-.072.378-.072.594v2.106h-1.143v-6.39h1.143zm-23.58034338 10.4721583-.10615667-.1796592v.1218333c0 .171-.018.324-.018.324h.018c.0288936-.0917058.06445048-.1807813.10615667-.2661741zm-.10615667-.1796592.10615667.1796592c.25708596-.5263798.74783031-.9128259 1.35184333-.9128259.108 0 .207.018.207.018v1.125s-.117-.018-.27-.018c-.486 0-1.035.279-1.251.963-.072.225-.099.477-.099.747v1.818h-1.143v-4.59h1.098zm2.44500002 1.6248333c0-1.413.963-2.403 2.331-2.403 1.323 0 2.034.963 2.034 2.178 0 .135-.027.441-.027.441h-3.168c.072.801.693 1.215 1.377 1.215.738 0 1.323-.504 1.323-.504l.441.819s-.702.657-1.845.657c-1.521 0-2.466-1.098-2.466-2.403zm1.206-.567h2.007c-.018-.621-.405-.954-.909-.954-.585 0-.99.36-1.098.954zm4.43400001 4.662v-6.39h1.04400002v.333c0 .171-.018.315-.018.315h.018s.396-.756 1.476-.756c1.242 0 2.034.981 2.034 2.403 0 1.458-.891 2.403-2.097 2.403-.909 0-1.314-.63-1.314-.63h-.018s.018.162.018.396v1.926zm1.10700002-4.068c0 .711.387 1.413 1.143 1.413.63 0 1.152-.513 1.152-1.422 0-.873-.468-1.44-1.143-1.44-.594 0-1.152.432-1.152 1.449zm4.38-.027c0-1.404 1.125-2.403 2.52-2.403 1.404 0 2.529.999 2.529 2.403 0 1.413-1.125 2.403-2.52 2.403-1.404 0-2.529-.99-2.529-2.403zm1.161 0c0 .855.621 1.431 1.368 1.431.738 0 1.359-.576 1.359-1.431 0-.846-.621-1.431-1.359-1.431-.747 0-1.368.585-1.368 1.431zm6.3401567-1.4451741-.1061567-.1796592v.1218333c0 .171-.018.324-.018.324h.018c.0288936-.0917058.0644505-.1807813.1061567-.2661741zm-.1061567-.1796592.1061567.1796592c.2570859-.5263798.7478303-.9128259 1.3518433-.9128259.108 0 .207.018.207.018v1.125s-.117-.018-.27-.018c-.486 0-1.035.279-1.251.963-.072.225-.099.477-.099.747v1.818h-1.143v-4.59h1.098zm2.967 2.2368333c0 1.539 1.269 1.728 1.908 1.728.216 0 .351-.027.351-.027v-.999s-.081.018-.207.018c-.315 0-.909-.108-.909-.864v-1.782h1.044v-.909h-1.044v-1.323h-1.116v1.323h-.621v.909h.594zm3.138 1.116s.639.675 1.782.675c1.089 0 1.755-.612 1.755-1.377 0-1.476-2.232-1.395-2.232-2.043 0-.288.288-.414.585-.414.702 0 1.125.396 1.125.396l.423-.846s-.504-.522-1.539-.522c-.99 0-1.755.495-1.755 1.35 0 1.476 2.232 1.386 2.232 2.07 0 .27-.279.414-.603.414-.747 0-1.251-.504-1.251-.504z" fill="#fff" opacity=".9"/></g></g><g transform="translate(364 263)"><rect fill="#fff" height="104" rx="6" width="83"/><g transform="translate(23 28)"><path d="m3 0h32v32h-32z" fill="#d8d8d8" opacity="0"/><g transform="translate(7 4)"><path d="m0 0h24v24h-24z" fill="url(#a)" opacity="0"/><path d="m5 16c1.66 0 3 1.34 3 3s-1.34 3-3 3-3-1.34-3-3 1.34-3 3-3zm0 1c-1.1 0-2 .9-2 2s .9 2 2 2 2-.9 2-2-.9-2-2-2zm-3-6c6.08 0 11 4.92 11 11h-1c0-5.52-4.48-10-10-10zm0-4c8.28 0 15 6.72 15 15h-1c0-7.73-6.27-14-14-14zm0-4c10.5 0 19 8.5 19 19h-1c0-9.94-8.06-18-18-18z" fill="#7b8397"/></g><path d="m .15249995 54v-6.39h2.061c.693 0 1.008.054 1.287.18.639.288 1.044.9 1.044 1.746 0 .765-.405 1.476-1.08 1.746v.018s.09.09.216.315l1.314 2.385h-1.296l-1.269-2.385h-1.116v2.385zm1.161-3.393h1.044c.621 0 1.008-.369 1.008-1.008 0-.612-.261-.99-1.17-.99h-.882zm4.60500001 2.628s.783.873 2.205.873c1.332 0 2.10600004-.855 2.10600004-1.872 0-2.043-3.00600004-1.764-3.00600004-2.898 0-.45.423-.765.963-.765.801 0 1.413.558 1.413.558l.50400004-.945s-.64800004-.684-1.90800004-.684c-1.224 0-2.142.792-2.142 1.854 0 1.962 3.015 1.764 3.015 2.907 0 .522-.441.774-.927.774-.9 0-1.593-.675-1.593-.675zm5.31600004 0s .783.873 2.205.873c1.332 0 2.106-.855 2.106-1.872 0-2.043-3.006-1.764-3.006-2.898 0-.45.423-.765.963-.765.801 0 1.413.558 1.413.558l.504-.945s-.648-.684-1.908-.684c-1.224 0-2.142.792-2.142 1.854 0 1.962 3.015 1.764 3.015 2.907 0 .522-.441.774-.927.774-.9 0-1.593-.675-1.593-.675zm8.373.765h1.143v-3.609h.981v-.909h-.981v-.18c0-.666.558-.747.882-.747.135 0 .234.018.234.018v-.972s-.153-.027-.387-.027c-.639 0-1.872.198-1.872 1.701v.207h-.567v.909h.567zm2.895-2.295c0-1.413.963-2.403 2.331-2.403 1.323 0 2.034.963 2.034 2.178 0 .135-.027.441-.027.441h-3.168c.072.801.693 1.215 1.377 1.215.738 0 1.323-.504 1.323-.504l.441.819s-.702.657-1.845.657c-1.521 0-2.466-1.098-2.466-2.403zm1.206-.567h2.007c-.018-.621-.405-.954-.909-.954-.585 0-.99.36-1.098.954zm4.11.567c0-1.413.963-2.403 2.331-2.403 1.323 0 2.034.963 2.034 2.178 0 .135-.027.441-.027.441h-3.168c.072.801.693 1.215 1.377 1.215.738 0 1.323-.504 1.323-.504l.441.819s-.702.657-1.845.657c-1.521 0-2.466-1.098-2.466-2.403zm1.206-.567h2.007c-.018-.621-.405-.954-.909-.954-.585 0-.99.36-1.098.954zm4.119.567c0-1.458.864-2.403 2.079-2.403 1.008 0 1.323.585 1.323.585h.018s-.009-.117-.009-.261v-2.016h1.143v6.39h-1.08v-.378c0-.171.018-.297.018-.297h-.018s-.387.783-1.44.783c-1.242 0-2.034-.981-2.034-2.403zm1.152 0c0 .873.468 1.44 1.143 1.44.594 0 1.152-.432 1.152-1.449 0-.711-.378-1.413-1.143-1.413-.63 0-1.152.513-1.152 1.422z" fill="#7b8397" opacity=".9"/></g></g><g transform="translate(97 242)"><path d="m6 0h71c3.3137085 0 6 2.6862915 6 6v92c0 3.313708-2.6862915 6-6 6h-71c-3.3137085 0-6-2.686292-6-6v-92c0-3.3137085 2.6862915-6 6-6z" fill="#00bef7"/><g transform="translate(13 28)"><path d="m13 0h32v32h-32z" fill="#d8d8d8" opacity="0"/><g transform="translate(17 4)"><path d="m0 0h24v24h-24z" fill="url(#a)" opacity="0"/><path d="m12 4.5c0-.28-.22-.5-.5-.5s-.5.22-.5.5v1.53c-2.25.25-4 2.15-4 4.47v5.91l-1.59 1.59h12.18l-1.59-1.59v-5.91c0-2.32-1.75-4.22-4-4.47zm-.5-1.5c.83 0 1.5.67 1.5 1.5v.71c2.31.65 4 2.79 4 5.29v5.5l3 3h-17l3-3v-5.5c0-2.5 1.69-4.64 4-5.29v-.71c0-.83.67-1.5 1.5-1.5zm0 19c-1.21 0-2.22-.86-2.45-2h1.04c.2.58.76 1 1.41 1s1.21-.42 1.41-1h1.04c-.23 1.14-1.24 2-2.45 2z" fill="#fff"/></g><path d="m18.854 48v-6.39h2.466c1.197 0 2.034.837 2.034 2.079s-.837 2.106-2.034 2.106h-1.305v2.205zm1.161-3.213h1.089c.675 0 1.071-.432 1.071-1.098 0-.657-.396-1.08-1.053-1.08h-1.107zm7.4814512 2.6231199.1565488.1403377v-.0724576c0-.18.018-.324.018-.324h-.018c-.0407148.0863154-.0932177.1726308-.1565488.2561199zm.1565488.1403377-.1565488-.1403377c-.2866517.3778917-.7951388.6978801-1.4364512.6978801-.981 0-1.593-.495-1.593-1.746v-2.952h1.143v2.718c0 .558.144.936.711.936.828 0 1.287-.729 1.287-1.548v-2.106h1.143v4.59h-1.098zm2.301-.1174576s.639.675 1.782.675c1.089 0 1.755-.612 1.755-1.377 0-1.476-2.232-1.395-2.232-2.043 0-.288.288-.414.585-.414.702 0 1.125.396 1.125.396l.423-.846s-.504-.522-1.539-.522c-.99 0-1.755.495-1.755 1.35 0 1.476 2.232 1.386 2.232 2.07 0 .27-.279.414-.603.414-.747 0-1.251-.504-1.251-.504zm6.1180842-3.5048858-.1900842-.1404466v.0363324c0 .225-.018.387-.018.387h.018c.048308-.0946837.1119663-.190612.1900842-.2828858zm-.1900842-.1404466.1900842.1404466c.2857251-.3375021.7648923-.6261142 1.3939158-.6261142 1.017 0 1.593.531 1.593 1.746v2.952h-1.134v-2.718c0-.558-.144-.936-.729-.936-.603 0-1.071.396-1.242.954-.054.18-.072.378-.072.594v2.106h-1.143v-6.39h1.143zm-33.69269995 10.2500555-.13455012-.2106651v.113942c0 .171-.018.315-.018.315h.018c.0350467-.0685004.07968047-.1426402.13455012-.2182769zm-.13455012-.2106651.13455012.2106651c.25512217-.3516809.73153218-.7357231 1.49444988-.7357231 1.017 0 1.593.531 1.593 1.746v2.952h-1.134v-2.718c0-.558-.144-.936-.729-.936-.612 0-1.062.387-1.233.936-.063.189-.081.396-.081.612v2.106h-1.143v-4.59h1.098zm4.40700001 1.877942c0-1.404 1.125-2.403 2.52-2.403 1.40399996 0 2.52899996.999 2.52899996 2.403 0 1.413-1.125 2.403-2.51999996 2.403-1.404 0-2.529-.99-2.529-2.403zm1.161 0c0 .855.621 1.431 1.368 1.431.738 0 1.35899996-.576 1.35899996-1.431 0-.846-.62099996-1.431-1.35899996-1.431-.747 0-1.368.585-1.368 1.431zm5.33400006.612c0 1.539 1.269 1.728 1.908 1.728.216 0 .351-.027.351-.027v-.999s-.081.018-.207.018c-.315 0-.909-.108-.909-.864v-1.782h1.044v-.909h-1.044v-1.323h-1.116v1.323h-.621v.909h.594zm3.525-3.69h1.134v-1.017h-1.134zm0 5.373h1.143v-4.59h-1.143zm5.856 0v-3.681h-1.746v3.681h-1.143v-3.681h-.567v-.909h.567v-.135c0-1.503 1.233-1.701 1.872-1.701.234 0 .387.027.387.027v.972s-.099-.018-.234-.018c-.324 0-.882.081-.882.747v.108h2.889v4.59zm0-5.373v-1.017h1.134v1.017zm2.4 3.078c0 1.332.972 2.403 2.493 2.403 1.233 0 1.89-.747 1.89-.747l-.441-.81s-.576.585-1.35.585c-.873 0-1.431-.666-1.431-1.44 0-.783.549-1.422 1.395-1.422.72 0 1.197.495 1.197.495l.504-.783s-.567-.684-1.764-.684c-1.521 0-2.493 1.098-2.493 2.403zm5.181.972c0-1.458 1.971-1.557 2.718-1.557h.153v-.063c0-.603-.378-.81-.882-.81-.657 0-1.26.441-1.26.441l-.432-.819s.711-.567 1.8-.567c1.206 0 1.908.666 1.908 1.827v2.871h-1.053v-.378c0-.18.018-.324.018-.324h-.018c.009 0-.351.81-1.395.81-.819 0-1.557-.513-1.557-1.431zm1.152-.054c0 .306.225.594.693.594.603 0 1.035-.648 1.035-1.206v-.108h-.198c-.585 0-1.53.081-1.53.72zm4.542-.306c0 1.539 1.269 1.728 1.908 1.728.216 0 .351-.027.351-.027v-.999s-.081.018-.207.018c-.315 0-.909-.108-.909-.864v-1.782h1.044v-.909h-1.044v-1.323h-1.116v1.323h-.621v.909h.594zm3.525-3.69h1.134v-1.017h-1.134zm0 5.373h1.143v-4.59h-1.143zm2.391-2.295c0-1.404 1.125-2.403 2.52-2.403 1.404 0 2.529.999 2.529 2.403 0 1.413-1.125 2.403-2.52 2.403-1.404 0-2.529-.99-2.529-2.403zm1.161 0c0 .855.621 1.431 1.368 1.431.738 0 1.359-.576 1.359-1.431 0-.846-.621-1.431-1.359-1.431-.747 0-1.368.585-1.368 1.431zm6.3685502-1.6672769-.1345501-.2106651v.113942c0 .171-.018.315-.018.315h.018c.0350467-.0685004.0796804-.1426402.1345501-.2182769zm-.1345501-.2106651.1345501.2106651c.2551221-.3516809.7315322-.7357231 1.4944499-.7357231 1.017 0 1.593.531 1.593 1.746v2.952h-1.134v-2.718c0-.558-.144-.936-.729-.936-.612 0-1.062.387-1.233.936-.063.189-.081.396-.081.612v2.106h-1.143v-4.59h1.098zm4.362 3.605942s.639.675 1.782.675c1.089 0 1.755-.612 1.755-1.377 0-1.476-2.232-1.395-2.232-2.043 0-.288.288-.414.585-.414.702 0 1.125.396 1.125.396l.423-.846s-.504-.522-1.539-.522c-.99 0-1.755.495-1.755 1.35 0 1.476 2.232 1.386 2.232 2.07 0 .27-.279.414-.603.414-.747 0-1.251-.504-1.251-.504z" fill="#fff" opacity=".9"/></g></g><g transform="translate(237 400)"><path d="m6 0h71c3.3137085 0 6 2.6862915 6 6v92c0 3.313708-2.6862915 6-6 6h-71c-3.3137085 0-6-2.686292-6-6v-92c0-3.3137085 2.6862915-6 6-6z" fill="#41bf56"/><g transform="translate(16 28)"><path d="m10 0h32v32h-32z" fill="#d8d8d8" opacity="0"/><g transform="translate(14 4)"><path d="m0 0h24v24h-24z" fill="url(#a)" opacity="0"/><g fill="#fff"><path d="m15.0833333 9c0-1.93299662-1.5670033-3.5-3.5-3.5-1.93299659 0-3.49999997 1.56700338-3.49999997 3.5 0 1.9329966 1.56700338 3.5 3.49999997 3.5 1.9329967 0 3.5-1.5670034 3.5-3.5zm-7.99999997 0c0-2.48528137 2.01471863-4.5 4.49999997-4.5 2.4852814 0 4.5 2.01471863 4.5 4.5 0 2.4852814-2.0147186 4.5-4.5 4.5-2.48528134 0-4.49999997-2.0147186-4.49999997-4.5z" fill-rule="nonzero"/><path d="m11.0997019 18.2h4.2336314.8056514 1.7154235c.00363.0227601.0071381.0455609.0105235.0684016l-.9315984.9315984c0-1.7541179-.8572507-3.362249-2.2690753-4.3484844-.8822627-.616308-1.9301692-.9515156-3.0309247-.9515156-2.92710914 0-5.29999997 2.3728908-5.29999997 5.3l-.93159839-.9315984c.00338548-.0228407.00689354-.0456415.01052351-.0684016zm-5.76636857 1c0-3.4793939 2.82060608-6.3 6.29999997-6.3 1.3400939 0 2.582462.4184135 3.6035911 1.1317271 1.6301108 1.13872 2.6964089 3.0289728 2.6964089 5.1682729 0 0-1.5377163 0-2.6 0-3.1377163 0-9.99999997 0-9.99999997 0z" fill-rule="nonzero"/><path d="m18.563966 13.4622799-1.3722034-1.3499473c-.1552719-.1527535-.404222-.1531932-.5600326-.0009892l-.0007294.0007126c-.1522613.1487368-.1551184.3927439-.0063816.5450052.0017851.0018273.0035882.0036369.0054093.0054284l1.9339377 1.9025707 4.4739434-4.4013795c.1517242-.1492633.1537191-.39326188.0044558-.54498604-.0014731-.00149737-.0029584-.00298268-.0044558-.00445576-.1549797-.15246607-.4035782-.15252478-.55863-.00013192z"/></g></g><path d="m16.466 45.705c0 1.431 1.035 2.403 2.583 2.403 1.539 0 2.574-.972 2.574-2.403v-4.095h-1.161v4.086c0 .864-.567 1.35-1.422 1.35s-1.413-.486-1.413-1.341v-4.095h-1.161zm6.45 1.728s.639.675 1.782.675c1.089 0 1.755-.612 1.755-1.377 0-1.476-2.232-1.395-2.232-2.043 0-.288.288-.414.585-.414.702 0 1.125.396 1.125.396l.423-.846s-.504-.522-1.539-.522c-.99 0-1.755.495-1.755 1.35 0 1.476 2.232 1.386 2.232 2.07 0 .27-.279.414-.603.414-.747 0-1.251-.504-1.251-.504zm4.461-1.728c0-1.413.963-2.403 2.331-2.403 1.323 0 2.034.963 2.034 2.178 0 .135-.027.441-.027.441h-3.168c.072.801.693 1.215 1.377 1.215.738 0 1.323-.504 1.323-.504l.441.819s-.702.657-1.845.657c-1.521 0-2.466-1.098-2.466-2.403zm1.206-.567h2.007c-.018-.621-.405-.954-.909-.954-.585 0-.99.36-1.098.954zm5.6381567-.8781741-.1061567-.1796592v.1218333c0 .171-.018.324-.018.324h.018c.0288936-.0917058.0644505-.1807813.1061567-.2661741zm-.1061567-.1796592.1061567.1796592c.2570859-.5263798.7478303-.9128259 1.3518433-.9128259.108 0 .207.018.207.018v1.125s-.117-.018-.27-.018c-.486 0-1.035.279-1.251.963-.072.225-.099.477-.099.747v1.818h-1.143v-4.59h1.098zm-32.13750007 13.9198333h1.35l1.647-4.59h-1.206l-.954 2.844c-.09.27-.153.693-.162.693h-.018c-.009 0-.072-.423-.162-.693l-.954-2.844h-1.206zm3.64200001-2.295c0-1.413.963-2.403 2.331-2.403 1.323 0 2.034.963 2.034 2.178 0 .135-.027.441-.027.441h-3.168c.072.801.693 1.215 1.377 1.215.738 0 1.323-.504 1.323-.504l.441.819s-.702.657-1.845.657c-1.521 0-2.466-1.098-2.466-2.403zm1.206-.567h2.007c-.018-.621-.405-.954-.909-.954-.585 0-.99.36-1.098.954zm5.63815666-.8781741-.1061566-.1796592v.1218333c0 .171-.018.324-.018.324h.018c.0288936-.0917058.0644504-.1807813.1061566-.2661741zm-.1061566-.1796592.1061566.1796592c.257086-.5263798.7478303-.9128259 1.3518434-.9128259.108 0 .207.018.207.018v1.125s-.117-.018-.27-.018c-.486 0-1.035.279-1.251.963-.072.225-.099.477-.099.747v1.818h-1.143v-4.59h1.098zm2.769-1.4531667h1.134v-1.017h-1.134zm0 5.373h1.143v-4.59h-1.143zm5.856 0v-3.681h-1.746v3.681h-1.143v-3.681h-.567v-.909h.567v-.135c0-1.503 1.233-1.701 1.872-1.701.234 0 .387.027.387.027v.972s-.099-.018-.234-.018c-.324 0-.882.081-.882.747v.108h2.889v4.59zm0-5.373v-1.017h1.134v1.017zm2.4 3.078c0 1.332.972 2.403 2.493 2.403 1.233 0 1.89-.747 1.89-.747l-.441-.81s-.576.585-1.35.585c-.873 0-1.431-.666-1.431-1.44 0-.783.549-1.422 1.395-1.422.72 0 1.197.495 1.197.495l.504-.783s-.567-.684-1.764-.684c-1.521 0-2.493 1.098-2.493 2.403zm5.181.972c0-1.458 1.971-1.557 2.718-1.557h.153v-.063c0-.603-.378-.81-.882-.81-.657 0-1.26.441-1.26.441l-.432-.819s.711-.567 1.8-.567c1.206 0 1.908.666 1.908 1.827v2.871h-1.053v-.378c0-.18.018-.324.018-.324h-.018c.009 0-.351.81-1.395.81-.819 0-1.557-.513-1.557-1.431zm1.152-.054c0 .306.225.594.693.594.603 0 1.035-.648 1.035-1.206v-.108h-.198c-.585 0-1.53.081-1.53.72zm4.542-.306c0 1.539 1.269 1.728 1.908 1.728.216 0 .351-.027.351-.027v-.999s-.081.018-.207.018c-.315 0-.909-.108-.909-.864v-1.782h1.044v-.909h-1.044v-1.323h-1.116v1.323h-.621v.909h.594zm3.525-3.69h1.134v-1.017h-1.134zm0 5.373h1.143v-4.59h-1.143zm2.391-2.295c0-1.404 1.125-2.403 2.52-2.403 1.404 0 2.529.999 2.529 2.403 0 1.413-1.125 2.403-2.52 2.403-1.404 0-2.529-.99-2.529-2.403zm1.161 0c0 .855.621 1.431 1.368 1.431.738 0 1.359-.576 1.359-1.431 0-.846-.621-1.431-1.359-1.431-.747 0-1.368.585-1.368 1.431zm6.3685502-1.6672769-.1345501-.2106651v.113942c0 .171-.018.315-.018.315h.018c.0350467-.0685004.0796804-.1426402.1345501-.2182769zm-.1345501-.2106651.1345501.2106651c.2551221-.3516809.7315322-.7357231 1.4944499-.7357231 1.017 0 1.593.531 1.593 1.746v2.952h-1.134v-2.718c0-.558-.144-.936-.729-.936-.612 0-1.062.387-1.233.936-.063.189-.081.396-.081.612v2.106h-1.143v-4.59h1.098z" fill="#fff" opacity=".9"/></g></g><g transform="translate(276 118)"><rect fill="#f5a623" height="104" rx="6" width="83"/><g transform="translate(21 28)"><path d="m5 0h32v32h-32z" fill="#d8d8d8" opacity="0"/><g transform="translate(9 4)"><path d="m0 0h24v24h-24z" fill="url(#a)" opacity="0"/><path d="m3 4h1v14l5.58-9.67 6.01 3.47 3.62-6.26.86.5-4.11 7.13-6.01-3.47-5.95 10.3h16v1h-17z" fill="#fff"/></g><path d="m5.00699994 54-.54-1.638h-2.241l-.54 1.638h-1.197l2.25-6.39h1.215l2.25 6.39zm-1.647-5.283h-.018s-.144.63-.27.99l-.567 1.71h1.674l-.567-1.71c-.117-.36-.252-.99-.252-.99zm5.04555014 1.3207231-.13455013-.2106651v.113942c0 .171-.018.315-.018.315h.018c.03504671-.0685004.07968047-.1426402.13455013-.2182769zm-.13455013-.2106651.13455013.2106651c.25512216-.3516809.73153218-.7357231 1.49444987-.7357231 1.01700005 0 1.59300005.531 1.59300005 1.746v2.952h-1.134v-2.718c0-.558-.144-.936-.72900005-.936-.612 0-1.062.387-1.233.936-.063.189-.081.396-.081.612v2.106h-1.143v-4.59h1.098zm4.36200005 2.849942c0-1.458 1.971-1.557 2.718-1.557h.153v-.063c0-.603-.378-.81-.882-.81-.657 0-1.26.441-1.26.441l-.432-.819s.711-.567 1.8-.567c1.206 0 1.908.666 1.908 1.827v2.871h-1.053v-.378c0-.18.018-.324.018-.324h-.018c.009 0-.351.81-1.395.81-.819 0-1.557-.513-1.557-1.431zm1.152-.054c0 .306.225.594.693.594.603 0 1.035-.648 1.035-1.206v-.108h-.198c-.585 0-1.53.081-1.53.72zm4.308-.054c0 1.314.783 1.476 1.413 1.476.189 0 .36-.027.36-.027v-.999s-.081.009-.171.009c-.297 0-.468-.126-.468-.63v-4.788h-1.134zm2.328 3.024s.405.297.954.297c.693 0 1.332-.36 1.656-1.197l2.052-5.283h-1.251l-.9 2.664c-.081.243-.153.603-.153.603h-.018s-.081-.378-.171-.621l-.963-2.646h-1.287l1.935 4.518-.171.405c-.171.405-.477.594-.792.594-.261 0-.513-.189-.513-.189zm5.838-3.276c0 1.539 1.269 1.728 1.908 1.728.216 0 .351-.027.351-.027v-.999s-.081.018-.207.018c-.315 0-.909-.108-.909-.864v-1.782h1.044v-.909h-1.044v-1.323h-1.116v1.323h-.621v.909h.594zm3.525-3.69h1.134v-1.017h-1.134zm0 5.373h1.143v-4.59h-1.143zm2.4-2.295c0 1.332.972 2.403 2.493 2.403 1.233 0 1.89-.747 1.89-.747l-.441-.81s-.576.585-1.35.585c-.873 0-1.431-.666-1.431-1.44 0-.783.549-1.422 1.395-1.422.72 0 1.197.495 1.197.495l.504-.783s-.567-.684-1.764-.684c-1.521 0-2.493 1.098-2.493 2.403zm5.181 1.728s.639.675 1.782.675c1.089 0 1.755-.612 1.755-1.377 0-1.476-2.232-1.395-2.232-2.043 0-.288.288-.414.585-.414.702 0 1.125.396 1.125.396l.423-.846s-.504-.522-1.539-.522c-.99 0-1.755.495-1.755 1.35 0 1.476 2.232 1.386 2.232 2.07 0 .27-.279.414-.603.414-.747 0-1.251-.504-1.251-.504z" fill="#fff" opacity=".9"/></g></g></g></svg>