<?xml version="1.0" encoding="UTF-8"?>
<svg width="447px" height="504px" viewBox="0 0 447 504" version="1.1" xmlns="http://www.w3.org/2000/svg" xmlns:xlink="http://www.w3.org/1999/xlink">
    <!-- Generator: sketchtool 46.2 (44496) - http://www.bohemiancoding.com/sketch -->
    <title>60A98C3B-DA24-4491-B2DD-065E8CEECBAE</title>
    <desc>Created with sketchtool.</desc>
    <defs>
        <linearGradient x1="50%" y1="0%" x2="50%" y2="98.7424267%" id="linearGradient-1">
            <stop stop-color="#D0021B" stop-opacity="0.100000001" offset="0%"></stop>
            <stop stop-color="#D1021A" stop-opacity="0.2" offset="100%"></stop>
        </linearGradient>
        <rect id="path-2" x="230" y="72" width="83" height="104" rx="6"></rect>
        <mask id="mask-3" maskContentUnits="userSpaceOnUse" maskUnits="objectBoundingBox" x="0" y="0" width="83" height="104" fill="white">
            <use xlink:href="#path-2"></use>
        </mask>
        <rect id="path-4" x="135" y="188" width="83" height="104" rx="6"></rect>
        <mask id="mask-5" maskContentUnits="userSpaceOnUse" maskUnits="objectBoundingBox" x="0" y="0" width="83" height="104" fill="white">
            <use xlink:href="#path-4"></use>
        </mask>
        <rect id="path-6" x="230" y="188" width="83" height="104" rx="6"></rect>
        <mask id="mask-7" maskContentUnits="userSpaceOnUse" maskUnits="objectBoundingBox" x="0" y="0" width="83" height="104" fill="white">
            <use xlink:href="#path-6"></use>
        </mask>
        <rect id="path-8" x="135" y="304" width="83" height="104" rx="6"></rect>
        <mask id="mask-9" maskContentUnits="userSpaceOnUse" maskUnits="objectBoundingBox" x="0" y="0" width="83" height="104" fill="white">
            <use xlink:href="#path-8"></use>
        </mask>
        <rect id="path-10" x="230" y="304" width="83" height="104" rx="6"></rect>
        <mask id="mask-11" maskContentUnits="userSpaceOnUse" maskUnits="objectBoundingBox" x="0" y="0" width="83" height="104" fill="white">
            <use xlink:href="#path-10"></use>
        </mask>
    </defs>
    <g id="----A1.12-SE-Web---Developers" stroke="none" stroke-width="1" fill="none" fill-rule="evenodd">
        <g id="A1.12-SE-Web---Developers-v16.5" transform="translate(-858.000000, -128.000000)">
            <g id="header-phone-extensions" transform="translate(858.000000, 128.000000)">
                <path d="M139,0 L308,0 L308,-3.55271368e-15 C325.673112,8.897665e-15 340,14.326888 340,32 L340,450 L340,450 C340,467.673112 325.673112,482 308,482 L139,482 C121.326888,482 107,467.673112 107,450 L107,32 L107,32 C107,14.326888 121.326888,-3.06215674e-16 139,-3.55271368e-15 L139,0 Z M151.335294,56.7873563 L151.335294,56.7873563 C133.662182,56.7873563 119.335294,71.1142443 119.335294,88.7873563 L119.335294,394.597701 C119.335294,412.270813 133.662182,426.597701 151.335294,426.597701 L151.335294,426.597701 L295.664706,426.597701 C313.337818,426.597701 327.664706,412.270813 327.664706,394.597701 L327.664706,88.7873563 C327.664706,71.1142443 313.337818,56.7873563 295.664706,56.7873563 L151.335294,56.7873563 Z" id="Rectangle-996" fill="#F2F2F5"></path>
                <path d="M125,54 L323,54 L323,54 C326.313708,54 329,56.6862915 329,60 L329,421 L329,421 C329,424.313708 326.313708,427 323,427 L125,427 L125,427 C121.686292,427 119,424.313708 119,421 L119,60 L119,60 C119,56.6862915 121.686292,54 125,54 Z" id="Mask" fill="#444F6C"></path>
                <rect id="Rectangle-36-Copy-4" stroke="#FFFFFF" stroke-width="2" opacity="0.4" x="136" y="73" width="81" height="102" rx="6"></rect>
                <g id="Group-89" transform="translate(148.000000, 100.000000)">
                    <rect id="Rectangle-26" fill="#D8D8D8" opacity="0" x="13" y="0" width="32" height="32"></rect>
                    <g id="ic_unfold_more_vertical" transform="translate(17.000000, 4.000000)">
                        <polygon id="Bounds" fill="url(#linearGradient-1)" opacity="0" points="0 0 24 0 24 24 0 24"></polygon>
                        <path d="M15.17,16.74 L14.46,16.04 L18,12.5 L14.46,8.96 L15.17,8.26 L19.41,12.5 L15.17,16.74 L15.17,16.74 Z M7.83,16.74 L3.59,12.5 L7.83,8.26 L8.54,8.96 L5,12.5 L8.54,16.04 L7.83,16.74 L7.83,16.74 Z" id="Icon-Shape" fill="#FFFFFF"></path>
                    </g>
                    <path d="M16.967,52.236 C16.967,52.236 16.9669994,52.2360006 16.9669984,52.2360017 L16.967,52.236 Z M16.967,52.236 L17.579,53.073 C17.579,53.073 16.697,54.108 15.068,54.108 C13.115,54.108 11.765,52.659 11.765,50.778 C11.765,48.924 13.169,47.502 15.05,47.502 C16.607,47.502 17.408,48.375 17.408,48.375 L16.85,49.239 C16.85,49.239 16.121,48.564 15.104,48.564 C13.754,48.564 12.962,49.572 12.962,50.76 C12.962,51.975 13.781,53.046 15.113,53.046 C16.219077,53.046 16.9657541,52.2373501 16.9669984,52.2360017 L16.967,52.236 Z M21.7664512,53.4101199 L21.923,53.5504576 L21.923,53.478 C21.923,53.298 21.941,53.154 21.941,53.154 L21.923,53.154 C21.8822852,53.2403154 21.8297823,53.3266308 21.7664512,53.4101199 Z M21.923,53.5504576 L21.7664512,53.4101199 C21.4797995,53.7880116 20.9713124,54.108 20.33,54.108 C19.349,54.108 18.737,53.613 18.737,52.362 L18.737,49.41 L19.88,49.41 L19.88,52.128 C19.88,52.686 20.024,53.064 20.591,53.064 C21.419,53.064 21.878,52.335 21.878,51.516 L21.878,49.41 L23.021,49.41 L23.021,54 L21.923,54 L21.923,53.5504576 Z M24.224,53.433 C24.224,53.433 24.863,54.108 26.006,54.108 C27.095,54.108 27.761,53.496 27.761,52.731 C27.761,51.255 25.529,51.336 25.529,50.688 C25.529,50.4 25.817,50.274 26.114,50.274 C26.816,50.274 27.239,50.67 27.239,50.67 L27.662,49.824 C27.662,49.824 27.158,49.302 26.123,49.302 C25.133,49.302 24.368,49.797 24.368,50.652 C24.368,52.128 26.6,52.038 26.6,52.722 C26.6,52.992 26.321,53.136 25.997,53.136 C25.25,53.136 24.746,52.632 24.746,52.632 L24.224,53.433 Z M29.207,52.317 C29.207,53.856 30.476,54.045 31.115,54.045 C31.331,54.045 31.466,54.018 31.466,54.018 L31.466,53.019 C31.466,53.019 31.385,53.037 31.259,53.037 C30.944,53.037 30.35,52.929 30.35,52.173 L30.35,50.391 L31.394,50.391 L31.394,49.482 L30.35,49.482 L30.35,48.159 L29.234,48.159 L29.234,49.482 L28.613,49.482 L28.613,50.391 L29.207,50.391 L29.207,52.317 Z M32.39,51.705 C32.39,50.301 33.515,49.302 34.91,49.302 C36.314,49.302 37.439,50.301 37.439,51.705 C37.439,53.118 36.314,54.108 34.919,54.108 C33.515,54.108 32.39,53.118 32.39,51.705 Z M33.551,51.705 C33.551,52.56 34.172,53.136 34.919,53.136 C35.657,53.136 36.278,52.56 36.278,51.705 C36.278,50.859 35.657,50.274 34.919,50.274 C34.172,50.274 33.551,50.859 33.551,51.705 Z M39.934082,50.0150641 L39.785,49.8686205 L39.785,49.941 C39.785,50.112 39.767,50.256 39.767,50.256 L39.785,50.256 C39.8248258,50.1763484 39.8748026,50.095005 39.934082,50.0150641 Z M39.785,49.8686205 L39.934082,50.0150641 C40.2097074,49.6433709 40.6864426,49.302 41.279,49.302 C41.981,49.302 42.431,49.626 42.62,50.247 L42.638,50.247 C42.89,49.752 43.484,49.302 44.204,49.302 C45.158,49.302 45.707,49.842 45.707,51.048 L45.707,54 L44.564,54 L44.564,51.264 C44.564,50.742 44.465,50.346 43.934,50.346 C43.349,50.346 42.962,50.814 42.827,51.39 C42.782,51.57 42.773,51.768 42.773,51.984 L42.773,54 L41.63,54 L41.63,51.264 C41.63,50.769 41.549,50.346 41.009,50.346 C40.415,50.346 40.028,50.814 39.884,51.399 C39.839,51.57 39.83,51.777 39.83,51.984 L39.83,54 L38.687,54 L38.687,49.41 L39.785,49.41 L39.785,49.8686205 Z" id="Custom" fill="#FFFFFF" opacity="0.900000036"></path>
                </g>
                <use id="Rectangle-36-Copy-5" stroke="#FFFFFF" mask="url(#mask-3)" stroke-width="4" opacity="0.4" stroke-dasharray="3.831997155671072" xlink:href="#path-2"></use>
                <use id="Rectangle-36-Copy-7" stroke="#FFFFFF" mask="url(#mask-5)" stroke-width="4" opacity="0.4" stroke-dasharray="3.831997155671072" xlink:href="#path-4"></use>
                <use id="Rectangle-36-Copy-6" stroke="#FFFFFF" mask="url(#mask-7)" stroke-width="4" opacity="0.4" stroke-dasharray="3.831997155671072" xlink:href="#path-6"></use>
                <use id="Rectangle-36-Copy-9" stroke="#FFFFFF" mask="url(#mask-9)" stroke-width="4" opacity="0.4" stroke-dasharray="3.831997155671072" xlink:href="#path-8"></use>
                <use id="Rectangle-36-Copy-8" stroke="#FFFFFF" mask="url(#mask-11)" stroke-width="4" opacity="0.4" stroke-dasharray="3.831997155671072" xlink:href="#path-10"></use>
                <g id="Group-35" transform="translate(0.000000, 36.000000)">
                    <rect id="Rectangle-36-Copy-4" fill="#313C59" x="0" y="0" width="83" height="104" rx="6"></rect>
                    <g id="Group-87" transform="translate(13.000000, 25.000000)">
                        <rect id="Rectangle-26" fill="#D8D8D8" opacity="0" x="13" y="0" width="32" height="32"></rect>
                        <g id="ic_clipboard_check" transform="translate(17.000000, 7.000000)">
                            <polygon id="Bounds" fill="url(#linearGradient-1)" opacity="0" points="0 0 24 0 24 24 0 24"></polygon>
                            <path d="M6,5 L8.5,5 C8.5,3.34 9.84,2 11.5,2 C13.16,2 14.5,3.34 14.5,5 L17,5 C18.66,5 20,6.34 20,8 L20,19 C20,20.66 18.66,22 17,22 L6,22 C4.34,22 3,20.66 3,19 L3,8 C3,6.34 4.34,5 6,5 L6,5 Z M6,6 C4.9,6 4,6.9 4,8 L4,19 C4,20.1 4.9,21 6,21 L17,21 C18.1,21 19,20.1 19,19 L19,8 C19,6.9 18.1,6 17,6 L16,6 L16,9 L7,9 L7,6 L6,6 L6,6 Z M8,11.71 L8.71,11 L11.5,13.79 L14.29,11 L15,11.71 L12.21,14.5 L15,17.29 L14.29,18 L11.5,15.21 L8.71,18 L8,17.29 L10.79,14.5 L8,11.71 Z M8,8 L15,8 L15,6 L8,6 L8,8 L8,8 Z M11.5,3 C10.4,3 9.5,3.9 9.5,5 L13.5,5 C13.5,3.9 12.6,3 11.5,3 L11.5,3 Z" id="Icon-Shape" fill="#FFFFFF"></path>
                        </g>
                        <path d="M16.358,47.778 C16.358,49.659 17.708,51.108 19.661,51.108 C21.29,51.108 22.172,50.073 22.172,50.073 L21.56,49.236 C21.56,49.236 20.813,50.046 19.706,50.046 C18.374,50.046 17.555,48.975 17.555,47.76 C17.555,46.572 18.347,45.564 19.697,45.564 C20.714,45.564 21.443,46.239 21.443,46.239 L22.001,45.375 C22.001,45.375 21.2,44.502 19.643,44.502 C17.762,44.502 16.358,45.924 16.358,47.778 Z M24.5971566,47.2598259 L24.491,47.0801667 L24.491,47.202 C24.491,47.373 24.473,47.526 24.473,47.526 L24.491,47.526 C24.5198936,47.4342942 24.5554505,47.3452187 24.5971566,47.2598259 Z M24.491,47.0801667 L24.5971566,47.2598259 C24.8542426,46.7334461 25.344987,46.347 25.949,46.347 C26.057,46.347 26.156,46.365 26.156,46.365 L26.156,47.49 C26.156,47.49 26.039,47.472 25.886,47.472 C25.4,47.472 24.851,47.751 24.635,48.435 C24.563,48.66 24.536,48.912 24.536,49.182 L24.536,51 L23.393,51 L23.393,46.41 L24.491,46.41 L24.491,47.0801667 Z M26.873,49.677 C26.873,48.219 28.844,48.12 29.591,48.12 L29.744,48.12 L29.744,48.057 C29.744,47.454 29.366,47.247 28.862,47.247 C28.205,47.247 27.602,47.688 27.602,47.688 L27.17,46.869 C27.17,46.869 27.881,46.302 28.97,46.302 C30.176,46.302 30.878,46.968 30.878,48.129 L30.878,51 L29.825,51 L29.825,50.622 C29.825,50.442 29.843,50.298 29.843,50.298 L29.825,50.298 C29.834,50.298 29.474,51.108 28.43,51.108 C27.611,51.108 26.873,50.595 26.873,49.677 Z M28.025,49.623 C28.025,49.929 28.25,50.217 28.718,50.217 C29.321,50.217 29.753,49.569 29.753,49.011 L29.753,48.903 L29.555,48.903 C28.97,48.903 28.025,48.984 28.025,49.623 Z M32.009,50.433 C32.009,50.433 32.648,51.108 33.791,51.108 C34.88,51.108 35.546,50.496 35.546,49.731 C35.546,48.255 33.314,48.336 33.314,47.688 C33.314,47.4 33.602,47.274 33.899,47.274 C34.601,47.274 35.024,47.67 35.024,47.67 L35.447,46.824 C35.447,46.824 34.943,46.302 33.908,46.302 C32.918,46.302 32.153,46.797 32.153,47.652 C32.153,49.128 34.385,49.038 34.385,49.722 C34.385,49.992 34.106,50.136 33.782,50.136 C33.035,50.136 32.531,49.632 32.531,49.632 L32.009,50.433 Z M38.1270842,46.9281142 L37.937,46.7876676 L37.937,46.824 C37.937,47.049 37.919,47.211 37.919,47.211 L37.937,47.211 C37.985308,47.1163163 38.0489663,47.020388 38.1270842,46.9281142 Z M37.937,46.7876676 L38.1270842,46.9281142 C38.4128093,46.5906121 38.8919765,46.302 39.521,46.302 C40.538,46.302 41.114,46.833 41.114,48.048 L41.114,51 L39.98,51 L39.98,48.282 C39.98,47.724 39.836,47.346 39.251,47.346 C38.648,47.346 38.18,47.742 38.009,48.3 C37.955,48.48 37.937,48.678 37.937,48.894 L37.937,51 L36.794,51 L36.794,44.61 L37.937,44.61 L37.937,46.7876676 Z M14.3566566,57.2598259 L14.2505,57.0801667 L14.2505,57.202 C14.2505,57.373 14.2325,57.526 14.2325,57.526 L14.2505,57.526 C14.2793936,57.4342942 14.3149504,57.3452187 14.3566566,57.2598259 Z M14.2505,57.0801667 L14.3566566,57.2598259 C14.6137426,56.7334461 15.1044869,56.347 15.7085,56.347 C15.8165,56.347 15.9155,56.365 15.9155,56.365 L15.9155,57.49 C15.9155,57.49 15.7985,57.472 15.6455,57.472 C15.1595,57.472 14.6105,57.751 14.3945,58.435 C14.3225,58.66 14.2955,58.912 14.2955,59.182 L14.2955,61 L13.1525,61 L13.1525,56.41 L14.2505,56.41 L14.2505,57.0801667 Z M16.6955,58.705 C16.6955,57.292 17.6585,56.302 19.0265,56.302 C20.3495,56.302 21.0605,57.265 21.0605,58.48 C21.0605,58.615 21.0335,58.921 21.0335,58.921 L17.8655,58.921 C17.9375,59.722 18.5585,60.136 19.2425,60.136 C19.9805,60.136 20.5655,59.632 20.5655,59.632 L21.0065,60.451 C21.0065,60.451 20.3045,61.108 19.1615,61.108 C17.6405,61.108 16.6955,60.01 16.6955,58.705 Z M17.9015,58.138 L19.9085,58.138 C19.8905,57.517 19.5035,57.184 18.9995,57.184 C18.4145,57.184 18.0095,57.544 17.9015,58.138 Z M22.3355,62.8 L22.3355,56.41 L23.3795,56.41 L23.3795,56.743 C23.3795,56.914 23.3615,57.058 23.3615,57.058 L23.3795,57.058 C23.3795,57.058 23.7755,56.302 24.8555,56.302 C26.0975,56.302 26.8895,57.283 26.8895,58.705 C26.8895,60.163 25.9985,61.108 24.7925,61.108 C23.8835,61.108 23.4785,60.478 23.4785,60.478 L23.4605,60.478 C23.4605,60.478 23.4785,60.64 23.4785,60.874 L23.4785,62.8 L22.3355,62.8 Z M23.4425,58.732 C23.4425,59.443 23.8295,60.145 24.5855,60.145 C25.2155,60.145 25.7375,59.632 25.7375,58.723 C25.7375,57.85 25.2695,57.283 24.5945,57.283 C24.0005,57.283 23.4425,57.715 23.4425,58.732 Z M27.8225,58.705 C27.8225,57.301 28.9475,56.302 30.3425,56.302 C31.7465,56.302 32.8715,57.301 32.8715,58.705 C32.8715,60.118 31.7465,61.108 30.3515,61.108 C28.9475,61.108 27.8225,60.118 27.8225,58.705 Z M28.9835,58.705 C28.9835,59.56 29.6045,60.136 30.3515,60.136 C31.0895,60.136 31.7105,59.56 31.7105,58.705 C31.7105,57.859 31.0895,57.274 30.3515,57.274 C29.6045,57.274 28.9835,57.859 28.9835,58.705 Z M35.3236567,57.2598259 L35.2175,57.0801667 L35.2175,57.202 C35.2175,57.373 35.1995,57.526 35.1995,57.526 L35.2175,57.526 C35.2463936,57.4342942 35.2819505,57.3452187 35.3236567,57.2598259 Z M35.2175,57.0801667 L35.3236567,57.2598259 C35.5807426,56.7334461 36.071487,56.347 36.6755,56.347 C36.7835,56.347 36.8825,56.365 36.8825,56.365 L36.8825,57.49 C36.8825,57.49 36.7655,57.472 36.6125,57.472 C36.1265,57.472 35.5775,57.751 35.3615,58.435 C35.2895,58.66 35.2625,58.912 35.2625,59.182 L35.2625,61 L34.1195,61 L34.1195,56.41 L35.2175,56.41 L35.2175,57.0801667 Z M38.1845,59.317 C38.1845,60.856 39.4535,61.045 40.0925,61.045 C40.3085,61.045 40.4435,61.018 40.4435,61.018 L40.4435,60.019 C40.4435,60.019 40.3625,60.037 40.2365,60.037 C39.9215,60.037 39.3275,59.929 39.3275,59.173 L39.3275,57.391 L40.3715,57.391 L40.3715,56.482 L39.3275,56.482 L39.3275,55.159 L38.2115,55.159 L38.2115,56.482 L37.5905,56.482 L37.5905,57.391 L38.1845,57.391 L38.1845,59.317 Z M41.3225,60.433 C41.3225,60.433 41.9615,61.108 43.1045,61.108 C44.1935,61.108 44.8595,60.496 44.8595,59.731 C44.8595,58.255 42.6275,58.336 42.6275,57.688 C42.6275,57.4 42.9155,57.274 43.2125,57.274 C43.9145,57.274 44.3375,57.67 44.3375,57.67 L44.7605,56.824 C44.7605,56.824 44.2565,56.302 43.2215,56.302 C42.2315,56.302 41.4665,56.797 41.4665,57.652 C41.4665,59.128 43.6985,59.038 43.6985,59.722 C43.6985,59.992 43.4195,60.136 43.0955,60.136 C42.3485,60.136 41.8445,59.632 41.8445,59.632 L41.3225,60.433 Z" id="Crash-reports" fill="#FFFFFF" opacity="0.900000036"></path>
                    </g>
                </g>
                <g id="Group-38" transform="translate(364.000000, 263.000000)">
                    <rect id="Rectangle-36-Copy-4" fill="#FFFFFF" x="0" y="0" width="83" height="104" rx="6"></rect>
                    <g id="Group-88" transform="translate(13.000000, 28.000000)">
                        <rect id="Rectangle-26" fill="#D8D8D8" opacity="0" x="13" y="0" width="32" height="32"></rect>
                        <g id="ic_rss" transform="translate(17.000000, 4.000000)">
                            <polygon id="Bounds" fill="url(#linearGradient-1)" opacity="0" points="0 0 24 0 24 24 0 24"></polygon>
                            <path d="M5,16 C6.66,16 8,17.34 8,19 C8,20.66 6.66,22 5,22 C3.34,22 2,20.66 2,19 C2,17.34 3.34,16 5,16 L5,16 Z M5,17 C3.9,17 3,17.9 3,19 C3,20.1 3.9,21 5,21 C6.1,21 7,20.1 7,19 C7,17.9 6.1,17 5,17 L5,17 Z M2,11 C8.08,11 13,15.92 13,22 L12,22 C12,16.48 7.52,12 2,12 L2,11 L2,11 Z M2,7 C10.28,7 17,13.72 17,22 L16,22 C16,14.27 9.73,8 2,8 L2,7 L2,7 Z M2,3 C12.5,3 21,11.5 21,22 L20,22 C20,12.06 11.94,4 2,4 L2,3 L2,3 Z" id="Icon-Shape" fill="#7B8397"></path>
                        </g>
                        <path d="M10.1524999,54 L10.1524999,47.61 L12.2134999,47.61 C12.9064999,47.61 13.2214999,47.664 13.5004999,47.79 C14.1394999,48.078 14.5444999,48.69 14.5444999,49.536 C14.5444999,50.301 14.1394999,51.012 13.4644999,51.282 L13.4644999,51.3 C13.4644999,51.3 13.5544999,51.39 13.6804999,51.615 L14.9944999,54 L13.6984999,54 L12.4294999,51.615 L11.3134999,51.615 L11.3134999,54 L10.1524999,54 Z M11.3134999,50.607 L12.3574999,50.607 C12.9784999,50.607 13.3654999,50.238 13.3654999,49.599 C13.3654999,48.987 13.1044999,48.609 12.1954999,48.609 L11.3134999,48.609 L11.3134999,50.607 Z M15.9185,53.235 C15.9185,53.235 16.7015,54.108 18.1235,54.108 C19.4555,54.108 20.2295,53.253 20.2295,52.236 C20.2295,50.193 17.2235,50.472 17.2235,49.338 C17.2235,48.888 17.6465,48.573 18.1865,48.573 C18.9875,48.573 19.5995,49.131 19.5995,49.131 L20.1035,48.186 C20.1035,48.186 19.4555,47.502 18.1955,47.502 C16.9715,47.502 16.0535,48.294 16.0535,49.356 C16.0535,51.318 19.0685,51.12 19.0685,52.263 C19.0685,52.785 18.6275,53.037 18.1415,53.037 C17.2415,53.037 16.5485,52.362 16.5485,52.362 L15.9185,53.235 Z M21.2345,53.235 C21.2345,53.235 22.0175,54.108 23.4395,54.108 C24.7715,54.108 25.5455,53.253 25.5455,52.236 C25.5455,50.193 22.5395,50.472 22.5395,49.338 C22.5395,48.888 22.9625,48.573 23.5025,48.573 C24.3035,48.573 24.9155,49.131 24.9155,49.131 L25.4195,48.186 C25.4195,48.186 24.7715,47.502 23.5115,47.502 C22.2875,47.502 21.3695,48.294 21.3695,49.356 C21.3695,51.318 24.3845,51.12 24.3845,52.263 C24.3845,52.785 23.9435,53.037 23.4575,53.037 C22.5575,53.037 21.8645,52.362 21.8645,52.362 L21.2345,53.235 Z M29.6075,54 L30.7505,54 L30.7505,50.391 L31.7315,50.391 L31.7315,49.482 L30.7505,49.482 L30.7505,49.302 C30.7505,48.636 31.3085,48.555 31.6325,48.555 C31.7675,48.555 31.8665,48.573 31.8665,48.573 L31.8665,47.601 C31.8665,47.601 31.7135,47.574 31.4795,47.574 C30.8405,47.574 29.6075,47.772 29.6075,49.275 L29.6075,49.482 L29.0405,49.482 L29.0405,50.391 L29.6075,50.391 L29.6075,54 Z M32.5025,51.705 C32.5025,50.292 33.4655,49.302 34.8335,49.302 C36.1565,49.302 36.8675,50.265 36.8675,51.48 C36.8675,51.615 36.8405,51.921 36.8405,51.921 L33.6725,51.921 C33.7445,52.722 34.3655,53.136 35.0495,53.136 C35.7875,53.136 36.3725,52.632 36.3725,52.632 L36.8135,53.451 C36.8135,53.451 36.1115,54.108 34.9685,54.108 C33.4475,54.108 32.5025,53.01 32.5025,51.705 Z M33.7085,51.138 L35.7155,51.138 C35.6975,50.517 35.3105,50.184 34.8065,50.184 C34.2215,50.184 33.8165,50.544 33.7085,51.138 Z M37.8185,51.705 C37.8185,50.292 38.7815,49.302 40.1495,49.302 C41.4725,49.302 42.1835,50.265 42.1835,51.48 C42.1835,51.615 42.1565,51.921 42.1565,51.921 L38.9885,51.921 C39.0605,52.722 39.6815,53.136 40.3655,53.136 C41.1035,53.136 41.6885,52.632 41.6885,52.632 L42.1295,53.451 C42.1295,53.451 41.4275,54.108 40.2845,54.108 C38.7635,54.108 37.8185,53.01 37.8185,51.705 Z M39.0245,51.138 L41.0315,51.138 C41.0135,50.517 40.6265,50.184 40.1225,50.184 C39.5375,50.184 39.1325,50.544 39.0245,51.138 Z M43.1435,51.705 C43.1435,50.247 44.0075,49.302 45.2225,49.302 C46.2305,49.302 46.5455,49.887 46.5455,49.887 L46.5635,49.887 C46.5635,49.887 46.5545,49.77 46.5545,49.626 L46.5545,47.61 L47.6975,47.61 L47.6975,54 L46.6175,54 L46.6175,53.622 C46.6175,53.451 46.6355,53.325 46.6355,53.325 L46.6175,53.325 C46.6175,53.325 46.2305,54.108 45.1775,54.108 C43.9355,54.108 43.1435,53.127 43.1435,51.705 Z M44.2955,51.705 C44.2955,52.578 44.7635,53.145 45.4385,53.145 C46.0325,53.145 46.5905,52.713 46.5905,51.696 C46.5905,50.985 46.2125,50.283 45.4475,50.283 C44.8175,50.283 44.2955,50.796 44.2955,51.705 Z" id="RSS-feed" fill="#7B8397" opacity="0.900000036"></path>
                    </g>
                </g>
                <g id="Group-30" transform="translate(97.000000, 242.000000)">
                    <path d="M6,0 L77,0 L77,8.8817842e-16 C80.3137085,2.79460044e-16 83,2.6862915 83,6 L83,98 L83,98 C83,101.313708 80.3137085,104 77,104 L6,104 L6,104 C2.6862915,104 4.05812251e-16,101.313708 0,98 L0,6 L0,6 C-4.05812251e-16,2.6862915 2.6862915,1.4968968e-15 6,8.8817842e-16 Z" id="Rectangle-36-Copy-4" fill="#00BEF7"></path>
                    <g id="Group-89" transform="translate(13.000000, 28.000000)">
                        <rect id="Rectangle-26" fill="#D8D8D8" opacity="0" x="13" y="0" width="32" height="32"></rect>
                        <g id="ic_bell" transform="translate(17.000000, 4.000000)">
                            <polygon id="Bounds" fill="url(#linearGradient-1)" opacity="0" points="0 0 24 0 24 24 0 24"></polygon>
                            <path d="M12,4.5 C12,4.22 11.78,4 11.5,4 C11.22,4 11,4.22 11,4.5 L11,6.03 C8.75,6.28 7,8.18 7,10.5 L7,16.41 L5.41,18 L17.59,18 L16,16.41 L16,10.5 C16,8.18 14.25,6.28 12,6.03 L12,4.5 L12,4.5 Z M11.5,3 C12.33,3 13,3.67 13,4.5 L13,5.21 C15.31,5.86 17,8 17,10.5 L17,16 L20,19 L3,19 L6,16 L6,10.5 C6,8 7.69,5.86 10,5.21 L10,4.5 C10,3.67 10.67,3 11.5,3 L11.5,3 Z M11.5,22 C10.29,22 9.28,21.14 9.05,20 L10.09,20 C10.29,20.58 10.85,21 11.5,21 C12.15,21 12.71,20.58 12.91,20 L13.95,20 C13.72,21.14 12.71,22 11.5,22 L11.5,22 Z" id="Icon-Shape" fill="#FFFFFF"></path>
                        </g>
                        <path d="M18.854,48 L18.854,41.61 L21.32,41.61 C22.517,41.61 23.354,42.447 23.354,43.689 C23.354,44.931 22.517,45.795 21.32,45.795 L20.015,45.795 L20.015,48 L18.854,48 Z M20.015,44.787 L21.104,44.787 C21.779,44.787 22.175,44.355 22.175,43.689 C22.175,43.032 21.779,42.609 21.122,42.609 L20.015,42.609 L20.015,44.787 Z M27.4964512,47.4101199 L27.653,47.5504576 L27.653,47.478 C27.653,47.298 27.671,47.154 27.671,47.154 L27.653,47.154 C27.6122852,47.2403154 27.5597823,47.3266308 27.4964512,47.4101199 Z M27.653,47.5504576 L27.4964512,47.4101199 C27.2097995,47.7880116 26.7013124,48.108 26.06,48.108 C25.079,48.108 24.467,47.613 24.467,46.362 L24.467,43.41 L25.61,43.41 L25.61,46.128 C25.61,46.686 25.754,47.064 26.321,47.064 C27.149,47.064 27.608,46.335 27.608,45.516 L27.608,43.41 L28.751,43.41 L28.751,48 L27.653,48 L27.653,47.5504576 Z M29.954,47.433 C29.954,47.433 30.593,48.108 31.736,48.108 C32.825,48.108 33.491,47.496 33.491,46.731 C33.491,45.255 31.259,45.336 31.259,44.688 C31.259,44.4 31.547,44.274 31.844,44.274 C32.546,44.274 32.969,44.67 32.969,44.67 L33.392,43.824 C33.392,43.824 32.888,43.302 31.853,43.302 C30.863,43.302 30.098,43.797 30.098,44.652 C30.098,46.128 32.33,46.038 32.33,46.722 C32.33,46.992 32.051,47.136 31.727,47.136 C30.98,47.136 30.476,46.632 30.476,46.632 L29.954,47.433 Z M36.0720842,43.9281142 L35.882,43.7876676 L35.882,43.824 C35.882,44.049 35.864,44.211 35.864,44.211 L35.882,44.211 C35.930308,44.1163163 35.9939663,44.020388 36.0720842,43.9281142 Z M35.882,43.7876676 L36.0720842,43.9281142 C36.3578093,43.5906121 36.8369765,43.302 37.466,43.302 C38.483,43.302 39.059,43.833 39.059,45.048 L39.059,48 L37.925,48 L37.925,45.282 C37.925,44.724 37.781,44.346 37.196,44.346 C36.593,44.346 36.125,44.742 35.954,45.3 C35.9,45.48 35.882,45.678 35.882,45.894 L35.882,48 L34.739,48 L34.739,41.61 L35.882,41.61 L35.882,43.7876676 Z M2.18930005,54.0377231 L2.05474993,53.827058 L2.05474993,53.941 C2.05474993,54.112 2.03674993,54.256 2.03674993,54.256 L2.05474993,54.256 C2.08979663,54.1874996 2.1344304,54.1133598 2.18930005,54.0377231 Z M2.05474993,53.827058 L2.18930005,54.0377231 C2.44442222,53.6860422 2.92083223,53.302 3.68374993,53.302 C4.70074993,53.302 5.27674993,53.833 5.27674993,55.048 L5.27674993,58 L4.14274993,58 L4.14274993,55.282 C4.14274993,54.724 3.99874993,54.346 3.41374993,54.346 C2.80174993,54.346 2.35174993,54.733 2.18074993,55.282 C2.11774993,55.471 2.09974993,55.678 2.09974993,55.894 L2.09974993,58 L0.956749928,58 L0.956749928,53.41 L2.05474993,53.41 L2.05474993,53.827058 Z M6.46174994,55.705 C6.46174994,54.301 7.58674994,53.302 8.98174994,53.302 C10.3857499,53.302 11.5107499,54.301 11.5107499,55.705 C11.5107499,57.118 10.3857499,58.108 8.99074994,58.108 C7.58674994,58.108 6.46174994,57.118 6.46174994,55.705 Z M7.62274994,55.705 C7.62274994,56.56 8.24374994,57.136 8.99074994,57.136 C9.72874994,57.136 10.3497499,56.56 10.3497499,55.705 C10.3497499,54.859 9.72874994,54.274 8.99074994,54.274 C8.24374994,54.274 7.62274994,54.859 7.62274994,55.705 Z M12.95675,56.317 C12.95675,57.856 14.22575,58.045 14.86475,58.045 C15.08075,58.045 15.21575,58.018 15.21575,58.018 L15.21575,57.019 C15.21575,57.019 15.13475,57.037 15.00875,57.037 C14.69375,57.037 14.09975,56.929 14.09975,56.173 L14.09975,54.391 L15.14375,54.391 L15.14375,53.482 L14.09975,53.482 L14.09975,52.159 L12.98375,52.159 L12.98375,53.482 L12.36275,53.482 L12.36275,54.391 L12.95675,54.391 L12.95675,56.317 Z M16.48175,52.627 L17.61575,52.627 L17.61575,51.61 L16.48175,51.61 L16.48175,52.627 Z M16.48175,58 L17.62475,58 L17.62475,53.41 L16.48175,53.41 L16.48175,58 Z M22.33775,58 L22.33775,54.319 L20.59175,54.319 L20.59175,58 L19.44875,58 L19.44875,54.319 L18.88175,54.319 L18.88175,53.41 L19.44875,53.41 L19.44875,53.275 C19.44875,51.772 20.68175,51.574 21.32075,51.574 C21.55475,51.574 21.70775,51.601 21.70775,51.601 L21.70775,52.573 C21.70775,52.573 21.60875,52.555 21.47375,52.555 C21.14975,52.555 20.59175,52.636 20.59175,53.302 L20.59175,53.41 L23.48075,53.41 L23.48075,58 L22.33775,58 Z M22.33775,52.627 L22.33775,51.61 L23.47175,51.61 L23.47175,52.627 L22.33775,52.627 Z M24.73775,55.705 C24.73775,57.037 25.70975,58.108 27.23075,58.108 C28.46375,58.108 29.12075,57.361 29.12075,57.361 L28.67975,56.551 C28.67975,56.551 28.10375,57.136 27.32975,57.136 C26.45675,57.136 25.89875,56.47 25.89875,55.696 C25.89875,54.913 26.44775,54.274 27.29375,54.274 C28.01375,54.274 28.49075,54.769 28.49075,54.769 L28.99475,53.986 C28.99475,53.986 28.42775,53.302 27.23075,53.302 C25.70975,53.302 24.73775,54.4 24.73775,55.705 Z M29.91875,56.677 C29.91875,55.219 31.88975,55.12 32.63675,55.12 L32.78975,55.12 L32.78975,55.057 C32.78975,54.454 32.41175,54.247 31.90775,54.247 C31.25075,54.247 30.64775,54.688 30.64775,54.688 L30.21575,53.869 C30.21575,53.869 30.92675,53.302 32.01575,53.302 C33.22175,53.302 33.92375,53.968 33.92375,55.129 L33.92375,58 L32.87075,58 L32.87075,57.622 C32.87075,57.442 32.88875,57.298 32.88875,57.298 L32.87075,57.298 C32.87975,57.298 32.51975,58.108 31.47575,58.108 C30.65675,58.108 29.91875,57.595 29.91875,56.677 Z M31.07075,56.623 C31.07075,56.929 31.29575,57.217 31.76375,57.217 C32.36675,57.217 32.79875,56.569 32.79875,56.011 L32.79875,55.903 L32.60075,55.903 C32.01575,55.903 31.07075,55.984 31.07075,56.623 Z M35.61275,56.317 C35.61275,57.856 36.88175,58.045 37.52075,58.045 C37.73675,58.045 37.87175,58.018 37.87175,58.018 L37.87175,57.019 C37.87175,57.019 37.79075,57.037 37.66475,57.037 C37.34975,57.037 36.75575,56.929 36.75575,56.173 L36.75575,54.391 L37.79975,54.391 L37.79975,53.482 L36.75575,53.482 L36.75575,52.159 L35.63975,52.159 L35.63975,53.482 L35.01875,53.482 L35.01875,54.391 L35.61275,54.391 L35.61275,56.317 Z M39.13775,52.627 L40.27175,52.627 L40.27175,51.61 L39.13775,51.61 L39.13775,52.627 Z M39.13775,58 L40.28075,58 L40.28075,53.41 L39.13775,53.41 L39.13775,58 Z M41.52875,55.705 C41.52875,54.301 42.65375,53.302 44.04875,53.302 C45.45275,53.302 46.57775,54.301 46.57775,55.705 C46.57775,57.118 45.45275,58.108 44.05775,58.108 C42.65375,58.108 41.52875,57.118 41.52875,55.705 Z M42.68975,55.705 C42.68975,56.56 43.31075,57.136 44.05775,57.136 C44.79575,57.136 45.41675,56.56 45.41675,55.705 C45.41675,54.859 44.79575,54.274 44.05775,54.274 C43.31075,54.274 42.68975,54.859 42.68975,55.705 Z M49.0583002,54.0377231 L48.9237501,53.827058 L48.9237501,53.941 C48.9237501,54.112 48.9057501,54.256 48.9057501,54.256 L48.9237501,54.256 C48.9587968,54.1874996 49.0034305,54.1133598 49.0583002,54.0377231 Z M48.9237501,53.827058 L49.0583002,54.0377231 C49.3134223,53.6860422 49.7898324,53.302 50.5527501,53.302 C51.5697501,53.302 52.1457501,53.833 52.1457501,55.048 L52.1457501,58 L51.0117501,58 L51.0117501,55.282 C51.0117501,54.724 50.8677501,54.346 50.2827501,54.346 C49.6707501,54.346 49.2207501,54.733 49.0497501,55.282 C48.9867501,55.471 48.9687501,55.678 48.9687501,55.894 L48.9687501,58 L47.8257501,58 L47.8257501,53.41 L48.9237501,53.41 L48.9237501,53.827058 Z M53.2857501,57.433 C53.2857501,57.433 53.9247501,58.108 55.0677501,58.108 C56.1567501,58.108 56.8227501,57.496 56.8227501,56.731 C56.8227501,55.255 54.5907501,55.336 54.5907501,54.688 C54.5907501,54.4 54.8787501,54.274 55.1757501,54.274 C55.8777501,54.274 56.3007501,54.67 56.3007501,54.67 L56.7237501,53.824 C56.7237501,53.824 56.2197501,53.302 55.1847501,53.302 C54.1947501,53.302 53.4297501,53.797 53.4297501,54.652 C53.4297501,56.128 55.6617501,56.038 55.6617501,56.722 C55.6617501,56.992 55.3827501,57.136 55.0587501,57.136 C54.3117501,57.136 53.8077501,56.632 53.8077501,56.632 L53.2857501,57.433 Z" id="Push-notifications" fill="#FFFFFF" opacity="0.900000036"></path>
                    </g>
                </g>
                <g id="Group-39" transform="translate(237.000000, 400.000000)">
                    <path d="M6,0 L77,0 L77,8.8817842e-16 C80.3137085,2.79460044e-16 83,2.6862915 83,6 L83,98 L83,98 C83,101.313708 80.3137085,104 77,104 L6,104 L6,104 C2.6862915,104 1.29399067e-15,101.313708 8.8817842e-16,98 L0,6 L8.8817842e-16,6 C4.82366169e-16,2.6862915 2.6862915,1.4968968e-15 6,8.8817842e-16 Z" id="Rectangle-36-Copy-4" fill="#41BF56"></path>
                    <g id="Group-88" transform="translate(13.000000, 28.000000)">
                        <rect id="Rectangle-26" fill="#D8D8D8" opacity="0" x="13" y="0" width="32" height="32"></rect>
                        <g id="Group-20" transform="translate(17.000000, 4.000000)">
                            <polygon id="Bounds" fill="url(#linearGradient-1)" opacity="0" points="0 0 24 0 24 24 0 24"></polygon>
                            <path d="M15.0833333,9 C15.0833333,7.06700338 13.51633,5.5 11.5833333,5.5 C9.65033671,5.5 8.08333333,7.06700338 8.08333333,9 C8.08333333,10.9329966 9.65033671,12.5 11.5833333,12.5 C13.51633,12.5 15.0833333,10.9329966 15.0833333,9 Z M7.08333333,9 C7.08333333,6.51471863 9.09805196,4.5 11.5833333,4.5 C14.0686147,4.5 16.0833333,6.51471863 16.0833333,9 C16.0833333,11.4852814 14.0686147,13.5 11.5833333,13.5 C9.09805196,13.5 7.08333333,11.4852814 7.08333333,9 Z" id="Oval-12" fill="#FFFFFF" fill-rule="nonzero"></path>
                            <path d="M11.0997019,18.2 C13.4470139,18.2 13.4470139,18.2 15.3333333,18.2 C15.7229008,18.2 15.7229008,18.2 16.1389847,18.2 C17.4010471,18.2 17.4795406,18.2 17.8544082,18.2 C17.8580382,18.2227601 17.8615463,18.2455609 17.8649317,18.2684016 L16.9333333,19.2 C16.9333333,17.4458821 16.0760826,15.837751 14.664258,14.8515156 C13.7819953,14.2352076 12.7340888,13.9 11.6333333,13.9 C8.70622416,13.9 6.33333333,16.2728908 6.33333333,19.2 L5.40173494,18.2684016 C5.40512042,18.2455609 5.40862848,18.2227601 5.41225845,18.2 C6.77641948,18.2 6.85530757,18.2 11.0997019,18.2 Z M5.33333333,19.2 C5.33333333,15.7206061 8.15393941,12.9 11.6333333,12.9 C12.9734272,12.9 14.2157953,13.3184135 15.2369244,14.0317271 C16.8670352,15.1704471 17.9333333,17.0606999 17.9333333,19.2 C17.9333333,19.2 16.395617,19.2 15.3333333,19.2 C12.195617,19.2 5.33333333,19.2 5.33333333,19.2 Z" id="Oval-12" fill="#FFFFFF" fill-rule="nonzero"></path>
                            <path d="M18.563966,13.4622799 L17.1917626,12.1123326 L17.1917626,12.1123326 C17.0364907,11.9595791 16.7875406,11.9591394 16.63173,12.1113434 L16.6310006,12.112056 L16.6310006,12.112056 C16.4787393,12.2607928 16.4758822,12.5047999 16.624619,12.6570612 C16.6264041,12.6588885 16.6282072,12.6606981 16.6300283,12.6624896 L18.563966,14.5650603 L23.0379094,10.1636808 L23.0379094,10.1636808 C23.1896336,10.0144175 23.1916285,9.77041892 23.0423652,9.61869476 C23.0408921,9.61719739 23.0394068,9.61571208 23.0379094,9.614239 L23.0379094,9.614239 L23.0379094,9.614239 C22.8829297,9.46177293 22.6343312,9.46171422 22.4792794,9.61410708 L18.563966,13.4622799 Z" id="Shape" fill="#FFFFFF"></path>
                        </g>
                        <path d="M19.466,45.705 C19.466,47.136 20.501,48.108 22.049,48.108 C23.588,48.108 24.623,47.136 24.623,45.705 L24.623,41.61 L23.462,41.61 L23.462,45.696 C23.462,46.56 22.895,47.046 22.04,47.046 C21.185,47.046 20.627,46.56 20.627,45.705 L20.627,41.61 L19.466,41.61 L19.466,45.705 Z M25.916,47.433 C25.916,47.433 26.555,48.108 27.698,48.108 C28.787,48.108 29.453,47.496 29.453,46.731 C29.453,45.255 27.221,45.336 27.221,44.688 C27.221,44.4 27.509,44.274 27.806,44.274 C28.508,44.274 28.931,44.67 28.931,44.67 L29.354,43.824 C29.354,43.824 28.85,43.302 27.815,43.302 C26.825,43.302 26.06,43.797 26.06,44.652 C26.06,46.128 28.292,46.038 28.292,46.722 C28.292,46.992 28.013,47.136 27.689,47.136 C26.942,47.136 26.438,46.632 26.438,46.632 L25.916,47.433 Z M30.377,45.705 C30.377,44.292 31.34,43.302 32.708,43.302 C34.031,43.302 34.742,44.265 34.742,45.48 C34.742,45.615 34.715,45.921 34.715,45.921 L31.547,45.921 C31.619,46.722 32.24,47.136 32.924,47.136 C33.662,47.136 34.247,46.632 34.247,46.632 L34.688,47.451 C34.688,47.451 33.986,48.108 32.843,48.108 C31.322,48.108 30.377,47.01 30.377,45.705 Z M31.583,45.138 L33.59,45.138 C33.572,44.517 33.185,44.184 32.681,44.184 C32.096,44.184 31.691,44.544 31.583,45.138 Z M37.2211567,44.2598259 L37.115,44.0801667 L37.115,44.202 C37.115,44.373 37.097,44.526 37.097,44.526 L37.115,44.526 C37.1438936,44.4342942 37.1794505,44.3452187 37.2211567,44.2598259 Z M37.115,44.0801667 L37.2211567,44.2598259 C37.4782426,43.7334461 37.968987,43.347 38.573,43.347 C38.681,43.347 38.78,43.365 38.78,43.365 L38.78,44.49 C38.78,44.49 38.663,44.472 38.51,44.472 C38.024,44.472 37.475,44.751 37.259,45.435 C37.187,45.66 37.16,45.912 37.16,46.182 L37.16,48 L36.017,48 L36.017,43.41 L37.115,43.41 L37.115,44.0801667 Z M4.97749993,58 L6.32749993,58 L7.97449993,53.41 L6.76849993,53.41 L5.81449993,56.254 C5.72449993,56.524 5.66149993,56.947 5.65249993,56.947 L5.63449993,56.947 C5.62549993,56.947 5.56249993,56.524 5.47249993,56.254 L4.51849993,53.41 L3.31249993,53.41 L4.97749993,58 Z M8.61949994,55.705 C8.61949994,54.292 9.58249994,53.302 10.9504999,53.302 C12.2734999,53.302 12.9844999,54.265 12.9844999,55.48 C12.9844999,55.615 12.9574999,55.921 12.9574999,55.921 L9.78949994,55.921 C9.86149994,56.722 10.4824999,57.136 11.1664999,57.136 C11.9044999,57.136 12.4894999,56.632 12.4894999,56.632 L12.9304999,57.451 C12.9304999,57.451 12.2284999,58.108 11.0854999,58.108 C9.56449994,58.108 8.61949994,57.01 8.61949994,55.705 Z M9.82549994,55.138 L11.8324999,55.138 C11.8144999,54.517 11.4274999,54.184 10.9234999,54.184 C10.3384999,54.184 9.93349994,54.544 9.82549994,55.138 Z M15.4636566,54.2598259 L15.3575,54.0801667 L15.3575,54.202 C15.3575,54.373 15.3395,54.526 15.3395,54.526 L15.3575,54.526 C15.3863936,54.4342942 15.4219504,54.3452187 15.4636566,54.2598259 Z M15.3575,54.0801667 L15.4636566,54.2598259 C15.7207426,53.7334461 16.2114869,53.347 16.8155,53.347 C16.9235,53.347 17.0225,53.365 17.0225,53.365 L17.0225,54.49 C17.0225,54.49 16.9055,54.472 16.7525,54.472 C16.2665,54.472 15.7175,54.751 15.5015,55.435 C15.4295,55.66 15.4025,55.912 15.4025,56.182 L15.4025,58 L14.2595,58 L14.2595,53.41 L15.3575,53.41 L15.3575,54.0801667 Z M18.1265,52.627 L19.2605,52.627 L19.2605,51.61 L18.1265,51.61 L18.1265,52.627 Z M18.1265,58 L19.2695,58 L19.2695,53.41 L18.1265,53.41 L18.1265,58 Z M23.9825,58 L23.9825,54.319 L22.2365,54.319 L22.2365,58 L21.0935,58 L21.0935,54.319 L20.5265,54.319 L20.5265,53.41 L21.0935,53.41 L21.0935,53.275 C21.0935,51.772 22.3265,51.574 22.9655,51.574 C23.1995,51.574 23.3525,51.601 23.3525,51.601 L23.3525,52.573 C23.3525,52.573 23.2535,52.555 23.1185,52.555 C22.7945,52.555 22.2365,52.636 22.2365,53.302 L22.2365,53.41 L25.1255,53.41 L25.1255,58 L23.9825,58 Z M23.9825,52.627 L23.9825,51.61 L25.1165,51.61 L25.1165,52.627 L23.9825,52.627 Z M26.3825,55.705 C26.3825,57.037 27.3545,58.108 28.8755,58.108 C30.1085,58.108 30.7655,57.361 30.7655,57.361 L30.3245,56.551 C30.3245,56.551 29.7485,57.136 28.9745,57.136 C28.1015,57.136 27.5435,56.47 27.5435,55.696 C27.5435,54.913 28.0925,54.274 28.9385,54.274 C29.6585,54.274 30.1355,54.769 30.1355,54.769 L30.6395,53.986 C30.6395,53.986 30.0725,53.302 28.8755,53.302 C27.3545,53.302 26.3825,54.4 26.3825,55.705 Z M31.5635,56.677 C31.5635,55.219 33.5345,55.12 34.2815,55.12 L34.4345,55.12 L34.4345,55.057 C34.4345,54.454 34.0565,54.247 33.5525,54.247 C32.8955,54.247 32.2925,54.688 32.2925,54.688 L31.8605,53.869 C31.8605,53.869 32.5715,53.302 33.6605,53.302 C34.8665,53.302 35.5685,53.968 35.5685,55.129 L35.5685,58 L34.5155,58 L34.5155,57.622 C34.5155,57.442 34.5335,57.298 34.5335,57.298 L34.5155,57.298 C34.5245,57.298 34.1645,58.108 33.1205,58.108 C32.3015,58.108 31.5635,57.595 31.5635,56.677 Z M32.7155,56.623 C32.7155,56.929 32.9405,57.217 33.4085,57.217 C34.0115,57.217 34.4435,56.569 34.4435,56.011 L34.4435,55.903 L34.2455,55.903 C33.6605,55.903 32.7155,55.984 32.7155,56.623 Z M37.2575,56.317 C37.2575,57.856 38.5265,58.045 39.1655,58.045 C39.3815,58.045 39.5165,58.018 39.5165,58.018 L39.5165,57.019 C39.5165,57.019 39.4355,57.037 39.3095,57.037 C38.9945,57.037 38.4005,56.929 38.4005,56.173 L38.4005,54.391 L39.4445,54.391 L39.4445,53.482 L38.4005,53.482 L38.4005,52.159 L37.2845,52.159 L37.2845,53.482 L36.6635,53.482 L36.6635,54.391 L37.2575,54.391 L37.2575,56.317 Z M40.7825,52.627 L41.9165,52.627 L41.9165,51.61 L40.7825,51.61 L40.7825,52.627 Z M40.7825,58 L41.9255,58 L41.9255,53.41 L40.7825,53.41 L40.7825,58 Z M43.1735,55.705 C43.1735,54.301 44.2985,53.302 45.6935,53.302 C47.0975,53.302 48.2225,54.301 48.2225,55.705 C48.2225,57.118 47.0975,58.108 45.7025,58.108 C44.2985,58.108 43.1735,57.118 43.1735,55.705 Z M44.3345,55.705 C44.3345,56.56 44.9555,57.136 45.7025,57.136 C46.4405,57.136 47.0615,56.56 47.0615,55.705 C47.0615,54.859 46.4405,54.274 45.7025,54.274 C44.9555,54.274 44.3345,54.859 44.3345,55.705 Z M50.7030502,54.0377231 L50.5685001,53.827058 L50.5685001,53.941 C50.5685001,54.112 50.5505001,54.256 50.5505001,54.256 L50.5685001,54.256 C50.6035468,54.1874996 50.6481805,54.1133598 50.7030502,54.0377231 Z M50.5685001,53.827058 L50.7030502,54.0377231 C50.9581723,53.6860422 51.4345824,53.302 52.1975001,53.302 C53.2145001,53.302 53.7905001,53.833 53.7905001,55.048 L53.7905001,58 L52.6565001,58 L52.6565001,55.282 C52.6565001,54.724 52.5125001,54.346 51.9275001,54.346 C51.3155001,54.346 50.8655001,54.733 50.6945001,55.282 C50.6315001,55.471 50.6135001,55.678 50.6135001,55.894 L50.6135001,58 L49.4705001,58 L49.4705001,53.41 L50.5685001,53.41 L50.5685001,53.827058 Z" id="User-verification" fill="#FFFFFF" opacity="0.900000036"></path>
                    </g>
                </g>
                <g id="Group-34" transform="translate(276.000000, 118.000000)">
                    <rect id="Rectangle-36-Copy-4" fill="#F5A623" x="0" y="0" width="83" height="104" rx="6"></rect>
                    <g id="Group-88" transform="translate(13.000000, 28.000000)">
                        <rect id="Rectangle-26" fill="#D8D8D8" opacity="0" x="13" y="0" width="32" height="32"></rect>
                        <g id="ic_chart_line" transform="translate(17.000000, 4.000000)">
                            <polygon id="Bounds" fill="url(#linearGradient-1)" opacity="0" points="0 0 24 0 24 24 0 24"></polygon>
                            <polygon id="Icon-Shape" fill="#FFFFFF" points="3 4 4 4 4 18 9.58 8.33 15.59 11.8 19.21 5.54 20.07 6.04 15.96 13.17 9.95 9.7 4 20 20 20 20 21 3 21"></polygon>
                        </g>
                        <path d="M13.0069999,54 L12.4669999,52.362 L10.2259999,52.362 L9.68599994,54 L8.48899994,54 L10.7389999,47.61 L11.9539999,47.61 L14.2039999,54 L13.0069999,54 Z M11.3599999,48.717 L11.3419999,48.717 C11.3419999,48.717 11.1979999,49.347 11.0719999,49.707 L10.5049999,51.417 L12.1789999,51.417 L11.6119999,49.707 C11.4949999,49.347 11.3599999,48.717 11.3599999,48.717 Z M16.4055501,50.0377231 L16.271,49.827058 L16.271,49.941 C16.271,50.112 16.253,50.256 16.253,50.256 L16.271,50.256 C16.3060467,50.1874996 16.3506804,50.1133598 16.4055501,50.0377231 Z M16.271,49.827058 L16.4055501,50.0377231 C16.6606722,49.6860422 17.1370823,49.302 17.9,49.302 C18.917,49.302 19.493,49.833 19.493,51.048 L19.493,54 L18.359,54 L18.359,51.282 C18.359,50.724 18.215,50.346 17.63,50.346 C17.018,50.346 16.568,50.733 16.397,51.282 C16.334,51.471 16.316,51.678 16.316,51.894 L16.316,54 L15.173,54 L15.173,49.41 L16.271,49.41 L16.271,49.827058 Z M20.633,52.677 C20.633,51.219 22.604,51.12 23.351,51.12 L23.504,51.12 L23.504,51.057 C23.504,50.454 23.126,50.247 22.622,50.247 C21.965,50.247 21.362,50.688 21.362,50.688 L20.93,49.869 C20.93,49.869 21.641,49.302 22.73,49.302 C23.936,49.302 24.638,49.968 24.638,51.129 L24.638,54 L23.585,54 L23.585,53.622 C23.585,53.442 23.603,53.298 23.603,53.298 L23.585,53.298 C23.594,53.298 23.234,54.108 22.19,54.108 C21.371,54.108 20.633,53.595 20.633,52.677 Z M21.785,52.623 C21.785,52.929 22.01,53.217 22.478,53.217 C23.081,53.217 23.513,52.569 23.513,52.011 L23.513,51.903 L23.315,51.903 C22.73,51.903 21.785,51.984 21.785,52.623 Z M26.093,52.569 C26.093,53.883 26.876,54.045 27.506,54.045 C27.695,54.045 27.866,54.018 27.866,54.018 L27.866,53.019 C27.866,53.019 27.785,53.028 27.695,53.028 C27.398,53.028 27.227,52.902 27.227,52.398 L27.227,47.61 L26.093,47.61 L26.093,52.569 Z M28.421,55.593 C28.421,55.593 28.826,55.89 29.375,55.89 C30.068,55.89 30.707,55.53 31.031,54.693 L33.083,49.41 L31.832,49.41 L30.932,52.074 C30.851,52.317 30.779,52.677 30.779,52.677 L30.761,52.677 C30.761,52.677 30.68,52.299 30.59,52.056 L29.627,49.41 L28.34,49.41 L30.275,53.928 L30.104,54.333 C29.933,54.738 29.627,54.927 29.312,54.927 C29.051,54.927 28.799,54.738 28.799,54.738 L28.421,55.593 Z M34.259,52.317 C34.259,53.856 35.528,54.045 36.167,54.045 C36.383,54.045 36.518,54.018 36.518,54.018 L36.518,53.019 C36.518,53.019 36.437,53.037 36.311,53.037 C35.996,53.037 35.402,52.929 35.402,52.173 L35.402,50.391 L36.446,50.391 L36.446,49.482 L35.402,49.482 L35.402,48.159 L34.286,48.159 L34.286,49.482 L33.665,49.482 L33.665,50.391 L34.259,50.391 L34.259,52.317 Z M37.784,48.627 L38.918,48.627 L38.918,47.61 L37.784,47.61 L37.784,48.627 Z M37.784,54 L38.927,54 L38.927,49.41 L37.784,49.41 L37.784,54 Z M40.184,51.705 C40.184,53.037 41.156,54.108 42.677,54.108 C43.91,54.108 44.567,53.361 44.567,53.361 L44.126,52.551 C44.126,52.551 43.55,53.136 42.776,53.136 C41.903,53.136 41.345,52.47 41.345,51.696 C41.345,50.913 41.894,50.274 42.74,50.274 C43.46,50.274 43.937,50.769 43.937,50.769 L44.441,49.986 C44.441,49.986 43.874,49.302 42.677,49.302 C41.156,49.302 40.184,50.4 40.184,51.705 Z M45.365,53.433 C45.365,53.433 46.004,54.108 47.147,54.108 C48.236,54.108 48.902,53.496 48.902,52.731 C48.902,51.255 46.67,51.336 46.67,50.688 C46.67,50.4 46.958,50.274 47.255,50.274 C47.957,50.274 48.38,50.67 48.38,50.67 L48.803,49.824 C48.803,49.824 48.299,49.302 47.264,49.302 C46.274,49.302 45.509,49.797 45.509,50.652 C45.509,52.128 47.741,52.038 47.741,52.722 C47.741,52.992 47.462,53.136 47.138,53.136 C46.391,53.136 45.887,52.632 45.887,52.632 L45.365,53.433 Z" id="Analytics" fill="#FFFFFF" opacity="0.900000036"></path>
                    </g>
                </g>
            </g>
        </g>
    </g>
</svg>