<svg height="35" viewBox="0 0 113 35" width="113" xmlns="http://www.w3.org/2000/svg"><g fill="#fff" fill-rule="evenodd" transform=""><path d="m1.66736808 30.9622108s1.75535393 1.9269839 4.70251609 1.9269839c1.69281853 0 3.16603604-.8531796 3.16603604-2.5280211 0-3.475754-8.49608752-2.6225744-8.49608752-7.8054207 0-2.8439321 2.5392278-4.3927023 5.39258687-4.3927023 3.32310168 0 4.85885454 1.73861 4.85885454 1.73861l-.97148 1.6433237s-1.34814674-1.4542169-3.94990993-1.4542169c-1.59901544 0-3.1354955.6955906-3.1354955 2.4649855 0 3.5080048 8.49608753 2.5595388 8.49608753 7.8054207 0 2.5917897-2.22582369 4.4557379-5.39258688 4.4557379-3.82483913 0-5.83106178-2.3066634-5.83106178-2.3066634z"/><path d="m37.6906628 18.1630506c4.608713 0 8.3390219 3.5395227 8.3390219 8.248136 0 4.8031666-3.7303089 8.4057249-8.3390219 8.4057249s-8.3390219-3.6025583-8.3390219-8.4057249c0-4.7086133 3.7303089-8.248136 8.3390219-8.248136zm0 14.7261441c3.3856371 0 6.1451931-2.7801635 6.1451931-6.4780081 0-3.6025583-2.759556-6.2889014-6.1451931-6.2889014s-6.1444659 2.6863431-6.1444659 6.2889014c0 3.6978446 2.7588288 6.4780081 6.1444659 6.4780081z"/><path d="m47.9115637 18.5427302h2.1320206v9.5432978c0 2.4965032.3766667 4.7086133 3.4176319 4.7086133 3.6052381 0 5.8310618-3.1913609 5.8310618-6.6363302v-7.6155809h2.1312934v15.8952347h-2.068758v-2.3696991c0-.6955906.0625354-1.264377.0625354-1.264377h-.0625354c-.6268083 1.5487702-2.6962935 4.0130227-6.1757336 4.0130227-3.6997683 0-5.2675161-2.0222702-5.2675161-6.1620971z"/><path d="m65.2811326 20.3297164h-2.0687581v-1.8009127h2.1007529v-5.1931079h2.1000258v5.1931079h4.9599292v1.8009127h-4.9599292v8.1044734c0 3.7286294 2.3516216 4.2028624 3.5427027 4.2028624.439202 0 .7213384-.0637685.7213384-.0637685v1.9277168s-.3446718.0637686-.9096718.0637686c-1.8178893 0-5.4863899-.6010372-5.4863899-5.9099547z"/><path d="m79.9849485 18.1630506c4.3578443 0 6.5843951 3.3819337 6.5843951 7.3319207 0 .3789466-.0632625 1.106055-.0632625 1.106055h-12.1013256c.0938031 4.0760583 2.853359 6.2881684 6.1131982 6.2881684 2.8846267 0 4.7970463-1.9269839 4.7970463-1.9269839l.9714801 1.6433236s-2.2883591 2.2113771-5.8310618 2.2113771c-4.7025161 0-8.2452188-3.4127185-8.2452188-8.3104386 0-5.2143641 3.511435-8.3434223 7.774749-8.3434223zm4.4211068 6.6678479c-.1257979-3.3174321-2.1320206-4.8662023-4.4836422-4.8662023-2.6330309 0-4.9213899 1.6748415-5.4238545 4.8662023z"/><path d="m88.7646268 18.5427302h2.1007529v2.3696991c0 .6955906-.0625354 1.264377-.0625354 1.264377h.0625354c.751879-2.1490745 3.2605662-4.0137557 5.7052638-4.0137557 2.9158945 0 4.4203795 1.3589304 4.8908495 3.9822379h.062535c.847137-2.1490745 3.135496-3.9822379 5.800522-3.9822379 3.824112 0 5.235521 2.2443608 5.235521 6.1628301v10.1120842h-2.132021v-9.5748156c0-2.5917896-.533005-4.7408641-3.417632-4.7408641-2.41343 0-4.388385 2.1490745-4.984652 4.4879887-.219601.6948576-.28141 1.4534838-.28141 2.3066635v7.5210275h-2.1320201v-9.5748156c0-2.4019498-.345399-4.7408641-3.3238288-4.7408641-2.5704955 0-4.5141828 2.2443609-5.1722587 4.6770955-.1570656.6640728-.219601 1.3904483-.219601 2.1175567v7.5210275h-2.1320206z"/><path d="m71.7448198 16.3592061c-.5424582 0-1.0594659-.2924559-1.349601-.763757-.2843179-.4603066-.3148584-1.0254281-.0858044-1.5187184l5.4623938-13.120202c.0072716-.01759134.0152703-.03518267.023269-.05204103.2697748-.54972913.8165959-.8905612 1.4252252-.8905612.4232047 0 .821686.16638469 1.1220013.4691022l7.5653282 7.62584255c.3606693.36428718.5271879.88396445.4442922 1.39191417-.0836229.50794971-.4064801.94700001-.863861 1.17495441-.0167246.0080627-.0341764.0161254-.0509009.0234551l-13.0153604 5.506087c-.2159652.1018832-.443565.1539242-.676982.1539242zm5.5540155-14.33620288-5.1191764 12.29707428 12.1994917-5.16085714z"/><path d="m22.2022458 18.1630506c-3.5739704 0-5.6747233 2.4334676-6.2702638 3.9507201h-.0625354s.0625354-.5687864.0625354-1.2958949v-7.48218h-2.1320206v21.1022691h2.1320206v-7.615581c0-.7586262.0625354-1.4857346.2508687-2.1175566.7213385-2.6548252 3.0409653-4.5187735 5.7372587-4.5187735 3.0409652 0 3.4169048 2.2121101 3.4169048 4.7086133v9.5432978h2.1320205v-10.1120842c0-3.9184693-1.3794144-6.1628301-5.2667889-6.1628301"/></g></svg>