<?xml version="1.0" encoding="UTF-8"?>
<svg width="48px" height="48px" viewBox="0 0 48 48" version="1.1" xmlns="http://www.w3.org/2000/svg" xmlns:xlink="http://www.w3.org/1999/xlink">
    <!-- Generator: Sketch 45.1 (43504) - http://www.bohemiancoding.com/sketch -->
    <title>instagram</title>
    <desc>Created with Sketch.</desc>
    <defs></defs>
    <g id="A1.01.3-SE-Web---Home-(short)" stroke="none" stroke-width="1" fill="none" fill-rule="evenodd">
        <g id="instagram">
            <rect id="bounds" fill-opacity="0" fill="#D8D8D8" x="0" y="0" width="48" height="48"></rect>
            <path d="M17.5,12.5 C14.1862915,12.5 11.5,15.1862915 11.5,18.5 L11.5,30.5 C11.5,33.8137085 14.1862915,36.5 17.5,36.5 L29.5,36.5 C32.8137085,36.5 35.5,33.8137085 35.5,30.5 L35.5,18.5 C35.5,15.1862915 32.8137085,12.5 29.5,12.5 L17.5,12.5 Z M17.5,11 L29.5,11 C33.6421356,11 37,14.3578644 37,18.5 L37,30.5 C37,34.6421356 33.6421356,38 29.5,38 L17.5,38 C13.3578644,38 10,34.6421356 10,30.5 L10,18.5 C10,14.3578644 13.3578644,11 17.5,11 Z M23.5,30.5 C20.1862915,30.5 17.5,27.8137085 17.5,24.5 C17.5,21.1862915 20.1862915,18.5 23.5,18.5 C26.8137085,18.5 29.5,21.1862915 29.5,24.5 C29.5,27.8137085 26.8137085,30.5 23.5,30.5 Z M23.5,29 C25.9852814,29 28,26.9852814 28,24.5 C28,22.0147186 25.9852814,20 23.5,20 C21.0147186,20 19,22.0147186 19,24.5 C19,26.9852814 21.0147186,29 23.5,29 Z M30.25,19.25 C29.4215729,19.25 28.75,18.5784271 28.75,17.75 C28.75,16.9215729 29.4215729,16.25 30.25,16.25 C31.0784271,16.25 31.75,16.9215729 31.75,17.75 C31.75,18.5784271 31.0784271,19.25 30.25,19.25 Z" id="Combined-Shape" fill="#7B8397" fill-rule="nonzero"></path>
        </g>
    </g>
</svg>