<svg height="34" viewBox="0 0 214 34" width="214" xmlns="http://www.w3.org/2000/svg"><g fill="none" fill-rule="evenodd" transform=""><text fill="#8f95a7" font-family="MuseoSans-500, Museo Sans" font-size="16"><tspan x="108" y="29.299999">for developers</tspan></text><g opacity=".9"><g fill="#1a1919"><path d="m1.43497419 26.5163383s1.51069678 1.6502877 4.04709033 1.6502877c1.45687742 0 2.72476129-.7306713 2.72476129-2.1650218 0-2.9766696-7.31192258-2.2459983-7.31192258-6.6846382 0-2.4355711 2.18531612-3.7619529 4.64098064-3.7619529 2.85993548 0 4.18163871 1.4889625 4.18163871 1.4889625l-.83607742 1.4073583s-1.16024516-1.2454054-3.39938064-1.2454054c-1.37614839 0-2.69847742.5957106-2.69847742 2.1110375 0 3.0042894 7.3119226 2.1920139 7.3119226 6.6846382 0 2.2196338-1.91559357 3.8159372-4.64098067 3.8159372-3.29174193 0-5.01834193-1.975449-5.01834193-1.975449z"/><path d="m32.4374258 15.5550131c3.9663613 0 7.1767484 3.0312816 7.1767484 7.0637838 0 4.1134786-3.2103871 7.1987445-7.1767484 7.1987445s-7.1767484-3.0852659-7.1767484-7.1987445c0-4.0325022 3.2103871-7.0637838 7.1767484-7.0637838zm0 12.6116129c2.9137548 0 5.2886903-2.380959 5.2886903-5.5478291 0-3.0852659-2.3749355-5.3858762-5.2886903-5.3858762s-5.2880645 2.3006103-5.2880645 5.3858762c0 3.1668701 2.3743097 5.5478291 5.2880645 5.5478291z"/><path d="m41.2337613 15.8801744h1.8348645v8.1729729c0 2.1380297.3241677 4.0325022 2.9412903 4.0325022 3.1027484 0 5.018342-2.7331124 5.018342-5.6834176v-6.5220575h1.8342387v13.6128334h-1.7804194v-2.0294333c0-.5957105.0538194-1.0828247.0538194-1.0828247h-.0538194c-.5394451 1.3263818-2.3204903 3.4367916-5.3149742 3.4367916-3.1841032 0-4.5333419-1.7318919-4.5333419-5.2772798z"/><path d="m56.1824 17.4105667h-1.7804194v-1.5423191h1.8079549v-4.4474281h1.807329v4.4474281h4.2686258v1.5423191h-4.2686258v6.9407498c0 3.1932345 2.0238581 3.5993723 3.048929 3.5993723.3779871 0 .6208-.0546121.6208-.0546121v1.6509155s-.2966322.054612-.7828838.054612c-1.5645162 0-4.7217097-.5147341-4.7217097-5.0613426z"/><path d="m68.8368323 15.5550131c3.750458 0 5.6666774 2.8963208 5.6666774 6.2791281 0 .3245336-.0544452.9472363-.0544452.9472363h-10.414671c.0807291 3.4907759 2.4556646 5.3852485 5.2611549 5.3852485 2.4825742 0 4.1284451-1.6502877 4.1284451-1.6502877l.8360775 1.4073583s-1.9694129 1.8938448-5.018342 1.8938448c-4.0470903 0-7.0960193-2.9226853-7.0960193-7.1171404 0-4.465632 3.0220193-7.1453879 6.6911226-7.1453879zm3.8049032 5.7104097c-.1082645-2.841081-1.8348645-4.1674629-3.8587226-4.1674629-2.2660452 0-4.2354581 1.4343505-4.6678903 4.1674629z"/><path d="m76.3928194 15.8801744h1.8079548v2.0294333c0 .5957105-.0538194 1.0828247-.0538194 1.0828247h.0538194c.6470839-1.8404882 2.8061161-3.4374193 4.9100774-3.4374193 2.5094839 0 3.8042774 1.1638012 4.2091742 3.4104272h.0538194c.7290645-1.8404883 2.6984774-3.4104272 4.992058-3.4104272 3.2911162 0 4.5058065 1.9220924 4.5058065 5.2779076v8.6600871h-1.8348645v-8.1999651c0-2.2196338-.4587162-4.060122-2.9412904-4.060122-2.0770516 0-3.7767419 1.8404882-4.2899032 3.8435571-.1889935.5950828-.2421871 1.2447776-.2421871 1.975449v6.441081h-1.8348645v-8.1999651c0-2.0570532-.2972581-4.060122-2.8605613-4.060122-2.2122258 0-3.8850064 1.9220924-4.4513613 4.00551-.1351742.5687184-.1889935 1.1907934-.1889935 1.8134961v6.441081h-1.8348645z"/></g><path d="m61.7451935 14.0101831c-.4668516 0-.9118-.2504621-1.1614967-.6540889-.2446903-.394211-.2709742-.8781866-.0738452-1.3006452l4.7010581-11.23626853c.006258-.01506539.0131419-.03013077.0200258-.04456844.2321742-.47079337.7027806-.76268526 1.2265806-.76268526.3642194 0 .7071613.14249346.9656194.40174368l6.5108903 6.53084568c.3104.31197907.4537097.75703574.3823677 1.19204882-.0719677.43501308-.3498258.81102005-.743458 1.00624237-.0143936.00690497-.0294129.01380994-.0438065.02008719l-11.2013096 4.71546639c-.1858646.0872537-.381742.1318222-.5826259.1318222zm4.7799097-12.27766348-4.4056774 10.53133388 10.4991548-4.41980816z" fill="#23a0cc"/><path d="m19.1077484 15.5550131c-3.0758387 0-4.8837936 2.0840453-5.396329 3.383435h-.0538194s.0538194-.4871142.0538194-1.1098169v-6.4078117h-1.8348646v18.0721883h1.8348646v-6.5220575c0-.6496949.0538193-1.2723976.2159032-1.8134961.6208-2.2736181 2.6171226-3.8699215 4.9376129-3.8699215 2.6171226 0 2.9406645 1.8944725 2.9406645 4.0325022v8.1729729h1.8348645v-8.6600871c0-3.3558152-1.1871548-5.2779076-4.5327161-5.2779076" fill="#1a1919"/></g></g></svg>