<?xml version="1.0" encoding="UTF-8"?>
<svg width="48px" height="48px" viewBox="0 0 48 48" version="1.1" xmlns="http://www.w3.org/2000/svg" xmlns:xlink="http://www.w3.org/1999/xlink">
    <!-- Generator: Sketch 45.1 (43504) - http://www.bohemiancoding.com/sketch -->
    <title>loyalty</title>
    <desc>Created with Sketch.</desc>
    <defs></defs>
    <g id="A1.01.3-SE-Web---Home-(short)" stroke="none" stroke-width="1" fill="none" fill-rule="evenodd">
        <g id="loyalty">
            <rect id="bounds" fill-opacity="0" fill="#D8D8D8" x="0" y="0" width="48" height="48"></rect>
            <path d="M14.5,15.6190476 L14.5,38.4761905 L29.5,38.4761905 L29.5,15.6190476 L22,9.52380952 L14.5,15.6190476 Z M13.5629574,14.4291523 L21.0629574,8.3339142 C21.6107854,7.88869527 22.3892146,7.88869527 22.9370426,8.3339142 L30.4370426,14.4291523 C30.7928654,14.718329 31,15.1561391 31,15.6190476 L31,38.4761905 C31,39.3177672 30.3284271,40 29.5,40 L14.5,40 C13.6715729,40 13,39.3177672 13,38.4761905 L13,15.6190476 C13,15.1561391 13.2071346,14.718329 13.5629574,14.4291523 Z M22,21.7142857 C20.3431458,21.7142857 19,20.3498202 19,18.6666667 C19,16.9835131 20.3431458,15.6190476 22,15.6190476 C23.6568542,15.6190476 25,16.9835131 25,18.6666667 C25,20.3498202 23.6568542,21.7142857 22,21.7142857 Z M22,20.1904762 C22.8284271,20.1904762 23.5,19.5082434 23.5,18.6666667 C23.5,17.8250899 22.8284271,17.1428571 22,17.1428571 C21.1715729,17.1428571 20.5,17.8250899 20.5,18.6666667 C20.5,19.5082434 21.1715729,20.1904762 22,20.1904762 Z" id="Combined-Shape" fill="#7B8397" fill-rule="nonzero" transform="translate(22.000000, 24.000000) rotate(-45.000000) translate(-22.000000, -24.000000) "></path>
        </g>
    </g>
</svg>