<?xml version="1.0" encoding="UTF-8"?>
<svg width="48px" height="48px" viewBox="0 0 48 48" version="1.1" xmlns="http://www.w3.org/2000/svg" xmlns:xlink="http://www.w3.org/1999/xlink">
    <!-- Generator: sketchtool 46.2 (44496) - http://www.bohemiancoding.com/sketch -->
    <title>7F27336C-0D18-4D4F-A72D-7677E6284840</title>
    <desc>Created with sketchtool.</desc>
    <defs></defs>
    <g id="Homepage" stroke="none" stroke-width="1" fill="none" fill-rule="evenodd">
        <g id="Shoutem-Web---Homepage" transform="translate(-1223.000000, -4167.000000)">
            <g id="webview" transform="translate(1223.000000, 4167.000000)">
                <rect id="bounds" fill="none" x="0" y="0" width="48" height="48"></rect>
                <g id="Group-25" transform="translate(10.000000, 20.000000)" fill-rule="nonzero" fill="#7B8397">
                    <path d="M4,6 C5.1045695,6 6,5.1045695 6,4 C6,2.8954305 5.1045695,2 4,2 C2.8954305,2 2,2.8954305 2,4 C2,5.1045695 2.8954305,6 4,6 Z M4,7.5 C2.06700338,7.5 0.5,5.93299662 0.5,4 C0.5,2.06700338 2.06700338,0.5 4,0.5 C5.93299662,0.5 7.5,2.06700338 7.5,4 C7.5,5.93299662 5.93299662,7.5 4,7.5 Z" id="Oval-15"></path>
                    <path d="M14,6 C15.1045695,6 16,5.1045695 16,4 C16,2.8954305 15.1045695,2 14,2 C12.8954305,2 12,2.8954305 12,4 C12,5.1045695 12.8954305,6 14,6 Z M14,7.5 C12.0670034,7.5 10.5,5.93299662 10.5,4 C10.5,2.06700338 12.0670034,0.5 14,0.5 C15.9329966,0.5 17.5,2.06700338 17.5,4 C17.5,5.93299662 15.9329966,7.5 14,7.5 Z" id="Oval-15-Copy"></path>
                    <path d="M24,6 C25.1045695,6 26,5.1045695 26,4 C26,2.8954305 25.1045695,2 24,2 C22.8954305,2 22,2.8954305 22,4 C22,5.1045695 22.8954305,6 24,6 Z M24,7.5 C22.0670034,7.5 20.5,5.93299662 20.5,4 C20.5,2.06700338 22.0670034,0.5 24,0.5 C25.9329966,0.5 27.5,2.06700338 27.5,4 C27.5,5.93299662 25.9329966,7.5 24,7.5 Z" id="Oval-15-Copy-2"></path>
                </g>
            </g>
        </g>
    </g>
</svg>