<?xml version="1.0" encoding="UTF-8"?>
<svg width="48px" height="48px" viewBox="0 0 48 48" version="1.1" xmlns="http://www.w3.org/2000/svg" xmlns:xlink="http://www.w3.org/1999/xlink">
    <!-- Generator: Sketch 45.1 (43504) - http://www.bohemiancoding.com/sketch -->
    <title>news</title>
    <desc>Created with Sketch.</desc>
    <defs></defs>
    <g id="A1.01.3-SE-Web---Home-(short)" stroke="none" stroke-width="1" fill="none" fill-rule="evenodd">
        <g id="news">
            <path d="M15.5882353,26.6893398 L15.5882353,10.5 C15.5882353,9.67157288 16.2729763,9 17.1176471,9 L35.4705882,9 C36.315259,9 37,9.67157288 37,10.5 L37,34.5 C37,36.9852814 34.9457771,39 32.4117647,39 L14.0588235,39 C12.8323731,39 12.157006,37.6909607 12.7369404,36.7403208 C13.0020909,37.1946895 13.4948027,37.5 14.0588235,37.5 L15.5879529,36.000277 C15.5881409,35.9904034 15.5882353,35.9805068 15.5882353,35.9705882 L15.5882353,35.9705882 L15.5882353,26.6893398 Z M14.0588237,37.5 L32.4117647,37.5 C34.1011063,37.5 35.4705882,36.1568542 35.4705882,34.5 L35.4705882,10.5 L17.1176471,10.5 L17.1176471,34.5 L15.5879529,36.000277 Z M21.7058824,13.5 L30.8823529,13.5 C31.7270237,13.5 32.4117647,14.1715729 32.4117647,15 L32.4117647,19.5 C32.4117647,20.3284271 31.7270237,21 30.8823529,21 L21.7058824,21 C20.8612116,21 20.1764706,20.3284271 20.1764706,19.5 L20.1764706,15 C20.1764706,14.1715729 20.8612116,13.5 21.7058824,13.5 Z M21.7058824,15 L21.7058824,19.5 L30.8823529,19.5 L30.8823529,15 L21.7058824,15 Z M20.9264706,24 L30.1323529,24 C30.5465665,24 30.8823529,24.3357864 30.8823529,24.75 C30.8823529,25.1642136 30.5465665,25.5 30.1323529,25.5 L20.9264706,25.5 C20.512257,25.5 20.1764706,25.1642136 20.1764706,24.75 C20.1764706,24.3357864 20.512257,24 20.9264706,24 Z M20.9264706,28 L31.6617647,28 C32.0759783,28 32.4117647,28.3357864 32.4117647,28.75 C32.4117647,29.1642136 32.0759783,29.5 31.6617647,29.5 L20.9264706,29.5 C20.512257,29.5 20.1764706,29.1642136 20.1764706,28.75 C20.1764706,28.3357864 20.512257,28 20.9264706,28 Z M20.9264706,32 L30.1323529,32 C30.5465665,32 30.8823529,32.3357864 30.8823529,32.75 C30.8823529,33.1642136 30.5465665,33.5 30.1323529,33.5 L20.9264706,33.5 C20.512257,33.5 20.1764706,33.1642136 20.1764706,32.75 C20.1764706,32.3357864 20.512257,32 20.9264706,32 Z M12.5294118,18 L15.5882353,18 C16.4329061,18 17.1176471,18.6715729 17.1176471,19.5 L17.1176471,36 C17.1176471,37.6568542 15.7481651,39 14.0588235,39 C12.3694819,39 11,37.6568542 11,36 L11,19.5 C11,18.6715729 11.684741,18 12.5294118,18 Z M12.5294118,19.5 L12.5294118,36 C12.5294118,36.8284271 13.2141527,37.5 14.0588235,37.5 C14.9034943,37.5 15.5882353,36.8284271 15.5882353,36 L15.5882353,19.5 L12.5294118,19.5 Z" id="Combined-Shape" fill="#7B8397" fill-rule="nonzero"></path>
            <rect id="bounds" fill-opacity="0" fill="#D8D8D8" x="0" y="0" width="48" height="48"></rect>
        </g>
    </g>
</svg>