<?xml version="1.0" encoding="UTF-8"?>
<svg width="48px" height="48px" viewBox="0 0 48 48" version="1.1" xmlns="http://www.w3.org/2000/svg" xmlns:xlink="http://www.w3.org/1999/xlink">
    <!-- Generator: Sketch 45.1 (43504) - http://www.bohemiancoding.com/sketch -->
    <title>notifications</title>
    <desc>Created with Sketch.</desc>
    <defs></defs>
    <g id="A1.01.3-SE-Web---Home-(short)" stroke="none" stroke-width="1" fill="none" fill-rule="evenodd">
        <g id="notifications">
            <rect id="bounds" fill-opacity="0" fill="#D8D8D8" x="0" y="0" width="48" height="48"></rect>
            <path d="M23.9998368,14.0952381 C19.8850508,14.0952381 16.5493576,17.5064019 16.5493576,21.7142857 L16.5493576,31.2168655 L14.4900958,35.4285714 L33.5095778,35.4285714 L31.450316,31.2168655 L31.450316,21.7142857 C31.450316,17.5064019 28.1146228,14.0952381 23.9998368,14.0952381 Z M22.4886633,38.0558865 C22.9317395,38.322972 23.448291,38.4761905 23.9998368,38.4761905 C24.5513826,38.4761905 25.0679341,38.322972 25.5110103,38.0558865 C25.9540864,37.788801 26.3236873,37.4078487 26.5813319,36.952381 L21.4183417,36.952381 C21.6759863,37.4078487 22.0455872,37.788801 22.4886633,38.0558865 Z M28.2157564,36.952381 C27.6020807,38.7279122 25.946228,40 23.9998368,40 C22.0534456,40 20.3975929,38.7279122 19.7839172,36.952381 L14.4900958,36.952381 C13.6671386,36.952381 13,36.2701482 13,35.4285714 C13,35.1920075 13.0538597,34.9586923 13.1573136,34.7471031 L15.0592618,30.8571429 L15.0592618,21.7142857 C15.0592618,17.5037765 17.8424759,13.9580294 21.6301619,12.8960308 C21.2471513,12.38332 21.0196451,11.7426391 21.0196451,11.047619 C21.0196451,9.36446552 22.3539224,8 23.9998368,8 C25.6457512,8 26.9800285,9.36446552 26.9800285,11.047619 C26.9800285,11.7426391 26.7525222,12.38332 26.3695117,12.8960308 C30.1571977,13.9580294 32.9404118,17.5037765 32.9404118,21.7142857 L32.9404118,30.8571429 L34.84236,34.7471031 C35.2103976,35.4998322 34.9120442,36.4151435 34.1759689,36.7915081 C33.969061,36.8973027 33.7409078,36.952381 33.5095778,36.952381 L28.2157564,36.952381 Z M23.9998368,12.5714286 C24.822794,12.5714286 25.4899326,11.8891958 25.4899326,11.047619 C25.4899326,10.2060423 24.822794,9.52380952 23.9998368,9.52380952 C23.1768796,9.52380952 22.509741,10.2060423 22.509741,11.047619 C22.509741,11.8891958 23.1768796,12.5714286 23.9998368,12.5714286 Z" id="Combined-Shape" fill="#7B8397" fill-rule="nonzero"></path>
        </g>
    </g>
</svg>