<?xml version="1.0" encoding="UTF-8"?>
<svg width="48px" height="48px" viewBox="0 0 48 48" version="1.1" xmlns="http://www.w3.org/2000/svg" xmlns:xlink="http://www.w3.org/1999/xlink">
    <!-- Generator: Sketch 45.1 (43504) - http://www.bohemiancoding.com/sketch -->
    <title>places</title>
    <desc>Created with Sketch.</desc>
    <defs></defs>
    <g id="A1.01.3-SE-Web---Home-(short)" stroke="none" stroke-width="1" fill="none" fill-rule="evenodd">
        <g id="places">
            <rect id="bounds" fill-opacity="0" fill="#D8D8D8" x="0" y="0" width="48" height="48"></rect>
            <path d="M31.0149699,26.6020265 C32.5492897,24.5680177 33.2967789,22.1428533 33.1394127,19.7959201 C32.8246805,15.1411692 29.0478932,10.3299561 23.2646878,10.3299561 C17.4814824,10.3299561 13.7046952,15.1411692 13.3506214,19.7959201 C13.1932552,22.1428533 13.9407444,24.5680177 15.4750642,26.6020265 L23.2646878,37.6717282 L31.0149699,26.6020265 Z M24.4732403,38.3901764 C23.9102798,39.2021597 22.6318967,39.2035283 22.06692,38.3927525 L14.3787678,27.358526 C12.6837055,25.0893229 11.8461036,22.3705321 12.0233149,19.7023708 C12.4583587,13.9269139 17.1369205,9 23.2691848,9 C29.410589,9 34.0904783,13.9425144 34.4768718,19.713314 C34.6528067,22.3629855 33.8204552,25.0738805 32.1350649,27.3391813 L24.4732403,38.3901764 Z M23.25,23 C21.5931458,23 20.25,21.6568542 20.25,20 C20.25,18.3431458 21.5931458,17 23.25,17 C24.9068542,17 26.25,18.3431458 26.25,20 C26.25,21.6568542 24.9068542,23 23.25,23 Z M23.25,21.5 C24.0784271,21.5 24.75,20.8284271 24.75,20 C24.75,19.1715729 24.0784271,18.5 23.25,18.5 C22.4215729,18.5 21.75,19.1715729 21.75,20 C21.75,20.8284271 22.4215729,21.5 23.25,21.5 Z" id="Combined-Shape" fill="#7B8397" fill-rule="nonzero"></path>
        </g>
    </g>
</svg>