<svg height="48" viewBox="0 0 48 48" width="48" xmlns="http://www.w3.org/2000/svg"><g fill="none" fill-rule="evenodd" transform=""><rect fill="#fff" height="48" rx="24" width="48"/><g transform="translate(15.466667 15.466667)"><path d="m0 0h17.066667v17.066667h-17.066667z" fill="#d8d8d8" opacity="0"/><path d="m4.8 13.6496026v-10.01760499c0-.58910373.47756293-1.06666666 1.06666667-1.06666666.19991436 0 .39580516.05618074.5653322.16213514l8.01408403 5.00880252c.499559.31222435.6514237.97030476.3391993 1.46986372-.0858461.13735374-.2018456.25335324-.3391993.33919932l-8.01408403 5.00880255c-.49955897.3122243-1.15763937.1603596-1.46986373-.3391994-.1059544-.169527-.16213514-.3654178-.16213514-.5653322zm9.0666667-5.00880247-8.00000003-5.01333333v10.0266667z" fill="#444f6c"/></g></g></svg>