<svg height="184" viewBox="0 0 184 184" width="184" xmlns="http://www.w3.org/2000/svg" xmlns:xlink="http://www.w3.org/1999/xlink"><defs><ellipse id="a" cx="48" cy="54" rx="9.365854" ry="9.361702"/></defs><g fill="none" fill-rule="evenodd" transform=""><circle cx="92" cy="92" fill="#fff" r="92"/><g transform="translate(44 38)"><use fill="#fff" xlink:href="#a"/><g fill="#00aadf"><use fill-opacity=".1" stroke="#00aadf" stroke-width="2" xlink:href="#a"/><g fill-rule="nonzero"><path d="m48 101.978723c-13.7987204 0-24.5853659-21.5637279-24.5853659-47.978723s10.7866455-47.9787234 24.5853659-47.9787234 24.5853659 21.5637283 24.5853659 47.9787234-10.7866455 47.978723-24.5853659 47.978723zm0-2.3404251c12.0643704 0 22.2439024-20.3500398 22.2439024-45.6382979s-10.179532-45.63829787-22.2439024-45.63829787-22.2439024 20.35003977-22.2439024 45.63829787 10.179532 45.6382979 22.2439024 45.6382979z" transform="matrix(.8660254 .5 -.5 .8660254 33.430781 -16.765372)"/><path d="m48 101.978723c-13.7987204 0-24.5853659-21.5637279-24.5853659-47.978723s10.7866455-47.9787234 24.5853659-47.9787234 24.5853659 21.5637283 24.5853659 47.9787234-10.7866455 47.978723-24.5853659 47.978723zm0-2.3404251c12.0643704 0 22.2439024-20.3500398 22.2439024-45.6382979s-10.179532-45.63829787-22.2439024-45.63829787-22.2439024 20.35003977-22.2439024 45.63829787 10.179532 45.6382979 22.2439024 45.6382979z" transform="matrix(.8660254 -.5 .5 .8660254 -20.569219 31.234628)"/><path d="m48 101.978723c-13.7987204 0-24.5853659-21.5637279-24.5853659-47.978723s10.7866455-47.9787234 24.5853659-47.9787234 24.5853659 21.5637283 24.5853659 47.9787234-10.7866455 47.978723-24.5853659 47.978723zm0-2.3404251c12.0643704 0 22.2439024-20.3500398 22.2439024-45.6382979s-10.179532-45.63829787-22.2439024-45.63829787-22.2439024 20.35003977-22.2439024 45.63829787 10.179532 45.6382979 22.2439024 45.6382979z" transform="matrix(0 -1 1 0 -6 102)"/></g></g></g></g></svg>