<?xml version="1.0" encoding="UTF-8"?>
<svg width="48px" height="48px" viewBox="0 0 48 48" version="1.1" xmlns="http://www.w3.org/2000/svg" xmlns:xlink="http://www.w3.org/1999/xlink">
    <!-- Generator: Sketch 45.1 (43504) - http://www.bohemiancoding.com/sketch -->
    <title>restaurants</title>
    <desc>Created with Sketch.</desc>
    <defs></defs>
    <g id="A1.01.3-SE-Web---Home-(short)" stroke="none" stroke-width="1" fill="none" fill-rule="evenodd">
        <g id="restaurants">
            <rect id="bounds" fill-opacity="0" fill="#D8D8D8" x="0" y="0" width="48" height="48"></rect>
            <path d="M12.5,31.3529412 L36.5,31.3529412 C36.5,24.5955748 31.127417,19.1176471 24.5,19.1176471 C17.872583,19.1176471 12.5,24.5955748 12.5,31.3529412 Z M22.0437615,17.8155153 C21.7011395,17.3184023 21.5,16.7125628 21.5,16.0588235 C21.5,14.3694819 22.8431458,13 24.5,13 C26.1568542,13 27.5,14.3694819 27.5,16.0588235 C27.5,16.7125628 27.2988605,17.3184023 26.9562385,17.8155153 C33.2393268,18.9931046 38,24.6061643 38,31.3529412 C38,32.197612 37.3284271,32.8823529 36.5,32.8823529 L12.5,32.8823529 C11.6715729,32.8823529 11,32.197612 11,31.3529412 C11,24.6061643 15.7606732,18.9931046 22.0437615,17.8155153 Z M24.5,17.5882353 C25.3284271,17.5882353 26,16.9034943 26,16.0588235 C26,15.2141527 25.3284271,14.5294118 24.5,14.5294118 C23.6715729,14.5294118 23,15.2141527 23,16.0588235 C23,16.9034943 23.6715729,17.5882353 24.5,17.5882353 Z M31.3942911,24.3234679 C31.6871843,24.6221041 31.6871843,25.1062891 31.3942911,25.4049253 C31.1013979,25.7035615 30.6265242,25.7035615 30.3336309,25.4049253 C28.7959544,23.8370982 26.718492,22.9411765 24.5,22.9411765 C24.0857864,22.9411765 23.75,22.598806 23.75,22.1764706 C23.75,21.7541352 24.0857864,21.4117647 24.5,21.4117647 C27.1204058,21.4117647 29.5780986,22.4716638 31.3942911,24.3234679 Z M9.75,34.5 L39.25,34.5 L39.25,34.5 C39.6642136,34.5 40,34.8357864 40,35.25 L40,35.25 C40,35.6642136 39.6642136,36 39.25,36 L9.75,36 C9.33578644,36 9,35.6642136 9,35.25 C9,34.8357864 9.33578644,34.5 9.75,34.5 Z" id="Combined-Shape-Copy" fill="#7B8397" fill-rule="nonzero"></path>
        </g>
    </g>
</svg>