<?xml version="1.0" encoding="UTF-8"?>
<svg width="48px" height="48px" viewBox="0 0 48 48" version="1.1" xmlns="http://www.w3.org/2000/svg" xmlns:xlink="http://www.w3.org/1999/xlink">
    <!-- Generator: Sketch 45.1 (43504) - http://www.bohemiancoding.com/sketch -->
    <title>rss</title>
    <desc>Created with Sketch.</desc>
    <defs></defs>
    <g id="A1.01.3-SE-Web---Home-(short)" stroke="none" stroke-width="1" fill="none" fill-rule="evenodd">
        <g id="rss">
            <rect id="bounds" fill-opacity="0" fill="#D8D8D8" x="0" y="0" width="48" height="48"></rect>
            <path d="M13.9714286,35.5142857 C14.7919659,35.5142857 15.4571429,34.8491088 15.4571429,34.0285714 C15.4571429,33.2080341 14.7919659,32.5428571 13.9714286,32.5428571 C13.1508912,32.5428571 12.4857143,33.2080341 12.4857143,34.0285714 C12.4857143,34.8491088 13.1508912,35.5142857 13.9714286,35.5142857 Z M13.9714286,37 C12.3303539,37 11,35.6696461 11,34.0285714 C11,32.3874967 12.3303539,31.0571429 13.9714286,31.0571429 C15.6125033,31.0571429 16.9428571,32.3874967 16.9428571,34.0285714 C16.9428571,35.6696461 15.6125033,37 13.9714286,37 Z M25.1142857,35.5142857 C25.1142857,35.9245544 24.7816972,36.2571429 24.3714286,36.2571429 C23.9611599,36.2571429 23.6285714,35.9245544 23.6285714,35.5142857 C23.6285714,29.3602556 18.6397444,24.3714286 12.4857143,24.3714286 C12.0754456,24.3714286 11.7428571,24.0388401 11.7428571,23.6285714 C11.7428571,23.2183028 12.0754456,22.8857143 12.4857143,22.8857143 C19.4602817,22.8857143 25.1142857,28.5397183 25.1142857,35.5142857 Z M31.0571429,35.5142857 C31.0571429,35.9245544 30.7245544,36.2571429 30.3142857,36.2571429 C29.904017,36.2571429 29.5714286,35.9245544 29.5714286,35.5142857 C29.5714286,26.0781063 21.9218937,18.4285714 12.4857143,18.4285714 C12.0754456,18.4285714 11.7428571,18.095983 11.7428571,17.6857143 C11.7428571,17.2754456 12.0754456,16.9428571 12.4857143,16.9428571 C22.7424311,16.9428571 31.0571429,25.2575689 31.0571429,35.5142857 Z M37,35.5142857 C37,35.9245544 36.6674115,36.2571429 36.2571429,36.2571429 C35.8468742,36.2571429 35.5142857,35.9245544 35.5142857,35.5142857 C35.5142857,22.7959569 25.2040431,12.4857143 12.4857143,12.4857143 C12.0754456,12.4857143 11.7428571,12.1531258 11.7428571,11.7428571 C11.7428571,11.3325885 12.0754456,11 12.4857143,11 C26.0245804,11 37,21.9754196 37,35.5142857 Z" id="Combined-Shape" fill="#7B8397" fill-rule="nonzero"></path>
        </g>
    </g>
</svg>