<?xml version="1.0" encoding="UTF-8"?>
<svg width="48px" height="48px" viewBox="0 0 48 48" version="1.1" xmlns="http://www.w3.org/2000/svg" xmlns:xlink="http://www.w3.org/1999/xlink">
    <!-- Generator: Sketch 45.1 (43504) - http://www.bohemiancoding.com/sketch -->
    <title>shopify</title>
    <desc>Created with Sketch.</desc>
    <defs></defs>
    <g id="A1.01.3-SE-Web---Home-(short)" stroke="none" stroke-width="1" fill="none" fill-rule="evenodd">
        <g id="shopify">
            <rect id="bounds" fill-opacity="0" fill="#D8D8D8" x="0" y="0" width="48" height="48"></rect>
            <path d="M32.1687565,12.6065217 L34.9047619,12.6065217 L35.5501039,12.6065217 L39.561016,39.1936374 L28.0528866,41.670387 L8.1541081,37.673328 L11.3748526,15.8387808 L29.7841833,10.2115809 L32.1687565,12.6065217 Z" id="Rectangle-25" stroke="#7B8397" stroke-width="1.5" stroke-linecap="round" stroke-linejoin="round"></path>
            <path d="M24.3707562,10.843053 C24.186484,10.5633691 23.9748213,10.3034808 23.7396083,10.0672452 C22.8434036,9.167144 21.6053084,8.61041982 20.2377461,8.61041982 C17.5026217,8.61041982 15.2853652,10.8373165 15.2853652,13.5843329 C15.2853652,13.9137066 15.3172417,14.2356028 15.3780655,14.5470793" id="Oval-6" stroke="#7B8397" stroke-width="1.51330049" stroke-linecap="round" stroke-linejoin="round" transform="translate(19.828061, 11.578750) rotate(2.000000) translate(-19.828061, -11.578750) "></path>
            <path d="M28.3944617,9.60241084 C28.2101895,9.32272696 27.9985267,9.06283871 27.7633138,8.82660309 C26.8671091,7.92650187 25.6290139,7.36977769 24.2614516,7.36977769 C21.5263272,7.36977769 19.3090707,9.59667441 19.3090707,12.3436907 C19.3090707,12.6730645 19.3409472,12.9949607 19.401771,13.3064372" id="Oval-6-Copy" stroke="#7B8397" stroke-width="1.51330049" stroke-linecap="round" stroke-linejoin="round" transform="translate(23.851766, 10.338107) rotate(4.000000) translate(-23.851766, -10.338107) "></path>
            <path d="M28.047619,38 L29.5714286,14.4047084" id="Line" stroke="#7B8397" stroke-width="1.5" stroke-linecap="round" stroke-linejoin="round"></path>
            <path d="M24.9254002,19.2872928 L23.6435257,23.0616781 C23.6435257,23.0616781 22.506769,22.4644652 21.1281492,22.4644652 C19.0964989,22.4644652 18.9997537,23.7305565 18.9997537,24.0411072 C18.9997537,25.7610802 23.5467804,26.4299586 23.5467804,30.4671175 C23.5467804,33.6442899 21.5151302,35.6987022 18.7578906,35.6987022 C15.4443658,35.6987022 13.7755102,33.6681784 13.7755102,33.6681784 L14.6704038,30.7776682 C14.6704038,30.7776682 16.4118183,32.2587561 17.862997,32.2587561 C18.8304495,32.2587561 19.2174305,31.5182121 19.2174305,30.9687763 C19.2174305,28.723256 15.4927384,28.6277019 15.4927384,24.9249822 C15.4927384,21.8194753 17.7420654,18.8095225 22.3132785,18.8095225 C24.054693,18.785634 24.9254002,19.2872928 24.9254002,19.2872928 Z" id="Shape" stroke="#7B8397" stroke-width="1.5" stroke-linecap="round" stroke-linejoin="round"></path>
        </g>
    </g>
</svg>