<?xml version="1.0" encoding="UTF-8"?>
<svg width="30px" height="32px" viewBox="0 0 30 32" version="1.1" xmlns="http://www.w3.org/2000/svg" xmlns:xlink="http://www.w3.org/1999/xlink">
    <!-- Generator: sketchtool 46.2 (44496) - http://www.bohemiancoding.com/sketch -->
    <title>2B64FEAB-E722-432B-A7C0-524463766F5E</title>
    <desc>Created with sketchtool.</desc>
    <defs></defs>
    <g id="Homepage" stroke="none" stroke-width="1" fill="none" fill-rule="evenodd">
        <g id="Shoutem-Web---Homepage" transform="translate(-1115.000000, -4626.000000)">
            <g id="social" transform="translate(1106.000000, 4618.000000)">
                <g id="Group-20" transform="translate(9.000000, 8.000000)" fill-rule="nonzero" fill="#7B8397">
                    <path d="M10.6067035,18.0058676 L18.8154891,25.2652567 C19.4142276,24.78636 20.1736723,24.5 21,24.5 C22.9329966,24.5 24.5,26.0670034 24.5,28 C24.5,29.9329966 22.9329966,31.5 21,31.5 C19.0670034,31.5 17.5,29.9329966 17.5,28 C17.5,27.4361533 17.6333306,26.9034476 17.8701836,26.4316912 L9.62291684,19.1382715 C8.6552525,19.9861153 7.38763835,20.5 6,20.5 C2.96243388,20.5 0.5,18.0375661 0.5,15 C0.5,11.9624339 2.96243388,9.5 6,9.5 C7.80133775,9.5 9.40041712,10.3659711 10.4036431,11.7043183 L18.6765395,7.38762482 C18.5613186,6.94434908 18.5,6.4793354 18.5,6 C18.5,2.96243388 20.9624339,0.5 24,0.5 C27.0375661,0.5 29.5,2.96243388 29.5,6 C29.5,9.03756612 27.0375661,11.5 24,11.5 C21.9761896,11.5 20.2076821,10.406918 19.2526568,8.77893303 L11.1314614,13.0164709 C11.3694765,13.6318073 11.5,14.300661 11.5,15 C11.5,16.1092991 11.1715945,17.141895 10.6067035,18.0058676 Z M21,30 C22.1045695,30 23,29.1045695 23,28 C23,26.8954305 22.1045695,26 21,26 C19.8954305,26 19,26.8954305 19,28 C19,29.1045695 19.8954305,30 21,30 Z M6,19 C8.209139,19 10,17.209139 10,15 C10,12.790861 8.209139,11 6,11 C3.790861,11 2,12.790861 2,15 C2,17.209139 3.790861,19 6,19 Z M24,10 C26.209139,10 28,8.209139 28,6 C28,3.790861 26.209139,2 24,2 C21.790861,2 20,3.790861 20,6 C20,8.209139 21.790861,10 24,10 Z" id="Combined-Shape"></path>
                </g>
                <rect id="bounds-copy" fill="#D8D8D8" opacity="0" x="0" y="0" width="48" height="48"></rect>
            </g>
        </g>
    </g>
</svg>