<svg height="184" viewBox="0 0 184 184" width="184" xmlns="http://www.w3.org/2000/svg"><g fill="none" fill-rule="evenodd" transform=""><circle cx="92" cy="92" fill="#fff" r="92"/><g transform="translate(26 42)"><path d="m95 18h2v4h-2zm-2-1c0-.5522847.4477153-1 1-1h4c .5522847 0 1 .4477153 1 1s-.4477153 1-1 1h-4c-.5522847 0-1-.4477153-1-1z" fill="#00aadf" transform="matrix(.70710678 .70710678 -.70710678 .70710678 41.552778 -62.31728)"/><rect fill="#e5f6fb" height="2" rx="1" width="27" y="40"/><rect fill="#e5f6fb" height="2" rx="1" width="27" y="58"/><path d="m65.0171446 89.9881611c.3266631.0078776.6542967.0118389.9828554.0118389 11.045695 0 21.045695-4.4771525 28.2842712-11.7157288 7.2385758-7.2385762 11.7157288-17.2385762 11.7157288-28.2842712s-4.477153-21.045695-11.7157288-28.2842712c-7.2385762-7.2385763-17.2385762-11.7157288-28.2842712-11.7157288s-21.045695 4.4771525-28.2842712 11.7157288c-3.0017834 3.0017833-5.5286851 6.4784484-7.4583485 10.3076386m-1.5786528 3.5549831c-.1207607.3123013-.2377144.6264976-.3508042.942532-.219976.6147323-.4253325 1.2364193-.6156507 1.8646421-.3771225 1.2448465-.6951971 2.5153557-.9509647 3.8082683-.499449 2.5247294-.7613079 5.1348881-.7613079 7.8062071m.1898171 3.9218313c.127913 1.3144682.3194495 2.6102997.5714908 3.8843758.5145502 2.6010658 1.2812749 5.1114584 2.2736371 7.5046405.3822179.9217572.7979086 1.8261265 1.2455559 2.7115916m2.4563526 4.2013964c1.4602882 2.1813284 3.1294517 4.2110121 4.9788753 6.0604356.9256148.9256149 1.8963827 1.8060766 2.9087163 2.6377979" stroke="#00aadf" stroke-linecap="round" stroke-linejoin="round" stroke-width="2"/><path d="m62 4h8v6h-8zm-2-4h12c1.1045695 0 2 .8954305 2 2s-.8954305 2-2 2h-12c-1.1045695 0-2-.8954305-2-2s .8954305-2 2-2z" stroke="#00aadf" stroke-linecap="round" stroke-linejoin="round" stroke-width="2"/><circle cx="66" cy="50" fill="#00aadf" fill-opacity=".1" r="37"/><circle cx="66" cy="50" fill="#fff" r="32"/><path d="m66.5 82c17.3969696 0 31.5-14.1030304 31.5-31.5 0-4.2709327-.8499839-8.343341-2.3900192-12.0572925" stroke="#00aadf" stroke-linecap="round" stroke-linejoin="round" stroke-width="2"/><g fill="#00aadf"><path d="m16 31h22c .5522847 0 1 .4477153 1 1s-.4477153 1-1 1h-22c-.5522847 0-1-.4477153-1-1s .4477153-1 1-1zm0 36h22c .5522847 0 1 .4477153 1 1s-.4477153 1-1 1h-22c-.5522847 0-1-.4477153-1-1s .4477153-1 1-1zm-8-18h30c .5522847 0 1 .4477153 1 1s-.4477153 1-1 1h-30c-.55228475 0-1-.4477153-1-1s .44771525-1 1-1z"/><rect height="2" rx="1" width="48" x="18" y="89"/><path d="m72.7781746 47.3047838v-21.0829584c0-.5522847.4477152-1 1-1 .5522847 0 1 .4477153 1 1v21.0829584c2.8377133.4760781 5 2.9440453 5 5.9170416 0 3.3137085-2.6862915 6-6 6s-6-2.6862915-6-6c0-2.9729963 2.1622867-5.4409635 5-5.9170416zm1 9.9170416c2.209139 0 4-1.790861 4-4s-1.790861-4-4-4-4 1.790861-4 4 1.790861 4 4 4z" fill-rule="nonzero" transform="matrix(.70710678 .70710678 -.70710678 .70710678 51.464466 -39.802562)"/></g></g></g></svg>