<?xml version="1.0" encoding="UTF-8"?>
<svg width="22px" height="30px" viewBox="0 0 22 30" version="1.1" xmlns="http://www.w3.org/2000/svg" xmlns:xlink="http://www.w3.org/1999/xlink">
    <!-- Generator: sketchtool 46.2 (44496) - http://www.bohemiancoding.com/sketch -->
    <title>06CBCC7D-6EAE-4F85-AFAF-1694125C16FC</title>
    <desc>Created with sketchtool.</desc>
    <defs></defs>
    <g id="Homepage" stroke="none" stroke-width="1" fill="none" fill-rule="evenodd">
        <g id="Shoutem-Web---Homepage" transform="translate(-1119.000000, -4758.000000)">
            <g id="stripe" transform="translate(1106.000000, 4749.000000)">
                <rect id="bounds" fill="#D8D8D8" opacity="0" x="0" y="0" width="48" height="48"></rect>
                <path d="M26.5513937,19.9697949 C32.2845583,22.0161005 34.75,24.4526229 34.75,29.1981658 C34.75,32.3191839 33.6530089,34.7968675 31.5166216,36.4723479 C29.6383578,37.9718194 26.9092232,38.75 23.6528646,38.75 C20.0155566,38.75 16.0812271,37.722644 13.6296491,36.3304784 C13.3573854,36.1758693 13.2098139,35.8683959 13.2595061,35.5592645 L14.3011728,29.0791331 C14.3849234,28.5581269 14.966264,28.2842314 15.4213448,28.5513702 C17.655057,29.8625906 21.1378873,30.9083962 23.2013021,30.9083962 C24.5963594,30.9083962 25.1945312,30.5123281 25.1945312,29.8564971 C25.1945312,29.1193337 24.3935318,28.5183867 21.6612374,27.5468 C16.0283288,25.5064092 13.5971354,23.0800226 13.5971354,18.4208181 C13.5971354,15.5985904 14.6329499,13.2385687 16.615322,11.6028006 C18.5045709,10.0564305 21.1093972,9.25 24.1736979,9.25 C27.7003489,9.25 30.6597369,10.0127975 33.071963,11.1593488 C33.3733142,11.3025836 33.5438047,11.627674 33.490291,11.9570142 L32.4486243,18.3677519 C32.3679142,18.864467 31.8305933,19.1423337 31.378605,18.921095 C29.0848506,17.7983506 26.7075634,17.0916038 24.5903646,17.0916038 C23.5375543,17.0916038 23.1179688,17.3803761 23.1179688,17.8664476 C23.1179688,18.4389105 24.0075031,19.0307319 26.5513937,19.9697949 Z M23.6528646,37.25 C26.5940622,37.25 28.996281,36.5650356 30.585857,35.2960677 C32.3479792,33.9140785 33.25,31.8767583 33.25,29.1981658 C33.25,25.2165322 31.2492527,23.2392534 26.0395462,21.3797405 C22.8432937,20.1999083 21.6179688,19.3846801 21.6179688,17.8664476 C21.6179688,16.4068917 22.8025802,15.5916038 24.5903646,15.5916038 C26.6836817,15.5916038 28.9303692,16.1836636 31.1267849,17.1502249 L31.9178316,12.2818798 C29.7893346,11.3551489 27.2130729,10.75 24.1736979,10.75 C21.4361919,10.75 19.1672119,11.4524555 17.5677072,12.7616594 C15.944983,14.1006677 15.0971354,16.0324217 15.0971354,18.4208181 C15.0971354,22.3209595 17.0675351,24.2874635 22.1679447,26.1349826 C25.4636546,27.3068998 26.6945312,28.2303606 26.6945312,29.8564971 C26.6945312,31.5022797 25.3260459,32.4083962 23.2013021,32.4083962 C21.142876,32.4083962 18.0094514,31.5430934 15.6149138,30.3576281 L14.825255,35.2700375 C17.0750627,36.4109491 20.4949193,37.25 23.6528646,37.25 Z" id="Path" fill="#7B8397" fill-rule="nonzero"></path>
            </g>
        </g>
    </g>
</svg>