<?xml version="1.0" encoding="UTF-8"?>
<svg width="48px" height="48px" viewBox="0 0 48 48" version="1.1" xmlns="http://www.w3.org/2000/svg" xmlns:xlink="http://www.w3.org/1999/xlink">
    <!-- Generator: Sketch 45.1 (43504) - http://www.bohemiancoding.com/sketch -->
    <title>users</title>
    <desc>Created with Sketch.</desc>
    <defs></defs>
    <g id="A1.01.3-SE-Web---Home-(short)" stroke="none" stroke-width="1" fill="none" fill-rule="evenodd">
        <g id="users">
            <path d="M32.6739819,32.5 C33.1365903,33.6530486 33.3913043,34.9132185 33.3913043,36.2333333 C33.3913043,36.6567516 33.0506514,37 32.6304348,37 C32.6084274,37 32.5866383,36.9990586 32.565105,36.9972134 C32.5436487,36.9990584 32.5219343,37 32.5,37 L14.5,37 C14.4780657,37 14.4563513,36.9990584 14.434895,36.9972134 C14.4133617,36.9990586 14.3915726,37 14.3695652,37 C13.9493486,37 13.6086957,36.6567516 13.6086957,36.2333333 C13.6086957,34.9132185 13.8634097,33.6530486 14.3260181,32.5 L6.75,32.5 C6.33578644,32.5 6,32.1642136 6,31.75 C6,31.7305171 6.00074288,31.7112078 6.00220187,31.6920987 C6.00074282,31.6727029 6,31.6531055 6,31.6333333 C6,29.2544832 7.39215222,27.2006567 9.41150059,26.2212059 C8.41527721,25.4394217 7.77536232,24.2305103 7.77536232,22.8714286 C7.77536232,20.5088051 9.70920023,18.6 12.0869565,18.6 C14.4647128,18.6 16.3985507,20.5088051 16.3985507,22.8714286 C16.3985507,24.2305073 15.7586387,25.4394163 14.7624192,26.2212006 C15.6286143,26.6407949 16.3897422,27.2628706 16.9768934,28.0454664 C17.0836141,28.1877111 17.1839424,28.3345053 17.2775688,28.4854218 C18.1103784,27.80551 19.0549829,27.2591704 20.0792718,26.8787581 C18.0306957,25.686173 16.6521739,23.4552986 16.6521739,20.9 C16.6521739,17.0892352 19.7180501,14 23.5,14 C27.2819499,14 30.3478261,17.0892352 30.3478261,20.9 C30.3478261,23.4552986 28.9693043,25.686173 26.9207282,26.8787581 C27.9450171,27.2591704 28.8896216,27.80551 29.7224312,28.4854218 C29.8160576,28.3345053 29.9163859,28.1877111 30.0231066,28.0454664 C30.6102578,27.2628706 31.3713857,26.6407949 32.2375808,26.2212006 C31.2413613,25.4394163 30.6014493,24.2305073 30.6014493,22.8714286 C30.6014493,20.5088051 32.5352872,18.6 34.9130435,18.6 C37.2907998,18.6 39.2246377,20.5088051 39.2246377,22.8714286 C39.2246377,24.2305103 38.5847228,25.4394217 37.5884994,26.2212059 C39.6078478,27.2006567 41,29.2544832 41,31.6333333 C41,31.6531055 40.9992572,31.6727029 40.9977981,31.6920987 C40.9992571,31.7112078 41,31.7305171 41,31.75 C41,32.1642136 40.6642136,32.5 40.25,32.5 L32.6739819,32.5 Z M31.9196162,31 L39.4331684,31 C39.1204288,28.8224623 37.218688,27.1428571 34.9130435,27.1428571 C33.4432731,27.1428571 32.0926117,27.8297286 31.2370061,28.9701389 C31.0943126,29.1603307 30.9670896,29.3611981 30.8566322,29.5708774 C31.2514885,30.0132535 31.60761,30.4914349 31.9196162,31 L31.9196162,31 Z M15.0803838,31 C15.39239,30.4914349 15.7485115,30.0132535 16.1433678,29.5708774 C16.0329104,29.3611981 15.9056874,29.1603307 15.7629939,28.9701389 C14.9073883,27.8297286 13.5567269,27.1428571 12.0869565,27.1428571 C9.78131201,27.1428571 7.87957117,28.8224623 7.56683163,31 L15.0803838,31 Z M15.1616391,35.5 L31.8383609,35.5 C31.4695518,31.1857771 27.8771815,27.8 23.5,27.8 C19.1228185,27.8 15.5304482,31.1857771 15.1616391,35.5 L15.1616391,35.5 Z M23.5,26.2666667 C26.4415166,26.2666667 28.826087,23.8639282 28.826087,20.9 C28.826087,17.9360718 26.4415166,15.5333333 23.5,15.5333333 C20.5584834,15.5333333 18.173913,17.9360718 18.173913,20.9 C18.173913,23.8639282 20.5584834,26.2666667 23.5,26.2666667 Z M12.0869565,25.6095238 C13.6312224,25.6095238 14.8768116,24.3800582 14.8768116,22.8714286 C14.8768116,21.3627989 13.6312224,20.1333333 12.0869565,20.1333333 C10.5426907,20.1333333 9.29710145,21.3627989 9.29710145,22.8714286 C9.29710145,24.3800582 10.5426907,25.6095238 12.0869565,25.6095238 Z M34.9130435,25.6095238 C36.4573093,25.6095238 37.7028986,24.3800582 37.7028986,22.8714286 C37.7028986,21.3627989 36.4573093,20.1333333 34.9130435,20.1333333 C33.3687776,20.1333333 32.1231884,21.3627989 32.1231884,22.8714286 C32.1231884,24.3800582 33.3687776,25.6095238 34.9130435,25.6095238 Z" id="Combined-Shape" fill="#7B8397" fill-rule="nonzero"></path>
            <rect id="bounds" fill-opacity="0" fill="#D8D8D8" x="0" y="0" width="48" height="48"></rect>
        </g>
    </g>
</svg>