<?xml version="1.0" encoding="UTF-8"?>
<svg width="48px" height="48px" viewBox="0 0 48 48" version="1.1" xmlns="http://www.w3.org/2000/svg" xmlns:xlink="http://www.w3.org/1999/xlink">
    <!-- Generator: Sketch 45.1 (43504) - http://www.bohemiancoding.com/sketch -->
    <title>wordpress</title>
    <desc>Created with Sketch.</desc>
    <defs></defs>
    <g id="A1.01.3-SE-Web---Home-(short)" stroke="none" stroke-width="1" fill="none" fill-rule="evenodd">
        <g id="wordpress">
            <rect id="bounds" fill-opacity="0" fill="#D8D8D8" x="0" y="0" width="48" height="48"></rect>
            <path d="M24.5,41 C15.3873016,41 8,33.6126984 8,24.5 C8,15.3873016 15.3873016,8 24.5,8 C33.6126984,8 41,15.3873016 41,24.5 C41,33.6126984 33.6126984,41 24.5,41 Z M24.5,39.5 C32.7842712,39.5 39.5,32.7842712 39.5,24.5 C39.5,16.2157288 32.7842712,9.5 24.5,9.5 C16.2157288,9.5 9.5,16.2157288 9.5,24.5 C9.5,32.7842712 16.2157288,39.5 24.5,39.5 Z" id="Combined-Shape" fill="#7B8397" fill-rule="nonzero"></path>
            <path d="M33.5005306,19.5568498 C33.5004757,19.5579208 33.500436,19.5587572 33.5003927,19.5609666 C33.5004321,19.55973 33.5004763,19.5584384 33.5005306,19.5568498 Z M33.5009004,19.6424213 C33.5007702,19.639313 33.5007103,19.6379173 33.5006566,19.636663 C33.5007336,19.639929 33.5007966,19.6408701 33.5009004,19.6424213 Z M24.8190655,19.0754755 L26.0787497,19.0754755 L26.4578752,19.0754755 C26.3683838,19.2237401 26.3157758,19.4003592 26.3157758,19.5942988 C26.3157758,20.0918886 26.6620584,20.4754161 27.0890391,20.5586424 L27.0962726,20.5754755 L25.4636428,20.5754755 L24.8190655,19.0754755 Z M17.2598005,19.0754755 L18.7210433,19.0754755 C18.6315519,19.2237401 18.578944,19.4003592 18.578944,19.5942988 C18.578944,20.1581077 19.0235257,20.5754755 19.5263362,20.5754755 L17.9043856,20.5754755 L17.2598005,19.0754755 Z M17.9043856,20.5754755 L16.4023061,20.5754755 L21.1788588,31.6911499 L21.9000491,29.8736975 L17.9043856,20.5754755 Z M25.4636428,20.5754755 L23.9616968,20.5754755 L25.872981,25.0232428 L28.7726552,31.771389 L29.4798856,29.9216998 L25.4636428,20.5754755 Z M33.5036747,19.5047679 C33.5016942,19.5396183 33.5007678,19.5559182 33.5003238,19.5653866 C33.4999296,19.5744075 33.4999122,19.57738 33.4998825,19.5824727 C33.4999867,19.5790454 33.500111,19.572361 33.5002082,19.5679478 C33.5002581,19.5703213 33.500167,19.5787444 33.5,19.5941772 C33.5002273,19.609997 33.5003512,19.6185867 33.5004453,19.6247004 C33.5006605,19.6342008 33.5007664,19.6361637 33.5008935,19.6385166 C33.5004433,19.6248931 33.5004339,19.6246099 33.5004247,19.624329 C33.4997329,19.6033484 33.4994693,19.5949784 33.4993696,19.5895845 C33.4994399,19.6015833 33.4995792,19.6090783 33.5004247,19.624329 C33.5012788,19.639657 33.5027852,19.6620451 33.5055507,19.7031461 L33.4997499,19.5919478 C33.4991854,19.5772548 33.4991605,19.5759106 33.4991328,19.5745668 C33.4873193,19.0023387 32.9435245,18.5 32.2368319,18.5 C31.5212445,18.5 30.9736638,19.0140953 30.9736638,19.594238 C30.9736638,19.9988797 31.5224999,21.4296571 32.2364669,23.0364563 C32.9215915,21.4908976 33.4444622,20.1190837 33.4991328,19.5745668 C33.502159,19.5412587 33.5032606,19.5224022 33.5036747,19.5047679 Z M22.7994767,28.5859412 L24.2501511,25.0460474 L22.130386,20.1131221 L21.7368966,20.1131221 C21.6605515,20.1131221 21.2765955,19.9950724 21.2863177,19.594238 C21.29604,19.1934036 21.6605464,19.0754755 21.7368966,19.0754755 L27.2631681,19.0754755 C27.5683231,19.0754755 27.8305439,19.1879432 27.8157758,19.5942988 C27.7937245,19.940181 27.4876628,20.1131221 26.8975909,20.1131221 L29.6272145,26.4652467 L30.236669,27.883512 L30.4770098,28.4428107 L30.6944123,27.8742029 L31.2457,26.4323314 L31.6568949,25.3568671 C31.1516924,24.3050537 29.4736638,20.725398 29.4736638,19.594238 C29.4736638,18.1637499 30.7132588,17 32.2368319,17 C33.7499137,17 34.9823202,18.1479413 34.9991581,19.5648098 C34.9774631,20.7249724 33.4593947,24.0094952 32.8883948,25.2071726 L29.2754943,34.6563472 C29.1945428,34.8680597 28.9819964,35 28.7553968,35 C28.6934203,35 28.6304723,34.9901501 28.5686901,34.9694166 C28.2843882,34.8735319 28.1355669,34.5815 28.232644,34.3140321 L24.8632458,26.4730698 L23.5530706,29.7823471 L23.4110216,28.6982313 L22.7994767,28.5859412 Z M24.0794281,28.4483481 L21.6845048,34.4837304 C21.6016104,34.6925244 21.390683,34.8215462 21.1665443,34.8215462 C21.1024307,34.8215462 21.0372809,34.8110275 20.9736853,34.7887739 C20.7160651,34.6986654 20.573137,34.4472492 20.6251403,34.2019132 L14.5709999,20.1131221 C14.2474527,20.1131221 14,19.8808585 14,19.5942988 C14,19.3077999 14.247388,19.0754755 14.5526077,19.0754755 L19.5263362,19.0754755 C19.6026814,19.0754755 20,19.1724118 20,19.5942988 C20,19.8755568 19.7794448,20.0484979 19.3383343,20.1131221 L22.9097228,28.4240229 L23.1383128,27.8479597 L23.8173297,27.8384162 L24.0794281,28.4483481 Z M23.4851008,27.0652827 L23.9556319,27.0586707 L24.2878649,27.831803 L23.8173297,27.8384162 L23.4851008,27.0652827 Z" id="Shape" fill="#7B8397" fill-rule="nonzero"></path>
        </g>
    </g>
</svg>