<?xml version="1.0" encoding="UTF-8"?>
<svg width="48px" height="48px" viewBox="0 0 48 48" version="1.1" xmlns="http://www.w3.org/2000/svg" xmlns:xlink="http://www.w3.org/1999/xlink">
    <!-- Generator: Sketch 45.1 (43504) - http://www.bohemiancoding.com/sketch -->
    <title>youtube</title>
    <desc>Created with Sketch.</desc>
    <defs></defs>
    <g id="A1.01.3-SE-Web---Home-(short)" stroke="none" stroke-width="1" fill="none" fill-rule="evenodd">
        <g id="youtube">
            <rect id="bounds" fill-opacity="0" fill="#D8D8D8" x="0" y="0" width="48" height="48"></rect>
            <path d="M39.6792832,18.1818112 C39.6792832,18.1818112 39.3585664,15.8363344 38.45,14.7999969 C37.2741191,13.4363591 35.9379102,13.4363591 35.35,13.3817988 C31.0207168,13.0545603 24.5,13 24.5,13 L24.5,13 C24.5,13 17.9792832,13.0545603 13.65,13.3817988 C13.0620898,13.4363591 11.7258809,13.4909195 10.55,14.7999969 C9.58791016,15.8363962 9.3207168,18.1818112 9.3207168,18.1818112 C9.3207168,18.1818112 9,20.963647 9,23.7454829 L9,26.3091392 C9,29.0909751 9.3207168,31.8182506 9.3207168,31.8182506 C9.3207168,31.8182506 9.64143359,34.1637274 10.55,35.2000649 C11.7258809,36.5637026 13.2758809,36.5091423 13.9707168,36.6728233 C16.4292832,36.9454397 24.5,37 24.5,37 C24.5,37 31.0207168,37 35.35,36.6182012 C35.9379102,36.5636409 37.2741191,36.5090805 38.45,35.2000031 C39.358627,34.1636656 39.6792832,31.8181888 39.6792832,31.8181888 C39.6792832,31.8181888 40,29.036353 40,26.3090774 L40,23.7454211 C40,20.963647 39.6792832,18.1818112 39.6792832,18.1818112" id="Combined-Shape" stroke="#7B8397" stroke-width="1.5" stroke-linecap="round" stroke-linejoin="round" fill-rule="nonzero"></path>
            <path d="M21.508627,21.2513407 L21.508627,29.6072059 C21.508627,29.7452771 21.6205558,29.8572059 21.758627,29.8572059 C21.8020004,29.8572059 21.8446277,29.8459215 21.8823203,29.8244614 L29.0513345,25.7428207 C29.1713214,25.6745068 29.2132106,25.5218588 29.1448967,25.4018719 C29.1235196,25.364325 29.0927766,25.3329592 29.0556659,25.3108336 L21.8866517,21.0366091 C21.7680587,20.965903 21.6146014,21.004723 21.5438953,21.123316 C21.520813,21.1620312 21.508627,21.2062667 21.508627,21.2513407 Z" id="Shape" stroke="#7B8397" stroke-width="1.5"></path>
        </g>
    </g>
</svg>