<?xml version="1.0" encoding="UTF-8" standalone="no"?>
<svg width="89px" height="24px" viewBox="0 0 89 24" version="1.1" xmlns="http://www.w3.org/2000/svg" xmlns:xlink="http://www.w3.org/1999/xlink">
    <!-- Generator: sketchtool 3.7.2 (28276) - http://www.bohemiancoding.com/sketch -->
    <title>E1E55A51-7B05-47A8-9648-F09D39A1B803</title>
    <desc>Created with sketchtool.</desc>
    <defs></defs>
    <g id="A-Landing" stroke="none" stroke-width="1" fill="none" fill-rule="evenodd">
        <g id="A04-Home-(Desktop)---Without-features" transform="translate(-859.000000, -3008.000000)" fill="#697289">
            <g id="Group-9" transform="translate(859.000000, 3008.000000)">
                <g id="Group-39">
                    <g id="Group-40">
                        <g id="Group-35">
                            <g id="Group-36">
                                <g id="icon-apple">
                                    <path d="M15.656,11.2147929 C15.6309545,8.59252959 17.9351364,7.31678994 18.0405,7.25658284 C16.7355455,5.46420118 14.7129091,5.21930473 14.0021364,5.20059172 C12.3033636,5.03217456 10.6555455,6.15821006 9.79018182,6.15821006 C8.90754545,6.15821006 7.57409091,5.21686391 6.13872727,5.24452663 C4.29140909,5.27137574 2.56154545,6.27943787 1.61327273,7.84482249 C-0.343727273,11.0366124 1.11581818,15.727071 2.99077273,18.3070266 C3.92868182,19.5705621 5.02463636,20.9813609 6.45827273,20.9317308 C7.86168182,20.8764053 8.38590909,20.0880178 10.0803636,20.0880178 C11.7584091,20.0880178 12.2506818,20.9317308 13.7136818,20.9 C15.2198636,20.8764053 16.1681364,19.6307692 17.0732273,18.3558432 C18.1570909,16.9068047 18.5923636,15.4805473 18.6096364,15.4073225 C18.5742273,15.3967456 15.6845,14.3577663 15.656,11.2147929" id="Fill-5"></path>
                                    <path d="M12.8923636,3.50340237 C13.6463182,2.61412722 14.1627727,1.40428994 14.0194091,0.176553254 C12.9269091,0.222115385 11.5606364,0.887647929 10.7747273,1.75821006 C10.0786364,2.52463018 9.45681818,3.7808432 9.61745455,4.96220414 C10.8446818,5.04844675 12.1047273,4.37884615 12.8923636,3.50340237" id="Fill-6"></path>
                                </g>
                                <text id="App-Store" font-family="MyriadPro-Regular, Myriad Pro" font-size="16" font-weight="normal" letter-spacing="-0.56651777">
                                    <tspan x="27" y="17.7692308">App Store</tspan>
                                </text>
                            </g>
                        </g>
                    </g>
                </g>
            </g>
        </g>
    </g>
</svg>