<?xml version="1.0" encoding="UTF-8" standalone="no"?>
<svg width="89px" height="24px" viewBox="0 0 89 24" version="1.1" xmlns="http://www.w3.org/2000/svg" xmlns:xlink="http://www.w3.org/1999/xlink">
    <!-- Generator: sketchtool 3.7.2 (28276) - http://www.bohemiancoding.com/sketch -->
    <title>E1E55A51-7B05-47A8-9648-F09D39A1B803</title>
    <desc>Created with sketchtool.</desc>
    <defs></defs>
    <g id="A-Landing" stroke="none" stroke-width="1" fill="none" fill-rule="evenodd">
        <g id="A04-Home-(Desktop)---Without-features" transform="translate(-859.000000, -3008.000000)" fill="#697289">
            <g id="Group-9" transform="translate(859.000000, 3008.000000)">
                <g id="Group-39">
                    <g id="Group-40">
                        <g id="Group-35">
                            <g id="Group-36">
                                <g id="icon-apple">
                                    <path d="M15.656,11.2147929 C15.6309545,8.59252959 17.9351364,7.31678994 18.0405,7.25658284 C16.7355455,5.46420118 14.7129091,5.21930473 14.0021364,5.20059172 C12.3033636,5.03217456 10.6555455,6.15821006 9.79018182,6.15821006 C8.90754545,6.15821006 7.57409091,5.21686391 6.13872727,5.24452663 C4.29140909,5.27137574 2.56154545,6.27943787 1.61327273,7.84482249 C-0.343727273,11.0366124 1.11581818,15.727071 2.99077273,18.3070266 C3.92868182,19.5705621 5.02463636,20.9813609 6.45827273,20.9317308 C7.86168182,20.8764053 8.38590909,20.0880178 10.0803636,20.0880178 C11.7584091,20.0880178 12.2506818,20.9317308 13.7136818,20.9 C15.2198636,20.8764053 16.1681364,19.6307692 17.0732273,18.3558432 C18.1570909,16.9068047 18.5923636,15.4805473 18.6096364,15.4073225 C18.5742273,15.3967456 15.6845,14.3577663 15.656,11.2147929" id="Fill-5"></path>
                                    <path d="M12.8923636,3.50340237 C13.6463182,2.61412722 14.1627727,1.40428994 14.0194091,0.176553254 C12.9269091,0.222115385 11.5606364,0.887647929 10.7747273,1.75821006 C10.0786364,2.52463018 9.45681818,3.7808432 9.61745455,4.96220414 C10.8446818,5.04844675 12.1047273,4.37884615 12.8923636,3.50340237" id="Fill-6"></path>
                                </g>
                                <path d="M33.784,14.3772308 L34.936,17.7692308 L36.424,17.7692308 L32.744,6.98523077 L31.064,6.98523077 L27.4,17.7692308 L28.84,17.7692308 L29.96,14.3772308 L33.784,14.3772308 Z M30.248,13.2892308 L31.304,10.1692308 C31.512,9.51323077 31.688,8.84123077 31.832,8.21723077 L31.88,8.21723077 C32.04,8.84123077 32.2,9.48123077 32.424,10.1852308 L33.496,13.2892308 L30.248,13.2892308 Z M37.3934822,20.9372308 L38.8014822,20.9372308 L38.8014822,16.7292308 L38.8334822,16.7292308 C39.2974822,17.4972308 40.1774822,17.9452308 41.2174822,17.9452308 C43.0254822,17.9452308 44.7374822,16.5692308 44.7374822,13.7852308 C44.7374822,11.4332308 43.3294822,9.84923077 41.4414822,9.84923077 C40.1934822,9.84923077 39.2654822,10.3932308 38.7054822,11.3532308 L38.6734822,11.3532308 L38.5934822,10.0252308 L37.3294822,10.0252308 C37.3774822,10.7612308 37.3934822,11.5612308 37.3934822,12.5532308 L37.3934822,20.9372308 Z M38.8014822,13.2732308 C38.8014822,13.0972308 38.8494822,12.8892308 38.8814822,12.7132308 C39.1534822,11.6412308 40.0654822,10.9692308 41.0254822,10.9692308 C42.5134822,10.9692308 43.3134822,12.2972308 43.3134822,13.8492308 C43.3134822,15.6252308 42.4494822,16.8412308 40.9614822,16.8412308 C39.9694822,16.8412308 39.1054822,16.1692308 38.8654822,15.1932308 C38.8174822,15.0172308 38.8014822,14.8092308 38.8014822,14.6172308 L38.8014822,13.2732308 Z M45.9309645,20.9372308 L47.3389645,20.9372308 L47.3389645,16.7292308 L47.3709645,16.7292308 C47.8349645,17.4972308 48.7149645,17.9452308 49.7549645,17.9452308 C51.5629645,17.9452308 53.2749645,16.5692308 53.2749645,13.7852308 C53.2749645,11.4332308 51.8669645,9.84923077 49.9789645,9.84923077 C48.7309645,9.84923077 47.8029645,10.3932308 47.2429645,11.3532308 L47.2109645,11.3532308 L47.1309645,10.0252308 L45.8669645,10.0252308 C45.9149645,10.7612308 45.9309645,11.5612308 45.9309645,12.5532308 L45.9309645,20.9372308 Z M47.3389645,13.2732308 C47.3389645,13.0972308 47.3869645,12.8892308 47.4189645,12.7132308 C47.6909645,11.6412308 48.6029645,10.9692308 49.5629645,10.9692308 C51.0509645,10.9692308 51.8509645,12.2972308 51.8509645,13.8492308 C51.8509645,15.6252308 50.9869645,16.8412308 49.4989645,16.8412308 C48.5069645,16.8412308 47.6429645,16.1692308 47.4029645,15.1932308 C47.3549645,15.0172308 47.3389645,14.8092308 47.3389645,14.6172308 L47.3389645,13.2732308 Z M56.7979289,17.2252308 C57.3739289,17.6092308 58.5099289,17.9292308 59.5499289,17.9292308 C62.0939289,17.9292308 63.3099289,16.4732308 63.3099289,14.8252308 C63.3099289,13.2412308 62.3979289,12.3772308 60.5739289,11.6572308 C59.0859289,11.0812308 58.4299289,10.5852308 58.4299289,9.59323077 C58.4299289,8.85723077 58.9899289,7.97723077 60.4619289,7.97723077 C61.4379289,7.97723077 62.1579289,8.28123077 62.4939289,8.48923077 L62.8779289,7.33723077 C62.4139289,7.08123077 61.5979289,6.82523077 60.5099289,6.82523077 C58.4139289,6.82523077 57.0219289,8.07323077 57.0219289,9.75323077 C57.0219289,11.2572308 58.1099289,12.1852308 59.8699289,12.7932308 C61.3259289,13.3372308 61.9019289,13.9292308 61.9019289,14.9372308 C61.9019289,16.0252308 61.0699289,16.7612308 59.6459289,16.7612308 C58.6859289,16.7612308 57.7899289,16.4572308 57.1659289,16.0732308 L56.7979289,17.2252308 Z M64.9354111,8.60123077 L64.9354111,10.0252308 L63.7354111,10.0252308 L63.7354111,11.0972308 L64.9354111,11.0972308 L64.9354111,15.3052308 C64.9354111,16.2172308 65.0954111,16.9052308 65.4794111,17.3372308 C65.8154111,17.7052308 66.3434111,17.9292308 66.9994111,17.9292308 C67.5434111,17.9292308 67.9754111,17.8332308 68.2474111,17.7372308 L68.1834111,16.6652308 C67.9754111,16.7292308 67.7514111,16.7612308 67.3674111,16.7612308 C66.5834111,16.7612308 66.3114111,16.2172308 66.3114111,15.2572308 L66.3114111,11.0972308 L68.3274111,11.0972308 L68.3274111,10.0252308 L66.3114111,10.0252308 L66.3114111,8.16923077 L64.9354111,8.60123077 Z M72.4168934,17.9452308 C74.2568934,17.9452308 76.2568934,16.6972308 76.2568934,13.8172308 C76.2568934,11.4652308 74.7528934,9.84923077 72.5288934,9.84923077 C70.4008934,9.84923077 68.6888934,11.3692308 68.6888934,13.9612308 C68.6888934,16.4092308 70.3208934,17.9452308 72.4008934,17.9452308 L72.4168934,17.9452308 Z M72.4488934,16.8892308 C71.0888934,16.8892308 70.1288934,15.6092308 70.1288934,13.9132308 C70.1288934,12.4412308 70.8488934,10.9052308 72.4968934,10.9052308 C74.1608934,10.9052308 74.8168934,12.5532308 74.8168934,13.8652308 C74.8168934,15.6252308 73.8088934,16.8892308 72.4648934,16.8892308 L72.4488934,16.8892308 Z M77.4663756,17.7692308 L78.8743756,17.7692308 L78.8743756,13.6252308 C78.8743756,13.4012308 78.8903756,13.1772308 78.9223756,12.9692308 C79.1143756,11.9292308 79.8183756,11.1772308 80.8103756,11.1772308 C81.0023756,11.1772308 81.1463756,11.1932308 81.2903756,11.2092308 L81.2903756,9.88123077 C81.1623756,9.86523077 81.0503756,9.84923077 80.9063756,9.84923077 C79.9623756,9.84923077 79.0983756,10.5052308 78.7463756,11.5452308 L78.6983756,11.5452308 L78.6343756,10.0252308 L77.4023756,10.0252308 C77.4503756,10.7452308 77.4663756,11.5292308 77.4663756,12.4412308 L77.4663756,17.7692308 Z M88.1958578,14.1532308 C88.2278578,13.9932308 88.2438578,13.7852308 88.2438578,13.4972308 C88.2438578,12.0732308 87.5878578,9.84923077 85.0598578,9.84923077 C82.8038578,9.84923077 81.4118578,11.6892308 81.4118578,14.0252308 C81.4118578,16.3452308 82.8518578,17.9292308 85.2198578,17.9292308 C86.4518578,17.9292308 87.3158578,17.6572308 87.8118578,17.4332308 L87.5558578,16.4252308 C87.0438578,16.6492308 86.4198578,16.8252308 85.4118578,16.8252308 C84.0038578,16.8252308 82.8038578,16.0412308 82.7718578,14.1532308 L88.1958578,14.1532308 Z M82.7878578,13.1452308 C82.8998578,12.1692308 83.5078578,10.8572308 84.9478578,10.8572308 C86.5158578,10.8572308 86.8998578,12.2492308 86.8838578,13.1452308 L82.7878578,13.1452308 Z" id="App-Store"></path>
                            </g>
                        </g>
                    </g>
                </g>
            </g>
        </g>
    </g>
</svg>