<?xml version="1.0" encoding="UTF-8" standalone="no"?>
<svg width="17px" height="17px" viewBox="0 0 17 17" version="1.1" xmlns="http://www.w3.org/2000/svg" xmlns:xlink="http://www.w3.org/1999/xlink">
    <!-- Generator: sketchtool 3.6.1 (26313) - http://www.bohemiancoding.com/sketch -->
    <title>icon-bullet-3</title>
    <desc>Created with sketchtool.</desc>
    <defs></defs>
    <g id="A-Landing" stroke="none" stroke-width="1" fill="none" fill-rule="evenodd">
        <g id="A01-Home-(Desktop)" transform="translate(-735.000000, -2842.000000)" fill="#697289">
            <g id="Group-44" transform="translate(0.000000, 2496.000000)">
                <g id="Group-43" transform="translate(735.000000, 198.000000)">
                    <g id="Group-5" transform="translate(0.000000, 146.000000)">
                        <path d="M11.3129903,10.4849731 L13.8990543,7.89890903 C14.6802794,7.117684 14.6802794,5.85255285 13.8990543,5.07132783 C13.1178293,4.29010281 11.8518263,4.29010281 11.0706012,5.07132783 L8.48453716,7.65739191 L5.89847307,5.07132783 C5.11724805,4.29010281 3.8521169,4.29010281 3.07089188,5.07132783 C2.28966685,5.85255285 2.28966685,7.117684 3.07089188,7.89890903 L5.65695596,10.4849731 L3.07089188,13.0710372 C2.28966685,13.8522622 2.28966685,15.1173934 3.07089188,15.8986184 C3.46150439,16.2892309 3.97331141,16.4845372 4.48511843,16.4845372 C4.99692545,16.4845372 5.50873246,16.2892309 5.89847307,15.8986184 L8.48453716,13.3134262 L11.0706012,15.8986184 C11.4612138,16.2892309 11.9730208,16.4845372 12.4848278,16.4845372 C12.9966348,16.4845372 13.5084418,16.2892309 13.8990543,15.8986184 C14.6802794,15.1173934 14.6802794,13.8522622 13.8990543,13.0710372 L11.3129903,10.4849731 Z" id="icon-bullet-3" transform="translate(8.484973, 10.484973) rotate(-45.000000) translate(-8.484973, -10.484973) "></path>
                    </g>
                </g>
            </g>
        </g>
    </g>
</svg>