<?xml version="1.0" encoding="UTF-8" standalone="no"?>
<svg width="24px" height="24px" viewBox="0 0 24 24" version="1.1" xmlns="http://www.w3.org/2000/svg" xmlns:xlink="http://www.w3.org/1999/xlink">
    <!-- Generator: sketchtool 3.6.1 (26313) - http://www.bohemiancoding.com/sketch -->
    <title>icon-features-styling</title>
    <desc>Created with sketchtool.</desc>
    <defs></defs>
    <g id="A-Landing" stroke="none" stroke-width="1" fill="none" fill-rule="evenodd">
        <g id="A01-Home-(Desktop)" transform="translate(-737.000000, -4338.000000)">
            <g id="Group-42" transform="translate(0.000000, 4088.000000)">
                <g id="Group-18" transform="translate(135.000000, 174.000000)">
                    <g id="icon-features-styling" transform="translate(600.000000, 72.000000)">
                        <g id="ic_color_lens">
                            <path d="M0,0 L32,0 L32,32 L0,32 L0,0 Z" id="Bounds" fill-opacity="0.100000001" fill="#D0011B" opacity="0"></path>
                            <path d="M14,4 C7.37333333,4 2,9.37333333 2,16 C2,22.6266667 7.37333333,28 14,28 C15.1066667,28 16,27.1066667 16,26 C16,25.48 15.8,25.0133333 15.48,24.6533333 C15.1733333,24.3066667 14.9733333,23.84 14.9733333,23.3333333 C14.9733333,22.2266667 15.8666667,21.3333333 16.9733333,21.3333333 L19.3333333,21.3333333 C23.0133333,21.3333333 26,18.3466667 26,14.6666667 C26,8.77333333 20.6266667,4 14,4 L14,4 Z M6.66666667,16 C5.56,16 4.66666667,15.1066667 4.66666667,14 C4.66666667,12.8933333 5.56,12 6.66666667,12 C7.77333333,12 8.66666667,12.8933333 8.66666667,14 C8.66666667,15.1066667 7.77333333,16 6.66666667,16 L6.66666667,16 Z M10.6666667,10.6666667 C9.56,10.6666667 8.66666667,9.77333333 8.66666667,8.66666667 C8.66666667,7.56 9.56,6.66666667 10.6666667,6.66666667 C11.7733333,6.66666667 12.6666667,7.56 12.6666667,8.66666667 C12.6666667,9.77333333 11.7733333,10.6666667 10.6666667,10.6666667 L10.6666667,10.6666667 Z M17.3333333,10.6666667 C16.2266667,10.6666667 15.3333333,9.77333333 15.3333333,8.66666667 C15.3333333,7.56 16.2266667,6.66666667 17.3333333,6.66666667 C18.44,6.66666667 19.3333333,7.56 19.3333333,8.66666667 C19.3333333,9.77333333 18.44,10.6666667 17.3333333,10.6666667 L17.3333333,10.6666667 Z M21.3333333,16 C20.2266667,16 19.3333333,15.1066667 19.3333333,14 C19.3333333,12.8933333 20.2266667,12 21.3333333,12 C22.44,12 23.3333333,12.8933333 23.3333333,14 C23.3333333,15.1066667 22.44,16 21.3333333,16 L21.3333333,16 Z" id="Icon-Shape" fill="#444F6C"></path>
                        </g>
                    </g>
                </g>
            </g>
        </g>
    </g>
</svg>