<?xml version="1.0" encoding="UTF-8" standalone="no"?>
<svg width="28px" height="20px" viewBox="0 0 28 20" version="1.1" xmlns="http://www.w3.org/2000/svg" xmlns:xlink="http://www.w3.org/1999/xlink">
    <!-- Generator: sketchtool 3.6.1 (26313) - http://www.bohemiancoding.com/sketch -->
    <title>icon-features-cloud-storage</title>
    <desc>Created with sketchtool.</desc>
    <defs></defs>
    <g id="A-Landing" stroke="none" stroke-width="1" fill="none" fill-rule="evenodd">
        <g id="A01-Home-(Desktop)" transform="translate(-437.000000, -5295.000000)">
            <g id="Group-42" transform="translate(0.000000, 4088.000000)">
                <g id="Group-41" transform="translate(135.000000, 1129.000000)">
                    <g id="icon-features-cloud-storage" transform="translate(300.000000, 72.000000)">
                        <g id="ic_cloud">
                            <path d="M0,0 L32,0 L32,32 L0,32 L0,0 Z" id="Bounds" fill-opacity="0.100000001" fill="#D0011B" opacity="0"></path>
                            <path d="M24.575,13.7133333 C23.7816667,9.68833333 20.2466667,6.66666667 16,6.66666667 C12.6283333,6.66666667 9.7,8.58 8.24166667,11.38 C4.73,11.7533333 2,14.7283333 2,18.3333333 C2,22.195 5.13833333,25.3333333 9,25.3333333 L24.1666667,25.3333333 C27.3866667,25.3333333 30,22.72 30,19.5 C30,16.42 27.6083333,13.9233333 24.575,13.7133333 L24.575,13.7133333 Z" id="Icon-Shape" fill="#444F6C"></path>
                        </g>
                    </g>
                </g>
            </g>
        </g>
    </g>
</svg>