<?xml version="1.0" standalone="no"?><!-- Generator: Gravit.io --><svg xmlns="http://www.w3.org/2000/svg" xmlns:xlink="http://www.w3.org/1999/xlink" style="isolation:isolate" id="svg" width="128" height="128"><rect vector-effect="non-scaling-stroke" x="-1" y="-1" width="2" height="2" fill="rgba(0,0,0,0)" transform="matrix(64,0,0,64,64,64)" stroke-width="1" stroke="rgba(0,0,0)"/><circle vector-effect="non-scaling-stroke" cx="0" cy="0" r="1" fill="rgb(105,114,137)" transform="matrix(10.702293333333335,0,0,10.702293333333335,63.89952,63.92064)" stroke-width="1" stroke="rgba(0,0,0)"/><path d="M 63.5 42 C 77.90295870971102 42 91.28293870234769 44.02729268292683 101.37138203279274 47.4341512195122 C 113.52652463174181 51.53886829268292 121 57.761073170731706 121 63.39512195121951 C 121 69.26640487804879 113.07939910970953 75.87623902439024 100.02658413319399 80.118556097561 C 90.15796148024737 83.32593658536585 77.17229017370704 85 63.5 85 C 49.48236897594281 85 36.20845032186566 83.42850731707316 26.23098649688919 80.08310731707319 C 13.604982874738289 75.84980975609756 6 69.15418536585366 6 63.39512195121952 C 6 57.80680000000002 13.135618684943529 51.632839024390265 25.119908442140428 47.5342048780488 C 35.24598644110659 44.07134146341465 48.956338950022506 42 63.5 42 Z" style="fill:none;stroke:#697289;stroke-width:5.12;stroke-miterlimit:10;"/><path d="M 44.41559198859786 52.65406837545473 C 51.66433926394677 40.262884458562766 60.201958569620885 29.77705637395902 68.31024109501118 22.8207661775219 C 78.07964550337616 14.439494077980214 87.37662865777101 11.15693889522504 92.38907632643335 14.006477967632943 C 97.61263791615846 16.976004338886444 99.50706222414438 27.133725562045086 96.71195699374667 40.50901769637173 C 94.59866355943444 50.62150476970007 89.55261000129681 62.64019714291909 82.67158870886034 74.40298740090103 C 75.6167215650997 86.46287895283875 67.53816732655297 97.08780735734315 59.54018105379957 103.97975038289493 C 49.41942276252294 112.70123425721657 39.63515421073619 115.85721876720717 34.51133317759483 112.94439435841697 C 29.539600336566046 110.11779091127515 27.638067090421885 100.8562580086979 30.023223553694585 88.47271930022796 C 32.038499810370524 78.00940210708906 37.09597075403502 65.16651379259598 44.41559198859786 52.65406837545473 Z" style="fill:none;stroke:#697289;stroke-width:5.12;stroke-miterlimit:10;"/><path d="M 44.36279883706023 74.36173539130492 C 37.112650239644665 61.97375581101556 32.174445252043256 49.43637752001213 30.116018365542978 39.029896629193345 C 27.635851370682385 26.49166827440209 29.38941365516369 16.905073906961398 34.38369310444724 14.045246808698282 C 39.588090651528205 11.064923168507892 49.434637216103376 14.522132593680261 59.765443691144206 23.595713465155484 C 67.57633690538117 30.45572823307804 75.596918528054 40.77486506969558 82.47946787666446 52.534647510766256 C 89.53582657202145 64.59131472974236 94.82465807864682 76.80588129731103 96.88179589706246 87.08591519968762 C 99.4850688940068 100.094653861052 97.37787226497072 110.03423721639602 92.27273296040755 112.95760658280065 C 87.31905915579036 115.79426944284495 78.25433238455354 112.79099408038273 68.58847019650973 104.56343919376188 C 60.42157934622945 97.61183005269886 51.684061023812156 86.8708490613624 44.36279883706023 74.36173539130492 Z" style="fill:none;stroke:#697289;stroke-width:5.12;stroke-miterlimit:10;"/></svg>