<?xml version="1.0" encoding="UTF-8" standalone="no"?>
<svg width="15px" height="19px" viewBox="0 0 15 19" version="1.1" xmlns="http://www.w3.org/2000/svg" xmlns:xlink="http://www.w3.org/1999/xlink">
    <!-- Generator: sketchtool 3.6.1 (26313) - http://www.bohemiancoding.com/sketch -->
    <title>icon-reference</title>
    <desc>Created with sketchtool.</desc>
    <defs></defs>
    <g id="A-Landing" stroke="none" stroke-width="1" fill="none" fill-rule="evenodd">
        <g id="A01-Home-(Desktop)" transform="translate(-437.000000, -3898.000000)">
            <g id="Group-5" transform="translate(0.000000, 3132.000000)">
                <g id="Group-60" transform="translate(135.000000, 726.000000)">
                    <g id="icon-reference" transform="translate(298.000000, 37.000000)">
                        <path d="M0,0 L24,0 L24,24 L0,24 L0,0 Z" id="Bounds" fill-opacity="0.100000001" fill="#D0011B" opacity="0"></path>
                        <path d="M7,3 L16,3 C17.66,3 19,4.34 19,6 L19,19 C19,20.66 17.66,22 16,22 L7,22 C5.34,22 4,20.66 4,19 L4,6 C4,4.34 5.34,3 7,3 L7,3 Z M7,4 C5.9,4 5,4.9 5,6 L5,19 C5,20.1 5.9,21 7,21 L16,21 C17.1,21 18,20.1 18,19 L18,6 C18,4.9 17.1,4 16,4 L13,4 L13,10.7 L10,8.6 L7,10.7 L7,4 L7,4 Z M12,4 L8,4 L8,8.78 L10,7.38 L12,8.78 L12,4 L12,4 Z" id="Icon-Shape" fill="#8B92A3"></path>
                    </g>
                </g>
            </g>
        </g>
    </g>
</svg>