<?xml version="1.0" encoding="UTF-8" standalone="no"?>
<svg width="22px" height="22px" viewBox="0 0 22 22" version="1.1" xmlns="http://www.w3.org/2000/svg" xmlns:xlink="http://www.w3.org/1999/xlink">
    <!-- Generator: sketchtool 3.6.1 (26313) - http://www.bohemiancoding.com/sketch -->
    <title>icon-features-auto-updated</title>
    <desc>Created with sketchtool.</desc>
    <defs></defs>
    <g id="A-Landing" stroke="none" stroke-width="1" fill="none" fill-rule="evenodd">
        <g id="A01-Home-(Desktop)" transform="translate(-736.000000, -4973.000000)">
            <g id="Group-42" transform="translate(0.000000, 4088.000000)">
                <g id="Group-40" transform="translate(135.000000, 808.000000)">
                    <g id="icon-features-auto-updated" transform="translate(600.000000, 72.000000)">
                        <g id="ic_refresh">
                            <path d="M0,0 L32,0 L32,32 L0,32 L0,0 Z" id="Bounds" fill-opacity="0.100000001" fill="#D0011B" opacity="0"></path>
                            <path d="M12,5.33333333 C6.10666667,5.33333333 1.34666667,10.1066667 1.34666667,16 C1.34666667,21.8933333 6.10666667,26.6666667 12,26.6666667 C16.9733333,26.6666667 21.12,23.2666667 22.3066667,18.6666667 L19.5333333,18.6666667 C18.44,21.7733333 15.48,24 12,24 C7.58666667,24 4,20.4133333 4,16 C4,11.5866667 7.58666667,8 12,8 C14.2133333,8 16.1866667,8.92 17.6266667,10.3733333 L14.7510299,13.2489701 C13.9680577,14.0319423 14.2282526,14.6666667 15.3355675,14.6666667 L21.6678365,14.6666667 C22.2194752,14.6666667 22.6666667,14.2165006 22.6666667,13.6678365 L22.6666667,7.33556749 C22.6666667,6.2297641 22.0325899,5.96741009 21.2466838,6.75331624 L19.5333333,8.46666667 C17.6,6.53333333 14.9466667,5.33333333 12,5.33333333 Z" id="Icon-Shape" fill="#444F6C"></path>
                        </g>
                    </g>
                </g>
            </g>
        </g>
    </g>
</svg>