<?xml version="1.0" encoding="UTF-8" standalone="no"?>
<svg width="24px" height="24px" viewBox="0 0 24 24" version="1.1" xmlns="http://www.w3.org/2000/svg" xmlns:xlink="http://www.w3.org/1999/xlink">
    <!-- Generator: sketchtool 3.6.1 (26313) - http://www.bohemiancoding.com/sketch -->
    <title>icon-features-analytics</title>
    <desc>Created with sketchtool.</desc>
    <defs></defs>
    <g id="A-Landing" stroke="none" stroke-width="1" fill="none" fill-rule="evenodd">
        <g id="A01-Home-(Desktop)" transform="translate(-137.000000, -4657.000000)">
            <g id="Group-42" transform="translate(0.000000, 4088.000000)">
                <g id="Group-36" transform="translate(135.000000, 493.000000)">
                    <g id="icon-features-analytics" transform="translate(0.000000, 72.000000)">
                        <g id="ic_assessment">
                            <path d="M0,0 L32,0 L32,32 L0,32 L0,0 Z" id="Bounds" fill-opacity="0.100000001" fill="#D0011B" opacity="0"></path>
                            <path d="M5,4 C3.2,4 2,5.2 2,7 L2,25 C2,26.8 3.2,28 5,28 L23,28 C24.8,28 26,26.8 26,25 L26,7 C26,5.2 24.8,4 23,4 L5,4 Z M10,22 L7,22 L7,13 L10,13 L10,22 L10,22 Z M16,22 L13,22 L13,9 L16,9 L16,22 L16,22 Z M22,22 L19,22 L19,17 L22,17 L22,22 L22,22 Z" id="Icon-Shape" fill="#444F6C"></path>
                        </g>
                    </g>
                </g>
            </g>
        </g>
    </g>
</svg>