<?xml version="1.0" encoding="UTF-8" standalone="no"?>
<svg width="22px" height="23px" viewBox="0 0 22 23" version="1.1" xmlns="http://www.w3.org/2000/svg" xmlns:xlink="http://www.w3.org/1999/xlink">
    <!-- Generator: sketchtool 3.6.1 (26313) - http://www.bohemiancoding.com/sketch -->
    <title>icon-features-push-notifications</title>
    <desc>Created with sketchtool.</desc>
    <defs></defs>
    <g id="A-Landing" stroke="none" stroke-width="1" fill="none" fill-rule="evenodd">
        <g id="A01-Home-(Desktop)" transform="translate(-437.000000, -4657.000000)">
            <g id="Group-42" transform="translate(0.000000, 4088.000000)">
                <g id="Group-36" transform="translate(135.000000, 493.000000)">
                    <g id="icon-features-push-notifications" transform="translate(297.000000, 71.000000)">
                        <g id="ic_notifications_active" transform="translate(16.904389, 16.676174) rotate(-15.000000) translate(-16.904389, -16.676174) translate(3.404389, 3.676174)">
                            <path d="M0.479957896,0.141620173 L26.0799579,0.141620173 L26.0799579,25.7416202 L0.479957896,25.7416202 L0.479957896,0.141620173 Z" id="Bounds" fill-opacity="0.100000001" fill="#D0011B" opacity="0"></path>
                            <path d="M8.56529123,4.49362017 L7.0399579,2.96828684 C4.4799579,4.92028684 2.79462456,7.92828684 2.64529123,11.3416202 L4.77862456,11.3416202 C4.93862456,8.51495351 6.38929123,6.04028684 8.56529123,4.49362017 L8.56529123,4.49362017 Z M21.7812912,11.3416202 L23.9146246,11.3416202 C23.7546246,7.92828684 22.0692912,4.92028684 19.5199579,2.96828684 L18.0052912,4.49362017 C20.1599579,6.04028684 21.6212912,8.51495351 21.7812912,11.3416202 L21.7812912,11.3416202 Z M19.6799579,11.8749535 C19.6799579,8.60028684 17.9306246,5.85895351 14.8799579,5.13362017 L14.8799579,4.40828684 C14.8799579,3.52295351 14.1652912,2.80828684 13.2799579,2.80828684 C12.3946246,2.80828684 11.6799579,3.52295351 11.6799579,4.40828684 L11.6799579,5.13362017 C8.61862456,5.85895351 6.8799579,8.58962017 6.8799579,11.8749535 L6.8799579,17.2082868 L4.74662456,19.3416202 L4.74662456,20.4082868 L21.8132912,20.4082868 L21.8132912,19.3416202 L19.6799579,17.2082868 L19.6799579,11.8749535 L19.6799579,11.8749535 Z M13.2799579,23.6082868 C13.4292912,23.6082868 13.5679579,23.5976202 13.7066246,23.5656202 C14.3999579,23.4162868 14.9652912,22.9469535 15.2426246,22.3069535 C15.3492912,22.0509535 15.4026246,21.7736202 15.4026246,21.4749535 L11.1359579,21.4749535 C11.1466246,22.6482868 12.0959579,23.6082868 13.2799579,23.6082868 L13.2799579,23.6082868 Z" id="Icon-Shape" fill="#444F6C"></path>
                        </g>
                    </g>
                </g>
            </g>
        </g>
    </g>
</svg>