<?xml version="1.0" encoding="UTF-8" standalone="no"?>
<svg width="12px" height="12px" viewBox="0 0 12 12" version="1.1" xmlns="http://www.w3.org/2000/svg" xmlns:xlink="http://www.w3.org/1999/xlink">
    <!-- Generator: sketchtool 3.7.2 (28276) - http://www.bohemiancoding.com/sketch -->
    <title>E76E5958-D6D7-4054-8AA1-CA1CFF53A2C4</title>
    <desc>Created with sketchtool.</desc>
    <defs></defs>
    <g id="A-Landing" stroke="none" stroke-width="1" fill="none" fill-rule="evenodd">
        <g id="A04-Home-(Desktop)---Without-features" transform="translate(-1008.000000, -1717.000000)" fill="#697289">
            <g id="Step-1---1" transform="translate(0.000000, 1330.000000)">
                <g id="Group-5" transform="translate(1006.000000, 336.000000)">
                    <path d="M10.8280171,56.999564 L13.4140812,54.4135 C14.1953063,53.6322749 14.1953063,52.3671438 13.4140812,51.5859188 C12.6328562,50.8046937 11.3668532,50.8046937 10.5856281,51.5859188 L7.99956405,54.1719829 L5.41349996,51.5859188 C4.63227494,50.8046937 3.36714379,50.8046937 2.58591877,51.5859188 C1.80469374,52.3671438 1.80469374,53.6322749 2.58591877,54.4135 L5.17198285,56.999564 L2.58591877,59.5856281 C1.80469374,60.3668532 1.80469374,61.6319843 2.58591877,62.4132093 C2.97653128,62.8038218 3.4883383,62.9991281 4.00014532,62.9991281 C4.51195234,62.9991281 5.02375935,62.8038218 5.41349996,62.4132093 L7.99956405,59.8280171 L10.5856281,62.4132093 C10.9762406,62.8038218 11.4880477,62.9991281 11.9998547,62.9991281 C12.5116617,62.9991281 13.0234687,62.8038218 13.4140812,62.4132093 C14.1953063,61.6319843 14.1953063,60.3668532 13.4140812,59.5856281 L10.8280171,56.999564 Z" id="icon-bullet-4" transform="translate(8.000000, 56.999564) rotate(-90.000000) translate(-8.000000, -56.999564) "></path>
                </g>
            </g>
        </g>
    </g>
</svg>