<?xml version="1.0" encoding="UTF-8" standalone="no"?>
<svg width="27px" height="27px" viewBox="0 0 27 27" version="1.1" xmlns="http://www.w3.org/2000/svg" xmlns:xlink="http://www.w3.org/1999/xlink">
    <!-- Generator: sketchtool 3.6.1 (26313) - http://www.bohemiancoding.com/sketch -->
    <title>icon-features-extendable</title>
    <desc>Created with sketchtool.</desc>
    <defs>
        <linearGradient x1="50%" y1="0%" x2="50%" y2="100%" id="linearGradient-1">
            <stop stop-color="#FF0000" stop-opacity="0.1" offset="0%"></stop>
            <stop stop-color="#FF0000" stop-opacity="0.2" offset="100%"></stop>
        </linearGradient>
    </defs>
    <g id="A-Landing" stroke="none" stroke-width="1" fill="none" fill-rule="evenodd">
        <g id="A01-Home-(Desktop)" transform="translate(-1036.000000, -4656.000000)">
            <g id="Group-42" transform="translate(0.000000, 4088.000000)">
                <g id="Group-36" transform="translate(135.000000, 493.000000)">
                    <g id="icon-features-extendable" transform="translate(900.000000, 72.000000)">
                        <g id="web-copy">
                            <path d="M0,-9.09494702e-13 L31.5675676,-9.09494702e-13 L31.5675676,32 L0,32 L0,-9.09494702e-13 Z" id="Bounds" fill="url(#linearGradient-1)" opacity="0"></path>
                            <path d="M26.609722,16.5282153 C26.609722,9.65047952 21.0901893,4.05479452 14.304861,4.05479452 C10.8306102,4.05479452 7.69019572,5.52448888 5.45071102,7.8797961 C5.4346612,7.89823507 5.41379643,7.91016617 5.40042158,7.93077443 C5.3993516,7.9324014 5.3993516,7.93348604 5.39828161,7.93511301 C3.29522037,10.1738209 2,13.1994389 2,16.5282153 C2,23.405951 7.51953264,29.001636 14.304861,29.001636 C17.7416622,29.001636 20.852652,27.564481 23.0867868,25.2531019 C23.1333313,25.2178509 23.1761308,25.1766344 23.2098354,25.1251137 C23.2109054,25.1234868 23.2109054,25.1218598 23.2114404,25.1207752 C25.3145016,22.8820673 26.609722,19.8564493 26.609722,16.5282153 L26.609722,16.5282153 Z M20.6568442,23.1385859 C21.3250517,21.3608523 21.7316471,19.2398285 21.7867515,17.0705379 L25.5140544,17.0705379 C25.3920757,19.7821511 24.3333227,22.2453805 22.6513017,24.1424251 C22.0323137,23.7617146 21.3651762,23.422763 20.6568442,23.1385859 L20.6568442,23.1385859 Z M5.95842028,24.1364596 C4.27639928,22.2399573 3.21764624,19.7821511 3.09566762,17.0705379 L6.82297051,17.0705379 C6.87807489,19.2398285 7.2846703,21.3662755 7.95287775,23.1445515 C7.24454575,23.4287285 6.57740829,23.7557491 5.95842028,24.1364596 L5.95842028,24.1364596 Z M5.95842028,8.91942861 C6.57740829,9.3001391 7.24454575,9.62770197 7.95287775,9.91187904 C7.2846703,11.6896127 6.87807489,13.816602 6.82297051,15.9858926 L3.09566762,15.9858926 C3.21764624,13.2742794 4.27639928,10.8164732 5.95842028,8.91942861 L5.95842028,8.91942861 Z M22.6513017,8.91997093 C24.3333227,10.8164732 25.3920757,13.2742794 25.5140544,15.9858926 L21.7867515,15.9858926 C21.7316471,13.816602 21.3250517,11.6896127 20.6568442,9.91187904 C21.3651762,9.62770197 22.0323137,9.3001391 22.6513017,8.91997093 L22.6513017,8.91997093 Z M20.7098086,15.9858926 L14.8398549,15.9858926 L14.8398549,11.0876345 C16.5411357,11.0399101 18.1750073,10.7541061 19.6681754,10.2741506 C20.2834184,11.9320309 20.6557742,13.816602 20.7098086,15.9858926 L20.7098086,15.9858926 Z M14.8398549,10.0029892 L14.8398549,5.18770652 C16.6117549,5.44856371 18.1824972,6.98333678 19.2540901,9.28224245 C17.8898555,9.71067734 16.3977573,9.95689182 14.8398549,10.0029892 L14.8398549,10.0029892 Z M13.769867,5.18770652 L13.769867,10.0029892 C12.2119646,9.95689182 10.7198665,9.71121966 9.3556319,9.28224245 C10.4272248,6.98333678 11.9979671,5.44856371 13.769867,5.18770652 L13.769867,5.18770652 Z M13.769867,11.0876345 L13.769867,15.9858926 L7.89991335,15.9858926 C7.95341274,13.816602 8.32630353,11.9320309 8.94154658,10.2741506 C10.4347147,10.7541061 12.0680513,11.0399101 13.769867,11.0876345 L13.769867,11.0876345 Z M7.89991335,17.0705379 L13.769867,17.0705379 L13.769867,21.968796 C12.0680513,22.0165204 10.4347147,22.3023244 8.94154658,22.7822799 C8.32576854,21.1238573 7.95341274,19.2398285 7.89991335,17.0705379 L7.89991335,17.0705379 Z M13.769867,23.0534413 L13.769867,27.868724 C11.9979671,27.6078668 10.4272248,26.0730937 9.3556319,23.774188 C10.7198665,23.3452108 12.2119646,23.0995387 13.769867,23.0534413 L13.769867,23.0534413 Z M14.8398549,27.868724 L14.8398549,23.0534413 C16.3972224,23.0995387 17.8898555,23.3452108 19.2540901,23.774188 C18.1824972,26.0730937 16.6117549,27.6078668 14.8398549,27.868724 L14.8398549,27.868724 Z M14.8398549,21.968796 L14.8398549,17.0705379 L20.7098086,17.0705379 C20.6557742,19.2398285 20.2839534,21.1238573 19.6681754,22.7822799 C18.1750073,22.3023244 16.5411357,22.0165204 14.8398549,21.968796 L14.8398549,21.968796 Z M21.8766305,8.13902633 C21.3641062,8.4378461 20.8168074,8.7014149 20.2395489,8.93190203 C19.6713854,7.70354125 18.9705433,6.65468926 18.1707273,5.84879782 C19.5547567,6.36563129 20.8087825,7.14766054 21.8766305,8.13902633 L21.8766305,8.13902633 Z M8.37017304,8.93190203 C7.79291456,8.7014149 7.24561574,8.4378461 6.73309153,8.13902633 C7.80093947,7.14766054 9.0549653,6.36563129 10.4389947,5.84879782 C9.6391787,6.65468926 8.93833662,7.70354125 8.37017304,8.93190203 L8.37017304,8.93190203 Z M6.73362652,24.9174042 C7.24561574,24.6185844 7.79291456,24.3550156 8.37017304,24.1245285 C8.93833662,25.3528893 9.6391787,26.4017412 10.4389947,27.2076327 C9.0549653,26.6907992 7.80093947,25.90877 6.73362652,24.9174042 L6.73362652,24.9174042 Z M21.8766305,24.9174042 C20.8087825,25.90877 19.5547567,26.6907992 18.1707273,27.2076327 C18.9705433,26.4017412 19.6713854,25.3528893 20.2395489,24.1245285 C20.8168074,24.3550156 21.3641062,24.6185844 21.8766305,24.9174042 Z" id="web" stroke="#444F6C" fill="#444F6C"></path>
                        </g>
                    </g>
                </g>
            </g>
        </g>
    </g>
</svg>