<?xml version="1.0" encoding="UTF-8" standalone="no"?>
<svg width="16px" height="24px" viewBox="0 0 16 24" version="1.1" xmlns="http://www.w3.org/2000/svg" xmlns:xlink="http://www.w3.org/1999/xlink">
    <!-- Generator: sketchtool 3.6.1 (26313) - http://www.bohemiancoding.com/sketch -->
    <title>icon-features-app-configuration</title>
    <desc>Created with sketchtool.</desc>
    <defs></defs>
    <g id="A-Landing" stroke="none" stroke-width="1" fill="none" fill-rule="evenodd">
        <g id="A01-Home-(Desktop)" transform="translate(-437.000000, -4972.000000)">
            <g id="Group-42" transform="translate(0.000000, 4088.000000)">
                <g id="Group-40" transform="translate(135.000000, 808.000000)">
                    <g id="icon-features-app-configuration" transform="translate(300.000000, 72.000000)">
                        <g id="ic_power">
                            <path d="M0,0 L32,0 L32,32 L0,32 L0,0 Z" id="Bounds" fill-opacity="0.100000001" fill="#D0011B" opacity="0"></path>
                            <path d="M15.3358412,5.00315921 C15.3344562,4.44912967 14.8929876,4 14.3403651,4 L13.6596349,4 C13.1112337,4 12.6666667,4.454717 12.6666667,5.00315921 L12.6666667,9.33333333 L7.33333333,9.33333333 L7.33333333,5.00315921 C7.33333333,4.44912967 6.89298757,4 6.34036509,4 L5.65963491,4 C5.11123369,4 4.66666667,4.454717 4.66666667,5.00315921 L4.66666667,9.33333333 C3.33333333,9.32 2,10.6533333 2,11.9866667 L2,19.3066667 L6.66666667,24 L6.66666667,26.9906311 C6.66666667,27.5480902 7.11443732,28 7.66473403,28 L12.335266,28 C12.8864834,28 13.3333333,27.5566468 13.3333333,26.9906311 L13.3333333,24 L18,19.32 L18,11.9866667 C18,10.6533333 16.6666667,9.32 15.3466667,9.33333333 L15.3358412,5.00315921 Z" id="Icon-Shape" fill="#444F6C"></path>
                        </g>
                    </g>
                </g>
            </g>
        </g>
    </g>
</svg>