<?xml version="1.0" encoding="UTF-8" standalone="no"?>
<svg width="170px" height="348px" viewBox="0 0 170 348" version="1.1" xmlns="http://www.w3.org/2000/svg" xmlns:xlink="http://www.w3.org/1999/xlink">
    <!-- Generator: sketchtool 3.7.2 (28276) - http://www.bohemiancoding.com/sketch -->
    <title>292D046F-FA5D-4CDB-9694-E028A0AF0A07</title>
    <desc>Created with sketchtool.</desc>
    <defs>
        <ellipse id="path-1" cx="85.2552553" cy="327.140351" rx="12.7627628" ry="12.7192982"></ellipse>
        <mask id="mask-2" maskContentUnits="userSpaceOnUse" maskUnits="objectBoundingBox" x="0" y="0" width="25.5255255" height="25.4385965" fill="white">
            <use xlink:href="#path-1"></use>
        </mask>
        <path d="M0,3.00909453 C0,1.34721751 1.33716678,0 3.00208978,0 L148.99791,0 C150.655919,0 152,1.34098906 152,3.00909453 L152,266.990905 C152,268.652782 150.662833,270 148.99791,270 L3.00208978,270 C1.34408138,270 0,268.659011 0,266.990905 L0,3.00909453 Z" id="path-3"></path>
        <rect id="path-5" x="0" y="0" width="62" height="74" rx="2"></rect>
        <mask id="mask-6" maskContentUnits="userSpaceOnUse" maskUnits="objectBoundingBox" x="0" y="0" width="62" height="74" fill="white">
            <use xlink:href="#path-5"></use>
        </mask>
    </defs>
    <g id="A-Landing" stroke="none" stroke-width="1" fill="none" fill-rule="evenodd">
        <g id="A04-Home-(Desktop)---Without-features" transform="translate(-1135.000000, -2321.000000)">
            <g id="image-device-with-extensions" transform="translate(1135.000000, 2321.000000)">
                <g id="Frame" fill="#D5E7F4">
                    <path d="M0,24.9399767 C0,11.1660079 11.1705951,0 24.9471148,0 L145.052885,0 C158.830796,0 170,11.160014 170,24.9399767 L170,323.060023 C170,336.833992 158.829405,348 145.052885,348 L24.9471148,348 C11.1692038,348 0,336.839986 0,323.060023 L0,24.9399767 Z M9,43.0335158 C9,41.910436 9.91184312,41 11.033779,41 L158.966221,41 C160.089446,41 161,41.9144462 161,43.0335158 L161,305.966484 C161,307.089564 160.088157,308 158.966221,308 L11.033779,308 C9.91055389,308 9,307.085554 9,305.966484 L9,43.0335158 Z" id="Rectangle-996"></path>
                    <use id="Oval-172" stroke="#697289" mask="url(#mask-2)" stroke-width="4" xlink:href="#path-1"></use>
                </g>
                <g id="Group-7" transform="translate(9.000000, 41.000000)">
                    <mask id="mask-4" fill="white">
                        <use xlink:href="#path-3"></use>
                    </mask>
                    <use id="Mask" fill="#444F6C" xlink:href="#path-3"></use>
                    <g id="Group-45" mask="url(#mask-4)">
                        <g transform="translate(10.000000, 9.000000)">
                            <rect id="Rectangle-36-Copy-4" fill="#BD10E0" x="0" y="0" width="62" height="74" rx="2.04845256"></rect>
                            <path d="M40.9428571,53 L21.0571429,53 C19.9229714,53 19,52.0822727 19,50.9545455 L19,25.0454545 C19,23.9177273 19.9229714,23 21.0571429,23 L40.9428571,23 C42.0770286,23 43,23.9177273 43,25.0454545 L43,50.9545455 C43,52.0822727 42.0770286,53 40.9428571,53 L40.9428571,53 Z M20,24.675 L20,51.325 C20,51.696925 20.3034839,52 20.6774194,52 L41.3225806,52 C41.6965161,52 42,51.696925 42,51.325 L42,24.675 C42,24.303075 41.6965161,24 41.3225806,24 L20.6774194,24 C20.3034839,24 20,24.303075 20,24.675 Z M31,49.253274 C27.2498286,49.253274 24.1997714,46.2240289 24.1997714,42.5009647 C24.1997714,38.7779006 27.2498286,35.7486554 31,35.7486554 C34.7501714,35.7486554 37.8002286,38.7779006 37.8002286,42.5009647 C37.8002286,46.2240289 34.7501714,49.253274 31,49.253274 L31,49.253274 Z M31,36.9973935 C27.9437714,36.9973935 25.4573714,39.4662725 25.4573714,42.5009647 C25.4573714,45.5356569 27.9437714,48.004536 31,48.004536 C34.0562286,48.004536 36.5426286,45.5356569 36.5426286,42.5009647 C36.5426286,39.4662725 34.0562286,36.9973935 31,36.9973935 L31,36.9973935 Z M33.0105143,42.5009647 C33.0105143,41.3986164 32.1101714,40.504618 31,40.504618 C29.8898286,40.504618 28.9894857,41.3986164 28.9894857,42.5009647 C28.9894857,43.6033131 29.8898286,44.4973115 31,44.4973115 C32.1101714,44.4973115 33.0105143,43.6033131 33.0105143,42.5009647 L33.0105143,42.5009647 Z M31,31.7491531 C29.4084571,31.7491531 28.1138286,30.4636474 28.1138286,28.8833197 C28.1138286,27.302992 29.4084571,26.0174863 31,26.0174863 C32.5915429,26.0174863 33.8861714,27.302992 33.8861714,28.8833197 C33.8861714,30.4636474 32.5915429,31.7491531 31,31.7491531 L31,31.7491531 Z M31,26.9829773 C29.9446857,26.9829773 29.0861714,27.8354419 29.0861714,28.8833197 C29.0861714,29.9311975 29.9446857,30.7836621 31,30.7836621 C32.0553143,30.7836621 32.9138286,29.9311975 32.9138286,28.8833197 C32.9138286,27.8354419 32.0553143,26.9829773 31,26.9829773 L31,26.9829773 Z" id="Imported-Layers-Copy-3" fill="#FFFFFF"></path>
                        </g>
                    </g>
                    <g id="Rectangle-36-Copy-4-+-News-+-Imported-Layers-Copy-6-Copy-Copy-Copy-Copy-Copy-Copy-+-Places-+-Imported-Layers-Copy" mask="url(#mask-4)">
                        <g transform="translate(10.000000, 173.000000)">
                            <g id="Rectangle-36-Copy-4-+-News-+-Imported-Layers-Copy-6-Copy-Copy-Copy-Copy-Copy-Copy">
                                <rect id="Rectangle-36-Copy-4" fill="#41BF56" x="0" y="0" width="62" height="74" rx="2.04845256"></rect>
                            </g>
                            <g id="Group-29" transform="translate(21.400000, 23.200000)">
                                <ellipse id="Oval-96" stroke="#FFFFFF" stroke-width="1.22907154" cx="9.28714599" cy="9.32739411" rx="3.09571533" ry="3.10913137"></ellipse>
                                <path d="M7.13271765,23.5502723 C7.79268443,24.6479777 8.6640688,26.1412185 8.6640688,26.1412185 C9.00818483,26.7286733 9.5713679,26.7236336 9.91573709,26.1410757 C9.91573709,26.1410757 10.8457815,24.5637738 11.5249295,23.4316995 C17.9214196,12.769368 18.574292,12.7560281 18.574292,9.32739411 C18.574292,4.17601659 14.4162951,0 9.28714599,0 C4.15799689,0 0,4.17601659 0,9.32739411 C0,13.1543542 1.49627099,14.1753192 7.13271765,23.5502723 Z" id="Oval-96" stroke="#FFFFFF" stroke-width="1.22907154"></path>
                            </g>
                        </g>
                    </g>
                    <g id="Rectangle-36-Copy-4-+-News-+-Imported-Layers-Copy-6-+-News-+-Imported-Layers-Copy-6" mask="url(#mask-4)">
                        <g transform="translate(10.000000, 91.000000)">
                            <g id="Rectangle-36-Copy-4-+-News-+-Imported-Layers-Copy-6" opacity="0.4" stroke-dasharray="5">
                                <use id="Rectangle-36-Copy-4" stroke="#FFFFFF" mask="url(#mask-6)" stroke-width="4" xlink:href="#path-5"></use>
                            </g>
                            <g id="ic_xml" transform="translate(17.000000, 22.501132)">
                                <polygon id="Bounds" fill-opacity="0.100000001" fill="#D0011B" opacity="0" points="0 0 29.7188672 0 29.7188672 29.6780722 0 29.6780722"></polygon>
                                <path d="M20.0230868,21.9370417 L19.1439036,21.0714312 L24.7657227,15.4573293 L19.1439036,9.84322727 L20.0230868,8.97761683 L26.5117061,15.4573293 L20.0230868,21.9370417 L20.0230868,21.9370417 Z M8.45749429,21.9370417 L1.96887495,15.4573293 L8.45749429,8.97761683 L9.33667744,9.84322727 L3.7148584,15.4573293 L9.33667744,21.0714312 L8.45749429,21.9370417 L8.45749429,21.9370417 Z M15.7633825,6.1829317 L17.0016686,6.1829317 L12.7171986,24.7317268 L11.4789124,24.7317268 L15.7633825,6.1829317 L15.7633825,6.1829317 Z" id="Icon-Shape" fill="#FFFFFF"></path>
                            </g>
                        </g>
                    </g>
                    <g id="Rectangle-36-Copy-4-+-News-+-Imported-Layers-Copy-6-+-News-+-Imported-Layers-Copy-6" mask="url(#mask-4)">
                        <g transform="translate(80.000000, 133.000000)">
                            <path d="M0,2.05641773 C0,0.92068958 0.924554735,0 2.04519162,0 L59.9548084,0 C61.0843365,0 62,0.908935878 62,2.05641773 L62,71.9435823 C62,73.0793104 61.0754453,74 59.9548084,74 L2.04519162,74 C0.915663476,74 0,73.0910641 0,71.9435823 L0,2.05641773 Z" id="Rectangle-36-Copy-4" fill="#58C6FB"></path>
                            <g id="bell" stroke-width="1" fill="none" transform="translate(20.474568, 24.590867)">
                                <path d="M11.1445752,1.85487951 C11.1445752,1.50863533 10.8721522,1.23658634 10.5254321,1.23658634 C10.178712,1.23658634 9.90628906,1.50863533 9.90628906,1.85487951 L9.90628906,3.74685661 C7.12014526,4.0560032 4.95314453,6.40551724 4.95314453,9.27439755 L4.95314453,16.5826228 L2.98426958,18.5487951 L18.0665947,18.5487951 L16.0977197,16.5826228 L16.0977197,9.27439755 C16.0977197,6.40551724 13.930719,4.0560032 11.1445752,3.74685661 L11.1445752,1.85487951 L11.1445752,1.85487951 Z M10.5254321,0 C11.5532096,0 12.3828613,0.828512848 12.3828613,1.85487951 L12.3828613,2.73285581 C15.2433023,3.53663693 17.3360059,6.1829317 17.3360059,9.27439755 L17.3360059,16.0756224 L21.0508643,19.7853814 L0,19.7853814 L3.7148584,16.0756224 L3.7148584,9.27439755 C3.7148584,6.1829317 5.80756196,3.53663693 8.66800293,2.73285581 L8.66800293,1.85487951 C8.66800293,0.828512848 9.49765464,0 10.5254321,0 L10.5254321,0 Z M10.5254321,23.4951405 C9.02710591,23.4951405 7.77643691,22.4316762 7.4916311,21.0219678 L8.77944868,21.0219678 C9.02710591,21.7391879 9.72054614,22.2585541 10.5254321,22.2585541 C11.3303181,22.2585541 12.0237583,21.7391879 12.2714156,21.0219678 L13.5592332,21.0219678 C13.2744273,22.4316762 12.0237583,23.4951405 10.5254321,23.4951405 L10.5254321,23.4951405 Z" id="Shape" fill="#FFFFFF"></path>
                            </g>
                        </g>
                    </g>
                    <g id="Rectangle-36-Copy-4-+-News-+-Imported-Layers-Copy-6-Copy-Copy-Copy-Copy-Copy-+-Radio-+-Imported-Layers-Copy-3" mask="url(#mask-4)">
                        <g transform="translate(80.000000, 215.000000)">
                            <g id="Rectangle-36-Copy-4-+-News-+-Imported-Layers-Copy-6-Copy-Copy-Copy-Copy-Copy">
                                <path d="M0,2.05641773 C0,0.92068958 0.924554735,0 2.04519162,0 L59.9548084,0 C61.0843365,0 62,0.908935878 62,2.05641773 L62,71.9435823 C62,73.0793104 61.0754453,74 59.9548084,74 L2.04519162,74 C0.915663476,74 0,73.0910641 0,71.9435823 L0,2.05641773 Z" id="Rectangle-36-Copy-4" fill="#8F8E94"></path>
                            </g>
                            <g id="Radio-+-Imported-Layers-Copy-3" transform="translate(6.191431, 21.609772)">
                                <text id="COMMUNITY" opacity="0.6" font-family="MuseoSans-700, Museo Sans" font-size="7.16958397" font-weight="500" letter-spacing="0.512113142" fill="#FFFFFF">
                                    <tspan x="0.412565615" y="44.5213687">COMMUNIT</tspan>
                                    <tspan x="45.2972339" y="44.5213687">Y</tspan>
                                </text>
                                <g id="Imported-Layers-Copy" transform="translate(8.401278, 0.784449)" fill="#FFFFFF">
                                    <path d="M5.80013224,22.5225653 C5.7506008,22.5225653 5.70045021,22.5170007 5.65091877,22.5046348 C4.35629061,22.1843589 3.34275341,21.752172 2.03759983,20.9626116 C1.97940038,20.9279872 1.90262664,20.8871799 1.81594661,20.8408079 C1.29648558,20.5619577 0.650719363,20.2150952 0.500267598,19.6493569 C0.434638433,19.4032763 0.474882732,19.1473029 0.611094206,18.9290454 C0.867419436,18.5203536 1.1745144,18.1326838 1.52494937,17.7759286 C2.17195388,17.1180647 2.95331243,16.5739667 3.86035702,16.1491993 C3.93589247,16.0564553 4.05291051,15.9686577 4.228128,15.8981723 C4.61571156,15.7423624 4.96490825,15.6020099 5.25776292,15.5544013 C5.55928559,15.3188316 5.72273936,14.9861899 5.80941939,14.7252701 C5.89981428,14.4532211 5.8930037,14.3746979 5.89238456,14.3666601 C5.87752513,14.3406918 5.7821771,14.2374368 5.70540336,14.1552038 C5.62367647,14.0674062 5.53142415,13.967861 5.42926555,13.8460572 C4.85841564,13.1696445 4.44482807,12.3516427 4.21946,11.4724298 C4.1160631,11.4903603 4.00399821,11.489742 3.88388445,11.4625371 C3.32603655,11.3351687 3.02389474,10.7317146 2.93226156,9.56314046 C2.80100323,7.88942085 3.15453392,7.74783171 3.38857,7.65446944 C3.44491202,7.63221089 3.50744547,7.61428039 3.57369378,7.60500599 C3.61827208,7.07389216 3.66285038,6.39624284 3.69566496,5.90902783 C3.76686642,4.81959526 3.79348957,4.454184 3.83249558,4.29342777 C4.12225454,3.0957939 5.09492829,2.02491013 6.43537303,1.42825722 C7.20682529,1.08510451 9.10697536,0.312238051 10.0740768,0.529877247 C10.4009844,0.604072427 10.6350204,0.788323792 10.8220017,0.936714153 C11.0015531,1.077685 11.0900906,1.14013261 11.1872961,1.14446066 C11.8442069,1.17537532 12.4788285,1.49008654 13.073825,2.08055652 C13.3115759,2.31612621 13.5183697,2.57333617 13.7072083,2.86578884 C13.8910938,3.15329517 13.8081287,3.53601864 13.5202271,3.72027 C13.2317065,3.90452137 12.8490761,3.82105179 12.6645714,3.53416376 C12.5252642,3.31837944 12.3741933,3.12918173 12.2008333,2.95791453 C11.8256326,2.58508374 11.4745784,2.39588603 11.1297158,2.37981041 C10.624495,2.35569698 10.29573,2.09663214 10.0548834,1.90681614 C9.96077365,1.83262096 9.8536619,1.74791479 9.8004156,1.73616722 C9.41716604,1.64836959 8.16525876,2.01130768 6.93935549,2.55787884 C5.94748829,2.99934017 5.23609291,3.7567493 5.0361097,4.58464386 C5.01629712,4.70150126 4.96862311,5.41562988 4.93085538,5.99002423 C4.73149131,9.01966076 4.72282331,9.14208281 4.15073512,9.23729996 C4.16126055,9.44875622 4.18107313,9.66948689 4.21017285,9.86177606 C4.35876719,9.70720277 4.58289698,9.64042711 4.79712048,9.68865397 C5.06273285,9.75110158 5.25528635,9.97925176 5.27386064,10.2506825 C5.34196638,11.293743 5.73388394,12.2873402 6.3759353,13.0496956 C6.46323447,13.1535689 6.54248478,13.2388934 6.61244795,13.3137068 C7.05699267,13.7922657 7.3046499,14.1521124 6.98455293,15.1147948 C6.72884684,15.8833332 6.22919839,16.4095007 5.57847903,16.7322498 C5.5493793,16.7464705 5.51966044,16.6939156 5.48870328,16.6939156 L5.48684585,16.6939156 C4.22936629,17.3122088 3.19353994,17.7691274 2.40908567,18.5673439 C2.17876445,18.801677 1.97197067,19.088565 1.79180003,19.3494848 C1.96268352,19.4780897 2.25615733,19.6543033 2.40165595,19.7322082 C2.51000599,19.7903278 2.60597317,19.8521571 2.6784129,19.8954376 C3.88388445,20.623787 4.77049733,21.007747 5.94810744,21.2995814 C6.28058726,21.3818144 6.48304705,21.7194025 6.40070102,22.0508076 C6.33073785,22.332131 6.07750834,22.5225653 5.80013224,22.5225653 Z M16.2215483,26.0975364 C13.6100029,26.0975364 11.0603717,25.3908273 8.84817356,24.0540775 C8.78997411,24.0194531 8.71320037,23.9786457 8.62652034,23.9322737 C8.10705931,23.6534235 7.46129309,23.306561 7.31084133,22.7408228 C7.24521216,22.4947421 7.28545646,22.2387687 7.42166794,22.0205113 C7.67799316,21.6118195 7.98508813,21.2241496 8.3355231,20.8673945 C8.98748075,20.2045842 9.77626902,19.6567765 10.6919816,19.2307725 C11.0015531,18.873399 11.706138,18.715116 12.0516198,18.6569964 C12.3698593,18.4121523 12.5345514,18.0739459 12.6199931,17.816736 C12.710388,17.544687 12.7035774,17.4661638 12.7029583,17.4581259 C12.6880989,17.4321576 12.5927508,17.329521 12.5159771,17.2466697 C12.4342502,17.1588721 12.3419979,17.0593269 12.2398393,16.9375231 C11.6689894,16.2604921 11.2547827,15.4418719 11.0294146,14.5620407 C10.9811214,14.5700786 10.93159,14.5750249 10.879582,14.5750249 C10.3440232,14.5750249 9.99049252,14.1496392 9.82827703,13.311852 C9.78431788,13.0818469 9.41778518,11.0581733 10.1991437,10.7459353 C10.2505326,10.7255316 10.3198766,10.7088377 10.3836484,10.7007999 C10.4288458,10.1684495 10.4734241,9.48894528 10.5062387,9.00049368 C10.5774401,7.91106111 10.6040633,7.54564985 10.6430693,7.38489362 C10.9328283,6.18787805 11.905502,5.11637598 13.2459468,4.51972307 C13.7406421,4.2996107 15.4370941,3.58053575 16.4846841,3.58053575 C16.6326593,3.58053575 16.7632985,3.5941382 16.8846506,3.6213431 C17.2115581,3.69553828 17.4455942,3.87978964 17.6325754,4.02818 C17.8121269,4.16915085 17.9006643,4.23159846 17.9978698,4.23592651 C18.6547806,4.26684117 19.1141847,4.83999893 19.8843987,5.17202237 C20.7672967,5.55227267 21.1152551,6.73939555 21.4464967,8.10891492 C21.5065535,8.35870537 21.6093313,8.59860312 21.699107,8.84282892 C21.880516,9.33622687 21.9263325,9.78758088 21.9709108,10.2240959 C21.9894851,10.4046375 22.0068211,10.5777596 22.0340634,10.7484085 C22.1882301,10.8022 22.2990567,10.8955622 22.3727347,10.9777952 C22.7386483,11.3889602 22.8606194,12.0245656 22.7169782,12.767754 C22.5912922,13.4212898 22.2061852,14.3023576 21.5350341,14.6374725 C21.3666272,14.7215604 21.3251446,14.8044117 21.1895523,15.1902266 C21.1158743,15.3979731 21.0248602,15.6564197 20.872551,15.9395979 C20.5660752,16.5078093 20.1555834,17.0315037 19.6720326,17.4717284 C19.9494087,18.4919121 20.9214634,19.012515 22.032206,19.6066947 C22.9466803,20.0963829 23.8933501,20.602765 24.5700734,21.4522998 C24.6257963,21.5227852 24.6796618,21.5852329 24.7279549,21.6414975 C24.9390827,21.8881965 25.1786911,22.167665 25.1297788,22.5763568 C25.0839622,22.96279 24.7948224,23.2187634 24.5186846,23.4178538 C23.8945884,23.8673529 23.2290096,24.2692435 22.538665,24.6130145 C21.1208274,25.3191053 19.6051652,25.7791154 18.0337801,25.9819156 C17.436307,26.0585839 16.8270703,26.0975364 16.2215483,26.0975364 Z M8.60237376,22.4780482 C8.77325725,22.6072715 9.06673106,22.7643179 9.21222968,22.8422229 C9.32057972,22.9009607 9.41654689,22.9528974 9.48898663,22.9961779 C11.5086313,24.2160703 13.8366092,24.8609501 16.2215483,24.8609501 C16.773824,24.8609501 17.3304336,24.8250891 17.8752795,24.7552219 C19.3092148,24.5703523 20.6923804,24.1505312 21.9863894,23.5062697 C22.6086282,23.1965049 23.2098161,22.8341851 23.7732363,22.429203 C23.7206092,22.3673737 23.6624097,22.2987432 23.6011145,22.2226931 C23.0828918,21.5722487 22.2885312,21.146863 21.4471158,20.6967456 C20.1171965,19.9850901 18.6108214,19.1782175 18.3823576,17.3091173 C18.3569728,17.0964244 18.4436528,16.8855865 18.6114406,16.7514169 C19.0900382,16.36993 19.4943386,15.8864247 19.781621,15.353456 C19.8887327,15.1549839 19.9556002,14.9639313 20.0212293,14.7796799 C20.175396,14.3425467 20.3499943,13.8466755 20.9815202,13.531346 C21.1294954,13.4577691 21.3994418,13.0602066 21.5009813,12.5340391 C21.5529893,12.263845 21.5412256,12.0604266 21.5077918,11.9330582 C21.2997598,11.8941057 20.9765671,11.7494251 20.8657405,11.238715 C20.7976347,10.9258586 20.7679159,10.6327876 20.7388161,10.3496094 C20.7010484,9.97245054 20.664519,9.61631367 20.5369755,9.2694512 C20.4428658,9.01347783 20.3568049,8.75626787 20.2713631,8.5002945 C19.9630299,7.57656451 19.6720326,6.70415284 19.011407,6.04938038 C18.6362063,5.67654959 18.2851522,5.48735188 17.9402895,5.47127626 C17.4350687,5.44716283 17.1063038,5.18809799 16.8654571,4.99828199 C16.7713474,4.92408681 16.6642356,4.83938064 16.6109893,4.82763307 C16.5936533,4.82392331 16.5546473,4.81712209 16.4846841,4.81712209 C15.8896877,4.81712209 14.6501632,5.24869072 13.7499292,5.64934469 C12.758062,6.09080602 12.0466666,6.84821515 11.8466834,7.67610971 C11.8268709,7.79296711 11.7791968,8.50709573 11.7414291,9.08149008 C11.542065,12.1111266 11.533397,12.2335487 10.9613088,12.3287658 C10.9718343,12.5402221 10.9916469,12.7609527 11.0207466,12.9532419 C11.1693409,12.7992869 11.3934707,12.7306564 11.6076942,12.7801198 C11.8733066,12.8425674 12.0658601,13.0707176 12.0844344,13.3421483 C12.1525401,14.3852089 12.5444577,15.378806 13.186509,16.1411615 C13.2744273,16.2450347 13.3530585,16.3303592 13.4230217,16.4051727 C13.8675664,16.8837316 14.1152236,17.2435782 13.7951267,18.2062607 C13.5579949,18.9185344 13.125833,19.47438 12.5450768,19.8138229 C12.5283599,19.8249522 12.4726371,19.8564852 12.3921485,19.8966742 C12.3909102,19.8972925 12.390291,19.8230973 12.3890528,19.8237156 C12.359953,19.8379364 12.3302342,19.7853814 12.299277,19.7853814 L12.2974196,19.7853814 C11.03994,20.4036746 10.0041137,20.8605933 9.2196594,21.6588097 C8.98933818,21.8931429 8.78254439,22.2177468 8.60237376,22.4780482 Z M26.5952904,22.6728105 C26.3098655,22.6728105 26.0535402,22.4749567 25.9903876,22.1855955 C25.918567,21.8517172 26.1309331,21.5227852 26.4652704,21.4504449 C27.4484696,21.2383704 28.1022846,20.9595202 29.1956913,20.4148039 C29.8160726,20.1056573 30.4172606,19.7439558 30.9831573,19.3383555 C30.9292919,19.2759079 30.8710924,19.2072773 30.8104164,19.130609 C30.2971468,18.4863475 29.5077394,18.0226276 28.6725154,17.5317028 C27.3141155,16.7334864 25.7749258,15.8289234 25.5464621,13.9542586 C25.5216963,13.7502218 25.6003275,13.5474216 25.7557324,13.4126337 C25.9117565,13.2778458 26.1228843,13.229619 26.3222483,13.2821739 C27.2701564,13.537529 28.2013475,13.9369463 28.9176961,14.2869003 C28.7802463,13.423763 28.7245234,12.3739012 28.6626091,11.232532 C28.5666419,9.44010012 28.4570536,7.40777047 27.9728837,6.19344268 C27.8478168,5.88058634 27.7400859,5.56463853 27.6329742,5.2505456 C27.3376429,4.38679004 27.0596477,3.57126135 26.4411238,2.95791453 C26.1668434,2.68586553 24.4022857,1.883321 23.8679652,1.883321 C23.8605355,1.883321 23.8537249,1.883321 23.8469143,1.88393929 C23.3169279,1.90681614 22.295961,2.14300413 21.5226513,2.42185435 C21.5220321,2.42185435 21.521413,2.42247264 21.5201747,2.42247264 C21.3938695,2.46822633 21.2787089,2.51336174 21.1808843,2.55726055 C20.6007472,2.8157071 20.0899542,3.20214033 19.7432341,3.64669312 C19.5327255,3.91565065 19.1432845,3.96449581 18.8733381,3.75427613 C18.6040109,3.54467474 18.5563368,3.15576834 18.7662263,2.88681081 C19.2429665,2.27593716 19.902973,1.77202823 20.6756636,1.42825722 C20.7982539,1.37384742 20.9425142,1.31634616 21.1022531,1.25884489 C21.1022531,1.25884489 21.1028723,1.25884489 21.1034914,1.2582266 C21.8768011,0.979376381 23.0488389,0.68074078 23.793668,0.648589535 C24.6660406,0.599126082 26.8082756,1.57850246 27.3141155,2.08055652 C28.1375758,2.89794009 28.4768662,3.89091892 28.8043929,4.85174651 C28.904694,5.14605405 29.0062335,5.44283478 29.1232516,5.73590574 C29.6823377,7.13881294 29.7925452,9.18659992 29.8990378,11.1663747 C29.9881944,12.8252552 30.0804467,14.5404005 30.4562666,15.2273242 C30.5906206,15.4727866 30.5429466,15.7782234 30.3398677,15.9711309 C30.1374079,16.1646566 29.8296938,16.1961896 29.5907046,16.051509 C29.5764643,16.0428529 28.5102999,15.3979731 27.2088612,14.8829349 C27.6738376,15.5105025 28.4483856,15.9655662 29.3003265,16.4663837 C30.1968456,16.9925512 31.1230837,17.5366492 31.7793753,18.360834 C31.8363365,18.4313194 31.8895828,18.4943853 31.9378759,18.55065 C32.1490037,18.797349 32.3886121,19.0768175 32.3390806,19.484891 C32.2926449,19.8713242 32.0041242,20.1272976 31.7279864,20.326388 C31.1020328,20.7765054 30.4358349,21.178396 29.748586,21.5215487 C28.7412403,22.0229844 27.9344969,22.3982884 26.7265487,22.6592081 C26.6825896,22.6684825 26.6386304,22.6728105 26.5952904,22.6728105 Z" id="Fill-1"></path>
                                </g>
                            </g>
                        </g>
                    </g>
                    <g id="Rectangle-36-Copy-4-+-News-+-Imported-Layers-Copy-6-+-News-+-Imported-Layers-Copy-6" mask="url(#mask-4)">
                        <g transform="translate(80.000000, 51.000000)">
                            <path d="M0,2.05641773 C0,0.92068958 0.924554735,0 2.04519162,0 L59.9548084,0 C61.0843365,0 62,0.908935878 62,2.05641773 L62,71.9435823 C62,73.0793104 61.0754453,74 59.9548084,74 L2.04519162,74 C0.915663476,74 0,73.0910641 0,71.9435823 L0,2.05641773 Z" id="Rectangle-36-Copy-4" fill="#FFFFFF"></path>
                            <g id="Imported-Layers-Copy-6" stroke-width="1" fill="none" transform="translate(18.574292, 27.178671)">
                                <path d="M21.6700073,19.1670883 L21.6700073,1.23658634 C21.8124102,0.412401544 21.6700073,0 20.4317212,0 L1.23828613,0 C0.554133044,0 0,0.553372387 0,1.23658634 L0,21.0219678 C0,21.7051817 0.863704577,22.2585541 1.54785767,22.2585541 L23.8370081,22.2585541 C24.5211611,22.2585541 24.7657227,21.7051817 24.7657227,21.0219678 L24.7657227,4.94634536 C24.7657227,4.26313141 24.5211611,3.70975902 23.8370081,3.70975902 L21.6700073,3.70975902" id="Stroke-1" stroke="#697289" stroke-width="1.22907154" stroke-linecap="round" stroke-linejoin="round"></path>
                                <path d="M4.33400146,4.32805219 L8.66800293,4.32805219 L8.66800293,8.03781121 L4.33400146,8.03781121 L4.33400146,4.32805219 Z M3.09571533,9.27439755 L9.90628906,9.27439755 L9.90628906,3.09146585 L3.09571533,3.09146585 L3.09571533,9.27439755 Z" id="Fill-2" fill="#697289"></path>
                                <polygon id="Fill-3" fill="#697289" points="11.7637183 5.56463853 18.574292 5.56463853 18.574292 6.80122487 11.7637183 6.80122487"></polygon>
                                <polygon id="Fill-4" fill="#697289" points="11.7637183 3.09146585 18.574292 3.09146585 18.574292 4.32805219 11.7637183 4.32805219"></polygon>
                                <polygon id="Fill-5" fill="#697289" points="11.7637183 8.03781121 18.574292 8.03781121 18.574292 9.27439755 11.7637183 9.27439755"></polygon>
                                <polygon id="Fill-6" fill="#697289" points="11.7637183 15.4573293 18.574292 15.4573293 18.574292 16.6939156 11.7637183 16.6939156"></polygon>
                                <polygon id="Fill-7" fill="#697289" points="11.7637183 17.9305019 18.574292 17.9305019 18.574292 19.1670883 11.7637183 19.1670883"></polygon>
                                <polygon id="Fill-8" fill="#697289" points="3.09571533 15.4573293 9.90628906 15.4573293 9.90628906 16.6939156 3.09571533 16.6939156"></polygon>
                                <polygon id="Fill-9" fill="#697289" points="3.09571533 17.9305019 9.90628906 17.9305019 9.90628906 19.1670883 3.09571533 19.1670883"></polygon>
                                <polygon id="Fill-10" fill="#697289" points="3.09571533 10.5109839 18.574292 10.5109839 18.574292 11.7475702 3.09571533 11.7475702"></polygon>
                                <polygon id="Fill-11" fill="#697289" points="3.09571533 12.9841566 18.574292 12.9841566 18.574292 14.2207429 3.09571533 14.2207429"></polygon>
                            </g>
                        </g>
                    </g>
                </g>
            </g>
        </g>
    </g>
</svg>