<?xml version="1.0" encoding="UTF-8" standalone="no"?>
<svg width="187px" height="33px" viewBox="0 0 187 33" version="1.1" xmlns="http://www.w3.org/2000/svg" xmlns:xlink="http://www.w3.org/1999/xlink">
    <!-- Generator: sketchtool 39.1 (31721) - http://www.bohemiancoding.com/sketch -->
    <title>F8C2E003-D7CE-40CE-BB50-E4A041274384</title>
    <desc>Created with sketchtool.</desc>
    <defs></defs>
    <g id="B-Shoutem-Developers" stroke="none" stroke-width="1" fill="none" fill-rule="evenodd">
        <g id="A04-Home-(Desktop)" transform="translate(-134.000000, -21.000000)">
            <g id="Main-Nav">
                <g id="logo-shoutem-for-developers" transform="translate(134.000000, 21.000000)">
                    <path d="M106.688,25.452 C106.688,27.964 108.064,29.692 110.256,29.692 C112.256,29.692 112.912,28.188 112.912,28.188 L112.944,28.188 C112.944,28.188 112.928,28.412 112.928,28.732 L112.928,29.5 L114.4,29.5 L114.4,18.204 L112.848,18.204 L112.848,21.948 C112.848,22.252 112.88,22.492 112.88,22.492 L112.848,22.492 C112.848,22.492 112.224,21.212 110.352,21.212 C108.208,21.212 106.688,22.876 106.688,25.452 L106.688,25.452 Z M108.272,25.452 C108.272,23.612 109.328,22.556 110.608,22.556 C112.144,22.556 112.896,23.996 112.896,25.436 C112.896,27.5 111.76,28.348 110.56,28.348 C109.216,28.348 108.272,27.212 108.272,25.452 L108.272,25.452 Z M116.272,25.452 C116.272,27.852 118.016,29.692 120.56,29.692 C122.496,29.692 123.696,28.54 123.696,28.54 L123.056,27.404 C123.056,27.404 122.048,28.348 120.656,28.348 C119.216,28.348 117.952,27.452 117.872,25.676 L123.776,25.676 C123.776,25.676 123.824,25.212 123.824,25.004 C123.824,22.908 122.608,21.212 120.32,21.212 C118.016,21.212 116.272,22.876 116.272,25.452 L116.272,25.452 Z M117.92,24.508 C118.144,23.18 119.104,22.444 120.288,22.444 C121.328,22.444 122.192,23.116 122.24,24.508 L117.92,24.508 Z M127.632,29.5 L129.424,29.5 L132.416,21.404 L130.784,21.404 L128.816,26.876 C128.656,27.324 128.544,27.98 128.528,27.98 L128.496,27.98 C128.48,27.98 128.384,27.324 128.224,26.876 L126.256,21.404 L124.608,21.404 L127.632,29.5 Z M133.184,25.452 C133.184,27.852 134.928,29.692 137.472,29.692 C139.408,29.692 140.608,28.54 140.608,28.54 L139.968,27.404 C139.968,27.404 138.96,28.348 137.568,28.348 C136.128,28.348 134.864,27.452 134.784,25.676 L140.688,25.676 C140.688,25.676 140.736,25.212 140.736,25.004 C140.736,22.908 139.52,21.212 137.232,21.212 C134.928,21.212 133.184,22.876 133.184,25.452 L133.184,25.452 Z M134.832,24.508 C135.056,23.18 136.016,22.444 137.2,22.444 C138.24,22.444 139.104,23.116 139.152,24.508 L134.832,24.508 Z M142.528,27.292 C142.528,29.324 143.824,29.564 144.704,29.564 C144.976,29.564 145.216,29.532 145.216,29.532 L145.216,28.156 C145.216,28.156 145.088,28.172 144.944,28.172 C144.464,28.172 144.08,27.996 144.08,27.02 L144.08,18.204 L142.528,18.204 L142.528,27.292 Z M146.272,25.436 C146.272,27.9 148.224,29.692 150.64,29.692 C153.056,29.692 155.008,27.9 155.008,25.436 C155.008,22.988 153.056,21.212 150.64,21.212 C148.224,21.212 146.272,22.988 146.272,25.436 L146.272,25.436 Z M147.856,25.436 C147.856,23.756 149.12,22.556 150.64,22.556 C152.176,22.556 153.424,23.756 153.424,25.436 C153.424,27.132 152.176,28.348 150.64,28.348 C149.12,28.348 147.856,27.132 147.856,25.436 L147.856,25.436 Z M156.848,32.7 L158.4,32.7 L158.4,29.068 C158.4,28.652 158.368,28.364 158.368,28.364 L158.4,28.364 C158.4,28.364 159.104,29.692 160.88,29.692 C162.992,29.692 164.544,28.028 164.544,25.452 C164.544,22.94 163.168,21.212 160.992,21.212 C158.96,21.212 158.272,22.684 158.272,22.684 L158.24,22.684 C158.24,22.684 158.272,22.412 158.272,22.092 L158.272,21.404 L156.848,21.404 L156.848,32.7 Z M158.352,25.484 C158.352,23.42 159.472,22.572 160.688,22.572 C162.032,22.572 162.976,23.708 162.976,25.468 C162.976,27.308 161.92,28.364 160.64,28.364 C159.152,28.364 158.352,26.924 158.352,25.484 L158.352,25.484 Z M165.888,25.452 C165.888,27.852 167.632,29.692 170.176,29.692 C172.112,29.692 173.312,28.54 173.312,28.54 L172.672,27.404 C172.672,27.404 171.664,28.348 170.272,28.348 C168.832,28.348 167.568,27.452 167.488,25.676 L173.392,25.676 C173.392,25.676 173.44,25.212 173.44,25.004 C173.44,22.908 172.224,21.212 169.936,21.212 C167.632,21.212 165.888,22.876 165.888,25.452 L165.888,25.452 Z M167.536,24.508 C167.76,23.18 168.72,22.444 169.904,22.444 C170.944,22.444 171.808,23.116 171.856,24.508 L167.536,24.508 Z M175.328,29.5 L176.88,29.5 L176.88,26.188 C176.88,25.692 176.928,25.196 177.072,24.732 C177.44,23.532 178.352,22.828 179.344,22.828 C179.584,22.828 179.792,22.876 179.792,22.876 L179.792,21.34 C179.792,21.34 179.6,21.308 179.392,21.308 C178.144,21.308 177.2,22.236 176.832,23.42 L176.8,23.42 C176.8,23.42 176.832,23.148 176.832,22.812 L176.832,21.404 L175.328,21.404 L175.328,29.5 Z M180.672,28.508 C180.672,28.508 181.76,29.692 183.744,29.692 C185.52,29.692 186.672,28.684 186.672,27.34 C186.672,24.684 182.512,25.004 182.512,23.548 C182.512,22.844 183.168,22.556 183.84,22.556 C185.12,22.556 185.84,23.276 185.84,23.276 L186.464,22.108 C186.464,22.108 185.632,21.212 183.856,21.212 C182.24,21.212 180.928,22.044 180.928,23.516 C180.928,26.156 185.088,25.852 185.088,27.34 C185.088,27.996 184.416,28.348 183.744,28.348 C182.336,28.348 181.424,27.404 181.424,27.404 L180.672,28.508 Z" id="Type-something-22" fill="#8F95A7"></path>
                    <g id="Imported-Layers" opacity="0.9">
                        <path d="M1.43497419,26.5163383 C1.43497419,26.5163383 2.94567097,28.166626 5.48206452,28.166626 C6.93894194,28.166626 8.20682581,27.4359547 8.20682581,26.0016042 C8.20682581,23.0249346 0.894903226,23.7556059 0.894903226,19.316966 C0.894903226,16.8813949 3.08021935,15.5550131 5.53588387,15.5550131 C8.39581935,15.5550131 9.71752258,17.0439756 9.71752258,17.0439756 L8.88144516,18.4513339 C8.88144516,18.4513339 7.7212,17.2059285 5.48206452,17.2059285 C4.10591613,17.2059285 2.7835871,17.8016391 2.7835871,19.316966 C2.7835871,22.3212554 10.0955097,21.5089799 10.0955097,26.0016042 C10.0955097,28.221238 8.17991613,29.8175414 5.45452903,29.8175414 C2.1627871,29.8175414 0.436187097,27.8420924 0.436187097,27.8420924 L1.43497419,26.5163383" id="Fill-1" fill="#1A1918"></path>
                        <path d="M32.4374258,15.5550131 C36.4037871,15.5550131 39.6141742,18.5862947 39.6141742,22.6187969 C39.6141742,26.7322755 36.4037871,29.8175414 32.4374258,29.8175414 C28.4710645,29.8175414 25.2606774,26.7322755 25.2606774,22.6187969 C25.2606774,18.5862947 28.4710645,15.5550131 32.4374258,15.5550131 L32.4374258,15.5550131 Z M32.4374258,28.166626 C35.3511806,28.166626 37.7261161,25.785667 37.7261161,22.6187969 C37.7261161,19.533531 35.3511806,17.2329207 32.4374258,17.2329207 C29.523671,17.2329207 27.1493613,19.533531 27.1493613,22.6187969 C27.1493613,25.785667 29.523671,28.166626 32.4374258,28.166626 L32.4374258,28.166626 Z" id="Fill-2" fill="#1A1918"></path>
                        <path d="M41.2337613,15.8801744 L43.0686258,15.8801744 L43.0686258,24.0531473 C43.0686258,26.191177 43.3927935,28.0856495 46.0099161,28.0856495 C49.1126645,28.0856495 51.0282581,25.3525371 51.0282581,22.4022319 L51.0282581,15.8801744 L52.8624968,15.8801744 L52.8624968,29.4930078 L51.0820774,29.4930078 L51.0820774,27.4635745 C51.0820774,26.867864 51.1358968,26.3807498 51.1358968,26.3807498 L51.0820774,26.3807498 C50.5426323,27.7071316 48.7615871,29.8175414 45.7671032,29.8175414 C42.583,29.8175414 41.2337613,28.0856495 41.2337613,24.5402616 L41.2337613,15.8801744" id="Fill-3" fill="#1A1918"></path>
                        <path d="M56.1824,17.4105667 L54.4019806,17.4105667 L54.4019806,15.8682476 L56.2099355,15.8682476 L56.2099355,11.4208195 L58.0172645,11.4208195 L58.0172645,15.8682476 L62.2858903,15.8682476 L62.2858903,17.4105667 L58.0172645,17.4105667 L58.0172645,24.3513165 C58.0172645,27.544551 60.0411226,27.9506888 61.0661935,27.9506888 C61.4441806,27.9506888 61.6869935,27.8960767 61.6869935,27.8960767 L61.6869935,29.5469922 C61.6869935,29.5469922 61.3903613,29.6016042 60.9041097,29.6016042 C59.3395935,29.6016042 56.1824,29.0868701 56.1824,24.5402616 L56.1824,17.4105667" id="Fill-4" fill="#1A1918"></path>
                        <path d="M68.8368323,15.5550131 C72.5872903,15.5550131 74.5035097,18.4513339 74.5035097,21.8341412 C74.5035097,22.1586748 74.4490645,22.7813775 74.4490645,22.7813775 L64.0343935,22.7813775 C64.1151226,26.2721534 66.4900581,28.166626 69.2955484,28.166626 C71.7781226,28.166626 73.4239935,26.5163383 73.4239935,26.5163383 L74.260071,27.9236966 C74.260071,27.9236966 72.2906581,29.8175414 69.241729,29.8175414 C65.1946387,29.8175414 62.1457097,26.8948561 62.1457097,22.700401 C62.1457097,18.234769 65.167729,15.5550131 68.8368323,15.5550131 L68.8368323,15.5550131 Z M72.6417355,21.2654228 C72.533471,18.4243418 70.806871,17.0979599 68.7830129,17.0979599 C66.5169677,17.0979599 64.5475548,18.5323104 64.1151226,21.2654228 L72.6417355,21.2654228 L72.6417355,21.2654228 Z" id="Fill-5" fill="#1A1918"></path>
                        <path d="M76.3928194,15.8801744 L78.2007742,15.8801744 L78.2007742,17.9096077 C78.2007742,18.5053182 78.1469548,18.9924324 78.1469548,18.9924324 L78.2007742,18.9924324 C78.8478581,17.1519442 81.0068903,15.5550131 83.1108516,15.5550131 C85.6203355,15.5550131 86.915129,16.7188143 87.3200258,18.9654403 L87.3738452,18.9654403 C88.1029097,17.124952 90.0723226,15.5550131 92.3659032,15.5550131 C95.6570194,15.5550131 96.8717097,17.4771055 96.8717097,20.8329207 L96.8717097,29.4930078 L95.0368452,29.4930078 L95.0368452,21.2930427 C95.0368452,19.0734089 94.578129,17.2329207 92.0955548,17.2329207 C90.0185032,17.2329207 88.3188129,19.0734089 87.8056516,21.0764778 C87.6166581,21.6715606 87.5634645,22.3212554 87.5634645,23.0519268 L87.5634645,29.4930078 L85.7286,29.4930078 L85.7286,21.2930427 C85.7286,19.2359895 85.4313419,17.2329207 82.8680387,17.2329207 C80.6558129,17.2329207 78.9830323,19.1550131 78.4166774,21.2384307 C78.2815032,21.8071491 78.2276839,22.4292241 78.2276839,23.0519268 L78.2276839,29.4930078 L76.3928194,29.4930078 L76.3928194,15.8801744" id="Fill-6" fill="#1A1918"></path>
                        <path d="M61.7451935,14.0101831 C61.2783419,14.0101831 60.8333935,13.759721 60.5836968,13.3560942 C60.3390065,12.9618832 60.3127226,12.4779076 60.5098516,12.055449 L65.2109097,0.819180471 C65.2171677,0.804115083 65.2240516,0.789049695 65.2309355,0.774612031 C65.4631097,0.303818657 65.9337161,0.0119267655 66.4575161,0.0119267655 C66.8217355,0.0119267655 67.1646774,0.154420227 67.4231355,0.413670445 L73.9340258,6.94451613 C74.2444258,7.2564952 74.3877355,7.70155187 74.3163935,8.13656495 C74.2444258,8.57157803 73.9665677,8.947585 73.5729355,9.14280732 C73.5585419,9.14971229 73.5435226,9.15661726 73.529129,9.16289451 L62.3278194,13.8783609 C62.1419548,13.9656146 61.9460774,14.0101831 61.7451935,14.0101831 L61.7451935,14.0101831 Z M66.5251032,1.73251962 L62.1194258,12.2638535 L72.6185806,7.84404534 L66.5251032,1.73251962 L66.5251032,1.73251962 Z" id="Fill-7" fill="#23A0CC"></path>
                        <path d="M19.1077484,15.5550131 C16.0319097,15.5550131 14.2239548,17.6390584 13.7114194,18.9384481 L13.6576,18.9384481 C13.6576,18.9384481 13.7114194,18.4513339 13.7114194,17.8286312 L13.7114194,11.4208195 L11.8765548,11.4208195 L11.8765548,29.4930078 L13.7114194,29.4930078 L13.7114194,22.9709503 C13.7114194,22.3212554 13.7652387,21.6985527 13.9273226,21.1574542 C14.5481226,18.8838361 16.5444452,17.2875327 18.8649355,17.2875327 C21.4820581,17.2875327 21.8056,19.1820052 21.8056,21.3200349 L21.8056,29.4930078 L23.6404645,29.4930078 L23.6404645,20.8329207 C23.6404645,17.4771055 22.4533097,15.5550131 19.1077484,15.5550131" id="Fill-8" fill="#1A1918"></path>
                    </g>
                </g>
            </g>
        </g>
    </g>
</svg>