<?xml version="1.0" encoding="UTF-8" standalone="no"?>
<svg width="102px" height="54px" viewBox="0 0 102 54" version="1.1" xmlns="http://www.w3.org/2000/svg" xmlns:xlink="http://www.w3.org/1999/xlink">
    <!-- Generator: sketchtool 3.6.1 (26313) - http://www.bohemiancoding.com/sketch -->
    <title>logo-usa-today</title>
    <desc>Created with sketchtool.</desc>
    <defs>
        <linearGradient x1="50%" y1="0%" x2="50%" y2="100%" id="linearGradient-1">
            <stop stop-color="#FF0000" stop-opacity="0.1" offset="0%"></stop>
            <stop stop-color="#FF0000" stop-opacity="0.2" offset="100%"></stop>
        </linearGradient>
    </defs>
    <g id="A-Landing" stroke="none" stroke-width="1" fill="none" fill-rule="evenodd" opacity="0.3">
        <g id="A01-Home-(Desktop)" transform="translate(-169.000000, -6131.000000)">
            <g id="logo-usa-today" transform="translate(135.000000, 6116.187500)">
                <path d="M0,0.8125 L170,0.8125 L170,78.8125 L0,78.8125 L0,0.8125 Z" id="Bounds-16:9" fill="url(#linearGradient-1)" opacity="0"></path>
                <g id="USA-Today" transform="translate(34.000000, 15.000000)" fill="#000000">
                    <ellipse id="circle5" cx="26.6807547" cy="26.8469491" rx="26.3284962" ry="26.7242876"></ellipse>
                    <path d="M64.8712032,6.05447827 L64.8712032,11.4420995 C64.8712032,12.6749451 64.8218871,13.8956339 63.8827661,14.8231286 C63.0937073,15.6111773 61.8537577,15.8900693 60.752598,15.8900693 C59.6514382,15.8900693 58.4114886,15.6104622 57.6231343,14.8231286 C56.6840134,13.8956339 56.6339927,12.6749451 56.6339927,11.4420995 L56.6339927,6.05447827 L59.0878247,6.05447827 L59.0878247,11.0995629 C59.0878247,12.3452805 59.1758893,13.7047002 60.752598,13.7047002 C62.3300111,13.7047002 62.4180757,12.3459956 62.4180757,11.0995629 L62.4180757,6.05447827 L64.8712032,6.05447827 L64.8712032,6.05447827 Z" id="path9"></path>
                    <path d="M71.6042704,8.51945443 C71.1533796,8.13830204 70.5770849,7.88372371 69.976132,7.88372371 C69.5252413,7.88372371 68.9242884,8.15045887 68.9242884,8.6839292 C68.9242884,9.2431434 69.5879433,9.45910592 70.0134714,9.59855192 L70.6397869,9.79020077 C71.9544152,10.1842251 72.9682149,10.8571414 72.9682149,12.4074949 C72.9682149,13.3607334 72.743474,14.3390007 71.9924591,14.9868883 C71.253421,15.622619 70.2642794,15.8893542 69.3124772,15.8893542 C68.1232528,15.8893542 66.9586865,15.483173 65.9949075,14.7966696 L67.0467511,12.7886473 C67.6596808,13.3357046 68.3853331,13.7805016 69.2251171,13.7805016 C69.8000028,13.7805016 70.4143415,13.4880226 70.4143415,12.813676 C70.4143415,12.1150158 69.4505625,11.8740245 68.9242884,11.7209915 C67.3842147,11.2761945 66.3697105,10.8700134 66.3697105,9.01502405 C66.3697105,7.06993117 67.7350641,5.79918483 69.6252827,5.79918483 C70.5770849,5.79918483 71.7409466,6.1045358 72.5793216,6.58794859 L71.6042704,8.51945443 L71.6042704,8.51945443 Z" id="path11"></path>
                    <path d="M76.5337745,13.9707203 L75.8828009,15.6354909 L73.2782023,15.6354909 L76.9092819,6.05447827 L79.5885594,6.05447827 L83.1442557,15.6354909 L80.5283848,15.6354909 L79.9140461,13.9707203 L76.5337745,13.9707203 L76.5337745,13.9707203 Z M78.2492729,9.01502405 L78.2239103,9.01502405 L77.2101106,12.0642432 L79.2503913,12.0642432 L78.2492729,9.01502405 L78.2492729,9.01502405 Z" id="path13"></path>
                    <path d="M61.7283537,26.9499246 L59.2752262,26.9499246 L59.2752262,19.4770494 L57.2462178,19.4770494 L57.2462178,17.3674817 L63.7566576,17.3674817 L63.7566576,19.4770494 L61.7283537,19.4770494 L61.7283537,26.9499246 L61.7283537,26.9499246 Z" id="path15"></path>
                    <path d="M74.60833,21.9806413 C74.60833,25.0813482 72.4179873,27.2674324 69.3878605,27.2674324 C66.3577337,27.2674324 64.1666864,25.0813482 64.1666864,21.9806413 C64.1666864,19.0823099 66.6712437,17.0492588 69.3878605,17.0492588 C72.1044773,17.0492588 74.60833,19.083025 74.60833,21.9806413 L74.60833,21.9806413 Z M66.7212644,21.9935133 C66.7212644,23.6461271 67.9224655,24.8525138 69.3878605,24.8525138 C70.8525509,24.8525138 72.0544566,23.645412 72.0544566,21.9935133 C72.0544566,20.6719943 70.8525509,19.4641774 69.3878605,19.4641774 C67.9224655,19.4641774 66.7212644,20.6719943 66.7212644,21.9935133 L66.7212644,21.9935133 Z" id="path17"></path>
                    <path d="M75.7433066,17.3674817 L79.2236197,17.3674817 C81.8528764,17.3674817 84.0185611,19.4641774 84.0185611,22.157988 C84.0185611,24.8517987 81.8401951,26.9492095 79.2236197,26.9492095 L75.7433066,26.9492095 L75.7433066,17.3674817 L75.7433066,17.3674817 Z M78.1971387,24.8396418 L78.7480708,24.8396418 C80.2120567,24.8396418 81.4646876,24.0265644 81.4646876,22.157988 C81.4646876,20.4431598 80.350142,19.4770494 78.7727289,19.4770494 L78.1971387,19.4770494 L78.1971387,24.8396418 L78.1971387,24.8396418 Z" id="path19"></path>
                    <path d="M87.5580535,25.2851539 L86.90708,26.9492095 L84.3024813,26.9492095 L87.9342655,17.3674817 L90.6128384,17.3674817 L94.1685347,26.9492095 L91.5526638,26.9492095 L90.9383252,25.2851539 L87.5580535,25.2851539 L87.5580535,25.2851539 Z M89.2742564,20.3287426 L89.2488938,20.3287426 L88.2350942,23.379392 L90.2753748,23.379392 L89.2742564,20.3287426 L89.2742564,20.3287426 Z" id="path21"></path>
                    <path d="M92.3882207,17.3674817 L95.3302829,17.3674817 L97.0958021,19.972619 L98.8620257,17.3674817 L101.802679,17.3674817 L98.3230703,22.3496369 L98.3230703,26.9499246 L95.8692383,26.9499246 L95.8692383,22.3496369 L92.3882207,17.3674817 L92.3882207,17.3674817 Z" id="path23"></path>
                    <path d="M57.9281901,32.6336004 L58.6432746,31.0267535 C58.6503198,31.0124513 58.6622966,31.0017247 58.6841366,31.0017247 L58.7066812,31.0017247 C58.7278167,31.0017247 58.7397934,31.0131664 58.7475431,31.0267535 L59.4569916,32.6336004 C59.4717864,32.66435 59.4527645,32.6958148 59.4175386,32.6958148 L59.3231334,32.6958148 C59.3019979,32.6958148 59.2879075,32.6815126 59.2822714,32.6693558 L59.1089602,32.2753315 L58.2741078,32.2753315 L58.1022057,32.6693558 C58.0972741,32.6822277 58.0838883,32.6958148 58.0620483,32.6958148 L57.9683475,32.6958148 C57.9324172,32.6958148 57.9140997,32.66435 57.9281901,32.6336004 L57.9281901,32.6336004 Z M59.0455537,32.1273042 C58.930013,31.8677201 58.8172903,31.6045605 58.7017495,31.3449764 L58.6841366,31.3449764 L58.3403324,32.1273042 L59.0455537,32.1273042 L59.0455537,32.1273042 Z" id="path27"></path>
                    <path d="M61.780488,31.0017247 C62.0179102,31.0017247 62.1898123,31.0839621 62.3497376,31.2234081 C62.3687595,31.2420009 62.3708731,31.2706052 62.3518511,31.2906282 C62.3307156,31.3120814 62.3060575,31.3349649 62.2863311,31.3571332 C62.2651956,31.3814469 62.2511052,31.3785864 62.2250381,31.3549879 C62.1052702,31.2484368 61.9354817,31.1683448 61.7776699,31.1683448 C61.4070941,31.1683448 61.1238783,31.4829922 61.1238783,31.8534179 C61.1238783,32.2209833 61.4063896,32.5434968 61.7776699,32.5434968 C62.0369321,32.5434968 62.201789,32.4433818 62.201789,32.4433818 L62.201789,32.1087114 L61.9312546,32.1087114 C61.9051875,32.1087114 61.88687,32.0894035 61.88687,32.0650898 L61.88687,31.9764165 C61.88687,31.9513877 61.9051875,31.9320798 61.9312546,31.9320798 L62.3377608,31.9320798 C62.3610098,31.9320798 62.3800318,31.953533 62.3800318,31.9764165 L62.3800318,32.5234738 C62.3800318,32.5363458 62.3708731,32.5549386 62.3617144,32.5628048 C62.3617144,32.5628048 62.1221786,32.7201284 61.7811925,32.7201284 C61.3112798,32.7201284 60.9322498,32.3404063 60.9322498,31.8634294 C60.9315452,31.3850224 61.3105753,31.0017247 61.780488,31.0017247 L61.780488,31.0017247 Z" id="path29"></path>
                    <path d="M62.954213,32.6336004 L63.6692976,31.0267535 C63.6763427,31.0124513 63.6883195,31.0017247 63.7101595,31.0017247 L63.7334086,31.0017247 C63.7545441,31.0017247 63.7658164,31.0131664 63.773566,31.0267535 L64.483719,32.6336004 C64.4985138,32.66435 64.4787874,32.6958148 64.4435615,32.6958148 L64.3498608,32.6958148 C64.3280208,32.6958148 64.3139304,32.6815126 64.3089988,32.6693558 L64.1356877,32.2753315 L63.3001307,32.2753315 L63.1282286,32.6693558 C63.1240015,32.6822277 63.1106157,32.6958148 63.0887757,32.6958148 L62.9943704,32.6958148 C62.9598491,32.6958148 62.9408272,32.66435 62.954213,32.6336004 L62.954213,32.6336004 Z M64.0722812,32.1273042 C63.9567404,31.8677201 63.8440177,31.6045605 63.728477,31.3449764 L63.7101595,31.3449764 L63.3670598,32.1273042 L64.0722812,32.1273042 L64.0722812,32.1273042 Z" id="path31"></path>
                    <path d="M65.1473738,31.043916 C65.1473738,31.0196024 65.1685093,31.0010096 65.1910539,31.0010096 L65.2502333,31.0010096 L66.3112356,32.3411214 L66.3154627,32.3411214 L66.3154627,31.070375 C66.3154627,31.0460614 66.3337801,31.0246081 66.3598472,31.0246081 L66.4422757,31.0246081 C66.4655248,31.0246081 66.4866603,31.0460614 66.4866603,31.070375 L66.4866603,32.6757918 C66.4866603,32.6993903 66.4655248,32.7194133 66.4422757,32.7194133 L66.4000047,32.7194133 L65.320685,31.3521275 L65.3178669,31.3521275 L65.3178669,32.6500479 C65.3178669,32.6729313 65.2995494,32.6950997 65.2734823,32.6950997 L65.1910539,32.6950997 C65.1685093,32.6950997 65.1473738,32.6729313 65.1473738,32.6500479 L65.1473738,31.043916 L65.1473738,31.043916 Z" id="path33"></path>
                    <path d="M67.3743514,31.043916 C67.3743514,31.0196024 67.395487,31.0010096 67.418736,31.0010096 L67.4772109,31.0010096 L68.5382132,32.3411214 L68.5431448,32.3411214 L68.5431448,31.070375 C68.5431448,31.0460614 68.5607578,31.0246081 68.5868249,31.0246081 L68.6692533,31.0246081 C68.6932069,31.0246081 68.7143424,31.0460614 68.7143424,31.070375 L68.7143424,32.6757918 C68.7143424,32.6993903 68.6932069,32.7194133 68.6692533,32.7194133 L68.6269823,32.7194133 L67.5476626,31.3521275 L67.545549,31.3521275 L67.545549,32.6500479 C67.545549,32.6729313 67.5265271,32.6950997 67.50046,32.6950997 L67.418736,32.6950997 C67.395487,32.6950997 67.3743514,32.6729313 67.3743514,32.6500479 L67.3743514,31.043916 L67.3743514,31.043916 Z" id="path35"></path>
                    <path d="M69.6020336,31.070375 C69.6020336,31.0460614 69.620351,31.0246081 69.6457136,31.0246081 L70.5721532,31.0246081 C70.5975158,31.0246081 70.6165378,31.0460614 70.6165378,31.070375 L70.6165378,31.1390254 C70.6165378,31.163339 70.5975158,31.1847923 70.5721532,31.1847923 L69.7823899,31.1847923 L69.7823899,31.7668899 L70.4566125,31.7668899 C70.4798615,31.7668899 70.5017016,31.787628 70.5017016,31.8112266 L70.5017016,31.880592 C70.5017016,31.907051 70.4798615,31.9256438 70.4566125,31.9256438 L69.7823899,31.9256438 L69.7823899,32.5349156 L70.5721532,32.5349156 C70.5975158,32.5349156 70.6165378,32.5556537 70.6165378,32.5792522 L70.6165378,32.6493328 C70.6165378,32.6722162 70.5975158,32.6943846 70.5721532,32.6943846 L69.6457136,32.6943846 C69.620351,32.6943846 69.6020336,32.6722162 69.6020336,32.6493328 L69.6020336,31.070375 L69.6020336,31.070375 Z" id="path37"></path>
                    <path d="M71.6345646,31.1847923 L71.2252403,31.1847923 C71.1991732,31.1847923 71.1815603,31.163339 71.1815603,31.1390254 L71.1815603,31.070375 C71.1815603,31.0460614 71.1991732,31.0246081 71.2252403,31.0246081 L72.2221316,31.0246081 C72.2481987,31.0246081 72.2665162,31.0460614 72.2665162,31.070375 L72.2665162,31.1390254 C72.2665162,31.163339 72.2481987,31.1847923 72.2221316,31.1847923 L71.8135119,31.1847923 L71.8135119,32.6500479 C71.8135119,32.6729313 71.7923764,32.6950997 71.7684228,32.6950997 L71.6789492,32.6950997 C71.6557001,32.6950997 71.6352691,32.6729313 71.6352691,32.6500479 L71.6352691,31.1847923 L71.6345646,31.1847923 Z" id="path39"></path>
                    <path d="M73.22325,31.1847923 L72.8139257,31.1847923 C72.7878586,31.1847923 72.7702457,31.163339 72.7702457,31.1390254 L72.7702457,31.070375 C72.7702457,31.0460614 72.7878586,31.0246081 72.8139257,31.0246081 L73.810817,31.0246081 C73.8368841,31.0246081 73.8559061,31.0460614 73.8559061,31.070375 L73.8559061,31.1390254 C73.8559061,31.163339 73.8368841,31.1847923 73.810817,31.1847923 L73.4021973,31.1847923 L73.4021973,32.6500479 C73.4021973,32.6729313 73.3810618,32.6950997 73.3578127,32.6950997 L73.2683391,32.6950997 C73.2443855,32.6950997 73.2239545,32.6729313 73.2239545,32.6500479 L73.2239545,31.1847923 L73.22325,31.1847923 Z" id="path41"></path>
                    <path d="M76.1822206,31.0017247 C76.4203473,31.0017247 76.5915449,31.0839621 76.7521747,31.2234081 C76.7704921,31.2420009 76.7733102,31.2706052 76.7542882,31.2906282 L76.6908817,31.3549879 C76.6718598,31.3785864 76.6528378,31.3764411 76.6295888,31.3528426 C76.5070028,31.2448613 76.3400324,31.1733505 76.180107,31.1733505 C75.8088267,31.1733505 75.5234974,31.4908583 75.5234974,31.8612841 C75.5234974,32.2288495 75.8081222,32.5456422 76.180107,32.5456422 C76.3851214,32.5456422 76.5048893,32.4619746 76.6295888,32.3668652 C76.6528378,32.3482724 76.6718598,32.3504178 76.6859501,32.3597142 L76.7564018,32.4240739 C76.7754237,32.4390911 76.7711966,32.4719861 76.7542882,32.4884336 C76.5943629,32.6457572 76.3921666,32.7201284 76.1822206,32.7201284 C75.7130124,32.7201284 75.3339824,32.3404063 75.3339824,31.8634294 C75.3339824,31.3850224 75.7130124,31.0017247 76.1822206,31.0017247 L76.1822206,31.0017247 Z" id="path43"></path>
                    <path d="M78.2401142,31.0017247 C78.7107314,31.0017247 79.0869434,31.3850224 79.0869434,31.8627143 C79.0869434,32.3396912 78.7107314,32.7194133 78.2401142,32.7194133 C77.769497,32.7194133 77.3968076,32.3396912 77.3968076,31.8627143 C77.3961031,31.3850224 77.769497,31.0017247 78.2401142,31.0017247 L78.2401142,31.0017247 Z M78.2401142,32.5520781 C78.6135081,32.5520781 78.922791,32.2417214 78.922791,31.8627143 C78.922791,31.4829922 78.6142126,31.1676297 78.2401142,31.1676297 C77.8674248,31.1676297 77.5602555,31.4822771 77.5602555,31.8627143 C77.5602555,32.2417214 77.8667203,32.5520781 78.2401142,32.5520781 L78.2401142,32.5520781 Z" id="path45"></path>
                    <path d="M80.0380411,31.0339045 C80.0429727,31.0153117 80.0612901,31.0010096 80.0810166,31.0010096 L80.1190605,31.0010096 C80.1345599,31.0010096 80.1542864,31.0124513 80.1585135,31.0260384 L80.6249036,32.3411214 L80.6361759,32.3411214 L81.0941118,31.0260384 C81.0990434,31.0117362 81.1180654,31.0010096 81.1349738,31.0010096 L81.1730177,31.0010096 C81.1906306,31.0010096 81.2103571,31.0153117 81.2152887,31.0339045 L81.5182309,32.6371759 C81.5259806,32.670786 81.5111857,32.6950997 81.4759599,32.6950997 L81.3822592,32.6950997 C81.3632372,32.6950997 81.3435107,32.6779371 81.3392836,32.6614896 L81.1293376,31.4322195 L81.1201789,31.4322195 L80.6883101,32.6922392 C80.6833785,32.7065414 80.662243,32.7186982 80.6474481,32.7186982 L80.6051771,32.7186982 C80.5910868,32.7186982 80.5699513,32.7058263 80.5650197,32.6922392 L80.1275147,31.4322195 L80.118356,31.4322195 L79.9133416,32.6614896 C79.9112281,32.677222 79.8900926,32.6950997 79.8710706,32.6950997 L79.7759608,32.6950997 C79.740735,32.6950997 79.7273492,32.670786 79.7336898,32.6371759 L80.0380411,31.0339045 L80.0380411,31.0339045 Z" id="path47"></path>
                    <path d="M82.2861542,31.070375 C82.2861542,31.0460614 82.3051762,31.0246081 82.3305388,31.0246081 L82.8504722,31.0246081 C83.1393241,31.0246081 83.3767462,31.2634541 83.3767462,31.5523576 C83.3767462,31.8476971 83.1393241,32.0886884 82.8525857,32.0886884 L82.464397,32.0886884 L82.464397,32.6500479 C82.464397,32.6729313 82.4432615,32.6950997 82.4200124,32.6950997 L82.3305388,32.6950997 C82.3051762,32.6950997 82.2861542,32.6729313 82.2861542,32.6500479 L82.2861542,31.070375 L82.2861542,31.070375 Z M82.8384954,31.9120568 C83.031533,31.9120568 83.1963899,31.7525878 83.1963899,31.5466367 C83.1963899,31.3535577 83.0322375,31.2055304 82.8384954,31.2055304 L82.4651015,31.2055304 L82.4651015,31.9113417 L82.8384954,31.9113417 L82.8384954,31.9120568 Z" id="path49"></path>
                    <path d="M83.7987518,32.6336004 L84.5138364,31.0267535 C84.5208815,31.0124513 84.5328583,31.0017247 84.5546983,31.0017247 L84.5772429,31.0017247 C84.5983784,31.0017247 84.6103552,31.0131664 84.6181049,31.0267535 L85.3275533,32.6336004 C85.3423481,32.66435 85.3233262,32.6958148 85.2881003,32.6958148 L85.1936951,32.6958148 C85.1725596,32.6958148 85.1584693,32.6815126 85.1528331,32.6693558 L84.979522,32.2753315 L84.1446696,32.2753315 L83.9727675,32.6693558 C83.9678358,32.6822277 83.95445,32.6958148 83.93261,32.6958148 L83.8389093,32.6958148 C83.8036834,32.6958148 83.785366,32.66435 83.7987518,32.6336004 L83.7987518,32.6336004 Z M84.9161155,32.1273042 C84.8005747,31.8677201 84.687852,31.6045605 84.5723113,31.3449764 L84.5546983,31.3449764 L84.2108941,32.1273042 L84.9161155,32.1273042 L84.9161155,32.1273042 Z" id="path51"></path>
                    <path d="M85.9919126,31.043916 C85.9919126,31.0196024 86.0130481,31.0010096 86.0362972,31.0010096 L86.0947721,31.0010096 L87.1557744,32.3411214 L87.160706,32.3411214 L87.160706,31.070375 C87.160706,31.0460614 87.1790235,31.0246081 87.2043861,31.0246081 L87.2868145,31.0246081 C87.3107681,31.0246081 87.3311991,31.0460614 87.3311991,31.070375 L87.3311991,32.6757918 C87.3311991,32.6993903 87.3107681,32.7194133 87.2868145,32.7194133 L87.2445435,32.7194133 L86.1652238,31.3521275 L86.1631102,31.3521275 L86.1631102,32.6500479 C86.1631102,32.6729313 86.1440883,32.6950997 86.1187257,32.6950997 L86.0362972,32.6950997 C86.0130481,32.6950997 85.9919126,32.6729313 85.9919126,32.6500479 L85.9919126,31.043916 L85.9919126,31.043916 Z" id="path53"></path>
                    <path d="M88.5507177,31.8913186 L87.9835817,31.0946887 C87.9652642,31.0639391 87.9835817,31.0246081 88.020921,31.0246081 L88.1315302,31.0246081 C88.1484386,31.0246081 88.1625289,31.0374801 88.1695741,31.0460614 L88.6444184,31.7125417 L89.1199673,31.0460614 C89.1270124,31.036765 89.1411028,31.0246081 89.1573067,31.0246081 L89.2679158,31.0246081 C89.3052552,31.0246081 89.3242771,31.0639391 89.3052552,31.0946887 L88.732483,31.8891733 L88.732483,32.6500479 C88.732483,32.6729313 88.7113475,32.6950997 88.6880985,32.6950997 L88.5958068,32.6950997 C88.5704442,32.6950997 88.5521267,32.6729313 88.5521267,32.6500479 L88.5521267,31.8913186 L88.5507177,31.8913186 Z" id="path55"></path>
                </g>
            </g>
        </g>
    </g>
</svg>