<svg width="215" height="32" viewBox="0 0 215 32" version="1.1" xmlns="http://www.w3.org/2000/svg" xmlns:xlink="http://www.w3.org/1999/xlink" xmlns:figma="http://www.figma.com/figma/ns">
<title>logo-shoutem-for-developers</title>
<desc>Created using Figma</desc>
<g id="Canvas" transform="translate(-134 -21)" figma:type="canvas">
<g id="logo-shoutem-for-developers" figma:type="frame">
<g id="for developers" figma:type="text">
<use xlink:href="#path0_fill" transform="translate(242 34.3)" fill="#8F95A7"/>
</g>
<g id="Imported Layers" opacity="0.9" figma:type="frame">
<g id="Fill 1" figma:type="vector">
<use xlink:href="#path1_fill" transform="translate(134.436 36.555)" fill="#1A1919"/>
</g>
<g id="Fill 2" figma:type="vector-operation">
<use xlink:href="#path2_fill" transform="translate(159.261 36.555)" fill="#1A1919"/>
</g>
<g id="Fill 3" figma:type="vector">
<use xlink:href="#path3_fill" transform="translate(175.234 36.8802)" fill="#1A1919"/>
</g>
<g id="Fill 4" figma:type="vector">
<use xlink:href="#path4_fill" transform="translate(188.402 32.4208)" fill="#1A1919"/>
</g>
<g id="Fill 5" figma:type="vector-operation">
<use xlink:href="#path5_fill" transform="translate(196.146 36.555)" fill="#1A1919"/>
</g>
<g id="Fill 6" figma:type="vector">
<use xlink:href="#path6_fill" transform="translate(210.393 36.555)" fill="#1A1919"/>
</g>
<g id="Fill 7" figma:type="vector-operation">
<use xlink:href="#path7_fill" transform="translate(194.379 21.0119)" fill="#23A0CC"/>
</g>
<g id="Fill 8" figma:type="vector">
<use xlink:href="#path8_fill" transform="translate(145.877 32.4208)" fill="#1A1919"/>
</g>
</g>
</g>
</g>
<defs>
<path id="path0_fill" d="M 1.648 15L 3.184 15L 3.184 8.264L 5.104 8.264L 5.104 7.016L 3.184 7.016L 3.184 6.664C 3.184 5.16 4.288 4.968 4.88 4.968C 5.12 4.968 5.28 5 5.28 5L 5.28 3.672C 5.28 3.672 5.04 3.624 4.688 3.624C 3.664 3.624 1.648 3.96 1.648 6.632L 1.648 7.016L 0.64 7.016L 0.64 8.264L 1.648 8.264L 1.648 15ZM 5.999 10.936C 5.999 13.4 7.951 15.192 10.367 15.192C 12.783 15.192 14.735 13.4 14.735 10.936C 14.735 8.488 12.783 6.712 10.367 6.712C 7.951 6.712 5.999 8.488 5.999 10.936ZM 7.583 10.936C 7.583 9.256 8.847 8.056 10.367 8.056C 11.903 8.056 13.151 9.256 13.151 10.936C 13.151 12.632 11.903 13.848 10.367 13.848C 8.847 13.848 7.583 12.632 7.583 10.936ZM 16.5754 15L 18.1274 15L 18.1274 11.688C 18.1274 11.192 18.1754 10.696 18.3194 10.232C 18.6874 9.032 19.5994 8.328 20.5914 8.328C 20.8314 8.328 21.0394 8.376 21.0394 8.376L 21.0394 6.84C 21.0394 6.84 20.8474 6.808 20.6394 6.808C 19.3914 6.808 18.4474 7.736 18.0794 8.92L 18.0474 8.92C 18.0474 8.92 18.0794 8.648 18.0794 8.312L 18.0794 6.904L 16.5754 6.904L 16.5754 15ZM 26.1568 10.952C 26.1568 13.464 27.5327 15.192 29.7248 15.192C 31.7248 15.192 32.3808 13.688 32.3808 13.688L 32.4127 13.688C 32.4127 13.688 32.3967 13.912 32.3967 14.232L 32.3967 15L 33.8687 15L 33.8687 3.704L 32.3168 3.704L 32.3168 7.448C 32.3168 7.752 32.3488 7.992 32.3488 7.992L 32.3168 7.992C 32.3168 7.992 31.6927 6.712 29.8208 6.712C 27.6767 6.712 26.1568 8.376 26.1568 10.952ZM 27.7408 10.952C 27.7408 9.112 28.7968 8.056 30.0767 8.056C 31.6128 8.056 32.3647 9.496 32.3647 10.936C 32.3647 13 31.2288 13.848 30.0287 13.848C 28.6848 13.848 27.7408 12.712 27.7408 10.952ZM 35.7341 10.952C 35.7341 13.352 37.4781 15.192 40.0221 15.192C 41.9581 15.192 43.1581 14.04 43.1581 14.04L 42.5181 12.904C 42.5181 12.904 41.5101 13.848 40.1181 13.848C 38.6781 13.848 37.4141 12.952 37.3341 11.176L 43.2381 11.176C 43.2381 11.176 43.2861 10.712 43.2861 10.504C 43.2861 8.408 42.0701 6.712 39.7821 6.712C 37.4781 6.712 35.7341 8.376 35.7341 10.952ZM 37.3821 10.008C 37.6061 8.68 38.5661 7.944 39.7501 7.944C 40.7901 7.944 41.6541 8.616 41.7021 10.008L 37.3821 10.008ZM 47.0891 15L 48.8811 15L 51.8731 6.904L 50.2411 6.904L 48.2731 12.376C 48.1131 12.824 48.0011 13.48 47.9851 13.48L 47.9531 13.48C 47.9371 13.48 47.8411 12.824 47.6811 12.376L 45.7131 6.904L 44.0651 6.904L 47.0891 15ZM 52.6404 10.952C 52.6404 13.352 54.3844 15.192 56.9284 15.192C 58.8644 15.192 60.0644 14.04 60.0644 14.04L 59.4244 12.904C 59.4244 12.904 58.4164 13.848 57.0244 13.848C 55.5844 13.848 54.3204 12.952 54.2404 11.176L 60.1444 11.176C 60.1444 11.176 60.1924 10.712 60.1924 10.504C 60.1924 8.408 58.9764 6.712 56.6884 6.712C 54.3844 6.712 52.6404 8.376 52.6404 10.952ZM 54.2884 10.008C 54.5124 8.68 55.4724 7.944 56.6564 7.944C 57.6964 7.944 58.5604 8.616 58.6084 10.008L 54.2884 10.008ZM 61.9794 12.792C 61.9794 14.824 63.2754 15.064 64.1554 15.064C 64.4274 15.064 64.6674 15.032 64.6674 15.032L 64.6674 13.656C 64.6674 13.656 64.5394 13.672 64.3954 13.672C 63.9154 13.672 63.5314 13.496 63.5314 12.52L 63.5314 3.704L 61.9794 3.704L 61.9794 12.792ZM 65.7178 10.936C 65.7178 13.4 67.6697 15.192 70.0858 15.192C 72.5017 15.192 74.4537 13.4 74.4537 10.936C 74.4537 8.488 72.5017 6.712 70.0858 6.712C 67.6697 6.712 65.7178 8.488 65.7178 10.936ZM 67.3017 10.936C 67.3017 9.256 68.5657 8.056 70.0858 8.056C 71.6217 8.056 72.8698 9.256 72.8698 10.936C 72.8698 12.632 71.6217 13.848 70.0858 13.848C 68.5657 13.848 67.3017 12.632 67.3017 10.936ZM 76.2941 18.2L 77.8461 18.2L 77.8461 14.568C 77.8461 14.152 77.8141 13.864 77.8141 13.864L 77.8461 13.864C 77.8461 13.864 78.5501 15.192 80.3261 15.192C 82.4381 15.192 83.9901 13.528 83.9901 10.952C 83.9901 8.44 82.6141 6.712 80.4381 6.712C 78.4061 6.712 77.7181 8.184 77.7181 8.184L 77.6861 8.184C 77.6861 8.184 77.7181 7.912 77.7181 7.592L 77.7181 6.904L 76.2941 6.904L 76.2941 18.2ZM 77.7981 10.984C 77.7981 8.92 78.9181 8.072 80.1341 8.072C 81.4781 8.072 82.4221 9.208 82.4221 10.968C 82.4221 12.808 81.3661 13.864 80.0861 13.864C 78.5981 13.864 77.7981 12.424 77.7981 10.984ZM 85.3279 10.952C 85.3279 13.352 87.0719 15.192 89.6159 15.192C 91.5519 15.192 92.7519 14.04 92.7519 14.04L 92.1119 12.904C 92.1119 12.904 91.1039 13.848 89.7119 13.848C 88.2719 13.848 87.0079 12.952 86.9279 11.176L 92.8319 11.176C 92.8319 11.176 92.8799 10.712 92.8799 10.504C 92.8799 8.408 91.6639 6.712 89.3759 6.712C 87.0719 6.712 85.3279 8.376 85.3279 10.952ZM 86.9759 10.008C 87.1999 8.68 88.1599 7.944 89.3439 7.944C 90.3839 7.944 91.2479 8.616 91.2959 10.008L 86.9759 10.008ZM 94.7629 15L 96.3149 15L 96.3149 11.688C 96.3149 11.192 96.3629 10.696 96.5069 10.232C 96.8749 9.032 97.7869 8.328 98.7789 8.328C 99.0189 8.328 99.2269 8.376 99.2269 8.376L 99.2269 6.84C 99.2269 6.84 99.0349 6.808 98.8269 6.808C 97.5789 6.808 96.6349 7.736 96.2669 8.92L 96.2349 8.92C 96.2349 8.92 96.2669 8.648 96.2669 8.312L 96.2669 6.904L 94.7629 6.904L 94.7629 15ZM 100.107 14.008C 100.107 14.008 101.195 15.192 103.179 15.192C 104.955 15.192 106.107 14.184 106.107 12.84C 106.107 10.184 101.947 10.504 101.947 9.048C 101.947 8.344 102.603 8.056 103.275 8.056C 104.555 8.056 105.275 8.776 105.275 8.776L 105.899 7.608C 105.899 7.608 105.067 6.712 103.291 6.712C 101.675 6.712 100.363 7.544 100.363 9.016C 100.363 11.656 104.523 11.352 104.523 12.84C 104.523 13.496 103.851 13.848 103.179 13.848C 101.771 13.848 100.859 12.904 100.859 12.904L 100.107 14.008Z"/>
<path id="path1_fill" fill-rule="evenodd" d="M 0.998787 10.9613C 0.998787 10.9613 2.50948 12.6116 5.04588 12.6116C 6.50276 12.6116 7.77064 11.8809 7.77064 10.4466C 7.77064 7.46992 0.458716 8.20059 0.458716 3.76195C 0.458716 1.32638 2.64403 0 5.0997 0C 7.95963 0 9.28134 1.48896 9.28134 1.48896L 8.44526 2.89632C 8.44526 2.89632 7.28501 1.65092 5.04588 1.65092C 3.66973 1.65092 2.3474 2.24663 2.3474 3.76195C 2.3474 6.76624 9.65932 5.95397 9.65932 10.4466C 9.65932 12.6662 7.74373 14.2625 5.01834 14.2625C 1.7266 14.2625 0 12.2871 0 12.2871L 0.998787 10.9613Z"/>
<path id="path2_fill" fill-rule="evenodd" d="M 14.3535 7.06396C 14.3535 3.03125 11.1431 0 7.17676 0C 3.21039 0 0 3.03125 0 7.06396C 0 11.1772 3.21039 14.2627 7.17676 14.2627C 11.1431 14.2627 14.3535 11.1772 14.3535 7.06396ZM 12.4654 7.06396C 12.4654 10.2307 10.0905 12.6116 7.17676 12.6116C 4.263 12.6116 1.88867 10.2307 1.88867 7.06396C 1.88867 3.97852 4.263 1.67798 7.17676 1.67798C 10.0905 1.67798 12.4654 3.97852 12.4654 7.06396Z"/>
<path id="path3_fill" fill-rule="evenodd" d="M 0 0L 1.83486 0L 1.83486 8.17297C 1.83486 10.311 2.15903 12.2055 4.77615 12.2055C 7.8789 12.2055 9.7945 9.47236 9.7945 6.52206L 9.7945 0L 11.6287 0L 11.6287 13.6128L 9.84832 13.6128L 9.84832 11.5834C 9.84832 10.9877 9.90214 10.5006 9.90214 10.5006L 9.84832 10.5006C 9.30887 11.827 7.52783 13.9374 4.53334 13.9374C 1.34924 13.9374 0 12.2055 0 8.66009L 0 0Z"/>
<path id="path4_fill" fill-rule="evenodd" d="M 1.78042 5.98975L 0 5.98975L 0 4.44743L 1.80795 4.44743L 1.80795 0L 3.61528 0L 3.61528 4.44743L 7.88391 4.44743L 7.88391 5.98975L 3.61528 5.98975L 3.61528 12.9305C 3.61528 16.1237 5.63914 16.5299 6.66421 16.5299C 7.0422 16.5299 7.28501 16.4753 7.28501 16.4753L 7.28501 18.1262C 7.28501 18.1262 6.98838 18.1808 6.50213 18.1808C 4.93761 18.1808 1.78042 17.666 1.78042 13.1194L 1.78042 5.98975Z"/>
<path id="path5_fill" fill-rule="evenodd" d="M 12.3578 6.2793C 12.3578 2.89648 10.4416 0 6.6911 0C 3.022 0 0 2.67993 0 7.14551C 0 11.3398 3.04892 14.2627 7.09601 14.2627C 10.1449 14.2627 12.1143 12.3687 12.1143 12.3687L 11.2783 10.9614C 11.2783 10.9614 9.63242 12.6116 7.14984 12.6116C 4.34433 12.6116 1.96939 10.7173 1.88867 7.22656L 12.3033 7.22656C 12.3033 7.22656 12.3578 6.60376 12.3578 6.2793ZM 6.6373 1.54297C 8.66116 1.54297 10.3878 2.86938 10.496 5.71045L 1.96939 5.71045C 2.40182 2.97729 4.37125 1.54297 6.6373 1.54297Z"/>
<path id="path6_fill" fill-rule="evenodd" d="M 0 0.325161L 1.80795 0.325161L 1.80795 2.35459C 1.80795 2.95031 1.75414 3.43742 1.75414 3.43742L 1.80795 3.43742C 2.45504 1.59693 4.61407 0 6.71803 0C 9.22752 0 10.5223 1.1638 10.9272 3.41043L 10.981 3.41043C 11.7101 1.56994 13.6795 0 15.9731 0C 19.2642 0 20.4789 1.92209 20.4789 5.27791L 20.4789 13.938L 18.644 13.938L 18.644 5.73803C 18.644 3.5184 18.1853 1.67791 15.7027 1.67791C 13.6257 1.67791 11.926 3.5184 11.4128 5.52146C 11.2238 6.11655 11.1706 6.76624 11.1706 7.49691L 11.1706 13.938L 9.33578 13.938L 9.33578 5.73803C 9.33578 3.68098 9.03852 1.67791 6.47522 1.67791C 4.26299 1.67791 2.59021 3.6 2.02386 5.68342C 1.88868 6.25214 1.83486 6.87421 1.83486 7.49691L 1.83486 13.938L 0 13.938L 0 0.325161Z"/>
<path id="path7_fill" fill-rule="evenodd" d="M 0.204741 13.3442C 0.454436 13.7478 0.899383 13.9983 1.36624 13.9983C 1.56711 13.9983 1.763 13.9536 1.94885 13.8665L 13.1502 9.15088C 13.1645 9.14478 13.1796 9.1377 13.194 9.13086C 13.5876 8.93555 13.8654 8.55957 13.9374 8.12451C 14.0088 7.6897 13.8654 7.24463 13.5551 6.93262L 7.04416 0.401611C 6.7857 0.142578 6.44278 0 6.07855 0C 5.55475 0 5.08414 0.291748 4.85196 0.762695C 4.84509 0.7771 4.83819 0.792236 4.83194 0.807129L 0.130889 12.0435C -0.0662546 12.4661 -0.0399485 12.95 0.204741 13.3442ZM 1.74045 12.252L 6.14615 1.72046L 12.2396 7.83203L 1.74045 12.252Z"/>
<path id="path8_fill" fill-rule="evenodd" d="M 7.23119 4.13419C 4.15535 4.13419 2.3474 6.21824 1.83486 7.51763L 1.78105 7.51763C 1.78105 7.51763 1.83486 7.03051 1.83486 6.40781L 1.83486 0L 0 0L 0 18.0722L 1.83486 18.0722L 1.83486 11.5501C 1.83486 10.9004 1.88868 10.2777 2.05077 9.73663C 2.67157 7.46302 4.66789 5.86671 6.98838 5.86671C 9.6055 5.86671 9.92904 7.76119 9.92904 9.89922L 9.92904 18.0722L 11.7639 18.0722L 11.7639 9.4121C 11.7639 6.05629 10.5768 4.13419 7.23119 4.13419Z"/>
</defs>
</svg>
