<?xml version="1.0" encoding="UTF-8" standalone="no"?>
<svg width="126px" height="23px" viewBox="0 0 126 23" version="1.1" xmlns="http://www.w3.org/2000/svg" xmlns:xlink="http://www.w3.org/1999/xlink">
    <!-- Generator: sketchtool 3.6.1 (26313) - http://www.bohemiancoding.com/sketch -->
    <title>logo-mashable</title>
    <desc>Created with sketchtool.</desc>
    <defs>
        <linearGradient x1="50%" y1="0%" x2="50%" y2="100%" id="linearGradient-1">
            <stop stop-color="#FF0000" stop-opacity="0.1" offset="0%"></stop>
            <stop stop-color="#FF0000" stop-opacity="0.2" offset="100%"></stop>
        </linearGradient>
    </defs>
    <g id="A-Landing" stroke="none" stroke-width="1" fill="none" fill-rule="evenodd" opacity="0.3">
        <g id="A01-Home-(Desktop)" transform="translate(-957.000000, -6145.000000)">
            <g id="logo-mashable" transform="translate(935.000000, 6116.187500)">
                <rect id="Bounds-16:9" fill="url(#linearGradient-1)" opacity="0" x="0" y="0.8125" width="170" height="78"></rect>
                <g id="Mashable" transform="translate(22.000000, 29.000000)" fill="#000000">
                    <path d="M18.6287686,0.0639531238 L18.6287686,14.2717112 L13.2994644,0.0639531238 L10.8865221,0.0639531238 L5.52249923,14.2717112 L5.52249923,0.0639531238 L0.0630002646,0.0639531238 L0.0630002646,21.5496078 L7.64901314,21.5496078 L12.0929932,9.6943901 L16.5022547,21.5496078 L24.0882676,21.5496078 L24.0882676,0.0639531238 L18.6287686,0.0639531238 L18.6287686,0.0639531238 Z" id="path13736" transform="translate(12.075634, 10.806780) scale(1, -1) translate(-12.075634, -10.806780) "></path>
                    <path d="M34.9369547,5.99385385 L34.9369547,7.5401866 C33.9865332,6.38153841 32.1421078,5.60616929 30.1761674,5.60616929 C27.8283225,5.60616929 24.9076207,7.24942317 24.9076207,10.7297732 C24.9076207,14.4964812 27.8283225,15.756456 30.1761674,15.756456 C32.2072052,15.756456 34.0169119,15.078008 34.9369547,13.9193599 L34.9369547,15.4656926 C34.9369547,16.8181831 33.7955809,17.7521504 31.8253007,17.7521504 C30.3020223,17.7521504 28.778744,17.139785 27.5418941,16.078058 L25.7321873,19.523164 C27.7024676,21.2325005 30.3367409,21.9373815 32.6845859,21.9373815 C36.3647569,21.9373815 39.8235968,20.5540525 39.8235968,15.721212 L39.8235968,5.99385385 L34.9369547,5.99385385 L34.9369547,5.99385385 Z M34.9369547,9.98964815 L34.9369547,11.3729772 C34.4291952,12.1131022 33.2878215,12.4699483 32.2072052,12.4699483 C30.9399765,12.4699483 29.7638841,11.8884214 29.7638841,10.6636906 C29.7638841,9.43895985 30.9399765,8.86183851 32.2072052,8.86183851 C33.2878215,8.86183851 34.4291952,9.24511757 34.9369547,9.98964815 L34.9369547,9.98964815 Z" id="path13748" transform="translate(32.365609, 13.771775) scale(1, -1) translate(-32.365609, -13.771775) "></path>
                    <path d="M40.1707828,8.01774349 L42.2018206,11.5597706 C43.3431944,10.5288821 45.7865154,9.46715509 47.5962222,9.46715509 C49.0544031,9.46715509 49.6576387,9.8856782 49.6576387,10.5641262 C49.6576387,12.493738 40.7436396,10.4980436 40.7436396,16.8111343 C40.7436396,19.5513592 43.0914845,21.9347382 47.3097938,21.9347382 C49.9136883,21.9347382 52.070581,21.097692 53.7197143,19.8729612 L51.84925,16.3617726 C50.9292072,17.2649014 49.1845979,18.0667036 47.3445124,18.0667036 C46.1987987,18.0667036 45.4393295,17.6173419 45.4393295,17.0049765 C45.4393295,15.3000456 54.3229498,17.0710591 54.3229498,10.6918859 C54.3229498,7.72698007 51.7537738,5.60352598 47.3748911,5.60352598 C44.6147629,5.60352598 41.7895373,6.53749334 40.1707828,8.01774349" id="path13752" transform="translate(47.246866, 13.769132) scale(1, -1) translate(-47.246866, -13.769132) "></path>
                    <path d="M65.3335181,0.0640422424 L65.3335181,9.11735788 C65.3335181,11.0161311 64.3483779,11.6284965 62.7947208,11.6284965 C61.3669187,11.6284965 60.4164971,10.8222889 59.8436403,10.1130023 L59.8436403,0.0640422424 L54.9569982,0.0640422424 L54.9569982,21.5496969 L59.8436403,21.5496969 L59.8436403,13.7211121 C60.7636831,14.8180832 62.5733898,16.0075699 65.1425658,16.0075699 C68.6317845,16.0075699 70.2201602,14.0118755 70.2201602,11.1438908 L70.2201602,0.0640422424 L65.3335181,0.0640422424 L65.3335181,0.0640422424 Z" id="path13756" transform="translate(62.588579, 10.806870) scale(1, -1) translate(-62.588579, -10.806870) "></path>
                    <path d="M80.944734,5.99385385 L80.944734,7.5401866 C79.9943125,6.38153841 78.1498872,5.60616929 76.1839468,5.60616929 C73.8361018,5.60616929 70.9154001,7.24942317 70.9154001,10.7297732 C70.9154001,14.4964812 73.8361018,15.756456 76.1839468,15.756456 C78.2149846,15.756456 80.0246913,15.078008 80.944734,13.9193599 L80.944734,15.4656926 C80.944734,16.8181831 79.8033602,17.7521504 77.83308,17.7521504 C76.3098017,17.7521504 74.7865234,17.139785 73.5496734,16.078058 L71.7399667,19.523164 C73.7102469,21.2325005 76.3445203,21.9373815 78.6923652,21.9373815 C82.3725362,21.9373815 85.8313762,20.5540525 85.8313762,15.721212 L85.8313762,5.99385385 L80.944734,5.99385385 L80.944734,5.99385385 Z M80.944734,9.98964815 L80.944734,11.3729772 C80.4369746,12.1131022 79.2956008,12.4699483 78.2149846,12.4699483 C76.9477559,12.4699483 75.7716635,11.8884214 75.7716635,10.6636906 C75.7716635,9.43895985 76.9477559,8.86183851 78.2149846,8.86183851 C79.2956008,8.86183851 80.4369746,9.24511757 80.944734,9.98964815 L80.944734,9.98964815 Z" id="path13760" transform="translate(78.373388, 13.771775) scale(1, -1) translate(-78.373388, -13.771775) "></path>
                    <path d="M87.5108882,0.451726805 L87.5108882,21.9373815 L92.3975304,21.9373815 L92.3975304,14.1748792 C93.6040015,15.721212 95.2531348,16.3952544 96.9369866,16.3952544 C100.777731,16.3952544 103.694093,13.337833 103.694093,8.24506762 C103.694093,2.96286545 100.712634,0.0640422424 96.9369866,0.0640422424 C95.222756,0.0640422424 93.6690989,0.773328772 92.3975304,2.25357892 L92.3975304,0.451726805 L87.5108882,0.451726805 L87.5108882,0.451726805 Z M95.3182321,4.44752111 C97.2537938,4.44752111 98.7119747,5.89693271 98.7119747,8.24506762 C98.7119747,10.5667695 97.2537938,12.0161811 95.3182321,12.0161811 C94.2723345,12.0161811 93.0007659,11.4346542 92.3975304,10.597608 L92.3975304,5.83085011 C93.0007659,4.9938039 94.2723345,4.44752111 95.3182321,4.44752111 L95.3182321,4.44752111 Z" id="path13764" transform="translate(95.602491, 11.000712) scale(1, -1) translate(-95.602491, -11.000712) "></path>
                    <path d="M104.39237,0.0644817442 L109.279015,0.0644817442 L109.279015,21.5501365 L104.39237,21.5501365 L104.39237,0.0644817442 L104.39237,0.0644817442 Z" id="path13766"></path>
                    <path d="M109.975127,13.7848152 C109.975127,18.2960537 113.308112,21.935002 118.099278,21.935002 C122.638735,21.935002 125.937001,18.5515731 125.937001,13.2693709 L125.937001,12.1415613 L115.022343,12.1415613 C115.369529,10.7582323 116.641097,9.59517859 118.858748,9.59517859 C119.939364,9.59517859 121.718692,10.0797843 122.604016,10.9168305 L124.73053,7.66556679 C123.207252,6.27783228 120.668454,5.6037898 118.320609,5.6037898 C113.594541,5.6037898 109.975127,8.72729383 109.975127,13.7848152 M118.099278,17.9392077 C115.972764,17.9392077 115.148198,16.6527998 114.957246,15.5249902 L121.27169,15.5249902 C121.145835,16.6219613 120.351647,17.9392077 118.099278,17.9392077" id="path13778" transform="translate(117.956064, 13.769396) scale(1, -1) translate(-117.956064, -13.769396) "></path>
                </g>
            </g>
        </g>
    </g>
</svg>