<?xml version="1.0" encoding="UTF-8" standalone="no"?>
<svg width="129px" height="23px" viewBox="0 0 129 23" version="1.1" xmlns="http://www.w3.org/2000/svg" xmlns:xlink="http://www.w3.org/1999/xlink">
    <!-- Generator: sketchtool 3.6.1 (26313) - http://www.bohemiancoding.com/sketch -->
    <title>logo-t-mobile</title>
    <desc>Created with sketchtool.</desc>
    <defs>
        <linearGradient x1="50%" y1="0%" x2="50%" y2="100%" id="linearGradient-1">
            <stop stop-color="#FF0000" stop-opacity="0.1" offset="0%"></stop>
            <stop stop-color="#FF0000" stop-opacity="0.2" offset="100%"></stop>
        </linearGradient>
    </defs>
    <g id="A-Landing" stroke="none" stroke-width="1" fill="none" fill-rule="evenodd" opacity="0.3">
        <g id="A01-Home-(Desktop)" transform="translate(-358.000000, -6145.000000)">
            <g id="logo-t-mobile" transform="translate(335.000000, 6116.187500)">
                <rect id="Bounds-16:9" fill="url(#linearGradient-1)" opacity="0" x="0" y="0.8125" width="170" height="78"></rect>
                <g id="T-Mobile" transform="translate(23.000000, 29.000000)" fill="#000000">
                    <path d="M0.0591359026,9.8520241 L4.27374645,9.8520241 L4.27374645,14.2088193 L0.0591359026,14.2088193 L0.0591359026,9.8520241 L0.0591359026,9.8520241 Z" id="path18"></path>
                    <path d="M10.1810568,1.15566265 L10.6810953,1.15566265 C13.9108053,1.15566265 15.4161542,2.90585542 16.0451927,7.5733012 L17.0452698,7.52850602 L16.9118215,0.123253012 L0.477273834,0.123253012 L0.31530426,7.52850602 L1.27770183,7.5733012 C1.44438134,5.82310843 1.64429209,4.88055422 2.07812982,3.938 C2.84506491,2.18754217 4.44565923,1.15566265 6.41284381,1.15566265 L7.11305477,1.15566265 L7.11305477,17.2670843 C7.11305477,18.9724819 7.01309939,19.5110843 6.61327789,19.9150361 C6.2796572,20.2291325 5.61267748,20.3637831 4.84548073,20.3637831 L4.07854564,20.3637831 L4.07854564,21.4407229 L13.2155659,21.4407229 L13.2155659,20.3637831 L12.4439209,20.3637831 C11.6816957,20.3637831 11.0100061,20.2288675 10.681357,19.9150361 C10.2812738,19.5110843 10.1813185,18.9722169 10.1813185,17.2670843 L10.1813185,1.15566265" id="path20"></path>
                    <path d="M12.9523327,9.8520241 L17.1669432,9.8520241 L17.1669432,14.2088193 L12.9523327,14.2088193 L12.9523327,9.8520241 L12.9523327,9.8520241 Z" id="path22"></path>
                    <path d="M25.3973002,9.8520241 L29.6166207,9.8520241 L29.6166207,14.2088193 L25.3973002,14.2088193 L25.3973002,9.8520241 L25.3973002,9.8520241 Z" id="path24"></path>
                    <path d="M38.0432252,9.8520241 L42.2580974,9.8520241 L42.2580974,14.2088193 L38.0432252,14.2088193 L38.0432252,9.8520241 L38.0432252,9.8520241 Z" id="path26"></path>
                    <path d="M53.6548418,21.440988 L58.9796897,2.62012048 L58.9796897,17.3895422 C58.9796897,19.0013735 58.8891542,19.5678072 58.5280588,19.9598313 C58.2569757,20.2646506 57.6287221,20.3955904 56.9321744,20.3955904 L56.6613529,20.3955904 L56.6613529,21.440988 L64.1880974,21.440988 L64.1880974,20.3955904 L63.7963874,20.3955904 C63.1040264,20.3955904 62.4718479,20.2649157 62.2010264,19.9598313 C61.8394077,19.5678072 61.7491339,19.0013735 61.7491339,17.3895422 L61.7491339,4.7986506 C61.7491339,3.18655422 61.8394077,2.5766506 62.2010264,2.18462651 C62.5019391,1.92327711 63.1040264,1.74886747 63.7963874,1.74886747 L64.1880974,1.74886747 L64.1880974,0.746674699 L58.3475112,0.746674699 L53.9518296,15.9515904 L49.6508702,0.746674699 L43.8403753,0.746674699 L43.8403753,1.74886747 L44.3820183,1.74886747 C45.9779026,1.74886747 46.2788154,2.09742169 46.2788154,4.18874699 L46.2788154,16.1694699 C46.2788154,18.0863855 46.1885416,18.8706988 45.9174584,19.4371325 C45.6165456,20.0035663 44.9799189,20.3955904 44.3218357,20.3955904 L43.8401136,20.3955904 L43.8401136,21.440988 L50.0417951,21.440988 L50.0417951,20.3955904 L49.6506085,20.3955904 C48.8679736,20.3955904 48.2355335,20.090506 47.8699899,19.4806024 C47.5130811,18.8706988 47.4228073,18.3042651 47.4228073,16.1694699 L47.4228073,2.62038554 L52.7170406,21.441253 L53.6548418,21.441253" id="path28"></path>
                    <path d="M70.6606004,6.7153012 C66.9274503,6.7153012 64.4890101,9.67787952 64.4890101,14.339759 C64.4890101,18.8272289 66.9274503,21.877012 70.5664016,21.877012 C74.2388458,21.877012 76.6775477,18.8272289 76.6775477,14.2962892 C76.6775477,9.80855422 74.2388458,6.7153012 70.6606004,6.7153012 M70.5402353,7.71722892 C71.619858,7.71722892 72.5529493,8.41433735 73.0647627,9.5906747 C73.5464848,10.6798072 73.7571237,12.1612289 73.7571237,14.2960241 C73.7571237,18.6960241 72.7034057,20.8742892 70.56614,20.8742892 C68.4327992,20.8742892 67.4047241,18.695759 67.4047241,14.2522892 C67.4047241,12.1609639 67.6195497,10.6798072 68.1012718,9.5906747 C68.579069,8.45807229 69.5466998,7.71722892 70.5402353,7.71722892" id="path30"></path>
                    <path d="M81.679503,0.528795181 L77.4041866,0.746674699 L77.4041866,1.70513253 L77.6106389,1.70513253 C78.8752576,1.70513253 79.1505274,2.14089157 79.1505274,4.18848193 L79.1505274,18.3477349 C79.1505274,20.1774458 79.0903448,20.6569398 78.8496146,21.440988 L79.8431501,21.440988 C80.5912454,20.1774458 80.7762414,19.9598313 81.0774158,19.9598313 C81.2236856,19.9598313 81.3696937,20.0033012 81.5850426,20.2211807 C83.0642252,21.440988 83.6964037,21.7023373 85.0512961,21.7023373 C88.2982759,21.7023373 90.6467039,18.5218795 90.6467039,13.9909398 C90.6467039,9.7213494 88.4746369,6.8459759 85.2276572,6.8459759 C83.5417606,6.8459759 82.3116815,7.67375904 81.679503,9.15491566 L81.679503,0.528795181 M84.801931,7.93510843 C86.7332677,7.93510843 87.7265416,10.0264337 87.7265416,14.1216145 C87.7265416,18.4346747 86.7029148,20.6566747 84.7459351,20.6566747 C82.5783164,20.6566747 81.4382495,18.3909398 81.4382495,14.2522892 C81.4382495,12.1609639 81.7095943,10.7235422 82.3417728,9.63414458 C82.9093205,8.58874699 83.877213,7.93510843 84.801931,7.93510843" id="path32"></path>
                    <path d="M96.2164686,6.93318072 L91.8252353,7.19453012 L91.8252353,8.15298795 L92.156501,8.15298795 C93.4164097,8.15298795 93.6877546,8.58874699 93.6877546,10.5928675 L93.6877546,17.9557108 C93.6877546,19.9600964 93.4166714,20.4393253 92.156501,20.4393253 L91.6789655,20.4393253 L91.6789655,21.440988 L98.2338925,21.440988 L98.2338925,20.4393253 L97.7605436,20.4393253 C96.4917383,20.4393253 96.2167302,20.0033012 96.2167302,17.9557108 L96.2167302,6.93318072 M94.7754888,0.57226506 C93.8423976,0.57226506 93.089854,1.31284337 93.089854,2.31503614 C93.089854,3.2300241 93.8423976,4.01407229 94.7456592,4.01407229 C95.6787505,4.01407229 96.4014645,3.27349398 96.4014645,2.31503614 C96.4014645,1.35657831 95.6787505,0.57226506 94.7754888,0.57226506" id="path34"></path>
                    <path d="M103.832963,0.528795181 L99.4417302,0.746674699 L99.4417302,1.70513253 L99.769071,1.70513253 C101.033428,1.70513253 101.304249,2.14089157 101.304249,4.18848193 L101.304249,17.9554458 C101.304249,20.0033012 101.033428,20.4390602 99.769071,20.4390602 L99.2915355,20.4390602 L99.2915355,21.4407229 L105.850126,21.4407229 L105.850126,20.4390602 L105.368404,20.4390602 C104.099598,20.4390602 103.832963,20.0030361 103.832963,17.9554458 L103.832963,0.528795181" id="path36"></path>
                    <path d="M117.828548,14.2088193 C117.682016,9.5906747 115.514398,6.7153012 112.237327,6.7153012 C109.071724,6.7153012 106.787927,9.8520241 106.787927,14.2088193 C106.787927,18.8704337 109.041633,21.876747 112.534053,21.876747 C114.791945,21.876747 116.357477,20.6566747 117.652187,17.9554458 L116.749187,17.4762169 C115.695469,19.7416867 114.641751,20.6566747 113.015775,20.6566747 C110.637517,20.6566747 109.618339,18.7400241 109.587724,14.2088193 L117.828548,14.2088193 M109.618077,13.1194217 C109.643982,9.8520241 110.69299,7.80443373 112.383335,7.80443373 C114.069231,7.80443373 115.062505,9.80855422 115.032675,13.1194217 L109.618077,13.1194217" id="path38"></path>
                    <path d="M121.631562,9.8520241 L125.846172,9.8520241 L125.846172,14.2088193 L121.631562,14.2088193 L121.631562,9.8520241 L121.631562,9.8520241 Z" id="path40"></path>
                    <path d="M127.42688,6.36012048 C127.681217,6.36012048 127.929535,6.42612048 128.171836,6.55838554 C128.414136,6.6906506 128.602795,6.87990361 128.737813,7.12587952 C128.873355,7.37185542 128.940864,7.62843373 128.940864,7.89561446 C128.940864,8.16014458 128.87414,8.41433735 128.740692,8.65819277 C128.607767,8.90231325 128.420677,9.09183133 128.180732,9.22674699 C127.940264,9.36166265 127.689067,9.42925301 127.426619,9.42925301 C127.16417,9.42925301 126.912974,9.36192771 126.672505,9.22674699 C126.432298,9.09183133 126.244947,8.90257831 126.111499,8.65819277 C125.977527,8.41433735 125.910542,8.16014458 125.910542,7.89561446 C125.910542,7.62843373 125.978312,7.37185542 126.114377,7.12587952 C126.250181,6.87990361 126.439363,6.69038554 126.68114,6.55838554 C126.924487,6.42612048 127.172805,6.36012048 127.42688,6.36012048 L127.42688,6.36012048 Z M127.42688,6.61563855 C127.21441,6.61563855 127.007172,6.67077108 126.806215,6.7813012 C126.604996,6.89183133 126.447475,7.04927711 126.333651,7.25443373 C126.220089,7.45959036 126.16357,7.67349398 126.16357,7.8953494 C126.16357,8.11614458 126.219304,8.32766265 126.331034,8.53016867 C126.442503,8.7326747 126.598716,8.89038554 126.79915,9.00356627 C126.999846,9.11674699 127.209176,9.17320482 127.42688,9.17320482 C127.645108,9.17320482 127.853915,9.11674699 128.054611,9.00356627 C128.255045,8.8906506 128.410734,8.73293976 128.52168,8.53016867 C128.632625,8.32766265 128.688359,8.11614458 128.688359,7.8953494 C128.688359,7.67349398 128.63184,7.45959036 128.518801,7.25443373 C128.405763,7.04954217 128.248503,6.89183133 128.046499,6.7813012 C127.844757,6.67077108 127.638304,6.61563855 127.42688,6.61563855 L127.42688,6.61563855 Z M126.762256,8.74221687 L126.762256,7.09089157 L127.323523,7.09089157 C127.514799,7.09089157 127.654004,7.10626506 127.739568,7.13674699 C127.825655,7.16722892 127.893949,7.22050602 127.944712,7.29657831 C127.995736,7.37238554 128.021379,7.45322892 128.021379,7.53857831 C128.021379,7.65918072 127.978467,7.76440964 127.893164,7.85373494 C127.808385,7.94306024 127.695085,7.99342169 127.554049,8.00428916 C127.611876,8.0286747 127.657929,8.05783133 127.69273,8.09175904 C127.758669,8.1566988 127.839,8.26590361 127.933984,8.41910843 L128.13311,8.74248193 L127.810479,8.74248193 L127.665256,8.48192771 C127.551432,8.27809639 127.460112,8.15033735 127.391294,8.09838554 C127.343148,8.05995181 127.272761,8.04086747 127.180394,8.04086747 L127.025489,8.04086747 L127.025489,8.74248193 L126.762256,8.74248193 L126.762256,8.74221687 Z M127.025751,7.8139759 L127.34655,7.8139759 C127.499361,7.8139759 127.603765,7.79091566 127.659761,7.74453012 C127.715757,7.69814458 127.743231,7.63691566 127.743231,7.56057831 C127.743231,7.51154217 127.729886,7.46754217 127.702935,7.42884337 C127.675984,7.39014458 127.639089,7.36098795 127.590943,7.34190361 C127.54332,7.32281928 127.454878,7.31354217 127.325878,7.31354217 L127.025751,7.31354217 L127.025751,7.8139759 L127.025751,7.8139759 Z" id="Shape"></path>
                </g>
            </g>
        </g>
    </g>
</svg>