<svg xmlns="http://www.w3.org/2000/svg" width="899" height="516" viewBox="0 0 899 516">
  <g fill="none" fill-rule="evenodd">
    <path fill="#444F6C" d="M50,30.0049352 C50,13.4336671 63.431269,0 79.9981367,0 L813.001863,0 C829.569377,0 843,13.4376372 843,30.0049352 L843,487 L50,487 L50,30.0049352 Z"/>
    <path fill="#DCDCDC" d="M455.505439,-319.5 C456.607004,-319.5 457.5,-318.610468 457.5,-317.496425 L457.5,410.496425 C457.5,411.602969 456.597656,412.5 455.505439,412.5 L436.5,412.5 L436.5,-319.5 L455.505439,-319.5 Z" transform="rotate(-90 447 46.5)"/>
    <ellipse cx="91.883" cy="46.216" fill="#BABABA" rx="3.437" ry="3.405"/>
    <ellipse cx="103.338" cy="46.216" fill="#BABABA" rx="3.437" ry="3.405"/>
    <ellipse cx="114.793" cy="46.216" fill="#BABABA" rx="3.437" ry="3.405"/>
    <rect width="732" height="430" x="81" y="57" fill="#000000"/>
    <polygon fill="#444F6C" points="50 487 843 487 843 494 50 494"/>
    <path fill="#444F6C" d="M0,507 C0,507 9.24124998,513.674047 35.8023877,515.993522 L862.445299,515.993522 C862.445299,515.993522 884.630143,516.54858 898.759766,507 L20.6121329,507 L0,507 Z"/>
    <polygon fill="#444F6C" points="0 494 0 507 898.76 507 898.762 494"/>
  </g>
</svg>
